<svg xmlns="http://www.w3.org/2000/svg" xmlns:xlink="http://www.w3.org/1999/xlink" width="817.128" height="74.859" viewBox="0 0 817.128 74.859"><defs><clipPath id="a"><rect width="99.759" height="74.859" fill="none"/></clipPath></defs><g transform="translate(-180 -7024.016)"><path d="M0,0H786.156l-6.274,52.528L0,52Z" transform="translate(180 7035.489)" fill="#fff0a6"/><path d="M12.959,21H9.551V15.063H4.5V21H1.074V6.781H4.5v5.645H9.551V6.781h3.408Zm7.129.2a5.432,5.432,0,0,1-3.936-1.45,5.008,5.008,0,0,1-1.5-3.774V15.7a6.489,6.489,0,0,1,.6-2.861A4.395,4.395,0,0,1,17,10.917a5.292,5.292,0,0,1,2.734-.679,4.574,4.574,0,0,1,3.516,1.382,5.43,5.43,0,0,1,1.289,3.853v1.279H18a2.372,2.372,0,0,0,.771,1.4,2.3,2.3,0,0,0,1.543.508,2.958,2.958,0,0,0,2.441-1.094l1.5,1.777a4.2,4.2,0,0,1-1.743,1.353A5.891,5.891,0,0,1,20.088,21.2Zm-.371-8.418q-1.445,0-1.719,1.914h3.32v-.254a1.63,1.63,0,0,0-.4-1.226A1.593,1.593,0,0,0,19.717,12.777Zm12.539.635-1.084-.078a1.947,1.947,0,0,0-1.992.977V21H25.889V10.434h3.086l.107,1.357A2.548,2.548,0,0,1,31.4,10.238a3.209,3.209,0,0,1,.918.117Zm7.578,0-1.084-.078a1.947,1.947,0,0,0-1.992.977V21H33.467V10.434h3.086l.107,1.357a2.548,2.548,0,0,1,2.314-1.553,3.209,3.209,0,0,1,.918.117ZM46.68,21a3.716,3.716,0,0,1-.312-.947A3.06,3.06,0,0,1,43.828,21.2a3.749,3.749,0,0,1-2.539-.9,2.875,2.875,0,0,1-1.045-2.271,2.955,2.955,0,0,1,1.27-2.6,6.468,6.468,0,0,1,3.691-.879h1.016v-.559q0-1.462-1.26-1.462a1.03,1.03,0,0,0-1.172,1.158H40.5a2.95,2.95,0,0,1,1.3-2.487,5.479,5.479,0,0,1,3.325-.956,4.8,4.8,0,0,1,3.193.986,3.429,3.429,0,0,1,1.2,2.705v4.678a4.79,4.79,0,0,0,.449,2.227V21Zm-2.061-2.148a1.836,1.836,0,0,0,1.021-.264,1.653,1.653,0,0,0,.581-.6V16.3h-.957q-1.719,0-1.719,1.543a.942.942,0,0,0,.3.728A1.1,1.1,0,0,0,44.619,18.852Zm9.834-8.418.107,1.24a3.633,3.633,0,0,1,3.018-1.436,2.675,2.675,0,0,1,2.705,1.592,3.516,3.516,0,0,1,3.105-1.592q3.213,0,3.3,3.887V21h-3.3V14.33a2.014,2.014,0,0,0-.273-1.182,1.164,1.164,0,0,0-1-.371,1.559,1.559,0,0,0-1.455.869l.01.137V21h-3.3V14.35a2.117,2.117,0,0,0-.264-1.2,1.161,1.161,0,0,0-1.006-.371,1.578,1.578,0,0,0-1.445.869V21H51.367V10.434ZM72.041,21h-3.3V10.434h3.3Zm-3.5-13.291a1.469,1.469,0,0,1,.508-1.152,2.159,2.159,0,0,1,2.637,0A1.469,1.469,0,0,1,72.2,7.709a1.469,1.469,0,0,1-.508,1.152,2.159,2.159,0,0,1-2.637,0A1.469,1.469,0,0,1,68.545,7.709ZM79.18,21.2a5.432,5.432,0,0,1-3.936-1.45,5.008,5.008,0,0,1-1.5-3.774V15.7a6.489,6.489,0,0,1,.6-2.861,4.395,4.395,0,0,1,1.753-1.919,5.292,5.292,0,0,1,2.734-.679,4.574,4.574,0,0,1,3.516,1.382,5.43,5.43,0,0,1,1.289,3.853v1.279H77.09a2.372,2.372,0,0,0,.771,1.4,2.3,2.3,0,0,0,1.543.508,2.958,2.958,0,0,0,2.441-1.094l1.5,1.777a4.2,4.2,0,0,1-1.743,1.353A5.891,5.891,0,0,1,79.18,21.2Zm-.371-8.418q-1.445,0-1.719,1.914h3.32v-.254a1.63,1.63,0,0,0-.4-1.226A1.593,1.593,0,0,0,78.809,12.777Zm9.17-2.344.107,1.24A3.583,3.583,0,0,1,91.1,10.238a3.015,3.015,0,0,1,2.466.986,4.7,4.7,0,0,1,.845,2.969V21h-3.3V14.33a1.783,1.783,0,0,0-.322-1.177,1.491,1.491,0,0,0-1.172-.376,1.569,1.569,0,0,0-1.436.762V21H84.893V10.434Zm12.09-2.627v2.627h1.738v2.285h-1.738v4.834a1.234,1.234,0,0,0,.215.83,1.152,1.152,0,0,0,.85.234,4.828,4.828,0,0,0,.82-.059v2.354a6.074,6.074,0,0,1-1.855.283,3.448,3.448,0,0,1-2.51-.8,3.282,3.282,0,0,1-.811-2.432V12.719H95.43V10.434h1.348V7.807ZM109.053,21a3.716,3.716,0,0,1-.312-.947A3.06,3.06,0,0,1,106.2,21.2a3.749,3.749,0,0,1-2.539-.9,2.875,2.875,0,0,1-1.045-2.271,2.955,2.955,0,0,1,1.27-2.6,6.468,6.468,0,0,1,3.691-.879h1.016v-.559q0-1.462-1.26-1.462a1.03,1.03,0,0,0-1.172,1.158h-3.291a2.95,2.95,0,0,1,1.3-2.487,5.479,5.479,0,0,1,3.325-.956,4.8,4.8,0,0,1,3.193.986,3.429,3.429,0,0,1,1.2,2.705v4.678a4.79,4.79,0,0,0,.449,2.227V21Zm-2.061-2.148a1.836,1.836,0,0,0,1.021-.264,1.653,1.653,0,0,0,.581-.6V16.3h-.957q-1.719,0-1.719,1.543a.942.942,0,0,0,.3.728A1.1,1.1,0,0,0,106.992,18.852Zm12.256-.82a.76.76,0,0,0-.439-.674,6.684,6.684,0,0,0-1.67-.527,7.615,7.615,0,0,1-2.031-.718,3.4,3.4,0,0,1-1.221-1.079,2.577,2.577,0,0,1-.42-1.455,2.92,2.92,0,0,1,1.2-2.4,4.948,4.948,0,0,1,3.145-.942,5.482,5.482,0,0,1,3.359.947,2.962,2.962,0,0,1,1.27,2.49h-3.3q0-1.27-1.338-1.27a1.326,1.326,0,0,0-.869.288.892.892,0,0,0-.352.718.819.819,0,0,0,.43.713,4.06,4.06,0,0,0,1.372.449,11.857,11.857,0,0,1,1.655.42,3.007,3.007,0,0,1,2.383,2.939,2.767,2.767,0,0,1-1.284,2.354,5.631,5.631,0,0,1-3.325.908,5.747,5.747,0,0,1-2.422-.488,4.05,4.05,0,0,1-1.66-1.328,3.007,3.007,0,0,1-.6-1.768h3.076a1.272,1.272,0,0,0,.488,1.069,2.009,2.009,0,0,0,1.2.337,1.58,1.58,0,0,0,1.011-.273A.875.875,0,0,0,119.248,18.031Zm9.277-2.393a6.455,6.455,0,0,1,1.084-3.955,3.568,3.568,0,0,1,3.027-1.445,3.035,3.035,0,0,1,2.383,1.113V6h3.3V21h-2.959l-.166-1.133a3.116,3.116,0,0,1-2.578,1.328,3.562,3.562,0,0,1-2.988-1.445A6.659,6.659,0,0,1,128.525,15.639Zm3.291.205q0,2.813,1.641,2.813a1.62,1.62,0,0,0,1.563-.918V13.715a1.576,1.576,0,0,0-1.543-.937q-1.523,0-1.65,2.461ZM145.3,21.2a5.432,5.432,0,0,1-3.936-1.45,5.008,5.008,0,0,1-1.5-3.774V15.7a6.489,6.489,0,0,1,.6-2.861,4.395,4.395,0,0,1,1.753-1.919,5.292,5.292,0,0,1,2.734-.679,4.574,4.574,0,0,1,3.516,1.382,5.43,5.43,0,0,1,1.289,3.853v1.279h-6.543a2.372,2.372,0,0,0,.771,1.4,2.3,2.3,0,0,0,1.543.508,2.958,2.958,0,0,0,2.441-1.094l1.5,1.777a4.2,4.2,0,0,1-1.743,1.353A5.891,5.891,0,0,1,145.3,21.2Zm-.371-8.418q-1.445,0-1.719,1.914h3.32v-.254a1.63,1.63,0,0,0-.4-1.226A1.593,1.593,0,0,0,144.932,12.777Zm10.742,2.861a7.134,7.134,0,0,1,.527-2.832,4.245,4.245,0,0,1,1.514-1.9,3.99,3.99,0,0,1,2.295-.669,3.173,3.173,0,0,1,2.578,1.113l.117-.918h2.988V20.6a4.455,4.455,0,0,1-.649,2.427,4.167,4.167,0,0,1-1.88,1.582,6.91,6.91,0,0,1-2.852.552,5.961,5.961,0,0,1-2.251-.439,4.063,4.063,0,0,1-1.665-1.143l1.377-1.934a3.018,3.018,0,0,0,2.422,1.084,1.96,1.96,0,0,0,2.188-2.246V20.15A3.09,3.09,0,0,1,159.99,21.2a3.819,3.819,0,0,1-3.125-1.479,6.13,6.13,0,0,1-1.191-3.96Zm3.3.205a3.759,3.759,0,0,0,.488,2.056,1.541,1.541,0,0,0,1.367.757,1.748,1.748,0,0,0,1.553-.713V13.5a1.7,1.7,0,0,0-1.533-.723,1.551,1.551,0,0,0-1.377.786A4.287,4.287,0,0,0,158.975,15.844Zm13.7,5.352a5.432,5.432,0,0,1-3.936-1.45,5.008,5.008,0,0,1-1.5-3.774V15.7a6.489,6.489,0,0,1,.6-2.861,4.395,4.395,0,0,1,1.753-1.919,5.292,5.292,0,0,1,2.734-.679,4.574,4.574,0,0,1,3.516,1.382,5.43,5.43,0,0,1,1.289,3.853v1.279h-6.543a2.372,2.372,0,0,0,.771,1.4,2.3,2.3,0,0,0,1.543.508,2.958,2.958,0,0,0,2.441-1.094l1.5,1.777a4.2,4.2,0,0,1-1.743,1.353A5.891,5.891,0,0,1,172.676,21.2Zm-.371-8.418q-1.445,0-1.719,1.914h3.32v-.254a1.63,1.63,0,0,0-.4-1.226A1.593,1.593,0,0,0,172.3,12.777Zm5.732,2.842a6.236,6.236,0,0,1,.615-2.817,4.4,4.4,0,0,1,1.768-1.9,5.323,5.323,0,0,1,2.705-.664,4.858,4.858,0,0,1,3.74,1.47,5.64,5.64,0,0,1,1.367,4v.117a5.472,5.472,0,0,1-1.372,3.921,4.871,4.871,0,0,1-3.716,1.45,4.927,4.927,0,0,1-3.623-1.353,5.29,5.29,0,0,1-1.475-3.667Zm3.291.205a3.932,3.932,0,0,0,.459,2.148,1.529,1.529,0,0,0,1.357.684q1.758,0,1.8-2.705v-.332q0-2.842-1.816-2.842-1.65,0-1.787,2.451Zm14.746-2.412-1.084-.078a1.947,1.947,0,0,0-1.992.977V21h-3.291V10.434h3.086l.107,1.357a2.548,2.548,0,0,1,2.314-1.553,3.209,3.209,0,0,1,.918.117Zm7.578,0-1.084-.078a1.947,1.947,0,0,0-1.992.977V21h-3.291V10.434h3.086l.107,1.357a2.548,2.548,0,0,1,2.314-1.553,3.209,3.209,0,0,1,.918.117Zm6.3,7.783a5.432,5.432,0,0,1-3.936-1.45,5.008,5.008,0,0,1-1.5-3.774V15.7a6.489,6.489,0,0,1,.6-2.861,4.395,4.395,0,0,1,1.753-1.919,5.292,5.292,0,0,1,2.734-.679,4.574,4.574,0,0,1,3.516,1.382,5.43,5.43,0,0,1,1.289,3.853v1.279h-6.543a2.372,2.372,0,0,0,.771,1.4,2.3,2.3,0,0,0,1.543.508,2.958,2.958,0,0,0,2.441-1.094l1.5,1.777a4.2,4.2,0,0,1-1.743,1.353A5.891,5.891,0,0,1,209.951,21.2Zm-.371-8.418q-1.445,0-1.719,1.914h3.32v-.254a1.63,1.63,0,0,0-.4-1.226A1.593,1.593,0,0,0,209.58,12.777ZM216.455,21V12.719h-1.533V10.434h1.533v-.84a3.651,3.651,0,0,1,1.064-2.8,4.206,4.206,0,0,1,2.988-1A6.544,6.544,0,0,1,222.051,6l.01,2.422a3.007,3.007,0,0,0-.811-.088q-1.494,0-1.494,1.289v.811h2.061v2.285h-2.061V21Zm11.631.2a5.432,5.432,0,0,1-3.936-1.45,5.008,5.008,0,0,1-1.5-3.774V15.7a6.489,6.489,0,0,1,.6-2.861A4.395,4.395,0,0,1,225,10.917a5.292,5.292,0,0,1,2.734-.679,4.574,4.574,0,0,1,3.516,1.382,5.43,5.43,0,0,1,1.289,3.853v1.279H226a2.372,2.372,0,0,0,.771,1.4,2.3,2.3,0,0,0,1.543.508,2.958,2.958,0,0,0,2.441-1.094l1.5,1.777a4.2,4.2,0,0,1-1.743,1.353A5.891,5.891,0,0,1,228.086,21.2Zm-.371-8.418q-1.445,0-1.719,1.914h3.32v-.254a1.63,1.63,0,0,0-.4-1.226A1.593,1.593,0,0,0,227.715,12.777Zm12.539.635-1.084-.078a1.947,1.947,0,0,0-1.992.977V21h-3.291V10.434h3.086l.107,1.357a2.548,2.548,0,0,1,2.314-1.553,3.209,3.209,0,0,1,.918.117Zm6.3,7.783a5.432,5.432,0,0,1-3.936-1.45,5.008,5.008,0,0,1-1.5-3.774V15.7a6.489,6.489,0,0,1,.6-2.861,4.395,4.395,0,0,1,1.753-1.919,5.292,5.292,0,0,1,2.734-.679,4.574,4.574,0,0,1,3.516,1.382,5.43,5.43,0,0,1,1.289,3.853v1.279h-6.543a2.372,2.372,0,0,0,.771,1.4,2.3,2.3,0,0,0,1.543.508,2.958,2.958,0,0,0,2.441-1.094l1.5,1.777a4.2,4.2,0,0,1-1.743,1.353A5.891,5.891,0,0,1,246.553,21.2Zm-.371-8.418q-1.445,0-1.719,1.914h3.32v-.254a1.63,1.63,0,0,0-.4-1.226A1.593,1.593,0,0,0,246.182,12.777Zm9.17-2.344.107,1.24a3.583,3.583,0,0,1,3.018-1.436,3.015,3.015,0,0,1,2.466.986,4.7,4.7,0,0,1,.845,2.969V21h-3.3V14.33a1.783,1.783,0,0,0-.322-1.177,1.491,1.491,0,0,0-1.172-.376,1.569,1.569,0,0,0-1.436.762V21h-3.291V10.434Zm12.725,8.223a1.464,1.464,0,0,0,1.074-.376,1.379,1.379,0,0,0,.371-1.05h3.086a3.653,3.653,0,0,1-1.245,2.852,4.631,4.631,0,0,1-3.208,1.113,4.689,4.689,0,0,1-3.633-1.445,5.7,5.7,0,0,1-1.328-4v-.137a6.436,6.436,0,0,1,.591-2.827,4.3,4.3,0,0,1,1.7-1.885,5.081,5.081,0,0,1,2.637-.659,4.573,4.573,0,0,1,3.271,1.143,4.053,4.053,0,0,1,1.211,3.1h-3.086a1.806,1.806,0,0,0-.4-1.26,1.382,1.382,0,0,0-1.074-.439q-1.279,0-1.494,1.631a11.51,11.51,0,0,0-.068,1.426,4.52,4.52,0,0,0,.381,2.207A1.319,1.319,0,0,0,268.076,18.656ZM277.471,21h-3.3V10.434h3.3Zm-3.5-13.291a1.469,1.469,0,0,1,.508-1.152,2.159,2.159,0,0,1,2.637,0,1.469,1.469,0,0,1,.508,1.152,1.469,1.469,0,0,1-.508,1.152,2.159,2.159,0,0,1-2.637,0A1.469,1.469,0,0,1,273.975,7.709ZM285.449,21a3.716,3.716,0,0,1-.312-.947A3.06,3.06,0,0,1,282.6,21.2a3.749,3.749,0,0,1-2.539-.9,2.875,2.875,0,0,1-1.045-2.271,2.955,2.955,0,0,1,1.27-2.6,6.468,6.468,0,0,1,3.691-.879h1.016v-.559q0-1.462-1.26-1.462a1.03,1.03,0,0,0-1.172,1.158h-3.291a2.95,2.95,0,0,1,1.3-2.487,5.479,5.479,0,0,1,3.325-.956,4.8,4.8,0,0,1,3.193.986,3.429,3.429,0,0,1,1.2,2.705v4.678a4.79,4.79,0,0,0,.449,2.227V21Zm-2.061-2.148a1.836,1.836,0,0,0,1.021-.264,1.653,1.653,0,0,0,.581-.6V16.3h-.957q-1.719,0-1.719,1.543a.942.942,0,0,0,.3.728A1.1,1.1,0,0,0,283.389,18.852Zm11.191-.2a1.464,1.464,0,0,0,1.074-.376,1.379,1.379,0,0,0,.371-1.05h3.086a3.653,3.653,0,0,1-1.245,2.852,4.631,4.631,0,0,1-3.208,1.113,4.689,4.689,0,0,1-3.633-1.445,5.7,5.7,0,0,1-1.328-4v-.137a6.436,6.436,0,0,1,.591-2.827,4.3,4.3,0,0,1,1.7-1.885,5.081,5.081,0,0,1,2.637-.659,4.573,4.573,0,0,1,3.271,1.143,4.053,4.053,0,0,1,1.211,3.1h-3.086a1.806,1.806,0,0,0-.4-1.26,1.382,1.382,0,0,0-1.074-.439q-1.279,0-1.494,1.631a11.51,11.51,0,0,0-.068,1.426,4.52,4.52,0,0,0,.381,2.207A1.319,1.319,0,0,0,294.58,18.656ZM303.975,21h-3.3V10.434h3.3Zm-3.5-13.291a1.469,1.469,0,0,1,.508-1.152,2.159,2.159,0,0,1,2.637,0,1.469,1.469,0,0,1,.508,1.152,1.469,1.469,0,0,1-.508,1.152,2.159,2.159,0,0,1-2.637,0A1.469,1.469,0,0,1,300.479,7.709Zm5.107,7.91A6.236,6.236,0,0,1,306.2,12.8a4.4,4.4,0,0,1,1.768-1.9,5.323,5.323,0,0,1,2.705-.664,4.859,4.859,0,0,1,3.74,1.47,5.64,5.64,0,0,1,1.367,4v.117a5.472,5.472,0,0,1-1.372,3.921,4.871,4.871,0,0,1-3.716,1.45,4.927,4.927,0,0,1-3.623-1.353,5.29,5.29,0,0,1-1.475-3.667Zm3.291.205a3.931,3.931,0,0,0,.459,2.148,1.529,1.529,0,0,0,1.357.684q1.758,0,1.8-2.705v-.332q0-2.842-1.816-2.842-1.65,0-1.787,2.451ZM311.123,6H314.6l-2.715,3.066-2.686,0Zm9.131,4.434.107,1.24a3.583,3.583,0,0,1,3.018-1.436,3.015,3.015,0,0,1,2.466.986,4.7,4.7,0,0,1,.845,2.969V21h-3.3V14.33a1.783,1.783,0,0,0-.322-1.177,1.491,1.491,0,0,0-1.172-.376,1.569,1.569,0,0,0-1.436.762V21h-3.291V10.434ZM343.3,15.795a6.372,6.372,0,0,1-1.108,3.931A3.554,3.554,0,0,1,339.2,21.2a3.046,3.046,0,0,1-2.393-1.064v4.932h-3.291V10.434h3.076l.1.977a3.046,3.046,0,0,1,2.49-1.172,3.582,3.582,0,0,1,3.037,1.44,6.45,6.45,0,0,1,1.084,3.96Zm-3.291-.205q0-2.812-1.641-2.812a1.549,1.549,0,0,0-1.562.84v4.16a1.6,1.6,0,0,0,1.582.879q1.572,0,1.621-2.715ZM350.7,21a3.716,3.716,0,0,1-.312-.947,3.06,3.06,0,0,1-2.539,1.143,3.749,3.749,0,0,1-2.539-.9,2.875,2.875,0,0,1-1.045-2.271,2.955,2.955,0,0,1,1.27-2.6,6.468,6.468,0,0,1,3.691-.879h1.016v-.559q0-1.462-1.26-1.462a1.03,1.03,0,0,0-1.172,1.158h-3.291a2.95,2.95,0,0,1,1.3-2.487,5.479,5.479,0,0,1,3.325-.956,4.8,4.8,0,0,1,3.193.986,3.429,3.429,0,0,1,1.2,2.705v4.678a4.79,4.79,0,0,0,.449,2.227V21Zm-2.061-2.148a1.836,1.836,0,0,0,1.021-.264,1.653,1.653,0,0,0,.581-.6V16.3h-.957q-1.719,0-1.719,1.543a.942.942,0,0,0,.3.728A1.1,1.1,0,0,0,348.643,18.852Zm13.115-5.439-1.084-.078a1.947,1.947,0,0,0-1.992.977V21h-3.291V10.434h3.086l.107,1.357a2.548,2.548,0,0,1,2.314-1.553,3.209,3.209,0,0,1,.918.117ZM368.6,21a3.716,3.716,0,0,1-.312-.947,3.06,3.06,0,0,1-2.539,1.143,3.749,3.749,0,0,1-2.539-.9,2.875,2.875,0,0,1-1.045-2.271,2.955,2.955,0,0,1,1.27-2.6,6.468,6.468,0,0,1,3.691-.879h1.016v-.559q0-1.462-1.26-1.462a1.03,1.03,0,0,0-1.172,1.158h-3.291a2.95,2.95,0,0,1,1.3-2.487,5.479,5.479,0,0,1,3.325-.956,4.8,4.8,0,0,1,3.193.986,3.429,3.429,0,0,1,1.2,2.705v4.678a4.79,4.79,0,0,0,.449,2.227V21Zm-2.061-2.148a1.836,1.836,0,0,0,1.021-.264,1.653,1.653,0,0,0,.581-.6V16.3h-.957q-1.719,0-1.719,1.543a.942.942,0,0,0,.3.728A1.1,1.1,0,0,0,366.543,18.852ZM381.719,21h-3.3V6h3.3Zm7.979,0a3.716,3.716,0,0,1-.312-.947,3.06,3.06,0,0,1-2.539,1.143,3.749,3.749,0,0,1-2.539-.9,2.875,2.875,0,0,1-1.045-2.271,2.955,2.955,0,0,1,1.27-2.6,6.468,6.468,0,0,1,3.691-.879h1.016v-.559q0-1.462-1.26-1.462a1.03,1.03,0,0,0-1.172,1.158h-3.291a2.95,2.95,0,0,1,1.3-2.487,5.479,5.479,0,0,1,3.325-.956,4.8,4.8,0,0,1,3.193.986,3.429,3.429,0,0,1,1.2,2.705v4.678a4.79,4.79,0,0,0,.449,2.227V21Zm-2.061-2.148a1.836,1.836,0,0,0,1.021-.264,1.653,1.653,0,0,0,.581-.6V16.3h-.957q-1.719,0-1.719,1.543a.942.942,0,0,0,.3.728A1.1,1.1,0,0,0,387.637,18.852Zm15.586-.391h4.814V21h-8.975V19.164l4.688-6.191h-4.482V10.434h8.662v1.777Zm5.84-2.842a6.236,6.236,0,0,1,.615-2.817,4.4,4.4,0,0,1,1.768-1.9,5.323,5.323,0,0,1,2.705-.664,4.859,4.859,0,0,1,3.74,1.47,5.64,5.64,0,0,1,1.367,4v.117a5.472,5.472,0,0,1-1.372,3.921,4.871,4.871,0,0,1-3.716,1.45,4.927,4.927,0,0,1-3.623-1.353,5.29,5.29,0,0,1-1.475-3.667Zm3.291.205a3.931,3.931,0,0,0,.459,2.148,1.529,1.529,0,0,0,1.357.684q1.758,0,1.8-2.705v-.332q0-2.842-1.816-2.842-1.65,0-1.787,2.451Zm11.377-5.391.107,1.24a3.583,3.583,0,0,1,3.018-1.436,3.015,3.015,0,0,1,2.466.986,4.7,4.7,0,0,1,.845,2.969V21h-3.3V14.33a1.783,1.783,0,0,0-.322-1.177,1.491,1.491,0,0,0-1.172-.376,1.569,1.569,0,0,0-1.436.762V21h-3.291V10.434ZM435.459,21h-3.3V10.434h3.3Zm-3.5-13.291a1.469,1.469,0,0,1,.508-1.152,2.159,2.159,0,0,1,2.637,0,1.469,1.469,0,0,1,.508,1.152,1.469,1.469,0,0,1-.508,1.152,2.159,2.159,0,0,1-2.637,0A1.469,1.469,0,0,1,431.963,7.709ZM438.252,21V12.719h-1.533V10.434h1.533v-.352a4.034,4.034,0,0,1,1.387-3.232,5.541,5.541,0,0,1,3.6-1.055,12.787,12.787,0,0,1,3.438.566l-.449,2.6-.547-.146a8.7,8.7,0,0,0-2.246-.283q-1.885,0-1.885,1.719v.186h2.07v2.285h-2.07V21Zm9.941,0h-3.311V10.434h3.311Zm6.475-2.344a1.464,1.464,0,0,0,1.074-.376,1.379,1.379,0,0,0,.371-1.05H459.2a3.653,3.653,0,0,1-1.245,2.852,4.631,4.631,0,0,1-3.208,1.113,4.689,4.689,0,0,1-3.633-1.445,5.7,5.7,0,0,1-1.328-4v-.137a6.436,6.436,0,0,1,.591-2.827,4.3,4.3,0,0,1,1.7-1.885,5.081,5.081,0,0,1,2.637-.659,4.573,4.573,0,0,1,3.271,1.143,4.053,4.053,0,0,1,1.211,3.1h-3.086a1.806,1.806,0,0,0-.4-1.26,1.382,1.382,0,0,0-1.074-.439q-1.279,0-1.494,1.631a11.51,11.51,0,0,0-.068,1.426,4.52,4.52,0,0,0,.381,2.207A1.319,1.319,0,0,0,454.668,18.656ZM466.543,21a3.716,3.716,0,0,1-.312-.947,3.06,3.06,0,0,1-2.539,1.143,3.749,3.749,0,0,1-2.539-.9,2.875,2.875,0,0,1-1.045-2.271,2.955,2.955,0,0,1,1.27-2.6,6.468,6.468,0,0,1,3.691-.879h1.016v-.559q0-1.462-1.26-1.462a1.03,1.03,0,0,0-1.172,1.158h-3.291a2.95,2.95,0,0,1,1.3-2.487,5.479,5.479,0,0,1,3.325-.956,4.8,4.8,0,0,1,3.193.986,3.429,3.429,0,0,1,1.2,2.705v4.678a4.79,4.79,0,0,0,.449,2.227V21Zm-2.061-2.148a1.836,1.836,0,0,0,1.021-.264,1.653,1.653,0,0,0,.581-.6V16.3h-.957q-1.719,0-1.719,1.543a.942.942,0,0,0,.3.728A1.1,1.1,0,0,0,464.482,18.852Zm11.191-.2a1.464,1.464,0,0,0,1.074-.376,1.379,1.379,0,0,0,.371-1.05h3.086a3.653,3.653,0,0,1-1.245,2.852,4.631,4.631,0,0,1-3.208,1.113,4.689,4.689,0,0,1-3.633-1.445,5.7,5.7,0,0,1-1.328-4v-.137a6.436,6.436,0,0,1,.591-2.827,4.3,4.3,0,0,1,1.7-1.885,5.081,5.081,0,0,1,2.637-.659,4.573,4.573,0,0,1,3.271,1.143,4.053,4.053,0,0,1,1.211,3.1h-3.086a1.806,1.806,0,0,0-.4-1.26,1.382,1.382,0,0,0-1.074-.439q-1.279,0-1.494,1.631a11.51,11.51,0,0,0-.068,1.426,4.52,4.52,0,0,0,.381,2.207A1.319,1.319,0,0,0,475.674,18.656ZM485.068,21h-3.3V10.434h3.3Zm-3.5-13.291a1.469,1.469,0,0,1,.508-1.152,2.159,2.159,0,0,1,2.637,0,1.469,1.469,0,0,1,.508,1.152,1.469,1.469,0,0,1-.508,1.152,2.159,2.159,0,0,1-2.637,0A1.469,1.469,0,0,1,481.572,7.709Zm5.107,7.91a6.236,6.236,0,0,1,.615-2.817,4.4,4.4,0,0,1,1.768-1.9,5.323,5.323,0,0,1,2.705-.664,4.859,4.859,0,0,1,3.74,1.47,5.64,5.64,0,0,1,1.367,4v.117a5.472,5.472,0,0,1-1.372,3.921,4.871,4.871,0,0,1-3.716,1.45,4.927,4.927,0,0,1-3.623-1.353,5.29,5.29,0,0,1-1.475-3.667Zm3.291.205a3.931,3.931,0,0,0,.459,2.148,1.529,1.529,0,0,0,1.357.684q1.758,0,1.8-2.705v-.332q0-2.842-1.816-2.842-1.65,0-1.787,2.451ZM492.217,6h3.477l-2.715,3.066-2.686,0Zm9.131,4.434.107,1.24a3.583,3.583,0,0,1,3.018-1.436,3.015,3.015,0,0,1,2.466.986,4.7,4.7,0,0,1,.845,2.969V21h-3.3V14.33a1.783,1.783,0,0,0-.322-1.177,1.491,1.491,0,0,0-1.172-.376,1.569,1.569,0,0,0-1.436.762V21h-3.291V10.434Zm17.461,5.957,1.758-5.957h3.525l-4.307,12.334-.186.449a3.272,3.272,0,0,1-3.242,2.051A5.158,5.158,0,0,1,515,25.073V22.729h.43a2.251,2.251,0,0,0,1.06-.2,1.216,1.216,0,0,0,.542-.718l.264-.7-3.672-10.673h3.516Zm20.928-.6a6.372,6.372,0,0,1-1.108,3.931,3.554,3.554,0,0,1-2.993,1.47,3.046,3.046,0,0,1-2.393-1.064v4.932h-3.291V10.434h3.076l.1.977a3.046,3.046,0,0,1,2.49-1.172,3.582,3.582,0,0,1,3.037,1.44,6.45,6.45,0,0,1,1.084,3.96Zm-3.291-.205q0-2.812-1.641-2.812a1.549,1.549,0,0,0-1.562.84v4.16a1.6,1.6,0,0,0,1.582.879q1.572,0,1.621-2.715ZM544.658,21h-3.3V6h3.3Zm7.979,0a3.715,3.715,0,0,1-.312-.947,3.06,3.06,0,0,1-2.539,1.143,3.749,3.749,0,0,1-2.539-.9,2.875,2.875,0,0,1-1.045-2.271,2.955,2.955,0,0,1,1.27-2.6,6.468,6.468,0,0,1,3.691-.879h1.016v-.559q0-1.462-1.26-1.462a1.03,1.03,0,0,0-1.172,1.158h-3.291a2.95,2.95,0,0,1,1.3-2.487,5.479,5.479,0,0,1,3.325-.956,4.8,4.8,0,0,1,3.193.986,3.429,3.429,0,0,1,1.2,2.705v4.678a4.79,4.79,0,0,0,.449,2.227V21Zm-2.061-2.148a1.836,1.836,0,0,0,1.021-.264,1.652,1.652,0,0,0,.581-.6V16.3h-.957q-1.719,0-1.719,1.543a.942.942,0,0,0,.3.728A1.1,1.1,0,0,0,550.576,18.852Zm9.746-8.418.107,1.24a3.583,3.583,0,0,1,3.018-1.436,3.015,3.015,0,0,1,2.466.986,4.7,4.7,0,0,1,.845,2.969V21h-3.3V14.33a1.783,1.783,0,0,0-.322-1.177,1.491,1.491,0,0,0-1.172-.376,1.569,1.569,0,0,0-1.436.762V21h-3.291V10.434Zm12.822,5.205a6.455,6.455,0,0,1,1.084-3.955,3.568,3.568,0,0,1,3.027-1.445,3.035,3.035,0,0,1,2.383,1.113V6h3.3V21H579.98l-.166-1.133a3.116,3.116,0,0,1-2.578,1.328,3.561,3.561,0,0,1-2.988-1.445A6.659,6.659,0,0,1,573.145,15.639Zm3.291.205q0,2.813,1.641,2.813a1.62,1.62,0,0,0,1.563-.918V13.715a1.576,1.576,0,0,0-1.543-.937q-1.523,0-1.65,2.461ZM589.922,21.2a5.432,5.432,0,0,1-3.936-1.45,5.008,5.008,0,0,1-1.5-3.774V15.7a6.489,6.489,0,0,1,.6-2.861,4.395,4.395,0,0,1,1.753-1.919,5.292,5.292,0,0,1,2.734-.679,4.574,4.574,0,0,1,3.516,1.382,5.43,5.43,0,0,1,1.289,3.853v1.279h-6.543a2.372,2.372,0,0,0,.771,1.4,2.3,2.3,0,0,0,1.543.508,2.958,2.958,0,0,0,2.441-1.094l1.5,1.777a4.2,4.2,0,0,1-1.743,1.353A5.891,5.891,0,0,1,589.922,21.2Zm-.371-8.418q-1.445,0-1.719,1.914h3.32v-.254a1.63,1.63,0,0,0-.4-1.226A1.593,1.593,0,0,0,589.551,12.777Zm17.52.635-1.084-.078a1.947,1.947,0,0,0-1.992.977V21H600.7V10.434h3.086l.107,1.357a2.548,2.548,0,0,1,2.314-1.553,3.209,3.209,0,0,1,.918.117Zm7.48,6.445a3.393,3.393,0,0,1-2.822,1.338,3.328,3.328,0,0,1-2.632-1.011,4.251,4.251,0,0,1-.894-2.905V10.434h3.291V17.3a1.183,1.183,0,0,0,1.318,1.357,1.72,1.72,0,0,0,1.611-.811V10.434h3.311V21h-3.086Zm8.818-12.051v2.627h1.738v2.285h-1.738v4.834a1.234,1.234,0,0,0,.215.83,1.152,1.152,0,0,0,.85.234,4.828,4.828,0,0,0,.82-.059v2.354a6.074,6.074,0,0,1-1.855.283,3.448,3.448,0,0,1-2.51-.8,3.282,3.282,0,0,1-.811-2.432V12.719H618.73V10.434h1.348V7.807ZM632.354,21a3.715,3.715,0,0,1-.312-.947A3.06,3.06,0,0,1,629.5,21.2a3.749,3.749,0,0,1-2.539-.9,2.875,2.875,0,0,1-1.045-2.271,2.955,2.955,0,0,1,1.27-2.6,6.468,6.468,0,0,1,3.691-.879h1.016v-.559q0-1.462-1.26-1.462a1.03,1.03,0,0,0-1.172,1.158h-3.291a2.95,2.95,0,0,1,1.3-2.487,5.479,5.479,0,0,1,3.325-.956,4.8,4.8,0,0,1,3.193.986,3.429,3.429,0,0,1,1.2,2.705v4.678a4.79,4.79,0,0,0,.449,2.227V21Zm-2.061-2.148a1.836,1.836,0,0,0,1.021-.264,1.652,1.652,0,0,0,.581-.6V16.3h-.957q-1.719,0-1.719,1.543a.942.942,0,0,0,.3.728A1.1,1.1,0,0,0,630.293,18.852Zm12.256-.82a.76.76,0,0,0-.439-.674,6.684,6.684,0,0,0-1.67-.527,7.615,7.615,0,0,1-2.031-.718,3.4,3.4,0,0,1-1.221-1.079,2.577,2.577,0,0,1-.42-1.455,2.92,2.92,0,0,1,1.2-2.4,4.948,4.948,0,0,1,3.145-.942,5.482,5.482,0,0,1,3.359.947,2.962,2.962,0,0,1,1.27,2.49h-3.3q0-1.27-1.338-1.27a1.326,1.326,0,0,0-.869.288.892.892,0,0,0-.352.718.819.819,0,0,0,.43.713,4.06,4.06,0,0,0,1.372.449,11.858,11.858,0,0,1,1.655.42,3.007,3.007,0,0,1,2.383,2.939,2.767,2.767,0,0,1-1.284,2.354,5.632,5.632,0,0,1-3.325.908,5.747,5.747,0,0,1-2.422-.488,4.05,4.05,0,0,1-1.66-1.328,3.007,3.007,0,0,1-.6-1.768h3.076A1.272,1.272,0,0,0,640,18.681a2.009,2.009,0,0,0,1.2.337,1.58,1.58,0,0,0,1.011-.273A.875.875,0,0,0,642.549,18.031Z" transform="translate(223 7048.489)" fill="#12263f"/><g transform="translate(897.369 7024.016)"><g clip-path="url(#a)"><path d="M346.557,230.354a.385.385,0,0,1-.227.027l.227.259v-.286" transform="translate(-256.153 -170.375)"/><path d="M142.111,112.094l0-.007-.006.006h.01" transform="translate(-105.101 -82.902)"/><path d="M.634,72.7a4.8,4.8,0,0,0,4.733,2.768q40.518-.031,81.037-.014c2.727,0,5.454.011,8.182,0,3.056-.016,4.866-1.808,4.867-4.848q.01-29.123,0-58.246c0-3.1-1.8-4.876-4.932-4.879C84.358,7.47,74.2,7.458,64.034,7.5a3.589,3.589,0,0,1-2.979-1.258A14.362,14.362,0,0,0,49.648,1.261,14.41,14.41,0,0,0,38.7,6.2a3.565,3.565,0,0,1-2.947,1.3c-10.032-.039-20.065.008-30.1-.044C3.3,7.44,1.559,8.212.548,10.4c-.1.226-.213.491-.548.471V72.054c.424,0,.5.371.634.645M6.243,10.32q10.763-.016,21.525-.031c2.562,0,5.124,0,7.791,0l-.886,2.531-.351,2.546a15.224,15.224,0,0,0,1.845,7.79c.176.377.331.762.5,1.144L38,26.685,41.131,31.5c2.363,3.19,4.864,6.271,7.4,9.323,1.237.93,1.857.857,2.881-.308A119.935,119.935,0,0,0,60.659,28.4h0a1.673,1.673,0,0,0-.325-2.285c-1.2-.466-1.707-.31-2.45.78a80.123,80.123,0,0,1-5.446,7.421,33.654,33.654,0,0,1-2.224,2.812c-.459.6-.648.012-.85-.227a96.09,96.09,0,0,1-8.184-11.1,39.194,39.194,0,0,1-2.765-5.231c-1.974-4.6-.889-8.658,2.187-12.356a6.279,6.279,0,0,1,1.489-1.379A12.08,12.08,0,0,1,54.956,5.159h0a9.955,9.955,0,0,1,4.25,3.177c2.985,3.519,4,7.419,2.292,11.845-.5,1.281-.388,1.7.662,2.478,1.184.191,1.685-.058,2.144-1.108a13.39,13.39,0,0,0,1.106-6.629,18.365,18.365,0,0,0-1.168-4.443c.158-.279.375-.185.547-.185q13.115-.009,26.23,0a3.765,3.765,0,0,1,.384.038c1.232-.013,2.465-.051,3.7-.03a1.461,1.461,0,0,1,1.532,1.531c.021,1.231-.018,2.464-.031,3.7.014.193.039.386.039.58q0,26.413,0,52.827c0,.194-.019.388-.03.582.146,2.874-.093,3.126-2.97,3.126H5.5c-2,0-2.386-.382-2.386-2.378q0-28.487-.024-56.973c-.007-2.961.647-3.14,3.15-2.967" transform="translate(0 -0.932)"/><path d="M5.932,74.859q44.326-.084,88.652-.035c3.3,0,5.174-1.882,5.174-5.2q0-29.129,0-58.258c0-3.233-1.9-5.124-5.152-5.124q-15.685,0-31.369.012a1.7,1.7,0,0,1-1.47-.679,15.465,15.465,0,0,0-23.778,0,1.7,1.7,0,0,1-1.47.678Q20.835,6.226,5.151,6.245A7.339,7.339,0,0,0,3.7,6.359,5,5,0,0,0,0,9.942c.334.021.443-.244.547-.471C1.559,7.281,3.3,6.508,5.66,6.521c10.032.053,20.064.005,30.1.044a3.566,3.566,0,0,0,2.947-1.3A14.41,14.41,0,0,1,49.648.33,14.362,14.362,0,0,1,61.055,5.307a3.589,3.589,0,0,0,2.979,1.257C74.2,6.526,84.358,6.538,94.52,6.546c3.13,0,4.931,1.777,4.932,4.879q.011,29.123,0,58.246c0,3.04-1.81,4.832-4.866,4.848-2.727.014-5.454,0-8.182,0q-40.518,0-81.037.014A4.8,4.8,0,0,1,.634,71.767C.5,71.494.424,71.127,0,71.123c.983,2.827,3.02,3.742,5.932,3.736" transform="translate(0 0)"/><path d="M103.976,72.447h0c1.232.331,1.559.73,1.56,1.965,0,4.51.012,9.019,0,13.528a4.645,4.645,0,0,1-4.786,4.8q-10.8.02-21.606,0a4.65,4.65,0,0,1-4.776-4.808c-.013-2.6,0-5.191-.006-7.786a4.727,4.727,0,0,1,1.429-3.5q1.685-1.687,3.372-3.372c.947-.94,1.389-1,2.563-.342.2-.309.4-.611.812-.648h0c0-.064.008-.128.009-.192a10.615,10.615,0,0,1-2.346-3.16h-.01c-.971.947-1.948,1.887-2.91,2.843a1.657,1.657,0,0,1-1.9.59,1.674,1.674,0,0,1-1.02-1.8c.024-1.686-.013-3.373.018-5.058.011-.578-.065-.842-.762-.838-2.366.014-2.366-.02-2.366,2.336,0,2.789.007,5.577,0,8.366a4.673,4.673,0,0,1-4.876,4.9q-3.987.023-7.975.033a25.232,25.232,0,0,0,1.941,3.053l6.024.033a4.673,4.673,0,0,1,4.886,4.888q.02,3.4.033,6.8a46.624,46.624,0,0,0,3.894,2.743A5.5,5.5,0,0,1,79.8,95.838c6.881.054,13.763.02,20.645.022a4.7,4.7,0,0,1,5.1,5.083c0,1.2.019,2.4-.009,3.6-.011.473.074.665.621.682,2.506.075,2.505.1,2.505-2.393q0-5.7,0-11.394a4.673,4.673,0,0,1,4.95-4.934c1.428,0,2.857.03,4.285-.009a5.177,5.177,0,0,1,3.993,1.668c3.587,3.621,7.2,7.212,10.8,10.819.2.2.384.422.678.761a.385.385,0,0,0,.227-.027c0-1.157,0-2.071,0-2.981,0-.384-.322-.543-.541-.763q-3.226-3.246-6.469-6.476c-.559-.555-1-1.133-.674-1.969a1.723,1.723,0,0,1,1.9-1.031c1.688.027,3.376-.008,5.064.018.5.008.732-.056.742-.661.043-2.467.068-2.467-2.432-2.467q-8.716,0-17.431,0a4.692,4.692,0,0,1-5.093-5.087q0-7.352,0-14.7c0-1.517.519-2.029,2.053-2.029,7.3,0,14.608-.016,21.911.02.821,0,1.048-.2.993-1.008-.076-1.1-.014-2.206-.02-3.31-.008-1.388-.554-1.935-1.952-1.936q-8.959-.005-17.919,0c-1.244,0-1.642-.321-1.978-1.544L108.6,53.73a13.39,13.39,0,0,1-1.106,6.629c-.459,1.05-.961,1.3-2.144,1.108l-1.826,3.457a1.673,1.673,0,0,1,.325,2.285h0a41.072,41.072,0,0,1,.129,5.237m12.783-15.554c2.009-.008,4.017,0,6.026,0,1.944,0,3.888-.006,5.832,0,1.139,0,1.844.6,1.856,1.537S129.777,60,128.655,60q-5.977.012-11.955,0c-1.116,0-1.826-.646-1.807-1.586s.72-1.521,1.866-1.526" transform="translate(-43.189 -39.74)" fill="#97dde9"/><path d="M11.9,95.867c0,2,.384,2.378,2.385,2.378h88.137c2.876,0,3.115-.251,2.97-3.126-1.915,0-3.829.008-5.744,0-.285,0-.589.075-.839-.144-.611.049-1.222.141-1.833.141q-38.364.011-76.728.006c-3.348,0-5.231-1.889-5.231-5.247q0-22.541-.008-45.083a9.038,9.038,0,0,1,.382-3.062,26.69,26.69,0,0,1-.374-4.748q0-.531.008-1.061c-2.5-.173-3.157.007-3.15,2.967q.07,28.487.024,56.973" transform="translate(-8.787 -26.538)" fill="#5d6972"/><path d="M143.367,119.269c-2.218-2.664-4.4-5.356-6.408-8.182a2.164,2.164,0,0,1-.207-.448,2.107,2.107,0,0,1-.825.609c.615,1.167.551,1.583-.4,2.539-1.029,1.037-2.05,2.083-3.1,3.1a2.3,2.3,0,0,0-.769,1.8c.029,2.435.006,4.87.013,7.3,0,1.382.554,1.92,1.967,1.92q10.519,0,21.039,0c1.384,0,1.928-.555,1.93-1.959q.007-6.624,0-13.247c0-1.208.313-1.618,1.472-1.946l-.024-.017a16.094,16.094,0,0,1-.023-5.244h0a119.971,119.971,0,0,1-9.246,12.118c-1.025,1.165-1.645,1.238-2.881.308-.326.436-.657.868-.978,1.308-.507.694-.959.765-1.563.04" transform="translate(-97.376 -78.028)" fill="#e5e5e5"/><path d="M148.809,124.986c-.414.037-.616.339-.812.648l.015.028a2.109,2.109,0,0,0,.825-.609c-.009-.022-.018-.045-.028-.067h0" transform="translate(-109.462 -92.442)" fill="#e5e5e5"/><path d="M232.406,110.743l.024.017.082-.024a41.068,41.068,0,0,0-.129-5.237,16.094,16.094,0,0,0,.023,5.244" transform="translate(-171.725 -78.029)" fill="#e5e5e5"/><path d="M175.551,33.16c.559-.884.8-1.979,1.722-2.623-1.05-.774-1.157-1.2-.662-2.478,1.712-4.426.693-8.327-2.292-11.845a1.682,1.682,0,0,1-.9,1.953c-.866.419-1.49-.038-2.069-.6a7.789,7.789,0,0,0-1.966-1.406c-.78-.387-1.4-.917-1.212-1.872.2-1,.952-1.308,1.9-1.251h0A12.08,12.08,0,0,0,157.2,14.715a15.493,15.493,0,0,0-1.567,6.439,13.965,13.965,0,0,0,1.687,6.014,64.743,64.743,0,0,0,7.395,11.473c.925,1.2,1.887,2.371,2.832,3.555A80.157,80.157,0,0,0,173,34.774c.743-1.09,1.251-1.245,2.45-.78h0a.839.839,0,0,1,.1-.835m-10.606-2.523a6.234,6.234,0,1,1,6.28-6.213,6.243,6.243,0,0,1-6.28,6.213" transform="translate(-115.112 -8.81)" fill="#f7c360"/><path d="M233.341,83.444c-.924.643-1.163,1.739-1.722,2.623a.839.839,0,0,0-.1.835h0l1.826-3.458" transform="translate(-171.181 -61.717)" fill="#f7c360"/><path d="M251.006,40.457c.015.03.032.057.048.086.309-1.186.72-1.515,1.938-1.516q9.155-.006,18.311,0a4.641,4.641,0,0,1,4.7,4.7q.015,23.328,0,46.655a4.574,4.574,0,0,1-3.025,4.422c1.546.114,3.1-.038,4.643.028.5.022,1.04-.091,1.472.3.01-.194.03-.388.03-.582q0-26.413,0-52.827c0-.193-.026-.386-.039-.579-.487.727-1.09,1.233-2.027.9a1.637,1.637,0,0,1-1.039-1.972c.111-.865-.193-1.165-1.056-1.055a1.638,1.638,0,0,1-1.972-1.04c-.333-.933.163-1.543.9-2.027a3.764,3.764,0,0,0-.385-.038q-13.115,0-26.23,0c-.171,0-.388-.095-.547.185a18.352,18.352,0,0,1,1.168,4.443,4.854,4.854,0,0,1,3.112-.084" transform="translate(-182.484 -26.551)" fill="#7a828a"/><path d="M254.357,52.939c0-.019.01-.035.015-.054-.016-.029-.033-.056-.048-.086a4.853,4.853,0,0,0-3.112.084Z" transform="translate(-185.801 -38.892)" fill="#7a828a"/><path d="M350.862,262.171c-1.547-.066-3.1.086-4.643-.028-.151.065-.306.128-.469.185.25.219.555.144.839.144,1.915,0,3.829,0,5.744,0-.432-.388-.968-.275-1.472-.3" transform="translate(-255.724 -193.886)" fill="#7a828a"/><path d="M157.9,49.521a75.056,75.056,0,0,1-9.567-14.177,13.191,13.191,0,0,1-1.746-6.71,10.354,10.354,0,0,1,1.8-5.957,6.285,6.285,0,0,0-1.489,1.379c-3.076,3.7-4.162,7.755-2.187,12.356a39.162,39.162,0,0,0,2.765,5.231,96.091,96.091,0,0,0,8.184,11.1c.2.24.391.829.85.227a33.705,33.705,0,0,0,2.224-2.811h0a1.507,1.507,0,0,1-.834-.637" transform="translate(-106.296 -16.772)" fill="#e9ab47"/><path d="M156.6,35.13a13.962,13.962,0,0,1-1.687-6.014,15.491,15.491,0,0,1,1.567-6.439,10.355,10.355,0,0,0-1.8,5.957,13.188,13.188,0,0,0,1.746,6.71,75.081,75.081,0,0,0,9.567,14.177,1.506,1.506,0,0,0,.835.637c-.945-1.184-1.908-2.356-2.833-3.555A64.757,64.757,0,0,1,156.6,35.13" transform="translate(-114.39 -16.772)" fill="#e9ab47"/><path d="M24.263,37.351c.015,1.38.195,2.75.26,4.127a5.227,5.227,0,0,1,4.883-2.45c5.861.068,11.723.021,17.584.025,1.229,0,1.633.338,1.946,1.57l2.315.027,0-.083c.366-.711.48-1.559,1.151-2.1l.886-2.531c-2.667,0-5.229,0-7.791,0q-10.763.014-21.525.031a1.88,1.88,0,0,1,.286,1.386" transform="translate(-17.734 -26.577)" fill="#7a828a"/><path d="M24.319,41.867h0c.058-.1.119-.2.18-.3-.065-1.377-.244-2.747-.26-4.127a1.879,1.879,0,0,0-.286-1.386q0,.53-.008,1.061a26.712,26.712,0,0,0,.374,4.748" transform="translate(-17.71 -26.669)" fill="#7a828a"/><path d="M151.286,119.15a.38.38,0,0,1-.018.277c1.322,1.438,2.359,3.1,3.593,4.608,1,1.226,2,2.457,3.02,3.668.662.786.885.773,1.576-.047.287-.34.474-.786.957-.924-2.537-3.052-5.037-6.133-7.4-9.323a10.384,10.384,0,0,1-1.726,1.74" transform="translate(-111.881 -86.839)" fill="#cdcdcd"/><path d="M151.126,124.133q0,.1-.009.192h0l.04.045a.381.381,0,0,0,.017-.277l-.048.04" transform="translate(-111.769 -91.782)" fill="#cdcdcd"/><path d="M159.423,133.387c-.691.819-.914.833-1.576.047-1.02-1.212-2.017-2.442-3.019-3.668-1.234-1.509-2.27-3.17-3.593-4.608,0,.006,0,.012-.008.019l0,0a2.159,2.159,0,0,0,.207.448c2.01,2.826,4.191,5.517,6.408,8.182.6.726,1.056.654,1.563-.04.321-.439.651-.872.978-1.307-.483.138-.67.583-.957.924" transform="translate(-111.848 -92.569)" fill="#cdcdcd"/><path d="M151.145,125.054l0,0c0-.006,0-.012.007-.019l-.039-.045c.01.022.018.045.028.068" transform="translate(-111.769 -92.442)" fill="#cdcdcd"/><path d="M348.6,36.713a1.365,1.365,0,0,0,1.176,2.084c1.485-.063,1.7.171,1.658,1.652a1.31,1.31,0,0,0,2.231,1.056c.17-.144.317-.335.575-.324.013-1.232.053-2.464.031-3.7a1.461,1.461,0,0,0-1.533-1.531c-1.231-.021-2.464.017-3.7.03,0,.333-.29.488-.442.728" transform="translate(-257.635 -26.588)" fill="#fefefe"/><path d="M347.295,38.117a1.638,1.638,0,0,0,1.972,1.04c.863-.11,1.167.19,1.056,1.055a1.637,1.637,0,0,0,1.039,1.972c.936.336,1.54-.17,2.027-.9-.258-.01-.405.18-.574.324a1.31,1.31,0,0,1-2.231-1.056c.043-1.481-.173-1.715-1.658-1.652a1.366,1.366,0,0,1-1.176-2.084c.153-.239.444-.395.442-.728-.733.484-1.229,1.094-.9,2.027" transform="translate(-256.788 -26.693)" fill="#fefefe"/><path d="M205.58,16.562c-1.1.359-1.422,1.494-.509,2.152q1.611,1.16,3.231,2.31a1.231,1.231,0,0,0,1.883-.7c.115-.3.051-.656.3-.908a9.957,9.957,0,0,0-4.25-3.177h0c-.123.3-.422.25-.657.327" transform="translate(-151.281 -12.008)" fill="#fefefe"/><path d="M203.673,17.467c-.189.955.432,1.485,1.212,1.872a7.794,7.794,0,0,1,1.966,1.406c.579.562,1.2,1.019,2.069.6a1.682,1.682,0,0,0,.9-1.953c-.252.252-.187.61-.3.908a1.231,1.231,0,0,1-1.883.7q-1.621-1.146-3.231-2.31c-.913-.658-.591-1.793.509-2.152.235-.077.534-.025.657-.327-.946-.058-1.7.252-1.9,1.25" transform="translate(-150.615 -11.99)" fill="#fefefe"/><path d="M126.654,53.805c-.036.043-.069.089-.109.13l-.038.018a11.985,11.985,0,0,0-.189,7.734,1.915,1.915,0,0,1,1.022,1.5l2.34-.019h0c-.165-.382-.321-.768-.5-1.144a15.223,15.223,0,0,1-1.845-7.79c-.051-.46-.393-.4-.684-.425" transform="translate(-93.016 -39.795)" fill="#81cfd7"/><path d="M128.661,53.88c.04-.041.073-.086.109-.129a.8.8,0,0,1-.117-.019l0,.083h0c-.009.028-.017.056-.026.084.012-.007.026-.011.038-.018" transform="translate(-95.132 -39.741)" fill="#81cfd7"/><path d="M142.017,100.108h0a1.813,1.813,0,0,1,.028,2.231l0,.007c.3.058.434.361.593.6.568.854,1.2,1.661,1.789,2.5a4.374,4.374,0,0,1,1.739-1.721l-3.129-4.818Z" transform="translate(-105.039 -73.154)" fill="#81cfd7"/><path d="M144.487,115.273h0c.011-.02.023-.039.035-.059-.589-.84-1.22-1.647-1.789-2.5-.159-.238-.3-.541-.593-.6a10.621,10.621,0,0,0,2.347,3.16" transform="translate(-105.13 -82.921)" fill="#81cfd7"/><path d="M151.286,119.131l.013.018h0a10.394,10.394,0,0,0,1.726-1.74,4.374,4.374,0,0,0-1.739,1.721" transform="translate(-111.894 -86.839)" fill="#81cfd7"/><path d="M151.2,124.039h0l-.013-.018c-.011.02-.024.039-.035.059l.048-.04" transform="translate(-111.795 -91.728)" fill="#81cfd7"/><path d="M131.971,89.948c-.053-.045-.1-.094-.148-.143q0,.569,0,1.137c.311.686,1.031,1.227.746,2.123a1.843,1.843,0,0,1,1.807.2,1.673,1.673,0,0,1,1.124-1.136l-1.338-2.385h0a2.747,2.747,0,0,1-2.192.2" transform="translate(-97.499 -66.379)" fill="#cdcdcd"/><path d="M131.823,89.768h0V89.8c.048.049.1.1.148.143a2.747,2.747,0,0,0,2.192-.2l-2.34.02" transform="translate(-97.499 -66.379)" fill="#cdcdcd"/><path d="M141.63,100.044c.034.022.067.041.1.064h0l1.024-1.2a1.672,1.672,0,0,0-1.124,1.136" transform="translate(-104.752 -73.154)" fill="#cdcdcd"/><path d="M130.051,48.205l.351-2.546a16.568,16.568,0,0,1-.972,2.047c.357-.1.672-.132.621.5" transform="translate(-95.729 -33.77)" fill="#57626a"/><path d="M128.741,47.761h0l.179-.055a16.574,16.574,0,0,0,.972-2.047c-.672.543-.786,1.391-1.151,2.1" transform="translate(-95.219 -33.77)" fill="#57626a"/><path d="M129.252,53.357c-.02.026-.042.049-.063.074.291.029.633-.035.684.425.051-.632-.264-.6-.621-.5" transform="translate(-95.551 -39.421)" fill="#57626a"/><path d="M128.92,53.52l-.179.055a.8.8,0,0,0,.117.019c.021-.025.043-.049.063-.074" transform="translate(-95.219 -39.584)" fill="#57626a"/><path d="M55.449,63.171c-.6.014-1.181-.2-1.782-.2-.006-.022-.014-.043-.02-.065l-.743.655V61.145c-.079-.173-.155-.348-.222-.528-.051-.358-.113-.718.2-1-.446-.467-.707-1.084-1.187-1.527-.36-.022-.719-.05-1.078-.05-7.238,0-14.477-.018-21.715.019-.823,0-1.046-.206-.992-1.01.075-1.1.014-2.206.02-3.31.008-1.39.552-1.934,1.951-1.935q8.959-.006,17.917,0c1.223,0,1.627-.311,1.962-1.485-.031-.016-.062-.027-.093-.045a2.314,2.314,0,0,0-2.458-1.311q-8.5.055-17.006,0A4.959,4.959,0,0,0,25.95,50.85a1.473,1.473,0,0,1-.571.509c0,.057.005.114.007.171a21.621,21.621,0,0,0-.256,4.655q0,21.384,0,42.768c0,.487-.018.975.025,1.461a4.481,4.481,0,0,0,3.974,4.041,15.732,15.732,0,0,0,1.655.035q37.653,0,75.306,0c.812,0,1.622-.046,2.433-.073.074.009.147.013.221.02a2.025,2.025,0,0,1,.51-.341,4.71,4.71,0,0,0,2.554-4.378c-.016-5.643-.006-11.287-.005-16.931q0-14.4.008-28.8a4.815,4.815,0,0,0-1.382-3.708,4.488,4.488,0,0,0-3.255-1.29c-5.871,0-11.742.028-17.612-.021a2.763,2.763,0,0,0-2.4,1.259c.665,1.205,1.772,1.322,3.052,1.31,5.454-.051,10.908-.024,16.362-.02,2.14,0,2.691.563,2.7,2.729,0,.974.005,1.947-.007,2.921a1.012,1.012,0,0,1-1.124,1.152c-.357,0-.714.011-1.071.011H87.3c-.324,0-.649,0-.974,0-1.573.026-1.969.409-1.987,1.958-.015,1.266,0,2.532,0,3.8,0,3.539-.009,7.077,0,10.616A4.5,4.5,0,0,0,89.2,79.572q8.911.012,17.822,0c.357,0,.714,0,1.071.01a1.113,1.113,0,0,1,.661.127c.928.763.445,1.8.46,2.721.011.673-.545.811-1.1.825-1.428.034-2.857,0-4.285.019-.827.014-1.785-.167-2.183.848-.373.953.375,1.5.938,2.066,1.942,1.96,3.875,3.93,5.859,5.848,1.175,1.137.839,2.5.735,3.833a.356.356,0,0,1-.189.323v.286l-.227-.259a.76.76,0,0,1-.242-.086,4.386,4.386,0,0,1-.956-.823c-3.193-3.189-6.445-6.321-9.548-9.6a6.823,6.823,0,0,0-5.938-2.461c-1,.1-2.011.007-3.017.019a4.48,4.48,0,0,0-4.715,4.715c-.015,4.058,0,8.116-.006,12.174,0,.421.108.9-.124,1.245-.664.988-1.7.473-2.588.53-.628.04-.933-.365-.96-.981-.05-1.136-.016-2.272-.023-3.408-.019-3.087-1.833-4.92-4.9-4.923-6.4-.006-12.791.043-19.186-.027-2.145-.023-4.15.115-5.749,1.748a.858.858,0,0,1-.307.065c-.932,1.511-.736,3.207-.739,4.868,0,2.494,0,2.48-2.464,2.419-.484-.012-.672-.1-.667-.636.035-3.139.034-6.279.044-9.419-.077-.09-.155-.176-.228-.271-.194-2.071-.066-4.147-.085-6.22-.03-3.212-1.8-4.977-5.013-5.008-1.814-.017-3.63.113-5.441-.083-.108-.072-.206-.15-.3-.229-2.357.01-4.714.011-7.07.041-.461.006-.588-.129-.61-.6-.114-2.531-.129-2.534,2.365-2.529,1.152,0,2.3.02,3.457.03a.39.39,0,0,1,.182-.183,3.475,3.475,0,0,1,1.346-.133c2.173-.007,4.347.017,6.52-.009a4.448,4.448,0,0,0,4.554-4.571c.029-3.114,0-6.228.01-9.343,0-1.514.154-1.654,1.681-1.666.195,0,.39,0,.584,0,1.2.036,1.4.227,1.416,1.448.023,1.492,0,2.984.01,4.476.005.7.059,1.4.835,1.709s1.284-.17,1.8-.644A20.217,20.217,0,0,1,55.3,65.42a.622.622,0,0,1,.278-.014l.006-.006a5.047,5.047,0,0,0-.138-2.229m53.556,12.764c.005.712-.216.831-.869.828-6.331-.025-12.662-.013-18.993-.016-1.45,0-1.977-.538-1.978-2.008,0-4.254.017-8.507-.019-12.76-.006-.7.2-.842.863-.835,3.376.035,6.753.016,10.13.016,3.312,0,6.623.017,9.935-.014.661-.006.945.064.937.86-.047,4.643-.04,9.286,0,13.928m-.067,12.437-2.18-2.234c-.017.03,0-.021.014-.021,2.724.065,2.2-.614,2.167,2.255m-21.772-.344c0-1.386.551-1.922,1.959-1.927s2.792.018,4.188-.009a2.128,2.128,0,0,1,1.654.655q6.7,6.724,13.436,13.42c.61.6.349.921-.171,1.279a2.028,2.028,0,0,1-1.218.244q-4.724-.007-9.447,0c-3.182,0-6.363-.018-9.544.015-.64.007-.884-.094-.878-.819.038-4.285.016-8.57.021-12.855M52.9,96.807a.906.906,0,0,1,.375-.754,1.4,1.4,0,0,1,1.337-.6q10.745,0,21.49.005a1.547,1.547,0,0,1,1.708,1.68c.024,1.3-.01,2.593.014,3.889.009.466-.065.679-.619.674-4.148-.036-8.3-.035-12.444-.046q-5.649.016-11.3.031c-.28,0-.6.078-.591-.4.018-1.493,0-2.987.027-4.48M28.528,82.973c3.247.028,6.493.03,9.74.041,1.2-.01,2.4-.044,3.6-.024a1.532,1.532,0,0,1,1.644,1.646c.02,1.329-.014,2.66-.024,3.99.011,4.156.015,8.312.041,12.467,0,.463-.125.605-.6.6-4.449-.017-8.9,0-13.347-.017a1.519,1.519,0,0,1-1.646-1.647c-.015-5.488,0-10.976-.017-16.464,0-.473.144-.6.6-.595M43.512,71.978a1.522,1.522,0,0,1-1.648,1.643c-3.343.01-6.686-.014-10.03-.024-1.1.011-2.207,0-3.309.041-.467.016-.607-.129-.6-.6.03-2.726.031-5.453.042-8.18-.011-1.038,0-2.077-.042-3.114-.019-.471.133-.6.6-.6q7.207.024,14.415,0c.473,0,.6.14.594.6-.018,3.409,0,6.818-.018,10.227" transform="translate(-18.581 -36.215)"/><path d="M122.876,190.947c1.6-1.633,3.6-1.771,5.749-1.748,6.394.07,12.79.021,19.186.027,3.07,0,4.884,1.836,4.9,4.923.007,1.136-.027,2.272.023,3.408.027.615.332,1.02.96.98.885-.056,1.923.458,2.588-.529.233-.346.124-.824.124-1.245,0-4.058-.009-8.116.006-12.174a4.479,4.479,0,0,1,4.715-4.715c1.006-.012,2.021.08,3.018-.019a6.822,6.822,0,0,1,5.938,2.461c3.1,3.274,6.356,6.406,9.548,9.6a4.379,4.379,0,0,0,.956.823.766.766,0,0,0,.242.086c-.294-.339-.477-.56-.678-.761-3.6-3.606-7.217-7.2-10.8-10.819a5.179,5.179,0,0,0-3.993-1.668c-1.427.039-2.856,0-4.284.009a4.672,4.672,0,0,0-4.951,4.933q-.011,5.7,0,11.394c0,2.489,0,2.468-2.505,2.393-.547-.016-.632-.209-.622-.682.028-1.2.011-2.4.009-3.6a4.7,4.7,0,0,0-5.1-5.083c-6.882,0-13.764.032-20.645-.022a5.5,5.5,0,0,0-4.624,1.985c-.025.038-.046.076-.07.114a.865.865,0,0,0,.307-.065" transform="translate(-90.655 -132.815)"/><path d="M79.788,99.248a20.234,20.234,0,0,0-2.624,2.447c-.516.475-1.031.949-1.8.644s-.829-1.008-.835-1.709c-.011-1.492.013-2.985-.01-4.477-.019-1.22-.219-1.411-1.416-1.448-.195-.006-.389,0-.584,0-1.527.012-1.677.153-1.681,1.666-.008,3.114.019,6.229-.01,9.343a4.448,4.448,0,0,1-4.554,4.571c-2.173.026-4.347,0-6.52.009a3.475,3.475,0,0,0-1.346.133.39.39,0,0,0-.182.183h.043q3.987-.017,7.975-.034a4.673,4.673,0,0,0,4.876-4.9c.009-2.789,0-5.577,0-8.366,0-2.356,0-2.322,2.366-2.336.7,0,.773.26.762.838-.032,1.686.005,3.373-.018,5.058a1.674,1.674,0,0,0,1.02,1.8,1.657,1.657,0,0,0,1.9-.59c.962-.956,1.939-1.9,2.91-2.843a.63.63,0,0,0-.278.014" transform="translate(-43.066 -70.043)"/><path d="M65.665,167.744c1.811.2,3.627.065,5.441.083,3.216.031,4.984,1.8,5.013,5.008.019,2.073-.109,4.149.085,6.22.072.095.151.181.228.271v-.089q-.016-3.4-.033-6.8a4.673,4.673,0,0,0-4.886-4.888l-6.024-.033h-.127c.1.079.2.158.3.229" transform="translate(-48.343 -123.897)"/><path d="M276.55,99.464c.1-1.336.44-2.7-.735-3.833-1.983-1.918-3.917-3.888-5.859-5.848-.563-.568-1.311-1.113-.938-2.066.4-1.016,1.356-.835,2.183-.848,1.428-.023,2.857.015,4.285-.02.559-.013,1.114-.152,1.1-.825-.015-.923.468-1.959-.46-2.721a1.113,1.113,0,0,0-.661-.127c-.357-.015-.714-.01-1.071-.01q-8.911,0-17.822,0a4.5,4.5,0,0,1-4.858-4.866c-.011-3.539,0-7.077,0-10.616,0-1.266-.011-2.532,0-3.8.018-1.549.414-1.932,1.987-1.958.325-.005.649,0,.974,0h19.77c.357,0,.714-.008,1.071-.012a1.011,1.011,0,0,0,1.124-1.151c.013-.974.011-1.948.008-2.922-.008-2.166-.559-2.726-2.7-2.729-5.454,0-10.908-.031-16.361.02-1.28.012-2.387-.1-3.052-1.31l-.026.033c.336,1.224.734,1.544,1.978,1.544q8.959.005,17.919,0c1.4,0,1.944.548,1.952,1.936.007,1.1-.055,2.211.02,3.31.055.805-.172,1.012-.993,1.008-7.3-.036-14.607-.022-21.911-.02-1.534,0-2.053.512-2.053,2.029q0,7.352,0,14.7a4.692,4.692,0,0,0,5.092,5.087q8.716,0,17.432,0c2.5,0,2.475,0,2.432,2.467-.011.6-.241.668-.742.661-1.688-.026-3.376.01-5.064-.018a1.722,1.722,0,0,0-1.9,1.031c-.33.836.115,1.414.673,1.969q3.247,3.226,6.469,6.476c.219.22.541.379.541.763,0,.91,0,1.824,0,2.981a.355.355,0,0,0,.189-.323" transform="translate(-185.957 -39.807)"/><path d="M107.632,111.223c-.811.028-1.62.073-2.433.073q-37.653-.007-75.306,0a15.737,15.737,0,0,1-1.655-.035,4.48,4.48,0,0,1-3.974-4.041c-.044-.486-.026-.974-.026-1.461q0-21.384,0-42.768a21.607,21.607,0,0,1,.256-4.656c0-.057,0-.114-.007-.171a.787.787,0,0,1-.19.054,9.033,9.033,0,0,0-.381,3.062q.016,22.541.008,45.083c0,3.358,1.883,5.247,5.231,5.247q38.364,0,76.727-.006c.611,0,1.222-.092,1.833-.141a.683.683,0,0,1,.137-.216c-.073-.007-.147-.011-.221-.02" transform="translate(-17.689 -43.018)"/><path d="M265.756,48.18c5.87.049,11.741.025,17.612.021a4.484,4.484,0,0,1,3.255,1.29,4.816,4.816,0,0,1,1.382,3.709Q287.984,67.6,288,82c0,5.643-.011,11.287.005,16.931a4.71,4.71,0,0,1-2.554,4.378,2.018,2.018,0,0,0-.51.341c.11.011.221.022.332.03A4.574,4.574,0,0,0,288.3,99.26q.009-23.328,0-46.655a4.641,4.641,0,0,0-4.7-4.7q-9.156-.023-18.311,0c-1.218,0-1.629.33-1.938,1.516l.012.021a2.763,2.763,0,0,1,2.4-1.259" transform="translate(-194.777 -35.425)"/><path d="M263.307,53.74l-.015.054.026-.033-.012-.021" transform="translate(-194.736 -39.747)"/><path d="M345.888,262.026a.683.683,0,0,0-.137.216c.162-.058.317-.12.468-.185-.111-.008-.221-.019-.332-.03" transform="translate(-255.725 -193.8)"/><path d="M26.654,50a4.958,4.958,0,0,1,4.259-1.884q8.5.063,17.006,0a2.314,2.314,0,0,1,2.458,1.311c.031.018.062.029.093.045l.017-.059c-.313-1.232-.717-1.569-1.946-1.57-5.861,0-11.723.043-17.584-.025a5.229,5.229,0,0,0-4.883,2.45c0,.081.007.162.01.243a1.479,1.479,0,0,0,.57-.509" transform="translate(-19.284 -35.368)"/><path d="M25.562,57.231c-.061.1-.122.194-.18.3a.787.787,0,0,0,.19-.054c0-.081-.006-.162-.01-.243" transform="translate(-18.773 -42.329)"/><path d="M128.38,85.558c.007-.006.011-.013.019-.019a1.916,1.916,0,0,0-1.022-1.5l-.183-.011c.479.442.741,1.059,1.187,1.527" transform="translate(-94.075 -62.151)"/><path d="M141.733,105.748a1.813,1.813,0,0,0-.028-2.231h0c-.037,0-.073,0-.11,0a5.045,5.045,0,0,1,.138,2.229" transform="translate(-104.727 -76.563)"/><path d="M130.854,90.891c.066.179.142.354.222.528v-.367q0-.569,0-1.137l-.019-.018c-.315.277-.253.637-.2,1" transform="translate(-96.752 -66.489)"/><path d="M134.7,102.127c.6.006,1.18.216,1.782.2,0-.008,0-.015-.007-.023s.011-.028.016-.043a1.842,1.842,0,0,0-1.807-.2l0,0c.006.022.014.043.019.065" transform="translate(-99.61 -75.373)"/><path d="M131.769,89.86v-.037c-.007.006-.012.013-.019.019l.019.018" transform="translate(-97.445 -66.435)"/><path d="M141.575,103.336c.036,0,.073,0,.11,0-.033-.023-.067-.043-.1-.064-.005.015-.011.028-.016.043s0,.015.007.023" transform="translate(-104.707 -76.381)"/><path d="M125.175,127.047c-.9.981-1.871,1.894-2.813,2.834a5.053,5.053,0,0,0-1.556,3.759c.016,2.5-.018,5,.011,7.5a4.436,4.436,0,0,0,4.547,4.585q10.763.044,21.527,0a4.408,4.408,0,0,0,4.512-4.515c.035-4.448-.021-8.9.032-13.345a2.386,2.386,0,0,0-1.356-2.1c-1.12.732-1.237,1.83-1.22,3.074.053,3.895.027,7.79.016,11.685-.005,2.087-.587,2.671-2.666,2.673q-10.127.01-20.254,0c-2.013,0-2.6-.6-2.607-2.629-.01-2.207.011-4.414-.009-6.621a3.052,3.052,0,0,1,.96-2.353c.654-.631,1.265-1.307,1.934-1.922,1.014-.932,1.972-1.872,1.657-3.429a1.085,1.085,0,0,1-.206.043,2.185,2.185,0,0,0-2.51.76" transform="translate(-89.35 -93.019)"/><path d="M150.63,127.753c-.052,4.448,0,8.9-.032,13.345a4.407,4.407,0,0,1-4.511,4.515q-10.764.041-21.527,0a4.436,4.436,0,0,1-4.547-4.585c-.029-2.5.005-5-.011-7.5a5.053,5.053,0,0,1,1.556-3.759c.942-.94,1.915-1.853,2.813-2.834a2.185,2.185,0,0,1,2.51-.76,1.089,1.089,0,0,0,.206-.043c0-.011,0-.021-.005-.032-1.174-.654-1.617-.6-2.563.342q-1.691,1.68-3.371,3.372a4.726,4.726,0,0,0-1.429,3.5c.01,2.6-.008,5.191.006,7.786A4.65,4.65,0,0,0,124.5,145.9q10.8.02,21.606,0a4.645,4.645,0,0,0,4.786-4.8c.015-4.509.007-9.019,0-13.528,0-1.234-.328-1.633-1.559-1.965-.021.013-.039.027-.059.04a2.386,2.386,0,0,1,1.356,2.1" transform="translate(-88.545 -92.906)"/><path d="M133.432,129.625c-.668.614-1.28,1.291-1.934,1.922a3.05,3.05,0,0,0-.96,2.353c.02,2.207,0,4.414.009,6.621.009,2.031.594,2.627,2.607,2.629q10.127.012,20.254,0c2.079,0,2.661-.586,2.666-2.673.01-3.9.037-7.791-.016-11.685-.017-1.244.1-2.342,1.22-3.074l-.023-.016c-1.159.328-1.471.737-1.472,1.946q-.006,6.624,0,13.247c0,1.4-.545,1.959-1.93,1.96q-10.519.006-21.039,0c-1.413,0-1.964-.538-1.967-1.92-.007-2.435.017-4.87-.013-7.305a2.3,2.3,0,0,1,.769-1.8c1.053-1.013,2.074-2.058,3.1-3.1.948-.956,1.012-1.372.4-2.539l-.01,0c.314,1.558-.643,2.5-1.657,3.429" transform="translate(-96.549 -92.973)"/><path d="M233.225,125.612h0l-.082.023.023.017c.02-.013.038-.027.059-.04" transform="translate(-172.437 -92.905)"/><path d="M148,127.506l.009,0-.015-.029c0,.011,0,.021.005.032" transform="translate(-109.462 -94.282)"/><path d="M277.19,68.978q5.977.013,11.955,0c1.122,0,1.831-.635,1.819-1.575s-.717-1.532-1.856-1.537c-1.944-.009-3.888,0-5.832,0-2.009,0-4.017-.006-6.026,0-1.146,0-1.847.588-1.866,1.526s.691,1.584,1.807,1.586" transform="translate(-203.679 -48.713)"/><path d="M108.418,221.69c0,.423-.153.994.432,1.158a2.55,2.55,0,0,0,1.8-.062c.334-.16.265-.562.272-.876.023-1.163-.043-2.329.029-3.489a3.121,3.121,0,0,1,.94-2.464.434.434,0,0,1-.174-.056,14.851,14.851,0,0,1-3.483-2.595,3.45,3.45,0,0,1,.174,1.308c0,2.359-.012,4.718.008,7.077" transform="translate(-80.054 -157.765)" fill="#81cfd7"/><path d="M111.455,215.332a.434.434,0,0,0,.174.056c.046-.037.094-.073.145-.108a46.61,46.61,0,0,1-3.895-2.743,1.84,1.84,0,0,1,.093.2,14.836,14.836,0,0,0,3.483,2.595" transform="translate(-79.79 -157.197)" fill="#81cfd7"/><path d="M110.562,218.1c-.072,1.16-.006,2.326-.029,3.489-.006.315.063.717-.272.876a2.55,2.55,0,0,1-1.8.062c-.585-.164-.428-.735-.432-1.158-.02-2.359-.01-4.718-.008-7.077a3.45,3.45,0,0,0-.174-1.308c-.032-.036-.062-.074-.093-.111-.01,3.14-.009,6.279-.044,9.419-.006.534.183.624.667.636,2.463.061,2.46.076,2.464-2.419,0-1.661-.193-3.357.739-4.868a.525.525,0,0,1-.076-.006,3.123,3.123,0,0,0-.94,2.464" transform="translate(-79.663 -157.45)" fill="#81cfd7"/><path d="M122.355,223.185c.023-.038.044-.077.069-.114-.051.035-.1.071-.145.108a.522.522,0,0,0,.076.006" transform="translate(-90.44 -164.988)" fill="#81cfd7"/><path d="M107.971,212.737a1.867,1.867,0,0,0-.093-.2c0,.03,0,.059,0,.089.031.037.061.075.093.111" transform="translate(-79.789 -157.197)" fill="#81cfd7"/><path d="M41.023,156.173c-1,.023-2.007.031-3.009,0-.9-.027-.974.515-.956,1.2.017.662-.064,1.331.937,1.323,1.683-.014,3.365,0,5.048,0a3.615,3.615,0,0,1,1.244.154,8.1,8.1,0,0,1-1.715-2.633.352.352,0,0,1-.024-.26,2.545,2.545,0,0,1-1.525.222" transform="translate(-27.407 -115.345)" fill="#82cfd7"/><path d="M58.13,156.092a8.1,8.1,0,0,0,1.714,2.634,1.845,1.845,0,0,1,.266.117,25.285,25.285,0,0,1-1.941-3.053c-.021.017-.043.027-.064.042a.349.349,0,0,0,.024.26" transform="translate(-42.965 -115.225)" fill="#82cfd7"/><path d="M42.056,158.482c-1.683,0-3.366-.011-5.048,0-1,.009-.92-.661-.937-1.323-.018-.683.057-1.224.957-1.2,1,.03,2.006.022,3.009,0a2.546,2.546,0,0,0,1.525-.222.306.306,0,0,1,.021-.043c-1.152-.011-2.3-.028-3.457-.03-2.494,0-2.479,0-2.365,2.529.021.467.149.6.61.6,2.356-.03,4.713-.03,7.07-.041-.047-.039-.094-.077-.139-.117a3.611,3.611,0,0,0-1.244-.155" transform="translate(-26.42 -115.136)" fill="#82cfd7"/><path d="M58.148,155.83c.021-.015.043-.026.064-.042h-.043a.356.356,0,0,0-.021.043" transform="translate(-43.007 -115.223)" fill="#82cfd7"/><path d="M64.966,167.182h.127a1.876,1.876,0,0,0-.267-.117c.045.04.092.079.14.117" transform="translate(-47.947 -123.565)" fill="#82cfd7"/><path d="M173.849,35.941a6.234,6.234,0,1,0,6.239,6.255,6.237,6.237,0,0,0-6.239-6.255m1.9,8.7a3.073,3.073,0,0,1-3.785,0,3.108,3.108,0,0,1-.8-4,3.1,3.1,0,1,1,4.583,4" transform="translate(-123.976 -26.583)"/><path d="M57.529,55.879A5.2,5.2,0,0,1,55.983,56q-8.127,0-16.253,0a10.719,10.719,0,0,0-1.264.032c-.889.106-1.292.475-1.357,1.362-.083,1.132-.032,2.269-.024,3.4,0,.583.317.8.858.807.357,0,.714.01,1.07.01q10.025,0,20.049.006a2.79,2.79,0,0,1,1.363.154,11.035,11.035,0,0,1,.01-6.9,1.226,1.226,0,0,1,.321-.555c-.037.013-.073.025-.112.034a3.869,3.869,0,0,1-2.023-.135,1.379,1.379,0,0,1-1.092,1.658M44.6,60.358c-1.065.043-2.134.042-3.2,0a1.534,1.534,0,0,1-1.517-1.569,1.555,1.555,0,0,1,1.561-1.529c.548-.03,1.1-.006,1.648-.006.485,0,.97-.022,1.454,0a1.561,1.561,0,0,1,1.566,1.526A1.534,1.534,0,0,1,44.6,60.358" transform="translate(-27.412 -40.103)" fill="#97dde9"/><path d="M121.865,54.153a1.151,1.151,0,0,0,.112-.034,1.349,1.349,0,0,1,.173-.146h0l-2.315-.027c0,.025,0,.047.007.071a3.866,3.866,0,0,0,2.023.135" transform="translate(-88.632 -39.9)" fill="#97dde9"/><path d="M125.232,54.989a11.036,11.036,0,0,0-.01,6.9,1.141,1.141,0,0,1,.288.215,11.985,11.985,0,0,1,.189-7.734,1.059,1.059,0,0,1-.146.062,1.226,1.226,0,0,0-.321.555" transform="translate(-92.208 -40.215)" fill="#97dde9"/><path d="M128.061,54.2a1.06,1.06,0,0,0,.146-.062c.009-.028.017-.056.027-.084a1.328,1.328,0,0,0-.173.146" transform="translate(-94.717 -39.977)" fill="#97dde9"/><path d="M55.713,55.659q-8.958.005-17.917,0c-1.4,0-1.943.546-1.952,1.936-.006,1.1.055,2.211-.02,3.309-.055.8.168,1.014.992,1.01,7.238-.037,14.477-.022,21.715-.019.36,0,.719.028,1.078.05-.017-.015-.031-.033-.048-.047-.02-.052-.037-.1-.057-.156a2.793,2.793,0,0,0-1.363-.154q-10.024-.013-20.049-.005c-.357,0-.714-.005-1.07-.01-.541-.007-.854-.224-.858-.807-.009-1.135-.059-2.273.024-3.4.065-.887.468-1.256,1.357-1.362a10.719,10.719,0,0,1,1.264-.031q8.127,0,16.253,0a5.215,5.215,0,0,0,1.546-.125A1.379,1.379,0,0,0,57.7,54.186l-.024-.012c-.336,1.175-.74,1.484-1.963,1.485" transform="translate(-26.49 -40.068)" fill="#97dde9"/><path d="M119.768,54.007l.025.012c0-.024,0-.046-.007-.071-.006.021-.012.039-.017.059" transform="translate(-88.583 -39.901)" fill="#97dde9"/><path d="M126.847,83.407c.017.015.032.032.048.047l.184.011a1.143,1.143,0,0,0-.288-.214c.019.052.036.1.056.156" transform="translate(-93.777 -61.574)" fill="#97dde9"/><path d="M132.551,98.072c-.056.457.191.524.536.53a8.179,8.179,0,0,0-.559-1.366,3,3,0,0,1,.023.836" transform="translate(-98.02 -71.918)" fill="#e4e4e4"/><path d="M132.567,96.456h0c.284-.895-.435-1.437-.746-2.122a5.37,5.37,0,0,1,.183.756,8.169,8.169,0,0,1,.559,1.366" transform="translate(-97.5 -69.771)" fill="#e4e4e4"/><path d="M132.568,97.5v0c-.345-.006-.592-.073-.536-.53a3,3,0,0,0-.023-.836q-.093-.194-.183-.389v2.413l.743-.655" transform="translate(-97.5 -70.813)" fill="#e4e4e4"/><path d="M134.674,102.487l0,0h0v0" transform="translate(-99.607 -75.799)" fill="#e4e4e4"/><path d="M132.007,95.089a5.316,5.316,0,0,0-.183-.756V94.7q.089.2.183.389" transform="translate(-97.5 -69.771)" fill="#e4e4e4"/><path d="M284.257,95.741c-3.311.03-6.623.014-9.935.014-3.377,0-6.753.019-10.13-.016-.663-.007-.869.131-.863.835.036,4.253.016,8.506.019,12.76,0,1.47.528,2.007,1.978,2.008,6.331,0,12.662-.009,18.993.017.653,0,.874-.116.869-.828-.036-4.642-.042-9.286,0-13.928.008-.8-.275-.867-.937-.861" transform="translate(-194.764 -70.81)" fill="#e5e5e5"/><path d="M37.544,198.282c4.449.017,8.9,0,13.347.018.472,0,.6-.141.6-.6-.027-4.156-.03-8.312-.041-12.467a38.524,38.524,0,0,1-5.221-5.612c-3.246-.011-6.493-.013-9.739-.041-.461,0-.606.122-.6.6.015,5.488,0,10.976.017,16.464a1.519,1.519,0,0,0,1.646,1.647" transform="translate(-26.538 -132.818)" fill="#cdcdcd"/><path d="M264.2,207.161c3.181-.033,6.363-.015,9.544-.015q4.723,0,9.447,0a2.031,2.031,0,0,0,1.218-.244c.52-.357.781-.674.171-1.278q-6.747-6.681-13.436-13.42a2.129,2.129,0,0,0-1.654-.655c-1.4.028-2.792,0-4.187.01s-1.957.541-1.959,1.927c0,4.285.017,8.571-.021,12.855-.007.725.238.825.878.819" transform="translate(-194.762 -141.674)" fill="#e5e5e5"/><path d="M50.891,95.763q-7.207.025-14.415,0c-.466,0-.617.126-.6.6.042,1.037.031,2.076.042,3.114a13.7,13.7,0,0,1,1.122,2.766c.851,2.022,1.815,3.987,2.746,5.97,3.343.01,6.686.034,10.029.024a1.523,1.523,0,0,0,1.649-1.643c.02-3.409,0-6.818.018-10.227,0-.462-.12-.6-.593-.6" transform="translate(-26.535 -70.828)" fill="#e5e5e5"/><path d="M144.715,233.7c4.148.011,8.3.01,12.444.046.555,0,.628-.208.619-.674-.024-1.3.009-2.593-.014-3.889a1.547,1.547,0,0,0-1.708-1.68q-10.745-.015-21.49-.005a1.4,1.4,0,0,0-1.337.6,43.445,43.445,0,0,0,7.306,3.873c1.374.619,2.785,1.155,4.18,1.728" transform="translate(-98.539 -168.263)" fill="#e5e5e5"/><path d="M132.275,235.445q5.649-.013,11.3-.031a26.707,26.707,0,0,1-6.4-2.476,39.723,39.723,0,0,1-4.363-2.324c-.3-.194-.751-.294-.724-.8a.906.906,0,0,0-.375.754c-.024,1.493-.009,2.987-.027,4.48-.006.476.311.4.591.4" transform="translate(-97.396 -169.974)" fill="#cdcdcd"/><path d="M133.95,230.614a39.721,39.721,0,0,0,4.363,2.324,26.685,26.685,0,0,0,6.4,2.476c-1.395-.573-2.806-1.108-4.18-1.728a43.444,43.444,0,0,1-7.306-3.873c-.027.507.42.607.724.8" transform="translate(-98.536 -169.974)" fill="#cdcdcd"/><path d="M39.11,117.957c-.964-2.139-2.015-4.24-2.824-6.447-.178-.487-.178-1.012-.363-1.494-.011,2.726-.011,5.453-.042,8.179-.005.469.134.615.6.6,1.1-.04,2.206-.031,3.309-.041a1.9,1.9,0,0,1-.682-.8" transform="translate(-26.539 -81.37)" fill="#cdcdcd"/><path d="M36.042,110.016c.185.482.185,1.007.363,1.494.809,2.207,1.859,4.308,2.824,6.447a1.9,1.9,0,0,0,.682.8c-.931-1.983-1.9-3.948-2.746-5.97a13.687,13.687,0,0,0-1.122-2.767" transform="translate(-26.657 -81.37)" fill="#cdcdcd"/><path d="M76.638,180.633c1.11,1.338,2.359,2.541,3.586,3.766a2.709,2.709,0,0,1,.606.86c.01-1.33.044-2.66.024-3.99a1.532,1.532,0,0,0-1.644-1.646c-1.2-.02-2.4.014-3.6.024.491.173.728.624,1.029.987" transform="translate(-55.922 -132.848)" fill="#e5e5e5"/><path d="M80.83,185.345a2.705,2.705,0,0,0-.606-.86c-1.226-1.225-2.476-2.428-3.586-3.766-.3-.363-.538-.814-1.029-.987a38.508,38.508,0,0,0,5.22,5.612" transform="translate(-55.923 -132.934)" fill="#e5e5e5"/><path d="M338.643,191.574c-.015,0-.031.051-.014.021l2.18,2.234c.035-2.869.557-2.191-2.167-2.255" transform="translate(-250.452 -141.673)" fill="#e4e4e4"/><path d="M180.113,53.981a3.108,3.108,0,0,0,.8,4,3.106,3.106,0,0,0,4.588-4h-5.386" transform="translate(-132.927 -39.925)" fill="#81cfd7"/><path d="M182.117,49.126q1.795-.038,3.59,0a1.429,1.429,0,0,1,.9.317,3.069,3.069,0,0,0-5.386,0,1.431,1.431,0,0,1,.9-.317" transform="translate(-134.033 -35.388)" fill="#5c6871"/><path d="M185.708,52.709q-1.8-.038-3.59,0a1.43,1.43,0,0,0-.9.317h5.386a1.429,1.429,0,0,0-.9-.317" transform="translate(-134.034 -38.971)" fill="#5c6871"/><path d="M52.564,65.851c-.484-.027-.969,0-1.454,0-.549,0-1.1-.024-1.648.005a1.555,1.555,0,0,0-1.561,1.53,1.533,1.533,0,0,0,1.517,1.569c1.065.042,2.134.042,3.2,0a1.534,1.534,0,0,0,1.514-1.573,1.561,1.561,0,0,0-1.566-1.526" transform="translate(-35.429 -48.694)"/></g></g></g></svg>