<svg xmlns="http://www.w3.org/2000/svg" xmlns:xlink="http://www.w3.org/1999/xlink" width="516.498" height="74.859" viewBox="0 0 516.498 74.859"><defs><clipPath id="a"><rect width="83.775" height="74.859" fill="none"/></clipPath></defs><g transform="translate(-180 -4586.107)"><path d="M0,0H482.578l-3.851,52.528L0,52Z" transform="translate(180 4597.581)" fill="#fff0a6"/><path d="M4.727,21H1.309V6.781H4.727Zm5.342-10.566.107,1.24a3.633,3.633,0,0,1,3.018-1.436A2.675,2.675,0,0,1,15.9,11.83,3.517,3.517,0,0,1,19,10.238q3.213,0,3.3,3.887V21H19V14.33a2.014,2.014,0,0,0-.273-1.182,1.164,1.164,0,0,0-1-.371,1.559,1.559,0,0,0-1.455.869l.01.137V21h-3.3V14.35a2.117,2.117,0,0,0-.264-1.2,1.161,1.161,0,0,0-1.006-.371,1.578,1.578,0,0,0-1.445.869V21H6.982V10.434Zm23.926,5.361a6.372,6.372,0,0,1-1.108,3.931,3.554,3.554,0,0,1-2.993,1.47A3.046,3.046,0,0,1,27.5,20.131v4.932H24.209V10.434h3.076l.1.977a3.046,3.046,0,0,1,2.49-1.172,3.582,3.582,0,0,1,3.037,1.44,6.45,6.45,0,0,1,1.084,3.96ZM30.7,15.59q0-2.812-1.641-2.812a1.549,1.549,0,0,0-1.562.84v4.16a1.6,1.6,0,0,0,1.582.879q1.572,0,1.621-2.715Zm4.326.029a6.236,6.236,0,0,1,.615-2.817,4.4,4.4,0,0,1,1.768-1.9,5.323,5.323,0,0,1,2.705-.664,4.858,4.858,0,0,1,3.74,1.47,5.64,5.64,0,0,1,1.367,4v.117a5.472,5.472,0,0,1-1.372,3.921,4.871,4.871,0,0,1-3.716,1.45,4.927,4.927,0,0,1-3.623-1.353,5.29,5.29,0,0,1-1.475-3.667Zm3.291.205a3.932,3.932,0,0,0,.459,2.148,1.529,1.529,0,0,0,1.357.684q1.758,0,1.8-2.705v-.332q0-2.842-1.816-2.842-1.65,0-1.787,2.451Zm14.746-2.412-1.084-.078a1.947,1.947,0,0,0-1.992.977V21H46.7V10.434h3.086l.107,1.357a2.548,2.548,0,0,1,2.314-1.553,3.209,3.209,0,0,1,.918.117Zm5.508-5.605v2.627h1.738v2.285H58.574v4.834a1.234,1.234,0,0,0,.215.83,1.152,1.152,0,0,0,.85.234,4.828,4.828,0,0,0,.82-.059v2.354A6.074,6.074,0,0,1,58.6,21.2a3.448,3.448,0,0,1-2.51-.8,3.282,3.282,0,0,1-.811-2.432V12.719H53.936V10.434h1.348V7.807ZM67.559,21a3.716,3.716,0,0,1-.312-.947A3.06,3.06,0,0,1,64.707,21.2a3.749,3.749,0,0,1-2.539-.9,2.875,2.875,0,0,1-1.045-2.271,2.955,2.955,0,0,1,1.27-2.6,6.468,6.468,0,0,1,3.691-.879H67.1v-.559q0-1.462-1.26-1.462a1.03,1.03,0,0,0-1.172,1.158H61.377a2.95,2.95,0,0,1,1.3-2.487,5.479,5.479,0,0,1,3.325-.956,4.8,4.8,0,0,1,3.193.986,3.429,3.429,0,0,1,1.2,2.705v4.678a4.79,4.79,0,0,0,.449,2.227V21ZM65.5,18.852a1.836,1.836,0,0,0,1.021-.264,1.653,1.653,0,0,0,.581-.6V16.3h-.957q-1.719,0-1.719,1.543a.942.942,0,0,0,.3.728A1.1,1.1,0,0,0,65.5,18.852Zm9.746-8.418.107,1.24a3.583,3.583,0,0,1,3.018-1.436,3.015,3.015,0,0,1,2.466.986,4.7,4.7,0,0,1,.845,2.969V21h-3.3V14.33a1.783,1.783,0,0,0-.322-1.177,1.491,1.491,0,0,0-1.172-.376,1.569,1.569,0,0,0-1.436.762V21H72.158V10.434Zm12.725,8.223a1.464,1.464,0,0,0,1.074-.376,1.379,1.379,0,0,0,.371-1.05H92.5a3.653,3.653,0,0,1-1.245,2.852A4.631,4.631,0,0,1,88.047,21.2a4.689,4.689,0,0,1-3.633-1.445,5.7,5.7,0,0,1-1.328-4v-.137a6.436,6.436,0,0,1,.591-2.827,4.3,4.3,0,0,1,1.7-1.885,5.081,5.081,0,0,1,2.637-.659,4.573,4.573,0,0,1,3.271,1.143,4.053,4.053,0,0,1,1.211,3.1H89.414a1.806,1.806,0,0,0-.4-1.26,1.382,1.382,0,0,0-1.074-.439q-1.279,0-1.494,1.631a11.508,11.508,0,0,0-.068,1.426,4.52,4.52,0,0,0,.381,2.207A1.319,1.319,0,0,0,87.969,18.656ZM97.363,21h-3.3V10.434h3.3Zm-3.5-13.291a1.469,1.469,0,0,1,.508-1.152,2.159,2.159,0,0,1,2.637,0,1.469,1.469,0,0,1,.508,1.152,1.469,1.469,0,0,1-.508,1.152,2.159,2.159,0,0,1-2.637,0A1.469,1.469,0,0,1,93.867,7.709ZM105.342,21a3.716,3.716,0,0,1-.312-.947A3.06,3.06,0,0,1,102.49,21.2a3.749,3.749,0,0,1-2.539-.9,2.875,2.875,0,0,1-1.045-2.271,2.955,2.955,0,0,1,1.27-2.6,6.468,6.468,0,0,1,3.691-.879h1.016v-.559q0-1.462-1.26-1.462a1.03,1.03,0,0,0-1.172,1.158H99.16a2.95,2.95,0,0,1,1.3-2.487,5.479,5.479,0,0,1,3.325-.956,4.8,4.8,0,0,1,3.193.986,3.429,3.429,0,0,1,1.2,2.705v4.678a4.79,4.79,0,0,0,.449,2.227V21Zm-2.061-2.148a1.836,1.836,0,0,0,1.021-.264,1.653,1.653,0,0,0,.581-.6V16.3h-.957q-1.719,0-1.719,1.543a.942.942,0,0,0,.3.728A1.1,1.1,0,0,0,103.281,18.852Zm15.928-2.461,1.758-5.957h3.525l-4.307,12.334-.186.449a3.272,3.272,0,0,1-3.242,2.051,5.158,5.158,0,0,1-1.357-.195V22.729h.43a2.251,2.251,0,0,0,1.06-.2,1.216,1.216,0,0,0,.542-.718l.264-.7-3.672-10.673h3.516Zm15.332.693,1.67-6.65h3.467L136.23,21h-3.359l-3.447-10.566H132.9Zm11.23,4.111a5.432,5.432,0,0,1-3.936-1.45,5.008,5.008,0,0,1-1.5-3.774V15.7a6.489,6.489,0,0,1,.6-2.861,4.395,4.395,0,0,1,1.753-1.919,5.292,5.292,0,0,1,2.734-.679,4.574,4.574,0,0,1,3.516,1.382,5.43,5.43,0,0,1,1.289,3.853v1.279h-6.543a2.372,2.372,0,0,0,.771,1.4,2.3,2.3,0,0,0,1.543.508,2.958,2.958,0,0,0,2.441-1.094l1.5,1.777a4.2,4.2,0,0,1-1.743,1.353A5.891,5.891,0,0,1,145.771,21.2Zm-.371-8.418q-1.445,0-1.719,1.914H147v-.254a1.63,1.63,0,0,0-.4-1.226A1.593,1.593,0,0,0,145.4,12.777Zm9.17-2.344.107,1.24a3.583,3.583,0,0,1,3.018-1.436,3.015,3.015,0,0,1,2.466.986,4.7,4.7,0,0,1,.845,2.969V21h-3.3V14.33a1.783,1.783,0,0,0-.322-1.177,1.491,1.491,0,0,0-1.172-.376,1.569,1.569,0,0,0-1.436.762V21h-3.291V10.434Zm12.09-2.627v2.627H168.4v2.285H166.66v4.834a1.234,1.234,0,0,0,.215.83,1.152,1.152,0,0,0,.85.234,4.828,4.828,0,0,0,.82-.059v2.354a6.074,6.074,0,0,1-1.855.283,3.448,3.448,0,0,1-2.51-.8,3.282,3.282,0,0,1-.811-2.432V12.719h-1.348V10.434h1.348V7.807ZM175.645,21a3.716,3.716,0,0,1-.312-.947,3.06,3.06,0,0,1-2.539,1.143,3.749,3.749,0,0,1-2.539-.9,2.875,2.875,0,0,1-1.045-2.271,2.955,2.955,0,0,1,1.27-2.6,6.468,6.468,0,0,1,3.691-.879h1.016v-.559q0-1.462-1.26-1.462a1.03,1.03,0,0,0-1.172,1.158h-3.291a2.95,2.95,0,0,1,1.3-2.487,5.479,5.479,0,0,1,3.325-.956,4.8,4.8,0,0,1,3.193.986,3.429,3.429,0,0,1,1.2,2.705v4.678a4.79,4.79,0,0,0,.449,2.227V21Zm-2.061-2.148a1.836,1.836,0,0,0,1.021-.264,1.653,1.653,0,0,0,.581-.6V16.3h-.957q-1.719,0-1.719,1.543a.942.942,0,0,0,.3.728A1.1,1.1,0,0,0,173.584,18.852Zm10.264-8.418V21.361a3.836,3.836,0,0,1-1.074,2.891,4.127,4.127,0,0,1-2.969,1.016,7.009,7.009,0,0,1-1.553-.166v-2.49a6.3,6.3,0,0,0,.928.088,1.2,1.2,0,0,0,1.367-1.357V10.434ZM180.3,7.709a1.469,1.469,0,0,1,.508-1.152,2.159,2.159,0,0,1,2.637,0,1.469,1.469,0,0,1,.508,1.152,1.469,1.469,0,0,1-.508,1.152,2.159,2.159,0,0,1-2.637,0A1.469,1.469,0,0,1,180.3,7.709ZM191.66,21a3.716,3.716,0,0,1-.312-.947,3.06,3.06,0,0,1-2.539,1.143,3.749,3.749,0,0,1-2.539-.9,2.875,2.875,0,0,1-1.045-2.271,2.955,2.955,0,0,1,1.27-2.6,6.468,6.468,0,0,1,3.691-.879H191.2v-.559q0-1.462-1.26-1.462a1.03,1.03,0,0,0-1.172,1.158h-3.291a2.95,2.95,0,0,1,1.3-2.487,5.479,5.479,0,0,1,3.325-.956,4.8,4.8,0,0,1,3.193.986,3.429,3.429,0,0,1,1.2,2.705v4.678a4.79,4.79,0,0,0,.449,2.227V21ZM189.6,18.852a1.836,1.836,0,0,0,1.021-.264,1.653,1.653,0,0,0,.581-.6V16.3h-.957q-1.719,0-1.719,1.543a.942.942,0,0,0,.3.728A1.1,1.1,0,0,0,189.6,18.852Zm12.256-.82a.76.76,0,0,0-.439-.674,6.684,6.684,0,0,0-1.67-.527,7.615,7.615,0,0,1-2.031-.718,3.4,3.4,0,0,1-1.221-1.079,2.577,2.577,0,0,1-.42-1.455,2.92,2.92,0,0,1,1.2-2.4,4.948,4.948,0,0,1,3.145-.942,5.482,5.482,0,0,1,3.359.947,2.962,2.962,0,0,1,1.27,2.49h-3.3q0-1.27-1.338-1.27a1.326,1.326,0,0,0-.869.288.892.892,0,0,0-.352.718.819.819,0,0,0,.43.713,4.06,4.06,0,0,0,1.372.449,11.857,11.857,0,0,1,1.655.42,3.007,3.007,0,0,1,2.383,2.939,2.767,2.767,0,0,1-1.284,2.354,5.632,5.632,0,0,1-3.325.908A5.747,5.747,0,0,1,198,20.707a4.05,4.05,0,0,1-1.66-1.328,3.007,3.007,0,0,1-.6-1.768h3.076a1.272,1.272,0,0,0,.488,1.069,2.009,2.009,0,0,0,1.2.337,1.58,1.58,0,0,0,1.011-.273A.875.875,0,0,0,201.855,18.031Zm9.277-2.393a6.455,6.455,0,0,1,1.084-3.955,3.568,3.568,0,0,1,3.027-1.445,3.035,3.035,0,0,1,2.383,1.113V6h3.3V21h-2.959l-.166-1.133a3.116,3.116,0,0,1-2.578,1.328,3.562,3.562,0,0,1-2.988-1.445A6.659,6.659,0,0,1,211.133,15.639Zm3.291.205q0,2.813,1.641,2.813a1.62,1.62,0,0,0,1.563-.918V13.715a1.576,1.576,0,0,0-1.543-.937q-1.523,0-1.65,2.461ZM227.91,21.2a5.432,5.432,0,0,1-3.936-1.45,5.008,5.008,0,0,1-1.5-3.774V15.7a6.489,6.489,0,0,1,.6-2.861,4.395,4.395,0,0,1,1.753-1.919,5.292,5.292,0,0,1,2.734-.679,4.574,4.574,0,0,1,3.516,1.382,5.43,5.43,0,0,1,1.289,3.853v1.279H225.82a2.372,2.372,0,0,0,.771,1.4,2.3,2.3,0,0,0,1.543.508,2.958,2.958,0,0,0,2.441-1.094l1.5,1.777a4.2,4.2,0,0,1-1.743,1.353A5.891,5.891,0,0,1,227.91,21.2Zm-.371-8.418q-1.445,0-1.719,1.914h3.32v-.254a1.63,1.63,0,0,0-.4-1.226A1.593,1.593,0,0,0,227.539,12.777ZM242.139,21h-3.3V6h3.3Zm7.979,0a3.716,3.716,0,0,1-.312-.947,3.06,3.06,0,0,1-2.539,1.143,3.749,3.749,0,0,1-2.539-.9,2.875,2.875,0,0,1-1.045-2.271,2.955,2.955,0,0,1,1.27-2.6,6.468,6.468,0,0,1,3.691-.879h1.016v-.559q0-1.462-1.26-1.462a1.03,1.03,0,0,0-1.172,1.158h-3.291a2.95,2.95,0,0,1,1.3-2.487,5.479,5.479,0,0,1,3.325-.956,4.8,4.8,0,0,1,3.193.986,3.429,3.429,0,0,1,1.2,2.705v4.678a4.79,4.79,0,0,0,.449,2.227V21Zm-2.061-2.148a1.836,1.836,0,0,0,1.021-.264,1.653,1.653,0,0,0,.581-.6V16.3H248.7q-1.719,0-1.719,1.543a.942.942,0,0,0,.3.728A1.1,1.1,0,0,0,248.057,18.852Zm15.586-.391h4.814V21h-8.975V19.164l4.688-6.191h-4.482V10.434h8.662v1.777Zm5.84-2.842A6.236,6.236,0,0,1,270.1,12.8a4.4,4.4,0,0,1,1.768-1.9,5.323,5.323,0,0,1,2.705-.664,4.859,4.859,0,0,1,3.74,1.47,5.64,5.64,0,0,1,1.367,4v.117a5.472,5.472,0,0,1-1.372,3.921,4.871,4.871,0,0,1-3.716,1.45,4.927,4.927,0,0,1-3.623-1.353,5.29,5.29,0,0,1-1.475-3.667Zm3.291.205a3.931,3.931,0,0,0,.459,2.148,1.529,1.529,0,0,0,1.357.684q1.758,0,1.8-2.705v-.332q0-2.842-1.816-2.842-1.65,0-1.787,2.451Zm11.377-5.391.107,1.24a3.583,3.583,0,0,1,3.018-1.436,3.015,3.015,0,0,1,2.466.986,4.7,4.7,0,0,1,.845,2.969V21h-3.3V14.33a1.783,1.783,0,0,0-.322-1.177,1.491,1.491,0,0,0-1.172-.376,1.569,1.569,0,0,0-1.436.762V21h-3.291V10.434ZM295.879,21h-3.3V10.434h3.3Zm-3.5-13.291a1.469,1.469,0,0,1,.508-1.152,2.159,2.159,0,0,1,2.637,0,1.469,1.469,0,0,1,.508,1.152,1.469,1.469,0,0,1-.508,1.152,2.159,2.159,0,0,1-2.637,0A1.469,1.469,0,0,1,292.383,7.709ZM298.672,21V12.719h-1.533V10.434h1.533v-.352a4.034,4.034,0,0,1,1.387-3.232,5.541,5.541,0,0,1,3.6-1.055,12.787,12.787,0,0,1,3.438.566l-.449,2.6-.547-.146a8.7,8.7,0,0,0-2.246-.283q-1.885,0-1.885,1.719v.186h2.07v2.285h-2.07V21Zm9.941,0H305.3V10.434h3.311Zm6.475-2.344a1.464,1.464,0,0,0,1.074-.376,1.379,1.379,0,0,0,.371-1.05h3.086a3.653,3.653,0,0,1-1.245,2.852,4.631,4.631,0,0,1-3.208,1.113,4.689,4.689,0,0,1-3.633-1.445,5.7,5.7,0,0,1-1.328-4v-.137a6.436,6.436,0,0,1,.591-2.827,4.3,4.3,0,0,1,1.7-1.885,5.081,5.081,0,0,1,2.637-.659,4.573,4.573,0,0,1,3.271,1.143,4.053,4.053,0,0,1,1.211,3.1h-3.086a1.806,1.806,0,0,0-.4-1.26,1.382,1.382,0,0,0-1.074-.439q-1.279,0-1.494,1.631a11.51,11.51,0,0,0-.068,1.426,4.52,4.52,0,0,0,.381,2.207A1.319,1.319,0,0,0,315.088,18.656ZM326.963,21a3.716,3.716,0,0,1-.312-.947,3.06,3.06,0,0,1-2.539,1.143,3.749,3.749,0,0,1-2.539-.9,2.875,2.875,0,0,1-1.045-2.271,2.955,2.955,0,0,1,1.27-2.6,6.468,6.468,0,0,1,3.691-.879H326.5v-.559q0-1.462-1.26-1.462a1.03,1.03,0,0,0-1.172,1.158h-3.291a2.95,2.95,0,0,1,1.3-2.487,5.479,5.479,0,0,1,3.325-.956,4.8,4.8,0,0,1,3.193.986,3.429,3.429,0,0,1,1.2,2.705v4.678a4.79,4.79,0,0,0,.449,2.227V21ZM324.9,18.852a1.836,1.836,0,0,0,1.021-.264,1.653,1.653,0,0,0,.581-.6V16.3h-.957q-1.719,0-1.719,1.543a.942.942,0,0,0,.3.728A1.1,1.1,0,0,0,324.9,18.852Zm11.191-.2a1.464,1.464,0,0,0,1.074-.376,1.379,1.379,0,0,0,.371-1.05h3.086a3.653,3.653,0,0,1-1.245,2.852,4.631,4.631,0,0,1-3.208,1.113,4.689,4.689,0,0,1-3.633-1.445,5.7,5.7,0,0,1-1.328-4v-.137a6.436,6.436,0,0,1,.591-2.827,4.3,4.3,0,0,1,1.7-1.885,5.081,5.081,0,0,1,2.637-.659,4.573,4.573,0,0,1,3.271,1.143,4.053,4.053,0,0,1,1.211,3.1h-3.086a1.806,1.806,0,0,0-.4-1.26,1.382,1.382,0,0,0-1.074-.439q-1.279,0-1.494,1.631a11.51,11.51,0,0,0-.068,1.426,4.52,4.52,0,0,0,.381,2.207A1.319,1.319,0,0,0,336.094,18.656ZM345.488,21h-3.3V10.434h3.3Zm-3.5-13.291a1.469,1.469,0,0,1,.508-1.152,2.159,2.159,0,0,1,2.637,0,1.469,1.469,0,0,1,.508,1.152,1.469,1.469,0,0,1-.508,1.152,2.159,2.159,0,0,1-2.637,0A1.469,1.469,0,0,1,341.992,7.709Zm5.107,7.91a6.236,6.236,0,0,1,.615-2.817,4.4,4.4,0,0,1,1.768-1.9,5.323,5.323,0,0,1,2.705-.664,4.859,4.859,0,0,1,3.74,1.47,5.64,5.64,0,0,1,1.367,4v.117a5.472,5.472,0,0,1-1.372,3.921,4.871,4.871,0,0,1-3.716,1.45,4.927,4.927,0,0,1-3.623-1.353,5.29,5.29,0,0,1-1.475-3.667Zm3.291.205a3.931,3.931,0,0,0,.459,2.148,1.529,1.529,0,0,0,1.357.684q1.758,0,1.8-2.705v-.332q0-2.842-1.816-2.842-1.65,0-1.787,2.451ZM352.637,6h3.477L353.4,9.066l-2.686,0Zm9.131,4.434.107,1.24a3.583,3.583,0,0,1,3.018-1.436,3.015,3.015,0,0,1,2.466.986,4.7,4.7,0,0,1,.845,2.969V21h-3.3V14.33a1.783,1.783,0,0,0-.322-1.177,1.491,1.491,0,0,0-1.172-.376,1.569,1.569,0,0,0-1.436.762V21h-3.291V10.434Z" transform="translate(223 4610.581)" fill="#12263f"/><g transform="translate(612.723 4586.107)"><g clip-path="url(#a)"><path d="M.371,75.176a1.449,1.449,0,0,0,1.74.156c2.661-1.193,5.317-2.4,7.978-3.59,3.432-1.54,6.877-3.05,10.286-4.639a2.613,2.613,0,0,1,2.4.014c5.95,2.717,11.936,5.357,17.884,8.079a2.735,2.735,0,0,0,2.484,0c6.066-2.79,12.183-5.471,18.256-8.249a2.151,2.151,0,0,1,1.949.137c2.918,1.352,5.865,2.642,8.8,3.962q4.809,2.166,9.625,4.316a1.26,1.26,0,0,0,1.391.006c.459-.356.409-.846.318-1.347Q81.633,63.8,79.783,53.578c-.3-1.637-.642-3.265-.873-4.911a2.6,2.6,0,0,0-1.485-2.377h0c-.97.534-1.1.815-.9,1.906q.926,5.06,1.841,10.122c.034.185.039.375.082.806l-15.924-18.5c1.567-.356,3.028-.693,4.491-1.02q2.868-.64,5.738-1.267a2.048,2.048,0,0,1,2.231,1.454c.169.91.326,1.822.5,2.731.2,1.032.488,1.295,1.524,1.408a2.954,2.954,0,0,0,.472-3.011,19.972,19.972,0,0,1-.38-2.092,2.34,2.34,0,0,0-1.4-1.861c-2.354-1.263-4.676-2.587-7.014-3.88-2.768-1.531-5.526-3.078-8.3-4.6a1.855,1.855,0,0,0-2.073.033,10.15,10.15,0,0,1-1.681.841c-.153.062-.335.139-.479.023l-.11.057.056-.111a.485.485,0,0,1,0-.461,5.265,5.265,0,0,1,.307-.668,22.4,22.4,0,0,0,2.527-9.819A16.59,16.59,0,0,0,54.5,6.742,16.168,16.168,0,0,0,44.453,1.4,16.526,16.526,0,0,0,30.2,5.992a16.413,16.413,0,0,0-5.019,9.868A20.355,20.355,0,0,0,26.4,25.572a25.705,25.705,0,0,0,1.355,3.066c.115.228.279.5.078.731l.074.161-.161-.084c-.221.146-.473-.013-.691-.114a12.212,12.212,0,0,1-1.6-.825,1.771,1.771,0,0,0-2-.051c-3.319,1.829-6.627,3.679-9.941,5.518Q10.655,35.561,7.8,37.16a2.035,2.035,0,0,0-1.078,1.529c-1.151,6.249-2.272,12.5-3.4,18.756-.3,1.664-.576,3.333-.92,4.988-.212,1.02-.392,2.013.5,2.816,1.028-.04,1.335-.331,1.527-1.4.391-2.17.8-4.337,1.164-6.512A1.513,1.513,0,0,1,6.5,56.132c4.868-2.546,9.721-5.122,14.578-7.689.141-.074.287-.139.52-.251a30.259,30.259,0,0,1-.22,3.834c-.284,3.97-.614,7.936-.912,11.9-.032.427-.066.75-.544.963q-8.384,3.728-16.749,7.5a1.743,1.743,0,0,1-.281.049c.172-.959.336-1.879.5-2.8.2-1.1.043-1.47-.867-1.931-1.05.309-1.332,1.128-1.459,2.1C.92,70.94.694,72.058.453,73.171c-.062.284,0,.683-.453.75v1.146a.363.363,0,0,1,.371.109M40.684,59.682l-.161.058L33.105,48.057c1.247.134,2.332.242,3.415.37,1.189.14,2.375.306,3.564.442.316.036.6.037.6.471q-.006,5.171,0,10.342m2.968,12.8c-.4.188-.525.122-.521-.321.013-1.55,0-3.1,0-4.492l3.727,3.367c-1.184.53-2.206.97-3.211,1.446m34.234-1.315L71.278,68.2q-3.648-1.638-7.3-3.275c-.328-.147-.607-.27-.639-.729-.261-3.722-.551-7.441-.827-11.162a.518.518,0,0,1,.124-.527L78,71.038l-.115.125M66.93,49.507q5.817,6.757,11.641,13.507a4.014,4.014,0,0,1,1.042,2.145c.23,1.613.571,3.211.874,4.864a3.049,3.049,0,0,1-.861-.893Q71.112,58.872,62.6,48.611a2.319,2.319,0,0,1-.576-1.472c-.046-1.128-.149-2.253-.243-3.6,1.814,2.1,3.483,4.034,5.148,5.968m.642-14.5a21.427,21.427,0,0,0,2.455,1.407l-6.666,1.494c-.079.018-.162.024-.241.042-1.817.41-1.817.41-1.906-1.416-.084-1.735-.052-1.636,1.579-2.169a4.8,4.8,0,0,1,4.779.643m-6.688-3.7L62,31.94a1.035,1.035,0,0,1-1.022.281c-.24-.092-.113-.518-.1-.908M59.762,49.6Q60.3,56.65,60.88,63.692a1.214,1.214,0,0,1-.858,1.456c-3.423,1.47-6.813,3.016-10.2,4.567a.8.8,0,0,1-1.106-.2q-2.551-2.706-5.166-5.352a1.4,1.4,0,0,1-.412-1.091c.014-2.289.007-4.578.006-6.867s.014-4.578-.011-6.867a.885.885,0,0,1,.624-.974q4.542-1.931,9.053-3.932a.922.922,0,0,1,1.1.139C55.7,46,57.507,47.4,59.32,48.8a1.014,1.014,0,0,1,.442.805m-.994-13.143c.159,2.557.386,5.109.584,7.663.038.487.058.976.086,1.46-.306.1-.42-.144-.574-.263-1.3-1-2.621-1.962-3.857-3.029a2.158,2.158,0,0,0-2.655-.357c-2.758,1.289-5.574,2.453-8.368,3.665-.246.107-.5.2-.757.3a1.532,1.532,0,0,1,.645-1.925,5.684,5.684,0,0,0,1.171-1.017,14.629,14.629,0,0,1,5.984-3.95c2.353-.92,4.643-2,6.946-3.047.612-.278.753-.173.794.5m-.92-5.184c.391-.212.5-.1.551.313.18,1.44.193,1.437-1.162,2.029q-2.35,1.027-4.7,2.054c-.238.1-.484.19-.845.331a7.623,7.623,0,0,1,3.48-3.345,23.792,23.792,0,0,0,2.675-1.382m-30.36-15.6c1.121-5.908,4.655-9.766,10.337-11.62a12.555,12.555,0,0,1,6.691-.338A12.892,12.892,0,0,1,51.2,6.711a14.342,14.342,0,0,1,5.46,12.26,23.276,23.276,0,0,1-4.04,11.4A54.794,54.794,0,0,1,42.487,41.958c-.37.33-.646.418-1,.014-.23-.264-.5-.494-.753-.739a39.644,39.644,0,0,1-4.63-4.6,40.054,40.054,0,0,1-6.824-10.021c-1.578-3.484-2.523-7.1-1.795-10.935M24.964,37.449q.258-2.844.416-5.7c.035-.608.214-.729.71-.39a.562.562,0,0,0,.145.075c3.753,1.195,5.926,4.23,8.256,7.084.239.293.491.574.858,1-3.39-.492-6.616-.969-9.845-1.417-.448-.062-.585-.177-.541-.657m-.589,7.571c.13-1.3.249-2.6.305-3.91.023-.531.192-.63.678-.557,2.8.422,5.6.82,8.4,1.226a25.722,25.722,0,0,0,2.587.357,5.141,5.141,0,0,1,3.395,1.491,2.5,2.5,0,0,1,.938,2.251c-.037.5-.2.583-.639.527-2.89-.365-5.783-.712-8.675-1.066-.081-.01-.162-.022-.243-.034a1.349,1.349,0,0,0-1.5.574,1.334,1.334,0,0,0,.151,1.524Q32.6,51.848,35.422,56.3q2.449,3.862,4.9,7.722a1.5,1.5,0,0,1,.34.813q0,2.686,0,5.372l-.162.039-7.36-11.183q-4.2-6.379-8.4-12.753a1.871,1.871,0,0,1-.359-1.289M24,50.159a2.221,2.221,0,0,1,.109-.351L38.4,71.531l-.092.116-6.077-2.725q-4.387-1.969-8.775-3.935c-.333-.149-.608-.251-.569-.737.383-4.7.74-9.394,1.107-14.091M8.854,39.392a.679.679,0,0,1,.4-.479l13.724-7.635c-.187,2.341-.366,4.509-.528,6.679a.62.62,0,0,1-.394.552q-7.078,3.718-14.153,7.443a.836.836,0,0,1-.224.025c.394-2.207.785-4.4,1.172-6.584M21.56,45.41,6.324,53.457c.261-1.461.495-2.741.714-4.024.044-.26.229-.35.421-.452q7.217-3.805,14.435-7.607a.96.96,0,0,1,.293-.028c-.089,1.212-.184,2.4-.255,3.588-.016.272-.179.373-.372.476" transform="translate(0 -0.968)"/><path d="M.453,330.81c.241-1.113.467-2.231.613-3.36.126-.974.409-1.792,1.459-2.1l-.069-.035c-1.009.121-1.268.4-1.479,1.409A42.488,42.488,0,0,1,0,331.56c.449-.067.391-.466.453-.75" transform="translate(0 -258.607)"/><path d="M274.362,132.812a10.147,10.147,0,0,0,1.681-.841,1.855,1.855,0,0,1,2.073-.033c2.771,1.525,5.53,3.072,8.3,4.6,2.338,1.293,4.66,2.617,7.014,3.88a2.341,2.341,0,0,1,1.4,1.861,19.919,19.919,0,0,0,.38,2.092,2.955,2.955,0,0,1-.472,3.011l.049.006a1.443,1.443,0,0,0,.866-1.792c-.246-1.172-.481-2.349-.638-3.536a2.051,2.051,0,0,0-1.16-1.644q-7.925-4.385-15.832-8.8a1.655,1.655,0,0,0-1.767-.012c-.729.407-1.482.776-2.369,1.232.145.116.326.039.479-.023" transform="translate(-217.723 -104.419)"/><path d="M123.871,27.67a25.705,25.705,0,0,1-1.355-3.066,20.354,20.354,0,0,1-1.219-9.712,16.414,16.414,0,0,1,5.019-9.868A16.526,16.526,0,0,1,140.573.432a16.168,16.168,0,0,1,10.049,5.342,16.589,16.589,0,0,1,4.44,11.639,22.4,22.4,0,0,1-2.527,9.819,5.276,5.276,0,0,0-.307.668.485.485,0,0,0,0,.461,33.69,33.69,0,0,0,1.74-3.937c1.662-4.685,1.95-9.392-.091-14.02A17.1,17.1,0,0,0,128.7,2.849,16.519,16.519,0,0,0,120.962,16.1a21.021,21.021,0,0,0,1.931,10c.316.732.662,1.453,1.056,2.305.2-.229.038-.5-.078-.731" transform="translate(-96.12 0)"/><path d="M9.95,165.817c.344-1.655.62-3.324.92-4.988,1.128-6.253,2.249-12.507,3.4-18.756a2.035,2.035,0,0,1,1.078-1.529q2.852-1.6,5.716-3.186c3.314-1.839,6.622-3.688,9.941-5.518a1.772,1.772,0,0,1,2,.051,12.264,12.264,0,0,0,1.6.825c.218.1.469.26.691.114-.962-.5-1.787-.917-2.6-1.355a1.5,1.5,0,0,0-1.551.019q-8.051,4.493-16.109,8.974a1.778,1.778,0,0,0-.944,1.337Q11.827,154.3,9.545,166.8a1.491,1.491,0,0,0,.8,1.84l.1,0c-.889-.8-.709-1.8-.5-2.816" transform="translate(-7.548 -104.352)"/><path d="M2.252,250.235q9.331-4.192,18.655-8.4a1.416,1.416,0,0,1,1.3,0c6.213,2.812,12.439,5.594,18.65,8.411a2.31,2.31,0,0,0,2.086,0c6.211-2.817,12.437-5.6,18.651-8.409a1.415,1.415,0,0,1,1.3.008q9.434,4.26,18.88,8.494a1.365,1.365,0,0,0,1.531-.023,1.4,1.4,0,0,0,.415-1.549c-.376-1.951-.713-3.909-1.069-5.864q-1.861-10.243-3.713-20.487a1.45,1.45,0,0,0-1.507-1.391A2.6,2.6,0,0,1,78.91,223.4c.231,1.646.578,3.274.873,4.911q1.844,10.221,3.694,20.441c.09.5.141.991-.318,1.347a1.26,1.26,0,0,1-1.391-.006q-4.821-2.139-9.625-4.316c-2.932-1.321-5.879-2.611-8.8-3.962a2.152,2.152,0,0,0-1.949-.137c-6.072,2.778-12.189,5.458-18.256,8.248a2.734,2.734,0,0,1-2.484,0c-5.948-2.722-11.933-5.362-17.884-8.079a2.613,2.613,0,0,0-2.4-.014c-3.409,1.59-6.854,3.1-10.286,4.639-2.661,1.194-5.317,2.4-7.978,3.59a1.45,1.45,0,0,1-1.74-.156A.363.363,0,0,0,0,249.8c.772.878,1.113.947,2.252.436" transform="translate(0 -175.701)"/><path d="M13.467,253.125a9.705,9.705,0,0,1-.28,2.02,3.343,3.343,0,0,0-.083,1.04,20.2,20.2,0,0,0,3.177-1.321q6.37-2.882,12.759-5.72a1.523,1.523,0,0,0,1.049-1.449c.258-3.2.446-6.407.755-9.6.146-1.516.2-3.041.347-4.559.065-.686-.061-.751-.652-.445-4.554,2.35-9.045,4.819-13.612,7.144a2.393,2.393,0,0,0-1.4,1.939c-.3,1.94-.667,3.869-1.046,5.795a3.066,3.066,0,0,1-.286.935,1.133,1.133,0,0,1-1.431.579,4.634,4.634,0,0,1-.409,2.4,1.171,1.171,0,0,1,1.11,1.25" transform="translate(-9.823 -185.152)" fill="#a7edfb"/><path d="M12.053,315.941a4.63,4.63,0,0,0,.409-2.4c-.047-.013-.092-.024-.141-.041.036.829-.313,1.6-.346,2.422h0c.028,0,.051.011.078.016" transform="translate(-9.519 -249.218)" fill="#a7edfb"/><path d="M12.729,247.4a1.133,1.133,0,0,0,1.431-.579,3.063,3.063,0,0,0,.286-.934c.379-1.926.75-3.855,1.046-5.795a2.393,2.393,0,0,1,1.4-1.939c4.566-2.326,9.058-4.794,13.612-7.144.591-.305.717-.241.652.445-.143,1.518-.2,3.043-.347,4.559-.308,3.2-.5,6.4-.755,9.6A1.523,1.523,0,0,1,29,247.069q-6.383,2.852-12.759,5.72a20.2,20.2,0,0,1-3.177,1.321,3.337,3.337,0,0,1,.083-1.04,9.707,9.707,0,0,0,.28-2.02,1.171,1.171,0,0,0-1.11-1.25l-.007.018h0c.91.462,1.068.83.867,1.932-.168.919-.331,1.839-.5,2.8a1.746,1.746,0,0,0,.281-.049q8.373-3.752,16.749-7.5c.477-.212.512-.536.544-.963.3-3.969.628-7.935.912-11.9a30.3,30.3,0,0,0,.22-3.834c-.233.112-.379.176-.52.251-4.857,2.567-9.71,5.143-14.578,7.689a1.513,1.513,0,0,0-.906,1.209c-.362,2.175-.772,4.342-1.164,6.512-.192,1.065-.5,1.355-1.527,1.4.015.014.028.027.043.041v0" transform="translate(-9.787 -183.078)" fill="#a7edfb"/><path d="M13.8,313.525c-.016-.013-.028-.027-.043-.041l-.1,0c.049.017.094.027.141.041v0" transform="translate(-10.861 -249.203)" fill="#a7edfb"/><path d="M12.044,325.348h0l.007-.018c-.027,0-.05-.012-.078-.016l.069.035" transform="translate(-9.519 -258.607)" fill="#a7edfb"/><path d="M321.451,188.728c.02-.019.037-.039.056-.058a1.043,1.043,0,0,1-1.376-.578,4.826,4.826,0,0,1-.474-1.641c-.1-.564-.188-1.129-.311-1.689a1.769,1.769,0,0,0-2.161-1.467c-3.069.638-6.12,1.355-9.183,2.021-.734.16-.269.492-.075.717,1.438,1.673,2.89,3.335,4.325,5.012,2.87,3.353,5.768,6.681,8.629,10.041.611.717,1.23,1.431,1.832,2.1-.424-2.025-.736-4.1-1.126-6.16-.273-1.446-.555-2.891-.779-4.346-.157-1.021.194-1.515,1.143-1.682h0c-.032-.013-.063-.028-.1-.04a6.112,6.112,0,0,1-.4-2.227" transform="translate(-244.527 -145.674)" fill="#7de4f1"/><path d="M375.181,209.583c-.019.019-.036.039-.056.058a6.114,6.114,0,0,0,.4,2.227c.034.012.065.027.1.04q-.182-1.175-.363-2.35c-.027.011-.052.016-.079.025" transform="translate(-298.201 -166.588)" fill="#7de4f1"/><path d="M318.68,191.764c.224,1.455.506,2.9.779,4.346.39,2.06.7,4.135,1.126,6.16-.6-.667-1.221-1.381-1.832-2.1-2.862-3.359-5.759-6.688-8.629-10.041-1.435-1.676-2.887-3.338-4.325-5.012-.194-.226-.659-.558.075-.717,3.063-.666,6.114-1.382,9.183-2.021a1.769,1.769,0,0,1,2.162,1.467c.123.559.212,1.125.311,1.688a4.828,4.828,0,0,0,.474,1.641,1.043,1.043,0,0,0,1.376.579l.03-.031c-1.036-.113-1.324-.375-1.523-1.408-.176-.908-.333-1.821-.5-2.731a2.048,2.048,0,0,0-2.231-1.454q-2.869.631-5.738,1.267c-1.463.327-2.924.664-4.491,1.02l15.924,18.5c-.043-.431-.048-.621-.082-.806q-.917-5.062-1.841-10.122c-.2-1.091-.074-1.372.9-1.906-.948.167-1.3.661-1.143,1.682" transform="translate(-242.399 -144.76)" fill="#7de4f1"/><path d="M375.449,209.53l-.03.031c.026-.009.051-.015.079-.025l-.049-.006" transform="translate(-298.438 -166.565)" fill="#7de4f1"/><path d="M141.7,45.154a39.647,39.647,0,0,0,4.63,4.6c.8-.84,1.6-1.683,2.408-2.518a42.621,42.621,0,0,0,8.15-11.428,20.42,20.42,0,0,0,2.2-10.165,15.55,15.55,0,0,0-4.052-9.561,20.743,20.743,0,0,0-4.927-3.844,12.557,12.557,0,0,0-6.691.338c-5.682,1.854-9.216,5.712-10.337,11.62-.728,3.838.217,7.452,1.795,10.935A40.05,40.05,0,0,0,141.7,45.154m.21-23.489A1.269,1.269,0,0,1,144,21.49h0a6.22,6.22,0,0,1,2.323-1.047c.218-1.091.614-1.4,1.674-1.317a7.581,7.581,0,1,1-7.915,8.665,7.551,7.551,0,0,1,1.826-6.127" transform="translate(-105.593 -9.489)" fill="#fe4a4a"/><path d="M221.129,211.662a.922.922,0,0,0-1.1-.14q-4.513,2-9.053,3.932a.885.885,0,0,0-.624.974c.025,2.289.011,4.578.011,6.867s.007,4.578-.007,6.867a1.4,1.4,0,0,0,.412,1.091q2.608,2.651,5.166,5.352a.8.8,0,0,0,1.106.2c3.387-1.551,6.778-3.1,10.2-4.567a1.214,1.214,0,0,0,.858-1.456q-.591-7.041-1.118-14.088a1.015,1.015,0,0,0-.442-.805c-1.813-1.395-3.622-2.8-5.411-4.223" transform="translate(-167.22 -168.054)" fill="#4ce066"/><path d="M127.6,211.473l7.36,11.183.162-.039q0-2.686,0-5.372a1.505,1.505,0,0,0-.34-.813q-2.453-3.859-4.9-7.722-2.821-4.448-5.644-8.895a1.334,1.334,0,0,1-.151-1.524,1.348,1.348,0,0,1,1.5-.574c.081.011.162.024.243.034,2.892.353,5.785.7,8.675,1.066.442.056.6-.028.639-.527a2.5,2.5,0,0,0-.938-2.251,5.142,5.142,0,0,0-3.395-1.491,25.735,25.735,0,0,1-2.587-.357c-2.8-.406-5.6-.8-8.4-1.226-.486-.073-.655.026-.678.557-.056,1.306-.175,2.609-.305,3.91a1.87,1.87,0,0,0,.36,1.289q4.214,6.369,8.4,12.753" transform="translate(-94.459 -153.38)" fill="#feba24"/><path d="M112.182,253.361q4.391,1.961,8.775,3.935l6.078,2.725.092-.116-14.3-21.723a2.252,2.252,0,0,0-.109.351c-.367,4.7-.724,9.4-1.107,14.091-.04.486.236.588.569.737" transform="translate(-88.724 -189.342)" fill="#7de4f1"/><path d="M211.623,28.94a23.692,23.692,0,0,1-3.471,10.551,44.945,44.945,0,0,1-7.227,9.359c-.726.723-1.24,1.677-2.264,2.076.252.245.522.474.753.739.352.4.628.316,1-.014a54.788,54.788,0,0,0,10.131-11.587,23.276,23.276,0,0,0,4.04-11.4,14.342,14.342,0,0,0-5.46-12.26,12.89,12.89,0,0,0-6.683-2.993,9.4,9.4,0,0,1,3.211,1.907,15.947,15.947,0,0,1,5.972,13.623" transform="translate(-157.925 -10.66)" fill="#e6343f"/><path d="M207.367,17.255a15.551,15.551,0,0,1,4.052,9.561,20.419,20.419,0,0,1-2.2,10.165,42.626,42.626,0,0,1-8.15,11.428c-.807.835-1.606,1.678-2.408,2.518,1.024-.4,1.538-1.352,2.264-2.076a44.949,44.949,0,0,0,7.227-9.359,23.691,23.691,0,0,0,3.471-10.551,15.947,15.947,0,0,0-5.972-13.623,9.4,9.4,0,0,0-3.211-1.907,20.743,20.743,0,0,1,4.927,3.844" transform="translate(-157.925 -10.661)" fill="#e6343f"/><path d="M51.84,155.048a.62.62,0,0,0,.394-.552c.162-2.169.341-4.337.528-6.679l-13.724,7.635a.679.679,0,0,0-.4.479c-.387,2.189-.778,4.377-1.172,6.585a.842.842,0,0,0,.224-.026q7.077-3.72,14.153-7.443" transform="translate(-29.781 -117.507)" fill="#4ce066"/><path d="M304.787,251.854c.276,3.72.566,7.44.827,11.162.032.459.311.582.639.729q3.65,1.634,7.3,3.275l6.609,2.968.115-.125-15.363-18.535a.518.518,0,0,0-.124.527" transform="translate(-242.273 -199.792)" fill="#44c768"/><path d="M301.543,211.208a2.319,2.319,0,0,0,.576,1.472q8.524,10.249,17.025,20.519a3.056,3.056,0,0,0,.861.893c-.3-1.653-.644-3.251-.874-4.864a4.013,4.013,0,0,0-1.042-2.145q-5.843-6.734-11.641-13.507c-1.665-1.934-3.333-3.865-5.147-5.968.095,1.348.2,2.473.243,3.6" transform="translate(-239.518 -165.037)" fill="#feba24"/><path d="M225.157,170.1c-2.3,1.045-4.593,2.127-6.946,3.047a14.632,14.632,0,0,0-5.984,3.95,5.681,5.681,0,0,1-1.171,1.017,1.532,1.532,0,0,0-.645,1.925c.259-.1.511-.193.757-.3,2.794-1.212,5.609-2.377,8.368-3.665a2.158,2.158,0,0,1,2.655.357c1.236,1.067,2.562,2.032,3.857,3.029.154.119.268.36.574.263-.028-.484-.049-.973-.086-1.46-.2-2.554-.426-5.107-.585-7.663-.042-.673-.182-.778-.794-.5" transform="translate(-167.183 -135.108)" fill="#feda56"/><path d="M46.447,200.507c.071-1.189.167-2.377.255-3.588a.968.968,0,0,0-.293.028q-7.22,3.8-14.435,7.607c-.193.1-.377.192-.421.452-.219,1.283-.453,2.563-.714,4.024l15.237-8.047c.193-.1.356-.2.372-.475" transform="translate(-24.515 -156.54)" fill="#feda56"/><path d="M122.256,154.248c3.229.447,6.455.925,9.845,1.417-.367-.428-.619-.71-.858-1-2.33-2.854-4.5-5.889-8.256-7.084a.572.572,0,0,1-.145-.075c-.5-.339-.676-.218-.71.39q-.162,2.852-.416,5.7c-.043.48.093.595.541.657" transform="translate(-96.75 -117.11)" fill="#44c768"/><path d="M168.427,230.456c-1.189-.136-2.375-.3-3.564-.442-1.083-.127-2.168-.235-3.415-.37l7.418,11.683.161-.058q0-5.171,0-10.342c0-.435-.286-.435-.6-.472" transform="translate(-128.343 -182.556)" fill="#44c767"/><path d="M298.43,163.693c.089,1.827.089,1.826,1.906,1.417.079-.018.161-.024.241-.042l6.666-1.494a21.483,21.483,0,0,1-2.455-1.407,4.8,4.8,0,0,0-4.779-.643c-1.631.533-1.663.435-1.579,2.169" transform="translate(-237.216 -128.125)" fill="#feba24"/><path d="M252.094,152.134c.361-.141.607-.227.845-.331q2.351-1.024,4.7-2.054c1.355-.592,1.342-.59,1.161-2.029-.052-.417-.16-.525-.551-.313a23.76,23.76,0,0,1-2.675,1.382,7.624,7.624,0,0,0-3.48,3.345" transform="translate(-200.402 -117.096)" fill="#4bdf65"/><path d="M210.342,329.758c0,.444.124.51.521.321,1.005-.476,2.028-.916,3.211-1.446l-3.728-3.367c0,1.392.008,2.942,0,4.492" transform="translate(-167.211 -258.569)" fill="#fdda55"/><path d="M296.836,148.894a1.035,1.035,0,0,0,1.022-.281l-1.12-.627c-.015.389-.142.815.1.908" transform="translate(-235.854 -117.641)" fill="#3eb75f"/><path d="M178.532,61.429a7.583,7.583,0,0,0-2.7-14.483c-1.061-.086-1.457.226-1.674,1.317.215.867.841,1.08,1.653,1.154a5.117,5.117,0,0,1,.987,10.03,5.168,5.168,0,0,1-5.665-2.078,5.1,5.1,0,0,1,.207-5.956c.5-.634,1.052-1.231.495-2.1h0a1.269,1.269,0,0,0-2.091.174,7.584,7.584,0,0,0,8.79,11.944" transform="translate(-133.427 -37.309)"/><path d="M182.169,56.251a6.462,6.462,0,0,0-1.25,2.449,4.9,4.9,0,1,0,5.262-3.929,2.765,2.765,0,0,1-.806-.113c-.537-.232-1.068-.485-.894-1.237a6.214,6.214,0,0,0-2.323,1.047c.544.55.555,1,.011,1.782" transform="translate(-143.751 -42.468)" fill="#fefefe"/><path d="M180.759,56.572a5.1,5.1,0,0,0-.207,5.956,5.138,5.138,0,0,0,9.394-3.149,5.108,5.108,0,0,0-4.717-4.8c-.812-.074-1.437-.287-1.653-1.154-.174.753.357,1.005.894,1.237a2.761,2.761,0,0,0,.806.113,4.917,4.917,0,1,1-5.263,3.929,6.465,6.465,0,0,1,1.25-2.449c.544-.784.533-1.232-.011-1.782.558.872,0,1.469-.495,2.1" transform="translate(-142.846 -42.468)" fill="#fefefe"/></g></g></g></svg>