<svg xmlns="http://www.w3.org/2000/svg" xmlns:xlink="http://www.w3.org/1999/xlink" width="560.348" height="74.859" viewBox="0 0 560.348 74.859"><defs><clipPath id="a"><rect width="86.256" height="74.859" fill="none"/></clipPath></defs><g transform="translate(-180 -6355.107)"><path d="M0,0H553.592l-4.418,52.528L0,52Z" transform="translate(180 6366.581)" fill="#fff0a6"/><path d="M6.592,17.133,9.424,6.781h3.828L8.467,21H4.717L-.029,6.781h3.8ZM19.248,21.2a5.432,5.432,0,0,1-3.936-1.45,5.008,5.008,0,0,1-1.5-3.774V15.7a6.489,6.489,0,0,1,.6-2.861,4.395,4.395,0,0,1,1.753-1.919,5.292,5.292,0,0,1,2.734-.679,4.574,4.574,0,0,1,3.516,1.382A5.43,5.43,0,0,1,23.7,15.473v1.279H17.158a2.372,2.372,0,0,0,.771,1.4,2.3,2.3,0,0,0,1.543.508,2.958,2.958,0,0,0,2.441-1.094l1.5,1.777a4.2,4.2,0,0,1-1.743,1.353A5.891,5.891,0,0,1,19.248,21.2Zm-.371-8.418q-1.445,0-1.719,1.914h3.32v-.254a1.63,1.63,0,0,0-.4-1.226A1.593,1.593,0,0,0,18.877,12.777Zm9.17-2.344.107,1.24a3.583,3.583,0,0,1,3.018-1.436,3.015,3.015,0,0,1,2.466.986,4.7,4.7,0,0,1,.845,2.969V21h-3.3V14.33a1.783,1.783,0,0,0-.322-1.177,1.491,1.491,0,0,0-1.172-.376,1.569,1.569,0,0,0-1.436.762V21H24.961V10.434Zm12.09-2.627v2.627h1.738v2.285H40.137v4.834a1.234,1.234,0,0,0,.215.83,1.152,1.152,0,0,0,.85.234,4.828,4.828,0,0,0,.82-.059v2.354a6.074,6.074,0,0,1-1.855.283,3.448,3.448,0,0,1-2.51-.8,3.282,3.282,0,0,1-.811-2.432V12.719H35.5V10.434h1.348V7.807ZM49.121,21a3.716,3.716,0,0,1-.312-.947A3.06,3.06,0,0,1,46.27,21.2a3.749,3.749,0,0,1-2.539-.9,2.875,2.875,0,0,1-1.045-2.271,2.955,2.955,0,0,1,1.27-2.6,6.468,6.468,0,0,1,3.691-.879h1.016v-.559q0-1.462-1.26-1.462a1.03,1.03,0,0,0-1.172,1.158H42.939a2.95,2.95,0,0,1,1.3-2.487,5.479,5.479,0,0,1,3.325-.956,4.8,4.8,0,0,1,3.193.986,3.429,3.429,0,0,1,1.2,2.705v4.678a4.79,4.79,0,0,0,.449,2.227V21Zm-2.061-2.148a1.836,1.836,0,0,0,1.021-.264,1.653,1.653,0,0,0,.581-.6V16.3h-.957q-1.719,0-1.719,1.543a.942.942,0,0,0,.3.728A1.1,1.1,0,0,0,47.061,18.852Zm10.264-8.418V21.361a3.836,3.836,0,0,1-1.074,2.891,4.127,4.127,0,0,1-2.969,1.016,7.009,7.009,0,0,1-1.553-.166v-2.49a6.3,6.3,0,0,0,.928.088,1.2,1.2,0,0,0,1.367-1.357V10.434ZM53.779,7.709a1.469,1.469,0,0,1,.508-1.152,2.159,2.159,0,0,1,2.637,0,1.469,1.469,0,0,1,.508,1.152,1.469,1.469,0,0,1-.508,1.152,2.159,2.159,0,0,1-2.637,0A1.469,1.469,0,0,1,53.779,7.709ZM65.137,21a3.716,3.716,0,0,1-.312-.947A3.06,3.06,0,0,1,62.285,21.2a3.749,3.749,0,0,1-2.539-.9A2.875,2.875,0,0,1,58.7,18.021a2.955,2.955,0,0,1,1.27-2.6,6.468,6.468,0,0,1,3.691-.879h1.016v-.559q0-1.462-1.26-1.462a1.03,1.03,0,0,0-1.172,1.158H58.955a2.95,2.95,0,0,1,1.3-2.487,5.479,5.479,0,0,1,3.325-.956,4.8,4.8,0,0,1,3.193.986,3.429,3.429,0,0,1,1.2,2.705v4.678a4.79,4.79,0,0,0,.449,2.227V21Zm-2.061-2.148a1.836,1.836,0,0,0,1.021-.264,1.653,1.653,0,0,0,.581-.6V16.3h-.957Q62,16.3,62,17.846a.942.942,0,0,0,.3.728A1.1,1.1,0,0,0,63.076,18.852Zm12.256-.82a.76.76,0,0,0-.439-.674,6.684,6.684,0,0,0-1.67-.527,7.615,7.615,0,0,1-2.031-.718,3.4,3.4,0,0,1-1.221-1.079,2.577,2.577,0,0,1-.42-1.455,2.92,2.92,0,0,1,1.2-2.4,4.948,4.948,0,0,1,3.145-.942,5.482,5.482,0,0,1,3.359.947,2.962,2.962,0,0,1,1.27,2.49h-3.3q0-1.27-1.338-1.27a1.326,1.326,0,0,0-.869.288.892.892,0,0,0-.352.718.819.819,0,0,0,.43.713,4.06,4.06,0,0,0,1.372.449,11.857,11.857,0,0,1,1.655.42,3.007,3.007,0,0,1,2.383,2.939,2.767,2.767,0,0,1-1.284,2.354A5.631,5.631,0,0,1,73.9,21.2a5.747,5.747,0,0,1-2.422-.488,4.05,4.05,0,0,1-1.66-1.328,3.007,3.007,0,0,1-.6-1.768h3.076a1.272,1.272,0,0,0,.488,1.069,2.009,2.009,0,0,0,1.2.337A1.58,1.58,0,0,0,75,18.744.875.875,0,0,0,75.332,18.031Zm9.277-2.393a6.455,6.455,0,0,1,1.084-3.955,3.568,3.568,0,0,1,3.027-1.445A3.035,3.035,0,0,1,91.1,11.352V6h3.3V21H91.445l-.166-1.133A3.116,3.116,0,0,1,88.7,21.2a3.562,3.562,0,0,1-2.988-1.445A6.659,6.659,0,0,1,84.609,15.639Zm3.291.205q0,2.813,1.641,2.813a1.62,1.62,0,0,0,1.563-.918V13.715a1.576,1.576,0,0,0-1.543-.937q-1.523,0-1.65,2.461ZM101.387,21.2a5.432,5.432,0,0,1-3.936-1.45,5.008,5.008,0,0,1-1.5-3.774V15.7a6.489,6.489,0,0,1,.6-2.861A4.395,4.395,0,0,1,98.3,10.917a5.292,5.292,0,0,1,2.734-.679,4.574,4.574,0,0,1,3.516,1.382,5.43,5.43,0,0,1,1.289,3.853v1.279H99.3a2.372,2.372,0,0,0,.771,1.4,2.3,2.3,0,0,0,1.543.508,2.958,2.958,0,0,0,2.441-1.094l1.5,1.777a4.2,4.2,0,0,1-1.743,1.353A5.891,5.891,0,0,1,101.387,21.2Zm-.371-8.418q-1.445,0-1.719,1.914h3.32v-.254a1.63,1.63,0,0,0-.4-1.226A1.593,1.593,0,0,0,101.016,12.777ZM115.615,21h-3.3V6h3.3Zm7.979,0a3.716,3.716,0,0,1-.312-.947,3.06,3.06,0,0,1-2.539,1.143,3.749,3.749,0,0,1-2.539-.9,2.875,2.875,0,0,1-1.045-2.271,2.955,2.955,0,0,1,1.27-2.6,6.468,6.468,0,0,1,3.691-.879h1.016v-.559q0-1.462-1.26-1.462a1.03,1.03,0,0,0-1.172,1.158h-3.291a2.95,2.95,0,0,1,1.3-2.487,5.479,5.479,0,0,1,3.325-.956,4.8,4.8,0,0,1,3.193.986,3.429,3.429,0,0,1,1.2,2.705v4.678a4.79,4.79,0,0,0,.449,2.227V21Zm-2.061-2.148a1.836,1.836,0,0,0,1.021-.264,1.653,1.653,0,0,0,.581-.6V16.3h-.957q-1.719,0-1.719,1.543a.942.942,0,0,0,.3.728A1.1,1.1,0,0,0,121.533,18.852Zm18.1-5.439-1.084-.078a1.947,1.947,0,0,0-1.992.977V21h-3.291V10.434h3.086l.107,1.357a2.548,2.548,0,0,1,2.314-1.553,3.209,3.209,0,0,1,.918.117Zm6.3,7.783a5.432,5.432,0,0,1-3.936-1.45,5.008,5.008,0,0,1-1.5-3.774V15.7a6.489,6.489,0,0,1,.6-2.861,4.395,4.395,0,0,1,1.753-1.919,5.292,5.292,0,0,1,2.734-.679,4.574,4.574,0,0,1,3.516,1.382,5.43,5.43,0,0,1,1.289,3.853v1.279h-6.543a2.372,2.372,0,0,0,.771,1.4,2.3,2.3,0,0,0,1.543.508,2.958,2.958,0,0,0,2.441-1.094l1.5,1.777a4.2,4.2,0,0,1-1.743,1.353A5.891,5.891,0,0,1,145.928,21.2Zm-.371-8.418q-1.445,0-1.719,1.914h3.32v-.254a1.63,1.63,0,0,0-.4-1.226A1.593,1.593,0,0,0,145.557,12.777ZM157.656,21a3.716,3.716,0,0,1-.312-.947A3.06,3.06,0,0,1,154.8,21.2a3.749,3.749,0,0,1-2.539-.9,2.875,2.875,0,0,1-1.045-2.271,2.955,2.955,0,0,1,1.27-2.6,6.468,6.468,0,0,1,3.691-.879H157.2v-.559q0-1.462-1.26-1.462a1.03,1.03,0,0,0-1.172,1.158h-3.291a2.95,2.95,0,0,1,1.3-2.487,5.479,5.479,0,0,1,3.325-.956,4.8,4.8,0,0,1,3.193.986,3.429,3.429,0,0,1,1.2,2.705v4.678a4.79,4.79,0,0,0,.449,2.227V21ZM155.6,18.852a1.836,1.836,0,0,0,1.021-.264,1.653,1.653,0,0,0,.581-.6V16.3h-.957q-1.719,0-1.719,1.543a.942.942,0,0,0,.3.728A1.1,1.1,0,0,0,155.6,18.852ZM165.791,21h-3.3V6h3.3Zm5.5,0h-3.3V10.434h3.3Zm-3.5-13.291a1.469,1.469,0,0,1,.508-1.152,2.159,2.159,0,0,1,2.637,0,1.469,1.469,0,0,1,.508,1.152,1.469,1.469,0,0,1-.508,1.152,2.159,2.159,0,0,1-2.637,0A1.469,1.469,0,0,1,167.793,7.709Zm9.4,10.752h4.814V21h-8.975V19.164l4.688-6.191h-4.482V10.434H181.9v1.777ZM189.561,21a3.716,3.716,0,0,1-.312-.947,3.06,3.06,0,0,1-2.539,1.143,3.749,3.749,0,0,1-2.539-.9,2.875,2.875,0,0,1-1.045-2.271,2.955,2.955,0,0,1,1.27-2.6,6.468,6.468,0,0,1,3.691-.879H189.1v-.559q0-1.462-1.26-1.462a1.03,1.03,0,0,0-1.172,1.158h-3.291a2.95,2.95,0,0,1,1.3-2.487,5.479,5.479,0,0,1,3.325-.956,4.8,4.8,0,0,1,3.193.986,3.429,3.429,0,0,1,1.2,2.705v4.678a4.79,4.79,0,0,0,.449,2.227V21ZM187.5,18.852a1.836,1.836,0,0,0,1.021-.264,1.653,1.653,0,0,0,.581-.6V16.3h-.957q-1.719,0-1.719,1.543a.942.942,0,0,0,.3.728A1.1,1.1,0,0,0,187.5,18.852Zm11.191-.2a1.464,1.464,0,0,0,1.074-.376,1.379,1.379,0,0,0,.371-1.05h3.086a3.653,3.653,0,0,1-1.245,2.852A4.631,4.631,0,0,1,198.77,21.2a4.689,4.689,0,0,1-3.633-1.445,5.7,5.7,0,0,1-1.328-4v-.137a6.436,6.436,0,0,1,.591-2.827,4.3,4.3,0,0,1,1.7-1.885,5.081,5.081,0,0,1,2.637-.659,4.573,4.573,0,0,1,3.271,1.143,4.053,4.053,0,0,1,1.211,3.1h-3.086a1.807,1.807,0,0,0-.4-1.26,1.382,1.382,0,0,0-1.074-.439q-1.279,0-1.494,1.631a11.507,11.507,0,0,0-.068,1.426,4.52,4.52,0,0,0,.381,2.207A1.319,1.319,0,0,0,198.691,18.656ZM208.086,21h-3.3V10.434h3.3Zm-3.5-13.291a1.469,1.469,0,0,1,.508-1.152,2.159,2.159,0,0,1,2.637,0,1.469,1.469,0,0,1,.508,1.152,1.469,1.469,0,0,1-.508,1.152,2.159,2.159,0,0,1-2.637,0A1.469,1.469,0,0,1,204.59,7.709Zm5.107,7.91a6.236,6.236,0,0,1,.615-2.817,4.4,4.4,0,0,1,1.768-1.9,5.323,5.323,0,0,1,2.705-.664,4.858,4.858,0,0,1,3.74,1.47,5.64,5.64,0,0,1,1.367,4v.117a5.472,5.472,0,0,1-1.372,3.921A4.871,4.871,0,0,1,214.8,21.2a4.927,4.927,0,0,1-3.623-1.353,5.29,5.29,0,0,1-1.475-3.667Zm3.291.205a3.932,3.932,0,0,0,.459,2.148,1.529,1.529,0,0,0,1.357.684q1.758,0,1.8-2.705v-.332q0-2.842-1.816-2.842-1.65,0-1.787,2.451ZM215.234,6h3.477L216,9.066l-2.686,0Zm9.131,4.434.107,1.24a3.583,3.583,0,0,1,3.018-1.436,3.015,3.015,0,0,1,2.466.986,4.7,4.7,0,0,1,.845,2.969V21h-3.3V14.33a1.783,1.783,0,0,0-.322-1.177,1.491,1.491,0,0,0-1.172-.376,1.569,1.569,0,0,0-1.436.762V21h-3.291V10.434Zm12.822,5.205a6.455,6.455,0,0,1,1.084-3.955,3.568,3.568,0,0,1,3.027-1.445,3.035,3.035,0,0,1,2.383,1.113V6h3.3V21h-2.959l-.166-1.133a3.116,3.116,0,0,1-2.578,1.328,3.562,3.562,0,0,1-2.988-1.445A6.659,6.659,0,0,1,237.188,15.639Zm3.291.205q0,2.813,1.641,2.813a1.62,1.62,0,0,0,1.563-.918V13.715a1.576,1.576,0,0,0-1.543-.937q-1.523,0-1.65,2.461ZM253.965,21.2a5.432,5.432,0,0,1-3.936-1.45,5.008,5.008,0,0,1-1.5-3.774V15.7a6.489,6.489,0,0,1,.6-2.861,4.395,4.395,0,0,1,1.753-1.919,5.292,5.292,0,0,1,2.734-.679,4.574,4.574,0,0,1,3.516,1.382,5.43,5.43,0,0,1,1.289,3.853v1.279h-6.543a2.372,2.372,0,0,0,.771,1.4,2.3,2.3,0,0,0,1.543.508,2.958,2.958,0,0,0,2.441-1.094l1.5,1.777a4.2,4.2,0,0,1-1.743,1.353A5.891,5.891,0,0,1,253.965,21.2Zm-.371-8.418q-1.445,0-1.719,1.914h3.32v-.254a1.63,1.63,0,0,0-.4-1.226A1.593,1.593,0,0,0,253.594,12.777Zm17.52.635-1.084-.078a1.947,1.947,0,0,0-1.992.977V21h-3.291V10.434h3.086l.107,1.357a2.548,2.548,0,0,1,2.314-1.553,3.209,3.209,0,0,1,.918.117Zm7.48,6.445a3.393,3.393,0,0,1-2.822,1.338,3.328,3.328,0,0,1-2.632-1.011,4.251,4.251,0,0,1-.894-2.905V10.434h3.291V17.3a1.183,1.183,0,0,0,1.318,1.357,1.72,1.72,0,0,0,1.611-.811V10.434h3.311V21h-3.086Zm8.818-12.051v2.627h1.738v2.285h-1.738v4.834a1.234,1.234,0,0,0,.215.83,1.152,1.152,0,0,0,.85.234,4.828,4.828,0,0,0,.82-.059v2.354a6.074,6.074,0,0,1-1.855.283,3.448,3.448,0,0,1-2.51-.8,3.282,3.282,0,0,1-.811-2.432V12.719h-1.348V10.434h1.348V7.807ZM296.4,21a3.716,3.716,0,0,1-.312-.947,3.06,3.06,0,0,1-2.539,1.143,3.749,3.749,0,0,1-2.539-.9,2.875,2.875,0,0,1-1.045-2.271,2.955,2.955,0,0,1,1.27-2.6,6.468,6.468,0,0,1,3.691-.879h1.016v-.559q0-1.462-1.26-1.462a1.03,1.03,0,0,0-1.172,1.158h-3.291a2.95,2.95,0,0,1,1.3-2.487,5.479,5.479,0,0,1,3.325-.956,4.8,4.8,0,0,1,3.193.986,3.429,3.429,0,0,1,1.2,2.705v4.678a4.79,4.79,0,0,0,.449,2.227V21Zm-2.061-2.148a1.836,1.836,0,0,0,1.021-.264,1.653,1.653,0,0,0,.581-.6V16.3h-.957q-1.719,0-1.719,1.543a.942.942,0,0,0,.3.728A1.1,1.1,0,0,0,294.336,18.852Zm11.289-3.213a6.455,6.455,0,0,1,1.084-3.955,3.568,3.568,0,0,1,3.027-1.445,3.035,3.035,0,0,1,2.383,1.113V6h3.3V21h-2.959l-.166-1.133a3.116,3.116,0,0,1-2.578,1.328,3.562,3.562,0,0,1-2.988-1.445A6.659,6.659,0,0,1,305.625,15.639Zm3.291.205q0,2.813,1.641,2.813a1.62,1.62,0,0,0,1.563-.918V13.715a1.576,1.576,0,0,0-1.543-.937q-1.523,0-1.65,2.461ZM322.4,21.2a5.432,5.432,0,0,1-3.936-1.45,5.008,5.008,0,0,1-1.5-3.774V15.7a6.489,6.489,0,0,1,.6-2.861,4.395,4.395,0,0,1,1.753-1.919,5.292,5.292,0,0,1,2.734-.679,4.574,4.574,0,0,1,3.516,1.382,5.43,5.43,0,0,1,1.289,3.853v1.279h-6.543a2.372,2.372,0,0,0,.771,1.4,2.3,2.3,0,0,0,1.543.508,2.958,2.958,0,0,0,2.441-1.094l1.5,1.777a4.2,4.2,0,0,1-1.743,1.353A5.891,5.891,0,0,1,322.4,21.2Zm-.371-8.418q-1.445,0-1.719,1.914h3.32v-.254a1.63,1.63,0,0,0-.4-1.226A1.593,1.593,0,0,0,322.031,12.777Zm15.342,4.307,1.67-6.65h3.467L339.063,21H335.7l-3.447-10.566h3.477ZM348.6,21.2a5.432,5.432,0,0,1-3.936-1.45,5.008,5.008,0,0,1-1.5-3.774V15.7a6.489,6.489,0,0,1,.6-2.861,4.395,4.395,0,0,1,1.753-1.919,5.292,5.292,0,0,1,2.734-.679,4.574,4.574,0,0,1,3.516,1.382,5.43,5.43,0,0,1,1.289,3.853v1.279h-6.543a2.372,2.372,0,0,0,.771,1.4,2.3,2.3,0,0,0,1.543.508,2.958,2.958,0,0,0,2.441-1.094l1.5,1.777a4.2,4.2,0,0,1-1.743,1.353A5.891,5.891,0,0,1,348.6,21.2Zm-.371-8.418q-1.445,0-1.719,1.914h3.32v-.254a1.63,1.63,0,0,0-.4-1.226A1.593,1.593,0,0,0,348.232,12.777Zm9.17-2.344.107,1.24a3.583,3.583,0,0,1,3.018-1.436,3.015,3.015,0,0,1,2.466.986,4.7,4.7,0,0,1,.845,2.969V21h-3.3V14.33a1.783,1.783,0,0,0-.322-1.177,1.491,1.491,0,0,0-1.172-.376,1.569,1.569,0,0,0-1.436.762V21h-3.291V10.434Zm12.09-2.627v2.627h1.738v2.285h-1.738v4.834a1.234,1.234,0,0,0,.215.83,1.152,1.152,0,0,0,.85.234,4.828,4.828,0,0,0,.82-.059v2.354a6.074,6.074,0,0,1-1.855.283,3.448,3.448,0,0,1-2.51-.8,3.282,3.282,0,0,1-.811-2.432V12.719h-1.348V10.434H366.2V7.807ZM378.477,21a3.716,3.716,0,0,1-.312-.947,3.06,3.06,0,0,1-2.539,1.143,3.749,3.749,0,0,1-2.539-.9,2.875,2.875,0,0,1-1.045-2.271,2.955,2.955,0,0,1,1.27-2.6A6.468,6.468,0,0,1,377,14.545h1.016v-.559q0-1.462-1.26-1.462a1.03,1.03,0,0,0-1.172,1.158h-3.291a2.95,2.95,0,0,1,1.3-2.487,5.479,5.479,0,0,1,3.325-.956,4.8,4.8,0,0,1,3.193.986,3.429,3.429,0,0,1,1.2,2.705v4.678a4.79,4.79,0,0,0,.449,2.227V21Zm-2.061-2.148a1.836,1.836,0,0,0,1.021-.264,1.653,1.653,0,0,0,.581-.6V16.3h-.957q-1.719,0-1.719,1.543a.942.942,0,0,0,.3.728A1.1,1.1,0,0,0,376.416,18.852Zm12.256-.82a.76.76,0,0,0-.439-.674,6.684,6.684,0,0,0-1.67-.527,7.615,7.615,0,0,1-2.031-.718,3.4,3.4,0,0,1-1.221-1.079,2.577,2.577,0,0,1-.42-1.455,2.92,2.92,0,0,1,1.2-2.4,4.948,4.948,0,0,1,3.145-.942,5.482,5.482,0,0,1,3.359.947,2.962,2.962,0,0,1,1.27,2.49h-3.3q0-1.27-1.338-1.27a1.326,1.326,0,0,0-.869.288.892.892,0,0,0-.352.718.819.819,0,0,0,.43.713,4.06,4.06,0,0,0,1.372.449,11.856,11.856,0,0,1,1.655.42,3.007,3.007,0,0,1,2.383,2.939,2.767,2.767,0,0,1-1.284,2.354,5.631,5.631,0,0,1-3.325.908,5.747,5.747,0,0,1-2.422-.488,4.05,4.05,0,0,1-1.66-1.328,3.007,3.007,0,0,1-.6-1.768h3.076a1.272,1.272,0,0,0,.488,1.069,2.009,2.009,0,0,0,1.2.337,1.58,1.58,0,0,0,1.011-.273A.875.875,0,0,0,388.672,18.031Z" transform="translate(223 6379.581)" fill="#12263f"/><g transform="translate(654.092 6355.107)"><g clip-path="url(#a)"><path d="M7.93,34.385a3.864,3.864,0,0,1,.616-.486Q23.362,23.258,38.18,12.62c1.135-.815,1.4-.785,2.315.3,2.959,3.5,5.925,6.989,8.86,10.506.429.514.673.651,1.283.177q11.2-8.695,22.453-17.314c.525-.4.47-.617.074-1.049-1.006-1.1-1.961-2.239-2.942-3.357A1.137,1.137,0,0,1,69.965.6,1.07,1.07,0,0,1,71.13.005c2.619.184,5.24.351,7.857.57,1.877.157,1.875.189,1.8,2.06q-.265,3.886-.53,7.771a1.161,1.161,0,0,1-.762,1.159,1.066,1.066,0,0,1-1.227-.437c-.847-.965-1.734-1.9-2.515-2.916-.513-.666-.84-.736-1.548-.185Q62.7,16.973,51.145,25.845c-.139.107-.276.215-.417.319-.877.649-1.275.609-2-.246q-3.34-3.94-6.666-7.89c-.81-.959-1.647-1.9-2.417-2.885-.386-.5-.645-.547-1.18-.16Q28.15,22.44,17.8,29.849q-4.051,2.909-8.105,5.812a4.4,4.4,0,0,1-.59.371A1.028,1.028,0,0,1,7.93,34.385m47.777,7.846a4.119,4.119,0,0,1-.035,5.516c-.286.348-.272.5.007.843a4.121,4.121,0,0,1-.037,5.582c-.265.329-.238.468.013.777a4.11,4.11,0,0,1,.008,5.58c-.3.362-.241.516.027.842a4.116,4.116,0,0,1,0,5.517c-.321.388-.275.552.023.907a4.158,4.158,0,0,1,.651,4.586,3.919,3.919,0,0,1-3.814,2.457q-9.588.042-19.175,0a3.953,3.953,0,0,1-3.842-2.419,4.239,4.239,0,0,1,.59-4.6c.14-.179.56-.338.3-.61-.3-.32-.419-.89-.97-.914-.7-.031-1.4-.006-2.1-.007-.55,0-.651.528-.93.826s.16.433.291.611a4.3,4.3,0,0,1,.479,4.621,3.928,3.928,0,0,1-3.8,2.334q-9.544.028-19.088,0a3.97,3.97,0,0,1-3.859-2.39A4.122,4.122,0,0,1,1.02,67.7c.315-.384.274-.547-.012-.906a4.109,4.109,0,0,1,.11-5.444c.289-.345.282-.5,0-.835a3.981,3.981,0,0,1-.648-4.561A4.056,4.056,0,0,1,4.39,53.526c3.823,0,7.647-.011,11.47.008.55,0,.774-.081.867-.72a11.715,11.715,0,0,1,12.49-10.047c.7.054.83-.434,1.131-.754.345-.367-.168-.526-.323-.745a4.261,4.261,0,0,1-.462-4.545,3.866,3.866,0,0,1,3.7-2.335c3.239-.013,6.479,0,9.719,0,3.094,0,6.188.02,9.281-.009a4.026,4.026,0,0,1,4.047,2.353,4.128,4.128,0,0,1-.65,4.727c-.3.346-.182.491.042.775m30.1,30.232a4.025,4.025,0,0,1-3.953,2.386q-9.454.011-18.907,0a3.976,3.976,0,0,1-3.923-2.423,4.161,4.161,0,0,1,.6-4.591c.289-.349.266-.508,0-.843a4.3,4.3,0,0,1,.019-5.544c.242-.306.278-.448.017-.779a4.3,4.3,0,0,1,0-5.612c.262-.331.231-.458-.016-.767a4.309,4.309,0,0,1-.029-5.547c.263-.328.308-.489.019-.846a4.271,4.271,0,0,1,0-5.538c.294-.361.237-.521-.023-.846a4.312,4.312,0,0,1,.031-5.548c.247-.31.277-.437.015-.767a4.3,4.3,0,0,1,0-5.611c.268-.337.228-.477-.019-.778a4.163,4.163,0,0,1-.579-4.667,3.973,3.973,0,0,1,3.96-2.346c3.151.023,6.3.006,9.453.006,3.093,0,6.186.022,9.279-.009a4.036,4.036,0,0,1,4.01,2.273,4.167,4.167,0,0,1-.547,4.743.518.518,0,0,0,0,.8,4.23,4.23,0,0,1-.033,5.6c-.279.352-.178.489.045.769a4.26,4.26,0,0,1,.005,5.541c-.282.361-.237.53.022.862a4.266,4.266,0,0,1-.047,5.542c-.248.318-.251.464,0,.784a4.234,4.234,0,0,1-.024,5.6c-.281.347-.188.484.038.77a4.264,4.264,0,0,1,.014,5.543c-.275.357-.248.526.017.865a4.269,4.269,0,0,1-.044,5.544c-.247.312-.274.46-.008.775a4.137,4.137,0,0,1,.615,4.66" transform="translate(0 0)" fill="#fefefe"/><path d="M56.314,149.217a4.026,4.026,0,0,0-4.047-2.353c-3.093.028-6.187.008-9.281.009-3.239,0-6.479-.008-9.719,0a3.866,3.866,0,0,0-3.7,2.335,4.262,4.262,0,0,0,.462,4.545c.155.218.669.378.323.745-.3.32-.429.808-1.131.754A11.715,11.715,0,0,0,16.726,165.3c-.092.639-.317.723-.867.72-3.823-.02-7.647-.012-11.47-.008a4.055,4.055,0,0,0-3.925,2.429,3.98,3.98,0,0,0,.648,4.561c.286.336.293.49,0,.835a4.109,4.109,0,0,0-.11,5.444c.286.359.327.522.012.906a4.123,4.123,0,0,0-.572,4.592,3.97,3.97,0,0,0,3.859,2.39q9.544.019,19.087,0a3.928,3.928,0,0,0,3.8-2.334,4.294,4.294,0,0,0-.479-4.621c-.131-.179-.567-.315-.291-.611s.38-.827.93-.826c.7,0,1.4-.024,2.1.007.551.024.667.594.97.914.257.272-.163.431-.3.61a4.24,4.24,0,0,0-.59,4.6,3.952,3.952,0,0,0,3.842,2.419q9.587.032,19.175,0a3.919,3.919,0,0,0,3.814-2.457,4.159,4.159,0,0,0-.651-4.586c-.3-.356-.344-.52-.023-.907a4.115,4.115,0,0,0,0-5.517c-.268-.327-.323-.48-.027-.842a4.11,4.11,0,0,0-.008-5.58c-.25-.309-.278-.448-.012-.777a4.121,4.121,0,0,0,.037-5.582c-.279-.34-.293-.5-.007-.843a4.12,4.12,0,0,0,.035-5.516c-.224-.284-.342-.429-.043-.775a4.128,4.128,0,0,0,.65-4.727M4.089,168.129c.516-.044,1.041,0,1.561.011,3.469-.011,6.939-.017,10.408-.04.424,0,.6.1.654.566a9.963,9.963,0,0,0,.879,3.095c.236.5.085.6-.4.593q-5.772-.032-11.545-.042h0c-.492.008-.984.043-1.475.02a2.129,2.129,0,0,1-2.015-2.1,2.152,2.152,0,0,1,1.929-2.1m-.672,6.549a2.981,2.981,0,0,1,1.19-.227q7.025,0,14.05,0c.218,0,.473-.088.64.153a12.886,12.886,0,0,0,5.3,3.584.823.823,0,0,1-.913.478q-9.015-.007-18.03-.028c-.494.01-.988.033-1.482.026a2,2,0,0,1-1.987-1.62,2.163,2.163,0,0,1,1.237-2.364M24.05,184.942h0c-.246.22-.55.157-.834.157q-9.39,0-18.78-.017a2.159,2.159,0,0,1-1.276-4,5.367,5.367,0,0,1,2.488-.181q9.039-.019,18.079-.032a1.789,1.789,0,0,1,1.751,1.629,1.987,1.987,0,0,1-1.427,2.44m3.87-8.246a9.705,9.705,0,1,1,10.14-9.194A9.734,9.734,0,0,1,27.92,176.7m24.571-4.358c-3.588.015-7.176-.008-10.764-.016H38.947a12.982,12.982,0,0,0,1.15-3.788c.051-.4.289-.434.606-.426.752.017,1.5.021,2.256.03,3.18-.008,6.359-.035,9.538-.017a2.1,2.1,0,0,1,2.113,2.116,2.079,2.079,0,0,1-2.12,2.1m2.116,4.253a2.034,2.034,0,0,1-1.642,2.049h0a1.188,1.188,0,0,1-.839.144q-9.221,0-18.442,0a2.334,2.334,0,0,1-1.63-.54,12.24,12.24,0,0,0,5.293-3.554.85.85,0,0,1,.718-.233q7.08,0,14.159-.006a.9.9,0,0,1,.584.131,2.052,2.052,0,0,1,1.8,2.014m-1.622-10.726h0a1.363,1.363,0,0,1-.927.141c-3.7,0-7.394-.014-11.091.008-.555,0-.848-.1-.916-.712A10.22,10.22,0,0,0,39.2,162.3c-.175-.4-.132-.61.35-.609q6.506.007,13.012.014a.714.714,0,0,1,.239.1,2.083,2.083,0,0,1,1.846,2.043,2.049,2.049,0,0,1-1.659,2.024m-.4-6.308c-4.259.014-8.518-.014-12.778-.027-.2.013-.407.011-.607.041a2.754,2.754,0,0,1-2.657-1.036,10.68,10.68,0,0,0-4.329-2.7c.643-.551.681-.558,2.687-.474,5.864-.007,11.729-.024,17.594-.014a2.1,2.1,0,0,1,2.118,2.116,2.054,2.054,0,0,1-2.028,2.1m.535,25.555c-.278.23-.612.154-.925.154q-9.226,0-18.453-.012a2.285,2.285,0,0,1-2.181-1.014A2.106,2.106,0,0,1,31.524,182a2.15,2.15,0,0,1,2.052-1.075q7.652,0,15.3-.015c1.108,0,2.216-.006,3.323,0,.313,0,.646-.075.925.154a2.027,2.027,0,0,1,1.521,2.071,2,2,0,0,1-1.533,1.975m-.289-31.9a1.844,1.844,0,0,1-.262.015L36.121,153.2c-.927.009-1.855.045-2.782.021a2.077,2.077,0,0,1-2.1-2.181A2,2,0,0,1,33.342,149c.927-.013,1.854.013,2.782.022,5.51-.01,11.021-.029,16.531-.02a1.965,1.965,0,0,1,2,2.006,2.118,2.118,0,0,1-1.824,2.21" transform="translate(0 -112.488)" fill="#284268"/><path d="M276.934,138.334a4.27,4.27,0,0,0,.045-5.544c-.264-.339-.292-.508-.017-.865a4.264,4.264,0,0,0-.014-5.543c-.226-.286-.319-.422-.038-.77a4.233,4.233,0,0,0,.024-5.6c-.253-.32-.25-.466,0-.784a4.266,4.266,0,0,0,.047-5.542c-.259-.332-.3-.5-.022-.862a4.26,4.26,0,0,0-.005-5.541c-.223-.28-.323-.417-.045-.769a4.23,4.23,0,0,0,.033-5.6.518.518,0,0,1,0-.8,4.167,4.167,0,0,0,.547-4.743,4.036,4.036,0,0,0-4.01-2.273c-3.092.031-6.186.008-9.278.009-3.151,0-6.3.017-9.454-.006a3.972,3.972,0,0,0-3.96,2.346,4.163,4.163,0,0,0,.579,4.667c.247.3.288.441.019.778a4.3,4.3,0,0,0,0,5.611c.263.33.233.457-.015.767a4.312,4.312,0,0,0-.031,5.548c.26.325.317.485.023.846a4.271,4.271,0,0,0,0,5.538c.289.357.243.518-.019.846a4.31,4.31,0,0,0,.029,5.547c.247.309.278.436.016.767a4.3,4.3,0,0,0,0,5.612c.261.331.225.473-.017.779a4.3,4.3,0,0,0-.019,5.544c.27.334.293.493,0,.843a4.16,4.16,0,0,0-.6,4.591,3.976,3.976,0,0,0,3.922,2.423q9.454.02,18.907,0a4.025,4.025,0,0,0,3.953-2.386,4.137,4.137,0,0,0-.615-4.66c-.266-.316-.24-.464.008-.775M254.663,95.219c.406-.006.812.017,1.219.027,6.01-.009,12.019-.029,18.029-.016a1.955,1.955,0,0,1,1.938,2.139,2,2,0,0,1-2.109,2.076q-6.827.021-13.654.006c-1.4,0-2.8-.02-4.2-.03-.406.009-.813.032-1.219.026a2.114,2.114,0,1,1,0-4.227m.093,6.336q9.392-.016,18.783-.015c.312,0,.647-.078.918.169a2.064,2.064,0,0,1,1.368,2.415,1.907,1.907,0,0,1-1.863,1.658c-6.026.011-12.053-.012-18.08-.024-.378.011-.756.034-1.133.031-1.473-.013-2.234-.715-2.243-2.056a2,2,0,0,1,2.25-2.178m1.128,16.96c-.406.011-.813.034-1.219.029a2.112,2.112,0,1,1,0-4.223c.406,0,.813.018,1.219.027,6.008-.009,12.017-.03,18.025-.017a1.963,1.963,0,0,1,1.938,2.143,1.994,1.994,0,0,1-2.114,2.068q-7,.022-14,.005c-1.283,0-2.565-.022-3.848-.033m-1.152-10.61c6.3-.029,12.595-.018,18.892-.014a.93.93,0,0,1,.269.05.832.832,0,0,1,.229.069,1.934,1.934,0,0,1,1.726,1.948,1.954,1.954,0,0,1-1.528,2.115h0c-.281.226-.615.141-.927.141q-9.271,0-18.542-.006c-1.508,0-2.326-.738-2.345-2.091a1.982,1.982,0,0,1,2.227-2.213m.111,12.745q9.271-.011,18.542-.007a1.344,1.344,0,0,1,.928.145,1.96,1.96,0,0,1,1.535,2.109,1.936,1.936,0,0,1-1.717,1.956h0a1,1,0,0,1-.672.119q-9.271,0-18.543-.01c-1.485,0-2.314-.672-2.4-1.862a2.056,2.056,0,0,1,2.33-2.45m19.447,23.289h0a1.176,1.176,0,0,1-.839.146q-9.31,0-18.621-.018c-1.465,0-2.285-.742-2.324-2.033-.043-1.472.763-2.281,2.333-2.286q7.562-.022,15.124-.021c1.137,0,2.273-.006,3.409,0,.313,0,.646-.076.927.146a2.1,2.1,0,0,1-.009,4.062m-18.408-6.327c-.406.01-.812.033-1.218.028a2.111,2.111,0,1,1,0-4.222c.406,0,.812.017,1.219.026,6.009-.009,12.018-.03,18.028-.017a1.973,1.973,0,0,1,1.934,2.153,1.949,1.949,0,0,1-1.938,2.051c-6.009.01-12.019-.01-18.028-.02m19.936-7.963a2.131,2.131,0,0,1-2.345,1.663q-6.564.007-13.127,0c-1.429,0-2.858-.016-4.287-.024-.552.007-1.106.048-1.656.013a1.969,1.969,0,0,1-1.872-1.649,2.073,2.073,0,0,1,1.189-2.448,2.888,2.888,0,0,1,1.117-.134c.348,0,.7.02,1.045.031,2.654-.016,5.307-.04,7.961-.046,3.267-.008,6.535-.015,9.8.006a2.077,2.077,0,0,1,2.173,2.588" transform="translate(-191.735 -71.306)" fill="#284268"/><path d="M34.011,36.032a4.383,4.383,0,0,0,.59-.371q4.054-2.9,8.105-5.812,10.339-7.425,20.667-14.866c.535-.387.793-.337,1.18.16.77.989,1.607,1.927,2.417,2.885q3.332,3.946,6.666,7.89c.724.855,1.123.894,2,.245.141-.1.278-.213.417-.319q11.538-8.9,23.061-17.816c.708-.551,1.035-.481,1.548.186.781,1.016,1.669,1.95,2.515,2.915a1.066,1.066,0,0,0,1.227.437,1.161,1.161,0,0,0,.762-1.159q.26-3.886.53-7.772c.075-1.871.077-1.9-1.8-2.06C101.278.357,98.657.19,96.038.006A1.07,1.07,0,0,0,94.872.6a1.137,1.137,0,0,0,.258,1.29c.982,1.118,1.936,2.261,2.942,3.357.4.431.45.646-.074,1.049Q86.748,14.919,75.545,23.608c-.61.474-.854.337-1.283-.177-2.936-3.517-5.9-7.008-8.86-10.506-.92-1.088-1.18-1.118-2.315-.3L33.453,33.9a3.865,3.865,0,0,0-.616.486,1.028,1.028,0,0,0,1.174,1.647M98.259,2.3c1.684.1,3.156.216,4.631.257.6.017.743.242.69.789-.14,1.441-.248,2.885-.389,4.571L98.259,2.3" transform="translate(-24.908 -0.001)" fill="#284268"/><path d="M99.233,201.633a9.687,9.687,0,1,0-10.14,9.194,9.708,9.708,0,0,0,10.14-9.194M91.3,207.791c-.491.225-.72.443-.693,1.01a.986.986,0,0,1-1.094,1.168.972.972,0,0,1-.979-1.185.852.852,0,0,0-.626-.958,3.834,3.834,0,0,1-2.405-3.358c0-.833.211-1.3.909-1.365.728-.065,1.03.356,1.166,1.02.327,1.6,1.454,2.337,2.719,1.819a1.928,1.928,0,0,0,1.221-1.934,1.826,1.826,0,0,0-1.332-1.757,3.56,3.56,0,0,0-.856-.153,4.061,4.061,0,0,1-3.751-3.136,4.016,4.016,0,0,1,2.214-4.588c.5-.235.8-.451.754-1.073a.923.923,0,0,1,.977-1.013.955.955,0,0,1,1.072,1.017c-.011.608.241.826.747,1.076a3.885,3.885,0,0,1,2.288,3.464,1.009,1.009,0,0,1-.963,1.216c-.7.055-1.033-.406-1.138-1.07-.207-1.307-.906-1.946-2.059-1.911a1.869,1.869,0,0,0-1.854,1.739,1.93,1.93,0,0,0,1.608,2.154c.373.06.756.071,1.125.147a4.058,4.058,0,0,1,.95,7.671" transform="translate(-61.174 -146.619)" fill="#ecb640"/><path d="M164.434,292.985,147.11,293c-1.22,0-1.613.321-1.763,1.526a3.581,3.581,0,0,0,.122,1.466,1.285,1.285,0,0,0,1.454,1.047c5.833-.029,11.666-.011,17.5-.008h0a2,2,0,0,0,1.533-1.975,2.027,2.027,0,0,0-1.522-2.071" transform="translate(-111.305 -224.408)" fill="#ecb640"/><path d="M39.89,292.163q-9.039,0-18.079.031a3.261,3.261,0,0,0-.705,2.191c.064,1.414.478,1.834,1.872,1.835l17.235.011h0a1.987,1.987,0,0,0,1.427-2.439,1.789,1.789,0,0,0-1.751-1.629" transform="translate(-16.163 -223.778)" fill="#ecb640"/><path d="M168.571,155.984c-5.51-.009-11.021.011-16.531.02a3.479,3.479,0,0,0,0,4.183l16.444.027a1.839,1.839,0,0,0,.262-.015,2.119,2.119,0,0,0,1.824-2.21,1.966,1.966,0,0,0-2-2.006" transform="translate(-115.916 -119.472)" fill="#d7a33d"/><path d="M164.893,183.08c-5.865-.01-11.729.007-17.594.014-.791.967-.789,1,.406,1.366a8.541,8.541,0,0,1,4.5,2.807c4.259.012,8.518.041,12.777.027a2.054,2.054,0,0,0,2.029-2.1,2.1,2.1,0,0,0-2.118-2.116" transform="translate(-112.401 -140.225)" fill="#ecb640"/><path d="M165.184,265.265c-3.875.008-7.749.032-11.624.013a2.785,2.785,0,0,0-2.057.668,11.01,11.01,0,0,1-4.228,2.181c-.187.056-.636-.026-.545.381.073.322.194.706.607.78a4.538,4.538,0,0,0,.785.023l17.219.016h0a2.061,2.061,0,0,0-.157-4.062" transform="translate(-112.376 -203.176)" fill="#d7a33d"/><path d="M21.044,268.17a4.092,4.092,0,0,0,.615,1.237q9.015.017,18.03.029a.823.823,0,0,0,.913-.478,12.886,12.886,0,0,1-5.3-3.584H23.1c-1.781,0-2.541,1.04-2.059,2.8" transform="translate(-16.01 -203.259)" fill="#d7a33d"/><path d="M21.885,241.806h0q5.772.018,11.545.042c.482,0,.633-.1.4-.593a9.969,9.969,0,0,1-.879-3.095c-.056-.467-.231-.569-.654-.566-3.469.023-6.939.029-10.408.04a3.5,3.5,0,0,0,0,4.172" transform="translate(-16.235 -181.982)" fill="#ecb640"/><path d="M189.041,237.661c-3.179-.018-6.359.008-9.538.017a17.262,17.262,0,0,1-1.233,4.184c3.588.008,7.176.031,10.764.016a2.079,2.079,0,0,0,2.12-2.1,2.1,2.1,0,0,0-2.113-2.116" transform="translate(-136.543 -182.028)" fill="#ecb640"/><path d="M189.7,210.663l-10.141.024c-.971,0-.949-.005-.594.851a8.781,8.781,0,0,1,.722,2.321c.072.611.334.874,1.02.867,3.059-.034,6.12,0,9.18.006h0a2.049,2.049,0,0,0,1.659-2.024,2.083,2.083,0,0,0-1.846-2.043" transform="translate(-136.907 -161.354)" fill="#d7a33d"/><path d="M154.412,296.569q-8.308.007-16.616,0c-1.25,0-1.663-.352-1.848-1.58a3.338,3.338,0,0,1,.123-1.555,1.321,1.321,0,0,1,1.384-1.073c5.8.019,11.6.01,17.4.01a.833.833,0,0,1,.425.072c-.278-.229-.612-.151-.925-.154-1.108-.009-2.215,0-3.323,0q-7.652.008-15.3.015a2.15,2.15,0,0,0-2.051,1.075,2.105,2.105,0,0,0,.033,2.242,2.285,2.285,0,0,0,2.182,1.014q9.226,0,18.453.011c.313,0,.647.076.925-.154a1.731,1.731,0,0,1-.859.076" transform="translate(-102.154 -223.87)" fill="#c3943b"/><path d="M146.068,296.769a1.286,1.286,0,0,1-1.454-1.047,3.581,3.581,0,0,1-.123-1.466c.15-1.2.542-1.525,1.763-1.526l17.324-.014a.831.831,0,0,0-.425-.072c-5.8,0-11.6.009-17.4-.01a1.322,1.322,0,0,0-1.384,1.073,3.339,3.339,0,0,0-.123,1.555c.184,1.228.6,1.58,1.848,1.58q8.308,0,16.617,0a1.728,1.728,0,0,0,.859-.077c-5.833,0-11.666-.021-17.5.008" transform="translate(-110.45 -224.138)" fill="#c3943b"/><path d="M138.34,155.994c-.927-.009-1.855-.035-2.782-.022a2,2,0,0,0-2.106,2.046,2.077,2.077,0,0,0,2.1,2.181c.926.025,1.854-.012,2.782-.021a2.8,2.8,0,0,1,0-4.183" transform="translate(-102.216 -119.462)" fill="#c59339"/><path d="M151.266,156.078a2.8,2.8,0,0,0,0,4.183,3.479,3.479,0,0,1,0-4.183" transform="translate(-115.142 -119.546)" fill="#c59339"/><path d="M176.573,214.425c-1.693.018-3.386-.014-5.079.015a.812.812,0,0,1-.945-.685,20.215,20.215,0,0,0-.88-2.749c-.173-.452-.146-.785.5-.782,3.473.019,6.947,0,10.42.016a.5.5,0,0,1,.164.059.717.717,0,0,0-.239-.1q-6.506-.012-13.012-.014c-.482,0-.525.214-.35.609a10.219,10.219,0,0,1,.853,3.006c.068.611.361.715.916.712,3.7-.021,7.394,0,11.091-.008a1.362,1.362,0,0,0,.927-.141c-1.454.139-2.912.042-4.369.058" transform="translate(-127.957 -160.991)" fill="#c4933a"/><path d="M180,214.481c-.686.008-.947-.256-1.02-.867a8.79,8.79,0,0,0-.722-2.321c-.356-.856-.378-.848.594-.851l10.141-.024a.5.5,0,0,0-.164-.059c-3.473-.019-6.947,0-10.42-.016-.648,0-.675.329-.5.782a20.238,20.238,0,0,1,.88,2.749.812.812,0,0,0,.945.685c1.693-.029,3.386,0,5.078-.015,1.456-.016,2.914.081,4.368-.058h0c-3.06-.008-6.12-.04-9.18-.006" transform="translate(-136.197 -161.11)" fill="#c4933a"/><path d="M30.25,296.22q-8.464.005-16.928,0c-1.02,0-1.251-.177-1.534-1.156a2.575,2.575,0,0,1,.832-2.956,5.367,5.367,0,0,0-2.487.181,2.159,2.159,0,0,0,1.276,4q9.39.018,18.78.017c.284,0,.588.063.834-.157a1.564,1.564,0,0,1-.772.072" transform="translate(-6.972 -223.694)" fill="#c3943b"/><path d="M22.106,296.323c-1.395,0-1.809-.421-1.872-1.835a3.26,3.26,0,0,1,.705-2.191,2.576,2.576,0,0,0-.832,2.956c.283.979.514,1.155,1.534,1.155q8.464,0,16.928,0a1.561,1.561,0,0,0,.772-.072l-17.235-.011" transform="translate(-15.291 -223.881)" fill="#c3943b"/><path d="M156.991,268.969q-8.261.006-16.521,0a2.884,2.884,0,0,1-.783-.035.892.892,0,0,1-.625-.767c-.083-.385.2-.531.475-.626a15.174,15.174,0,0,0,4.755-2.535,1.26,1.26,0,0,1,.826-.235c4.138.007,8.275-.008,12.412.011a.517.517,0,0,1,.165.054.9.9,0,0,0-.584-.131q-7.079,0-14.159.006a.851.851,0,0,0-.718.233,12.236,12.236,0,0,1-5.293,3.554,2.334,2.334,0,0,0,1.63.54q9.221,0,18.442,0a1.188,1.188,0,0,0,.839-.144,1.9,1.9,0,0,1-.861.068" transform="translate(-104.888 -202.749)" fill="#c59339"/><path d="M147.528,269.1a4.491,4.491,0,0,1-.785-.023c-.413-.074-.535-.458-.608-.78-.092-.406.358-.324.545-.381a11.006,11.006,0,0,0,4.228-2.181,2.788,2.788,0,0,1,2.057-.668c3.874.019,7.749,0,11.624-.013a.516.516,0,0,0-.165-.054c-4.138-.019-8.275,0-12.412-.011a1.26,1.26,0,0,0-.826.235,15.188,15.188,0,0,1-4.755,2.535c-.271.094-.558.24-.475.626a.893.893,0,0,0,.625.768,2.892,2.892,0,0,0,.782.034q8.261,0,16.521,0a1.9,1.9,0,0,0,.861-.068h0l-17.219-.016" transform="translate(-111.783 -202.962)" fill="#c59339"/><path d="M11.164,268.881c.494.007.988-.016,1.482-.026a2.82,2.82,0,0,1-.453-3.748,1.045,1.045,0,0,1,.845-.375c4.367,0,8.734-.013,13.1.012.052,0,.1.048.155.076-.167-.241-.421-.153-.64-.153q-7.025,0-14.05,0a2.985,2.985,0,0,0-1.19.227,2.163,2.163,0,0,0-1.237,2.364,2,2,0,0,0,1.987,1.62" transform="translate(-6.997 -202.707)" fill="#c59339"/><path d="M21.354,264.99a1.045,1.045,0,0,0-.845.375,2.82,2.82,0,0,0,.453,3.748,4.088,4.088,0,0,1-.615-1.237c-.481-1.757.278-2.8,2.059-2.8h12.2c-.051-.028-.1-.076-.155-.076-4.367-.025-8.734-.008-13.1-.012" transform="translate(-15.312 -202.964)" fill="#c59339"/><path d="M170.41,237.651c-.752-.009-1.5-.013-2.256-.03-.316-.007-.554.026-.606.427a12.983,12.983,0,0,1-1.15,3.788h2.779c-.036-.046-.093-.1-.08-.146a30.682,30.682,0,0,1,1.313-4.038" transform="translate(-127.45 -182.001)" fill="#c59339"/><path d="M179.236,237.752a30.679,30.679,0,0,0-1.313,4.038c-.013.043.044.1.08.146a17.285,17.285,0,0,0,1.233-4.184" transform="translate(-136.276 -182.103)" fill="#c59339"/><path d="M11.247,241.86c.49.023.983-.011,1.475-.02h0a2.8,2.8,0,0,1,0-4.172c-.521-.007-1.045-.055-1.561-.011a2.152,2.152,0,0,0-1.929,2.1,2.129,2.129,0,0,0,2.015,2.1" transform="translate(-7.071 -182.016)" fill="#c59339"/><path d="M21.09,241.935a3.5,3.5,0,0,1,0-4.172,2.8,2.8,0,0,0,0,4.172" transform="translate(-15.44 -182.111)" fill="#c59339"/><path d="M140.472,184.546c-.349-.1-.786-.134-.839-.626s.28-.725.672-.9c-2.006-.084-2.044-.078-2.687.474a10.68,10.68,0,0,1,4.329,2.7,2.753,2.753,0,0,0,2.657,1.036c.2-.03.4-.028.607-.041a3.992,3.992,0,0,1-.721-.48,9.258,9.258,0,0,0-4.018-2.168" transform="translate(-105.407 -140.152)" fill="#c59439"/><path d="M147.286,184.516c-1.2-.364-1.2-.4-.406-1.366-.393.174-.726.4-.672.9s.49.527.839.626a9.256,9.256,0,0,1,4.018,2.168,4,4,0,0,0,.721.48,8.539,8.539,0,0,0-4.5-2.807" transform="translate(-111.981 -140.281)" fill="#c59439"/><path d="M272.075,106.387h0c1.4.011,2.8.029,4.2.03q6.827,0,13.654-.006a2,2,0,0,0,2.109-2.075A1.954,1.954,0,0,0,290.1,102.2c-6.01-.013-12.019.007-18.029.016a3.887,3.887,0,0,0,0,4.174" transform="translate(-207.925 -78.272)" fill="#d7a33d"/><path d="M290.162,269.591a1.949,1.949,0,0,0,1.939-2.051,1.974,1.974,0,0,0-1.934-2.153c-6.009-.013-12.019.008-18.028.017a3.986,3.986,0,0,0,0,4.168c6.009.01,12.018.03,18.028.02" transform="translate(-207.988 -203.266)" fill="#d7a33d"/><path d="M275.987,188.021q7,.006,14-.005a1.994,1.994,0,0,0,2.114-2.068,1.963,1.963,0,0,0-1.938-2.144c-6.008-.012-12.017.008-18.025.018a3.979,3.979,0,0,0,0,4.166h0c1.283.012,2.566.033,3.848.033" transform="translate(-207.99 -140.779)" fill="#ecb640"/><path d="M289.869,238.154c-3.267-.021-6.535-.014-9.8-.006-2.654.006-5.307.03-7.961.046a3.55,3.55,0,0,0,.176,4.188c1.429.008,2.858.023,4.287.024q6.564,0,13.128,0a2.131,2.131,0,0,0,2.344-1.663,2.077,2.077,0,0,0-2.173-2.588" transform="translate(-207.96 -182.401)" fill="#ecb640"/><path d="M351,156.517c.076.023.153.05.229.069a.833.833,0,0,0-.229-.069" transform="translate(-268.846 -119.882)" fill="#d7a33d"/><path d="M271.2,158.894a4.355,4.355,0,0,0,.208,1.018,1.2,1.2,0,0,0,1.323.961c5.856-.031,11.712-.005,17.568,0h0a1.954,1.954,0,0,0,1.528-2.115,1.934,1.934,0,0,0-1.726-1.949l-16.957.019a1.71,1.71,0,0,0-1.945,2.063" transform="translate(-207.72 -120.108)" fill="#d7a33d"/><path d="M271.734,131.26a3.984,3.984,0,0,0,.524,2.679h0c6.026.012,12.053.035,18.08.024a1.907,1.907,0,0,0,1.863-1.658,2.065,2.065,0,0,0-1.368-2.415l-17.638,0c-1.073,0-1.387.292-1.46,1.366" transform="translate(-208.111 -99.487)" fill="#ecb640"/><path d="M271.239,213.64a4.584,4.584,0,0,0,.142.767c.214.635.492,1.062,1.344,1.057,5.8-.039,11.6-.009,17.394,0h0a1.936,1.936,0,0,0,1.717-1.955A1.96,1.96,0,0,0,290.3,211.4l-17.22.021a1.739,1.739,0,0,0-1.843,2.22" transform="translate(-207.724 -161.918)" fill="#d7a33d"/><path d="M290.643,292.953l-17.409.021c-1.107,0-1.426.289-1.532,1.4a5.042,5.042,0,0,0-.025.861c.124,1.606.294,1.757,1.9,1.759l17.059.018h0a2.1,2.1,0,0,0,.009-4.062" transform="translate(-208.08 -224.383)" fill="#ecb640"/><path d="M280.635,296.568q-8.406,0-16.812,0c-1.063,0-1.39-.273-1.589-1.318a4.134,4.134,0,0,1-.05-1.22c.143-1.325.506-1.659,1.821-1.659q8.231,0,16.461,0a2.519,2.519,0,0,1,.953.062c-.281-.222-.614-.144-.927-.146-1.137-.009-2.273,0-3.41,0q-7.562.008-15.124.021c-1.57,0-2.376.815-2.332,2.286.038,1.291.858,2.03,2.324,2.033q9.31.021,18.621.018a1.174,1.174,0,0,0,.839-.146,1.67,1.67,0,0,1-.776.068" transform="translate(-198.857 -223.867)" fill="#c3943b"/><path d="M272.646,296.747c-1.6,0-1.774-.153-1.9-1.759a5.048,5.048,0,0,1,.026-.861c.106-1.113.425-1.4,1.532-1.4l17.409-.021a2.518,2.518,0,0,0-.953-.062q-8.231-.006-16.462,0c-1.315,0-1.679.334-1.821,1.659a4.135,4.135,0,0,0,.05,1.22c.2,1.045.526,1.318,1.589,1.318q8.406,0,16.812,0a1.67,1.67,0,0,0,.776-.068l-17.059-.018" transform="translate(-207.151 -224.133)" fill="#c3943b"/><path d="M351.981,156.812h0Z" transform="translate(-269.595 -120.108)" fill="#c3933a"/><path d="M261.971,160.6q9.271.008,18.543.006c.312,0,.646.085.926-.141a2.256,2.256,0,0,1-.865.059q-8.354.005-16.707,0c-1.1,0-1.376-.218-1.64-1.268a3.26,3.26,0,0,1-.043-1.472c.246-1.2.543-1.457,1.751-1.457q8.222,0,16.445,0a4.052,4.052,0,0,1,.633,0,.929.929,0,0,0-.269-.05c-6.3,0-12.595-.015-18.892.014a1.983,1.983,0,0,0-2.227,2.213c.019,1.353.837,2.089,2.345,2.091" transform="translate(-198.857 -119.701)" fill="#c3933a"/><path d="M288.545,156.468q-8.222-.006-16.445,0c-1.207,0-1.5.254-1.751,1.457a3.26,3.26,0,0,0,.043,1.472c.264,1.05.542,1.268,1.64,1.268q8.354,0,16.707,0a2.256,2.256,0,0,0,.865-.059h0c-5.856-.008-11.713-.034-17.568,0a1.2,1.2,0,0,1-1.323-.961,4.353,4.353,0,0,1-.208-1.018,1.71,1.71,0,0,1,1.945-2.063l16.957-.019c-.076-.019-.153-.046-.229-.069a4.052,4.052,0,0,0-.633,0" transform="translate(-207.021 -119.833)" fill="#c3933a"/><path d="M262.028,215.056q9.271.019,18.542.01a1,1,0,0,0,.672-.119,2.027,2.027,0,0,1-.863.065q-8.223.006-16.446,0c-1.213,0-1.508-.251-1.756-1.451a3.265,3.265,0,0,1,.04-1.472c.263-1.055.539-1.274,1.635-1.274q8.354,0,16.708,0a2.128,2.128,0,0,1,.864.062,1.345,1.345,0,0,0-.927-.145q-9.271,0-18.542.007a2.056,2.056,0,0,0-2.33,2.45c.088,1.19.917,1.858,2.4,1.862" transform="translate(-198.848 -161.401)" fill="#c3933b"/><path d="M288.733,211.089q-8.354-.006-16.708,0c-1.1,0-1.372.219-1.635,1.274a3.264,3.264,0,0,0-.04,1.472c.248,1.2.544,1.451,1.756,1.451q8.223,0,16.446,0a2.023,2.023,0,0,0,.863-.065h0c-5.8-.008-11.6-.038-17.394,0-.852.006-1.13-.422-1.344-1.057a4.584,4.584,0,0,1-.142-.767,1.739,1.739,0,0,1,1.843-2.22l17.22-.021a2.128,2.128,0,0,0-.864-.062" transform="translate(-207.021 -161.67)" fill="#c3933b"/><path d="M261.875,133.38c.378,0,.756-.02,1.133-.031a3.391,3.391,0,0,1-.471-3.691,1.207,1.207,0,0,1,1.16-.436q5.282.005,10.565,0c2.154,0,4.307,0,6.461,0a1.819,1.819,0,0,1,.859.073c-.27-.246-.606-.169-.918-.169q-9.391,0-18.783.015a2,2,0,0,0-2.25,2.178c.009,1.341.771,2.044,2.243,2.056" transform="translate(-198.861 -98.897)" fill="#c59339"/><path d="M289.089,129.53c-2.154-.006-4.307,0-6.461,0q-5.282,0-10.565,0a1.207,1.207,0,0,0-1.16.436,3.392,3.392,0,0,0,.471,3.691h0a3.982,3.982,0,0,1-.525-2.679c.074-1.074.387-1.366,1.46-1.366l17.638,0a1.822,1.822,0,0,0-.859-.073" transform="translate(-207.227 -99.2)" fill="#c59339"/><path d="M262.271,241.28c-.064-1.062-.387-2.207.7-3.012-.348-.011-.7-.031-1.045-.031a2.887,2.887,0,0,0-1.117.134,2.073,2.073,0,0,0-1.189,2.448,1.969,1.969,0,0,0,1.871,1.649c.549.035,1.1-.006,1.656-.013a1.257,1.257,0,0,1-.872-1.176" transform="translate(-198.819 -182.474)" fill="#c59339"/><path d="M271.47,238.369c-1.083.805-.759,1.95-.7,3.012a1.257,1.257,0,0,0,.872,1.176,3.552,3.552,0,0,1-.176-4.188" transform="translate(-207.323 -182.575)" fill="#c59339"/><path d="M263.013,183.8c-.406-.01-.813-.031-1.219-.027a2.112,2.112,0,1,0,0,4.222c.406.005.812-.018,1.219-.029a3.022,3.022,0,0,1,0-4.166" transform="translate(-198.863 -140.758)" fill="#c59339"/><path d="M271.343,183.891a3.022,3.022,0,0,0,0,4.166,3.979,3.979,0,0,1,0-4.166" transform="translate(-207.193 -140.849)" fill="#c59339"/><path d="M263.013,265.384c-.406-.01-.812-.031-1.218-.026a2.112,2.112,0,1,0,0,4.222c.406,0,.812-.018,1.218-.028h0a3.057,3.057,0,0,1,0-4.168" transform="translate(-198.863 -203.247)" fill="#c59339"/><path d="M271.382,265.473a3.057,3.057,0,0,0,0,4.168,3.986,3.986,0,0,1,0-4.168" transform="translate(-207.231 -203.335)" fill="#c59339"/><path d="M261.793,106.388c.406.006.812-.016,1.219-.026h0a3.019,3.019,0,0,1,0-4.174c-.406-.01-.812-.033-1.219-.027a2.114,2.114,0,1,0,0,4.227" transform="translate(-198.862 -78.248)" fill="#c59339"/><path d="M271.324,106.453a3.887,3.887,0,0,1,0-4.174,3.019,3.019,0,0,0,0,4.174" transform="translate(-207.174 -78.339)" fill="#c59339"/><path d="M318.7,10.876c.053-.546-.091-.772-.69-.788-1.474-.041-2.947-.158-4.631-.258l4.933,5.617c.141-1.685.249-3.13.389-4.571" transform="translate(-240.029 -7.529)" fill="#49c060"/><path d="M108.723,202.94c-.37-.075-.752-.086-1.125-.147a1.931,1.931,0,0,1-1.608-2.154,1.869,1.869,0,0,1,1.854-1.739c1.153-.035,1.852.6,2.059,1.911.105.664.437,1.124,1.138,1.07a1.009,1.009,0,0,0,.963-1.216,3.884,3.884,0,0,0-2.288-3.464c-.506-.25-.758-.468-.747-1.076a.955.955,0,0,0-1.073-1.017.923.923,0,0,0-.977,1.013c.046.623-.252.838-.755,1.073a4.016,4.016,0,0,0-2.214,4.588,4.061,4.061,0,0,0,3.751,3.136,3.573,3.573,0,0,1,.856.153,1.827,1.827,0,0,1,1.332,1.757,1.929,1.929,0,0,1-1.221,1.934c-1.265.518-2.392-.22-2.719-1.819-.136-.664-.437-1.085-1.165-1.02-.7.062-.914.533-.909,1.365a3.835,3.835,0,0,0,2.405,3.358.851.851,0,0,1,.626.958.972.972,0,0,0,.979,1.185.986.986,0,0,0,1.094-1.168c-.027-.567.2-.785.693-1.01a4.058,4.058,0,0,0-.95-7.671" transform="translate(-79.545 -149.439)" fill="#284268"/></g></g></g></svg>