<svg xmlns="http://www.w3.org/2000/svg" width="105" height="38" viewBox="0 0 105 38">
  <g id="Grupo_874028" data-name="Grupo 874028" transform="translate(-989 -7611.746)">
    <g id="Grupo_870108" data-name="Grupo 870108" transform="translate(135 5731.308)">
      <rect id="Rectángulo_290791" data-name="Rectángulo 290791" width="105" height="38" transform="translate(854 1880.438)" fill="#fff"/>
      <path id="Trazado_609217" data-name="Trazado 609217" d="M9.719,15.508a3.465,3.465,0,0,1-1.613,1.238,6.517,6.517,0,0,1-2.41.41A4.674,4.674,0,0,1,3.227,16.5a4.346,4.346,0,0,1-1.668-1.855,6.408,6.408,0,0,1-.605-2.789v-.992a5.982,5.982,0,0,1,1.2-3.984A4.179,4.179,0,0,1,5.523,5.469a4.316,4.316,0,0,1,2.867.91A3.965,3.965,0,0,1,9.719,8.961h-1.5A2.48,2.48,0,0,0,5.531,6.7a2.655,2.655,0,0,0-2.285,1.06,5.173,5.173,0,0,0-.785,3.069v.93A4.848,4.848,0,0,0,3.336,14.8,2.836,2.836,0,0,0,5.7,15.93a5.228,5.228,0,0,0,1.477-.187,2.283,2.283,0,0,0,1.047-.631V12.563H5.594V11.336H9.719ZM12.219,17V5.625H15.43a5.169,5.169,0,0,1,2.625.656,4.438,4.438,0,0,1,1.762,1.867,6.078,6.078,0,0,1,.629,2.781v.727a6.1,6.1,0,0,1-.621,2.82,4.369,4.369,0,0,1-1.773,1.859A5.5,5.5,0,0,1,15.367,17Zm1.5-10.148v8.922H15.3A3.434,3.434,0,0,0,18,14.694a4.458,4.458,0,0,0,.965-3.073v-.665a4.529,4.529,0,0,0-.91-3.014,3.239,3.239,0,0,0-2.582-1.091Zm15.273,7.172H24.227L23.156,17H21.609L25.953,5.625h1.313L31.617,17H30.078ZM24.68,12.8h3.867l-1.937-5.32Zm9.977,2.977h5.391V17h-6.9V5.625h1.508Z" transform="translate(901.561 1889.168)" fill="#12263f"/>
      <path id="Icon_awesome-telegram-plane" data-name="Icon awesome-telegram-plane" d="M21.078,6.142l-3.19,15.042c-.241,1.062-.868,1.326-1.76.826l-4.86-3.581L8.923,20.684a1.22,1.22,0,0,1-.977.477l.349-4.95L17.3,8.072c.392-.349-.085-.543-.609-.193L5.559,14.89l-4.794-1.5C-.278,13.064-.3,12.347.982,11.846L19.733,4.622c.868-.326,1.628.193,1.345,1.519Z" transform="translate(868.438 1886.624)" fill="#4a2efc"/>
    </g>
  </g>
</svg>
