<svg xmlns="http://www.w3.org/2000/svg" xmlns:xlink="http://www.w3.org/1999/xlink" width="107.355" height="100.991" viewBox="0 0 107.355 100.991"><defs><clipPath id="a"><rect width="107.355" height="100.991" fill="none"/></clipPath></defs><g transform="translate(0)" clip-path="url(#a)"><path d="M242.92,256.119v-.063a.28.28,0,0,1-.049.015l.049.048" transform="translate(-174.838 -184.33)"/><path d="M.292,83.119a6.773,6.773,0,0,0,6.848,4.8c7.021.011,14.042.025,21.062-.022.95-.006,1.162.251,1.134,1.16-.069,2.238-.026,4.479-.022,6.719.007,3.32,1.866,5.2,5.186,5.2q17.919.012,35.838,0c.978,0,1.957.024,2.934-.009A4.642,4.642,0,0,0,78,96.154c.022-2.344.047-4.69-.015-7.034-.024-.92.171-1.231,1.174-1.224,6.916.05,13.834-.078,20.748.063a7.189,7.189,0,0,0,7.453-7.481c-.079-24.357-.039-48.714-.04-73.071,0-4.578-2.791-7.4-7.354-7.4Q53.644,0,7.327,0C3.687,0,1.481,1.587.233,5.042c-.048.133-.068.267-.233.3V82.621c.278.058.226.319.292.5M74.85,96.04a1.55,1.55,0,0,1-1.708,1.782c-.244.013-.489,0-.733,0H34.92c-2.181,0-2.56-.41-2.417-2.606q-.022-8.287-.045-16.574c0-1.493-.246-1.837-1.606-2.295-.759.238-1.453.551-1.522,1.487-.03.406-.3.4-.588.405-1.812,0-3.623-.012-5.434.009-.5.006-.659-.184-.656-.674q.024-4.293,0-8.585c0-.522.211-.648.685-.643q2.664.027,5.33,0c.5-.006.694.172.658.668-.027.382.024.77-.01,1.151a1.772,1.772,0,0,0,1.539,2.111c1.323-.428,1.6-.8,1.605-2.185,0-4.234,0-8.469,0-12.7,0-1.564.5-2.064,2.069-2.066,3.388-.005,6.776.015,10.164-.016.664-.006.9.149.885.858-.046,2.274-.024,4.549-.014,6.824.007,1.632.508,2.129,2.144,2.132q5.973.01,11.945,0c1.568,0,2.086-.516,2.1-2.076.013-2.309.017-4.619,0-6.928-.005-.536.062-.827.717-.809,1.884.052,3.77.038,5.655.049h0c1.675-.011,3.349-.047,5.024-.026a1.557,1.557,0,0,1,1.71,1.786q.011,19.462,0,38.923m-52.2-52.985c-.006-.6.188-.773.775-.768q4.186.039,8.372,0c.622-.007.751.23.746.795-.023,2.761-.029,5.522,0,8.283.008.65-.187.843-.829.821-1.359-.046-2.721-.014-4.081-.014-1.4,0-2.791-.02-4.186.01-.556.012-.809-.1-.8-.739q.046-4.193,0-8.388m.008,12.986c0-.428.02-.735.594-.728,2.056.025,4.112.01,6.2.01-.252,2.737-.09,5.36-.125,7.978-.025,1.905,0,1.906-1.931,1.906-1.327,0-2.654-.027-3.98.011-.6.017-.77-.2-.765-.782.025-2.8.016-5.6.007-8.395M45.549,34.217c0,1.363-.023,2.727.011,4.089.015.6-.116.867-.8.858-2.791-.037-5.582-.027-8.373-.006-.541,0-.727-.164-.723-.716q.032-4.247,0-8.494c0-.574.23-.7.745-.7,2.791.017,5.582.022,8.373,0,.59-.005.793.179.778.775-.035,1.4-.011,2.8-.011,4.194m-9.122,8.07c1.394.038,2.789.012,4.184.012s2.79.025,4.184-.012c.6-.016.77.2.765.782q-.037,4.192,0,8.385c0,.533-.152.732-.709.727q-4.237-.034-8.474,0c-.554,0-.715-.186-.711-.726q.032-4.192,0-8.385c-.005-.583.158-.8.764-.783m12.255-12.27c-.006-.606.2-.783.788-.769,1.429.033,2.86.011,4.29.011,1.361,0,2.721.022,4.081-.01.575-.014.8.149.793.763q-.041,4.193,0,8.387c.006.606-.206.767-.787.762q-4.185-.037-8.371,0c-.574.005-.8-.14-.793-.756q.041-4.193,0-8.387m0,12.945c0-.491.155-.674.661-.67q4.289.027,8.577,0c.561,0,.71.2.707.733q-.029,4.192,0,8.384c.005.587-.167.795-.77.778-1.394-.039-2.789-.012-4.184-.012s-2.79-.018-4.184.009c-.543.011-.822-.083-.815-.731.031-2.829.021-5.659.006-8.489m9.93,18.353c.006.5-.177.667-.671.665q-4.294-.024-8.588,0c-.507,0-.663-.188-.657-.678.02-1.784.026-3.568,0-5.351-.008-.527.192-.646.673-.637,1.431.025,2.863.009,4.294.009s2.863.019,4.294-.01c.5-.01.666.143.659.652-.026,1.784-.023,3.568,0,5.351M71.65,38.429c0,.536-.149.735-.709.73q-4.238-.035-8.478,0c-.563,0-.714-.208-.705-.734.025-1.433.008-2.866.008-4.3,0-1.363.021-2.727-.011-4.089-.014-.579.156-.8.764-.789q4.186.041,8.373,0c.612-.006.764.218.76.793q-.035,4.194,0,8.389m-9,3.857q4.079.046,8.16,0c.614-.006.855.14.847.808q-.052,4.14,0,8.28c.008.668-.229.815-.845.808-2.72-.028-5.44-.041-8.16.006-.779.014-.922-.282-.9-.971.046-1.326.013-2.655.013-3.982,0-1.363.038-2.727-.016-4.087-.029-.716.242-.871.9-.863m12.84,9.9c-.551,0-.717-.176-.713-.719.021-2.8.033-5.592-.007-8.388-.01-.7.274-.8.864-.787,1.36.033,2.721.011,4.081.011,1.4,0,2.791.025,4.186-.012.6-.016.774.182.768.775q-.04,4.193,0,8.388c0,.53-.132.738-.7.733q-4.238-.037-8.477,0m9.167,21.127c0,1.361-.023,2.723.011,4.084.015.595-.1.887-.789.868-1.706-.047-3.415-.036-5.121,0-.6.011-.776-.188-.771-.779q.038-4.188,0-8.378c-.006-.618.222-.764.792-.754q2.56.044,5.121,0c.594-.011.786.181.77.776-.037,1.4-.012,2.792-.012,4.189m0-39.09c0,1.364-.025,2.728.011,4.091.016.606-.111.865-.8.856q-4.135-.058-8.271,0c-.642.008-.834-.184-.827-.826q.046-4.143,0-8.287c-.009-.68.244-.81.853-.8,2.722.027,5.445.034,8.167,0,.69-.009.905.2.881.884-.048,1.362-.014,2.727-.014,4.091m-.544,21.1c.4,0,.549.16.547.559q-.014,4.407,0,8.815c0,.442-.228.517-.592.516-1.815-.006-3.631-.022-5.446.008-.643.011-.628-.357-.627-.806q.012-3.358,0-6.716a7.347,7.347,0,0,0-.228-2.37c2.164,0,4.254.006,6.343,0M11.8,19.59c-2.585-.01-5.17-.032-7.754.014-.748.013-.928-.219-.921-.941.034-3.884.008-7.769.019-11.653A3.631,3.631,0,0,1,6.94,3.165c.314-.008.629,0,.943,0q44.063,0,88.127,0c.418,0,.835.033,1.253.05,1.186-.01,2.375-.08,3.557-.017a3.5,3.5,0,0,1,3.334,3.421c.051,4.093,0,8.188.032,12.282.005.695-.344.695-.845.692-2.2-.012-4.4,0-6.6,0q-38.245,0-76.491,0c-.313,0-.627-.023-.94-.036a1.824,1.824,0,0,0-1.47,1.629c.494,1.341.817,1.549,2.429,1.549q37.92,0,75.84,0c.452,0,.9.03,1.357.046,2.059-.016,4.119-.024,6.177-.055.407-.006.576.125.534.536a6.127,6.127,0,0,0,0,.63q0,28.293,0,56.587c0,2.924-1.365,4.293-4.291,4.294-6.951,0-13.9-.012-20.852.018-.794,0-1.07-.163-1.05-1.019.054-2.375.011-2.376,2.406-2.376,1.816,0,3.633.006,5.449,0,1.418-.006,1.955-.536,1.959-1.967.01-3.394.028-6.789-.016-10.183-.01-.756.216-.916.933-.907,3.318.04,6.636.022,9.955.02,1.643,0,2.145-.489,2.146-2.1q.005-7.716,0-15.433c0-1.323-.316-1.715-1.595-2.053h0c-1.307.39-1.589.72-1.523,2.2.041.913-.162,1.256-1.168,1.225-2.614-.081-5.231-.047-7.847-.013-.662.008-.9-.15-.892-.86q.061-4.088,0-8.177c-.01-.708.227-.871.891-.863,2.721.033,5.442.027,8.162,0,.587-.005.874.079.86.781-.019.961.648,1.4,1.519,1.576,1.3-.372,1.592-.74,1.593-2.062q.007-7.187,0-14.374c0-1.617-.495-2.1-2.133-2.1l-64.51,0c-.139,0-.279-.007-.418-.011a1.921,1.921,0,0,0-1.222,2.085c.022,3.324-.025,6.649.031,9.973.015.861-.263,1.007-1.046,1-7.614-.028-15.229-.018-22.843-.017-1.689,0-2.165.478-2.165,2.182q0,18.95,0,37.9c0,1.7.467,2.172,2.17,2.173,6.5,0,12.994.017,19.49-.018.865,0,1.216.118,1.176,1.115-.092,2.271-.029,2.274-2.3,2.274q-9.85,0-19.7,0c-2.789,0-4.2-1.405-4.2-4.174q0-28.4-.021-56.8c0-.855.171-1.113,1.064-1.089,2.513.07,5.029.017,7.544.028a1.72,1.72,0,0,0,1.99-1.56c-.282-1.261-.654-1.583-1.918-1.588M97.671,60.348c0,1.4-.017,2.8.009,4.2.009.495-.15.67-.654.667q-4.3-.027-8.591,0c-.523,0-.643-.207-.641-.683.015-2.834.019-5.669,0-8.5,0-.545.159-.723.712-.718q4.243.036,8.486,0c.574-.005.7.209.692.734-.028,1.434-.01,2.869-.01,4.3m0-26.028c0,1.33-.025,2.66.011,3.989.016.6-.1.866-.791.856-2.794-.04-5.588-.029-8.382-.006-.546,0-.723-.161-.719-.713q.034-4.251,0-8.5c-.005-.578.225-.7.741-.693,2.794.018,5.588.023,8.382,0,.591-.005.787.17.771.77-.039,1.434-.012,2.869-.012,4.3M19.515,47.236c0,1.364-.024,2.729.011,4.092.015.595-.091.869-.786.86-2.792-.04-5.585-.028-8.378-.008-.525,0-.735-.122-.729-.7q.039-4.249,0-8.5c-.005-.574.208-.7.731-.7,2.793.019,5.586.032,8.378-.008.7-.01.8.269.785.862-.034,1.363-.011,2.728-.011,4.092m.006,17.281c0,.461-.087.7-.627.7q-4.3-.031-8.591,0c-.6.006-.674-.269-.666-.761.021-1.434.008-2.869.008-4.3,0-1.329.025-2.66-.011-3.989-.016-.6.09-.868.785-.857,2.793.04,5.588.028,8.382.006.534,0,.731.139.726.7-.025,2.834-.018,5.668-.005,8.5M9.634,69.066c0-.543.157-.726.712-.721q4.241.036,8.483,0c.576-.005.7.225.694.742-.017,2.8-.023,5.6,0,8.394.006.593-.175.791-.77.775-1.4-.036-2.793-.011-4.189-.011-1.362,0-2.724-.024-4.084.011-.6.016-.864-.107-.855-.8.039-2.8.028-5.6.006-8.394" transform="translate(0 0)"/><path d="M242.567,268.738c.018.005.035.008.053.015-.009-.015-.015-.029-.025-.044l-.028.028" transform="translate(-174.619 -193.439)"/><path d="M25.875,29.305h0a1.824,1.824,0,0,1,1.47-1.629c.382-.263.815-.136,1.222-.136q37.654-.01,75.307-.006c1.42,0,1.42,0,1.42-1.4l0-14.8h0c-.418-.017-.835-.05-1.253-.05q-44.063,0-88.127,0c-.315,0-.629,0-.943,0a3.631,3.631,0,0,0-3.793,3.844c-.011,3.884.015,7.769-.019,11.653-.006.723.174.955.922.941,2.584-.046,5.169-.024,7.754-.014,1.263,0,1.636.327,1.918,1.588a26.857,26.857,0,0,1,4.117.007M97.529,14.668a4.8,4.8,0,0,1,4.807,4.777,4.891,4.891,0,0,1-4.854,4.875A4.83,4.83,0,0,1,92.7,19.5a4.748,4.748,0,0,1,4.828-4.836M38.566,17.953a4.459,4.459,0,0,1,1.144-.062q21.993,0,43.987,0a4.332,4.332,0,0,1,1.144.067,1.556,1.556,0,0,1-.218,3.059,8.291,8.291,0,0,1-1.046.021H39.8a7.564,7.564,0,0,1-1.046-.023,1.557,1.557,0,0,1-.187-3.062M21.054,19.428a4.806,4.806,0,0,1,4.824-4.76,4.747,4.747,0,0,1,4.812,4.853,4.829,4.829,0,0,1-4.8,4.8,4.892,4.892,0,0,1-4.836-4.892" transform="translate(-8.038 -8.121)" fill="#fc4755"/><path d="M19.758,77.161c-2.515-.011-5.031.042-7.544-.028-.892-.025-1.065.234-1.064,1.089q.04,28.4.021,56.8c0,2.77,1.408,4.173,4.2,4.174q9.85.006,19.7,0c2.271,0,2.208,0,2.3-2.274.04-1-.31-1.12-1.176-1.115-6.5.035-12.993.02-19.49.018-1.7,0-2.17-.468-2.17-2.173q0-18.949,0-37.9c0-1.7.476-2.181,2.165-2.182,7.614,0,15.229-.012,22.843.017.783,0,1.06-.143,1.046-1-.057-3.324-.009-6.649-.031-9.973a1.921,1.921,0,0,1,1.222-2.086c.4-.33.874-.173,1.311-.173q30.52-.013,61.04-.008c1.363,0,1.363,0,1.364-1.352q0-.892,0-1.783c-.452-.016-.9-.046-1.357-.046q-37.92,0-75.84,0c-1.612,0-1.935-.208-2.429-1.549a8.013,8.013,0,0,1-4.117-.008,1.72,1.72,0,0,1-1.99,1.56" transform="translate(-8.027 -54.424)" fill="#e9f8f9"/><path d="M53.1,75.415h0a26.857,26.857,0,0,0-4.117-.007,8.018,8.018,0,0,0,4.117.008" transform="translate(-35.262 -54.23)" fill="#e9f8f9"/><path d="M136.985,237.342a7.966,7.966,0,0,0,4.553-1.215h0a1.846,1.846,0,0,1-.272-.559,40.508,40.508,0,0,1-.015-7.516c.076-.869.924-1.139,1.765-1.146,1.463-.012,2.927-.034,4.391-.052,0-2.779,0-5.557,0-8.336a1.929,1.929,0,0,0-.114-1.07c-.018-.007-.035-.01-.053-.015l-13.992,13.951c-.47.469-.922.957-1.412,1.4a1.491,1.491,0,0,1-2.316.045q-5.762-5.722-11.473-11.5a1.512,1.512,0,0,1,.029-2.249c1.483-1.53,2.983-3.044,4.515-4.523.815-.787,1.586-.72,2.47.152,1.592,1.569,3.212,3.115,4.72,4.762.719.785,1.091.654,1.765-.039,2.946-3.029,5.953-6,8.94-8.99,1.4-1.4,1.948-1.388,3.377.028,1.149,1.137,2.307,2.265,3.461,3.4a.291.291,0,0,0,.049-.015q.018-8.185.035-16.369c-1.885-.012-3.772,0-5.656-.049-.655-.018-.722.272-.717.808.021,2.309.018,4.619,0,6.929-.009,1.559-.528,2.073-2.1,2.076q-5.973.012-11.945,0c-1.636,0-2.137-.5-2.144-2.132-.01-2.275-.032-4.55.014-6.823.014-.709-.22-.864-.884-.858-3.388.031-6.776.011-10.164.016-1.565,0-2.067.5-2.069,2.066q-.007,6.351,0,12.7c0,1.387-.282,1.757-1.605,2.185q0,2.036,0,4.073c1.36.458,1.6.8,1.606,2.294q.024,8.287.045,16.574c8.4,0,16.8.014,25.194-.011" transform="translate(-79.288 -142.133)" fill="#fda85c"/><path d="M184.424,83.933c-.048.367-.323.508-.687.5-.314-.009-.629,0-.943,0q-30.533,0-61.066,0a3.608,3.608,0,0,0-1.246.072c.139,0,.278.011.418.011l64.509,0c1.639,0,2.132.485,2.134,2.1q0,7.187,0,14.374c0,1.322-.3,1.69-1.593,2.062q0,2.065,0,4.13h0c1.279.339,1.594.73,1.6,2.053q.007,7.716,0,15.433c0,1.607-.5,2.1-2.146,2.1-3.318,0-6.637.021-9.954-.02-.717-.009-.943.15-.933.907.044,3.394.026,6.789.016,10.183,0,1.43-.541,1.96-1.959,1.967-1.816.008-3.633,0-5.449,0-2.394,0-2.351,0-2.406,2.376-.02.857.256,1.023,1.051,1.02,6.951-.03,13.9-.016,20.852-.018,2.925,0,4.29-1.37,4.29-4.294q0-28.294,0-56.587a6.21,6.21,0,0,1,0-.63c.043-.411-.126-.542-.534-.536-2.059.031-4.118.039-6.177.055a3.819,3.819,0,0,1,.227,2.744" transform="translate(-86.733 -58.407)" fill="#dbf4f7"/><path d="M182.832,84.467q-30.52,0-61.04.008c-.437,0-.911-.157-1.311.174a3.61,3.61,0,0,1,1.246-.072q30.533-.006,61.066,0c.314,0,.629-.009.943,0,.364.01.639-.131.687-.5a3.82,3.82,0,0,0-.227-2.744q0,.892,0,1.783c0,1.351,0,1.352-1.364,1.352" transform="translate(-86.732 -58.549)" fill="#dbf4f7"/><path d="M156.6,197.509c-1.674-.02-3.349.015-5.024.026a1.237,1.237,0,0,1,.323.962c-.01,4.976.1,9.953-.052,14.926-.075.29-.182.434-.307.481v.063c1.3,1.581,1.291,1.856-.106,3.482.01.014.016.029.025.044a1.183,1.183,0,0,1,.284.162,6.17,6.17,0,0,1,.162,2.166c.013,1.907.01,3.814,0,5.721a2.494,2.494,0,0,1-.215,1.317c-.015.016-.033.027-.048.041.569.017,1.141.014,1.708.063a1.553,1.553,0,0,1,1.593,1.7q.034,3.144,0,6.288a1.483,1.483,0,0,1-1.6,1.656c-2.127.034-4.254.007-6.381.016a2.045,2.045,0,0,1-1.155-.39v.008a1.822,1.822,0,0,1-1.155.832,10.342,10.342,0,0,1-3.684.655q-11.757.01-23.514,0a2.008,2.008,0,0,1-1.49-.332c-.143,2.2.236,2.606,2.417,2.606h37.489c.244,0,.489.009.733,0a1.549,1.549,0,0,0,1.708-1.782q.012-19.462,0-38.923a1.556,1.556,0,0,0-1.71-1.786" transform="translate(-83.462 -142.179)" fill="#fd9638"/><path d="M243.353,213.507c.151-4.973.042-9.95.052-14.926a1.238,1.238,0,0,0-.323-.962l-.035,16.369c.124-.048.231-.19.307-.481" transform="translate(-174.964 -142.262)" fill="#fd9638"/><path d="M242.871,269.937c.008,2.779,0,5.557,0,8.336l.065,0c.016-.015.033-.025.049-.041a2.5,2.5,0,0,0,.215-1.317c.008-1.907.012-3.814,0-5.721a6.172,6.172,0,0,0-.162-2.167,1.193,1.193,0,0,0-.284-.162,1.93,1.93,0,0,1,.114,1.071" transform="translate(-174.756 -193.552)" fill="#fd9638"/><path d="M117.524,337.107q11.757.01,23.514,0a10.342,10.342,0,0,0,3.684-.655,1.822,1.822,0,0,0,1.156-.832v-.008l-.1-.064a7.964,7.964,0,0,1-4.553,1.215c-8.4.025-16.8.011-25.194.011a2.01,2.01,0,0,0,1.49.332" transform="translate(-83.531 -241.555)" fill="#fd9638"/><path d="M147.212,26.2c-.005,1.384-.114,1.467-1.5,1.467q-37.766,0-75.533,0a6.534,6.534,0,0,0-1.254.039c.313.013.627.036.94.036q38.245,0,76.491,0c2.2,0,4.4-.011,6.6,0,.5,0,.85,0,.845-.692-.03-4.094.019-8.189-.032-12.282a3.5,3.5,0,0,0-3.334-3.422c-1.182-.062-2.371.007-3.557.018a2.057,2.057,0,0,1,.332,1.4c.006,4.478.014,8.957,0,13.435" transform="translate(-49.621 -8.148)" fill="#fa2b3a"/><path d="M146.88,26.269c0,1.4,0,1.4-1.421,1.4q-37.654,0-75.307.006c-.407,0-.84-.127-1.222.136a6.511,6.511,0,0,1,1.254-.039q37.766,0,75.533,0c1.382,0,1.491-.083,1.5-1.467.017-4.478.01-8.957,0-13.435a2.059,2.059,0,0,0-.332-1.4h0q0,7.4,0,14.8" transform="translate(-49.621 -8.259)" fill="#fa2b3a"/><path d="M324.813,153.313c-.872-.174-1.538-.615-1.519-1.576.014-.7-.273-.786-.86-.781-2.721.024-5.442.03-8.162,0-.663-.008-.9.155-.891.863q.06,4.088,0,8.177c-.011.71.23.869.892.86,2.615-.033,5.233-.067,7.847.013,1.007.031,1.21-.312,1.169-1.225-.066-1.479.215-1.808,1.523-2.2h0a4.658,4.658,0,0,1,0-4.13" transform="translate(-225.597 -108.668)" fill="#0573cd"/><path d="M352.948,163.508q0-2.065,0-4.129a4.658,4.658,0,0,0,0,4.129" transform="translate(-253.734 -114.733)" fill="#0573cd"/><path d="M174.583,114.322q4.185-.037,8.371,0c.581.005.792-.156.787-.762q-.039-4.193,0-8.387c.006-.614-.218-.776-.793-.763-1.36.032-2.721.01-4.081.01-1.43,0-2.861.022-4.29-.011-.583-.014-.793.162-.788.769q.04,4.193,0,8.387c-.006.616.219.761.793.756" transform="translate(-125.108 -75.162)" fill="#0572cd"/><path d="M174.6,160.859c1.394-.027,2.789-.009,4.184-.009s2.79-.027,4.184.012c.6.017.775-.19.77-.778q-.037-4.191,0-8.384c0-.531-.146-.738-.707-.733q-4.288.034-8.577,0c-.506,0-.663.18-.661.671.015,2.829.025,5.66-.006,8.489-.007.647.273.741.815.731" transform="translate(-125.104 -108.678)" fill="#0572cd"/><path d="M229.6,104.409q-4.186.041-8.373,0c-.608-.006-.777.211-.764.789.033,1.363.01,2.726.011,4.089,0,1.433.017,2.866-.008,4.3-.009.526.142.739.705.734q4.238-.034,8.478,0c.559,0,.712-.194.709-.73q-.03-4.194,0-8.389c0-.575-.148-.8-.759-.793" transform="translate(-158.705 -75.162)" fill="#0573cd"/><path d="M275.944,104.4c-2.722.037-5.444.03-8.167,0-.609-.006-.862.124-.853.8q.055,4.143,0,8.287c-.007.641.185.833.827.826,2.757-.032,5.515-.037,8.271,0,.686.01.813-.25.8-.856-.036-1.363-.012-2.727-.012-4.091s-.034-2.729.015-4.091c.024-.688-.191-.894-.881-.884" transform="translate(-192.154 -75.152)" fill="#0573cd"/><path d="M322.525,104.409c-2.794.026-5.588.021-8.382,0-.517,0-.747.115-.741.694q.038,4.251,0,8.5c0,.551.173.717.719.713,2.794-.023,5.588-.034,8.382.006.691.01.807-.255.791-.856-.036-1.329-.011-2.659-.011-3.989,0-1.435-.026-2.87.012-4.3.016-.6-.18-.775-.771-.77" transform="translate(-225.612 -75.162)" fill="#0573cd"/><path d="M43.494,150.944c-2.792.04-5.585.027-8.378.008-.523,0-.736.122-.731.7q.04,4.249,0,8.5c-.005.573.205.7.729.7,2.793-.02,5.586-.033,8.378.008.7.01.8-.265.786-.86-.035-1.363-.011-2.728-.011-4.092s-.023-2.729.011-4.092c.015-.593-.088-.872-.785-.862" transform="translate(-24.754 -108.662)" fill="#0573cd"/><path d="M81.646,160.854c1.395-.031,2.791-.01,4.186-.01,1.361,0,2.722-.032,4.081.014.641.022.837-.172.829-.821-.033-2.761-.027-5.522,0-8.283,0-.565-.124-.8-.746-.795q-4.185.044-8.372,0c-.587-.006-.781.166-.775.767q.042,4.194,0,8.388c-.007.634.246.751.8.739" transform="translate(-58.198 -108.672)" fill="#0573cd"/><path d="M127.315,160.126c0,.54.157.731.711.726q4.237-.034,8.474,0c.556,0,.712-.194.709-.727q-.029-4.193,0-8.385c.005-.584-.162-.8-.765-.782-1.394.037-2.789.012-4.184.012s-2.791.026-4.184-.012c-.606-.017-.769.2-.764.783q.037,4.192,0,8.385" transform="translate(-91.651 -108.671)" fill="#0573cd"/><path d="M220.455,155.908c0,1.328.033,2.656-.013,3.982-.024.688.119.984.9.971,2.719-.047,5.44-.034,8.16-.006.616.006.854-.141.845-.808q-.052-4.14,0-8.28c.008-.669-.233-.815-.847-.808q-4.08.041-8.16,0c-.657-.007-.927.147-.9.863.054,1.361.016,2.725.016,4.087" transform="translate(-158.689 -108.671)" fill="#0573cd"/><path d="M276.118,160.855c.567.005.7-.2.7-.733q-.031-4.194,0-8.388c.006-.592-.171-.79-.768-.775-1.394.037-2.79.012-4.186.012-1.36,0-2.721.022-4.081-.011-.59-.014-.873.087-.863.787.04,2.8.028,5.592.007,8.388,0,.543.162.724.713.719q4.238-.034,8.477,0" transform="translate(-192.151 -108.672)" fill="#0573cd"/><path d="M136.435,104.411c-2.791.025-5.582.02-8.373,0-.516,0-.75.124-.745.7q.034,4.246,0,8.493c0,.552.181.72.723.716,2.791-.021,5.582-.032,8.373.006.683.009.814-.255.8-.858-.034-1.362-.011-2.726-.011-4.089,0-1.4-.024-2.8.011-4.194.015-.6-.188-.78-.778-.775" transform="translate(-91.653 -75.163)" fill="#0572cd"/><path d="M43.551,197.44c-2.794.022-5.588.034-8.382-.007-.7-.01-.8.261-.785.858.036,1.329.011,2.659.011,3.989,0,1.435.014,2.87-.008,4.3-.007.492.063.767.666.761q4.3-.04,8.591,0c.54,0,.629-.236.627-.7-.013-2.834-.02-5.669,0-8.5.005-.564-.191-.708-.726-.7" transform="translate(-24.751 -142.128)" fill="#0573cd"/><path d="M322.6,197.453q-4.243.039-8.486,0c-.553,0-.716.173-.712.718.022,2.834.018,5.668,0,8.5,0,.476.118.687.641.683q4.3-.03,8.591,0c.5,0,.663-.171.654-.667-.025-1.4-.009-2.8-.009-4.2,0-1.434-.018-2.87.01-4.3.01-.525-.118-.739-.692-.734" transform="translate(-225.614 -142.142)" fill="#0573cd"/><path d="M35.225,253.9c1.361-.035,2.723-.011,4.084-.011,1.4,0,2.794-.025,4.189.011.6.015.776-.183.77-.776-.026-2.8-.021-5.6,0-8.394,0-.517-.118-.747-.694-.742q-4.241.037-8.483,0c-.555,0-.715.178-.711.721.022,2.8.032,5.6-.006,8.394-.01.689.255.811.855.8" transform="translate(-24.742 -175.64)" fill="#0573cd"/><path d="M89.062,247.926a1.772,1.772,0,0,1-1.539-2.111c.033-.381-.018-.769.01-1.151.036-.5-.159-.674-.658-.668q-2.664.032-5.33,0c-.473,0-.688.121-.685.643q.028,4.293,0,8.585c0,.49.153.68.656.674,1.811-.02,3.623-.008,5.434-.009.285,0,.558,0,.588-.405.069-.936.763-1.249,1.522-1.487a4.874,4.874,0,0,1,0-4.073" transform="translate(-58.209 -175.648)" fill="#0572cd"/><path d="M108.994,262.1q0-2.037,0-4.073a4.874,4.874,0,0,0,0,4.073" transform="translate(-78.142 -185.748)" fill="#0572cd"/><path d="M183.105,197.455c-1.431.029-2.863.01-4.294.01s-2.863.016-4.294-.009c-.481-.008-.681.11-.673.638.028,1.783.023,3.568,0,5.351-.005.49.15.681.657.678q4.294-.025,8.588,0c.494,0,.677-.161.671-.664-.021-1.784-.024-3.568,0-5.351.008-.508-.159-.662-.659-.652" transform="translate(-125.147 -142.144)" fill="#fcd9bc"/><path d="M81.615,207.366c1.326-.038,2.653-.011,3.98-.011,1.926,0,1.906,0,1.931-1.906.034-2.618-.127-5.24.124-7.978-2.086,0-4.143.015-6.2-.01-.574-.007-.595.3-.594.728.009,2.8.018,5.6-.007,8.395-.006.587.161.8.765.782" transform="translate(-58.203 -142.149)" fill="#0572cd"/><path d="M277.856,199.856q0,3.358,0,6.716c0,.449-.017.817.627.806,1.815-.03,3.631-.014,5.446-.008.364,0,.594-.074.592-.516q-.015-4.407,0-8.814c0-.4-.143-.56-.548-.558-2.089.01-4.179,0-6.343,0a7.331,7.331,0,0,1,.228,2.37" transform="translate(-199.859 -142.163)" fill="#0572cd"/><path d="M284.314,243.982q-2.56.049-5.121,0c-.57-.01-.8.136-.792.754q.043,4.188,0,8.378c-.006.591.175.79.771.779,1.706-.032,3.415-.043,5.121,0,.694.019.8-.273.789-.868-.034-1.361-.011-2.723-.011-4.084,0-1.4-.025-2.793.012-4.189.016-.594-.176-.787-.77-.775" transform="translate(-200.415 -175.637)" fill="#0572cd"/><path d="M106.086,37.987a7.607,7.607,0,0,0,1.046.022h43.777a8.239,8.239,0,0,0,1.046-.021,1.556,1.556,0,0,0,.218-3.059,4.344,4.344,0,0,0-1.144-.067q-21.993,0-43.987,0a4.459,4.459,0,0,0-1.144.063,1.557,1.557,0,0,0,.187,3.062" transform="translate(-75.371 -25.093)"/><path d="M56.1,28.228a4.746,4.746,0,0,0-4.812-4.853,4.806,4.806,0,0,0-4.824,4.76A4.892,4.892,0,0,0,51.3,33.026a4.828,4.828,0,0,0,4.8-4.8m-6.489-.037a1.672,1.672,0,0,1,1.649-1.666,1.621,1.621,0,0,1,1.7,1.6,1.679,1.679,0,0,1-1.679,1.746,1.73,1.73,0,0,1-1.666-1.677" transform="translate(-33.451 -16.827)"/><path d="M307.02,33.027a4.891,4.891,0,0,0,4.854-4.875,4.8,4.8,0,0,0-4.807-4.777,4.748,4.748,0,0,0-4.828,4.836,4.83,4.83,0,0,0,4.781,4.816m.084-6.5a1.668,1.668,0,0,1,1.624,1.691,1.732,1.732,0,0,1-1.692,1.652,1.678,1.678,0,0,1-1.651-1.771,1.616,1.616,0,0,1,1.719-1.572" transform="translate(-217.576 -16.827)"/><path d="M166.6,245.149c-.8-.73-1.539-1.524-2.31-2.285-.2-.2-.392-.4-.594-.592-1.32-1.262-1.969-1.273-3.273.023-2.925,2.907-5.827,5.836-8.744,8.75-1.059,1.058-1.215,1.056-2.278,0-1.437-1.429-2.857-2.876-4.3-4.3-1.092-1.076-1.766-1.108-2.866-.068q-1.98,1.872-3.851,3.858a1.521,1.521,0,0,0,.061,2.463q5.433,5.464,10.888,10.907c1,.992,1.42.967,2.454-.03,2.212-2.133,4.324-4.366,6.515-6.519,2.561-2.517,5.215-4.939,7.682-7.555.276-.292.575-.95,1.152-.776l.028-.028h0c-.248-.32.034-.523.2-.7a1.415,1.415,0,0,0,.061-2.12.57.57,0,0,1-.154-.661l-.049-.048c-.187.034-.408-.123-.621-.317m-2.666,2.556q-6.4,6.418-12.8,12.844c-.436.44-.68.511-1.156.026q-4.073-4.153-8.22-8.234c-.443-.437-.37-.652.025-1.056,1.829-1.869,1.816-1.882,3.666-.029,1.234,1.236,2.461,2.48,3.706,3.706,1.024,1.008,1.764,1.018,2.782,0,3.144-3.131,6.289-6.262,9.392-9.433.585-.6.946-.625,1.459.016a17.487,17.487,0,0,0,1.247,1.271c.118.12.222.255.349.4-.166.178-.3.334-.451.482" transform="translate(-99.188 -173.725)"/><path d="M165.142,248.967c-2.467,2.616-5.121,5.038-7.682,7.555-2.191,2.154-4.3,4.386-6.515,6.519-1.033,1-1.458,1.021-2.454.029q-5.459-5.438-10.888-10.906a1.521,1.521,0,0,1-.061-2.464q1.871-1.982,3.85-3.858c1.1-1.04,1.775-1.009,2.866.068,1.443,1.423,2.863,2.87,4.3,4.3,1.064,1.058,1.22,1.059,2.278,0,2.917-2.914,5.82-5.844,8.744-8.75,1.3-1.3,1.952-1.285,3.273-.023.2.193.4.4.594.592.771.761,1.51,1.556,2.31,2.285.213.194.434.351.621.317-1.154-1.132-2.313-2.26-3.461-3.4-1.43-1.416-1.982-1.426-3.377-.028-2.986,2.99-5.993,5.96-8.94,8.99-.674.693-1.046.824-1.765.039-1.508-1.647-3.128-3.193-4.72-4.762-.884-.871-1.655-.938-2.47-.152-1.532,1.48-3.033,2.994-4.516,4.523a1.512,1.512,0,0,0-.029,2.249q5.713,5.771,11.473,11.5a1.491,1.491,0,0,0,2.316-.045c.489-.447.941-.935,1.412-1.4l13.992-13.952c-.577-.174-.877.485-1.152.777" transform="translate(-98.347 -172.891)"/><path d="M242.675,256.941a1.415,1.415,0,0,1-.061,2.12c-.164.177-.447.38-.2.7,1.4-1.626,1.405-1.9.106-3.482a.57.57,0,0,0,.154.661" transform="translate(-174.44 -184.491)"/><path d="M226.436,302.833c-.9.022-1.806-.024-2.707.019-1.369.066-1.894.572-1.894,1.94a51.737,51.737,0,0,0,.176,7c2.29.1,4.581.078,6.872.068,1.648-.008,1.939-.3,1.948-1.957q.014-2.454,0-4.909c-.013-1.669-.348-2.027-1.971-2.165a1.521,1.521,0,0,1-1.035-.283,2.04,2.04,0,0,1-1.388.283m1.584,4.627c0,1.637,0,1.637-1.618,1.638-1.745,0-1.745,0-1.745-1.718,0-1.661,0-1.661,1.615-1.66,1.748,0,1.748,0,1.748,1.74" transform="translate(-159.672 -217.8)"/><path d="M220.973,304.718c0-1.368.525-1.875,1.894-1.94.9-.043,1.8,0,2.707-.019a2.041,2.041,0,0,0,1.389-.283c-.011-.01-.022-.018-.033-.029-1.464.017-2.927.039-4.391.051-.841.007-1.689.277-1.765,1.146a40.5,40.5,0,0,0,.015,7.516,1.856,1.856,0,0,0,.272.56h0l.089,0a51.781,51.781,0,0,1-.176-7" transform="translate(-158.811 -217.725)"/><path d="M229.392,302.763c1.623.138,1.959.5,1.971,2.165q.019,2.454,0,4.909c-.01,1.652-.3,1.95-1.949,1.957-2.291.011-4.582.032-6.872-.068,0,.02,0,.041.007.061a2.044,2.044,0,0,0,1.155.39c2.127-.009,4.254.018,6.381-.016a1.483,1.483,0,0,0,1.6-1.656q.034-3.144,0-6.288a1.552,1.552,0,0,0-1.593-1.7c-.567-.049-1.138-.046-1.708-.063l-.033.027a1.521,1.521,0,0,0,1.035.283" transform="translate(-160.205 -217.729)"/><path d="M243.211,302.474l.033-.028-.065,0c.011.011.022.019.033.029" transform="translate(-175.059 -217.724)"/><path d="M222.228,335.549c.032.022.064.043.1.064,0-.02,0-.041-.007-.061l-.089,0" transform="translate(-159.978 -241.555)"/><path d="M61.044,36.214a1.62,1.62,0,0,0-1.7-1.6A1.673,1.673,0,0,0,57.7,36.283a1.73,1.73,0,0,0,1.666,1.677,1.679,1.679,0,0,0,1.679-1.746" transform="translate(-41.536 -24.92)" fill="#b0c8ea"/><path d="M315.116,37.96a1.732,1.732,0,0,0,1.692-1.652,1.668,1.668,0,0,0-1.624-1.691,1.617,1.617,0,0,0-1.719,1.572,1.678,1.678,0,0,0,1.652,1.771" transform="translate(-225.656 -24.919)" fill="#b0c8ea"/><path d="M172.221,255.195c-.513-.642-.874-.614-1.459-.016-3.1,3.171-6.248,6.3-9.392,9.433-1.019,1.014-1.759,1-2.782,0-1.245-1.226-2.471-2.47-3.706-3.706-1.85-1.853-1.837-1.84-3.666.029-.395.4-.468.619-.025,1.056q4.143,4.083,8.22,8.234c.475.485.72.414,1.156-.026q6.383-6.44,12.8-12.844c.147-.147.285-.3.451-.482-.128-.148-.231-.283-.349-.4a17.49,17.49,0,0,1-1.247-1.271" transform="translate(-108.621 -183.369)" fill="#a1e52e"/><path d="M231.988,315.526c0,1.719,0,1.719,1.745,1.718,1.618,0,1.618,0,1.618-1.638,0-1.739,0-1.739-1.748-1.74-1.615,0-1.615,0-1.615,1.66" transform="translate(-167.004 -225.946)" fill="#f4fafa"/></g></svg>