<svg xmlns="http://www.w3.org/2000/svg" xmlns:xlink="http://www.w3.org/1999/xlink" width="21.524" height="22.218" viewBox="0 0 21.524 22.218"><defs><clipPath id="a"><rect width="21.524" height="22.218" fill="#4a2efc"/></clipPath></defs><g clip-path="url(#a)"><path d="M21.274,220.212c-.022-.021-.043-.042-.064-.064-.163-.164-.326-.328-.49-.491q-.686-.682-1.374-1.364a.854.854,0,0,0-.448-.235q-1.321-.253-2.642-.5-1.481-.278-2.963-.551c-.019,0-.039,0-.064-.006-.053.3-.114.6-.161.908l3.2.6a.182.182,0,0,1-.077.031L13.54,219l-2.562.443a.976.976,0,0,1-.348.01c-.324-.06-.65-.113-.975-.169l-1.817-.313L5.7,218.6l-.4-.074s0-.009,0-.014l3.191-.6-.165-.875a1.361,1.361,0,0,0-.231,0c-.522.094-1.044.194-1.565.292l-1.972.37-1.98.374a.6.6,0,0,0-.327.176c-.136.139-.277.274-.415.412L.179,220.315a.532.532,0,0,0-.148.253.317.317,0,0,1-.031.063v.072a.387.387,0,0,1,.031.064.481.481,0,0,0,.366.349c.188.05.38.085.57.127l.755.166c.023.005.046.014.075.023v.116q0,3.042,0,6.085a1.413,1.413,0,0,0,.021.25.348.348,0,0,0,.2.262,1.294,1.294,0,0,0,.236.085q1.365.342,2.731.679c1.522.375,3.042.758,4.556,1.165a4.852,4.852,0,0,0,1.532.174,3.478,3.478,0,0,0,.935-.172,12.994,12.994,0,0,1,1.311-.352c.149-.034.3-.071.446-.107.02,0,.039-.013.067-.022l-.227-.9-2.34.58v-8.024c.025.025.044.041.06.06l1.117,1.307.047.055a.586.586,0,0,0,.607.2q1.067-.235,2.134-.469,1.608-.349,3.218-.694l.37-.079v1.6h.937c0-.3,0-.6,0-.9s0-.6,0-.9l.5-.112c.272-.06.545-.117.817-.18a.884.884,0,0,0,.211-.075.393.393,0,0,0,.222-.308.112.112,0,0,1,.015-.031V220.6a.742.742,0,0,0-.25-.383m-19.838.178c.094-.1.181-.194.272-.284q.456-.455.914-.907a.956.956,0,0,1,.079-.074.3.3,0,0,1,.246-.058l1.2.206,1.71.3,1.7.3,1.595.278.656.113c.02,0,.04.01.069.018-.019.025-.033.047-.05.066q-.634.743-1.268,1.485a.175.175,0,0,1-.194.069q-1.431-.317-2.863-.626l-2.864-.622-1.2-.26m8.844,8.886-7.538-1.883v-5.759c.085.017.164.032.242.049l3.893.843c.518.113,1.037.226,1.554.344a.615.615,0,0,0,.657-.224c.366-.433.736-.863,1.1-1.294l.078-.089c.021.071.029,7.811.009,8.013m9.564-8.827-4.754,1.032c-.621.135-1.243.266-1.863.4a.223.223,0,0,1-.245-.079c-.416-.489-.836-.975-1.255-1.461-.015-.018-.029-.037-.053-.067l.626-.11,1.719-.3,1.7-.3,1.6-.279,1.347-.233a.179.179,0,0,1,.171.053q.608.608,1.218,1.213c.016.016.03.035.054.063-.1.023-.183.044-.269.063" transform="translate(0 -208.856)" fill="#4a2efc"/><path d="M367.5,380.582a.7.7,0,0,0-.256-.04c-.081,0-.162,0-.243-.01a.113.113,0,0,1-.071-.031.3.3,0,0,1-.052-.349.972.972,0,0,1,.11-.141c.029-.034.064-.064.092-.1a.443.443,0,0,0-.021-.645q-.268-.279-.542-.553-.181-.182-.368-.357a.437.437,0,0,0-.624-.019c-.056.045-.1.1-.156.149-.032.031-.065.062-.1.094a.113.113,0,0,1-.116.028.36.36,0,0,1-.269-.342c0-.057,0-.114-.005-.171a.45.45,0,0,0-.439-.449c-.027,0-.054-.006-.081-.006-.207,0-.414-.007-.621-.006s-.385,0-.576.016a.485.485,0,0,0-.5.488,1.6,1.6,0,0,0,0,.188c.007.121,0,.142-.118.191-.044.019-.089.036-.132.057-.1.048-.1.045-.178-.026-.157-.135-.317-.266-.476-.4-.073.04-.137.078-.2.112a.991.991,0,0,0-.254.184c-.265.266-.531.53-.8.8a.724.724,0,0,0-.1.134.4.4,0,0,0-.009.427,1.161,1.161,0,0,0,.135.178c.049.056.107.105.156.162a.138.138,0,0,1,.04.085.3.3,0,0,1-.215.29.905.905,0,0,1-.151.02c-.063.006-.126,0-.188.013a.442.442,0,0,0-.409.429c0,.042-.006.084-.006.126q0,.544,0,1.089a1.342,1.342,0,0,0,.01.162.429.429,0,0,0,.357.388,1.163,1.163,0,0,0,.178.019c.066,0,.132,0,.2,0a.2.2,0,0,1,.1.028.287.287,0,0,1,.066.359,1.938,1.938,0,0,1-.13.16,1.589,1.589,0,0,0-.142.184.4.4,0,0,0,.009.435.752.752,0,0,0,.106.133q.412.416.827.828a.891.891,0,0,0,.169.133.381.381,0,0,0,.4.008,1.287,1.287,0,0,0,.194-.144c.057-.049.107-.1.161-.157a.125.125,0,0,1,.131-.033.313.313,0,0,1,.255.288c.008.074.007.15.013.224a.463.463,0,0,0,.483.456.838.838,0,0,1,.1.013h1.045l.086-.013a1.574,1.574,0,0,0,.186-.026.445.445,0,0,0,.319-.432c.006-.093,0-.186.005-.279a.162.162,0,0,1,.144-.186.35.35,0,0,1,.35.086c.051.046.1.1.153.139a.429.429,0,0,0,.59,0,2.875,2.875,0,0,0,.223-.209q.325-.324.647-.65a1.137,1.137,0,0,0,.142-.174.39.39,0,0,0,0-.456,2.213,2.213,0,0,0-.171-.208.547.547,0,0,0-.058-.056.183.183,0,0,1-.073-.219c.036-.1.084-.188.2-.21.07-.013.143-.013.214-.022a1.246,1.246,0,0,0,.221-.032.392.392,0,0,0,.3-.35.114.114,0,0,1,.014-.032v-1.386a.294.294,0,0,1-.016-.051.4.4,0,0,0-.268-.331m-.657,1.239c-.042.008-.082.017-.123.023a.685.685,0,0,0-.394.2,1.654,1.654,0,0,0-.435.834,1.17,1.17,0,0,0-.027.384.694.694,0,0,0,.141.355c.013.016.023.034.03.044l-.247.258c-.025-.01-.047-.018-.068-.028a1.328,1.328,0,0,0-1.493.248,1,1,0,0,0-.208.323c-.036.082-.071.164-.11.253h-.3a.688.688,0,0,1-.017-.077.716.716,0,0,0-.243-.469,1.677,1.677,0,0,0-1.052-.432.7.7,0,0,0-.5.159.268.268,0,0,1-.026.018l-.25-.247a3.523,3.523,0,0,0,.114-.367,1.3,1.3,0,0,0-.35-1.2.831.831,0,0,0-.268-.179c-.1-.045-.2-.087-.3-.131v-.306a.681.681,0,0,1,.073-.016.743.743,0,0,0,.5-.276,1.684,1.684,0,0,0,.4-1.019.7.7,0,0,0-.146-.489c-.011-.014-.021-.029-.027-.038l.24-.253a3.577,3.577,0,0,0,.366.116,1.3,1.3,0,0,0,1.209-.353.872.872,0,0,0,.189-.293c.04-.09.078-.181.118-.273h.306a.927.927,0,0,1,.021.093.705.705,0,0,0,.253.463,1.66,1.66,0,0,0,1.067.417.7.7,0,0,0,.469-.151c.012-.009.025-.017.037-.025l.01,0,.25.249c-.012.028-.024.054-.036.081a1.314,1.314,0,0,0,.174,1.4.832.832,0,0,0,.32.256l.338.152Z" transform="translate(-346.262 -363.463)" fill="#4a2efc"/><path d="M275.04,1.193c0,.023,0,.046.007.069h.9c0-.043,0-.081,0-.119q0-.571,0-1.143h-.883a.442.442,0,0,0-.017.085q0,.554,0,1.107" transform="translate(-264.719)" fill="#4a2efc"/><path d="M204.407,38.217a3.268,3.268,0,0,0-3.148-.541,3.384,3.384,0,0,0-2.157,3.77,3.3,3.3,0,0,0,.922,1.8c.063.064.13.125.193.189a.877.877,0,0,1,.26.658c0,.228-.007.456,0,.683a1.519,1.519,0,0,0,1.423,1.445c.152.008.306,0,.459,0v0c.114,0,.228,0,.342,0a1.532,1.532,0,0,0,1.539-1.511c.005-.219,0-.438,0-.657a.811.811,0,0,1,.213-.576c.042-.047.087-.091.133-.135a3.722,3.722,0,0,0,.648-.826,3.318,3.318,0,0,0,.383-2.173,3.249,3.249,0,0,0-1.21-2.13m-2.647,6.97c.07-.019.9-.027,1.226-.01a1.431,1.431,0,0,1-1.226.01m1.533-.976h-1.873v-.1h1.873Zm1.437-3.141a2.31,2.31,0,0,1-.28.923,3.08,3.08,0,0,1-.383.554c-.161.186-.326.369-.488.554a.144.144,0,0,1-.114.06c-.2,0-.4,0-.594,0a.349.349,0,0,1-.046-.007,2.235,2.235,0,0,1,0-.365.721.721,0,0,0-.328-.711c-.315-.23-.626-.465-.94-.7a.411.411,0,0,1-.167-.278.242.242,0,0,1,0-.08.084.084,0,0,1,.137-.051.778.778,0,0,1,.067.072,1.014,1.014,0,0,0,.861.346,1.048,1.048,0,0,0,.595-.274.612.612,0,0,1,.2-.124.222.222,0,0,1,.015.034c.047.236.059.214-.125.365-.118.1-.243.186-.365.279-.023.018-.046.037-.075.061l.56.752c.221-.175.439-.34.648-.515a1,1,0,0,0,.346-.682,1.326,1.326,0,0,0-.163-.834.931.931,0,0,0-1.38-.294c-.084.062-.16.136-.239.2l-.114.1c-.035-.028-.068-.053-.1-.08-.079-.069-.153-.145-.236-.208a.938.938,0,0,0-.555-.21.96.96,0,0,0-.945.68,1.531,1.531,0,0,0-.038.739,1.145,1.145,0,0,0,.475.728c.179.131.357.265.536.4.073.053.148.1.222.154a.354.354,0,0,1,.17.393.868.868,0,0,0-.009.094.447.447,0,0,1-.06.008c-.186,0-.372,0-.558,0a.148.148,0,0,1-.124-.055c-.185-.213-.378-.419-.56-.635a2.466,2.466,0,0,1,1.064-3.931,2.374,2.374,0,0,1,2.314.506,2.693,2.693,0,0,1,.644,1.059,2.371,2.371,0,0,1,.128.965" transform="translate(-191.583 -36.081)" fill="#4a2efc"/><rect width="1.251" height="0.903" transform="translate(6.073 4.26)" fill="#4a2efc"/><path d="M379.171,113.33v.894h1.246v-.9c-.1-.018-1.179-.015-1.246,0" transform="translate(-364.943 -109.062)" fill="#4a2efc"/><path d="M191.754,30.61l-.834-.867-.643.588.892.881.585-.6" transform="translate(-183.137 -28.627)" fill="#4a2efc"/><path d="M346.082,29.467l-.577-.63-.85.857.578.61.848-.837" transform="translate(-331.723 -27.755)" fill="#4a2efc"/><path d="M413.791,429.786a2.062,2.062,0,1,0,2.063,2.079,2.069,2.069,0,0,0-2.063-2.079m-.008,3.19a1.128,1.128,0,1,1,1.136-1.131,1.127,1.127,0,0,1-1.136,1.131" transform="translate(-396.276 -413.658)" fill="#4a2efc"/></g></svg>