<svg xmlns="http://www.w3.org/2000/svg" xmlns:xlink="http://www.w3.org/1999/xlink" width="321.932" height="74.86" viewBox="0 0 321.932 74.86"><defs><clipPath id="a"><rect width="74.86" height="74.86" fill="none"/></clipPath></defs><g transform="translate(-180 -3134.234)"><path d="M0,0H284.5l-2.27,52.528L0,52Z" transform="translate(180 3145.399)" fill="#fff0a6"/><path d="M12.578,16.186a5.193,5.193,0,0,1-.8,2.622A4.833,4.833,0,0,1,9.722,20.57,7,7,0,0,1,6.7,21.2a5.584,5.584,0,0,1-4.414-1.826A7.54,7.54,0,0,1,.674,14.213v-.7A8.607,8.607,0,0,1,1.4,9.853,5.513,5.513,0,0,1,3.5,7.431,5.844,5.844,0,0,1,6.66,6.576a6.129,6.129,0,0,1,4.16,1.362,5.383,5.383,0,0,1,1.787,3.755H9.189a2.547,2.547,0,0,0-.654-1.865A2.691,2.691,0,0,0,6.66,9.262a2.048,2.048,0,0,0-1.875.957,6.151,6.151,0,0,0-.625,3.057v1.006a6.806,6.806,0,0,0,.571,3.252A2.091,2.091,0,0,0,6.7,18.51a2.632,2.632,0,0,0,1.807-.557,2.363,2.363,0,0,0,.664-1.768ZM17.52,21h-3.3V6h3.3Zm5.5,0h-3.3V10.434h3.3Zm-3.5-13.291a1.469,1.469,0,0,1,.508-1.152,2.159,2.159,0,0,1,2.637,0,1.469,1.469,0,0,1,.508,1.152,1.469,1.469,0,0,1-.508,1.152,2.159,2.159,0,0,1-2.637,0A1.469,1.469,0,0,1,19.521,7.709ZM30.156,21.2a5.432,5.432,0,0,1-3.936-1.45,5.008,5.008,0,0,1-1.5-3.774V15.7a6.489,6.489,0,0,1,.6-2.861,4.395,4.395,0,0,1,1.753-1.919,5.292,5.292,0,0,1,2.734-.679A4.574,4.574,0,0,1,33.32,11.62a5.43,5.43,0,0,1,1.289,3.853v1.279H28.066a2.372,2.372,0,0,0,.771,1.4,2.3,2.3,0,0,0,1.543.508,2.958,2.958,0,0,0,2.441-1.094l1.5,1.777a4.2,4.2,0,0,1-1.743,1.353A5.891,5.891,0,0,1,30.156,21.2Zm-.371-8.418q-1.445,0-1.719,1.914h3.32v-.254a1.63,1.63,0,0,0-.4-1.226A1.593,1.593,0,0,0,29.785,12.777Zm9.17-2.344.107,1.24a3.583,3.583,0,0,1,3.018-1.436,3.015,3.015,0,0,1,2.466.986,4.7,4.7,0,0,1,.845,2.969V21h-3.3V14.33a1.783,1.783,0,0,0-.322-1.177,1.491,1.491,0,0,0-1.172-.376,1.569,1.569,0,0,0-1.436.762V21H35.869V10.434Zm12.09-2.627v2.627h1.738v2.285H51.045v4.834a1.234,1.234,0,0,0,.215.83,1.152,1.152,0,0,0,.85.234,4.828,4.828,0,0,0,.82-.059v2.354a6.074,6.074,0,0,1-1.855.283,3.448,3.448,0,0,1-2.51-.8,3.282,3.282,0,0,1-.811-2.432V12.719H46.406V10.434h1.348V7.807ZM59.189,21.2a5.432,5.432,0,0,1-3.936-1.45,5.008,5.008,0,0,1-1.5-3.774V15.7a6.489,6.489,0,0,1,.6-2.861A4.395,4.395,0,0,1,56.1,10.917a5.292,5.292,0,0,1,2.734-.679,4.574,4.574,0,0,1,3.516,1.382,5.43,5.43,0,0,1,1.289,3.853v1.279H57.1a2.372,2.372,0,0,0,.771,1.4,2.3,2.3,0,0,0,1.543.508,2.958,2.958,0,0,0,2.441-1.094l1.5,1.777a4.2,4.2,0,0,1-1.743,1.353A5.891,5.891,0,0,1,59.189,21.2Zm-.371-8.418q-1.445,0-1.719,1.914h3.32v-.254a1.63,1.63,0,0,0-.4-1.226A1.593,1.593,0,0,0,58.818,12.777ZM70.5,18.031a.76.76,0,0,0-.439-.674,6.684,6.684,0,0,0-1.67-.527,7.615,7.615,0,0,1-2.031-.718,3.4,3.4,0,0,1-1.221-1.079,2.577,2.577,0,0,1-.42-1.455,2.92,2.92,0,0,1,1.2-2.4,4.948,4.948,0,0,1,3.145-.942,5.482,5.482,0,0,1,3.359.947,2.962,2.962,0,0,1,1.27,2.49h-3.3q0-1.27-1.338-1.27a1.326,1.326,0,0,0-.869.288.892.892,0,0,0-.352.718.819.819,0,0,0,.43.713,4.06,4.06,0,0,0,1.372.449,11.857,11.857,0,0,1,1.655.42,3.007,3.007,0,0,1,2.383,2.939,2.767,2.767,0,0,1-1.284,2.354,5.631,5.631,0,0,1-3.325.908,5.747,5.747,0,0,1-2.422-.488,4.05,4.05,0,0,1-1.66-1.328,3.007,3.007,0,0,1-.6-1.768h3.076a1.272,1.272,0,0,0,.488,1.069,2.009,2.009,0,0,0,1.2.337,1.58,1.58,0,0,0,1.011-.273A.875.875,0,0,0,70.5,18.031Zm12.8-7.6.107,1.24a3.633,3.633,0,0,1,3.018-1.436,2.675,2.675,0,0,1,2.705,1.592,3.517,3.517,0,0,1,3.105-1.592q3.213,0,3.3,3.887V21h-3.3V14.33a2.014,2.014,0,0,0-.273-1.182,1.164,1.164,0,0,0-1-.371,1.559,1.559,0,0,0-1.455.869l.01.137V21h-3.3V14.35a2.117,2.117,0,0,0-.264-1.2,1.161,1.161,0,0,0-1.006-.371,1.578,1.578,0,0,0-1.445.869V21H80.215V10.434ZM103.369,21a3.716,3.716,0,0,1-.312-.947,3.06,3.06,0,0,1-2.539,1.143,3.749,3.749,0,0,1-2.539-.9,2.875,2.875,0,0,1-1.045-2.271,2.955,2.955,0,0,1,1.27-2.6,6.468,6.468,0,0,1,3.691-.879h1.016v-.559q0-1.462-1.26-1.462a1.03,1.03,0,0,0-1.172,1.158H97.188a2.95,2.95,0,0,1,1.3-2.487,5.479,5.479,0,0,1,3.325-.956,4.8,4.8,0,0,1,3.193.986,3.429,3.429,0,0,1,1.2,2.705v4.678a4.79,4.79,0,0,0,.449,2.227V21Zm-2.061-2.148a1.836,1.836,0,0,0,1.021-.264,1.653,1.653,0,0,0,.581-.6V16.3h-.957q-1.719,0-1.719,1.543a.942.942,0,0,0,.3.728A1.1,1.1,0,0,0,101.309,18.852Zm10.947-2.461,1.758-5.957h3.525l-4.307,12.334-.186.449a3.272,3.272,0,0,1-3.242,2.051,5.158,5.158,0,0,1-1.357-.195V22.729h.43a2.251,2.251,0,0,0,1.06-.2,1.216,1.216,0,0,0,.542-.718l.264-.7L107.07,10.434h3.516Zm5.723-.771a6.236,6.236,0,0,1,.615-2.817,4.4,4.4,0,0,1,1.768-1.9,5.323,5.323,0,0,1,2.705-.664,4.858,4.858,0,0,1,3.74,1.47,5.64,5.64,0,0,1,1.367,4v.117a5.472,5.472,0,0,1-1.372,3.921,4.871,4.871,0,0,1-3.716,1.45,4.927,4.927,0,0,1-3.623-1.353,5.29,5.29,0,0,1-1.475-3.667Zm3.291.205a3.932,3.932,0,0,0,.459,2.148,1.529,1.529,0,0,0,1.357.684q1.758,0,1.8-2.705v-.332q0-2.842-1.816-2.842-1.65,0-1.787,2.451Zm14.746-2.412-1.084-.078a1.947,1.947,0,0,0-1.992.977V21h-3.291V10.434h3.086l.107,1.357a2.548,2.548,0,0,1,2.314-1.553,3.209,3.209,0,0,1,.918.117ZM140.674,21h-3.3V10.434h3.3Zm-3.5-13.291a1.469,1.469,0,0,1,.508-1.152,2.159,2.159,0,0,1,2.637,0,1.469,1.469,0,0,1,.508,1.152,1.469,1.469,0,0,1-.508,1.152,2.159,2.159,0,0,1-2.637,0A1.469,1.469,0,0,1,137.178,7.709Zm11.055,10.322a.76.76,0,0,0-.439-.674,6.684,6.684,0,0,0-1.67-.527,7.615,7.615,0,0,1-2.031-.718,3.4,3.4,0,0,1-1.221-1.079,2.577,2.577,0,0,1-.42-1.455,2.92,2.92,0,0,1,1.2-2.4,4.948,4.948,0,0,1,3.145-.942,5.482,5.482,0,0,1,3.359.947,2.962,2.962,0,0,1,1.27,2.49h-3.3q0-1.27-1.338-1.27a1.326,1.326,0,0,0-.869.288.892.892,0,0,0-.352.718.819.819,0,0,0,.43.713,4.06,4.06,0,0,0,1.372.449,11.857,11.857,0,0,1,1.655.42,3.007,3.007,0,0,1,2.383,2.939,2.767,2.767,0,0,1-1.284,2.354,5.632,5.632,0,0,1-3.325.908,5.747,5.747,0,0,1-2.422-.488,4.05,4.05,0,0,1-1.66-1.328,3.007,3.007,0,0,1-.6-1.768H145.2a1.272,1.272,0,0,0,.488,1.069,2.009,2.009,0,0,0,1.2.337,1.58,1.58,0,0,0,1.011-.273A.875.875,0,0,0,148.232,18.031Zm8.545-10.225v2.627h1.738v2.285h-1.738v4.834a1.234,1.234,0,0,0,.215.83,1.152,1.152,0,0,0,.85.234,4.828,4.828,0,0,0,.82-.059v2.354a6.074,6.074,0,0,1-1.855.283,3.448,3.448,0,0,1-2.51-.8,3.282,3.282,0,0,1-.811-2.432V12.719h-1.348V10.434h1.348V7.807ZM165.762,21a3.716,3.716,0,0,1-.312-.947A3.06,3.06,0,0,1,162.91,21.2a3.749,3.749,0,0,1-2.539-.9,2.875,2.875,0,0,1-1.045-2.271,2.955,2.955,0,0,1,1.27-2.6,6.468,6.468,0,0,1,3.691-.879H165.3v-.559q0-1.462-1.26-1.462a1.03,1.03,0,0,0-1.172,1.158H159.58a2.95,2.95,0,0,1,1.3-2.487,5.479,5.479,0,0,1,3.325-.956,4.8,4.8,0,0,1,3.193.986,3.429,3.429,0,0,1,1.2,2.705v4.678a4.79,4.79,0,0,0,.449,2.227V21ZM163.7,18.852a1.836,1.836,0,0,0,1.021-.264,1.653,1.653,0,0,0,.581-.6V16.3h-.957q-1.719,0-1.719,1.543a.942.942,0,0,0,.3.728A1.1,1.1,0,0,0,163.7,18.852Zm12.256-.82a.76.76,0,0,0-.439-.674,6.684,6.684,0,0,0-1.67-.527,7.615,7.615,0,0,1-2.031-.718,3.4,3.4,0,0,1-1.221-1.079,2.577,2.577,0,0,1-.42-1.455,2.92,2.92,0,0,1,1.2-2.4,4.948,4.948,0,0,1,3.145-.942,5.482,5.482,0,0,1,3.359.947,2.962,2.962,0,0,1,1.27,2.49h-3.3q0-1.27-1.338-1.27a1.326,1.326,0,0,0-.869.288.892.892,0,0,0-.352.718.819.819,0,0,0,.43.713,4.06,4.06,0,0,0,1.372.449,11.857,11.857,0,0,1,1.655.42,3.007,3.007,0,0,1,2.383,2.939,2.767,2.767,0,0,1-1.284,2.354,5.632,5.632,0,0,1-3.325.908,5.747,5.747,0,0,1-2.422-.488,4.05,4.05,0,0,1-1.66-1.328,3.007,3.007,0,0,1-.6-1.768h3.076a1.272,1.272,0,0,0,.488,1.069,2.009,2.009,0,0,0,1.2.337,1.58,1.58,0,0,0,1.011-.273A.875.875,0,0,0,175.957,18.031Z" transform="translate(223 3158.399)" fill="#12263f"/><g transform="translate(427.072 3134.234)"><g clip-path="url(#a)"><path d="M62.867,70.369c.041-1.314.019-2.631,0-3.946,0-.367.05-.559.486-.617a4.4,4.4,0,0,0,4.014-4.576c.01-1.521.237-3.073-.373-4.549a.351.351,0,0,1-.01-.279c.642-.9.379-1.933.387-2.91q.041-5.444,0-10.889c0-.538.116-.7.673-.683,1.631.042,3.264.021,4.9.013,1.35-.007,1.915-.569,1.916-1.9q.005-5.591,0-11.182c0-1.338-.563-1.9-1.909-1.91-1.632-.009-3.265-.027-4.9.012-.544.013-.682-.125-.68-.675q.031-11.328.013-22.656C67.385,1.137,66.251,0,63.777,0H11.085C8.608,0,7.474,1.136,7.473,3.616q0,11.291.015,22.583c0,.606-.138.773-.751.754-1.558-.049-3.118.005-4.676-.024A1.949,1.949,0,0,0,0,28.074v12.72a1.943,1.943,0,0,0,2.058,1.149c1.608-.03,3.217.01,4.824-.02.478-.009.6.124.6.6-.019,4.069-.01,8.139-.012,12.208a2.383,2.383,0,0,0,.333,1.536c.163.216.035.4-.019.616a11.682,11.682,0,0,0-.052,5.774,4.063,4.063,0,0,0,3.7,3.14c.432.057.57.19.559.626-.029,1.193-.013,2.388-.009,3.582a4.5,4.5,0,0,0,3.239,4.661c.107.04.247.038.277.191h7.749a6.063,6.063,0,0,0,2.47-1.415,4.649,4.649,0,0,0,1.22-3.262c-.013-1.242.016-2.484-.012-3.726-.01-.443.118-.582.571-.581q9.935.019,19.87,0c.46,0,.573.152.564.587q-.038,1.9,0,3.8a4.424,4.424,0,0,0,3.182,4.393c.127.045.3.024.354.205h7.749c.271-.264.659-.233.977-.389a4.439,4.439,0,0,0,2.676-4.1m5.041-40.42q1.717.04,3.435,0c.419-.009.541.13.539.542q-.023,3.947,0,7.894c0,.416-.129.548-.543.54-1.145-.023-2.29-.026-3.435,0-.426.01-.533-.14-.526-.544.022-1.339.008-2.68.008-4.02,0-1.292.015-2.583-.008-3.874-.007-.41.11-.548.531-.538M7.481,38.388c0,.413-.117.546-.533.537q-1.717-.037-3.435,0c-.424.009-.542-.14-.536-.547.02-1.316.008-2.631.007-3.947,0-1.291.02-2.583-.01-3.874-.011-.484.143-.625.622-.61,1.1.034,2.193.025,3.288,0,.41-.008.6.054.6.544-.025,2.631-.02,5.262,0,7.894m55.355,7.03c-.062-1.229.582-1.643,1.527-2.114v2.754c0,2.411-.023,4.821.016,7.231.01.638-.3.638-.756.628-.431-.01-.773.046-.763-.613.04-2.629.108-5.264-.024-7.887M11.329,2.971q26.093.027,52.187,0c.734,0,.863.218.862.9-.021,11.476-.037,22.951.017,34.426a2,2,0,0,1-1.519,2.22c0-.344,0-.629,0-.914,0-6.724.012-13.449-.01-20.173a7.5,7.5,0,0,0-5.715-7.23,6.839,6.839,0,0,0-1.661-.21q-18.054.006-36.107.011a7.447,7.447,0,0,0-7.389,7.415c-.028,6.724-.01,13.449-.012,20.173v.877c-1.213-.377-1.487-.729-1.487-1.863q0-17.4-.016-34.792c0-.683.191-.836.85-.835M59.9,50.889c0,.827-.016,1.655.006,2.481.011.413-.142.563-.551.549q-.984-.034-1.97,0c-.373.012-.518-.109-.51-.5.021-1,.013-1.995,0-2.992a.812.812,0,0,1,.257-.647c.543-.523,1.085-1.049,1.6-1.6a.885.885,0,0,1,.937-.228c.413.1.212.49.222.746.028.729.01,1.459.01,2.189m-5.98,2.3c.024.592-.174.73-.741.728q-10.6-.027-21.195-.012c-3.435,0-6.87-.012-10.3.012-.56,0-.771-.125-.746-.725.049-1.143,0-2.29.021-3.434a2.133,2.133,0,0,0-.7-1.689c-.705-.672-1.422-1.34-2.061-2.072a2.8,2.8,0,0,0-2.628-1.1c-.487.067-.615-.132-.614-.607.013-8.186-.008-16.371.019-24.557.01-2.953,1.915-4.77,4.916-4.776,5.847-.012,11.694,0,17.54,0q8.734,0,17.467,0a4.645,4.645,0,0,1,4.544,2.583,5.064,5.064,0,0,1,.455,2.343q.008,12.169.015,24.337c0,.54-.127.763-.687.686a2.692,2.692,0,0,0-2.5,1.04c-.676.765-1.428,1.465-2.163,2.177a2.019,2.019,0,0,0-.652,1.561c.018,1.169-.028,2.34.018,3.508M14.959,51.546c-.018-.217,0-.438,0-.657,0-.778-.007-1.557,0-2.336,0-.2-.109-.491.159-.58a.811.811,0,0,1,.833.07c.652.619,1.278,1.266,1.914,1.9.137.137.106.316.107.483,0,1-.013,2,.008,2.992.008.389-.137.519-.51.5-.8-.051-1.8.318-2.338-.138s-.112-1.468-.175-2.233M10.5,43.58a1.416,1.416,0,0,1,.055-.251l.2.086a1.992,1.992,0,0,1,1.259,2.217c-.1,2.577-.053,5.161-.019,7.741.009.663-.385.534-.755.536s-.763.11-.758-.541c.028-3.263.014-6.525.017-9.788M23.99,66.649c-.047,1.07-.01,2.143-.014,3.215,0,1.338-.379,1.9-1.683,1.993a41.649,41.649,0,0,1-5.833-.008,1.6,1.6,0,0,1-1.514-1.65c-.048-1.265-.008-2.533-.021-3.8-.005-.478.3-.473.634-.472,1.315,0,2.631,0,3.946,0,1.242,0,2.485.023,3.727-.01.556-.015.784.128.758.731m13.448-3.776H12.524c-1.536,0-2.01-.468-2.014-1.985,0-.8-.014-1.608.006-2.411a1.489,1.489,0,0,1,1.4-1.577,5.139,5.139,0,0,1,.729-.02H62.186c1.7,0,2.162.462,2.163,2.165,0,.755.011,1.51-.006,2.265a1.471,1.471,0,0,1-1.553,1.56c-.219.009-.438,0-.658,0H37.438M59.93,69.889c-.015,1.267-.487,1.922-1.727,1.981a34.027,34.027,0,0,1-5.9-.064,1.419,1.419,0,0,1-1.4-1.56c-.041-1.266,0-2.533-.019-3.8-.007-.443.21-.525.586-.522,1.315.011,2.631,0,3.946,0,1.267,0,2.534.029,3.8-.013.6-.02.754.2.735.759-.037,1.071,0,2.143-.013,3.215" transform="translate(0 -0.001)" fill="#0b1a22"/><path d="M55.975,51.475c0,1.135.274,1.487,1.487,1.864v-.877c0-6.724-.016-13.449.012-20.174a7.447,7.447,0,0,1,7.389-7.415q18.054-.034,36.107-.011a6.821,6.821,0,0,1,1.661.21,7.5,7.5,0,0,1,5.715,7.23c.023,6.724.009,13.449.01,20.173,0,.285,0,.57,0,.914a2,2,0,0,0,1.519-2.22c-.054-11.475-.039-22.951-.017-34.426,0-.68-.128-.9-.862-.9q-26.094.034-52.187,0c-.658,0-.851.152-.85.835q.034,17.4.016,34.792" transform="translate(-45.48 -12.877)" fill="#b0b8c0"/><path d="M121.609,110.867a2.691,2.691,0,0,1,2.5-1.04c.559.076.688-.146.687-.686q-.026-12.169-.015-24.338a5.064,5.064,0,0,0-.456-2.343,4.644,4.644,0,0,0-4.544-2.583q-8.734.014-17.467,0c-5.847,0-11.693-.009-17.54,0-3,.006-4.906,1.823-4.916,4.776-.028,8.185-.006,16.371-.019,24.557,0,.475.128.674.614.607a2.8,2.8,0,0,1,2.628,1.1c.639.732,1.355,1.4,2.061,2.072a2.134,2.134,0,0,1,.7,1.689c-.025,1.144.028,2.291-.021,3.434-.025.6.185.728.746.725,3.435-.023,6.87-.012,10.3-.012q10.6,0,21.195.012c.567,0,.765-.137.741-.728-.046-1.168,0-2.339-.018-3.508a2.018,2.018,0,0,1,.652-1.561c.735-.712,1.487-1.411,2.163-2.177m-7.167,6.4c-.6.054-1.215.038-1.823.039q-5.149,0-10.3,0-5.66,0-11.32,0a6.287,6.287,0,0,1-.873-.043,1.427,1.427,0,0,1-1.252-1.313,1.445,1.445,0,0,1,1.074-1.541,3.838,3.838,0,0,1,.94-.077q11.43-.006,22.86,0a4.916,4.916,0,0,1,.728.026,1.473,1.473,0,0,1,1.292,1.519,1.408,1.408,0,0,1-1.327,1.393m-.793-4.426H91.076c-.219,0-.44.012-.657-.009a1.505,1.505,0,1,1,.024-3.008c.169-.014.341-.005.511-.005h22.719c1.366,0,2.083.51,2.1,1.487.018,1.007-.711,1.535-2.125,1.535m2.225-6.318a4.011,4.011,0,0,1-1.628.331q-11.914-.008-23.828,0a4.159,4.159,0,0,1-1.7-.352c-2.028-.884-4.054-1.772-6.1-2.619a1.831,1.831,0,0,1-1.265-1.9c.022-5.287,0-10.574.015-15.861a2.944,2.944,0,0,1,3.282-3.232q8.844-.005,17.688,0,8.771,0,17.542,0c2.241,0,3.378,1.121,3.381,3.355.007,5.214-.017,10.428.018,15.642a1.96,1.96,0,0,1-1.379,2.053c-2.023.831-4.026,1.714-6.033,2.583" transform="translate(-64.89 -64.92)" fill="#faad04"/><path d="M108.38,309.718a1.471,1.471,0,0,0,1.553-1.56c.017-.755.006-1.51.006-2.265,0-1.7-.462-2.165-2.163-2.165H58.241a5.169,5.169,0,0,0-.729.02,1.489,1.489,0,0,0-1.4,1.577c-.02.8-.008,1.607-.006,2.411,0,1.517.478,1.985,2.013,1.985h49.609c.219,0,.439.006.658,0m-30.142-1.47c-.9.016-1.8,0-2.7,0-.925,0-1.851.028-2.775-.007-1.4-.054-2.1-1.172-1.466-2.284a1.589,1.589,0,0,1,1.5-.735c1.85-.033,3.7-.046,5.55,0a1.46,1.46,0,0,1,1.626,1.561c-.022.908-.638,1.44-1.731,1.46m16.6-.88a1.709,1.709,0,0,1-1.642.884h-2.7c-.9,0-1.8.014-2.7,0-1.087-.022-1.7-.562-1.716-1.475s.554-1.521,1.641-1.548c1.849-.045,3.7-.055,5.55,0,1.337.042,2.073,1.1,1.572,2.14" transform="translate(-45.59 -246.848)" fill="#586571"/><path d="M87.989,352c-1.241.033-2.484.01-3.727.01-1.315,0-2.631,0-3.946,0-.337,0-.64-.006-.634.472.013,1.267-.027,2.535.021,3.8a1.6,1.6,0,0,0,1.515,1.651,41.651,41.651,0,0,0,5.833.008c1.3-.093,1.679-.655,1.683-1.993,0-1.072-.033-2.145.014-3.215.026-.6-.2-.746-.758-.731" transform="translate(-64.757 -286.08)" fill="#374d5d"/><path d="M280.007,351.982c-1.265.043-2.533.013-3.8.013-1.315,0-2.631.007-3.946,0-.376,0-.593.079-.586.522.019,1.266-.022,2.534.019,3.8a1.418,1.418,0,0,0,1.4,1.56,34.024,34.024,0,0,0,5.9.064c1.24-.059,1.712-.714,1.727-1.981.013-1.072-.023-2.145.013-3.215.019-.562-.137-.779-.734-.759" transform="translate(-220.798 -286.067)" fill="#374d5d"/><path d="M19.791,159.914c-1.1.022-2.193.031-3.289,0-.478-.015-.633.126-.622.61.03,1.291.01,2.582.01,3.874,0,1.316.013,2.631-.007,3.947-.006.407.112.556.536.547q1.717-.038,3.435,0c.417.009.536-.124.533-.537-.017-2.631-.022-5.263,0-7.894,0-.49-.19-.552-.6-.544" transform="translate(-12.906 -129.964)" fill="#b0b8c0"/><path d="M359.8,164.335c0,1.34.013,2.68-.008,4.02-.007.4.1.554.526.544,1.144-.027,2.29-.024,3.435,0,.414.008.546-.124.543-.54q-.023-3.947,0-7.894c0-.412-.12-.551-.539-.542q-1.717.037-3.435,0c-.421-.01-.538.128-.531.538.023,1.291.008,2.583.008,3.874" transform="translate(-292.41 -129.975)" fill="#b0b8c0"/><path d="M79.632,261.635c.539.456,1.541.087,2.337.139.373.024.518-.106.51-.5-.021-1-.006-1.995-.008-2.992,0-.167.031-.345-.107-.483-.636-.637-1.261-1.284-1.913-1.9a.811.811,0,0,0-.833-.07c-.268.089-.156.377-.159.58-.012.778,0,1.557,0,2.335,0,.219-.015.439,0,.657.063.766-.354,1.785.175,2.233" transform="translate(-64.498 -207.857)" fill="#ee491c"/><path d="M306.512,255.883a.884.884,0,0,0-.937.228c-.511.553-1.054,1.078-1.6,1.6a.812.812,0,0,0-.257.647c.01,1,.018,2,0,2.992-.008.389.137.51.51.5.656-.021,1.314-.022,1.97,0,.409.014.562-.137.551-.549-.022-.827-.007-1.654-.007-2.481,0-.73.018-1.46-.01-2.189-.01-.257.192-.644-.222-.746" transform="translate(-246.841 -207.93)" fill="#ee491c"/><path d="M336.307,241.859c.456.01.766.011.756-.628-.039-2.41-.016-4.821-.016-7.231v-2.754c-.945.471-1.589.884-1.527,2.114.132,2.623.064,5.257.024,7.887-.01.659.331.6.763.613" transform="translate(-272.684 -187.942)" fill="#b0b8c0"/><path d="M56.734,241.955c.371,0,.764.127.756-.536-.034-2.58-.084-5.164.019-7.741a1.991,1.991,0,0,0-1.259-2.217l-.2-.086a1.412,1.412,0,0,0-.055.251c0,3.263.011,6.525-.017,9.788-.006.651.381.543.758.541" transform="translate(-45.494 -188.047)" fill="#b0b8c0"/><path d="M129.869,114.975c-.035-5.214-.011-10.428-.018-15.642,0-2.234-1.139-3.354-3.381-3.355q-8.771,0-17.542,0-8.844,0-17.688,0a2.944,2.944,0,0,0-3.282,3.232c-.012,5.287.007,10.574-.015,15.861a1.832,1.832,0,0,0,1.265,1.9c2.043.847,4.069,1.735,6.1,2.619a4.159,4.159,0,0,0,1.7.352q11.914-.009,23.828,0a4.011,4.011,0,0,0,1.628-.331c2.008-.87,4.01-1.752,6.033-2.583a1.96,1.96,0,0,0,1.379-2.053m-3.667-.228c-1.531.624-3.039,1.3-4.558,1.958a1.739,1.739,0,0,1-.62.2c-1.456.017-2.911.009-4.385.009.472-1.42.547-1.478,1.859-1.478.974,0,1.949.011,2.923,0a1.5,1.5,0,0,0,1.674-1.449c.017-.922-.6-1.51-1.665-1.515q-4.312-.023-8.624,0a1.477,1.477,0,0,0-1.64,1.476,1.523,1.523,0,0,0,1.651,1.489c.316.011.632,0,.955,0-.323,1.273-.581,1.484-1.786,1.484h-10.31c.409-1.367.561-1.484,1.9-1.484.926,0,1.852.007,2.777,0,1.091-.011,1.808-.617,1.8-1.5s-.667-1.461-1.735-1.466q-4.239-.02-8.478,0c-1.069,0-1.734.582-1.746,1.455-.011.89.7,1.5,1.783,1.514.283,0,.565,0,.871,0-.607,1.665-.975,1.845-2.72,1.226-1.578-.56-3.085-1.319-4.635-1.96a.8.8,0,0,1-.578-.859q-.024-7.052-.11-14.1c-.009-.671.209-.8.83-.8q17.248.026,34.5,0c.61,0,.77.169.766.771q-.036,7.016,0,14.032a.925.925,0,0,1-.69,1.009" transform="translate(-71.474 -78.004)" fill="#0b1a22"/><path d="M152.832,239.773H130.114c-.17,0-.342-.009-.511,0a1.505,1.505,0,1,0-.024,3.008c.217.021.438.009.657.009h22.573c1.414,0,2.143-.528,2.125-1.535-.017-.977-.735-1.487-2.1-1.487" transform="translate(-104.05 -194.87)" fill="#0b1a22"/><path d="M153.652,263.89a4.918,4.918,0,0,0-.729-.026q-11.43,0-22.86,0a3.837,3.837,0,0,0-.94.077,1.445,1.445,0,0,0-1.074,1.541A1.427,1.427,0,0,0,129.3,266.8a6.289,6.289,0,0,0,.873.043q5.66,0,11.32,0,5.149,0,10.3,0c.608,0,1.219.015,1.823-.039a1.408,1.408,0,0,0,1.327-1.393,1.474,1.474,0,0,0-1.292-1.519" transform="translate(-104.065 -214.451)" fill="#0b1a22"/><path d="M143.29,311.6c-1.849-.048-3.7-.035-5.55,0a1.588,1.588,0,0,0-1.5.735c-.631,1.112.065,2.23,1.466,2.284.924.036,1.85.007,2.775.007.9,0,1.8.013,2.7,0,1.093-.02,1.709-.552,1.731-1.46a1.46,1.46,0,0,0-1.626-1.561" transform="translate(-110.538 -253.227)" fill="#0b1a22"/><path d="M223.348,311.575c-1.848-.058-3.7-.047-5.55,0-1.088.026-1.658.624-1.641,1.548s.629,1.453,1.716,1.475c.9.018,1.8,0,2.7,0h2.7a1.71,1.71,0,0,0,1.642-.884c.5-1.036-.235-2.1-1.572-2.14" transform="translate(-175.677 -253.196)" fill="#0b1a22"/><path d="M139.286,112.547c0-.6-.157-.772-.767-.771q-17.248.027-34.5,0c-.621,0-.839.13-.83.8q.1,7.051.11,14.1a.8.8,0,0,0,.578.859c1.55.642,3.057,1.4,4.635,1.96,1.745.619,2.114.438,2.72-1.226-.306,0-.589,0-.871,0-1.082-.018-1.794-.625-1.783-1.514.011-.873.677-1.451,1.745-1.455q4.239-.018,8.478,0c1.069,0,1.723.582,1.735,1.466s-.7,1.491-1.8,1.5c-.926.009-1.852,0-2.777,0-1.336,0-1.488.116-1.9,1.484h10.31c1.2,0,1.463-.211,1.786-1.484-.323,0-.639.009-.955,0a1.523,1.523,0,0,1-1.651-1.489,1.477,1.477,0,0,1,1.64-1.476q4.312-.026,8.624,0c1.069.006,1.682.594,1.665,1.515a1.5,1.5,0,0,1-1.674,1.45c-.974.014-1.949,0-2.923,0-1.312,0-1.387.058-1.859,1.478,1.474,0,2.93.008,4.385-.009a1.736,1.736,0,0,0,.62-.2c1.519-.653,3.027-1.335,4.558-1.958a.925.925,0,0,0,.69-1.009q-.036-7.016,0-14.032" transform="translate(-83.869 -90.844)" fill="#4f89c9"/></g></g></g></svg>