<svg xmlns="http://www.w3.org/2000/svg" xmlns:xlink="http://www.w3.org/1999/xlink" width="21.1" height="21.993" viewBox="0 0 21.1 21.993"><defs><clipPath id="a"><rect width="21.1" height="21.993" fill="#4a2efc"/></clipPath></defs><g clip-path="url(#a)"><path d="M17.823,19.333a2.969,2.969,0,0,0-.5-1.926h3.768v-.274c0-1.26-.023-2.52.006-3.779a2.844,2.844,0,0,0-1.758-2.83A4.57,4.57,0,0,0,19.7,9.484a6.064,6.064,0,0,0-.03-1.73A2.385,2.385,0,0,0,17.68,5.929a.536.536,0,0,1-.289-.183A3.2,3.2,0,0,0,16.08,4.66a5.22,5.22,0,0,0,.355-1.131A5.865,5.865,0,0,0,16.372,1.8,2.573,2.573,0,0,0,13.565.013a2.48,2.48,0,0,0-2.387,2.272c-.007.258,0,.515,0,.773a2.267,2.267,0,0,0,.441,1.561c-.187.109-.382.209-.559.329s-.337.262-.487.381L9.5,4.6c.017-.027.049-.082.083-.135a2.017,2.017,0,0,0,.342-1.1,8.6,8.6,0,0,0-.034-1.35,2.545,2.545,0,0,0-2.7-2A2.512,2.512,0,0,0,4.653,2.118a5.6,5.6,0,0,0,0,1.371A6.87,6.87,0,0,0,5,4.627a4.7,4.7,0,0,0-.9.684,2.762,2.762,0,0,1-1.221.811A2.2,2.2,0,0,0,1.363,8.178c-.016.343,0,.687,0,1.031a2.207,2.207,0,0,0,.448,1.277c-.2.115-.392.214-.567.335a2.567,2.567,0,0,0-1.225,2.1c-.029,1.46-.009,2.92-.01,4.38a.515.515,0,0,0,.019.085H3.747a.557.557,0,0,1-.037.1,2.659,2.659,0,0,0-.434,1.52c0,.916,0,1.832,0,2.748,0,.078-.014.156-.021.233H17.842c-.007-.078-.021-.156-.021-.233,0-.809-.011-1.618,0-2.426m1.8-6.392c.033,1.043.008,2.087.008,3.156H16.186a3.5,3.5,0,0,0,.285-1.9A2.346,2.346,0,0,0,15.026,12a1.389,1.389,0,0,1,.917-.436,19.443,19.443,0,0,1,2.228,0,1.489,1.489,0,0,1,1.451,1.385m-4.592,1.636a5.372,5.372,0,0,1-.053.682,1.158,1.158,0,0,1-1.227.841,1.117,1.117,0,0,1-1.112-1c-.011-.328-.007-.657,0-.985a1.117,1.117,0,0,1,1.183-1.073,1.137,1.137,0,0,1,1.195,1.047c.007.164,0,.328,0,.493h.016M15.9,8.193a1.2,1.2,0,0,1,2.377,0c0,.043,0,.086,0,.128,0,.128,0,.257,0,.386,0,.164,0,.329,0,.493a1.2,1.2,0,0,1-2.377,0q-.015-.5,0-1.007M12.633,2.351a1.12,1.12,0,0,1,1.151-1.058,1.133,1.133,0,0,1,1.224,1.018,9.325,9.325,0,0,1,0,1.028A1.126,1.126,0,0,1,13.781,4.35a1.107,1.107,0,0,1-1.148-1.057c0-.157,0-.314,0-.471s0-.314,0-.471m.153,3.32q1.031-.027,2.064,0a1.545,1.545,0,0,1,1,.417,10.04,10.04,0,0,0-.831.683,2,2,0,0,0-.578,1.4c-.008.336,0,.673,0,1.009a2.151,2.151,0,0,0,.438,1.281l-1.062.723-1.048-.719c.014-.024.044-.08.078-.134a1.971,1.971,0,0,0,.339-1.018c.011-.372.017-.744.008-1.116a2.339,2.339,0,0,0-1.44-2.079,1.57,1.57,0,0,1,1.034-.45M9.376,8.1a1.107,1.107,0,0,1,1.183-.933,1.117,1.117,0,0,1,1.164.931c.02.2,0,.4,0,.6h0a5.714,5.714,0,0,1,0,.6,1.127,1.127,0,0,1-1.172.925A1.115,1.115,0,0,1,9.378,9.3a7.946,7.946,0,0,1,0-1.2M6.091,2.3A1.132,1.132,0,0,1,7.3,1.293,1.121,1.121,0,0,1,8.464,2.342c0,.164,0,.328,0,.493s0,.314,0,.471A1.107,1.107,0,0,1,7.326,4.35a1.128,1.128,0,0,1-1.235-1,8.878,8.878,0,0,1,0-1.049m.156,3.373q1.031-.027,2.064,0a1.555,1.555,0,0,1,1.03.448c-.124.073-.24.134-.348.206A2.2,2.2,0,0,0,7.915,8.051c-.026.4-.013.8-.008,1.2a2.065,2.065,0,0,0,.43,1.211l-1.058.725L6.271,10.5A4.426,4.426,0,0,0,6.615,9.48a7.015,7.015,0,0,0-.026-1.731A2.251,2.251,0,0,0,5.205,6.124a1.607,1.607,0,0,1,1.042-.452M8.464,15.04A1.128,1.128,0,0,1,7.289,16.1a1.14,1.14,0,0,1-1.2-1.021,9.908,9.908,0,0,1,0-1.028,1.135,1.135,0,0,1,1.2-1.016A1.117,1.117,0,0,1,8.464,14.1c0,.157,0,.314,0,.471s0,.314,0,.471M2.821,8.181A1.12,1.12,0,0,1,4,7.169a1.131,1.131,0,0,1,1.2.992c.01.178,0,.357,0,.535h.02a4.617,4.617,0,0,1-.062.723,1.161,1.161,0,0,1-1.281.8A1.115,1.115,0,0,1,2.821,9.209q-.014-.514,0-1.028M1.474,16.1c0-.081-.011-.15-.011-.22q0-1.373,0-2.746a1.629,1.629,0,0,1,1.829-1.611c.5,0,1,0,1.506,0a1.808,1.808,0,0,1,1.274.473c-.045.027-.074.047-.106.063A2.25,2.25,0,0,0,4.643,13.92,9.586,9.586,0,0,0,4.671,15.4a3.506,3.506,0,0,0,.2.7Zm8.345,4.6H4.736c0-.3,0-.592,0-.883,0-.357-.013-.716.02-1.072A1.6,1.6,0,0,1,6.375,17.4c.591-.011,1.182-.009,1.773,0A1.6,1.6,0,0,1,9.8,18.752c.042.577.012,1.158.015,1.737,0,.063,0,.126,0,.206m-.329-4.363a2.207,2.207,0,0,0,.435-1.454,10.683,10.683,0,0,0-.03-1.114,2.271,2.271,0,0,0-1.249-1.68l-.165-.091a1.429,1.429,0,0,1,.927-.435c.758-.025,1.519-.024,2.277,0a1.451,1.451,0,0,1,.923.429c-.074.045-.136.084-.2.121a2.248,2.248,0,0,0-1.235,1.954c-.008.314,0,.629,0,.944a2.1,2.1,0,0,0,.431,1.33l-1.058.723-1.056-.727m6.86,4.362H11.292c0-.672-.051-1.339.013-2a1.587,1.587,0,0,1,1.682-1.3c.558,0,1.117-.006,1.676,0a1.587,1.587,0,0,1,1.68,1.4c.036.626.007,1.255.007,1.9" transform="translate(0 0)" fill="#4a2efc"/><path d="M194.54,41.941c0-.157,0-.314,0-.471s0-.314,0-.471c0,.157,0,.314,0,.471s0,.314,0,.471" transform="translate(-181.907 -38.647)" fill="#4a2efc"/><path d="M130.35,245.752c0,.157,0,.314,0,.471s0,.314,0,.471c0-.157,0-.314,0-.471s0-.314,0-.471" transform="translate(-121.886 -231.654)" fill="#4a2efc"/></g></svg>