<svg xmlns="http://www.w3.org/2000/svg" xmlns:xlink="http://www.w3.org/1999/xlink" width="22.03" height="22.025" viewBox="0 0 22.03 22.025"><defs><clipPath id="a"><rect width="22.03" height="22.025" fill="#4a2efc"/></clipPath></defs><g clip-path="url(#a)"><path d="M21,41.146a4.152,4.152,0,0,0-2.075-3.619,3.065,3.065,0,0,0-3.964-4.675,2.934,2.934,0,0,0-1.091,1.916,3.065,3.065,0,0,0,1,2.76,4.142,4.142,0,0,0-2.078,3.615h-.233c-1.756,0-3.513,0-5.269,0a.741.741,0,0,1-.377-.109,3.577,3.577,0,0,0-5.084,4.713A3.89,3.89,0,0,0,2.8,46.884c-.063.039-.11.071-.16.1A5.164,5.164,0,0,0,.511,49.249a5.845,5.845,0,0,0-.5,2.975A.63.63,0,0,0,.7,52.8q4.441,0,8.882,0a.645.645,0,0,0,.7-.7c0-.394-.008-.789-.039-1.181-.023-.289-.089-.575-.137-.867H20.741c0,.249-.007.484,0,.719a.647.647,0,0,0,.708.641.7.7,0,0,0,.58-.506V41.617c-.2-.463-.6-.514-1.034-.471m-4.077-7.7a1.771,1.771,0,0,1-.054,3.542,1.771,1.771,0,1,1,.054-3.542m-1.678,5.384a2.672,2.672,0,0,1,3-.193,2.745,2.745,0,0,1,1.47,2.494H14.084a2.712,2.712,0,0,1,1.158-2.3M2.678,43.992a2.293,2.293,0,1,1,2.262,2.33,2.3,2.3,0,0,1-2.262-2.33m6.3,7.5H1.307a3.838,3.838,0,1,1,7.675,0M20.727,48.75H20.5q-5.4,0-10.792-.005a.388.388,0,0,1-.283-.122,5.268,5.268,0,0,0-2.053-1.784c-.025-.012-.049-.028-.089-.052A3.649,3.649,0,0,0,8.2,42.449H20.727Z" transform="translate(0 -30.776)" fill="#4a2efc"/><path d="M.036,2.49c.019,1.2,0,2.394,0,3.591A2.367,2.367,0,0,0,2.481,8.547c3.046.007,6.092,0,9.138,0a.7.7,0,0,0,.688-.348.69.69,0,0,0-.095-.764c-.369-.546-.737-1.092-1.094-1.646a.7.7,0,0,1-.106-.355c-.008-1.01,0-2.021-.006-3.032A2.254,2.254,0,0,0,9.98.433,5.837,5.837,0,0,0,8.944,0H2.1C2.086.01,2.069.028,2.05.03A2.381,2.381,0,0,0,.036,2.49m2.491-1.2q3,0,6,0A1.094,1.094,0,0,1,9.716,2.478c0,1.053.006,2.106,0,3.16a1.168,1.168,0,0,0,.223.721c.2.279.382.569.6.9H2.6A1.121,1.121,0,0,1,1.33,5.978q0-1.741,0-3.482a1.1,1.1,0,0,1,1.2-1.206" transform="translate(-0.034 0.001)" fill="#4a2efc"/><path d="M64.9,57.32c.688.009,1.375,0,2.063,0h0c.673,0,1.347,0,2.02,0a.657.657,0,0,0,.537-.221.611.611,0,0,0,.1-.682.63.63,0,0,0-.617-.387c-.466,0-.931,0-1.4,0H64.971a.658.658,0,0,0-.67.407.634.634,0,0,0,.6.88" transform="translate(-61.479 -53.616)" fill="#4a2efc"/><path d="M66.937,112.186c-.651-.007-1.3,0-1.954,0a.922.922,0,0,0-.294.048.636.636,0,0,0-.412.66.609.609,0,0,0,.555.564c.371.02.744,0,1.116,0v0c.365,0,.731.017,1.095,0a.629.629,0,0,0,.567-.812.654.654,0,0,0-.672-.464" transform="translate(-61.502 -107.347)" fill="#4a2efc"/></g></svg>