<svg xmlns="http://www.w3.org/2000/svg" xmlns:xlink="http://www.w3.org/1999/xlink" width="427.303" height="74.858" viewBox="0 0 427.303 74.858"><defs><clipPath id="a"><rect width="77.303" height="74.858" fill="none"/></clipPath></defs><g transform="translate(-180 -5635.216)"><path d="M0,0H414.318l-3.306,52.528L0,52Z" transform="translate(180 5646.69)" fill="#fff0a6"/><path d="M4.5,18.363h5.967V21H1.074V6.781H4.5ZM17.715,21a3.716,3.716,0,0,1-.312-.947A3.06,3.06,0,0,1,14.863,21.2a3.749,3.749,0,0,1-2.539-.9,2.875,2.875,0,0,1-1.045-2.271,2.955,2.955,0,0,1,1.27-2.6,6.468,6.468,0,0,1,3.691-.879h1.016v-.559q0-1.462-1.26-1.462a1.03,1.03,0,0,0-1.172,1.158H11.533a2.95,2.95,0,0,1,1.3-2.487,5.479,5.479,0,0,1,3.325-.956,4.8,4.8,0,0,1,3.193.986,3.429,3.429,0,0,1,1.2,2.705v4.678a4.79,4.79,0,0,0,.449,2.227V21Zm-2.061-2.148a1.836,1.836,0,0,0,1.021-.264,1.653,1.653,0,0,0,.581-.6V16.3H16.3q-1.719,0-1.719,1.543a.942.942,0,0,0,.3.728A1.1,1.1,0,0,0,15.654,18.852Zm12.256-.82a.76.76,0,0,0-.439-.674,6.684,6.684,0,0,0-1.67-.527,7.615,7.615,0,0,1-2.031-.718,3.4,3.4,0,0,1-1.221-1.079,2.577,2.577,0,0,1-.42-1.455,2.92,2.92,0,0,1,1.2-2.4,4.948,4.948,0,0,1,3.145-.942,5.482,5.482,0,0,1,3.359.947,2.962,2.962,0,0,1,1.27,2.49H27.8q0-1.27-1.338-1.27a1.326,1.326,0,0,0-.869.288.892.892,0,0,0-.352.718.819.819,0,0,0,.43.713,4.06,4.06,0,0,0,1.372.449,11.857,11.857,0,0,1,1.655.42,3.007,3.007,0,0,1,2.383,2.939A2.767,2.767,0,0,1,29.8,20.287a5.631,5.631,0,0,1-3.325.908,5.747,5.747,0,0,1-2.422-.488,4.05,4.05,0,0,1-1.66-1.328,3.007,3.007,0,0,1-.6-1.768h3.076a1.272,1.272,0,0,0,.488,1.069,2.009,2.009,0,0,0,1.2.337,1.58,1.58,0,0,0,1.011-.273A.875.875,0,0,0,27.91,18.031Zm12.715-7.6.107,1.24a3.583,3.583,0,0,1,3.018-1.436,3.015,3.015,0,0,1,2.466.986,4.7,4.7,0,0,1,.845,2.969V21h-3.3V14.33a1.783,1.783,0,0,0-.322-1.177,1.491,1.491,0,0,0-1.172-.376,1.569,1.569,0,0,0-1.436.762V21H37.539V10.434ZM53.994,21.2a5.432,5.432,0,0,1-3.936-1.45,5.008,5.008,0,0,1-1.5-3.774V15.7a6.489,6.489,0,0,1,.6-2.861,4.395,4.395,0,0,1,1.753-1.919,5.292,5.292,0,0,1,2.734-.679,4.574,4.574,0,0,1,3.516,1.382,5.43,5.43,0,0,1,1.289,3.853v1.279H51.9a2.372,2.372,0,0,0,.771,1.4,2.3,2.3,0,0,0,1.543.508,2.958,2.958,0,0,0,2.441-1.094l1.5,1.777a4.2,4.2,0,0,1-1.743,1.353A5.891,5.891,0,0,1,53.994,21.2Zm-.371-8.418q-1.445,0-1.719,1.914h3.32v-.254a1.63,1.63,0,0,0-.4-1.226A1.593,1.593,0,0,0,53.623,12.777Zm10.615,5.879a1.464,1.464,0,0,0,1.074-.376,1.379,1.379,0,0,0,.371-1.05H68.77a3.653,3.653,0,0,1-1.245,2.852A4.631,4.631,0,0,1,64.316,21.2a4.689,4.689,0,0,1-3.633-1.445,5.7,5.7,0,0,1-1.328-4v-.137a6.436,6.436,0,0,1,.591-2.827,4.3,4.3,0,0,1,1.7-1.885,5.081,5.081,0,0,1,2.637-.659,4.573,4.573,0,0,1,3.271,1.143,4.053,4.053,0,0,1,1.211,3.1H65.684a1.806,1.806,0,0,0-.4-1.26,1.382,1.382,0,0,0-1.074-.439q-1.279,0-1.494,1.631a11.507,11.507,0,0,0-.068,1.426,4.52,4.52,0,0,0,.381,2.207A1.319,1.319,0,0,0,64.238,18.656ZM75.273,21.2a5.432,5.432,0,0,1-3.936-1.45,5.008,5.008,0,0,1-1.5-3.774V15.7a6.489,6.489,0,0,1,.6-2.861,4.395,4.395,0,0,1,1.753-1.919,5.292,5.292,0,0,1,2.734-.679,4.574,4.574,0,0,1,3.516,1.382,5.43,5.43,0,0,1,1.289,3.853v1.279H73.184a2.372,2.372,0,0,0,.771,1.4,2.3,2.3,0,0,0,1.543.508,2.958,2.958,0,0,0,2.441-1.094l1.5,1.777A4.2,4.2,0,0,1,77.7,20.692,5.891,5.891,0,0,1,75.273,21.2ZM74.9,12.777q-1.445,0-1.719,1.914H76.5v-.254a1.63,1.63,0,0,0-.4-1.226A1.593,1.593,0,0,0,74.9,12.777Zm11.68,5.254a.76.76,0,0,0-.439-.674,6.684,6.684,0,0,0-1.67-.527,7.615,7.615,0,0,1-2.031-.718,3.4,3.4,0,0,1-1.221-1.079,2.577,2.577,0,0,1-.42-1.455,2.92,2.92,0,0,1,1.2-2.4,4.948,4.948,0,0,1,3.145-.942,5.482,5.482,0,0,1,3.359.947,2.962,2.962,0,0,1,1.27,2.49h-3.3q0-1.27-1.338-1.27a1.326,1.326,0,0,0-.869.288.892.892,0,0,0-.352.718.819.819,0,0,0,.43.713,4.06,4.06,0,0,0,1.372.449,11.857,11.857,0,0,1,1.655.42,3.007,3.007,0,0,1,2.383,2.939,2.767,2.767,0,0,1-1.284,2.354,5.631,5.631,0,0,1-3.325.908,5.747,5.747,0,0,1-2.422-.488,4.05,4.05,0,0,1-1.66-1.328,3.007,3.007,0,0,1-.6-1.768h3.076a1.272,1.272,0,0,0,.488,1.069,2.009,2.009,0,0,0,1.2.337,1.58,1.58,0,0,0,1.011-.273A.875.875,0,0,0,86.582,18.031ZM94.766,21h-3.3V10.434h3.3ZM91.27,7.709a1.469,1.469,0,0,1,.508-1.152,2.159,2.159,0,0,1,2.637,0,1.469,1.469,0,0,1,.508,1.152,1.469,1.469,0,0,1-.508,1.152,2.159,2.159,0,0,1-2.637,0A1.469,1.469,0,0,1,91.27,7.709Zm5.107,7.93a6.455,6.455,0,0,1,1.084-3.955,3.568,3.568,0,0,1,3.027-1.445,3.035,3.035,0,0,1,2.383,1.113V6h3.3V21h-2.959l-.166-1.133a3.116,3.116,0,0,1-2.578,1.328A3.562,3.562,0,0,1,97.48,19.75,6.659,6.659,0,0,1,96.377,15.639Zm3.291.205q0,2.813,1.641,2.813a1.62,1.62,0,0,0,1.563-.918V13.715a1.576,1.576,0,0,0-1.543-.937q-1.523,0-1.65,2.461ZM113.994,21a3.716,3.716,0,0,1-.312-.947,3.06,3.06,0,0,1-2.539,1.143,3.749,3.749,0,0,1-2.539-.9,2.875,2.875,0,0,1-1.045-2.271,2.955,2.955,0,0,1,1.27-2.6,6.468,6.468,0,0,1,3.691-.879h1.016v-.559q0-1.462-1.26-1.462a1.03,1.03,0,0,0-1.172,1.158h-3.291a2.95,2.95,0,0,1,1.3-2.487,5.479,5.479,0,0,1,3.325-.956,4.8,4.8,0,0,1,3.193.986,3.429,3.429,0,0,1,1.2,2.705v4.678a4.79,4.79,0,0,0,.449,2.227V21Zm-2.061-2.148a1.836,1.836,0,0,0,1.021-.264,1.653,1.653,0,0,0,.581-.6V16.3h-.957q-1.719,0-1.719,1.543a.942.942,0,0,0,.3.728A1.1,1.1,0,0,0,111.934,18.852Zm6.309-3.213a6.455,6.455,0,0,1,1.084-3.955,3.568,3.568,0,0,1,3.027-1.445,3.035,3.035,0,0,1,2.383,1.113V6h3.3V21h-2.959l-.166-1.133a3.116,3.116,0,0,1-2.578,1.328,3.562,3.562,0,0,1-2.988-1.445A6.659,6.659,0,0,1,118.242,15.639Zm3.291.205q0,2.813,1.641,2.813a1.62,1.62,0,0,0,1.563-.918V13.715a1.576,1.576,0,0,0-1.543-.937q-1.523,0-1.65,2.461ZM135.02,21.2a5.432,5.432,0,0,1-3.936-1.45,5.008,5.008,0,0,1-1.5-3.774V15.7a6.489,6.489,0,0,1,.6-2.861,4.395,4.395,0,0,1,1.753-1.919,5.292,5.292,0,0,1,2.734-.679,4.574,4.574,0,0,1,3.516,1.382,5.43,5.43,0,0,1,1.289,3.853v1.279H132.93a2.372,2.372,0,0,0,.771,1.4,2.3,2.3,0,0,0,1.543.508,2.958,2.958,0,0,0,2.441-1.094l1.5,1.777a4.2,4.2,0,0,1-1.743,1.353A5.891,5.891,0,0,1,135.02,21.2Zm-.371-8.418q-1.445,0-1.719,1.914h3.32v-.254a1.63,1.63,0,0,0-.4-1.226A1.593,1.593,0,0,0,134.648,12.777Zm11.68,5.254a.76.76,0,0,0-.439-.674,6.684,6.684,0,0,0-1.67-.527,7.615,7.615,0,0,1-2.031-.718,3.4,3.4,0,0,1-1.221-1.079,2.577,2.577,0,0,1-.42-1.455,2.92,2.92,0,0,1,1.2-2.4,4.948,4.948,0,0,1,3.145-.942,5.482,5.482,0,0,1,3.359.947,2.962,2.962,0,0,1,1.27,2.49h-3.3q0-1.27-1.338-1.27a1.326,1.326,0,0,0-.869.288.892.892,0,0,0-.352.718.819.819,0,0,0,.43.713,4.06,4.06,0,0,0,1.372.449,11.857,11.857,0,0,1,1.655.42,3.007,3.007,0,0,1,2.383,2.939,2.767,2.767,0,0,1-1.284,2.354,5.632,5.632,0,0,1-3.325.908,5.747,5.747,0,0,1-2.422-.488,4.05,4.05,0,0,1-1.66-1.328,3.007,3.007,0,0,1-.6-1.768h3.076a1.272,1.272,0,0,0,.488,1.069,2.009,2.009,0,0,0,1.2.337,1.58,1.58,0,0,0,1.011-.273A.875.875,0,0,0,146.328,18.031Zm9.277-2.393a6.455,6.455,0,0,1,1.084-3.955,3.568,3.568,0,0,1,3.027-1.445,3.035,3.035,0,0,1,2.383,1.113V6h3.3V21h-2.959l-.166-1.133A3.116,3.116,0,0,1,159.7,21.2a3.562,3.562,0,0,1-2.988-1.445A6.659,6.659,0,0,1,155.605,15.639Zm3.291.205q0,2.813,1.641,2.813a1.62,1.62,0,0,0,1.563-.918V13.715a1.576,1.576,0,0,0-1.543-.937q-1.523,0-1.65,2.461ZM172.383,21.2a5.432,5.432,0,0,1-3.936-1.45,5.008,5.008,0,0,1-1.5-3.774V15.7a6.489,6.489,0,0,1,.6-2.861,4.395,4.395,0,0,1,1.753-1.919,5.292,5.292,0,0,1,2.734-.679,4.574,4.574,0,0,1,3.516,1.382,5.43,5.43,0,0,1,1.289,3.853v1.279h-6.543a2.372,2.372,0,0,0,.771,1.4,2.3,2.3,0,0,0,1.543.508,2.958,2.958,0,0,0,2.441-1.094l1.5,1.777a4.2,4.2,0,0,1-1.743,1.353A5.891,5.891,0,0,1,172.383,21.2Zm-.371-8.418q-1.445,0-1.719,1.914h3.32v-.254a1.63,1.63,0,0,0-.4-1.226A1.593,1.593,0,0,0,172.012,12.777ZM186.611,21h-3.3V6h3.3Zm1.611-5.381a6.236,6.236,0,0,1,.615-2.817,4.4,4.4,0,0,1,1.768-1.9,5.323,5.323,0,0,1,2.705-.664,4.858,4.858,0,0,1,3.74,1.47,5.64,5.64,0,0,1,1.367,4v.117a5.472,5.472,0,0,1-1.372,3.921,4.871,4.871,0,0,1-3.716,1.45,4.927,4.927,0,0,1-3.623-1.353,5.29,5.29,0,0,1-1.475-3.667Zm3.291.205a3.932,3.932,0,0,0,.459,2.148,1.529,1.529,0,0,0,1.357.684q1.758,0,1.8-2.705v-.332q0-2.842-1.816-2.842-1.65,0-1.787,2.451ZM205.4,18.031a.76.76,0,0,0-.439-.674,6.684,6.684,0,0,0-1.67-.527,7.615,7.615,0,0,1-2.031-.718,3.4,3.4,0,0,1-1.221-1.079,2.577,2.577,0,0,1-.42-1.455,2.92,2.92,0,0,1,1.2-2.4,4.948,4.948,0,0,1,3.145-.942,5.482,5.482,0,0,1,3.359.947,2.962,2.962,0,0,1,1.27,2.49h-3.3q0-1.27-1.338-1.27a1.326,1.326,0,0,0-.869.288.892.892,0,0,0-.352.718.819.819,0,0,0,.43.713,4.06,4.06,0,0,0,1.372.449,11.857,11.857,0,0,1,1.655.42,3.007,3.007,0,0,1,2.383,2.939,2.767,2.767,0,0,1-1.284,2.354,5.632,5.632,0,0,1-3.325.908,5.747,5.747,0,0,1-2.422-.488,4.05,4.05,0,0,1-1.66-1.328,3.007,3.007,0,0,1-.6-1.768h3.076a1.272,1.272,0,0,0,.488,1.069,2.009,2.009,0,0,0,1.2.337,1.58,1.58,0,0,0,1.011-.273A.875.875,0,0,0,205.4,18.031Zm14.16.625a1.464,1.464,0,0,0,1.074-.376,1.379,1.379,0,0,0,.371-1.05h3.086a3.653,3.653,0,0,1-1.245,2.852,4.631,4.631,0,0,1-3.208,1.113,4.689,4.689,0,0,1-3.633-1.445,5.7,5.7,0,0,1-1.328-4v-.137a6.436,6.436,0,0,1,.591-2.827,4.3,4.3,0,0,1,1.7-1.885,5.081,5.081,0,0,1,2.637-.659,4.573,4.573,0,0,1,3.271,1.143,4.053,4.053,0,0,1,1.211,3.1h-3.086a1.807,1.807,0,0,0-.4-1.26,1.382,1.382,0,0,0-1.074-.439q-1.279,0-1.494,1.631a11.507,11.507,0,0,0-.068,1.426,4.52,4.52,0,0,0,.381,2.207A1.319,1.319,0,0,0,219.561,18.656ZM228.955,21h-3.3V6h3.3Zm5.5,0h-3.3V10.434h3.3Zm-3.5-13.291a1.469,1.469,0,0,1,.508-1.152,2.159,2.159,0,0,1,2.637,0,1.469,1.469,0,0,1,.508,1.152,1.469,1.469,0,0,1-.508,1.152,2.159,2.159,0,0,1-2.637,0A1.469,1.469,0,0,1,230.957,7.709ZM241.592,21.2a5.432,5.432,0,0,1-3.936-1.45,5.008,5.008,0,0,1-1.5-3.774V15.7a6.489,6.489,0,0,1,.6-2.861,4.395,4.395,0,0,1,1.753-1.919,5.292,5.292,0,0,1,2.734-.679,4.574,4.574,0,0,1,3.516,1.382,5.43,5.43,0,0,1,1.289,3.853v1.279H239.5a2.372,2.372,0,0,0,.771,1.4,2.3,2.3,0,0,0,1.543.508,2.958,2.958,0,0,0,2.441-1.094l1.5,1.777a4.2,4.2,0,0,1-1.743,1.353A5.891,5.891,0,0,1,241.592,21.2Zm-.371-8.418q-1.445,0-1.719,1.914h3.32v-.254a1.63,1.63,0,0,0-.4-1.226A1.593,1.593,0,0,0,241.221,12.777Zm9.17-2.344.107,1.24a3.583,3.583,0,0,1,3.018-1.436,3.015,3.015,0,0,1,2.466.986,4.7,4.7,0,0,1,.845,2.969V21h-3.3V14.33a1.783,1.783,0,0,0-.322-1.177,1.491,1.491,0,0,0-1.172-.376,1.569,1.569,0,0,0-1.436.762V21H247.3V10.434Zm12.09-2.627v2.627h1.738v2.285H262.48v4.834a1.234,1.234,0,0,0,.215.83,1.152,1.152,0,0,0,.85.234,4.828,4.828,0,0,0,.82-.059v2.354a6.074,6.074,0,0,1-1.855.283,3.448,3.448,0,0,1-2.51-.8,3.282,3.282,0,0,1-.811-2.432V12.719h-1.348V10.434h1.348V7.807ZM270.625,21.2a5.432,5.432,0,0,1-3.936-1.45,5.008,5.008,0,0,1-1.5-3.774V15.7a6.489,6.489,0,0,1,.6-2.861,4.395,4.395,0,0,1,1.753-1.919,5.292,5.292,0,0,1,2.734-.679,4.574,4.574,0,0,1,3.516,1.382,5.43,5.43,0,0,1,1.289,3.853v1.279h-6.543a2.372,2.372,0,0,0,.771,1.4,2.3,2.3,0,0,0,1.543.508,2.958,2.958,0,0,0,2.441-1.094l1.5,1.777a4.2,4.2,0,0,1-1.743,1.353A5.891,5.891,0,0,1,270.625,21.2Zm-.371-8.418q-1.445,0-1.719,1.914h3.32v-.254a1.63,1.63,0,0,0-.4-1.226A1.593,1.593,0,0,0,270.254,12.777Zm11.68,5.254a.76.76,0,0,0-.439-.674,6.684,6.684,0,0,0-1.67-.527,7.615,7.615,0,0,1-2.031-.718,3.4,3.4,0,0,1-1.221-1.079,2.577,2.577,0,0,1-.42-1.455,2.92,2.92,0,0,1,1.2-2.4,4.948,4.948,0,0,1,3.145-.942,5.482,5.482,0,0,1,3.359.947,2.962,2.962,0,0,1,1.27,2.49h-3.3q0-1.27-1.338-1.27a1.326,1.326,0,0,0-.869.288.892.892,0,0,0-.352.718.819.819,0,0,0,.43.713,4.06,4.06,0,0,0,1.372.449,11.856,11.856,0,0,1,1.655.42,3.007,3.007,0,0,1,2.383,2.939,2.767,2.767,0,0,1-1.284,2.354,5.631,5.631,0,0,1-3.325.908,5.747,5.747,0,0,1-2.422-.488,4.05,4.05,0,0,1-1.66-1.328,3.007,3.007,0,0,1-.6-1.768H278.9a1.272,1.272,0,0,0,.488,1.069,2.009,2.009,0,0,0,1.2.337,1.58,1.58,0,0,0,1.011-.273A.875.875,0,0,0,281.934,18.031Z" transform="translate(223 5659.69)" fill="#12263f"/><g transform="translate(530 5635.216)"><g clip-path="url(#a)"><path d="M77.666,184.256a5.383,5.383,0,0,0-1.88-2.582c-.7-.524-.718-.6-.305-1.369a8.077,8.077,0,0,0,.91-3.851q.016-2.717,0-5.433c-.013-3.128-1.855-4.956-5-4.967-1.459,0-2.918-.013-4.377,0a4.366,4.366,0,0,0-4.686,4.732c0,1.962.024,3.925-.009,5.886a7.245,7.245,0,0,0,.741,3.5.9.9,0,0,1-.3,1.3,7.03,7.03,0,0,0-1.38,1.49c-1.538,2.085-3.161,4.107-4.682,6.2a1.916,1.916,0,0,1-1.781.892c-.954-.045-1.911-.011-2.867-.013-.6,0-.866-.286-.869-.878,0-1.006-.079-2.02.012-3.017.216-2.37-1-3.9-2.831-5.109a9.575,9.575,0,0,0-1.789-.969A.824.824,0,0,1,46,179.013a18.746,18.746,0,0,0,.353-4.5c-.014-2.213,0-4.427-.007-6.641-.007-1.451-.386-1.817-1.85-1.818-2.541,0-5.081-.019-7.622.006a4.389,4.389,0,0,0-4.242,2.608,3.465,3.465,0,0,0-.35,1.529q.007,3.547,0,7.094a5.991,5.991,0,0,0,.283,1.782.872.872,0,0,1-.554,1.2,8.877,8.877,0,0,0-3.447,2.62,4.012,4.012,0,0,0-.812,2.459q.012,1.773,0,3.547c-.008,1.042-.121,1.15-1.188,1.159-.88.007-1.762-.024-2.641.009a1.818,1.818,0,0,1-1.655-.844c-1.464-2.015-3.022-3.958-4.5-5.963a8.913,8.913,0,0,0-1.665-1.84.839.839,0,0,1-.25-1.188,7.61,7.61,0,0,0,.764-3.727c-.037-1.961,0-3.924-.011-5.886a4.3,4.3,0,0,0-4.335-4.545c-1.733-.068-3.472-.064-5.206,0A4.355,4.355,0,0,0,2.6,170.451a47.7,47.7,0,0,0,.068,7.31,6.365,6.365,0,0,0,.849,2.636.8.8,0,0,1-.268,1.215,5.262,5.262,0,0,0-2.223,4.695q.062,3.13,0,6.263a1.871,1.871,0,0,0,.982,1.944c.006.013.009.026.014.039.824-.193,1.064-.516,1.066-1.423,0-2.413,0-4.827,0-7.24a3.053,3.053,0,0,1,1.685-2.82.927.927,0,0,1,1.04.034,7.01,7.01,0,0,0,7.816-.125.913.913,0,0,1,.974-.07,2.821,2.821,0,0,1,1.055.942c1.858,2.469,3.733,4.926,5.576,7.406a1.855,1.855,0,0,0,1.652.834c2.363-.029,4.726-.017,7.089-.008a2.079,2.079,0,1,1-.005,4.134c-2.992.008-5.983-.009-8.975.01a2.3,2.3,0,0,1-1.986-1.01c-1.5-2.013-3.022-4.014-4.537-6.019a4.143,4.143,0,0,0-.425-.527,1.049,1.049,0,0,0-1.5-.1,1.029,1.029,0,0,0-.244,1.477c.421.652.9,1.265,1.356,1.895.781,1.012,1.558,2.027,2.344,3.035a.959.959,0,0,1,.183.632c0,2.964-.011,5.927.008,8.891,0,.468-.147.592-.6.591-3.993-.009-7.986.005-11.979,0-.172,0-.413.125-.512-.155-.007-1.981-.04-3.963-.007-5.943a1.383,1.383,0,0,0-1.019-1.581c0,.013-.006.026-.01.039a1.971,1.971,0,0,0-1.021,2.07c.05,1.985.007,3.973.019,5.959.008,1.344.292,1.626,1.657,1.629q6.6.012,13.2,0,29.307,0,58.613,0a6.515,6.515,0,0,0,3.578-.51v-8.454a1.771,1.771,0,0,0-1.087-.714c-.931.2-1.173.482-1.175,1.43,0,1.835-.032,3.67.015,5.5.016.621-.191.729-.756.726q-5.805-.032-11.611.005c-.563,0-.776-.1-.768-.728.037-2.865.014-5.73.021-8.6,0-.213-.094-.456.117-.635l3.363-4.531a6.462,6.462,0,0,0,.4-.549,1.1,1.1,0,0,0-.289-1.534,1.055,1.055,0,0,0-1.49.2c-.458.532-.859,1.113-1.283,1.674-1.133,1.5-2.289,2.993-3.389,4.521a2.87,2.87,0,0,1-2.6,1.326c-2.94-.062-5.881-.013-8.822-.027a1.992,1.992,0,0,1-1.981-1.344,2.036,2.036,0,0,1,.514-2.22,2.217,2.217,0,0,1,1.658-.573c2.363.012,4.726-.013,7.088.015a1.856,1.856,0,0,0,1.658-.82c1.842-2.48,3.715-4.937,5.575-7.4a2.9,2.9,0,0,1,.779-.809,1.131,1.131,0,0,1,1.369-.016,7.185,7.185,0,0,0,7.11.457c.516-.29.937-.87,1.667-.427a3.062,3.062,0,0,1,1.651,2.691c.022,2.462,0,4.925.009,7.387,0,.994.347,1.345,1.339,1.4.463-.076.688-.434.924-.78v-8.907c-.384-.025-.368-.368-.452-.6M4.638,175.89c0-1.835-.029-3.671.015-5.505a2.179,2.179,0,0,1,1.85-2.152h0a8.174,8.174,0,0,1,2.312-.1c1.13-.028,2.262-.016,3.392,0a2.3,2.3,0,0,1,2.381,2.373c.039,1.634-.242,1.825-1.782,1.194a2.672,2.672,0,0,1-.958-.581c-1.1-.658-1.871-.248-1.987,1.045a7.025,7.025,0,0,1-.709,2.75,3.611,3.611,0,0,1-4.268,1.467c-.24-.107-.247-.287-.247-.491m9.767,2.448a4.946,4.946,0,0,1-5.07,3.583,1.421,1.421,0,0,1-.386-.069,4.611,4.611,0,0,1-3.883-3.076c.59,0,1.187.044,1.775-.008a5.3,5.3,0,0,0,4.836-4.07.862.862,0,0,1,.167-.406c-.029-.335.024-.557.45-.394a5.377,5.377,0,0,0,1.911.325c.221,0,.4.007.388.3a16.684,16.684,0,0,1-.189,3.811m21.709-10.1c.194-.165.429-.111.649-.111,2.28,0,4.561.022,6.84-.006.545-.006.691.174.659.686-.04.649-.028,1.3,0,1.954.015.381-.092.544-.5.52-.624-.037-1.251-.025-1.877-.033q-3.575.013-7.151.024c-.188,0-.4.058-.433-.259a2.332,2.332,0,0,1,1.816-2.773m-1.82,5.706c-.008-.348.132-.414.442-.412,2.383.018,4.766.023,7.149.032.627-.009,1.254-.006,1.88-.031.333-.013.511.058.494.449a35.566,35.566,0,0,1-.1,3.834,4.949,4.949,0,0,1-5.081,4.114,1.782,1.782,0,0,1-.421-.064,4.837,4.837,0,0,1-4.312-4.311c-.08-1.2-.021-2.408-.048-3.611M59.71,198.466c.631,0,.81.169.795.8q-.063,2.563,0,5.129c.014.586-.181.742-.729.7-.625-.049-1.255-.025-1.883-.033-.2.007-.4.021-.6.021q-19.03,0-38.061.015c-.619,0-.812-.143-.793-.779.058-1.906.049-3.814.066-5.721h0c.2-.247.468-.123.7-.123q20.254,0,40.508,0M49.172,186.279a20.609,20.609,0,0,0-.01,2.93c.013.438-.083.65-.569.613a4.406,4.406,0,0,0-1.88.439c-2.242,1.533-2.78,3.172-1.92,5.857-.56.126-9.807.155-10.675.028a5.271,5.271,0,0,0,.439-2.2,4.272,4.272,0,0,0-4.114-4.116c-.507-.024-.687-.145-.668-.682.043-1.231.031-2.465.007-3.7a2.2,2.2,0,0,1,.587-1.579,8.51,8.51,0,0,1,3.123-2.048.433.433,0,0,1,.524.1c3.716,3.09,6.861,3.089,10.569.01.133-.374.39-.31.668-.2a14.148,14.148,0,0,1,1.938.98,3.451,3.451,0,0,1,1.981,3.554m19.92-4.356a1.426,1.426,0,0,1-.386-.061,4.852,4.852,0,0,1-4.326-4.385c-.055-.925-.011-1.856-.037-2.784-.01-.354.091-.488.465-.471a4.818,4.818,0,0,0,1.046-.1c1.134-.2,1.134-.209,1.492.829a5.331,5.331,0,0,0,4.126,3.754,8.278,8.278,0,0,0,2.387.011,4.717,4.717,0,0,1-4.767,3.206m4.53-5.48a3.621,3.621,0,0,1-1.847-.048,2.619,2.619,0,0,1-2.1-1.713,6.829,6.829,0,0,1-.592-2.543,1.291,1.291,0,0,0-.682-1.24,1.251,1.251,0,0,0-1.384.293,3.92,3.92,0,0,1-2.077.788c-.4.048-.622-.062-.589-.519a9.836,9.836,0,0,1,.076-1.57,2.06,2.06,0,0,1,1.733-1.66h0c.217-.183.478-.122.723-.122,1.632,0,3.263,0,4.894.014a2.4,2.4,0,0,1,2.542,2.557c.013,1.657-.017,3.314.015,4.97.011.546-.161.756-.71.794" transform="translate(-0.816 -132.49)"/><path d="M74.658,180.526c-.283-.162-.054-.337.038-.493a6.535,6.535,0,0,0,1.009-3.2c.045-2.463.125-4.934,0-7.391a4.463,4.463,0,0,0-4.682-4.256q-2.528-.015-5.055,0a4.529,4.529,0,0,0-4.691,4.641c-.021,2.163,0,4.326-.005,6.489a6.2,6.2,0,0,0,.666,2.985c.347.648.514,1.079-.313,1.5a3.551,3.551,0,0,0-1.017,1.093q-2.556,3.36-5.081,6.743a1.077,1.077,0,0,1-1,.5c-1.08-.034-2.165-.049-3.243,0-.595.029-.712-.18-.692-.725.042-1.155-.026-2.315.023-3.47a4.622,4.622,0,0,0-1.526-3.631,10.188,10.188,0,0,0-3.346-2.13c-.383-.156-.581-.312-.384-.769a4.14,4.14,0,0,0,.3-1.62c.024-3.471.043-6.941.033-10.411a1.126,1.126,0,0,0-1.267-1.191c-2.943-.012-5.887-.053-8.828.015a4.443,4.443,0,0,0-4.362,4.414c-.043,2.313,0,4.628-.005,6.941a5.247,5.247,0,0,0,.357,1.992c.182.446.053.609-.343.78a9.766,9.766,0,0,0-3.06,2.023,4.6,4.6,0,0,0-1.486,3.571c.048,1.205-.013,2.415.021,3.621.013.478-.143.6-.6.585-1.081-.031-2.164-.036-3.244,0a1.2,1.2,0,0,1-1.127-.548c-1.676-2.261-3.385-4.5-5.076-6.747a4.543,4.543,0,0,0-1.391-1.36c-.382-.207-.326-.388-.146-.7a6.854,6.854,0,0,0,.906-3.53c-.008-2.138.016-4.276-.006-6.414a4.53,4.53,0,0,0-4.681-4.651c-1.66-.013-3.32-.007-4.98,0a4.576,4.576,0,0,0-4.81,4.775c-.019,2.062-.009,4.125,0,6.187a6.94,6.94,0,0,0,.988,3.737c.252.4.213.572-.2.851a5.084,5.084,0,0,0-2.341,4.325c-.033,2.49,0,4.98-.013,7.47a1.2,1.2,0,0,0,1.1,1.363l.1-.023c-.005-.013-.009-.026-.014-.039a1.872,1.872,0,0,1-.982-1.944q.062-3.131,0-6.263a5.262,5.262,0,0,1,2.223-4.695.8.8,0,0,0,.268-1.215,6.364,6.364,0,0,1-.849-2.636,47.7,47.7,0,0,1-.068-7.31,4.355,4.355,0,0,1,4.468-4.381c1.734-.062,3.473-.067,5.206,0a4.3,4.3,0,0,1,4.335,4.545c.006,1.962-.026,3.925.011,5.886a7.609,7.609,0,0,1-.764,3.727.839.839,0,0,0,.25,1.188,8.913,8.913,0,0,1,1.665,1.84c1.478,2,3.036,3.948,4.5,5.963a1.818,1.818,0,0,0,1.655.844c.879-.033,1.761,0,2.641-.009,1.067-.009,1.18-.117,1.188-1.159q.014-1.773,0-3.547a4.012,4.012,0,0,1,.812-2.459,8.879,8.879,0,0,1,3.447-2.62.872.872,0,0,0,.554-1.2,5.991,5.991,0,0,1-.283-1.782q0-3.547,0-7.094a3.465,3.465,0,0,1,.35-1.529,4.389,4.389,0,0,1,4.242-2.608c2.54-.025,5.081-.008,7.622-.006,1.464,0,1.843.367,1.85,1.818.011,2.214-.008,4.427.007,6.641a18.746,18.746,0,0,1-.353,4.5.823.823,0,0,0,.576,1.068,9.581,9.581,0,0,1,1.789.969c1.833,1.206,3.047,2.739,2.831,5.109-.091,1-.016,2.011-.012,3.017,0,.592.269.877.869.878.956,0,1.913-.032,2.867.013a1.917,1.917,0,0,0,1.781-.893c1.521-2.1,3.144-4.119,4.682-6.2a7.02,7.02,0,0,1,1.38-1.49.9.9,0,0,0,.3-1.3,7.247,7.247,0,0,1-.741-3.5c.033-1.962.007-3.924.009-5.886a4.366,4.366,0,0,1,4.686-4.732c1.459-.015,2.918-.007,4.377,0,3.146.011,4.988,1.839,5,4.967q.011,2.717,0,5.433a8.077,8.077,0,0,1-.91,3.851c-.413.77-.4.845.305,1.369a5.382,5.382,0,0,1,1.88,2.582c.084.237.068.58.452.6a6,6,0,0,0-2.644-3.654" transform="translate(0 -131.808)"/><path d="M73.749,331.035q-29.307,0-58.613,0-6.6,0-13.2,0c-1.365,0-1.65-.284-1.657-1.628-.011-1.986.032-3.974-.019-5.959a1.972,1.972,0,0,1,1.021-2.07c0-.013.006-.026.01-.039-.032-.009-.064-.019-.1-.027h0c-1,.324-1.158.538-1.159,1.558q0,3.4,0,6.791c0,1.265.339,1.6,1.611,1.6q37.046,0,74.093.012a1.7,1.7,0,0,0,1.592-.747,6.517,6.517,0,0,1-3.578.511" transform="translate(-0.024 -256.414)"/><path d="M377.477,304.334a13.7,13.7,0,0,0-.1,2.573,1.1,1.1,0,0,1,1.073.868V303.4a1.128,1.128,0,0,1-.97.937" transform="translate(-301.144 -242.119)" fill="#fdfdfd"/><path d="M377.978,304.177h0c-.018.052-.033.1-.047.157a1.128,1.128,0,0,0,.97-.937c-.235.346-.461.7-.924.78" transform="translate(-301.6 -242.119)" fill="#fdfdfd"/><path d="M377.365,320.775c0,.052-.008.1-.014.155a1.77,1.77,0,0,1,1.087.714,1.1,1.1,0,0,0-1.073-.868" transform="translate(-301.136 -255.987)" fill="#fdfdfd"/><path d="M8.266,26.212c.4.105.52.236.512.633-.024,1.182,0,2.365-.014,3.546-.009.6.1,1.127.69,1.382a1.306,1.306,0,0,0,1.533-.486c1.484-1.5,2.987-2.989,4.474-4.491a1.093,1.093,0,0,1,.842-.39q7.4.021,14.791,0a.578.578,0,0,1,.671.491,5.414,5.414,0,0,0,5.329,3.88c2.063.012,4.126-.012,6.188.011a1.41,1.41,0,0,0,1.427-.767c.028-1.139-.316-1.5-1.436-1.505-2.087,0-4.175.01-6.262,0a3,3,0,0,1-2.951-2.06,16.348,16.348,0,0,0,1.705-.115,6.874,6.874,0,0,0,5.868-6.96q.034-3.7-.007-7.393c-.006-.551.084-.768.717-.765,6.061.028,12.122.013,18.183.018a3.193,3.193,0,0,1,3.509,3.5q.007,5.092,0,10.185a3.2,3.2,0,0,1-3.2,3.591,1.106,1.106,0,0,0-1.093,1.2c-.013.82,0,1.641,0,2.462l-.2.136a21.932,21.932,0,0,1-1.758-1.905,4.621,4.621,0,0,0-4.637-1.918,36.6,36.6,0,0,1-4,.028c-1.074,0-1.316.187-1.581,1.2a1.325,1.325,0,0,0,1.5,1.068c1.76-.026,3.522,0,5.282-.017a1.236,1.236,0,0,1,.986.4c1.479,1.509,2.986,2.99,4.473,4.492a1.286,1.286,0,0,0,1.467.483A1.259,1.259,0,0,0,62,34.79c-.007-1.207.009-2.415-.009-3.622a.564.564,0,0,1,.44-.645A5.365,5.365,0,0,0,66.3,25.047q.011-5.169,0-10.338a6.633,6.633,0,0,0-.1-1.349,5.41,5.41,0,0,0-5.609-4.379q-8.6-.017-17.206,0c-1.728,0-1.728,0-1.737-1.763,0-.1,0-.2,0-.3A6.9,6.9,0,0,0,34.579.007q-12.263-.014-24.526,0A6.871,6.871,0,0,0,3.044,6.956q-.041,6.263,0,12.527a6.843,6.843,0,0,0,5.222,6.729M5.308,6.911A4.571,4.571,0,0,1,9.886,2.276c8.3-.029,16.6-.014,24.9,0a3.5,3.5,0,0,1,2.068.56,4.23,4.23,0,0,1,2.5,3.976q.09,6.407,0,12.816a4.54,4.54,0,0,1-4.671,4.522q-9.424.021-18.848-.005a2.024,2.024,0,0,0-1.6.663c-1,1.054-2.04,2.073-3.211,3.254,0-.973.006-1.759,0-2.545-.009-.929-.381-1.3-1.316-1.37A4.4,4.4,0,0,1,5.83,21.6,3.9,3.9,0,0,1,5.3,19.51c-.007-4.2-.02-8.4,0-12.6" transform="translate(-2.414 0)"/><path d="M172.977,73.882a10.337,10.337,0,0,1,1.507-.036c1.559,0,3.119.021,4.678-.01a2.647,2.647,0,0,1,2.026.824c.851.847,1.683,1.714,2.668,2.639a14.249,14.249,0,0,0,.052-1.743c.032-1.126.38-1.537,1.476-1.728a2.96,2.96,0,0,0,2.746-3.2q.018-5.243,0-10.488a2.813,2.813,0,0,0-3.057-3.053q-8.941-.015-17.882,0c-.92,0-.954.041-.956,1,0,2.289.027,4.578-.009,6.866a7.194,7.194,0,0,1-6.12,7.162c-.418.069-.847.025-1.273.1a2.6,2.6,0,0,0,2.56,1.625c1.886.024,3.772.005,5.659.008.277,0,.554-.01.83.016a1.209,1.209,0,0,1,1.166,1.712.778.778,0,0,1,.706-.307c.718.022,1.438.006,2.157.006a1.129,1.129,0,0,1,1.064-1.39" transform="translate(-126.754 -45.549)" fill="#dce9fa"/><path d="M171.778,72.853a36.593,36.593,0,0,0,4-.028,4.621,4.621,0,0,1,4.637,1.918,21.935,21.935,0,0,0,1.758,1.905l.2-.136c0-.821-.01-1.642,0-2.462a1.106,1.106,0,0,1,1.093-1.2,3.2,3.2,0,0,0,3.2-3.591q0-5.092,0-10.185a3.193,3.193,0,0,0-3.51-3.5c-6.061-.005-12.122.009-18.183-.018-.634,0-.723.214-.717.765q.039,3.7.007,7.393a6.874,6.874,0,0,1-5.868,6.96,16.35,16.35,0,0,1-1.705.115,3,3,0,0,0,2.951,2.06c2.087.015,4.175,0,6.262,0,1.12,0,1.464.366,1.436,1.505a1.209,1.209,0,0,0-1.166-1.712c-.276-.026-.553-.015-.829-.016-1.886,0-3.773.016-5.659-.008A2.6,2.6,0,0,1,157.119,71c.426-.078.854-.034,1.272-.1a7.194,7.194,0,0,0,6.12-7.163c.035-2.288,0-4.577.009-6.866,0-.959.036-1,.956-1q8.941,0,17.882,0a2.813,2.813,0,0,1,3.056,3.054q.017,5.244,0,10.488a2.96,2.96,0,0,1-2.746,3.2c-1.1.19-1.444.6-1.476,1.728a14.249,14.249,0,0,1-.052,1.743c-.985-.924-1.817-1.792-2.668-2.639a2.648,2.648,0,0,0-2.026-.824c-1.559.032-3.118.007-4.678.01a10.368,10.368,0,0,0-1.507.036,1.129,1.129,0,0,0-1.064,1.39c.265-1.018.507-1.2,1.581-1.2" transform="translate(-125.039 -44.334)" fill="#dce9fa"/><path d="M7.336,266.069c.058,1.12,0,2.244.026,3.365a11.083,11.083,0,0,0,.107,2.6c.195.275.487.223.758.223,3.083,0,6.167.011,9.25-.007.184-.11.225-.324.223-.66-.014-3.993,0-7.987,0-11.98l-.069-.094c-.421-.564-.846-1.125-1.257-1.7a1.341,1.341,0,1,1,2.11-1.618c.976,1.216,1.88,2.489,2.82,3.733q.933,1.234,1.858,2.474a2.2,2.2,0,0,0,1.869.949c3.019-.009,6.037.009,9.056-.01a1.743,1.743,0,0,0,1.959-1.732A1.725,1.725,0,0,0,34.2,259.7c-2.012-.033-4.032-.115-6.035.022a3.774,3.774,0,0,1-3.771-1.874c-1.48-2.214-3.2-4.261-4.8-6.4a3.576,3.576,0,0,0-.66-.721,1.042,1.042,0,0,0-1.312-.09,7.164,7.164,0,0,1-7.6.165,1.255,1.255,0,0,0-1.529.121,2.989,2.989,0,0,0-1.168,2.5c0,2.264,0,4.528,0,6.792a2.079,2.079,0,0,1-.252,1.237c-.247.359-.527.669-1,.538a4.282,4.282,0,0,1,.045,2.765c.765-.011,1.164.4,1.211,1.308" transform="translate(-4.852 -199.868)" fill="#fe6978"/><path d="M5.589,307.438a1.044,1.044,0,0,1-.124-.042h0a26.038,26.038,0,0,1,.063,2.81h0c.036,0,.071,0,.106,0a4.283,4.283,0,0,0-.045-2.765" transform="translate(-4.361 -245.31)" fill="#fe6978"/><path d="M17.623,328.783c-3.083.018-6.167,0-9.25.007-.271,0-.564.052-.759-.223a11.105,11.105,0,0,1-.107-2.6c-.03-1.121.032-2.245-.026-3.365-.047-.913-.446-1.319-1.211-1.308,0,.01,0,.02-.008.03a1.383,1.383,0,0,1,1.019,1.581c-.033,1.98,0,3.962.007,5.943,3.287,0,6.574-.006,9.861.025a.907.907,0,0,0,.473-.09" transform="translate(-4.998 -256.401)" fill="#fe6978"/><path d="M6.983,260.376a2.079,2.079,0,0,0,.252-1.237c0-2.264,0-4.528,0-6.792a2.988,2.988,0,0,1,1.168-2.5,1.256,1.256,0,0,1,1.529-.121,7.164,7.164,0,0,0,7.6-.165,1.042,1.042,0,0,1,1.312.09,3.58,3.58,0,0,1,.66.721c1.6,2.136,3.319,4.183,4.8,6.4a3.775,3.775,0,0,0,3.771,1.874c2-.137,4.023-.055,6.035-.022a1.725,1.725,0,0,1,1.847,1.911,1.743,1.743,0,0,1-1.959,1.732c-3.019.019-6.037,0-9.056.01a2.2,2.2,0,0,1-1.869-.949q-.928-1.238-1.858-2.474c-.94-1.244-1.844-2.517-2.82-3.733a1.341,1.341,0,1,0-2.11,1.618c.411.572.837,1.133,1.257,1.7l.069.094q0-.145,0-.29c-.455-.63-.935-1.243-1.356-1.895a1.029,1.029,0,0,1,.244-1.477,1.049,1.049,0,0,1,1.5.1,4.142,4.142,0,0,1,.425.527c1.514,2,3.034,4.006,4.537,6.019a2.3,2.3,0,0,0,1.985,1.01c2.992-.019,5.983,0,8.975-.01a2.079,2.079,0,1,0,0-4.134c-2.363-.008-4.726-.021-7.089.008a1.855,1.855,0,0,1-1.652-.834c-1.843-2.48-3.718-4.937-5.576-7.406a2.822,2.822,0,0,0-1.055-.942.913.913,0,0,0-.974.07,7.01,7.01,0,0,1-7.816.125.927.927,0,0,0-1.04-.034,3.053,3.053,0,0,0-1.685,2.82c0,2.413,0,4.827,0,7.24,0,.906-.242,1.229-1.066,1.422.009.022.015.043.024.065.47.131.751-.178,1-.538" transform="translate(-4.758 -198.786)" fill="#fe6978"/><path d="M5.883,321.3c-.035,0-.069,0-.106,0,.034.008.066.018.1.027,0-.01,0-.02.008-.03" transform="translate(-4.61 -256.402)" fill="#fe6978"/><path d="M5.589,307.347c-.009-.022-.015-.044-.024-.065l-.1.023h0a1.044,1.044,0,0,0,.124.042" transform="translate(-4.361 -245.219)" fill="#fe6978"/><path d="M254.662,271.625c-.02-6.213-.005-12.425-.022-18.638a2.742,2.742,0,0,0-.64-1.931,7.313,7.313,0,0,1-7.015-.181c-1.013-.544-1.393-.483-2.1.453-1.286,1.708-2.606,3.39-3.88,5.107-.57.767-1.162,1.519-1.716,2.3a2.285,2.285,0,0,1-2.05,1.029c-2.339-.033-4.679-.026-7.018,0a1.83,1.83,0,0,0-.3,3.646,6.184,6.184,0,0,0,.679.017c2.817,0,5.635-.024,8.452.014a2.532,2.532,0,0,0,2.249-1.107c1.436-1.941,2.871-3.884,4.364-5.782a2.7,2.7,0,0,1,.666-.712,1.275,1.275,0,0,1,1.914,1.5,3.763,3.763,0,0,1-.59.961q-1.355,1.813-2.717,3.622a3.957,3.957,0,0,0-.559.893,1.857,1.857,0,0,0-.083.745q0,3.922,0,7.844c0,.821.093.918.9.918,3.069,0,6.137.015,9.206-.009.193-.1.257-.311.256-.681" transform="translate(-182.178 -199.93)" fill="#cbf39e"/><path d="M243.144,270.559c-.006.606.18.764.768.758q4.451-.041,8.9,0a1.072,1.072,0,0,0,.508-.084c-3.069.024-6.137.006-9.206.009-.811,0-.9-.1-.9-.918q-.007-3.922,0-7.844a1.861,1.861,0,0,1,.083-.745,3.953,3.953,0,0,1,.559-.893q1.358-1.812,2.717-3.622a3.769,3.769,0,0,0,.59-.961,1.275,1.275,0,0,0-1.914-1.5,2.7,2.7,0,0,0-.666.712c-1.493,1.9-2.928,3.841-4.364,5.782a2.532,2.532,0,0,1-2.249,1.107c-2.817-.038-5.634-.013-8.452-.014a6.184,6.184,0,0,1-.679-.017,1.83,1.83,0,0,1,.3-3.646c2.339-.021,4.679-.028,7.018,0a2.285,2.285,0,0,0,2.049-1.029c.554-.779,1.146-1.53,1.716-2.3,1.274-1.717,2.594-3.4,3.88-5.107.705-.936,1.085-1,2.1-.453a7.313,7.313,0,0,0,7.015.181c-.036-.039-.069-.079-.109-.117a7.185,7.185,0,0,1-7.11-.457,1.131,1.131,0,0,0-1.369.016,2.9,2.9,0,0,0-.779.809c-1.86,2.467-3.733,4.923-5.575,7.4a1.856,1.856,0,0,1-1.658.821c-2.363-.028-4.725,0-7.088-.015a2.217,2.217,0,0,0-1.659.573,2.036,2.036,0,0,0-.514,2.22,1.993,1.993,0,0,0,1.981,1.345c2.941.015,5.883-.034,8.822.027a2.87,2.87,0,0,0,2.6-1.326c1.1-1.529,2.256-3.017,3.39-4.522.423-.562.824-1.142,1.282-1.674a1.055,1.055,0,0,1,1.49-.2,1.1,1.1,0,0,1,.289,1.534,6.481,6.481,0,0,1-.4.549l-3.363,4.531c0,3.018.02,6.037-.009,9.055" transform="translate(-181.095 -198.856)" fill="#cbf39e"/><line transform="translate(17.686 66.104)" fill="#cf8f7f"/><path d="M126.834,332.852c0-1.584-.033-3.17.017-4.752.021-.672-.181-.84-.844-.839q-18.861.029-37.723.014c-.327,0-.654-.005-.981-.008-.017,1.907-.008,3.815-.066,5.721-.019.636.174.78.793.779q19.03-.028,38.06-.015c.2,0,.4-.014.6-.022a1.444,1.444,0,0,0,.141-.877" transform="translate(-69.617 -261.162)" fill="#cf8f7f"/><path d="M160.174,249.4a14.134,14.134,0,0,1,0-1.65,3.38,3.38,0,0,0-1.548-3.049,1.12,1.12,0,0,1-.441-.493c-3.708,3.079-6.853,3.08-10.569-.01a.433.433,0,0,0-.524-.1,8.509,8.509,0,0,0-3.123,2.048,2.2,2.2,0,0,0-.587,1.578c.024,1.232.036,2.466-.006,3.7-.019.537.161.658.668.682a4.271,4.271,0,0,1,4.113,4.116,5.27,5.27,0,0,1-.439,2.2c.867.126,10.115.1,10.675-.028-.859-2.685-.322-4.324,1.92-5.857a13.353,13.353,0,0,1-.141-3.13" transform="translate(-114.417 -194.755)" fill="#ead1fe"/><path d="M360.634,262.982c-1.012-.088-1.434-.557-1.446-1.693-.023-2.284-.011-4.569,0-6.853a3.43,3.43,0,0,0-.45-1.8,1.635,1.635,0,0,0-2.407-.816.9.9,0,0,1,.386.5,4.2,4.2,0,0,1,.363,1.76q0,9.057,0,18.114c0,.533-.016.806-.164.947.445,0,.889-.006,1.334-.012.846-.012.909-.066.915-.9.013-1.684-.015-3.369.012-5.053.017-1.027.292-1.37,1.21-1.635.054,0,.1,0,.156.008a3.268,3.268,0,0,1,.1-2.565" transform="translate(-284.358 -200.762)" fill="#b2e49e"/><path d="M320.828,312.318c-.052,0-.1-.008-.156-.008-.918.265-1.193.609-1.21,1.635-.027,1.684,0,3.369-.012,5.053-.006.83-.069.885-.915.9-.445.006-.889.008-1.334.012-.146.139-.421.149-.94.149-2.943,0-5.887-.015-8.83.013-.6.006-.821-.117-.812-.772.037-2.817.015-5.635.019-8.453a1.141,1.141,0,0,1,.073-.663c-.211.179-.117.422-.117.635-.007,2.865.016,5.73-.021,8.6-.008.627.205.732.768.728q5.805-.036,11.611-.005c.565,0,.772-.1.756-.726-.047-1.834-.02-3.669-.015-5.5,0-.948.244-1.234,1.175-1.429h0l-.039-.157" transform="translate(-244.652 -247.532)" fill="#b2e49e"/><path d="M357.726,251.1a3.429,3.429,0,0,1,.45,1.8c-.006,2.285-.018,4.569,0,6.853.012,1.136.434,1.6,1.446,1.693.032-.054.066-.108.1-.162h0c-.992-.052-1.337-.4-1.339-1.4,0-2.462.014-4.925-.009-7.387a3.062,3.062,0,0,0-1.651-2.691c-.729-.443-1.15.136-1.667.427a.548.548,0,0,1,.255.046,1.635,1.635,0,0,1,2.407.816" transform="translate(-283.35 -199.223)" fill="#b2e49e"/><path d="M376.415,308.041a3.268,3.268,0,0,0-.1,2.565l.053,0a13.7,13.7,0,0,1,.1-2.573c-.015,0-.027.005-.042.006l-.015,0" transform="translate(-300.14 -245.821)" fill="#b2e49e"/><path d="M377.159,320.761l.039.157c.006-.051.01-.1.015-.155l-.053,0" transform="translate(-300.983 -255.976)" fill="#b2e49e"/><path d="M377.65,307.42l.015,0c.015,0,.027-.005.042-.006.014-.053.029-.1.046-.157h0c-.038.054-.072.108-.1.162" transform="translate(-301.374 -245.2)" fill="#b2e49e"/><path d="M356.493,273.157q.012-9.057,0-18.114a4.2,4.2,0,0,0-.363-1.76.9.9,0,0,0-.386-.5c-.047.022-.095.044-.143.069h0a2.743,2.743,0,0,1,.64,1.932c.017,6.213,0,12.425.022,18.637,0,.37-.063.578-.256.681l.32,0c.148-.141.163-.415.164-.947" transform="translate(-283.78 -201.731)" fill="#b2e49e"/><path d="M306.818,310.843c0,2.818.018,5.636-.019,8.453-.008.655.216.777.812.771,2.943-.028,5.887-.013,8.831-.013.519,0,.794-.01.94-.149l-.32,0a1.073,1.073,0,0,1-.507.085q-4.452-.043-8.9,0c-.589.005-.774-.152-.768-.758.028-3.018.01-6.036.008-9.055a1.145,1.145,0,0,0-.073.663" transform="translate(-244.833 -247.532)" fill="#b2e49e"/><path d="M355.173,252.672h0c.049-.025.1-.047.143-.069a.549.549,0,0,0-.255-.046h0c.04.037.073.078.109.117" transform="translate(-283.35 -201.545)" fill="#b2e49e"/><path d="M187.765,244.518a3.687,3.687,0,0,1-.421-.064,1.781,1.781,0,0,0,.421.064" transform="translate(-149.505 -195.081)" fill="#fecabd"/><path d="M165.8,207.211a4.837,4.837,0,0,0,4.312,4.312c1.673,0,2.147-1.367,2.755-2.5a7.729,7.729,0,0,0,.478-3.842c0-.654,0-1.308,0-1.962-2.383-.009-4.766-.013-7.149-.032-.31,0-.45.064-.442.412.027,1.2-.031,2.412.048,3.611" transform="translate(-132.276 -162.149)" fill="#fecabd"/><path d="M23.406,183.651a7.024,7.024,0,0,0,.709-2.75c.116-1.293.883-1.7,1.987-1.045.625-.362.149-.868.121-1.279-.082-1.2-.544-1.579-1.729-1.583-1.246,0-2.492-.016-3.738-.024h0a2.179,2.179,0,0,0-1.85,2.152c-.045,1.834-.014,3.67-.015,5.505,0,.2.007.384.247.491a3.611,3.611,0,0,0,4.268-1.467" transform="translate(-15.068 -141.227)" fill="#c58a86"/><path d="M336.519,244.513a3.276,3.276,0,0,1-.386-.061,1.426,1.426,0,0,0,.386.061" transform="translate(-268.243 -195.079)" fill="#c58a86"/><path d="M320.439,212.594a5.608,5.608,0,0,0,1.218-2.295,5.33,5.33,0,0,1-4.126-3.754c-.358-1.037-.359-1.03-1.492-.828a4.807,4.807,0,0,1-1.046.1c-.374-.017-.475.117-.465.472.026.928-.018,1.859.037,2.784a4.852,4.852,0,0,0,4.326,4.385,1.617,1.617,0,0,0,1.549-.861" transform="translate(-251.001 -164.083)" fill="#c58a86"/><path d="M321.947,178.65c-.275-1.378-.632-1.66-2.05-1.664-1.18,0-2.36-.015-3.54-.024h0a2.059,2.059,0,0,0-1.733,1.66,9.863,9.863,0,0,0-.076,1.57c-.033.457.187.567.589.519a3.919,3.919,0,0,0,2.077-.788,1.252,1.252,0,0,1,1.384-.293,1.291,1.291,0,0,1,.682,1.24,6.834,6.834,0,0,0,.592,2.543,2.619,2.619,0,0,0,2.1,1.713q0-2.938,0-5.876a3.089,3.089,0,0,0-.029-.6" transform="translate(-251.015 -141.221)" fill="#477a9d"/><path d="M64.055,308.3a3.637,3.637,0,0,1-.049.751.65.65,0,0,1-.136.3c.446,0,.891,0,1.336-.009.87-.009.936-.071.938-.957.007-2.59,0-5.179.006-7.769a2.194,2.194,0,0,0-.463-1.4c-.574-.752-1.143-1.507-1.7-2.272a3.531,3.531,0,0,1,.067.723q0,5.315,0,10.63" transform="translate(-50.97 -236.968)" fill="#ce4351"/><path d="M23.77,297.147a2.2,2.2,0,0,1,.463,1.4c-.008,2.59,0,5.179-.006,7.769,0,.886-.068.948-.938.957-.445,0-.891.006-1.336.009a.458.458,0,0,1-.372.144c-3.39-.028-6.78.053-10.169-.045-.023,0-.045-.021-.067-.033.1.281.34.155.512.155,3.993,0,7.986-.012,11.979,0,.454,0,.6-.123.6-.591-.019-2.963-.011-5.927-.008-8.89a.959.959,0,0,0-.183-.632c-.785-1.008-1.563-2.023-2.344-3.035a2.363,2.363,0,0,1,.171.524c.554.765,1.124,1.52,1.7,2.272" transform="translate(-9.052 -234.9)" fill="#ce4351"/><path d="M62.732,307.767c0,.336-.04.551-.223.66l.275,0a.65.65,0,0,0,.136-.3,3.638,3.638,0,0,0,.049-.751q0-5.315,0-10.63a3.532,3.532,0,0,0-.067-.723c-.057-.078-.115-.155-.171-.233,0,3.993-.015,7.987,0,11.98" transform="translate(-49.884 -236.046)" fill="#ce4351"/><path d="M21.581,358.506a.458.458,0,0,0,.372-.144l-.275,0a.907.907,0,0,1-.473.09c-3.287-.031-6.574-.021-9.861-.025.022.011.045.032.067.033,3.39.1,6.78.016,10.169.045" transform="translate(-9.053 -285.982)" fill="#ce4351"/><path d="M63.62,294.641c.056.078.115.155.171.233a2.361,2.361,0,0,0-.171-.523q0,.145,0,.29" transform="translate(-50.77 -234.9)" fill="#ce4351"/><path d="M87.568,327.289Z" transform="translate(-69.882 -261.185)" fill="#bd694f"/><path d="M88.267,326.556c-.232,0-.5-.124-.7.123a1.764,1.764,0,0,1,.817-.064q18.924-.005,37.849,0c1.04,0,1.106.055,1.114,1.093q.018,2.186,0,4.373c0,.39.059.827-.388,1.065.628.008,1.258-.016,1.883.033.549.043.743-.113.73-.7q-.06-2.563,0-5.129c.016-.628-.163-.8-.795-.8q-20.254.02-40.508,0" transform="translate(-69.882 -260.575)" fill="#bd694f"/><path d="M127.345,332.37q.025-2.186,0-4.373c-.008-1.038-.075-1.093-1.114-1.093q-18.925,0-37.849,0a1.77,1.77,0,0,0-.817.064h0c.327,0,.654.008.98.008q18.861,0,37.723-.014c.663,0,.865.167.844.839-.05,1.583-.015,3.168-.017,4.753a1.444,1.444,0,0,1-.141.877c.447-.238.384-.675.388-1.065" transform="translate(-69.882 -260.868)" fill="#bd694f"/><path d="M166.128,180.011q3.575-.008,7.151-.024c0-.8-.019-1.6.012-2.4.019-.47-.169-.6-.613-.593-1.722.01-3.445-.01-5.167-.019a2.332,2.332,0,0,0-1.816,2.774c.036.317.245.26.433.259" transform="translate(-132.212 -141.233)" fill="#fee49f"/><path d="M40.655,244.47a3.6,3.6,0,0,1-.386-.069,1.426,1.426,0,0,0,.386.069" transform="translate(-32.136 -195.038)" fill="#fecabd"/><path d="M26.874,213.208a6.409,6.409,0,0,0,1.245-3.938c.024-.527,0-1.056.005-1.585,0-.281.016-.564-.3-.708a.863.863,0,0,0-.167.406,5.3,5.3,0,0,1-4.836,4.07c-.588.052-1.185.007-1.775.007a4.611,4.611,0,0,0,3.883,3.076c1.016.1,1.444-.716,1.947-1.327" transform="translate(-16.794 -165.172)" fill="#fecabd"/><path d="M331.677,178.891a2.4,2.4,0,0,0-2.542-2.557c-1.631-.014-3.263-.014-4.894-.014-.245,0-.506-.061-.723.122,1.53-.114,3.061-.022,4.592-.047a.889.889,0,0,1,.809.582,3.715,3.715,0,0,1,.452,1.734q.015,2.526,0,5.051a1.043,1.043,0,0,1-.235.844,3.623,3.623,0,0,0,1.847.048c.549-.038.721-.248.71-.794-.032-1.656,0-3.313-.015-4.97" transform="translate(-258.176 -140.701)" fill="#365d7c"/><path d="M329.37,184.051q.016-2.526,0-5.051a3.717,3.717,0,0,0-.452-1.734.89.89,0,0,0-.809-.582c-1.531.025-3.062-.067-4.592.047h0c1.18.008,2.36.02,3.54.023,1.418,0,1.775.286,2.05,1.664a3.087,3.087,0,0,1,.029.6q0,2.938,0,5.876a1.041,1.041,0,0,0,.235-.843" transform="translate(-258.176 -140.989)" fill="#365d7c"/><path d="M219.314,244.5a14.148,14.148,0,0,0-1.938-.98c-.279-.115-.535-.178-.668.2a3.672,3.672,0,0,1,2.2,3.387c.009,1.5-.04,3.005.032,4.507a.6.6,0,0,1-.1.427,4.408,4.408,0,0,1,1.88-.44c.485.037.582-.175.569-.613a20.64,20.64,0,0,1,.01-2.93,3.452,3.452,0,0,0-1.981-3.554" transform="translate(-172.939 -194.263)" fill="#d6bdef"/><path d="M218.939,252.733c-.071-1.5-.023-3-.032-4.507a3.672,3.672,0,0,0-2.2-3.387,1.121,1.121,0,0,0,.441.493,3.379,3.379,0,0,1,1.548,3.049,14.181,14.181,0,0,0,0,1.65,13.354,13.354,0,0,0,.141,3.13.6.6,0,0,0,.1-.427" transform="translate(-172.938 -195.387)" fill="#d6bdef"/><path d="M191.1,210.547a2.145,2.145,0,0,1-1.676,1.039,4.949,4.949,0,0,0,5.081-4.114,35.563,35.563,0,0,0,.1-3.834c.017-.391-.161-.462-.494-.449-.626.024-1.253.022-1.88.03.048.058.121.113.124.185.132,2.477.5,5-1.258,7.143" transform="translate(-151.167 -162.149)" fill="#f6bdae"/><path d="M190.1,209.148c-.608,1.132-1.082,2.5-2.755,2.5a3.778,3.778,0,0,0,.421.064,2.146,2.146,0,0,0,1.676-1.039c1.755-2.147,1.39-4.665,1.258-7.143,0-.072-.076-.128-.124-.185,0,.654,0,1.308,0,1.962a7.729,7.729,0,0,1-.478,3.842" transform="translate(-149.506 -162.274)" fill="#f6bdae"/><path d="M47.438,205.436c.014-.3-.167-.3-.388-.3a5.371,5.371,0,0,1-1.911-.325c-.426-.163-.479.059-.45.394.392-.03.468.266.478.536a9.358,9.358,0,0,1-.814,5.123,6.91,6.91,0,0,1-1.2,1.534,1.3,1.3,0,0,1-.978.434,4.946,4.946,0,0,0,5.07-3.583,16.684,16.684,0,0,0,.189-3.811" transform="translate(-33.66 -163.399)" fill="#f6bdae"/><path d="M42.83,212.626a9.358,9.358,0,0,0,.814-5.123c-.011-.27-.086-.566-.478-.536.317.144.3.427.3.708,0,.528.02,1.058,0,1.585a6.411,6.411,0,0,1-1.245,3.938c-.5.611-.93,1.429-1.947,1.327a3.594,3.594,0,0,0,.386.069,1.3,1.3,0,0,0,.977-.434,6.915,6.915,0,0,0,1.2-1.534" transform="translate(-32.136 -165.163)" fill="#f6bdae"/><path d="M32.726,176.385a.681.681,0,0,1,.588.269,3.5,3.5,0,0,1,.629,2.262.378.378,0,0,1-.432.407,2.673,2.673,0,0,0,.958.581c1.54.63,1.82.439,1.782-1.194a2.3,2.3,0,0,0-2.381-2.374c-1.131-.019-2.262-.03-3.392,0a8.166,8.166,0,0,0-2.312.1c1.519-.118,3.041-.019,4.562-.052" transform="translate(-22.476 -140.694)" fill="#bc7c78"/><path d="M31.9,176.759c1.186,0,1.647.379,1.729,1.583.028.41.5.916-.121,1.278a.378.378,0,0,0,.433-.407,3.5,3.5,0,0,0-.629-2.262.681.681,0,0,0-.588-.269c-1.52.032-3.042-.066-4.562.052h0c1.246.008,2.492.02,3.738.024" transform="translate(-22.475 -140.991)" fill="#bc7c78"/><path d="M180.194,176.451c.256,0,.482.071.5.34a4.779,4.779,0,0,1-.161,2.723c.626.009,1.253,0,1.877.034.409.024.516-.139.5-.52-.025-.651-.036-1.3,0-1.954.031-.512-.114-.692-.659-.686-2.28.027-4.56.005-6.84.006-.22,0-.455-.054-.649.111,1.808-.118,3.617-.021,5.426-.054" transform="translate(-139.469 -140.76)" fill="#f0cc7d"/><path d="M179.935,176.757c.444,0,.631.123.613.593-.031.8-.011,1.6-.013,2.4a4.78,4.78,0,0,0,.161-2.723c-.022-.269-.247-.345-.5-.34-1.808.033-3.618-.064-5.425.054h0c1.722.009,3.445.029,5.167.019" transform="translate(-139.469 -140.993)" fill="#f0cc7d"/><path d="M340.426,228.826c.2.276.045.538-.061.78a7.342,7.342,0,0,1-1.231,1.887,1.4,1.4,0,0,1-1.088.55,4.717,4.717,0,0,0,4.767-3.206,8.271,8.271,0,0,1-2.387-.011" transform="translate(-269.77 -182.609)" fill="#bc7c78"/><path d="M337.607,231.493a7.332,7.332,0,0,0,1.231-1.887c.107-.242.263-.5.062-.78a5.608,5.608,0,0,1-1.218,2.295,1.617,1.617,0,0,1-1.549.861,3.276,3.276,0,0,0,.386.061,1.4,1.4,0,0,0,1.088-.55" transform="translate(-268.243 -182.609)" fill="#bc7c78"/><path d="M14.8,30.524q5.731-.012,11.462-.023c4.651,0,9.3-.063,13.951.021a5.862,5.862,0,0,0,5.6-5.642c-.017-4.374,0-8.748,0-13.122a3.5,3.5,0,0,0-2.068-.56c-8.3-.011-16.6-.026-24.9,0a4.572,4.572,0,0,0-4.578,4.635c-.023,4.2-.01,8.4,0,12.6a3.907,3.907,0,0,0,.525,2.088m26.764-7.262q-5.164.007-10.328,0c-3.392,0-6.785,0-10.177,0a1.2,1.2,0,0,1-1.244-.654,1.113,1.113,0,0,1,.86-1.591A4.334,4.334,0,0,1,21.425,21H41.177c.126,0,.251,0,.377,0,.848.022,1.388.487,1.365,1.174-.023.667-.531,1.086-1.356,1.087M20.921,15.077c3.216-.009,6.432,0,9.648,0H31.4c3.392,0,6.784,0,10.175,0a1.207,1.207,0,0,1,1.206.594,1.049,1.049,0,0,1-.06,1.141,1.343,1.343,0,0,1-1.256.527c-2.136-.007-4.271,0-6.407,0H21.489c-.2,0-.4.011-.6,0A1.153,1.153,0,0,1,19.7,16.132a1.118,1.118,0,0,1,1.223-1.056m.213,11.9c1.633-.006,3.265,0,4.9,0,1.658,0,3.315,0,4.973,0,.921,0,1.4.379,1.414,1.09.018.739-.488,1.169-1.426,1.171q-4.936.009-9.871,0c-.92,0-1.452-.46-1.424-1.183.027-.69.528-1.075,1.436-1.078" transform="translate(-11.382 -8.925)" fill="#ebf3fe"/><path d="M48.166,27.034a6.165,6.165,0,0,1-6.089,6c-7.947-.1-15.9-.032-23.846-.033a2.314,2.314,0,0,1-1.32-.212A4.4,4.4,0,0,0,20.8,35.337c.935.066,1.307.441,1.316,1.37.008.786,0,1.572,0,2.545,1.17-1.181,2.209-2.2,3.211-3.254a2.023,2.023,0,0,1,1.6-.663q9.423.026,18.847.005a4.54,4.54,0,0,0,4.671-4.521q.085-6.407,0-12.816a4.229,4.229,0,0,0-2.5-3.976,1.5,1.5,0,0,1,.228,1.008c0,4-.019,8,.007,12" transform="translate(-13.495 -11.194)" fill="#dce9fa"/><path d="M47.927,27.148a5.862,5.862,0,0,1-5.6,5.642c-4.649-.084-9.3-.026-13.951-.022q-5.731.005-11.462.024A2.318,2.318,0,0,0,18.23,33c7.949,0,15.9-.066,23.846.033a6.165,6.165,0,0,0,6.089-6c-.026-4,0-8-.007-12a1.5,1.5,0,0,0-.228-1.008c0,4.374-.02,8.748,0,13.122" transform="translate(-13.495 -11.193)" fill="#dce9fa"/><path d="M63.032,59.77c-.126,0-.251,0-.377,0H42.9a4.332,4.332,0,0,0-.752.024,1.113,1.113,0,0,0-.86,1.591,1.2,1.2,0,0,0,1.244.654c3.392-.009,6.785,0,10.177,0q5.164,0,10.328,0c.825,0,1.333-.421,1.356-1.087.023-.688-.517-1.153-1.365-1.174" transform="translate(-32.86 -47.695)"/><path d="M42.356,32.67c.2.015.4,0,.6,0H56.526c2.136,0,4.271,0,6.407,0a1.344,1.344,0,0,0,1.256-.527,1.049,1.049,0,0,0,.06-1.141,1.207,1.207,0,0,0-1.206-.595c-3.392.009-6.784,0-10.175,0h-.829c-3.216,0-6.432,0-9.648,0a1.118,1.118,0,0,0-1.223,1.056,1.153,1.153,0,0,0,1.188,1.191" transform="translate(-32.852 -24.271)" fill="#000101"/><path d="M42.594,91.63q4.936.01,9.871,0c.938,0,1.443-.431,1.426-1.171-.017-.71-.493-1.086-1.414-1.09-1.658-.006-3.316,0-4.973,0-1.633,0-3.265,0-4.9,0-.908,0-1.409.388-1.436,1.078-.028.723.5,1.181,1.424,1.183" transform="translate(-32.854 -71.317)" fill="#010101"/></g></g></g></svg>