<svg xmlns="http://www.w3.org/2000/svg" xmlns:xlink="http://www.w3.org/1999/xlink" width="367.5" height="74.858" viewBox="0 0 367.5 74.858"><defs><clipPath id="a"><rect width="80.84" height="74.859" fill="none"/></clipPath></defs><g transform="translate(-180 -8597.426)"><path d="M0,0H357l-2.849,52.528L0,52Z" transform="translate(180 8608.898)" fill="#fff0a6"/><path d="M5.576,6.781,8.75,16.674l3.164-9.893h4.512V21H12.988V17.68l.332-6.8L9.883,21H7.617L4.17,10.873,4.5,17.68V21H1.074V6.781ZM23.564,21.2a5.432,5.432,0,0,1-3.936-1.45,5.008,5.008,0,0,1-1.5-3.774V15.7a6.489,6.489,0,0,1,.6-2.861,4.395,4.395,0,0,1,1.753-1.919,5.292,5.292,0,0,1,2.734-.679,4.574,4.574,0,0,1,3.516,1.382,5.43,5.43,0,0,1,1.289,3.853v1.279H21.475a2.372,2.372,0,0,0,.771,1.4,2.3,2.3,0,0,0,1.543.508,2.958,2.958,0,0,0,2.441-1.094l1.5,1.777a4.2,4.2,0,0,1-1.743,1.353A5.891,5.891,0,0,1,23.564,21.2Zm-.371-8.418q-1.445,0-1.719,1.914h3.32v-.254a1.63,1.63,0,0,0-.4-1.226A1.593,1.593,0,0,0,23.193,12.777ZM23.154,5.99h3.477L23.916,9.057l-2.686,0Zm10.02,1.816v2.627h1.738v2.285H33.174v4.834a1.234,1.234,0,0,0,.215.83,1.152,1.152,0,0,0,.85.234,4.828,4.828,0,0,0,.82-.059v2.354A6.074,6.074,0,0,1,33.2,21.2a3.448,3.448,0,0,1-2.51-.8,3.282,3.282,0,0,1-.811-2.432V12.719H28.535V10.434h1.348V7.807ZM35.5,15.619a6.236,6.236,0,0,1,.615-2.817,4.4,4.4,0,0,1,1.768-1.9,5.323,5.323,0,0,1,2.705-.664,4.858,4.858,0,0,1,3.74,1.47,5.64,5.64,0,0,1,1.367,4v.117a5.472,5.472,0,0,1-1.372,3.921,4.871,4.871,0,0,1-3.716,1.45,4.927,4.927,0,0,1-3.623-1.353,5.29,5.29,0,0,1-1.475-3.667Zm3.291.205a3.932,3.932,0,0,0,.459,2.148,1.529,1.529,0,0,0,1.357.684q1.758,0,1.8-2.705v-.332q0-2.842-1.816-2.842-1.65,0-1.787,2.451Zm7.939-.186a6.455,6.455,0,0,1,1.084-3.955,3.568,3.568,0,0,1,3.027-1.445,3.035,3.035,0,0,1,2.383,1.113V6h3.3V21H53.564L53.4,19.867A3.116,3.116,0,0,1,50.82,21.2a3.562,3.562,0,0,1-2.988-1.445A6.659,6.659,0,0,1,46.729,15.639Zm3.291.205q0,2.813,1.641,2.813a1.62,1.62,0,0,0,1.563-.918V13.715a1.576,1.576,0,0,0-1.543-.937q-1.523,0-1.65,2.461Zm7.959-.225a6.236,6.236,0,0,1,.615-2.817,4.4,4.4,0,0,1,1.768-1.9,5.323,5.323,0,0,1,2.705-.664,4.858,4.858,0,0,1,3.74,1.47,5.64,5.64,0,0,1,1.367,4v.117A5.472,5.472,0,0,1,66.8,19.745a4.871,4.871,0,0,1-3.716,1.45,4.927,4.927,0,0,1-3.623-1.353,5.29,5.29,0,0,1-1.475-3.667Zm3.291.205a3.932,3.932,0,0,0,.459,2.148,1.529,1.529,0,0,0,1.357.684q1.758,0,1.8-2.705v-.332q0-2.842-1.816-2.842-1.65,0-1.787,2.451Zm13.887,2.207a.76.76,0,0,0-.439-.674,6.684,6.684,0,0,0-1.67-.527,7.615,7.615,0,0,1-2.031-.718,3.4,3.4,0,0,1-1.221-1.079,2.577,2.577,0,0,1-.42-1.455,2.92,2.92,0,0,1,1.2-2.4,4.948,4.948,0,0,1,3.145-.942,5.482,5.482,0,0,1,3.359.947,2.962,2.962,0,0,1,1.27,2.49h-3.3q0-1.27-1.338-1.27a1.326,1.326,0,0,0-.869.288.892.892,0,0,0-.352.718.819.819,0,0,0,.43.713,4.06,4.06,0,0,0,1.372.449,11.857,11.857,0,0,1,1.655.42,3.007,3.007,0,0,1,2.383,2.939,2.767,2.767,0,0,1-1.284,2.354,5.631,5.631,0,0,1-3.325.908,5.747,5.747,0,0,1-2.422-.488,4.05,4.05,0,0,1-1.66-1.328,3.007,3.007,0,0,1-.6-1.768h3.076a1.272,1.272,0,0,0,.488,1.069,2.009,2.009,0,0,0,1.2.337,1.58,1.58,0,0,0,1.011-.273A.875.875,0,0,0,75.156,18.031Zm13.916-1.641,1.758-5.957h3.525L90.049,22.768l-.186.449a3.272,3.272,0,0,1-3.242,2.051,5.158,5.158,0,0,1-1.357-.195V22.729h.43a2.251,2.251,0,0,0,1.06-.2,1.216,1.216,0,0,0,.542-.718l.264-.7L83.887,10.434H87.4Zm14.336-4.824a3.612,3.612,0,0,1,5.332-.293,4.651,4.651,0,0,1,.908,3.057V21h-3.3V14.408a1.86,1.86,0,0,0-.342-1.235,1.469,1.469,0,0,0-1.162-.4,1.582,1.582,0,0,0-1.436.645V21h-3.291V6h3.291ZM116.592,21.2a5.432,5.432,0,0,1-3.936-1.45,5.008,5.008,0,0,1-1.5-3.774V15.7a6.489,6.489,0,0,1,.6-2.861,4.395,4.395,0,0,1,1.753-1.919,5.292,5.292,0,0,1,2.734-.679,4.574,4.574,0,0,1,3.516,1.382,5.43,5.43,0,0,1,1.289,3.853v1.279H114.5a2.372,2.372,0,0,0,.771,1.4,2.3,2.3,0,0,0,1.543.508,2.958,2.958,0,0,0,2.441-1.094l1.5,1.777a4.2,4.2,0,0,1-1.743,1.353A5.891,5.891,0,0,1,116.592,21.2Zm-.371-8.418q-1.445,0-1.719,1.914h3.32v-.254a1.63,1.63,0,0,0-.4-1.226A1.593,1.593,0,0,0,116.221,12.777Zm12.539.635-1.084-.078a1.947,1.947,0,0,0-1.992.977V21h-3.291V10.434h3.086l.107,1.357a2.548,2.548,0,0,1,2.314-1.553,3.209,3.209,0,0,1,.918.117Zm7.578,0-1.084-.078a1.947,1.947,0,0,0-1.992.977V21h-3.291V10.434h3.086l.107,1.357a2.548,2.548,0,0,1,2.314-1.553,3.209,3.209,0,0,1,.918.117ZM143.184,21a3.716,3.716,0,0,1-.312-.947,3.06,3.06,0,0,1-2.539,1.143,3.749,3.749,0,0,1-2.539-.9,2.875,2.875,0,0,1-1.045-2.271,2.955,2.955,0,0,1,1.27-2.6,6.468,6.468,0,0,1,3.691-.879h1.016v-.559q0-1.462-1.26-1.462a1.03,1.03,0,0,0-1.172,1.158H137a2.95,2.95,0,0,1,1.3-2.487,5.479,5.479,0,0,1,3.325-.956,4.8,4.8,0,0,1,3.193.986,3.429,3.429,0,0,1,1.2,2.705v4.678a4.79,4.79,0,0,0,.449,2.227V21Zm-2.061-2.148a1.836,1.836,0,0,0,1.021-.264,1.653,1.653,0,0,0,.581-.6V16.3h-.957q-1.719,0-1.719,1.543a.942.942,0,0,0,.3.728A1.1,1.1,0,0,0,141.123,18.852Zm9.834-8.418.107,1.24a3.633,3.633,0,0,1,3.018-1.436,2.675,2.675,0,0,1,2.705,1.592,3.516,3.516,0,0,1,3.105-1.592q3.213,0,3.3,3.887V21h-3.3V14.33a2.014,2.014,0,0,0-.273-1.182,1.164,1.164,0,0,0-1-.371,1.559,1.559,0,0,0-1.455.869l.01.137V21h-3.3V14.35a2.117,2.117,0,0,0-.264-1.2,1.161,1.161,0,0,0-1.006-.371,1.578,1.578,0,0,0-1.445.869V21h-3.291V10.434ZM168.545,21h-3.3V10.434h3.3Zm-3.5-13.291a1.469,1.469,0,0,1,.508-1.152,2.159,2.159,0,0,1,2.637,0,1.469,1.469,0,0,1,.508,1.152,1.469,1.469,0,0,1-.508,1.152,2.159,2.159,0,0,1-2.637,0A1.469,1.469,0,0,1,165.049,7.709ZM175.684,21.2a5.432,5.432,0,0,1-3.936-1.45,5.008,5.008,0,0,1-1.5-3.774V15.7a6.489,6.489,0,0,1,.6-2.861,4.395,4.395,0,0,1,1.753-1.919,5.292,5.292,0,0,1,2.734-.679,4.574,4.574,0,0,1,3.516,1.382,5.43,5.43,0,0,1,1.289,3.853v1.279h-6.543a2.372,2.372,0,0,0,.771,1.4,2.3,2.3,0,0,0,1.543.508,2.958,2.958,0,0,0,2.441-1.094l1.5,1.777a4.2,4.2,0,0,1-1.743,1.353A5.891,5.891,0,0,1,175.684,21.2Zm-.371-8.418q-1.445,0-1.719,1.914h3.32v-.254a1.63,1.63,0,0,0-.4-1.226A1.593,1.593,0,0,0,175.313,12.777Zm9.17-2.344.107,1.24a3.583,3.583,0,0,1,3.018-1.436,3.015,3.015,0,0,1,2.466.986,4.7,4.7,0,0,1,.845,2.969V21h-3.3V14.33a1.783,1.783,0,0,0-.322-1.177,1.491,1.491,0,0,0-1.172-.376,1.569,1.569,0,0,0-1.436.762V21H181.4V10.434Zm12.09-2.627v2.627h1.738v2.285h-1.738v4.834a1.234,1.234,0,0,0,.215.83,1.152,1.152,0,0,0,.85.234,4.828,4.828,0,0,0,.82-.059v2.354a6.074,6.074,0,0,1-1.855.283,3.448,3.448,0,0,1-2.51-.8,3.282,3.282,0,0,1-.811-2.432V12.719h-1.348V10.434h1.348V7.807ZM205.557,21a3.716,3.716,0,0,1-.312-.947,3.06,3.06,0,0,1-2.539,1.143,3.749,3.749,0,0,1-2.539-.9,2.875,2.875,0,0,1-1.045-2.271,2.955,2.955,0,0,1,1.27-2.6,6.468,6.468,0,0,1,3.691-.879H205.1v-.559q0-1.462-1.26-1.462a1.03,1.03,0,0,0-1.172,1.158h-3.291a2.95,2.95,0,0,1,1.3-2.487A5.479,5.479,0,0,1,204,10.238a4.8,4.8,0,0,1,3.193.986,3.429,3.429,0,0,1,1.2,2.705v4.678a4.79,4.79,0,0,0,.449,2.227V21ZM203.5,18.852a1.836,1.836,0,0,0,1.021-.264,1.653,1.653,0,0,0,.581-.6V16.3h-.957q-1.719,0-1.719,1.543a.942.942,0,0,0,.3.728A1.1,1.1,0,0,0,203.5,18.852Zm12.256-.82a.76.76,0,0,0-.439-.674,6.684,6.684,0,0,0-1.67-.527,7.615,7.615,0,0,1-2.031-.718,3.4,3.4,0,0,1-1.221-1.079,2.577,2.577,0,0,1-.42-1.455,2.92,2.92,0,0,1,1.2-2.4,4.948,4.948,0,0,1,3.145-.942,5.482,5.482,0,0,1,3.359.947,2.962,2.962,0,0,1,1.27,2.49h-3.3q0-1.27-1.338-1.27a1.326,1.326,0,0,0-.869.288.892.892,0,0,0-.352.718.819.819,0,0,0,.43.713,4.06,4.06,0,0,0,1.372.449,11.857,11.857,0,0,1,1.655.42,3.007,3.007,0,0,1,2.383,2.939,2.767,2.767,0,0,1-1.284,2.354,5.632,5.632,0,0,1-3.325.908,5.747,5.747,0,0,1-2.422-.488,4.05,4.05,0,0,1-1.66-1.328,3.007,3.007,0,0,1-.6-1.768h3.076a1.272,1.272,0,0,0,.488,1.069,2.009,2.009,0,0,0,1.2.337,1.58,1.58,0,0,0,1.011-.273A.875.875,0,0,0,215.752,18.031Z" transform="translate(223 8621.898)" fill="#12263f"/><g transform="translate(466.66 8597.426)"><g clip-path="url(#a)"><path d="M2.9,74.859q37.533-.039,75.066-.019c2.048,0,2.861-.812,2.861-2.857q0-16.616.008-33.232c0-.8-.191-1.4-1.058-1.588h0c-.982.1-1.312.463-1.316,1.471-.006,1.552-.024,3.105.01,4.657.013.58-.09.823-.757.813-2.077-.031-2.077,0-2.077-2.1,0-6.762.008-13.524-.014-20.286,0-.64.152-.857.823-.848,2.012.028,2.012,0,2.012,1.993q0,4.815,0,9.63c0,.986.265,1.3,1.225,1.509.857-.142,1.152-.68,1.148-1.509-.016-3.84,0-7.68-.009-11.52a2.181,2.181,0,0,0-2.437-2.434c-2.682-.021-5.366-.034-8.047.013a.954.954,0,0,1-1.093-.8c-.586-1.737-1.235-3.454-1.866-5.176a2.18,2.18,0,0,0-2.471-1.731c-1.026,0-2.051-.007-3.077,0a2.114,2.114,0,0,0-2.3,1.63c-.668,1.821-1.34,3.64-1.975,5.472a.732.732,0,0,1-.845.594c-1-.039-2-.034-3,0-.458.015-.562-.146-.566-.579a32.546,32.546,0,0,0-.081-4.1,6.141,6.141,0,0,0-12.21.4c-.075,1.206-.061,2.419-.029,3.627.014.539-.171.654-.675.652q-6.351-.027-12.7,0c-.522,0-.671-.2-.76-.645q-.519-2.545-1.081-5.082c-.1-.463-.034-.7.488-.795q2.166-.4,4.314-.906a.787.787,0,0,1,1.01.483q.583,1.115,1.208,2.208a2.079,2.079,0,0,0,2.813.977c.412-.169.823-.344,1.22-.545A3.591,3.591,0,0,0,38.3,9.294c-.7-1.352-1.441-2.679-2.178-4.01A9.924,9.924,0,0,0,24.992.259c-1.18.255-2.366.482-3.544.742-.96.212-1.194.514-1.247,1.517h0a1.391,1.391,0,0,0,1.812.8c1.328-.312,2.666-.585,4.006-.841A7.412,7.412,0,0,1,33.69,5.84c.888,1.453,1.655,2.981,2.473,4.476a1.2,1.2,0,0,1-.017,1.339,2.341,2.341,0,0,1-1.4.813c-.221.065-.265-.206-.349-.356-.346-.618-.669-1.249-1.027-1.86A2.868,2.868,0,0,0,30.106,8.79Q21.98,10.5,13.861,12.242c-.621.135-.855.064-.98-.62-.334-1.832-.755-3.648-1.169-5.464-.111-.488.008-.7.512-.79,1.212-.227,2.409-.53,3.621-.754A1.309,1.309,0,0,0,17.06,3.149c-.509-.914-.769-1.034-1.772-.825-1.362.283-2.725.561-4.086.849a2.127,2.127,0,0,0-2,2.383c-.021.642-.513.418-.79.52-.522.194-1,.3-1.141-.566a1.327,1.327,0,0,0-1.654-1.1c-1.4.234-2.787.525-4.158.876A1.473,1.473,0,0,0,.469,7.181c.421,2.137.889,4.265,1.34,6.4.13.616.253,1.235.4,1.847a1.52,1.52,0,0,0,1.851,1.289c1.318-.228,2.629-.508,3.928-.829A1.51,1.51,0,0,0,9.118,14c-.115-.527,0-.663.5-.766.675-.138,1.176-.3,1.506.609a1.869,1.869,0,0,0,2.152.935q1.583-.317,3.155-.685c.384-.089.557-.026.636.41.206,1.136.442,2.268.729,3.386.172.669-.159.657-.642.656-4.814-.011-9.628.014-14.442-.02A2.531,2.531,0,0,0,0,20.2v52.89A2.757,2.757,0,0,0,2.9,74.859m6.915-64.09c-.637.153-1.279.281-1.918.426a1.535,1.535,0,0,0-1.346,2c.12.523-.062.617-.5.705-1.662.333-1.665.348-2.029-1.306-.338-1.536-.662-3.074-.992-4.611-.022-.1-.034-.207-.066-.405a.243.243,0,0,1,.218-.27c.588-.129,1.178-.253,1.77-.365.334-.063.288.241.344.413.41,1.262.929,1.579,2.219,1.332.283-.054.563-.131.848-.166.457-.056,1.161-.455,1.306-.182a7.638,7.638,0,0,1,.555,2.187c.05.269-.253.208-.407.246m59.97,10.265c.075-.21.316-.142.492-.143.812-.005,1.625.011,2.436-.008.387-.009.577.091.562.523-.026.785-.025,1.572,0,2.358.013.408-.124.545-.537.54-1.624-.019-3.248-.008-5-.008.668-1.19,1.621-2.062,2.051-3.261m2.9,5.616c.5-.011.6.143.6.616q-.026,8.089,0,16.177c0,.488-.089.678-.633.665q-2.484-.058-4.971,0c-.507.011-.6-.152-.6-.62.022-2.709.011-5.419.011-8.128,0-2.683.012-5.366-.011-8.049,0-.488.086-.675.63-.662,1.656.04,3.315.036,4.971,0M59.473,19.586q1.095-2.951,2.138-5.92a.6.6,0,0,1,.692-.458q1.143.035,2.289,0a.592.592,0,0,1,.676.479c.691,1.953,1.412,3.9,2.129,5.839a1.387,1.387,0,0,1-.211,1.406c-.566.758-1.1,1.537-1.668,2.3a4.02,4.02,0,0,0-.8,2.5c.014,5.842,0,11.683.021,17.525,0,.642-.079.908-.827.88-1.748-.066-1.75-.019-1.75-1.767V34.47c0-2.789-.025-5.579.012-8.367a4.763,4.763,0,0,0-1.05-3.215c-.513-.631-.957-1.318-1.439-1.975a1.305,1.305,0,0,1-.215-1.326m-6.309,1.806c-.008-.369.123-.515.5-.51,1,.016,1.992,0,2.987.007.18,0,.407-.025.477.186.4,1.192,1.364,2.029,2.013,3.218-1.889,0-3.669-.011-5.449.008-.425,0-.539-.158-.529-.552.021-.785.018-1.572,0-2.358m-.012,9.052c.036-1.076.034-2.155,0-3.232-.014-.456.136-.566.573-.56,1.813.023,3.627.031,5.44,0,.537-.01.647.167.643.666-.023,2.68-.011,5.361-.011,8.042s-.015,5.362.012,8.042c.005.541-.13.716-.692.708-2.365-.031-4.73-.024-7.1,0-.439,0-.583-.1-.574-.559.028-1.5.037-3,0-4.494-.014-.522.176-.614.629-.583a4.681,4.681,0,0,0,1.867-.2,3.6,3.6,0,0,0,2.464-3.48,3.518,3.518,0,0,0-2.6-3.446c-.566-.15-.671-.383-.653-.9M43.209,14.623a3.6,3.6,0,0,1,3.2-3.591,3.727,3.727,0,0,1,4.382,3.9c.022,3.675.006,7.35.007,11.026,0,1.522-.015,3.045.008,4.568.007.466-.119.647-.615.642q-3.189-.034-6.379,0c-.483.005-.654-.146-.624-.628.043-.706.034-1.414.047-2.122-.015-2.811-.034-5.621-.042-8.432-.005-1.787-.03-3.575.016-5.361m-1.7,18.907q5.483-.014,10.965,0c1.008,0,1.549.475,1.551,1.283s-.553,1.287-1.542,1.292c-1.84.01-3.681,0-5.522,0-1.814,0-3.629.005-5.443,0-1.01,0-1.571-.451-1.592-1.243-.023-.84.536-1.331,1.583-1.334m5.242,4.946c.631,0,1.262.005,1.893,0,.265,0,.448.027.445.372-.012,1.682-.005,3.365-.013,5.048,0,.052-.089.1-.137.155-1.234.015-2.469.019-3.7.05-.355.009-.449-.125-.44-.458.027-1.024.029-2.049.041-3.073-.15-2.092-.15-2.093,1.913-2.092M40.824,30.66c.006.372-.091.52-.491.627a3.607,3.607,0,0,0-2.755,4.031,3.682,3.682,0,0,0,3.667,3.157c1.194.034,1.194.034,1.194,1.2,0,1.263-.019,2.526.01,3.789.011.462-.085.644-.6.64-3.026-.024-6.051-.014-9.077-.009-.314,0-.51-.026-.595-.428-1.185-5.65-2.394-11.294-3.612-17.006H33.9c2.1,0,4.21.015,6.315-.012.488-.006.631.127.615.616-.036,1.13-.023,2.263-.005,3.394M28,20.877c2.047.024,4.1.01,6.143.01,2,0,3.991.017,5.986-.011.548-.008.747.158.716.714-.041.733-.02,1.47-.008,2.2.006.363-.125.507-.506.506q-5.907-.015-11.814,0c-.373,0-.5-.165-.565-.495-.148-.772-.3-1.544-.487-2.306-.124-.5.037-.629.535-.623M19.68,13.408c1.022-.2,2.044-.413,3.061-.645.331-.076.462.006.524.342.166.9.364,1.785.55,2.677q1.447,6.774,2.893,13.549c1,4.7,1.984,9.4,3.011,14.087.13.595.007.723-.563.7a24.64,24.64,0,0,0-2.68,0c-.576.037-.761-.187-.87-.71Q23.96,35.55,22.278,27.7,21.2,22.617,20.125,17.534c-.043-.2-.06-.414-.089-.622a.748.748,0,0,1-.064-.286c-.206-.918-.407-1.838-.629-2.753-.079-.326.061-.41.338-.465M7.548,23.638c.039-.734.027-1.472,0-2.207-.013-.407.125-.551.539-.55,3.285.012,6.57.008,9.854.006.286,0,.488.045.555.4.165.876.377,1.743.566,2.614.113.521-.283.391-.536.392-1.734.008-3.469,0-5.2,0-1.708,0-3.416-.02-5.124.012-.527.01-.682-.159-.655-.669m-4.38-2.766c2.021.037,2.022.006,2.022,2q0,4.812,0,9.624c0,1.017.245,1.308,1.211,1.5a1.257,1.257,0,0,0,1.154-1.427c0-1.762.01-3.523-.009-5.284,0-.43.03-.645.571-.641q5.481.041,10.962,0c.472,0,.6.153.692.6q1.685,8.048,3.432,16.083c.129.594.069.794-.616.79q-7.176-.046-14.353,0c-.546,0-.709-.129-.695-.686.039-1.576.018-3.154.012-4.732,0-1.03-.284-1.368-1.252-1.542h0c-.835.121-1.127.642-1.118,1.44.018,1.551-.023,3.1.018,4.654.017.627-.117.869-.807.857-2.028-.033-2.028,0-2.028-2.054,0-6.784.009-13.568-.014-20.352,0-.641.143-.849.815-.837M2.35,71.509c.082-.887.033-1.786.042-2.68q-.012-7.577-.024-15.154c0-2.1.027-4.211-.016-6.315-.014-.691.13-.929.885-.922,4.052.042,8.1.02,12.156.02H77.436c1.027,0,1.027,0,1.027,1.059q0,10.222,0,20.445c0,.289-.015.578-.024.867.008,1.052,0,2.1.031,3.155.01.377-.113.534-.492.49a4.115,4.115,0,0,0-.473,0q-37.09,0-74.179.02c-.8,0-1.049-.182-.975-.982" transform="translate(0.001 0)"/><path d="M87.234,242.5c.008-.289.024-.578.024-.867q0-10.222,0-20.445c0-1.059,0-1.059-1.028-1.059H24.188c-4.052,0-8.1.022-12.156-.02-.755-.008-.9.23-.885.921.043,2.1.013,4.21.016,6.315q.01,7.577.024,15.154ZM59.108,232.077a2,2,0,0,1-2.247,2.235c-2.55.009-5.1,0-7.652,0-2.524,0-5.049,0-7.573,0A2.037,2.037,0,0,1,39.311,232c-.011-1.525-.015-3.05,0-4.575a2.035,2.035,0,0,1,2.246-2.258q7.651-.015,15.3,0a2.037,2.037,0,0,1,2.246,2.26q.026,2.327,0,4.654" transform="translate(-8.794 -173.668)" fill="#f19a4e"/><path d="M12.074,329.893q37.09-.036,74.179-.02a4.161,4.161,0,0,1,.473,0c.379.044.5-.113.492-.49-.028-1.051-.023-2.1-.031-3.155a1.181,1.181,0,0,1-.886.252c-.447.015-.895.006-1.342.006q-36.111,0-72.223-.006c-.538,0-1.114.143-1.6-.252-.008.894.04,1.793-.042,2.68-.074.8.179.983.975.982" transform="translate(-8.747 -257.401)" fill="#ee7d31"/><path d="M12.937,326.483q36.111.011,72.223.006c.447,0,.895.009,1.342-.006a1.181,1.181,0,0,0,.885-.252H11.341c.482.395,1.058.251,1.6.251" transform="translate(-8.948 -257.401)" fill="#ee7d31"/><path d="M60.814,14.383c-1.084.331-2.207.5-3.311.741-.62.136-.839.4-.691,1.039.372,1.615.73,3.234,1.039,4.862.112.593.423.688.96.573,4.6-.991,9.213-1.956,13.818-2.942.746-.16,1.494-.313,2.24-.471a3.018,3.018,0,0,1,3.249,1.267c.394.529.655,1.14,1.009,1.694.176.276.277.693.733.565a1.184,1.184,0,0,0,.981-.914,1.336,1.336,0,0,0-.154-.918c-.849-1.483-1.529-3.066-2.514-4.467a7.066,7.066,0,0,0-7.491-3.062c-1.348.229-2.679.557-4.022.818a1.43,1.43,0,0,1-1.79-.975,5.48,5.48,0,0,1-2.882.589,1.41,1.41,0,0,1-1.173,1.6" transform="translate(-44.79 -9.62)" fill="#d6e2f1"/><path d="M65.529,12.326c1.343-.261,2.673-.588,4.022-.818a7.066,7.066,0,0,1,7.491,3.063c.985,1.4,1.665,2.984,2.514,4.467a1.337,1.337,0,0,1,.154.918,1.184,1.184,0,0,1-.981.914c-.457.128-.557-.288-.733-.565-.354-.554-.615-1.166-1.009-1.694a3.018,3.018,0,0,0-3.249-1.267c-.746.158-1.494.311-2.24.471-4.6.986-9.214,1.951-13.818,2.942-.538.116-.848.021-.961-.573-.308-1.628-.667-3.247-1.038-4.862-.147-.64.072-.9.691-1.039,1.1-.243,2.227-.41,3.311-.741a1.409,1.409,0,0,0,1.173-1.6c-.046,0-.09-.006-.136-.012a1.309,1.309,0,0,1-1.215,1.465c-1.212.224-2.41.527-3.621.754-.5.094-.623.3-.512.79.414,1.816.836,3.632,1.169,5.464.124.684.358.754.98.62q8.115-1.756,16.245-3.452a2.868,2.868,0,0,1,3.267,1.463c.358.611.682,1.241,1.027,1.86.084.15.128.421.349.356a2.341,2.341,0,0,0,1.4-.814,1.2,1.2,0,0,0,.017-1.339c-.819-1.5-1.585-3.023-2.473-4.476a7.413,7.413,0,0,0-7.673-3.363c-1.34.256-2.678.529-4.006.841a1.391,1.391,0,0,1-1.812-.8h0l-.123.054a1.43,1.43,0,0,0,1.79.975" transform="translate(-43.66 -8.779)" fill="#d6e2f1"/><path d="M84.389,12.089l-.012-.027-2.87.577c0,.014,0,.026,0,.04a5.48,5.48,0,0,0,2.882-.589" transform="translate(-64.31 -9.517)" fill="#d6e2f1"/><path d="M81,14.836c0-.013,0-.026,0-.04l-.136.027c.046.007.091.007.136.012" transform="translate(-63.803 -11.674)" fill="#d6e2f1"/><path d="M95.245,11.934l-.135.027.012.028.123-.055" transform="translate(-75.043 -9.416)" fill="#d6e2f1"/><path d="M95.191,75.234c-.329.026-.472.287-.462.615l-.064-.286a.747.747,0,0,0,.064.286c.029.207.046.418.09.622q1.073,5.083,2.152,10.165,1.667,7.854,3.327,15.71c.11.523.294.748.87.71a24.746,24.746,0,0,1,2.68,0c.57.025.693-.1.563-.7-1.026-4.691-2.01-9.391-3.011-14.087q-1.443-6.775-2.893-13.549c-1.153-.138-2.2.428-3.317.515" transform="translate(-74.692 -58.937)" fill="#5eceb3"/><path d="M283.189,72.279a4.762,4.762,0,0,1,1.05,3.215c-.036,2.789-.012,5.578-.012,8.367v7.894c0,1.749,0,1.7,1.75,1.768.748.028.83-.238.827-.88-.024-5.841-.007-11.683-.021-17.524a4.02,4.02,0,0,1,.8-2.5c.564-.759,1.1-1.539,1.668-2.3a1.387,1.387,0,0,0,.211-1.406c-.717-1.944-1.438-3.886-2.129-5.839a.592.592,0,0,0-.676-.479c-.762.025-1.526.024-2.289,0a.6.6,0,0,0-.692.458q-1.046,2.969-2.138,5.92a1.305,1.305,0,0,0,.215,1.326c.481.657.926,1.344,1.439,1.975" transform="translate(-222.062 -49.391)" fill="#d6e2f1"/><path d="M204.725,69.671c1.364,0,2.729-.021,4.092.006.516.011.677-.162.675-.676-.016-4.434.011-8.868-.022-13.3a5.135,5.135,0,0,0-1.572-3.413,3.6,3.6,0,0,0-3.2,3.591c-.046,1.786-.022,3.574-.016,5.361.009,2.811.027,5.621.042,8.432" transform="translate(-161.49 -41.256)" fill="#f19a4e"/><path d="M361.952,111.229c-.02-3.154-.005-6.308-.007-9.463,0-.237,0-.473,0-.71-.012-1.081-.075-1.141-1.18-1.139-1.088,0-1.164.067-1.164,1.159q-.007,10.212,0,20.424,0,.276.02.551a.523.523,0,0,0,.536.558c.052,0,.1.008.157.013,1.514.143,1.63.037,1.634-1.462,0-1.262-.036-2.524.017-3.785.044-1.04.522-1.5,1.492-1.5a4.5,4.5,0,0,1-.069-2.9l-.042.008c-1.023-.2-1.384-.626-1.39-1.754" transform="translate(-283.728 -78.837)" fill="#d66134"/><path d="M362.554,115.09c-.97,0-1.448.464-1.492,1.5-.053,1.26-.014,2.523-.017,3.784,0,1.5-.12,1.6-1.634,1.462-.052,0-.1-.01-.157-.013a.523.523,0,0,1-.535-.558q-.02-.276-.02-.551,0-10.212,0-20.424c0-1.093.076-1.157,1.164-1.159,1.1,0,1.168.058,1.18,1.139,0,.237,0,.473,0,.71,0,3.154-.012,6.308.008,9.463.007,1.128.368,1.555,1.391,1.754l.042-.008c.011-.045.022-.09.034-.135-.961-.207-1.224-.523-1.225-1.509q-.005-4.815,0-9.63c0-1.994,0-1.965-2.013-1.993-.672-.009-.825.209-.823.848.022,6.762.013,13.524.013,20.286,0,2.1,0,2.067,2.077,2.1.667.01.77-.233.757-.813-.035-1.552-.016-3.1-.01-4.657,0-1.008.334-1.369,1.316-1.471h0c-.02-.042-.037-.084-.054-.127" transform="translate(-282.827 -78.053)" fill="#d66134"/><path d="M376.853,164.683h.031a13.968,13.968,0,0,1-.068-2.9l-.032.006a4.5,4.5,0,0,0,.069,2.9" transform="translate(-297.126 -127.646)" fill="#d66134"/><path d="M377.932,175.667h0c-.01-.043-.016-.085-.024-.128h-.031c.018.042.035.084.054.127" transform="translate(-298.152 -138.504)" fill="#d66134"/><path d="M377.549,161.3l.033-.006c0-.043,0-.086,0-.129-.012.045-.023.09-.034.135" transform="translate(-297.892 -127.163)" fill="#d66134"/><path d="M11.171,120.11c0,2.052,0,2.021,2.029,2.054.69.011.824-.231.807-.857-.042-1.55,0-3.1-.019-4.654-.009-.8.282-1.319,1.118-1.44a3.893,3.893,0,0,1,.1-3.162c-.967-.2-1.21-.487-1.211-1.5q-.007-4.812,0-9.624c0-2,0-1.965-2.022-2-.672-.012-.817.2-.815.837.023,6.784.014,13.568.014,20.352" transform="translate(-8.803 -78.05)" fill="#d66134"/><path d="M28.808,164.314h0l.1-3.162a3.892,3.892,0,0,0-.1,3.162" transform="translate(-22.505 -127.152)" fill="#d66134"/><path d="M208.747,52.628a5.352,5.352,0,0,1,.995,3.184q0,6.192,0,12.384c0,1.229-.148,1.371-1.348,1.382-.894.008-1.788.005-2.682,0a1.441,1.441,0,0,1-.973-.242c-.013.707,0,1.416-.047,2.122-.029.482.141.634.624.629q3.189-.033,6.379,0c.5.005.622-.176.615-.642-.023-1.522-.008-3.045-.009-4.568,0-3.675.016-7.351-.007-11.026a3.727,3.727,0,0,0-4.382-3.9,1.419,1.419,0,0,1,.838.676" transform="translate(-161.5 -40.919)" fill="#ee7c31"/><path d="M209.692,69c0,.514-.159.686-.675.676-1.364-.027-2.728-.007-4.092-.006a1.439,1.439,0,0,0,.973.242c.894.006,1.788.008,2.682,0,1.2-.011,1.346-.152,1.348-1.382q.01-6.192,0-12.385a5.35,5.35,0,0,0-.994-3.184,1.42,1.42,0,0,0-.838-.676A5.134,5.134,0,0,1,209.67,55.7c.033,4.433.006,8.867.022,13.3" transform="translate(-161.689 -41.256)" fill="#ee7c31"/><path d="M130.507,101.878c.063.33.192.5.565.495q5.907-.016,11.814,0c.381,0,.512-.143.506-.506-.012-.735-.033-1.472.008-2.2.031-.556-.167-.722-.716-.714-1.995.028-3.99.011-5.986.011-2.048,0-4.1.014-6.143-.01-.5-.006-.659.12-.535.623.187.763.339,1.535.487,2.306" transform="translate(-102.557 -78.071)" fill="#7c8b96"/><path d="M36.425,102.4c1.707-.032,3.416-.012,5.124-.012,1.734,0,3.469,0,5.2,0,.253,0,.649.129.536-.392-.189-.871-.4-1.738-.566-2.614-.067-.354-.269-.4-.555-.4-3.285,0-6.57.006-9.854-.006-.414,0-.552.143-.539.55.024.735.036,1.473,0,2.207-.027.51.128.679.655.669" transform="translate(-28.221 -78.09)" fill="#7c8b96"/><path d="M189.259,160.233c.022.792.582,1.239,1.592,1.243,1.814.007,3.629,0,5.443,0,1.841,0,3.681.007,5.522,0,.988-.005,1.544-.485,1.542-1.292s-.543-1.28-1.551-1.283q-5.483-.016-10.965,0c-1.047,0-1.606.494-1.583,1.334" transform="translate(-149.328 -125.368)" fill="#f09a4d"/><path d="M20.755,34.26c-.145-.273-.85.126-1.306.182-.285.035-.565.112-.848.166-1.29.247-1.809-.069-2.219-1.332-.055-.171-.01-.476-.344-.413-.592.112-1.182.236-1.77.365a.244.244,0,0,0-.218.27c.032.2.045.3.067.405.329,1.537.654,3.076.992,4.611.364,1.655.366,1.64,2.029,1.306.439-.088.622-.183.5-.705a1.535,1.535,0,0,1,1.346-2c.639-.145,1.281-.273,1.918-.426.155-.037.457.024.407-.246a7.638,7.638,0,0,0-.555-2.187" transform="translate(-11.082 -25.924)" fill="#b6cde8"/><path d="M252.505,102.4c1.78-.019,3.561-.008,5.449-.008-.649-1.19-1.615-2.026-2.013-3.218-.07-.211-.3-.186-.477-.186-1,0-1.992.009-2.987-.007-.377-.006-.508.141-.5.509.017.786.02,1.573,0,2.358-.011.394.1.557.529.552" transform="translate(-198.813 -78.096)" fill="#7c8b96"/><path d="M326.065,102.391c.414.005.55-.132.537-.54-.024-.785-.026-1.573,0-2.358.015-.433-.175-.533-.562-.524-.812.019-1.624,0-2.436.008-.175,0-.417-.066-.492.143-.43,1.2-1.383,2.072-2.051,3.262,1.756,0,3.38-.012,5,.008" transform="translate(-253.322 -78.088)" fill="#7c8b96"/><path d="M212.787,195.773c1.234-.031,2.469-.036,3.7-.05,0-.938-.025-1.878.005-2.815.016-.507-.15-.691-.667-.676-1.146.031-2.294.01-3.441.01-.012,1.025-.014,2.049-.041,3.073-.009.333.085.467.44.458" transform="translate(-167.545 -151.673)" fill="#d6e2f1"/><path d="M92.229,64.259c0-.246.166-.414.445-.494.948-.271,1.923-.421,2.889-.608a.422.422,0,0,1,.508.257c-.185-.892-.384-1.782-.55-2.677-.062-.335-.193-.417-.524-.341-1.016.232-2.038.44-3.061.645-.276.055-.417.139-.338.465.222.915.423,1.834.629,2.753" transform="translate(-72.256 -47.632)" fill="#4fb29f"/><path d="M98,73.536c-.967.187-1.942.337-2.889.608-.279.08-.446.248-.445.494l.064.286c-.01-.329.133-.59.461-.615,1.12-.088,2.164-.654,3.317-.515A.422.422,0,0,0,98,73.536" transform="translate(-74.691 -58.012)" fill="#4fb29f"/><path d="M215.822,184.215c.465.021.726.208.69.734-.068.993.087,1.993-.079,2.984.048-.052.137-.1.137-.155.008-1.683,0-3.365.013-5.048,0-.346-.181-.375-.446-.372-.631.007-1.262,0-1.893,0-2.063,0-2.063,0-1.913,2.092a1.118,1.118,0,0,1,.809-.249c.894-.009,1.788-.028,2.682.012" transform="translate(-167.488 -143.883)" fill="#b6cde8"/><path d="M215.984,191.3c.518-.014.684.169.667.676-.031.937-.007,1.877-.005,2.815.166-.991.011-1.991.078-2.984.036-.526-.226-.713-.69-.734-.894-.04-1.788-.021-2.682-.012a1.118,1.118,0,0,0-.809.249c1.147,0,2.295.02,3.441-.011" transform="translate(-167.7 -150.738)" fill="#b6cde8"/><path d="M162.156,244.039q-7.652-.016-15.3,0a2.035,2.035,0,0,0-2.246,2.258c-.017,1.525-.013,3.05,0,4.575a2.037,2.037,0,0,0,2.325,2.317c2.524.006,5.049,0,7.573,0,2.551,0,5.1.007,7.652,0a2,2,0,0,0,2.247-2.235q.029-2.327,0-4.654a2.037,2.037,0,0,0-2.245-2.26m-.1,3.079c-.05,1.022-.033,2.048,0,3.072.013.466-.113.642-.612.64q-6.933-.025-13.867,0c-.493,0-.63-.164-.617-.636.029-1.05.034-2.1,0-3.151-.018-.538.195-.658.692-.653,2.285.022,4.569.01,6.854.01,2.259,0,4.517.016,6.776-.012.559-.007.809.1.779.73" transform="translate(-114.088 -192.544)"/><path d="M170.1,255.2c-2.258.028-4.517.012-6.776.012-2.285,0-4.57.012-6.854-.01-.5,0-.71.115-.692.653.035,1.049.03,2.1,0,3.151-.013.471.123.637.617.636q6.933-.024,13.866,0c.5,0,.625-.174.612-.64-.028-1.023-.045-2.05,0-3.072.031-.625-.22-.737-.779-.73" transform="translate(-122.911 -201.359)" fill="#d66034"/></g></g></g></svg>