<svg xmlns="http://www.w3.org/2000/svg" xmlns:xlink="http://www.w3.org/1999/xlink" width="22.026" height="22.025" viewBox="0 0 22.026 22.025"><defs><clipPath id="a"><rect width="22.026" height="22.025" fill="#4a2efc"/></clipPath></defs><g clip-path="url(#a)"><path d="M189.809.039A1.193,1.193,0,0,1,189.688,0h-8.345a.481.481,0,0,1-.078.033,1.927,1.927,0,0,0-1.6,2q0,2.515,0,5.03a1.937,1.937,0,0,0,2.015,2.018h.609v.259c0,.559,0,1.118,0,1.677a.643.643,0,0,0,1.073.477c.055-.046.1-.1.155-.149.71-.709,1.421-1.416,2.126-2.13a.429.429,0,0,1,.338-.137c1.147,0,2.293.014,3.44,0a1.876,1.876,0,0,0,1.788-1.185,4.072,4.072,0,0,0,.155-.488V1.678a4.516,4.516,0,0,0-.154-.488,1.9,1.9,0,0,0-1.4-1.15m.266,7.025a.655.655,0,0,1-.719.721c-1.24,0-2.479,0-3.719,0a.871.871,0,0,0-.669.279c-.444.455-.9.9-1.389,1.394,0-.372,0-.679,0-.986a.648.648,0,0,0-.691-.683c-.408,0-.817,0-1.225,0a.652.652,0,0,1-.706-.711q0-2.536,0-5.073a.65.65,0,0,1,.707-.71q3.848,0,7.7,0a.654.654,0,0,1,.716.723q0,2.526,0,5.051" transform="translate(-169.34)" fill="#4a2efc"/><path d="M12.216,79.995q.327-.966.639-1.937a.651.651,0,0,0-.662-.911c-.213,0-.426,0-.633,0A3.291,3.291,0,0,0,8.12,74.561c-.615.027-1.232,0-1.848,0a3.29,3.29,0,0,0,2.757-3.457,3.227,3.227,0,0,0-6.4-.344A3.144,3.144,0,0,0,3.2,73.229a3.286,3.286,0,0,0,2.153,1.323c-.7.014-1.394.012-2.089.014A3.223,3.223,0,0,0,0,77.825q0,1.28,0,2.559A3.155,3.155,0,0,0,1.136,82.86a.424.424,0,0,1,.159.366c-.006.753,0,1.505,0,2.258a.661.661,0,0,0,.745.738H9.565a.675.675,0,0,0,.763-.548c.206-.618.414-1.235.615-1.854a.24.24,0,0,1,.232-.194A1.861,1.861,0,0,0,12.8,82.314a1.842,1.842,0,0,0-.521-2.022.241.241,0,0,1-.066-.3M3.874,71.347a1.935,1.935,0,1,1,1.932,1.927,1.94,1.94,0,0,1-1.932-1.927m.2,13.5a.164.164,0,0,1-.125.081c-.448.006-.9,0-1.362,0V83.624H4.484c-.142.432-.27.829-.407,1.224m.84-2.522c-.669,0-1.325,0-1.981,0a1.01,1.01,0,0,1-.272-.058A1.919,1.919,0,0,1,1.3,80.476c-.012-.917-.015-1.835,0-2.752a1.906,1.906,0,0,1,1.86-1.862c1.77-.016,3.54-.012,5.31,0a1.852,1.852,0,0,1,1.721,1.285H9.957q-1.387,0-2.774,0a.661.661,0,0,0-.721.516c-.233.7-.463,1.4-.7,2.1H3.874c0-.615,0-1.215,0-1.815a1.592,1.592,0,0,0-.009-.257.65.65,0,0,0-.672-.543.635.635,0,0,0-.6.615q-.014,1.344,0,2.687a.632.632,0,0,0,.674.61c.6,0,1.2,0,1.806,0h.266l-.416,1.264m4.825-2.554a.651.651,0,0,0-.706.71c0,.766,0,1.533,0,2.3,0,.555.083.678.6.887-.128.385-.253.772-.39,1.154a.2.2,0,0,1-.149.106c-1.217.006-2.435,0-3.679,0,.035-.115.063-.215.1-.313q.988-2.983,1.974-5.966c.052-.159.114-.223.295-.221,1.117.011,2.235.005,3.352.005h.233c-.141.431-.268.839-.412,1.242-.017.046-.119.086-.183.088-.344.009-.688,0-1.031,0m1.271,2.576c-.22.013-.44,0-.674,0V81.062c.233,0,.448-.008.661,0a.643.643,0,0,1,.013,1.283" transform="translate(0 -64.198)" fill="#4a2efc"/><path d="M245.916,56.915a.66.66,0,0,0-.638.221c-.468.472-.94.941-1.444,1.446-.178-.189-.327-.363-.493-.52a.643.643,0,1,0-.9.915q.462.48.941.942a.639.639,0,0,0,.94,0c.162-.151.315-.312.472-.469.476-.476.953-.951,1.426-1.429a.63.63,0,0,0,.18-.667.614.614,0,0,0-.481-.441" transform="translate(-228.319 -53.629)" fill="#4a2efc"/></g></svg>