<svg xmlns="http://www.w3.org/2000/svg" xmlns:xlink="http://www.w3.org/1999/xlink" width="227.461" height="74.859" viewBox="0 0 227.461 74.859"><defs><clipPath id="a"><rect width="74.922" height="74.859" fill="none"/></clipPath></defs><g transform="translate(-180 -8248.426)"><path d="M0,0H190l16.765,17.329V38.178L188.484,52.528,0,52Z" transform="translate(180 8259.898)" fill="#fff0a6"/><path d="M13.115,14.184a8.385,8.385,0,0,1-.771,3.682,5.7,5.7,0,0,1-2.192,2.466,6.1,6.1,0,0,1-3.237.864,6.191,6.191,0,0,1-3.223-.835A5.692,5.692,0,0,1,1.5,17.973a8.144,8.144,0,0,1-.825-3.564v-.8A8.422,8.422,0,0,1,1.44,9.921a5.688,5.688,0,0,1,2.2-2.466,6.147,6.147,0,0,1,3.257-.869,6.087,6.087,0,0,1,3.223.859,5.79,5.79,0,0,1,2.2,2.446,8.18,8.18,0,0,1,.8,3.638Zm-3.486-.6a5.979,5.979,0,0,0-.708-3.218,2.271,2.271,0,0,0-2.026-1.1q-2.578,0-2.725,3.867l-.01,1.045A6.149,6.149,0,0,0,4.854,17.4,2.268,2.268,0,0,0,6.914,18.52a2.24,2.24,0,0,0,2-1.1,5.982,5.982,0,0,0,.713-3.174ZM24.541,15.8A6.44,6.44,0,0,1,23.467,19.8a3.6,3.6,0,0,1-3.027,1.4,3.122,3.122,0,0,1-2.6-1.279L17.705,21H14.756V6h3.291v5.283a3.013,3.013,0,0,1,2.373-1.045,3.6,3.6,0,0,1,3.047,1.416,6.473,6.473,0,0,1,1.074,3.984Zm-3.3-.21a4.3,4.3,0,0,0-.405-2.169,1.366,1.366,0,0,0-1.245-.648,1.576,1.576,0,0,0-1.543.848v4.192a1.585,1.585,0,0,0,1.563.838,1.4,1.4,0,0,0,1.475-1.131A8.121,8.121,0,0,0,21.24,15.595Zm8.291-5.161V21.361a3.836,3.836,0,0,1-1.074,2.891,4.127,4.127,0,0,1-2.969,1.016,7.009,7.009,0,0,1-1.553-.166v-2.49a6.3,6.3,0,0,0,.928.088,1.2,1.2,0,0,0,1.367-1.357V10.434ZM25.986,7.709a1.469,1.469,0,0,1,.508-1.152,2.159,2.159,0,0,1,2.637,0,1.469,1.469,0,0,1,.508,1.152,1.469,1.469,0,0,1-.508,1.152,2.159,2.159,0,0,1-2.637,0A1.469,1.469,0,0,1,25.986,7.709ZM36.5,21.2a5.432,5.432,0,0,1-3.936-1.45,5.008,5.008,0,0,1-1.5-3.774V15.7a6.489,6.489,0,0,1,.6-2.861,4.395,4.395,0,0,1,1.753-1.919,5.292,5.292,0,0,1,2.734-.679,4.574,4.574,0,0,1,3.516,1.382,5.43,5.43,0,0,1,1.289,3.853v1.279H34.414a2.372,2.372,0,0,0,.771,1.4,2.3,2.3,0,0,0,1.543.508,2.958,2.958,0,0,0,2.441-1.094l1.5,1.777a4.2,4.2,0,0,1-1.743,1.353A5.891,5.891,0,0,1,36.5,21.2Zm-.371-8.418q-1.445,0-1.719,1.914h3.32v-.254a1.63,1.63,0,0,0-.4-1.226A1.593,1.593,0,0,0,36.133,12.777Zm9.98-4.971v2.627h1.738v2.285H46.113v4.834a1.234,1.234,0,0,0,.215.83,1.152,1.152,0,0,0,.85.234,4.828,4.828,0,0,0,.82-.059v2.354a6.074,6.074,0,0,1-1.855.283,3.448,3.448,0,0,1-2.51-.8,3.282,3.282,0,0,1-.811-2.432V12.719H41.475V10.434h1.348V7.807ZM52.617,21h-3.3V10.434h3.3Zm-3.5-13.291a1.469,1.469,0,0,1,.508-1.152,2.159,2.159,0,0,1,2.637,0,1.469,1.469,0,0,1,.508,1.152,1.469,1.469,0,0,1-.508,1.152,2.159,2.159,0,0,1-2.637,0A1.469,1.469,0,0,1,49.121,7.709Zm9.736,9.375,1.67-6.65h3.467L60.547,21H57.188L53.74,10.434h3.477Zm5.557-1.465a6.236,6.236,0,0,1,.615-2.817A4.4,4.4,0,0,1,66.8,10.9a5.323,5.323,0,0,1,2.705-.664,4.858,4.858,0,0,1,3.74,1.47,5.64,5.64,0,0,1,1.367,4v.117a5.472,5.472,0,0,1-1.372,3.921,4.871,4.871,0,0,1-3.716,1.45A4.927,4.927,0,0,1,65.9,19.843a5.29,5.29,0,0,1-1.475-3.667Zm3.291.205a3.932,3.932,0,0,0,.459,2.148,1.529,1.529,0,0,0,1.357.684q1.758,0,1.8-2.705v-.332q0-2.842-1.816-2.842-1.65,0-1.787,2.451Zm13.887,2.207a.76.76,0,0,0-.439-.674,6.684,6.684,0,0,0-1.67-.527,7.615,7.615,0,0,1-2.031-.718,3.4,3.4,0,0,1-1.221-1.079,2.577,2.577,0,0,1-.42-1.455,2.92,2.92,0,0,1,1.2-2.4,4.948,4.948,0,0,1,3.145-.942,5.482,5.482,0,0,1,3.359.947,2.962,2.962,0,0,1,1.27,2.49h-3.3q0-1.27-1.338-1.27a1.326,1.326,0,0,0-.869.288.892.892,0,0,0-.352.718.819.819,0,0,0,.43.713,4.06,4.06,0,0,0,1.372.449,11.857,11.857,0,0,1,1.655.42,3.007,3.007,0,0,1,2.383,2.939,2.767,2.767,0,0,1-1.284,2.354,5.631,5.631,0,0,1-3.325.908,5.747,5.747,0,0,1-2.422-.488,4.05,4.05,0,0,1-1.66-1.328,3.007,3.007,0,0,1-.6-1.768h3.076a1.272,1.272,0,0,0,.488,1.069,2.009,2.009,0,0,0,1.2.337,1.58,1.58,0,0,0,1.011-.273A.875.875,0,0,0,81.592,18.031Z" transform="translate(223 8272.898)" fill="#12263f"/><g transform="translate(332.539 8248.426)"><g clip-path="url(#a)"><path d="M55,6.165a1.326,1.326,0,0,0-.33,1.353c.31,1.377.579,2.763.883,4.141a.729.729,0,0,1-.216.845c-.367.291-.536-.079-.738-.22a34.543,34.543,0,1,0-37.9,57.7A31.776,31.776,0,0,0,31.846,74.8c14.648.742,25.662-5.363,33.04-17.968a31.362,31.362,0,0,0,4.055-13.747A34.427,34.427,0,0,0,62.6,20.272c-.134-.192-.452-.351-.179-.679a.7.7,0,0,1,.773-.236c1.378.3,2.765.567,4.14.885a1.592,1.592,0,0,0,1.6-.455c1.467-1.465,2.923-2.94,4.4-4.4a8.4,8.4,0,0,0,1.593-2.8V10.539c-.217-.086-.125-.292-.163-.442a5.65,5.65,0,0,0-5.167-4.233c-.235-.015-.537.115-.536-.353a5.6,5.6,0,0,0-4.7-5.436C64.316.069,64.278.026,64.237,0h-1.9C59.115,1.132,57.383,4.04,55,6.165m1.247,9.593a.946.946,0,0,1,.19-.058c0,1.811.864,2.836,2.963,2.751-.352.37-.515.548-.685.718-3.291,3.292-6.593,6.573-9.861,9.887-.446.453-.663.409-1.054-.023-.67-.74-1.4-1.424-2.111-2.127-.182-.181-.33-.306-.06-.574q5.319-5.277,10.617-10.574M33.852,40.572a1.391,1.391,0,0,0,1.492.692,1.722,1.722,0,0,0,.981-.591c.469-.485.939-.968,1.445-1.489a3.49,3.49,0,1,1-6.334-.456A3.555,3.555,0,0,1,35.728,37.1c-.587.6-1.149,1.151-1.681,1.73a1.37,1.37,0,0,0-.194,1.747m3.6-10.2a2.342,2.342,0,0,0-.872,2.13c.046.532.206,1.223-.053,1.568-.3.4-.95-.063-1.452-.1a6.451,6.451,0,1,0,5.779,7.569,6.025,6.025,0,0,0-.107-2.749c-.111-.4.006-.459.357-.45,3.052.072,2.225.3,4.68-2.1a5.916,5.916,0,0,0,.562-.778,12.857,12.857,0,1,1-6.933-6.907c-.678.636-1.3,1.259-1.96,1.825m3.078,1.044c.864-.745,1.642-1.593,2.433-2.419.264-.275.422-.287.69-.005.739.775,1.5,1.531,2.272,2.273.262.252.315.406.022.69q-1.628,1.573-3.205,3.2c-.505.519-1.122.094-1.539.26-1.682,0-1.609,0-1.71-1.541a2.72,2.72,0,0,1,1.038-2.456M65.813,35.98a30.746,30.746,0,0,1-6.526,23.995A30.628,30.628,0,0,1,38.46,71.74,31.593,31.593,0,0,1,28.213,9.433a30.85,30.85,0,0,1,24.246,4.92c.461.312.574.492.108.934-1.275,1.208-2.509,2.459-3.728,3.723-.325.336-.538.324-.917.089A25.137,25.137,0,0,0,10.173,34.066a24.489,24.489,0,0,0,2.19,18.273,1.509,1.509,0,0,0,2.227.815h0a1.58,1.58,0,0,0,.3-2.282,22.109,22.109,0,0,1,8.831-29.88c7.3-4.022,14.719-3.836,22.032.194.478.264.507.413.11.8-1.316,1.27-2.606,2.568-3.881,3.88a.685.685,0,0,1-.934.155,15.79,15.79,0,1,0,9.1,16.776A15.174,15.174,0,0,0,48.9,33.881a.728.728,0,0,1,.212-.987c1.277-1.241,2.544-2.493,3.775-3.779.42-.439.586-.415.893.111A22.261,22.261,0,0,1,24.173,60.087c-1.167-.608-1.585-.566-2.41.243h0a1.545,1.545,0,0,0,.876,2.27A25.217,25.217,0,0,0,59.1,45.792a24.661,24.661,0,0,0-3.246-18.733.673.673,0,0,1,.12-1.031c1.265-1.218,2.5-2.464,3.728-3.723.336-.346.495-.375.792.058A31.021,31.021,0,0,1,65.813,35.98M67.509,9.5a2.645,2.645,0,0,1,3.643.013,2.588,2.588,0,0,1,.224,3.629c-1.232,1.349-2.564,2.606-3.851,3.905a.439.439,0,0,1-.451.15c-1.963-.424-3.929-.837-6.019-1.28l5.1-5.08c.449-.447.884-.911,1.352-1.338M61.639,3.66a2.624,2.624,0,0,1,3.693.037,2.591,2.591,0,0,1,.1,3.687c-2.088,2.147-4.234,4.237-6.45,6.443-.421-2.019-.814-3.95-1.236-5.874a.6.6,0,0,1,.2-.635c1.23-1.218,2.431-2.466,3.685-3.658" transform="translate(0)"/><path d="M71.589,58.288c-1.224,1.259-2.463,2.5-3.728,3.723a.673.673,0,0,0-.12,1.031,24.661,24.661,0,0,1,3.246,18.733A25.217,25.217,0,0,1,34.527,98.584a1.546,1.546,0,0,1-.876-2.27h0A21.2,21.2,0,0,1,30.723,94.2h0c-1.228.72-2.412.285-2.527-.923a1.951,1.951,0,0,1,.4-1.209,20.566,20.566,0,0,1-2.115-2.928h0a1.509,1.509,0,0,1-2.227-.815A24.491,24.491,0,0,1,22.06,70.05,25.138,25.138,0,0,1,59.809,55.083c.379.235.593.247.917-.089,1.219-1.264,2.454-2.515,3.728-3.722.466-.442.353-.622-.108-.934A30.849,30.849,0,0,0,40.1,45.418a31.593,31.593,0,0,0,10.247,62.306A31.657,31.657,0,0,0,77.7,71.964a31.024,31.024,0,0,0-5.319-13.618c-.3-.433-.456-.4-.792-.058" transform="translate(-11.888 -35.984)" fill="#fe7a78"/><path d="M69.274,130.46c.492.513.509,1.151.053,2a16.163,16.163,0,0,1,2.9,2.166h0c.825-.809,1.243-.851,2.41-.243a22.261,22.261,0,0,0,29.605-30.861c-.308-.525-.473-.55-.893-.111-1.231,1.286-2.5,2.539-3.775,3.779a.728.728,0,0,0-.212.987,15.174,15.174,0,0,1,1.248,8.914,15.814,15.814,0,1,1-9.1-16.776.685.685,0,0,0,.934-.155c1.274-1.312,2.565-2.61,3.881-3.88.4-.384.368-.533-.11-.8-7.313-4.03-14.737-4.216-22.032-.194a22.108,22.108,0,0,0-8.831,29.88,1.58,1.58,0,0,1-.3,2.282h0a17.07,17.07,0,0,1,2.172,2.9c.869-.465,1.531-.431,2.047.108" transform="translate(-50.465 -74.299)" fill="#fefefe"/><path d="M76.756,274.625a17.069,17.069,0,0,0-2.172-2.9,20.563,20.563,0,0,0,2.115,2.928l.057-.03" transform="translate(-59.994 -218.572)" fill="#fefefe"/><path d="M96.288,297.38a21.183,21.183,0,0,0,2.926,2.115,16.163,16.163,0,0,0-2.9-2.166l-.027.051" transform="translate(-77.452 -239.165)" fill="#fefefe"/><path d="M113.035,146.088a12.863,12.863,0,1,0,22.264,2.581,5.922,5.922,0,0,1-.562.778c-2.455,2.4-1.627,2.176-4.68,2.1-.351-.008-.468.055-.357.45a6.028,6.028,0,0,1,.107,2.749,6.44,6.44,0,1,1-5.779-7.569c.5.041,1.156.5,1.452.1.258-.345.1-1.036.053-1.568a2.342,2.342,0,0,1,.872-2.13c.665-.567,1.282-1.189,1.96-1.825a12.767,12.767,0,0,0-15.332,4.326" transform="translate(-88.958 -113.215)" fill="#fe7b79"/><path d="M232.689,91.462c.71.7,1.442,1.387,2.111,2.127.391.432.608.476,1.054.023,3.268-3.315,6.57-6.6,9.861-9.887.17-.171.333-.349.685-.718-2.1.085-2.966-.94-2.963-2.751a.933.933,0,0,0-.19.058Q237.94,85.6,232.629,90.888c-.27.268-.122.394.06.574" transform="translate(-187.003 -64.556)" fill="#66dff6"/><path d="M318.128,53.322a.44.44,0,0,0,.451-.15c1.287-1.3,2.619-2.556,3.851-3.905a2.589,2.589,0,0,0-.224-3.629,2.646,2.646,0,0,0-3.643-.013c-.468.427-.9.89-1.352,1.338l-5.1,5.08c2.089.442,4.055.856,6.019,1.28" transform="translate(-251.054 -36.12)" fill="#cbf4fb"/><path d="M295.12,19.955c.422,1.924.815,3.855,1.236,5.874,2.216-2.206,4.362-4.3,6.45-6.443a2.591,2.591,0,0,0-.1-3.687,2.624,2.624,0,0,0-3.693-.037c-1.254,1.193-2.455,2.441-3.685,3.659a.6.6,0,0,0-.2.635" transform="translate(-237.372 -12.002)" fill="#cbf4fb"/><path d="M163.225,188.95a3.556,3.556,0,0,0-4.292,1.632,3.506,3.506,0,0,0,4.978,4.619,3.449,3.449,0,0,0,1.356-4.163c-.506.521-.976,1-1.445,1.489a1.723,1.723,0,0,1-.981.591,1.392,1.392,0,0,1-1.492-.693,1.37,1.37,0,0,1,.195-1.747c.531-.579,1.094-1.129,1.681-1.73" transform="translate(-127.497 -151.855)" fill="#fefefe"/><path d="M203.538,153.771c.417-.166,1.033.259,1.539-.26q1.579-1.622,3.205-3.2c.293-.283.24-.438-.022-.69-.772-.742-1.533-1.5-2.272-2.273-.269-.282-.426-.27-.69.005-.791.826-1.569,1.674-2.433,2.419a2.721,2.721,0,0,0-1.037,2.456c.1,1.536.028,1.541,1.71,1.541" transform="translate(-162.339 -118.359)" fill="#c092db"/><path d="M86.829,287.7c.235-1.137-.442-1.811-1.58-1.575-.183.038-.357.169-.553.106a1.351,1.351,0,0,1-.146.52,1.267,1.267,0,0,0,.217,1.411,1.344,1.344,0,0,0,1.348.26,2.744,2.744,0,0,1,.605-.168c-.059-.2.07-.371.109-.555" transform="translate(-67.916 -230.116)" fill="#010101"/><path d="M85.84,288.75a2.744,2.744,0,0,0-.605.168,1.344,1.344,0,0,1-1.348-.26,1.267,1.267,0,0,1-.216-1.411,1.351,1.351,0,0,0,.146-.52.371.371,0,0,1-.076-.033,1.952,1.952,0,0,0-.4,1.209c.115,1.208,1.3,1.642,2.527.923h0a.385.385,0,0,1-.031-.075" transform="translate(-67.035 -230.611)" fill="#010101"/><path d="M85.7,285.272c.2.063.37-.068.553-.106,1.138-.237,1.815.438,1.58,1.575-.038.184-.168.358-.109.555h.015l.042.024c.455-.851.439-1.489-.053-2-.516-.539-1.178-.573-2.047-.108l.02.033c0,.01,0,.02,0,.03" transform="translate(-68.924 -229.156)" fill="#010101"/><path d="M96.145,297.2H96.13a.374.374,0,0,0,.031.075l.027-.051-.042-.024" transform="translate(-77.325 -239.065)" fill="#010101"/><path d="M85.471,286.574l-.02-.033-.057.03a.38.38,0,0,0,.076.033c0-.01,0-.019,0-.03" transform="translate(-68.689 -230.488)" fill="#010101"/></g></g></g></svg>