<svg xmlns="http://www.w3.org/2000/svg" xmlns:xlink="http://www.w3.org/1999/xlink" width="342.379" height="74.86" viewBox="0 0 342.379 74.86"><defs><clipPath id="a"><rect width="58.379" height="74.86" fill="none"/></clipPath></defs><g transform="translate(-180 -9567.021)"><path d="M0,0H315.277l-2.516,52.528L0,52Z" transform="translate(180 9578.495)" fill="#fff0a6"/><path d="M12.236,9.428H7.969V21H4.541V9.428H.352V6.781H12.236ZM18.643,21.2a5.432,5.432,0,0,1-3.936-1.45,5.008,5.008,0,0,1-1.5-3.774V15.7a6.489,6.489,0,0,1,.6-2.861,4.395,4.395,0,0,1,1.753-1.919,5.292,5.292,0,0,1,2.734-.679,4.574,4.574,0,0,1,3.516,1.382A5.43,5.43,0,0,1,23.1,15.473v1.279H16.553a2.372,2.372,0,0,0,.771,1.4,2.3,2.3,0,0,0,1.543.508,2.958,2.958,0,0,0,2.441-1.094l1.5,1.777a4.2,4.2,0,0,1-1.743,1.353A5.891,5.891,0,0,1,18.643,21.2Zm-.371-8.418q-1.445,0-1.719,1.914h3.32v-.254a1.63,1.63,0,0,0-.4-1.226A1.593,1.593,0,0,0,18.271,12.777ZM18.232,5.99h3.477L18.994,9.057l-2.686,0ZM28.887,18.656a1.464,1.464,0,0,0,1.074-.376,1.379,1.379,0,0,0,.371-1.05h3.086a3.653,3.653,0,0,1-1.245,2.852A4.631,4.631,0,0,1,28.965,21.2a4.689,4.689,0,0,1-3.633-1.445,5.7,5.7,0,0,1-1.328-4v-.137a6.436,6.436,0,0,1,.591-2.827A4.3,4.3,0,0,1,26.3,10.9a5.081,5.081,0,0,1,2.637-.659,4.573,4.573,0,0,1,3.271,1.143,4.053,4.053,0,0,1,1.211,3.1H30.332a1.807,1.807,0,0,0-.4-1.26,1.382,1.382,0,0,0-1.074-.439q-1.279,0-1.494,1.631a11.508,11.508,0,0,0-.068,1.426,4.52,4.52,0,0,0,.381,2.207A1.319,1.319,0,0,0,28.887,18.656Zm8.945-8.223.107,1.24a3.583,3.583,0,0,1,3.018-1.436,3.015,3.015,0,0,1,2.466.986,4.7,4.7,0,0,1,.845,2.969V21h-3.3V14.33a1.783,1.783,0,0,0-.322-1.177,1.491,1.491,0,0,0-1.172-.376,1.569,1.569,0,0,0-1.436.762V21H34.746V10.434ZM49.561,21h-3.3V10.434h3.3Zm-3.5-13.291a1.469,1.469,0,0,1,.508-1.152,2.159,2.159,0,0,1,2.637,0,1.469,1.469,0,0,1,.508,1.152,1.469,1.469,0,0,1-.508,1.152,2.159,2.159,0,0,1-2.637,0A1.469,1.469,0,0,1,46.064,7.709Zm9.99,10.947a1.464,1.464,0,0,0,1.074-.376,1.379,1.379,0,0,0,.371-1.05h3.086a3.653,3.653,0,0,1-1.245,2.852A4.631,4.631,0,0,1,56.133,21.2,4.689,4.689,0,0,1,52.5,19.75a5.7,5.7,0,0,1-1.328-4v-.137a6.436,6.436,0,0,1,.591-2.827,4.3,4.3,0,0,1,1.7-1.885,5.081,5.081,0,0,1,2.637-.659,4.573,4.573,0,0,1,3.271,1.143,4.053,4.053,0,0,1,1.211,3.1H57.5a1.807,1.807,0,0,0-.4-1.26,1.382,1.382,0,0,0-1.074-.439q-1.279,0-1.494,1.631a11.507,11.507,0,0,0-.068,1.426,4.52,4.52,0,0,0,.381,2.207A1.319,1.319,0,0,0,56.055,18.656ZM67.93,21a3.716,3.716,0,0,1-.312-.947A3.06,3.06,0,0,1,65.078,21.2a3.749,3.749,0,0,1-2.539-.9,2.875,2.875,0,0,1-1.045-2.271,2.955,2.955,0,0,1,1.27-2.6,6.468,6.468,0,0,1,3.691-.879h1.016v-.559q0-1.462-1.26-1.462a1.03,1.03,0,0,0-1.172,1.158H61.748a2.95,2.95,0,0,1,1.3-2.487,5.479,5.479,0,0,1,3.325-.956,4.8,4.8,0,0,1,3.193.986,3.429,3.429,0,0,1,1.2,2.705v4.678a4.79,4.79,0,0,0,.449,2.227V21Zm-2.061-2.148a1.836,1.836,0,0,0,1.021-.264,1.653,1.653,0,0,0,.581-.6V16.3h-.957q-1.719,0-1.719,1.543a.942.942,0,0,0,.3.728A1.1,1.1,0,0,0,65.869,18.852Zm12.256-.82a.76.76,0,0,0-.439-.674,6.684,6.684,0,0,0-1.67-.527,7.615,7.615,0,0,1-2.031-.718,3.4,3.4,0,0,1-1.221-1.079,2.577,2.577,0,0,1-.42-1.455,2.92,2.92,0,0,1,1.2-2.4,4.948,4.948,0,0,1,3.145-.942,5.482,5.482,0,0,1,3.359.947,2.962,2.962,0,0,1,1.27,2.49h-3.3q0-1.27-1.338-1.27a1.326,1.326,0,0,0-.869.288.892.892,0,0,0-.352.718.819.819,0,0,0,.43.713,4.06,4.06,0,0,0,1.372.449,11.857,11.857,0,0,1,1.655.42A3.007,3.007,0,0,1,81.3,17.934a2.767,2.767,0,0,1-1.284,2.354,5.631,5.631,0,0,1-3.325.908,5.747,5.747,0,0,1-2.422-.488,4.05,4.05,0,0,1-1.66-1.328,3.007,3.007,0,0,1-.6-1.768h3.076a1.272,1.272,0,0,0,.488,1.069,2.009,2.009,0,0,0,1.2.337,1.58,1.58,0,0,0,1.011-.273A.875.875,0,0,0,78.125,18.031ZM87.4,15.639a6.455,6.455,0,0,1,1.084-3.955,3.568,3.568,0,0,1,3.027-1.445A3.035,3.035,0,0,1,93.9,11.352V6h3.3V21H94.238l-.166-1.133A3.116,3.116,0,0,1,91.494,21.2a3.562,3.562,0,0,1-2.988-1.445A6.659,6.659,0,0,1,87.4,15.639Zm3.291.205q0,2.813,1.641,2.813a1.62,1.62,0,0,0,1.563-.918V13.715a1.576,1.576,0,0,0-1.543-.937q-1.523,0-1.65,2.461ZM104.18,21.2a5.432,5.432,0,0,1-3.936-1.45,5.008,5.008,0,0,1-1.5-3.774V15.7a6.489,6.489,0,0,1,.6-2.861,4.395,4.395,0,0,1,1.753-1.919,5.292,5.292,0,0,1,2.734-.679,4.574,4.574,0,0,1,3.516,1.382,5.43,5.43,0,0,1,1.289,3.853v1.279H102.09a2.372,2.372,0,0,0,.771,1.4,2.3,2.3,0,0,0,1.543.508,2.958,2.958,0,0,0,2.441-1.094l1.5,1.777a4.2,4.2,0,0,1-1.743,1.353A5.891,5.891,0,0,1,104.18,21.2Zm-.371-8.418q-1.445,0-1.719,1.914h3.32v-.254a1.63,1.63,0,0,0-.4-1.226A1.593,1.593,0,0,0,103.809,12.777Zm20.938,3.018a6.372,6.372,0,0,1-1.108,3.931,3.554,3.554,0,0,1-2.993,1.47,3.046,3.046,0,0,1-2.393-1.064v4.932h-3.291V10.434h3.076l.1.977a3.046,3.046,0,0,1,2.49-1.172,3.582,3.582,0,0,1,3.037,1.44,6.45,6.45,0,0,1,1.084,3.96Zm-3.291-.205q0-2.812-1.641-2.812a1.549,1.549,0,0,0-1.562.84v4.16a1.6,1.6,0,0,0,1.582.879q1.572,0,1.621-2.715Zm11.133-2.178-1.084-.078a1.947,1.947,0,0,0-1.992.977V21h-3.291V10.434h3.086l.107,1.357a2.548,2.548,0,0,1,2.314-1.553,3.209,3.209,0,0,1,.918.117Zm.42,2.207a6.236,6.236,0,0,1,.615-2.817,4.4,4.4,0,0,1,1.768-1.9,5.323,5.323,0,0,1,2.705-.664,4.858,4.858,0,0,1,3.74,1.47,5.64,5.64,0,0,1,1.367,4v.117a5.472,5.472,0,0,1-1.372,3.921,4.871,4.871,0,0,1-3.716,1.45,4.927,4.927,0,0,1-3.623-1.353,5.29,5.29,0,0,1-1.475-3.667Zm3.291.205a3.932,3.932,0,0,0,.459,2.148,1.529,1.529,0,0,0,1.357.684q1.758,0,1.8-2.705v-.332q0-2.842-1.816-2.842-1.65,0-1.787,2.451Zm13.887,2.207a.76.76,0,0,0-.439-.674,6.684,6.684,0,0,0-1.67-.527,7.615,7.615,0,0,1-2.031-.718,3.4,3.4,0,0,1-1.221-1.079,2.577,2.577,0,0,1-.42-1.455,2.92,2.92,0,0,1,1.2-2.4,4.948,4.948,0,0,1,3.145-.942,5.482,5.482,0,0,1,3.359.947,2.962,2.962,0,0,1,1.27,2.49h-3.3q0-1.27-1.338-1.27a1.326,1.326,0,0,0-.869.288.892.892,0,0,0-.352.718.819.819,0,0,0,.43.713,4.06,4.06,0,0,0,1.372.449,11.857,11.857,0,0,1,1.655.42,3.007,3.007,0,0,1,2.383,2.939,2.767,2.767,0,0,1-1.284,2.354,5.632,5.632,0,0,1-3.325.908,5.747,5.747,0,0,1-2.422-.488,4.05,4.05,0,0,1-1.66-1.328,3.007,3.007,0,0,1-.6-1.768h3.076a1.272,1.272,0,0,0,.488,1.069,2.009,2.009,0,0,0,1.2.337,1.58,1.58,0,0,0,1.011-.273A.875.875,0,0,0,150.186,18.031Zm14.521-2.236a6.372,6.372,0,0,1-1.108,3.931,3.554,3.554,0,0,1-2.993,1.47,3.046,3.046,0,0,1-2.393-1.064v4.932h-3.291V10.434H158l.1.977a3.046,3.046,0,0,1,2.49-1.172,3.582,3.582,0,0,1,3.037,1.44,6.45,6.45,0,0,1,1.084,3.96Zm-3.291-.205q0-2.812-1.641-2.812a1.549,1.549,0,0,0-1.562.84v4.16a1.6,1.6,0,0,0,1.582.879q1.572,0,1.621-2.715ZM171.27,21.2a5.432,5.432,0,0,1-3.936-1.45,5.008,5.008,0,0,1-1.5-3.774V15.7a6.489,6.489,0,0,1,.6-2.861,4.395,4.395,0,0,1,1.753-1.919,5.292,5.292,0,0,1,2.734-.679,4.574,4.574,0,0,1,3.516,1.382,5.43,5.43,0,0,1,1.289,3.853v1.279H169.18a2.372,2.372,0,0,0,.771,1.4,2.3,2.3,0,0,0,1.543.508,2.958,2.958,0,0,0,2.441-1.094l1.5,1.777a4.2,4.2,0,0,1-1.743,1.353A5.891,5.891,0,0,1,171.27,21.2Zm-.371-8.418q-1.445,0-1.719,1.914h3.32v-.254a1.63,1.63,0,0,0-.4-1.226A1.593,1.593,0,0,0,170.9,12.777Zm10.615,5.879a1.464,1.464,0,0,0,1.074-.376,1.379,1.379,0,0,0,.371-1.05h3.086a3.653,3.653,0,0,1-1.245,2.852,4.631,4.631,0,0,1-3.208,1.113,4.689,4.689,0,0,1-3.633-1.445,5.7,5.7,0,0,1-1.328-4v-.137a6.436,6.436,0,0,1,.591-2.827,4.3,4.3,0,0,1,1.7-1.885,5.081,5.081,0,0,1,2.637-.659,4.573,4.573,0,0,1,3.271,1.143,4.053,4.053,0,0,1,1.211,3.1h-3.086a1.807,1.807,0,0,0-.4-1.26,1.382,1.382,0,0,0-1.074-.439q-1.279,0-1.494,1.631a11.507,11.507,0,0,0-.068,1.426,4.52,4.52,0,0,0,.381,2.207A1.319,1.319,0,0,0,181.514,18.656Zm10.391,0a1.464,1.464,0,0,0,1.074-.376,1.379,1.379,0,0,0,.371-1.05h3.086a3.653,3.653,0,0,1-1.245,2.852,4.631,4.631,0,0,1-3.208,1.113,4.689,4.689,0,0,1-3.633-1.445,5.7,5.7,0,0,1-1.328-4v-.137a6.436,6.436,0,0,1,.591-2.827,4.3,4.3,0,0,1,1.7-1.885,5.081,5.081,0,0,1,2.637-.659,4.573,4.573,0,0,1,3.271,1.143,4.053,4.053,0,0,1,1.211,3.1H193.35a1.807,1.807,0,0,0-.4-1.26,1.382,1.382,0,0,0-1.074-.439q-1.279,0-1.494,1.631a11.507,11.507,0,0,0-.068,1.426,4.52,4.52,0,0,0,.381,2.207A1.319,1.319,0,0,0,191.9,18.656ZM201.3,21H198V10.434h3.3ZM197.8,7.709a1.469,1.469,0,0,1,.508-1.152,2.159,2.159,0,0,1,2.637,0,1.469,1.469,0,0,1,.508,1.152,1.469,1.469,0,0,1-.508,1.152,2.159,2.159,0,0,1-2.637,0A1.469,1.469,0,0,1,197.8,7.709Zm5.107,7.91a6.236,6.236,0,0,1,.615-2.817,4.4,4.4,0,0,1,1.768-1.9A5.323,5.323,0,0,1,208,10.238a4.858,4.858,0,0,1,3.74,1.47,5.64,5.64,0,0,1,1.367,4v.117a5.472,5.472,0,0,1-1.372,3.921,4.871,4.871,0,0,1-3.716,1.45,4.927,4.927,0,0,1-3.623-1.353,5.29,5.29,0,0,1-1.475-3.667Zm3.291.205a3.932,3.932,0,0,0,.459,2.148,1.529,1.529,0,0,0,1.357.684q1.758,0,1.8-2.705v-.332q0-2.842-1.816-2.842-1.65,0-1.787,2.451ZM208.447,6h3.477l-2.715,3.066-2.686,0Zm9.131,4.434.107,1.24a3.583,3.583,0,0,1,3.018-1.436,3.015,3.015,0,0,1,2.466.986,4.7,4.7,0,0,1,.845,2.969V21h-3.3V14.33a1.783,1.783,0,0,0-.322-1.177,1.491,1.491,0,0,0-1.172-.376,1.569,1.569,0,0,0-1.436.762V21h-3.291V10.434Z" transform="translate(223 9591.495)" fill="#12263f"/><g transform="translate(464 9567.021)"><g clip-path="url(#a)"><path d="M26.829.357a31.155,31.155,0,0,0-7.963,2.071,29.34,29.34,0,0,0-7.287,4.4A27.759,27.759,0,0,0,2.533,20.027,28.222,28.222,0,0,0,5.792,45,28.305,28.305,0,0,0,23.342,57.34c.893.221.991.324,1,1.229.011.95.013,1.9,0,2.849a1.319,1.319,0,0,0,.73,1.387.663.663,0,0,1,.411.563,12.005,12.005,0,0,1,0,1.9.647.647,0,0,1-.4.565,1.282,1.282,0,0,0-.738,1.31c0,2.07,0,4.14,0,6.21,0,.509.074,1,.625,1.206.576.212.909-.163,1.2-.587a.791.791,0,0,1,.209-.218c-.006-1.806,0-3.612-.026-5.418,0-.385.071-.567.513-.563q3.134.029,6.269,0c.443,0,.516.181.511.564-.021,1.8-.02,3.607-.026,5.41.184.118.275.324.418.482a.86.86,0,0,0,.9.335.911.911,0,0,0,.662-.792,2.829,2.829,0,0,0,.034-.509c0-2-.006-3.991.005-5.987a1.4,1.4,0,0,0-.76-1.451.712.712,0,0,1-.393-.655,15.216,15.216,0,0,1,0-1.678.768.768,0,0,1,.444-.7,1.3,1.3,0,0,0,.709-1.328c-.007-.973-.013-1.947,0-2.92.014-.862.127-1,.956-1.2a31.366,31.366,0,0,0,6.442-2.323,1.4,1.4,0,0,0,.93-1.12,2.589,2.589,0,0,1,.067-.361c-.436-.7-.913-.8-1.765-.367a26.958,26.958,0,0,1-27.308-1.642,1.6,1.6,0,0,1-.206-.2,25.175,25.175,0,0,1-7.861-8.3A26.946,26.946,0,0,1,51.725,13.213c.127.175.231.367.345.551a23.42,23.42,0,0,1,4.22,9.511c2.079,10.682-1,19.628-9.246,26.765-.857.742-.946.936-.586,1.818.022-.008.043-.017.066-.025.8.448,1.4.113,2.026-.418A28.245,28.245,0,0,0,58.76,32.33,28.108,28.108,0,0,0,51.844,10.2,28.328,28.328,0,0,0,32.806.33C32.572.3,32.239.4,32.193,0H27.514c-.072.415-.429.322-.685.357m3.686,65.227h-.584c-.657,0-1.314-.009-1.971,0-.307.006-.461-.1-.42-.421a.432.432,0,0,0,0-.073c-.1-2.062-.1-2.062,1.982-2.062.827,0,1.655.013,2.482-.006.344-.008.505.1.457.454a.432.432,0,0,0,0,.073c.073,2.031.073,2.031-1.946,2.031m-4.159-7.078c-.009-.327.1-.406.428-.368a27.687,27.687,0,0,0,6.412,0c.391-.046.461.084.448.42-.029.726.226,1.643-.125,2.126s-1.315.116-2.009.153c-.51.027-1.022.005-1.534.005-1.023,0-2.046-.014-3.068.007-.387.008-.582-.069-.556-.514.036-.607.021-1.217,0-1.826" transform="translate(-0.807)"/><path d="M161.244.33a28.328,28.328,0,0,1,19.037,9.87A28.107,28.107,0,0,1,187.2,32.33a28.245,28.245,0,0,1-10.209,19.086c-.622.532-1.228.867-2.026.418-.023.007-.044.017-.066.024l.012.031c.767.581,1.088.595,1.856-.065,9.056-7.78,12.7-17.609,9.978-29.214C183.935,10.62,176.034,3.341,164.032.561,162.915.3,161.765.184,160.63,0c.046.4.379.3.614.33" transform="translate(-129.244)"/><path d="M26.335.143a29.729,29.729,0,0,0-7.9,1.92A29.049,29.049,0,0,0,1.077,36.746C4.243,47.806,11.641,54.719,22.79,57.587c.432.111.6.248.582.712-.037,1.144-.007,2.289-.014,3.434a1.108,1.108,0,0,0,.866,1.26c.487.1.341.449.3.67-.125.647.435,1.5-.289,1.914a1.416,1.416,0,0,0-.875,1.348c0,2.192,0,4.384,0,6.577,0,.785.35,1.257.956,1.344s1.031-.279,1.253-1.048c0-.016,0-.032,0-.047a.8.8,0,0,0-.209.218c-.287.424-.62.8-1.2.587-.551-.2-.624-.7-.625-1.206,0-2.07,0-4.14,0-6.21a1.282,1.282,0,0,1,.738-1.31.647.647,0,0,0,.4-.565,11.956,11.956,0,0,0,0-1.9.663.663,0,0,0-.411-.563,1.318,1.318,0,0,1-.73-1.387c.013-.95.012-1.9,0-2.849-.011-.905-.11-1.008-1-1.229A28.305,28.305,0,0,1,4.985,45,28.222,28.222,0,0,1,1.726,20.027,27.759,27.759,0,0,1,10.772,6.832a29.334,29.334,0,0,1,7.287-4.4A31.152,31.152,0,0,1,26.022.357c.256-.035.613.058.685-.357-.071.185-.237.129-.372.143" transform="translate(0)"/><path d="M178.289,274.363a1.4,1.4,0,0,1-.93,1.12,31.354,31.354,0,0,1-6.442,2.323c-.83.2-.943.334-.956,1.2-.015.973-.01,1.947,0,2.92a1.3,1.3,0,0,1-.709,1.327.769.769,0,0,0-.444.7,15.119,15.119,0,0,0,0,1.678.712.712,0,0,0,.393.655,1.4,1.4,0,0,1,.76,1.451c-.011,2,0,3.991-.005,5.987a2.813,2.813,0,0,1-.035.509.91.91,0,0,1-.662.792.859.859,0,0,1-.9-.335c-.143-.157-.234-.364-.418-.482,0,.018,0,.036,0,.055.219.766.662,1.154,1.251,1.042a1.132,1.132,0,0,0,.962-1.264q0-3.359,0-6.719a1.087,1.087,0,0,0-.82-1.216c-.317-.076-.395-.234-.358-.507.095-.7-.2-1.428.17-2.1.014-.026.093-.012.14-.025a1.161,1.161,0,0,0,.87-1.268c0-1.144.019-2.289-.011-3.432-.012-.445.111-.624.568-.721a28.417,28.417,0,0,0,6.9-2.47c.6-.3.984-.706.834-1.433q-.043-.077-.086-.146a2.585,2.585,0,0,0-.067.361" transform="translate(-135.122 -220.464)"/><path d="M104.387,108.646c.446-.481.975-.878,1.465-1.314a26.2,26.2,0,0,0,6.336-8.558,25.4,25.4,0,0,0,2.39-9.053,26.753,26.753,0,0,0-2.037-12.7A27.737,27.737,0,0,0,110.07,72.5c.221.825.632,1.584.9,2.393a29.742,29.742,0,0,1,1.376,6.34c.133,1.26.089,2.512.119,3.768.005.231.082.493-.152.676a24.322,24.322,0,0,1-1.4,9.972c-3.589,9.186-10.248,14.588-20.032,16.077a30.852,30.852,0,0,1-5.026.14,5.982,5.982,0,0,1-2.7.153,30.547,30.547,0,0,1-4.6-.574,26.692,26.692,0,0,1-4.917-1.534,3.385,3.385,0,0,0-.674-.233,26.8,26.8,0,0,0,27,1.689,2.135,2.135,0,0,1,.9-.282,1.008,1.008,0,0,1,1.1.717.629.629,0,0,1,.252-.331,10.372,10.372,0,0,1,2.132-1.274.982.982,0,0,1,.031-1.548" transform="translate(-58.715 -58.331)" fill="#5391f8"/><path d="M223.764,265.429a10.369,10.369,0,0,0-2.132,1.274.629.629,0,0,0-.252.331,1.95,1.95,0,0,1,.064.216c-.008-.3.233-.382.43-.512.641-.423,1.276-.854,1.914-1.282h0l-.023-.027" transform="translate(-178.124 -213.566)" fill="#5391f8"/><path d="M240.278,75.371a26.755,26.755,0,0,1,2.037,12.7,25.4,25.4,0,0,1-2.39,9.053,26.2,26.2,0,0,1-6.336,8.558c-.49.436-1.02.833-1.465,1.314a.982.982,0,0,0-.031,1.548l.011,0c-.359-.882-.271-1.076.587-1.818,8.243-7.137,11.324-16.083,9.245-26.765a23.418,23.418,0,0,0-4.22-9.511c.024.135.056.268.091.4a27.746,27.746,0,0,1,2.472,4.523" transform="translate(-186.452 -56.683)" fill="#5391f8"/><path d="M99.626,264.1a2.134,2.134,0,0,0-.9.282,26.8,26.8,0,0,1-27-1.689,1.077,1.077,0,0,0-.3-.013,1.6,1.6,0,0,0,.206.2,26.958,26.958,0,0,0,27.308,1.642c.852-.43,1.328-.333,1.765.367.006-.024.013-.047.021-.07a1.008,1.008,0,0,0-1.1-.717" transform="translate(-57.468 -211.354)" fill="#5391f8"/><path d="M221.269,273.713q.043.069.086.146a1.951,1.951,0,0,0-.064-.216c-.008.023-.015.047-.022.07" transform="translate(-178.035 -220.175)" fill="#5391f8"/><path d="M233.583,265.412l.023.027h0l-.013-.031-.011,0" transform="translate(-187.943 -213.549)" fill="#5391f8"/><path d="M138.145,353.094c-.01-1.312-.018-2.625,0-3.937.009-.587-.2-.828-.806-.821q-2.624.031-5.249,0c-.6-.007-.815.234-.806.821.02,1.312.012,2.624,0,3.937a1.621,1.621,0,0,1-.139.9.579.579,0,0,1,.065-.032,39,39,0,0,1,4.509-.078,10.208,10.208,0,0,1,2.537.093l.017.009a1.65,1.65,0,0,1-.133-.892" transform="translate(-105.524 -280.274)" fill="#62a3fa"/><path d="M138.059,376.7l-.017-.009a10.215,10.215,0,0,0-2.538-.093,38.942,38.942,0,0,0-4.509.078.535.535,0,0,0-.065.032.76.76,0,0,1-.054.079h7.241a.779.779,0,0,1-.059-.087" transform="translate(-105.305 -302.985)" fill="#62a3fa"/><path d="M130.961,351.891c.01-1.312.018-2.625,0-3.937-.009-.587.2-.828.806-.821q2.624.031,5.249,0c.6-.007.815.235.806.821-.02,1.312-.012,2.625,0,3.937a1.649,1.649,0,0,0,.133.892.591.591,0,0,1,.059.032c.006-1.8,0-3.607.026-5.41,0-.384-.068-.568-.511-.564q-3.134.03-6.269,0c-.442,0-.517.178-.512.563.021,1.806.02,3.612.026,5.418a.553.553,0,0,1,.054-.031,1.62,1.62,0,0,0,.139-.9" transform="translate(-105.197 -279.071)" fill="#62a3fa"/><path d="M167.632,377.252a.774.774,0,0,0,.059.087h0c0-.018,0-.037,0-.055a.579.579,0,0,0-.059-.032" transform="translate(-134.878 -303.54)" fill="#62a3fa"/><path d="M130.876,377.323c0,.016,0,.032,0,.047a.8.8,0,0,0,.054-.078.535.535,0,0,0-.054.031" transform="translate(-105.304 -303.572)" fill="#62a3fa"/><path d="M25.057,61.3a25.5,25.5,0,0,0,7.9,1.987,13.075,13.075,0,0,0,3.84.108c-8.723-1.132-15.3-5.512-19.342-13.409a23.6,23.6,0,0,1-.64-20.53c.4-.964.644-1.094,1.672-.961h0L19.862,26a1.3,1.3,0,0,1,.069-1.833c5.642-6.944,12.929-10.168,21.833-9.376A24.4,24.4,0,0,1,63.437,35.474a10.822,10.822,0,0,0,.136,1.521,24.156,24.156,0,0,0-.181-5.153,27.907,27.907,0,0,0-1.985-7.2,1.088,1.088,0,0,1-.148-.811l-.044-.064A26.548,26.548,0,0,0,49.139,14.2a25.4,25.4,0,0,0-7.577-1.775A26.1,26.1,0,0,0,22.1,18.575a25.67,25.67,0,0,0-9.4,17.5,26.192,26.192,0,0,0,6.161,20.308,25.306,25.306,0,0,0,5.3,4.766l.008.005c.306-.148.6.027.883.144" transform="translate(-10.076 -9.918)" fill="#62a3fa"/><path d="M23.272,60.254a25.306,25.306,0,0,1-5.3-4.766A26.192,26.192,0,0,1,11.807,35.18a25.67,25.67,0,0,1,9.4-17.5A26.106,26.106,0,0,1,40.668,11.53,25.4,25.4,0,0,1,48.245,13.3a26.548,26.548,0,0,1,12.077,9.566l.044.064a.639.639,0,0,1,.079-.149c-.115-.184-.219-.376-.346-.551A26.946,26.946,0,0,0,15.277,52.053a25.177,25.177,0,0,0,7.861,8.3.7.7,0,0,1,.143-.093l-.008-.005" transform="translate(-9.182 -9.021)" fill="#62a3fa"/><path d="M261.95,72.022a27.9,27.9,0,0,1,1.985,7.2,24.156,24.156,0,0,1,.181,5.153,1.569,1.569,0,0,0,.1.265c.234-.183.158-.445.152-.676-.03-1.256.014-2.507-.119-3.768a29.757,29.757,0,0,0-1.376-6.34c-.27-.809-.681-1.568-.9-2.393-.056-.084-.112-.168-.17-.251a1.089,1.089,0,0,0,.148.811" transform="translate(-210.618 -57.297)" fill="#62a3fa"/><path d="M77.9,263.87a30.524,30.524,0,0,0,4.6.574,5.982,5.982,0,0,0,2.7-.153c-.141-.016-.28-.036-.42-.054a13.075,13.075,0,0,1-3.84-.108,25.5,25.5,0,0,1-7.9-1.987c-.278-.117-.576-.292-.883-.144.053.036.107.07.16.106a3.409,3.409,0,0,1,.674.232A26.689,26.689,0,0,0,77.9,263.87" transform="translate(-58.056 -210.76)" fill="#62a3fa"/><path d="M262.127,70.847c-.035-.132-.067-.265-.091-.4a.64.64,0,0,0-.079.149c.057.083.113.167.17.251" transform="translate(-210.773 -56.682)" fill="#62a3fa"/><path d="M71.727,262.338c-.053-.036-.107-.069-.16-.106a.7.7,0,0,0-.143.093,1.075,1.075,0,0,1,.3.013" transform="translate(-57.468 -210.994)" fill="#62a3fa"/><path d="M131.279,300.2c1.022-.021,2.045-.007,3.068-.007.511,0,1.024.022,1.534-.005.694-.037,1.664.323,2.009-.153s.1-1.4.125-2.126c.013-.336-.056-.466-.448-.42a27.688,27.688,0,0,1-6.412,0c-.33-.038-.437.042-.428.368.016.608.031,1.219,0,1.826-.026.446.169.522.556.514" transform="translate(-105.179 -239.356)" fill="#4980f7"/><path d="M141.6,323.01c.048-.354-.113-.462-.457-.454-.827.019-1.655.006-2.482.006-2.081,0-2.081,0-1.982,2.062a.414.414,0,0,1,0,.073c-.04.321.113.427.421.421.657-.013,1.314,0,1.971,0h.584c2.019,0,2.019,0,1.946-2.031a.412.412,0,0,1,0-.073" transform="translate(-109.948 -259.531)" fill="#e3f4fb"/><path d="M73.754,46.849a24.31,24.31,0,0,0-21.46-21.6,23.512,23.512,0,0,0-12.26,1.868,24.386,24.386,0,0,0-9.3,7.118,1.743,1.743,0,0,0-.39,2c0,.018-.011.036-.016.054.885.319,1.148.229,1.8-.586a22.219,22.219,0,0,1,39.1,19.028,7.646,7.646,0,0,0-1.92-2.431A7.185,7.185,0,0,0,66.5,51a7.034,7.034,0,0,0,1.952-5.481,6.825,6.825,0,0,0-2.111-4.447c-2.671-2.6-6.072-2.592-9.854.027-1.129-3.284-3.364-5.248-6.891-5.219-3.46.029-5.648,1.989-6.751,5.213-3.883-2.642-7.343-2.585-10.01.121A7.08,7.08,0,0,0,32.779,51c-2.479.8-3.163,1.333-4.669,3.679a17.962,17.962,0,0,1-.65-4.224,21.614,21.614,0,0,1,1.794-9.886,1.315,1.315,0,0,0-.326-1.768l-.045.06c-.958,0-1.375.592-1.692,1.411a24.5,24.5,0,0,0-1.634,11.314A24.234,24.234,0,0,0,44.091,72.919a27.4,27.4,0,0,0,3.154.609.669.669,0,0,1,.236.067l.081-.022a18.837,18.837,0,0,1,3.056-.049,23.322,23.322,0,0,0,14.57-5.605,23.722,23.722,0,0,0,8.294-14.127,20.622,20.622,0,0,0,.413-4.278,10.269,10.269,0,0,1,.062-2.04s0-.01,0-.015c-.182-.149-.18-.385-.2-.609M46.246,39.48a4.8,4.8,0,1,1,.207,6.879,4.716,4.716,0,0,1-.207-6.879M34.456,42.7A4.8,4.8,0,1,1,34.6,49.58a4.728,4.728,0,0,1-.148-6.881m22.694,27.6a12.938,12.938,0,0,1-1.942.534v-.82q0-6.357.006-12.713a1.826,1.826,0,0,0-.4-1.283c-1.142-.475-1.793-.052-1.794,1.181,0,4.48-.012,8.96.011,13.44,0,.543-.128.743-.692.8a28.1,28.1,0,0,1-5.247.014c-.6-.052-.786-.241-.781-.875.034-4.382.018-8.765.018-13.148a5.571,5.571,0,0,0-.013-.657,1.078,1.078,0,0,0-2.106-.189,2.812,2.812,0,0,0-.071.792q-.006,6.318,0,12.637v.827a15.086,15.086,0,0,1-2.21-.643c-.373-.113-.3-.389-.3-.646,0-1.972,0-3.945,0-5.917,0-.961-.2-1.213-1.148-1.489h0a1.3,1.3,0,0,0-1.055,1.5c.036,1.769.011,3.54.011,5.407a23.594,23.594,0,0,1-3.949-2.58,2.172,2.172,0,0,1-.994-2.074c.1-1.43.03-2.871.022-4.307-.005-.892-.378-1.332-1.093-1.328-.7,0-1.083.469-1.094,1.347-.012.948,0,1.9,0,2.845-.3.069-.351-.178-.445-.31-.423-.594-.786-1.232-1.232-1.806a5.191,5.191,0,0,1-.713-4.444,4.09,4.09,0,0,1,3.877-3.28c1.727-.05,3.456,0,5.184-.024.411-.005.466.157.46.518-.025,1.436-.022,2.872-.018,4.308,0,.908.273,1.2,1.172,1.345a1.194,1.194,0,0,0,1.022-1.366c-.013-1.289-.017-2.579,0-3.868a4.149,4.149,0,0,1,4.114-4.154c2.431-.027,4.864.007,7.3.015a4.183,4.183,0,0,1,4.685,4.382c.011,5.066,0,10.132.015,15.2,0,.468-.126.708-.583.828m.823-27.476a4.8,4.8,0,1,1,.285,6.775,4.73,4.73,0,0,1-.285-6.775m9.053,20.165q0-1.107,0-2.214c0-.292.015-.586-.008-.877a1.086,1.086,0,0,0-1.161-1.132,1.039,1.039,0,0,0-1.017,1.18c-.015,1.68-.023,3.361.005,5.041a1.232,1.232,0,0,1-.483,1.059,24.266,24.266,0,0,1-3.809,2.692c-.182.1-.38.18-.637.3,0-.417,0-.752,0-1.087,0-4.774,0-9.547-.022-14.321,0-.418.1-.541.516-.536,1.68.021,3.362-.019,5.041.019a4.381,4.381,0,0,1,4.127,4.061c.282,2.464-1.122,4.092-2.552,5.815" transform="translate(-20.476 -20.19)"/><path d="M164.687,139.563s0,.01,0,.015a10.268,10.268,0,0,0-.062,2.04,20.619,20.619,0,0,1-.413,4.278,23.721,23.721,0,0,1-8.294,14.127,23.321,23.321,0,0,1-14.57,5.605,18.814,18.814,0,0,0-3.056.049l-.081.022a.363.363,0,0,1,.14.125,30.845,30.845,0,0,0,5.026-.14c9.784-1.489,16.444-6.891,20.032-16.077a24.322,24.322,0,0,0,1.4-9.972.5.5,0,0,1-.116-.073" transform="translate(-111.204 -112.293)"/><path d="M46.146,129.656a27.4,27.4,0,0,1-3.154-.609,24.234,24.234,0,0,1-18.534-21.338,24.5,24.5,0,0,1,1.634-11.314c.317-.819.734-1.412,1.692-1.411l.045-.06-.036-.03c-1.028-.132-1.276,0-1.672.961a23.6,23.6,0,0,0,.64,20.53c4.039,7.9,10.618,12.277,19.342,13.409q.14-.03.28-.07a.668.668,0,0,0-.236-.067" transform="translate(-19.377 -76.317)"/><path d="M48.756,35.615a1.742,1.742,0,0,1,.39-2,24.387,24.387,0,0,1,9.3-7.118,24.106,24.106,0,0,1,26.869,5.236,23.734,23.734,0,0,1,6.851,14.495c.024.224.022.46.2.609.006-.064.01-.128.015-.192a10.852,10.852,0,0,1-.136-1.521A24.4,24.4,0,0,0,70.574,24.436c-8.9-.792-16.191,2.432-21.833,9.376a1.3,1.3,0,0,0-.069,1.833l.069.025c0-.018.011-.036.016-.054" transform="translate(-38.885 -19.567)"/><path d="M137.056,273.331q-.14.04-.28.07c.14.018.279.038.42.055a.363.363,0,0,0-.14-.125" transform="translate(-110.051 -219.924)"/><path d="M273.733,138.579c-.005.064-.009.128-.015.192a.513.513,0,0,0,.116.073,1.589,1.589,0,0,1-.1-.265" transform="translate(-220.236 -111.502)"/><path d="M38.513,49.55c-.3.873-.678,1.722-.952,2.607A22.233,22.233,0,0,0,37,62.773a.86.86,0,0,0,.234.577,6.616,6.616,0,0,1,4.092-3.18c.056-.313-.193-.45-.32-.633a7.156,7.156,0,0,1,4.806-11.3,6.953,6.953,0,0,1,5.3,1.336c.591.417.595.411.9-.254a7.161,7.161,0,0,1,10.217-3.454A7.024,7.024,0,0,1,65.28,49.3c.306.686.308.685.946.245a7.177,7.177,0,0,1,10.285,9.669,5.171,5.171,0,0,0-.611.938,6.714,6.714,0,0,1,4.224,3.3,20.418,20.418,0,0,0,.531-6.359A22.088,22.088,0,0,0,70.325,39.9a21.292,21.292,0,0,0-10.181-3.274,21.782,21.782,0,0,0-17.807,7.139c-.489.51-.858,1.124-1.359,1.623a1.134,1.134,0,0,1-1.668.165,7.273,7.273,0,0,1-1.392,2.476,1.085,1.085,0,0,1,.6,1.521" transform="translate(-29.46 -29.429)" fill="#d2eefc"/><path d="M44.5,82.333l-.063-.046-1.371,2.5.041.023A7.267,7.267,0,0,0,44.5,82.333" transform="translate(-34.655 -66.209)" fill="#d2eefc"/><path d="M37.421,48.743a21.619,21.619,0,0,0-1.794,9.886,17.974,17.974,0,0,0,.65,4.224c1.506-2.346,2.19-2.88,4.669-3.679a7.08,7.08,0,0,1,.06-9.783c2.666-2.706,6.126-2.762,10.01-.121,1.1-3.225,3.291-5.184,6.751-5.213,3.527-.03,5.762,1.935,6.891,5.219,3.782-2.619,7.183-2.626,9.855-.027a6.823,6.823,0,0,1,2.11,4.447,7.034,7.034,0,0,1-1.952,5.481,7.182,7.182,0,0,1,2.809,1.307A7.647,7.647,0,0,1,79.4,62.914,22.216,22.216,0,0,0,40.3,43.886c-.648.815-.911.905-1.8.586,0,.007,0,.014-.006.021a1.134,1.134,0,0,0,1.668-.165c.5-.5.871-1.114,1.36-1.623a21.783,21.783,0,0,1,17.807-7.139,21.294,21.294,0,0,1,10.181,3.275,22.088,22.088,0,0,1,10.33,17.193,20.414,20.414,0,0,1-.531,6.359,6.713,6.713,0,0,0-4.224-3.3,5.159,5.159,0,0,1,.611-.938A7.177,7.177,0,0,0,65.41,48.482c-.638.44-.64.441-.946-.245A7.025,7.025,0,0,0,61.416,44.8,7.161,7.161,0,0,0,51.2,48.255c-.3.665-.305.671-.9.254A6.952,6.952,0,0,0,45,47.172a7.156,7.156,0,0,0-4.806,11.3c.127.184.376.321.32.634a6.617,6.617,0,0,0-4.092,3.18.859.859,0,0,1-.234-.577A22.229,22.229,0,0,1,36.744,51.1c.275-.885.648-1.734.953-2.607a1.086,1.086,0,0,0-.6-1.522l0,.007a1.314,1.314,0,0,1,.326,1.768" transform="translate(-28.643 -28.368)" fill="#d2eefc"/><path d="M50.156,82.312l-.069-.025.063.046c0-.007,0-.014.006-.021" transform="translate(-40.3 -66.209)" fill="#d2eefc"/><path d="M43.107,95.1l0-.007-.041-.023.036.03" transform="translate(-34.655 -76.496)" fill="#d2eefc"/><path d="M115.232,152.367c-.151-.155-.287-.323-.431-.485-2.432-.007-4.864-.042-7.3-.015a4.15,4.15,0,0,0-4.114,4.154c-.019,1.289-.015,2.578,0,3.868a1.194,1.194,0,0,1-1.022,1.366,12.8,12.8,0,0,0-.131,2.88h0c.946.277,1.146.529,1.148,1.489,0,1.972,0,3.945,0,5.917,0,.257-.071.534.3.646a15.114,15.114,0,0,0,2.21.643V172q0-6.318,0-12.637a2.813,2.813,0,0,1,.071-.792,1.078,1.078,0,0,1,2.106.189,5.615,5.615,0,0,1,.013.657c0,4.383.017,8.765-.018,13.148-.005.634.178.823.781.875a28.116,28.116,0,0,0,5.247-.014c.564-.056.7-.257.692-.8-.022-4.48-.015-8.96-.011-13.44,0-1.233.653-1.656,1.794-1.182.344-2.07.223-4.028-1.347-5.641" transform="translate(-82.245 -122.185)" fill="#f6e265"/><path d="M58.268,174.544c-.9-.14-1.169-.437-1.172-1.345,0-1.436-.007-2.872.017-4.308.006-.36-.048-.523-.459-.518-1.728.021-3.457-.026-5.184.024a4.09,4.09,0,0,0-3.877,3.28,5.192,5.192,0,0,0,.713,4.444c.447.574.809,1.213,1.232,1.806.094.132.148.379.445.31,0-.948-.009-1.9,0-2.845.011-.878.4-1.343,1.094-1.347.714,0,1.087.436,1.093,1.328.008,1.436.073,2.877-.022,4.307a2.172,2.172,0,0,0,.994,2.074,23.584,23.584,0,0,0,3.949,2.58c0-1.866.025-3.637-.011-5.407a1.3,1.3,0,0,1,1.055-1.5h0a3.1,3.1,0,0,1,.131-2.88" transform="translate(-38.145 -135.475)" fill="#e59542"/><path d="M101.251,199.954a3.1,3.1,0,0,0-.131,2.88,12.8,12.8,0,0,1,.131-2.88" transform="translate(-81.129 -160.885)" fill="#e59542"/><path d="M207.286,168.392c-1.68-.038-3.361,0-5.041-.019-.416-.005-.518.117-.516.536.021,4.774.018,9.547.022,14.321,0,.335,0,.671,0,1.087.257-.12.455-.2.637-.3a24.254,24.254,0,0,0,3.809-2.692,1.231,1.231,0,0,0,.483-1.059c-.028-1.68-.02-3.361,0-5.041a1.039,1.039,0,0,1,1.017-1.18,1.087,1.087,0,0,1,1.161,1.132c.023.291.008.584.008.876q0,1.107,0,2.214c1.429-1.723,2.833-3.351,2.552-5.815a4.382,4.382,0,0,0-4.127-4.061" transform="translate(-162.312 -135.474)" fill="#e59542"/><path d="M65.877,116.271a6.482,6.482,0,0,0,4.494-1.322,5.955,5.955,0,0,0,2.235-4.534c.017-.291,0-.584,0-.876a4.765,4.765,0,1,0-6.733,6.732" transform="translate(-51.749 -86.881)" fill="#fdd1a3"/><path d="M126.373,99.659c2.719.037,4.88-.927,6.119-3.476a6.861,6.861,0,0,0,.607-3.253,4.763,4.763,0,1,0-6.726,6.729" transform="translate(-100.396 -73.49)" fill="#fdd1a3"/><path d="M227.189,115.378Z" transform="translate(-182.798 -92.834)" fill="#fdd1a3"/><path d="M190.79,115.318a5.646,5.646,0,0,0,2.689-4.407c.038-.508-.016-1-.023-1.5a4.765,4.765,0,1,0-6.61,6.86,6.435,6.435,0,0,0,3.943-.952" transform="translate(-149.065 -86.866)" fill="#fdd1a3"/><path d="M166.62,151.949a4.4,4.4,0,0,1,2.043,3.217,9.94,9.94,0,0,1,.039,2.405c-.006.2,0,.458-.3.5a1.826,1.826,0,0,1,.4,1.283q-.017,6.356-.006,12.713v.82a12.952,12.952,0,0,0,1.942-.534c.457-.12.584-.361.583-.828-.018-5.066,0-10.132-.015-15.2a4.183,4.183,0,0,0-4.685-4.382" transform="translate(-134.064 -122.252)" fill="#f2d232"/><path d="M168.7,157.607a9.94,9.94,0,0,0-.039-2.405,4.406,4.406,0,0,0-2.043-3.217c.143.162.28.33.431.485,1.571,1.613,1.691,3.571,1.347,5.641.3-.045.3-.3.3-.5" transform="translate(-134.064 -122.288)" fill="#f2d232"/><path d="M227.188,115.378Z" transform="translate(-182.797 -92.834)" fill="#febc85"/><path d="M199.969,122.152a4.724,4.724,0,0,0,0-6.774,4.77,4.77,0,0,1-.945,4.563,5.972,5.972,0,0,1-4.308,2.452,2.28,2.28,0,0,1-1.356-.155,4.708,4.708,0,0,0,6.608-.086" transform="translate(-155.58 -92.834)" fill="#febc85"/><path d="M194.718,122.393a5.971,5.971,0,0,0,4.308-2.451,4.77,4.77,0,0,0,.945-4.564c.007.5.061.993.023,1.5a5.646,5.646,0,0,1-2.689,4.407,6.435,6.435,0,0,1-3.943.952,2.278,2.278,0,0,0,1.356.155" transform="translate(-155.581 -92.834)" fill="#febc85"/><path d="M78.544,119.53a5.984,5.984,0,0,1-5.112,3.351,1.662,1.662,0,0,1-1.127-.185,4.762,4.762,0,0,0,6.733-6.732,4.334,4.334,0,0,1-.494,3.566" transform="translate(-58.177 -93.306)" fill="#febc85"/><path d="M79.033,116.841a5.955,5.955,0,0,1-2.234,4.534A6.484,6.484,0,0,1,72.3,122.7a1.662,1.662,0,0,0,1.127.185,5.984,5.984,0,0,0,5.112-3.351,4.335,4.335,0,0,0,.494-3.565c0,.292.013.585,0,.876" transform="translate(-58.176 -93.306)" fill="#febc85"/><path d="M139.637,101.691a6.186,6.186,0,0,1-5.852,4.719,1.42,1.42,0,0,1-.837-.19,4.76,4.76,0,0,0,6.726-6.729,2.977,2.977,0,0,1-.037,2.2" transform="translate(-106.971 -80.05)" fill="#febc85"/><path d="M139.067,102.744c-1.239,2.549-3.4,3.513-6.119,3.476a1.42,1.42,0,0,0,.837.19,6.186,6.186,0,0,0,5.852-4.719,2.977,2.977,0,0,0,.037-2.2,6.864,6.864,0,0,1-.607,3.253" transform="translate(-106.971 -80.051)" fill="#febc85"/></g></g></g></svg>