<svg xmlns="http://www.w3.org/2000/svg" xmlns:xlink="http://www.w3.org/1999/xlink" width="296.93" height="74.858" viewBox="0 0 296.93 74.858">
  <defs>
    <clipPath id="clip-path">
      <rect id="Rectángulo_292485" data-name="Rectángulo 292485" width="74.86" height="74.858" fill="none"/>
    </clipPath>
  </defs>
  <g id="Grupo_874029" data-name="Grupo 874029" transform="translate(-180 -3586.593)">
    <path id="Trazado_591728" data-name="Trazado 591728" d="M0,0H259.508l-2.071,52.528L0,52Z" transform="translate(180 3598.066)" fill="#fff0a6"/>
    <path id="Trazado_609218" data-name="Trazado 609218" d="M13.46,10.271H8.766V23H5V10.271H.387V7.359H13.46ZM18.7,23H15.071V11.377H18.7ZM14.856,8.38a1.616,1.616,0,0,1,.559-1.268,2.108,2.108,0,0,1,1.45-.494,2.108,2.108,0,0,1,1.45.494,1.616,1.616,0,0,1,.559,1.268,1.616,1.616,0,0,1-.559,1.268,2.108,2.108,0,0,1-1.45.494,2.108,2.108,0,0,1-1.45-.494A1.616,1.616,0,0,1,14.856,8.38Zm16.865,8.895A7.009,7.009,0,0,1,30.5,21.6a3.909,3.909,0,0,1-3.292,1.617,3.351,3.351,0,0,1-2.632-1.171v5.425h-3.62V11.377h3.384l.107,1.074a3.351,3.351,0,0,1,2.739-1.289,3.941,3.941,0,0,1,3.341,1.584A7.1,7.1,0,0,1,31.722,17.1Zm-3.62-.226q0-3.094-1.8-3.094a1.7,1.7,0,0,0-1.719.924v4.576a1.759,1.759,0,0,0,1.74.967q1.729,0,1.783-2.986Zm4.759.032a6.86,6.86,0,0,1,.677-3.1,4.84,4.84,0,0,1,1.944-2.089,5.856,5.856,0,0,1,2.976-.73,5.344,5.344,0,0,1,4.114,1.617,6.2,6.2,0,0,1,1.5,4.4v.129a6.019,6.019,0,0,1-1.509,4.313,5.359,5.359,0,0,1-4.087,1.6,5.42,5.42,0,0,1-3.985-1.488,5.819,5.819,0,0,1-1.622-4.034Zm3.62.226a4.325,4.325,0,0,0,.5,2.363,1.682,1.682,0,0,0,1.493.752q1.934,0,1.977-2.976v-.365q0-3.126-2-3.126-1.815,0-1.966,2.7Zm15.275,2.428a.836.836,0,0,0-.483-.741,7.353,7.353,0,0,0-1.837-.58,8.376,8.376,0,0,1-2.234-.79,3.743,3.743,0,0,1-1.343-1.187,2.835,2.835,0,0,1-.462-1.6A3.212,3.212,0,0,1,46.718,12.2a5.443,5.443,0,0,1,3.459-1.037,6.03,6.03,0,0,1,3.7,1.042,3.258,3.258,0,0,1,1.4,2.739H51.638q0-1.4-1.472-1.4a1.459,1.459,0,0,0-.956.317.981.981,0,0,0-.387.79.9.9,0,0,0,.473.784,4.466,4.466,0,0,0,1.509.494,13.042,13.042,0,0,1,1.821.462q2.621.9,2.621,3.233a3.044,3.044,0,0,1-1.413,2.589,6.2,6.2,0,0,1-3.658,1,6.322,6.322,0,0,1-2.664-.537,4.455,4.455,0,0,1-1.826-1.461,3.308,3.308,0,0,1-.655-1.944h3.384a1.4,1.4,0,0,0,.537,1.176,2.209,2.209,0,0,0,1.321.371,1.738,1.738,0,0,0,1.112-.3A.962.962,0,0,0,51.756,19.734ZM61.961,17.1a7.1,7.1,0,0,1,1.192-4.351,3.925,3.925,0,0,1,3.33-1.59A3.338,3.338,0,0,1,69.1,12.387V6.5h3.631V23H69.48L69.3,21.754a3.428,3.428,0,0,1-2.836,1.461,3.918,3.918,0,0,1-3.287-1.59A7.325,7.325,0,0,1,61.961,17.1Zm3.62.226q0,3.094,1.8,3.094a1.782,1.782,0,0,0,1.719-1.01V14.986a1.734,1.734,0,0,0-1.7-1.031q-1.676,0-1.815,2.707Zm14.835,5.887a5.975,5.975,0,0,1-4.329-1.6,5.509,5.509,0,0,1-1.654-4.152v-.3a7.138,7.138,0,0,1,.661-3.147,4.834,4.834,0,0,1,1.928-2.111,5.821,5.821,0,0,1,3.008-.747,5.031,5.031,0,0,1,3.867,1.52,5.973,5.973,0,0,1,1.418,4.238v1.407h-7.2a2.609,2.609,0,0,0,.849,1.536,2.525,2.525,0,0,0,1.7.559,3.254,3.254,0,0,0,2.686-1.2L85,21.174a4.624,4.624,0,0,1-1.917,1.488A6.48,6.48,0,0,1,80.416,23.215Zm-.408-9.26q-1.59,0-1.891,2.105H81.77v-.279a1.793,1.793,0,0,0-.44-1.348A1.753,1.753,0,0,0,80.008,13.955ZM105.069,17.7a5.712,5.712,0,0,1-.881,2.884,5.316,5.316,0,0,1-2.261,1.939,7.7,7.7,0,0,1-3.325.688,6.142,6.142,0,0,1-4.855-2.009,8.294,8.294,0,0,1-1.772-5.672v-.773a9.467,9.467,0,0,1,.8-4.023,6.064,6.064,0,0,1,2.3-2.664,6.429,6.429,0,0,1,3.48-.94,6.741,6.741,0,0,1,4.576,1.5,5.921,5.921,0,0,1,1.966,4.13h-3.76a2.8,2.8,0,0,0-.72-2.052,2.96,2.96,0,0,0-2.062-.623A2.252,2.252,0,0,0,96.5,11.141,6.766,6.766,0,0,0,95.81,14.5v1.106a7.487,7.487,0,0,0,.628,3.577A2.3,2.3,0,0,0,98.6,20.261a2.9,2.9,0,0,0,1.987-.612,2.6,2.6,0,0,0,.73-1.944ZM110.5,23h-3.631V6.5H110.5Zm6.048,0h-3.631V11.377h3.631ZM112.707,8.38a1.616,1.616,0,0,1,.559-1.268,2.375,2.375,0,0,1,2.9,0,1.616,1.616,0,0,1,.559,1.268,1.616,1.616,0,0,1-.559,1.268,2.375,2.375,0,0,1-2.9,0A1.616,1.616,0,0,1,112.707,8.38Zm11.7,14.835a5.975,5.975,0,0,1-4.329-1.6,5.509,5.509,0,0,1-1.654-4.152v-.3a7.138,7.138,0,0,1,.661-3.147,4.834,4.834,0,0,1,1.928-2.111,5.821,5.821,0,0,1,3.008-.747,5.031,5.031,0,0,1,3.867,1.52A5.973,5.973,0,0,1,129.3,16.92v1.407h-7.2a2.609,2.609,0,0,0,.849,1.536,2.525,2.525,0,0,0,1.7.559,3.254,3.254,0,0,0,2.686-1.2l1.654,1.955a4.624,4.624,0,0,1-1.917,1.488A6.48,6.48,0,0,1,124.405,23.215ZM124,13.955q-1.59,0-1.891,2.105h3.652v-.279a1.793,1.793,0,0,0-.44-1.348A1.753,1.753,0,0,0,124,13.955Zm10.087-2.578.118,1.364a3.942,3.942,0,0,1,3.319-1.579,3.316,3.316,0,0,1,2.712,1.085,5.165,5.165,0,0,1,.929,3.266V23h-3.631V15.663a1.961,1.961,0,0,0-.354-1.294,1.64,1.64,0,0,0-1.289-.414,1.726,1.726,0,0,0-1.579.838V23h-3.62V11.377Zm13.3-2.89v2.89h1.912v2.514h-1.912v5.317a1.358,1.358,0,0,0,.236.913,1.268,1.268,0,0,0,.935.258,5.311,5.311,0,0,0,.9-.064V22.9a6.681,6.681,0,0,1-2.041.312,3.792,3.792,0,0,1-2.761-.881,3.61,3.61,0,0,1-.892-2.675V13.891H142.28V11.377h1.482V8.487Zm8.959,14.728a5.975,5.975,0,0,1-4.329-1.6,5.509,5.509,0,0,1-1.654-4.152v-.3a7.138,7.138,0,0,1,.661-3.147,4.834,4.834,0,0,1,1.928-2.111,5.821,5.821,0,0,1,3.008-.747,5.031,5.031,0,0,1,3.867,1.52,5.973,5.973,0,0,1,1.418,4.238v1.407h-7.2a2.609,2.609,0,0,0,.849,1.536,2.525,2.525,0,0,0,1.7.559,3.254,3.254,0,0,0,2.686-1.2l1.654,1.955a4.624,4.624,0,0,1-1.917,1.488A6.48,6.48,0,0,1,156.342,23.215Zm-.408-9.26q-1.59,0-1.891,2.105H157.7v-.279a1.793,1.793,0,0,0-.44-1.348A1.753,1.753,0,0,0,155.934,13.955Zm12.848,5.779a.836.836,0,0,0-.483-.741,7.353,7.353,0,0,0-1.837-.58,8.376,8.376,0,0,1-2.234-.79,3.743,3.743,0,0,1-1.343-1.187,2.835,2.835,0,0,1-.462-1.6,3.212,3.212,0,0,1,1.321-2.637,5.443,5.443,0,0,1,3.459-1.037,6.03,6.03,0,0,1,3.7,1.042,3.258,3.258,0,0,1,1.4,2.739h-3.631q0-1.4-1.472-1.4a1.459,1.459,0,0,0-.956.317.981.981,0,0,0-.387.79.9.9,0,0,0,.473.784,4.466,4.466,0,0,0,1.509.494,13.042,13.042,0,0,1,1.821.462q2.621.9,2.621,3.233a3.044,3.044,0,0,1-1.413,2.589,6.2,6.2,0,0,1-3.658,1,6.322,6.322,0,0,1-2.664-.537,4.455,4.455,0,0,1-1.826-1.461,3.308,3.308,0,0,1-.655-1.944h3.384a1.4,1.4,0,0,0,.537,1.176,2.209,2.209,0,0,0,1.321.371,1.738,1.738,0,0,0,1.112-.3A.962.962,0,0,0,168.781,19.734Z" transform="translate(202.5 3609.521)" fill="#12263f"/>
    <g id="Grupo_874022" data-name="Grupo 874022" transform="translate(402.07 3586.593)">
      <g id="Grupo_874021" data-name="Grupo 874021" clip-path="url(#clip-path)">
        <path id="Trazado_609032" data-name="Trazado 609032" d="M343.315,298.752a3.055,3.055,0,0,0-3.67-1.655,3.136,3.136,0,0,0-2.2,3.1c-.013,1.289.008,2.579-.008,3.868-.01.847-.139.971-.979.987a44.276,44.276,0,0,0-4.443.141,3.092,3.092,0,0,0-2.754,2.991,3.059,3.059,0,0,0,2.765,3.046,32.341,32.341,0,0,0,7.058-.032,5.046,5.046,0,0,0,4.149-3.272c.128-.287.128-.7.584-.735v-7.9c-.359,0-.383-.33-.5-.545m-1.695,7.224a3.189,3.189,0,0,1-3.122,3.29c-2.017.077-4.038.043-6.057.025a1.09,1.09,0,0,1-1.184-1.108,1.111,1.111,0,0,1,1.25-1.046c1.727-.019,3.455,0,5.183-.012,1.486-.012,1.742-.281,1.742-1.754,0-1.68,0-3.359,0-5.038,0-.879.385-1.355,1.068-1.37.714-.016,1.114.474,1.121,1.391.007.949,0,1.9,0,2.847,0,.925.016,1.85,0,2.775" transform="translate(-268.957 -242.57)"/>
        <path id="Trazado_609033" data-name="Trazado 609033" d="M342.78,298.188a3.265,3.265,0,0,0-3.775-2.348,3.331,3.331,0,0,0-2.668,3.508c-.005,1.365-.017,2.73.008,4.094.008.415-.108.533-.525.524-1.339-.027-2.68-.012-4.019-.008a3.92,3.92,0,0,0-1.908.395,3.284,3.284,0,0,0,1.685,6.174c1.9.038,3.8.018,5.7.006a5.563,5.563,0,0,0,4.635-2.336c.454-.6.572-1.365,1-1.974-.456.036-.455.448-.583.735a5.046,5.046,0,0,1-4.149,3.272,32.341,32.341,0,0,1-7.058.032,3.059,3.059,0,0,1-2.765-3.046,3.092,3.092,0,0,1,2.754-2.991,44.34,44.34,0,0,1,4.443-.141c.84-.016.969-.141.979-.988.016-1.289-.005-2.579.008-3.868a3.136,3.136,0,0,1,2.2-3.1,3.055,3.055,0,0,1,3.671,1.655c.119.216.143.542.5.545-.046-.046-.113-.084-.134-.139" transform="translate(-268.054 -241.6)"/>
        <path id="Trazado_609034" data-name="Trazado 609034" d="M343.321,36.729a5.222,5.222,0,0,0-4.852-3.578,40.109,40.109,0,0,0-6.412.023,3.049,3.049,0,0,0-2.8,3.02,3.084,3.084,0,0,0,2.806,3.022,42.5,42.5,0,0,0,4.3.136c.943.015,1.061.123,1.07,1.048.012,1.266-.005,2.533.006,3.8a3.138,3.138,0,0,0,2.194,3.11,3.055,3.055,0,0,0,3.676-1.653c.12-.216.143-.542.5-.546V37.36c-.389-.034-.393-.381-.494-.632m-1.7,7.449c-.012.8-.431,1.272-1.1,1.269s-1.082-.472-1.088-1.279c-.012-1.8,0-3.6-.005-5.4,0-1.085-.338-1.45-1.429-1.47-1.532-.027-3.066-.013-4.6-.017-.292,0-.584.009-.876,0-.8-.034-1.284-.461-1.271-1.1.012-.618.479-1.021,1.236-1.065.073,0,.146,0,.219,0,1.776,0,3.553-.013,5.329,0a3.3,3.3,0,0,1,3.583,3.595c0,.852,0,1.7,0,2.555,0,.973.011,1.947,0,2.921" transform="translate(-268.956 -26.983)"/>
        <path id="Trazado_609035" data-name="Trazado 609035" d="M338.305,32.125a41.56,41.56,0,0,0-7.368-.052,2.9,2.9,0,0,0-2.391,1.591,3.277,3.277,0,0,0,2.985,4.909c1.411.044,2.826.026,4.238,0,.422-.008.528.117.522.527-.023,1.486-.044,2.973.005,4.458a3.1,3.1,0,0,0,2.032,2.947,3.2,3.2,0,0,0,3.522-.662,6.243,6.243,0,0,0,1.009-1.632c-.359,0-.383.33-.5.546a3.055,3.055,0,0,1-3.675,1.653,3.138,3.138,0,0,1-2.194-3.11c-.012-1.266.006-2.533-.006-3.8-.009-.925-.127-1.033-1.07-1.048a42.507,42.507,0,0,1-4.3-.136A3.084,3.084,0,0,1,328.3,35.3a3.049,3.049,0,0,1,2.8-3.02,40.106,40.106,0,0,1,6.412-.023,5.222,5.222,0,0,1,4.853,3.578c.1.25.105.6.494.632-.229-.2-.216-.507-.315-.765a5.131,5.131,0,0,0-4.24-3.572" transform="translate(-267.999 -26.085)"/>
        <path id="Trazado_609036" data-name="Trazado 609036" d="M191.447,353.675a3.127,3.127,0,0,0,1.832-2.762,35.533,35.533,0,0,0-.04-6.337,3.026,3.026,0,0,0-6.007,0,32.232,32.232,0,0,0,0,6.7,2.926,2.926,0,0,0,1.6,2.3c.252.148.634.163.676.568h1.462c-.01-.329.281-.366.481-.468m-1.178-1.736c-.64.022-1.106-.467-1.114-1.256q-.027-2.774,0-5.55a1.087,1.087,0,1,1,2.157.005c.025.949.006,1.9.006,2.848,0,.9.017,1.8,0,2.7-.018.764-.43,1.229-1.047,1.251" transform="translate(-152.797 -279.285)"/>
        <path id="Trazado_609037" data-name="Trazado 609037" d="M190.271,353.085a3.11,3.11,0,0,0,2.314-3.02c.052-2.089.061-4.183-.028-6.269a3.147,3.147,0,0,0-2.9-2.963,3.058,3.058,0,0,0-3.416,2.327,25.886,25.886,0,0,0,0,7.758c.184,1.264,1.28,1.841,2.36,2.32-.042-.405-.423-.421-.676-.568a2.926,2.926,0,0,1-1.6-2.3,32.218,32.218,0,0,1,0-6.7,3.026,3.026,0,0,1,6.007,0,35.532,35.532,0,0,1,.04,6.337,3.127,3.127,0,0,1-1.832,2.762c-.2.1-.49.139-.481.468.016-.125.12-.123.208-.153" transform="translate(-151.893 -278.38)"/>
        <path id="Trazado_609038" data-name="Trazado 609038" d="M353.772,188.981a3.126,3.126,0,0,0-2.761-1.832,35.507,35.507,0,0,0-6.335.04,3.027,3.027,0,0,0,0,6.008,32.2,32.2,0,0,0,6.7,0,2.925,2.925,0,0,0,2.3-1.6c.148-.252.163-.634.568-.676v-1.462c-.329.01-.366-.281-.468-.481m-2.95,2.291c-.948.025-1.9.006-2.847.007-.9,0-1.8.017-2.7,0-.789-.019-1.278-.475-1.256-1.115a1.111,1.111,0,0,1,1.251-1.046q2.774-.027,5.548,0a1.087,1.087,0,1,1,0,2.158" transform="translate(-279.379 -152.765)"/>
        <path id="Trazado_609039" data-name="Trazado 609039" d="M353.181,188.686a3.109,3.109,0,0,0-3.019-2.315c-2.088-.052-4.182-.061-6.268.028a3.147,3.147,0,0,0-2.962,2.9,3.059,3.059,0,0,0,2.327,3.417,25.867,25.867,0,0,0,7.756,0c1.264-.184,1.84-1.28,2.32-2.361-.405.042-.421.424-.568.676a2.925,2.925,0,0,1-2.3,1.6,32.194,32.194,0,0,1-6.7,0,3.027,3.027,0,0,1,0-6.009,35.522,35.522,0,0,1,6.335-.04,3.126,3.126,0,0,1,2.761,1.832c.1.2.139.491.468.481-.125-.016-.122-.12-.153-.208" transform="translate(-278.474 -152.198)"/>
        <path id="Trazado_609040" data-name="Trazado 609040" d="M125.271,128.338a1.248,1.248,0,0,0-1.1-1.458c-.932.286-1.123.509-1.09,1.6.019.606-.156.779-.767.771-2.114-.029-4.229.007-6.344.008-.232,0-.486.095-.7-.093a1.74,1.74,0,0,1-.087-.926,58.178,58.178,0,0,0-.2-7.136,11.64,11.64,0,0,0-1.86-4.776c-.28-.419-.253-.6.227-.763a6.107,6.107,0,0,1,2.632-.441,7.02,7.02,0,0,1,7.081,7.206c0,.219.007.438,0,.657a1.246,1.246,0,0,0,1.106,1.453h0a1.141,1.141,0,0,0,1.074-1.092,9.473,9.473,0,0,0-3.12-8.129A20.471,20.471,0,0,0,120,113.742a6.69,6.69,0,0,0,.785-9.911,6.408,6.408,0,0,0-4.678-2.053,6.7,6.7,0,0,0-5.635,2.865,8.1,8.1,0,0,0-7.659-8.073c-4.632-.163-7.665,2.692-8.528,7.985a6.688,6.688,0,1,0-9.526,9.182c-1.484,1.023-1.5,1.06-1.169,2.087a1.314,1.314,0,0,0,1.763.15,6.049,6.049,0,0,1,3.444-.854,5.849,5.849,0,0,1,2.75.5c.311.121.425.256.191.573-.27.366-.494.767-.738,1.153A15.669,15.669,0,0,0,89.589,125c.038,1.215-.007,2.432.014,3.648.007.413-.071.609-.551.6-2.261-.023-4.523-.016-6.784,0-.379,0-.571-.064-.567-.512.023-2.237.008-4.475.023-6.713a6.235,6.235,0,0,1,.579-2.686,1.3,1.3,0,0,0-.3-1.7h0c-.977-.233-1.31-.065-1.709.842a7.746,7.746,0,0,0-.721,3.029c-.034,2.751-.043,5.5-.054,8.255-.005,1.383.292,1.678,1.665,1.679,2.606,0,5.211.012,7.817-.01.476,0,.631.13.613.611-.034.924-.031,1.852,0,2.776a1.119,1.119,0,0,0,1.242,1.216c.632.021,1.266-.006,1.9.007a1.23,1.23,0,0,0,1.4-1.085c-.262-.927-.5-1.144-1.507-1.094-.66.032-.86-.151-.851-.833.047-3.508-.032-7.018.071-10.524a10.506,10.506,0,0,1,8.867-9.724,10.361,10.361,0,0,1,2.253-.1c4.253.006,8.541,3.491,9.646,7.826a11.384,11.384,0,0,1,.339,2.818q0,4.935,0,9.869c0,.345.057.664-.491.662-4.92-.022-9.841-.021-14.761-.027a1.191,1.191,0,0,0-1.083,1.121h0a1.208,1.208,0,0,0,1.385,1.091q7.893-.007,15.786-.006c.973,0,1.354-.395,1.371-1.386.015-.877.025-1.755,0-2.631-.014-.434.1-.646.564-.581a4.282,4.282,0,0,0,.584,0c2.509,0,5.018.008,7.528,0,1.043,0,1.4-.371,1.417-1.412.012-.56-.013-1.121.006-1.681m-36.44-15.491a4.441,4.441,0,1,1,4.4-4.422,4.44,4.44,0,0,1-4.4,4.422m4.812,1.079c-.353.335-.546-.075-.881-.161a6.853,6.853,0,0,0,2.667-5.037c.431.528.756.978,1.135,1.377s.815.755,1.275,1.174a13.209,13.209,0,0,0-4.2,2.648m8.729-3.486a5.842,5.842,0,1,1,5.863-5.848,5.92,5.92,0,0,1-5.863,5.848m8.511,3.279a12.027,12.027,0,0,0-4-2.454,9.61,9.61,0,0,0,2.456-2.592,6.844,6.844,0,0,0,2.627,5.042c-.376.4-.682.389-1.084,0m.661-5.293a4.44,4.44,0,1,1,4.405,4.421,4.44,4.44,0,0,1-4.405-4.421" transform="translate(-64.951 -78.874)"/>
        <path id="Trazado_609041" data-name="Trazado 609041" d="M153.81,206.276c3.876-.011,7.753,0,11.629-.011.207-.1.284-.3.281-.694-.029-3.286.044-6.573-.029-9.857a11.443,11.443,0,0,0-5.021-9.451,8.469,8.469,0,0,0-1.171-.757,2.767,2.767,0,0,0-.47-.023,10.29,10.29,0,0,0-9.511,5.03,8.883,8.883,0,0,0-1.438,4.832q-.007,4.925,0,9.85c0,.968,0,.968.96,1.086a1.09,1.09,0,0,1,1.115,1.294l2.486-.006h0c-.076-.767.245-1.122,1.169-1.294m-1.322-11.111a1.106,1.106,0,0,1,1.677.138c1.218,1.191,2.436,2.382,3.619,3.607.386.4.563.427.895-.066,1.329-1.978,2.7-3.925,4.065-5.881a3.1,3.1,0,0,1,.459-.562,1.067,1.067,0,0,1,1.692,1.22,2.272,2.272,0,0,1-.251.442q-2.554,3.689-5.111,7.375a1.418,1.418,0,0,1-1.13.736,1.479,1.479,0,0,1-.872-.44c-1.637-1.632-3.283-3.256-4.912-4.9a1.093,1.093,0,0,1-.129-1.673" transform="translate(-120.958 -151.501)" fill="#0086d4"/>
        <path id="Trazado_609042" data-name="Trazado 609042" d="M147.783,205.387c-.957-.118-.959-.118-.96-1.086q0-4.925,0-9.851a8.881,8.881,0,0,1,1.438-4.832,10.29,10.29,0,0,1,9.51-5.03,2.764,2.764,0,0,1,.47.023,3.239,3.239,0,0,0-.511-.2,10.362,10.362,0,0,0-2.253.1,10.506,10.506,0,0,0-8.867,9.724c-.1,3.506-.024,7.016-.071,10.524-.009.681.191.865.851.832,1.008-.049,1.245.167,1.507,1.095a1.09,1.09,0,0,0-1.115-1.294" transform="translate(-119.701 -150.605)" fill="#0086d4"/>
        <path id="Trazado_609043" data-name="Trazado 609043" d="M174.023,299.136h0c.231-.205.512-.117.77-.117,3.48-.006,6.96-.017,10.439.009a1.2,1.2,0,0,0,.505-.075c-3.877.012-7.753,0-11.63.011-.924.172-1.244.527-1.168,1.294h0a1.19,1.19,0,0,1,1.083-1.121" transform="translate(-141.256 -244.187)" fill="#0086d4"/>
        <path id="Trazado_609044" data-name="Trazado 609044" d="M93.653,202.3a.5.5,0,0,1-.029.216c-1.037,2.332-.535,4.8-.642,7.216-.03.681.009,1.365-.008,2.046-.013.545.19.8.765.8q2.886-.021,5.772,0c.564,0,.773-.226.774-.782,0-1.825.017-3.649.112-5.475a13.039,13.039,0,0,1,1.344-5.261c.044-.076.09-.152.134-.228a14.546,14.546,0,0,0-1.9-1.884c-.076,0-.151,0-.228.009a6.741,6.741,0,0,0-3.456.866c-.868.418-1.269.3-1.723-.372a7.74,7.74,0,0,0-1.591,1.806c.59.113.662.562.678,1.047" transform="translate(-75.928 -162.494)" fill="#00e6fe"/>
        <path id="Trazado_609045" data-name="Trazado 609045" d="M103.487,198.883a6.741,6.741,0,0,1,3.456-.866c.076,0,.152-.007.228-.009-.067-.066-.135-.131-.2-.2a6.049,6.049,0,0,0-3.444.854,1.314,1.314,0,0,1-1.763-.151h0c.455.676.855.79,1.723.372" transform="translate(-83.126 -161.562)" fill="#00e6fe"/>
        <path id="Trazado_609046" data-name="Trazado 609046" d="M92.056,211.366a6.237,6.237,0,0,0-.579,2.686c-.014,2.237,0,4.475-.023,6.713,0,.448.188.514.567.512,2.261-.012,4.523-.019,6.784,0,.479,0,.558-.192.551-.6-.02-1.216.025-2.433-.014-3.648a15.669,15.669,0,0,1,1.409-7.653c-.031-.048-.066-.092-.1-.138-.044.076-.09.152-.134.229a13.038,13.038,0,0,0-1.344,5.261c-.1,1.827-.109,3.65-.113,5.475,0,.555-.21.786-.774.782q-2.886-.021-5.772,0c-.575,0-.778-.25-.765-.8.016-.682-.023-1.365.008-2.046.106-2.414-.4-4.884.642-7.217a.505.505,0,0,0,.029-.216c-.016-.485-.088-.934-.678-1.046a1.3,1.3,0,0,1,.3,1.7" transform="translate(-74.705 -170.908)" fill="#00e6fe"/>
        <path id="Trazado_609047" data-name="Trazado 609047" d="M3.325,46.887c1.978,0,3.269-1.5,3.271-3.762,0-1.218.05-2.439-.019-3.654-.039-.684.2-.791.807-.769,1.24.045,2.484.017,3.726.011a3.985,3.985,0,0,0,1.843-.355A3.309,3.309,0,0,0,14.736,34.9a3.16,3.16,0,0,0-2.925-2.708,56.88,56.88,0,0,0-6.79.007A5.346,5.346,0,0,0,.1,36.807a32.483,32.483,0,0,0-.086,3.51c0,1.066.045,1.921-.009,2.771a3.358,3.358,0,0,0,3.316,3.8M2.214,37.7A3.2,3.2,0,0,1,5.379,34.37c1.993-.073,3.99-.038,5.985-.022a1.085,1.085,0,1,1,0,2.155c-1.752.022-3.5,0-5.256.014-1.424.013-1.7.305-1.7,1.723,0,1.655,0,3.31,0,4.965,0,.984-.384,1.485-1.112,1.475s-1.077-.507-1.079-1.508c0-.9,0-1.8,0-2.7,0-.925-.014-1.85,0-2.775" transform="translate(0 -26.217)"/>
        <path id="Trazado_609048" data-name="Trazado 609048" d="M11.57,303.962c-1.412-.042-2.826-.037-4.238-.005-.516.012-.715-.076-.692-.659.052-1.362.028-2.728.014-4.093a3.289,3.289,0,1,0-6.573-.033c-.014.975,0,1.949,0,2.924s-.011,1.949,0,2.924a5.427,5.427,0,0,0,5.111,5.449c2.142.051,4.285.045,6.428.036a3.035,3.035,0,0,0,2.377-1.1,3.276,3.276,0,0,0-2.427-5.447m1,3.628a1.019,1.019,0,0,1-1,.714c-1.07.015-2.141,0-3.211,0,0,0,0-.007,0-.01-1,0-2,.05-2.991-.011a3.183,3.183,0,0,1-3.083-3.178c-.041-1.971-.021-3.943-.007-5.914a1.083,1.083,0,0,1,1.075-1.215c.67-.009,1.1.456,1.107,1.257.013,1.777,0,3.554,0,5.33,0,1.218.316,1.555,1.555,1.57,1.727.021,3.455.008,5.183.012a1.4,1.4,0,0,1,1.091.3,1.019,1.019,0,0,1,.275,1.135" transform="translate(-0.061 -241.589)"/>
        <path id="Trazado_609049" data-name="Trazado 609049" d="M3.057,186.221a3.242,3.242,0,0,0,.014,6.457c1.063.079,2.138.015,3.207.015v0c1.118,0,2.241.067,3.352-.016a3.241,3.241,0,0,0-.013-6.449,50.673,50.673,0,0,0-6.56,0m7.278,3.2c.019.666-.482,1.1-1.334,1.112-.9.016-1.8,0-2.7,0s-1.8.015-2.7,0c-.8-.017-1.287-.449-1.282-1.091s.49-1.067,1.3-1.074q2.7-.023,5.4,0c.819.006,1.3.414,1.318,1.054" transform="translate(-0.096 -152.021)"/>
        <path id="Trazado_609050" data-name="Trazado 609050" d="M189.574,12.422a3.211,3.211,0,0,0,3.211-2.966c.078-1.064.015-2.138.015-3.208,0-1.094.064-2.193-.015-3.281a3.241,3.241,0,0,0-6.455-.036,50.741,50.741,0,0,0,0,6.562,3.2,3.2,0,0,0,3.244,2.93m-1.1-8.947c.008-.8.456-1.285,1.1-1.274s1.051.494,1.066,1.307c.017.9,0,1.8,0,2.7s.013,1.8,0,2.7c-.016.815-.422,1.3-1.063,1.31s-1.093-.474-1.1-1.27q-.026-2.738,0-5.477" transform="translate(-152.116 -0.001)"/>
        <path id="Trazado_609051" data-name="Trazado 609051" d="M286.423,207.393a3.573,3.573,0,0,1-.194-1.579,6.814,6.814,0,0,0-5.494-6.774,4.759,4.759,0,0,0-1.156-.054c.463.526,1.085.881,1.557,1.417a8.152,8.152,0,0,1,2.061,5.383c.048,2.093-.006,4.188.022,6.282,0,.342-.044.553-.22.661.233-.019.466-.044.7-.083a9.121,9.121,0,0,1,1.742-.039c.5.013.778-.159.8-.691a1.829,1.829,0,0,1,.233-.835c.247-.428.568-.734,1.122-.549q0-1.221,0-2.443h0c-.637.184-.958-.19-1.172-.7" transform="translate(-228.375 -162.526)" fill="#00c9e0"/>
        <path id="Trazado_609052" data-name="Trazado 609052" d="M285.725,205.7c.007-.219,0-.438,0-.657a7.021,7.021,0,0,0-7.081-7.206c.054.074.112.144.172.212a4.77,4.77,0,0,1,1.156.054,6.814,6.814,0,0,1,5.494,6.773,3.574,3.574,0,0,0,.194,1.58c.214.506.535.88,1.172.7a1.247,1.247,0,0,1-1.106-1.453" transform="translate(-227.609 -161.591)" fill="#00c9e0"/>
        <path id="Trazado_609053" data-name="Trazado 609053" d="M282.542,262.361a1.829,1.829,0,0,0-.232.835c-.023.532-.3.7-.8.691a9.118,9.118,0,0,0-1.742.039c-.233.039-.465.063-.7.083a.91.91,0,0,1-.505.088c-1.264-.043-2.531-.005-3.8,0,.21.187.465.093.7.093,2.115,0,4.23-.037,6.344-.008.611.009.786-.165.767-.771-.034-1.089.158-1.312,1.09-1.6-.554-.185-.875.121-1.122.549" transform="translate(-224.442 -213.806)" fill="#00c9e0"/>
        <path id="Trazado_609054" data-name="Trazado 609054" d="M350.517,309.229c-.006-.917-.407-1.407-1.121-1.391-.683.015-1.065.491-1.068,1.37-.007,1.679,0,3.359,0,5.038,0,1.473-.257,1.743-1.742,1.754-1.727.013-3.455-.008-5.183.012a1.111,1.111,0,0,0-1.25,1.047,1.09,1.09,0,0,0,1.184,1.108c2.019.017,4.041.051,6.057-.026a3.189,3.189,0,0,0,3.122-3.29c.019-.924,0-1.85,0-2.774,0-.949.005-1.9,0-2.848" transform="translate(-277.851 -251.445)" fill="#fe5a51"/>
        <path id="Trazado_609055" data-name="Trazado 609055" d="M350.519,47.91a3.3,3.3,0,0,0-3.583-3.594c-1.776-.016-3.553,0-5.329,0-.073,0-.146,0-.219,0-.757.044-1.224.447-1.236,1.065-.013.641.475,1.069,1.271,1.1.292.012.584,0,.876,0,1.533,0,3.066-.01,4.6.017,1.091.02,1.426.385,1.429,1.47,0,1.8-.007,3.6.005,5.4.005.807.424,1.276,1.088,1.279s1.086-.465,1.1-1.269c.014-.973,0-1.947,0-2.921,0-.852,0-1.7,0-2.555" transform="translate(-277.852 -36.191)" fill="#fe5a51"/>
        <path id="Trazado_609056" data-name="Trazado 609056" d="M200.622,356.892c0-.949.018-1.9-.006-2.848a1.087,1.087,0,1,0-2.158-.005q-.032,2.775,0,5.55c.008.789.474,1.278,1.114,1.256.617-.021,1.029-.487,1.047-1.251.022-.9.005-1.8,0-2.7" transform="translate(-162.098 -288.19)" fill="#fe7a48"/>
        <path id="Trazado_609057" data-name="Trazado 609057" d="M359.72,198.352q-2.774-.031-5.548,0a1.111,1.111,0,0,0-1.251,1.046c-.022.64.467,1.1,1.256,1.115.9.022,1.8,0,2.7,0,.949,0,1.9.018,2.847-.006a1.087,1.087,0,1,0,0-2.158" transform="translate(-288.282 -162.004)" fill="#fe7a48"/>
        <path id="Trazado_609058" data-name="Trazado 609058" d="M178.328,108.53a5.842,5.842,0,1,0,5.864,5.836,5.89,5.89,0,0,0-5.864-5.836" transform="translate(-140.907 -88.648)" fill="#fed580"/>
        <path id="Trazado_609059" data-name="Trazado 609059" d="M219.383,196.409c.04,3.165.012,6.331.006,9.5,0,.545-.006.816-.15.951.61,0,1.22,0,1.83-.007,1.094-.006,1.1-.011,1.1-1.09,0-3.114-.063-6.23.016-9.343a10.334,10.334,0,0,0-8.182-10.108c-.157-.033-.314-.07-.471-.106a7.241,7.241,0,0,1,1.57,1.114,11.758,11.758,0,0,1,4.277,9.091" transform="translate(-174.427 -152.093)" fill="#006eca"/>
        <path id="Trazado_609060" data-name="Trazado 609060" d="M185.717,184.929a10.334,10.334,0,0,1,8.182,10.108c-.078,3.112-.014,6.228-.016,9.343,0,1.079-.01,1.084-1.1,1.09-.61,0-1.22,0-1.83.007-.141.132-.416.134-.953.134q-5.149,0-10.3,0a2.184,2.184,0,0,0-.8.049c4.921.006,9.841.005,14.761.027.548,0,.491-.317.491-.662q0-4.934,0-9.869a11.392,11.392,0,0,0-.339-2.818c-1.1-4.335-5.393-7.82-9.646-7.826a3.246,3.246,0,0,1,1.08.31c.157.035.314.073.471.105" transform="translate(-146.137 -150.713)" fill="#006eca"/>
        <path id="Trazado_609061" data-name="Trazado 609061" d="M216.857,205.439c.006-3.166.034-6.332-.006-9.5a11.758,11.758,0,0,0-4.277-9.091A7.241,7.241,0,0,0,211,185.737c-.188-.042-.377-.081-.568-.1a8.471,8.471,0,0,1,1.171.757,11.442,11.442,0,0,1,5.021,9.451c.073,3.284,0,6.572.029,9.857,0,.391-.074.6-.281.694h.332c.145-.135.149-.406.15-.951" transform="translate(-171.894 -151.626)" fill="#006eca"/>
        <path id="Trazado_609062" data-name="Trazado 609062" d="M208.722,184.824a3.245,3.245,0,0,0-1.079-.31,3.24,3.24,0,0,1,.511.2c.191.024.38.062.568.1" transform="translate(-169.613 -150.713)" fill="#006eca"/>
        <path id="Trazado_609063" data-name="Trazado 609063" d="M179.7,299.081q5.149-.006,10.3,0c.537,0,.811,0,.953-.134h-.332a1.2,1.2,0,0,1-.505.076c-3.48-.026-6.959-.015-10.439-.009-.258,0-.539-.088-.77.117a2.188,2.188,0,0,1,.8-.049" transform="translate(-146.137 -244.181)" fill="#006eca"/>
        <path id="Trazado_609064" data-name="Trazado 609064" d="M267.022,212.65c.876-.01,1.752,0,2.628,0,.38,0,.695-.079.686-.547a70.6,70.6,0,0,0-.126-7.437,7.657,7.657,0,0,0-2.858-5.014c-.217-.183-.526-.316-.589-.619h-.057a5.924,5.924,0,0,0-2.083.272c-.588.188-.66.366-.343.9a12.721,12.721,0,0,1,1.7,4.618,35,35,0,0,1,.241,3.553c.053,1.139.009,2.281.013,3.423a1.382,1.382,0,0,0,.137.845c.013.013.028.022.041.033a3.223,3.223,0,0,1,.606-.024" transform="translate(-215.725 -162.564)" fill="#00e6fe"/>
        <path id="Trazado_609065" data-name="Trazado 609065" d="M264.709,211.609a1.381,1.381,0,0,1-.137-.845c0-1.141.039-2.284-.013-3.423a35.046,35.046,0,0,0-.241-3.553,12.72,12.72,0,0,0-1.7-4.618c-.317-.535-.245-.713.343-.9a5.924,5.924,0,0,1,2.083-.272h.057a.617.617,0,0,1,0-.216,6.106,6.106,0,0,0-2.632.441c-.48.165-.507.344-.227.763a11.643,11.643,0,0,1,1.86,4.776,58.175,58.175,0,0,1,.2,7.136,1.742,1.742,0,0,0,.087.926.755.755,0,0,1,.367-.18c-.014-.011-.028-.021-.041-.033" transform="translate(-214.06 -161.532)" fill="#00e6fe"/>
        <path id="Trazado_609066" data-name="Trazado 609066" d="M277.707,199.653a7.658,7.658,0,0,1,2.858,5.014,70.638,70.638,0,0,1,.126,7.437c.008.468-.307.546-.686.547-.876,0-1.752-.006-2.628,0a3.21,3.21,0,0,0-.606.024.518.518,0,0,0,.354.122c1.193-.04,2.388.072,3.58-.028.176-.108.225-.32.22-.661-.029-2.094.026-4.189-.022-6.282a8.151,8.151,0,0,0-2.061-5.383c-.472-.536-1.093-.891-1.557-1.417l-.167,0c.063.3.372.437.589.62" transform="translate(-226.079 -162.57)" fill="#00e6fe"/>
        <path id="Trazado_609067" data-name="Trazado 609067" d="M278.562,273.722a.911.911,0,0,0,.505-.088c-1.192.1-2.388-.011-3.58.028a.518.518,0,0,1-.354-.122.756.756,0,0,0-.367.18c1.266,0,2.533-.042,3.8,0" transform="translate(-224.441 -223.431)" fill="#00e6fe"/>
        <path id="Trazado_609068" data-name="Trazado 609068" d="M278.615,198.087l.167,0c-.06-.068-.118-.138-.172-.212a.615.615,0,0,0,0,.216" transform="translate(-227.576 -161.623)" fill="#00e6fe"/>
        <path id="Trazado_609069" data-name="Trazado 609069" d="M110.389,136.965a4.441,4.441,0,1,0,4.439,4.46,4.441,4.441,0,0,0-4.439-4.46" transform="translate(-86.543 -111.874)" fill="#fed580"/>
        <path id="Trazado_609070" data-name="Trazado 609070" d="M263.277,141.423a4.44,4.44,0,1,0-4.475,4.425,4.441,4.441,0,0,0,4.475-4.425" transform="translate(-207.803 -111.874)" fill="#fed580"/>
        <path id="Trazado_609071" data-name="Trazado 609071" d="M133.688,200.4a1.889,1.889,0,0,1,.218.28c.111-.19.22-.381.334-.57.327-.543.278-.658-.328-.886a5.011,5.011,0,0,0-1.85-.289,6.134,6.134,0,0,1,1.626,1.465" transform="translate(-107.875 -162.494)" fill="#00c8df"/>
        <path id="Trazado_609072" data-name="Trazado 609072" d="M132.385,198.252c.607.228.655.343.328.886-.114.189-.223.38-.334.57a.333.333,0,0,1,.016.279c.244-.386.468-.786.738-1.153.234-.317.12-.452-.191-.573a5.849,5.849,0,0,0-2.75-.5c.117.062.231.128.342.2a5.007,5.007,0,0,1,1.85.289" transform="translate(-106.348 -161.519)" fill="#00c8df"/>
        <path id="Trazado_609073" data-name="Trazado 609073" d="M133.052,200.4a6.134,6.134,0,0,0-1.626-1.465l-.143,0a14.545,14.545,0,0,1,1.9,1.884l.083-.141a1.892,1.892,0,0,0-.218-.28" transform="translate(-107.238 -162.496)" fill="#00c8df"/>
        <path id="Trazado_609074" data-name="Trazado 609074" d="M130.535,198.063c-.112-.068-.225-.135-.342-.2.065.068.132.134.2.2l.143,0" transform="translate(-106.348 -161.62)" fill="#00c8df"/>
        <path id="Trazado_609075" data-name="Trazado 609075" d="M141.761,208.468l-.083.141c.033.046.068.09.1.138a.333.333,0,0,0-.016-.279" transform="translate(-115.729 -170.279)" fill="#00c8df"/>
        <path id="Trazado_609076" data-name="Trazado 609076" d="M176.582,231.726a1.417,1.417,0,0,0,1.13-.736q2.554-3.688,5.111-7.375a2.262,2.262,0,0,0,.251-.442,1.067,1.067,0,0,0-1.692-1.219,3.077,3.077,0,0,0-.459.562c-1.361,1.956-2.735,3.9-4.065,5.881-.331.493-.509.465-.895.066-1.183-1.225-2.4-2.416-3.619-3.607a1.106,1.106,0,0,0-1.677-.138,1.093,1.093,0,0,0,.13,1.673c1.629,1.64,3.275,3.263,4.912,4.9a1.478,1.478,0,0,0,.872.44" transform="translate(-139.139 -181.053)"/>
        <path id="Trazado_609077" data-name="Trazado 609077" d="M12.048,53.108c0,1,.36,1.5,1.079,1.508s1.11-.491,1.112-1.475c0-1.655,0-3.31,0-4.965,0-1.418.276-1.71,1.7-1.723,1.752-.015,3.5.008,5.256-.014a1.085,1.085,0,1,0,0-2.155c-1.995-.016-3.992-.051-5.984.022a3.2,3.2,0,0,0-3.165,3.326c-.017.925,0,1.85,0,2.774,0,.9,0,1.8,0,2.7" transform="translate(-9.837 -36.153)" fill="#fe5a51"/>
        <path id="Trazado_609078" data-name="Trazado 609078" d="M20.945,316c-1.727,0-3.455.01-5.183-.012-1.238-.015-1.553-.352-1.555-1.57,0-1.777.008-3.553-.005-5.33-.006-.8-.437-1.266-1.107-1.257a1.083,1.083,0,0,0-1.075,1.215c-.014,1.971-.035,3.944.007,5.914a3.183,3.183,0,0,0,3.083,3.178c.994.061,1.994.011,2.991.011v.01c1.07,0,2.141.01,3.211,0a1.071,1.071,0,0,0,.724-1.85,1.4,1.4,0,0,0-1.091-.3" transform="translate(-9.804 -251.441)" fill="#fe5a51"/>
        <path id="Trazado_609079" data-name="Trazado 609079" d="M13.426,198.351c-.808.007-1.292.433-1.3,1.074s.48,1.073,1.281,1.091c.9.019,1.8,0,2.7,0s1.8.012,2.7,0c.853-.015,1.354-.446,1.334-1.112-.018-.64-.5-1.048-1.318-1.054q-2.7-.021-5.4,0" transform="translate(-9.907 -162.006)" fill="#fe7a48"/>
        <path id="Trazado_609080" data-name="Trazado 609080" d="M199.557,20.031c.64-.013,1.047-.495,1.063-1.31.017-.9,0-1.8,0-2.7s.013-1.8,0-2.7c-.016-.813-.426-1.3-1.066-1.306s-1.09.476-1.1,1.274q-.026,2.738,0,5.477c.008.8.46,1.283,1.1,1.27" transform="translate(-162.098 -9.811)" fill="#fe7a48"/>
      </g>
    </g>
  </g>
</svg>
