<svg xmlns="http://www.w3.org/2000/svg" xmlns:xlink="http://www.w3.org/1999/xlink" width="321.932" height="74.86" viewBox="0 0 321.932 74.86">
  <defs>
    <clipPath id="clip-path">
      <rect id="Rectángulo_292488" data-name="Rectángulo 292488" width="74.86" height="74.86" fill="none"/>
    </clipPath>
  </defs>
  <g id="Grupo_874028" data-name="Grupo 874028" transform="translate(-180 -3134.234)">
    <path id="Trazado_591666" data-name="Trazado 591666" d="M0,0H284.5l-2.27,52.528L0,52Z" transform="translate(180 3145.399)" fill="#fff0a6"/>
    <path id="Trazado_609217" data-name="Trazado 609217" d="M13.836,17.7a5.712,5.712,0,0,1-.881,2.884,5.316,5.316,0,0,1-2.261,1.939,7.7,7.7,0,0,1-3.325.688,6.142,6.142,0,0,1-4.855-2.009A8.294,8.294,0,0,1,.741,15.534v-.773a9.467,9.467,0,0,1,.8-4.023,6.064,6.064,0,0,1,2.3-2.664,6.429,6.429,0,0,1,3.48-.94,6.741,6.741,0,0,1,4.576,1.5,5.921,5.921,0,0,1,1.966,4.13h-3.76a2.8,2.8,0,0,0-.72-2.052,2.96,2.96,0,0,0-2.062-.623,2.252,2.252,0,0,0-2.062,1.053A6.766,6.766,0,0,0,4.576,14.5v1.106A7.487,7.487,0,0,0,5.2,19.187a2.3,2.3,0,0,0,2.165,1.074,2.9,2.9,0,0,0,1.987-.612,2.6,2.6,0,0,0,.73-1.944ZM19.271,23H15.641V6.5h3.631Zm6.048,0H21.688V11.377h3.631ZM21.474,8.38a1.616,1.616,0,0,1,.559-1.268,2.375,2.375,0,0,1,2.9,0,1.616,1.616,0,0,1,.559,1.268,1.616,1.616,0,0,1-.559,1.268,2.375,2.375,0,0,1-2.9,0A1.616,1.616,0,0,1,21.474,8.38Zm11.7,14.835a5.975,5.975,0,0,1-4.329-1.6,5.509,5.509,0,0,1-1.654-4.152v-.3a7.138,7.138,0,0,1,.661-3.147,4.834,4.834,0,0,1,1.928-2.111,5.821,5.821,0,0,1,3.008-.747,5.031,5.031,0,0,1,3.867,1.52A5.973,5.973,0,0,1,38.07,16.92v1.407h-7.2a2.609,2.609,0,0,0,.849,1.536,2.525,2.525,0,0,0,1.7.559,3.254,3.254,0,0,0,2.686-1.2l1.654,1.955a4.624,4.624,0,0,1-1.917,1.488A6.48,6.48,0,0,1,33.172,23.215Zm-.408-9.26q-1.59,0-1.891,2.105h3.652v-.279a1.793,1.793,0,0,0-.44-1.348A1.753,1.753,0,0,0,32.764,13.955Zm10.087-2.578.118,1.364a3.942,3.942,0,0,1,3.319-1.579A3.316,3.316,0,0,1,49,12.247a5.165,5.165,0,0,1,.929,3.266V23H46.3V15.663a1.961,1.961,0,0,0-.354-1.294,1.64,1.64,0,0,0-1.289-.414,1.726,1.726,0,0,0-1.579.838V23h-3.62V11.377Zm13.3-2.89v2.89h1.912v2.514H56.149v5.317a1.358,1.358,0,0,0,.236.913,1.268,1.268,0,0,0,.935.258,5.311,5.311,0,0,0,.9-.064V22.9a6.681,6.681,0,0,1-2.041.312,3.792,3.792,0,0,1-2.761-.881,3.61,3.61,0,0,1-.892-2.675V13.891H51.047V11.377h1.482V8.487Zm8.959,14.728a5.975,5.975,0,0,1-4.329-1.6,5.509,5.509,0,0,1-1.654-4.152v-.3a7.138,7.138,0,0,1,.661-3.147,4.834,4.834,0,0,1,1.928-2.111,5.821,5.821,0,0,1,3.008-.747,5.031,5.031,0,0,1,3.867,1.52,5.973,5.973,0,0,1,1.418,4.238v1.407h-7.2a2.609,2.609,0,0,0,.849,1.536,2.525,2.525,0,0,0,1.7.559,3.254,3.254,0,0,0,2.686-1.2L69.7,21.174a4.624,4.624,0,0,1-1.917,1.488A6.48,6.48,0,0,1,65.108,23.215Zm-.408-9.26q-1.59,0-1.891,2.105h3.652v-.279a1.793,1.793,0,0,0-.44-1.348A1.753,1.753,0,0,0,64.7,13.955Zm12.848,5.779a.836.836,0,0,0-.483-.741,7.353,7.353,0,0,0-1.837-.58,8.376,8.376,0,0,1-2.234-.79,3.743,3.743,0,0,1-1.343-1.187,2.834,2.834,0,0,1-.462-1.6A3.212,3.212,0,0,1,72.51,12.2a5.443,5.443,0,0,1,3.459-1.037,6.03,6.03,0,0,1,3.7,1.042,3.258,3.258,0,0,1,1.4,2.739H77.43q0-1.4-1.472-1.4a1.459,1.459,0,0,0-.956.317.981.981,0,0,0-.387.79.9.9,0,0,0,.473.784,4.466,4.466,0,0,0,1.509.494,13.043,13.043,0,0,1,1.821.462q2.621.9,2.621,3.233a3.044,3.044,0,0,1-1.413,2.589,6.2,6.2,0,0,1-3.658,1,6.322,6.322,0,0,1-2.664-.537,4.455,4.455,0,0,1-1.826-1.461,3.308,3.308,0,0,1-.655-1.944h3.384a1.4,1.4,0,0,0,.537,1.176,2.209,2.209,0,0,0,1.321.371,1.738,1.738,0,0,0,1.112-.3A.962.962,0,0,0,77.548,19.734Zm14.083-8.357.118,1.364a4,4,0,0,1,3.319-1.579,2.942,2.942,0,0,1,2.976,1.751,3.868,3.868,0,0,1,3.416-1.751q3.534,0,3.631,4.275V23H101.46V15.663a2.216,2.216,0,0,0-.3-1.3,1.28,1.28,0,0,0-1.1-.408,1.715,1.715,0,0,0-1.6.956l.011.15V23H94.843V15.685a2.329,2.329,0,0,0-.29-1.321,1.277,1.277,0,0,0-1.106-.408,1.736,1.736,0,0,0-1.59.956V23h-3.62V11.377ZM113.706,23a4.087,4.087,0,0,1-.344-1.042,3.366,3.366,0,0,1-2.793,1.257,4.124,4.124,0,0,1-2.793-.994,3.163,3.163,0,0,1-1.149-2.5,3.251,3.251,0,0,1,1.4-2.857,7.114,7.114,0,0,1,4.061-.967H113.2v-.615q0-1.608-1.386-1.608a1.133,1.133,0,0,0-1.289,1.274h-3.62a3.245,3.245,0,0,1,1.434-2.736A6.027,6.027,0,0,1,112,11.162a5.284,5.284,0,0,1,3.513,1.085,3.772,3.772,0,0,1,1.321,2.976v5.146a5.269,5.269,0,0,0,.494,2.449V23Zm-2.267-2.363a2.019,2.019,0,0,0,1.123-.29,1.818,1.818,0,0,0,.639-.655V17.833h-1.053q-1.891,0-1.891,1.7a1.036,1.036,0,0,0,.333.8A1.205,1.205,0,0,0,111.439,20.637Zm12.042-2.707,1.934-6.553h3.878l-4.737,13.567-.2.494a3.6,3.6,0,0,1-3.566,2.256,5.674,5.674,0,0,1-1.493-.214V24.9h.473a2.476,2.476,0,0,0,1.166-.22,1.337,1.337,0,0,0,.6-.79l.29-.774-4.039-11.74h3.867Zm6.295-.849a6.86,6.86,0,0,1,.677-3.1,4.84,4.84,0,0,1,1.944-2.089,5.856,5.856,0,0,1,2.976-.73,5.344,5.344,0,0,1,4.114,1.617,6.2,6.2,0,0,1,1.5,4.4v.129a6.019,6.019,0,0,1-1.509,4.313,5.359,5.359,0,0,1-4.087,1.6,5.42,5.42,0,0,1-3.985-1.488,5.819,5.819,0,0,1-1.622-4.034Zm3.62.226a4.325,4.325,0,0,0,.5,2.363,1.682,1.682,0,0,0,1.493.752q1.934,0,1.977-2.976v-.365q0-3.126-2-3.126-1.815,0-1.966,2.7Zm16.221-2.653-1.192-.086a2.142,2.142,0,0,0-2.191,1.074V23h-3.62V11.377h3.395l.118,1.493a2.8,2.8,0,0,1,2.546-1.708,3.53,3.53,0,0,1,1.01.129ZM154.741,23H151.11V11.377h3.631ZM150.9,8.38a1.616,1.616,0,0,1,.559-1.268,2.375,2.375,0,0,1,2.9,0,1.616,1.616,0,0,1,.559,1.268,1.616,1.616,0,0,1-.559,1.268,2.375,2.375,0,0,1-2.9,0A1.616,1.616,0,0,1,150.9,8.38Zm12.16,11.354a.836.836,0,0,0-.483-.741,7.353,7.353,0,0,0-1.837-.58,8.376,8.376,0,0,1-2.234-.79,3.743,3.743,0,0,1-1.343-1.187,2.835,2.835,0,0,1-.462-1.6,3.212,3.212,0,0,1,1.321-2.637,5.443,5.443,0,0,1,3.459-1.037,6.03,6.03,0,0,1,3.7,1.042,3.258,3.258,0,0,1,1.4,2.739h-3.631q0-1.4-1.472-1.4a1.459,1.459,0,0,0-.956.317.981.981,0,0,0-.387.79.9.9,0,0,0,.473.784,4.466,4.466,0,0,0,1.509.494,13.042,13.042,0,0,1,1.821.462q2.621.9,2.621,3.233a3.044,3.044,0,0,1-1.413,2.589,6.2,6.2,0,0,1-3.658,1,6.322,6.322,0,0,1-2.664-.537,4.455,4.455,0,0,1-1.826-1.461,3.308,3.308,0,0,1-.655-1.944h3.384a1.4,1.4,0,0,0,.537,1.176,2.209,2.209,0,0,0,1.321.371,1.738,1.738,0,0,0,1.112-.3A.962.962,0,0,0,163.056,19.734Zm9.4-11.247v2.89h1.912v2.514h-1.912v5.317a1.358,1.358,0,0,0,.236.913,1.268,1.268,0,0,0,.935.258,5.311,5.311,0,0,0,.9-.064V22.9a6.681,6.681,0,0,1-2.041.312,3.792,3.792,0,0,1-2.761-.881,3.61,3.61,0,0,1-.892-2.675V13.891h-1.482V11.377h1.482V8.487ZM182.338,23a4.088,4.088,0,0,1-.344-1.042,3.366,3.366,0,0,1-2.793,1.257,4.124,4.124,0,0,1-2.793-.994,3.163,3.163,0,0,1-1.149-2.5,3.251,3.251,0,0,1,1.4-2.857,7.114,7.114,0,0,1,4.061-.967h1.117v-.615q0-1.608-1.386-1.608a1.133,1.133,0,0,0-1.289,1.274h-3.62a3.245,3.245,0,0,1,1.434-2.736,6.027,6.027,0,0,1,3.658-1.051,5.284,5.284,0,0,1,3.513,1.085,3.772,3.772,0,0,1,1.321,2.976v5.146a5.269,5.269,0,0,0,.494,2.449V23Zm-2.267-2.363a2.019,2.019,0,0,0,1.123-.29,1.818,1.818,0,0,0,.639-.655V17.833H180.78q-1.891,0-1.891,1.7a1.036,1.036,0,0,0,.333.8A1.205,1.205,0,0,0,180.071,20.637Zm13.481-.9a.836.836,0,0,0-.483-.741,7.353,7.353,0,0,0-1.837-.58,8.376,8.376,0,0,1-2.234-.79,3.743,3.743,0,0,1-1.343-1.187,2.835,2.835,0,0,1-.462-1.6,3.212,3.212,0,0,1,1.321-2.637,5.443,5.443,0,0,1,3.459-1.037,6.03,6.03,0,0,1,3.7,1.042,3.258,3.258,0,0,1,1.4,2.739h-3.631q0-1.4-1.472-1.4a1.459,1.459,0,0,0-.956.317.981.981,0,0,0-.387.79.9.9,0,0,0,.473.784,4.466,4.466,0,0,0,1.509.494,13.042,13.042,0,0,1,1.821.462q2.621.9,2.621,3.233a3.044,3.044,0,0,1-1.413,2.589,6.2,6.2,0,0,1-3.658,1,6.322,6.322,0,0,1-2.664-.537,4.455,4.455,0,0,1-1.826-1.461,3.308,3.308,0,0,1-.655-1.944h3.384a1.4,1.4,0,0,0,.537,1.176,2.209,2.209,0,0,0,1.321.371,1.738,1.738,0,0,0,1.112-.3A.962.962,0,0,0,193.553,19.734Z" transform="translate(202 3157.164)" fill="#12263f"/>
    <g id="Grupo_874026" data-name="Grupo 874026" transform="translate(427.072 3134.234)">
      <g id="Grupo_874026-2" data-name="Grupo 874026" clip-path="url(#clip-path)">
        <path id="Trazado_609198" data-name="Trazado 609198" d="M62.867,70.369c.041-1.314.019-2.631,0-3.946,0-.367.05-.559.486-.617a4.4,4.4,0,0,0,4.014-4.576c.01-1.521.237-3.073-.373-4.549a.351.351,0,0,1-.01-.279c.642-.9.379-1.933.387-2.91q.041-5.444,0-10.889c0-.538.116-.7.673-.683,1.631.042,3.264.021,4.9.013,1.35-.007,1.915-.569,1.916-1.9q.005-5.591,0-11.182c0-1.338-.563-1.9-1.909-1.91-1.632-.009-3.265-.027-4.9.012-.544.013-.682-.125-.68-.675q.031-11.328.013-22.656C67.385,1.137,66.251,0,63.777,0H11.085C8.608,0,7.474,1.136,7.473,3.616q0,11.291.015,22.583c0,.606-.138.773-.751.754-1.558-.049-3.118.005-4.676-.024A1.949,1.949,0,0,0,0,28.074v12.72a1.943,1.943,0,0,0,2.058,1.149c1.608-.03,3.217.01,4.824-.02.478-.009.6.124.6.6-.019,4.069-.01,8.139-.012,12.208a2.383,2.383,0,0,0,.333,1.536c.163.216.035.4-.019.616a11.682,11.682,0,0,0-.052,5.774,4.063,4.063,0,0,0,3.7,3.14c.432.057.57.19.559.626-.029,1.193-.013,2.388-.009,3.582a4.5,4.5,0,0,0,3.239,4.661c.107.04.247.038.277.191h7.749a6.063,6.063,0,0,0,2.47-1.415,4.649,4.649,0,0,0,1.22-3.262c-.013-1.242.016-2.484-.012-3.726-.01-.443.118-.582.571-.581q9.935.019,19.87,0c.46,0,.573.152.564.587q-.038,1.9,0,3.8a4.424,4.424,0,0,0,3.182,4.393c.127.045.3.024.354.205h7.749c.271-.264.659-.233.977-.389a4.439,4.439,0,0,0,2.676-4.1m5.041-40.42q1.717.04,3.435,0c.419-.009.541.13.539.542q-.023,3.947,0,7.894c0,.416-.129.548-.543.54-1.145-.023-2.29-.026-3.435,0-.426.01-.533-.14-.526-.544.022-1.339.008-2.68.008-4.02,0-1.292.015-2.583-.008-3.874-.007-.41.11-.548.531-.538M7.481,38.388c0,.413-.117.546-.533.537q-1.717-.037-3.435,0c-.424.009-.542-.14-.536-.547.02-1.316.008-2.631.007-3.947,0-1.291.02-2.583-.01-3.874-.011-.484.143-.625.622-.61,1.1.034,2.193.025,3.288,0,.41-.008.6.054.6.544-.025,2.631-.02,5.262,0,7.894m55.355,7.03c-.062-1.229.582-1.643,1.527-2.114v2.754c0,2.411-.023,4.821.016,7.231.01.638-.3.638-.756.628-.431-.01-.773.046-.763-.613.04-2.629.108-5.264-.024-7.887M11.329,2.971q26.093.027,52.187,0c.734,0,.863.218.862.9-.021,11.476-.037,22.951.017,34.426a2,2,0,0,1-1.519,2.22c0-.344,0-.629,0-.914,0-6.724.012-13.449-.01-20.173a7.5,7.5,0,0,0-5.715-7.23,6.839,6.839,0,0,0-1.661-.21q-18.054.006-36.107.011a7.447,7.447,0,0,0-7.389,7.415c-.028,6.724-.01,13.449-.012,20.173v.877c-1.213-.377-1.487-.729-1.487-1.863q0-17.4-.016-34.792c0-.683.191-.836.85-.835M59.9,50.889c0,.827-.016,1.655.006,2.481.011.413-.142.563-.551.549q-.984-.034-1.97,0c-.373.012-.518-.109-.51-.5.021-1,.013-1.995,0-2.992a.812.812,0,0,1,.257-.647c.543-.523,1.085-1.049,1.6-1.6a.885.885,0,0,1,.937-.228c.413.1.212.49.222.746.028.729.01,1.459.01,2.189m-5.98,2.3c.024.592-.174.73-.741.728q-10.6-.027-21.195-.012c-3.435,0-6.87-.012-10.3.012-.56,0-.771-.125-.746-.725.049-1.143,0-2.29.021-3.434a2.133,2.133,0,0,0-.7-1.689c-.705-.672-1.422-1.34-2.061-2.072a2.8,2.8,0,0,0-2.628-1.1c-.487.067-.615-.132-.614-.607.013-8.186-.008-16.371.019-24.557.01-2.953,1.915-4.77,4.916-4.776,5.847-.012,11.694,0,17.54,0q8.734,0,17.467,0a4.645,4.645,0,0,1,4.544,2.583,5.064,5.064,0,0,1,.455,2.343q.008,12.169.015,24.337c0,.54-.127.763-.687.686a2.692,2.692,0,0,0-2.5,1.04c-.676.765-1.428,1.465-2.163,2.177a2.019,2.019,0,0,0-.652,1.561c.018,1.169-.028,2.34.018,3.508M14.959,51.546c-.018-.217,0-.438,0-.657,0-.778-.007-1.557,0-2.336,0-.2-.109-.491.159-.58a.811.811,0,0,1,.833.07c.652.619,1.278,1.266,1.914,1.9.137.137.106.316.107.483,0,1-.013,2,.008,2.992.008.389-.137.519-.51.5-.8-.051-1.8.318-2.338-.138s-.112-1.468-.175-2.233M10.5,43.58a1.416,1.416,0,0,1,.055-.251l.2.086a1.992,1.992,0,0,1,1.259,2.217c-.1,2.577-.053,5.161-.019,7.741.009.663-.385.534-.755.536s-.763.11-.758-.541c.028-3.263.014-6.525.017-9.788M23.99,66.649c-.047,1.07-.01,2.143-.014,3.215,0,1.338-.379,1.9-1.683,1.993a41.649,41.649,0,0,1-5.833-.008,1.6,1.6,0,0,1-1.514-1.65c-.048-1.265-.008-2.533-.021-3.8-.005-.478.3-.473.634-.472,1.315,0,2.631,0,3.946,0,1.242,0,2.485.023,3.727-.01.556-.015.784.128.758.731m13.448-3.776H12.524c-1.536,0-2.01-.468-2.014-1.985,0-.8-.014-1.608.006-2.411a1.489,1.489,0,0,1,1.4-1.577,5.139,5.139,0,0,1,.729-.02H62.186c1.7,0,2.162.462,2.163,2.165,0,.755.011,1.51-.006,2.265a1.471,1.471,0,0,1-1.553,1.56c-.219.009-.438,0-.658,0H37.438M59.93,69.889c-.015,1.267-.487,1.922-1.727,1.981a34.027,34.027,0,0,1-5.9-.064,1.419,1.419,0,0,1-1.4-1.56c-.041-1.266,0-2.533-.019-3.8-.007-.443.21-.525.586-.522,1.315.011,2.631,0,3.946,0,1.267,0,2.534.029,3.8-.013.6-.02.754.2.735.759-.037,1.071,0,2.143-.013,3.215" transform="translate(0 -0.001)" fill="#0b1a22"/>
        <path id="Trazado_609199" data-name="Trazado 609199" d="M55.975,51.475c0,1.135.274,1.487,1.487,1.864v-.877c0-6.724-.016-13.449.012-20.174a7.447,7.447,0,0,1,7.389-7.415q18.054-.034,36.107-.011a6.821,6.821,0,0,1,1.661.21,7.5,7.5,0,0,1,5.715,7.23c.023,6.724.009,13.449.01,20.173,0,.285,0,.57,0,.914a2,2,0,0,0,1.519-2.22c-.054-11.475-.039-22.951-.017-34.426,0-.68-.128-.9-.862-.9q-26.094.034-52.187,0c-.658,0-.851.152-.85.835q.034,17.4.016,34.792" transform="translate(-45.48 -12.877)" fill="#b0b8c0"/>
        <path id="Trazado_609200" data-name="Trazado 609200" d="M121.609,110.867a2.691,2.691,0,0,1,2.5-1.04c.559.076.688-.146.687-.686q-.026-12.169-.015-24.338a5.064,5.064,0,0,0-.456-2.343,4.644,4.644,0,0,0-4.544-2.583q-8.734.014-17.467,0c-5.847,0-11.693-.009-17.54,0-3,.006-4.906,1.823-4.916,4.776-.028,8.185-.006,16.371-.019,24.557,0,.475.128.674.614.607a2.8,2.8,0,0,1,2.628,1.1c.639.732,1.355,1.4,2.061,2.072a2.134,2.134,0,0,1,.7,1.689c-.025,1.144.028,2.291-.021,3.434-.025.6.185.728.746.725,3.435-.023,6.87-.012,10.3-.012q10.6,0,21.195.012c.567,0,.765-.137.741-.728-.046-1.168,0-2.339-.018-3.508a2.018,2.018,0,0,1,.652-1.561c.735-.712,1.487-1.411,2.163-2.177m-7.167,6.4c-.6.054-1.215.038-1.823.039q-5.149,0-10.3,0-5.66,0-11.32,0a6.287,6.287,0,0,1-.873-.043,1.427,1.427,0,0,1-1.252-1.313,1.445,1.445,0,0,1,1.074-1.541,3.838,3.838,0,0,1,.94-.077q11.43-.006,22.86,0a4.916,4.916,0,0,1,.728.026,1.473,1.473,0,0,1,1.292,1.519,1.408,1.408,0,0,1-1.327,1.393m-.793-4.426H91.076c-.219,0-.44.012-.657-.009a1.505,1.505,0,1,1,.024-3.008c.169-.014.341-.005.511-.005h22.719c1.366,0,2.083.51,2.1,1.487.018,1.007-.711,1.535-2.125,1.535m2.225-6.318a4.011,4.011,0,0,1-1.628.331q-11.914-.008-23.828,0a4.159,4.159,0,0,1-1.7-.352c-2.028-.884-4.054-1.772-6.1-2.619a1.831,1.831,0,0,1-1.265-1.9c.022-5.287,0-10.574.015-15.861a2.944,2.944,0,0,1,3.282-3.232q8.844-.005,17.688,0,8.771,0,17.542,0c2.241,0,3.378,1.121,3.381,3.355.007,5.214-.017,10.428.018,15.642a1.96,1.96,0,0,1-1.379,2.053c-2.023.831-4.026,1.714-6.033,2.583" transform="translate(-64.89 -64.92)" fill="#faad04"/>
        <path id="Trazado_609201" data-name="Trazado 609201" d="M108.38,309.718a1.471,1.471,0,0,0,1.553-1.56c.017-.755.006-1.51.006-2.265,0-1.7-.462-2.165-2.163-2.165H58.241a5.169,5.169,0,0,0-.729.02,1.489,1.489,0,0,0-1.4,1.577c-.02.8-.008,1.607-.006,2.411,0,1.517.478,1.985,2.013,1.985h49.609c.219,0,.439.006.658,0m-30.142-1.47c-.9.016-1.8,0-2.7,0-.925,0-1.851.028-2.775-.007-1.4-.054-2.1-1.172-1.466-2.284a1.589,1.589,0,0,1,1.5-.735c1.85-.033,3.7-.046,5.55,0a1.46,1.46,0,0,1,1.626,1.561c-.022.908-.638,1.44-1.731,1.46m16.6-.88a1.709,1.709,0,0,1-1.642.884h-2.7c-.9,0-1.8.014-2.7,0-1.087-.022-1.7-.562-1.716-1.475s.554-1.521,1.641-1.548c1.849-.045,3.7-.055,5.55,0,1.337.042,2.073,1.1,1.572,2.14" transform="translate(-45.59 -246.848)" fill="#586571"/>
        <path id="Trazado_609202" data-name="Trazado 609202" d="M87.989,352c-1.241.033-2.484.01-3.727.01-1.315,0-2.631,0-3.946,0-.337,0-.64-.006-.634.472.013,1.267-.027,2.535.021,3.8a1.6,1.6,0,0,0,1.515,1.651,41.651,41.651,0,0,0,5.833.008c1.3-.093,1.679-.655,1.683-1.993,0-1.072-.033-2.145.014-3.215.026-.6-.2-.746-.758-.731" transform="translate(-64.757 -286.08)" fill="#374d5d"/>
        <path id="Trazado_609203" data-name="Trazado 609203" d="M280.007,351.982c-1.265.043-2.533.013-3.8.013-1.315,0-2.631.007-3.946,0-.376,0-.593.079-.586.522.019,1.266-.022,2.534.019,3.8a1.418,1.418,0,0,0,1.4,1.56,34.024,34.024,0,0,0,5.9.064c1.24-.059,1.712-.714,1.727-1.981.013-1.072-.023-2.145.013-3.215.019-.562-.137-.779-.734-.759" transform="translate(-220.798 -286.067)" fill="#374d5d"/>
        <path id="Trazado_609204" data-name="Trazado 609204" d="M19.791,159.914c-1.1.022-2.193.031-3.289,0-.478-.015-.633.126-.622.61.03,1.291.01,2.582.01,3.874,0,1.316.013,2.631-.007,3.947-.006.407.112.556.536.547q1.717-.038,3.435,0c.417.009.536-.124.533-.537-.017-2.631-.022-5.263,0-7.894,0-.49-.19-.552-.6-.544" transform="translate(-12.906 -129.964)" fill="#b0b8c0"/>
        <path id="Trazado_609205" data-name="Trazado 609205" d="M359.8,164.335c0,1.34.013,2.68-.008,4.02-.007.4.1.554.526.544,1.144-.027,2.29-.024,3.435,0,.414.008.546-.124.543-.54q-.023-3.947,0-7.894c0-.412-.12-.551-.539-.542q-1.717.037-3.435,0c-.421-.01-.538.128-.531.538.023,1.291.008,2.583.008,3.874" transform="translate(-292.41 -129.975)" fill="#b0b8c0"/>
        <path id="Trazado_609206" data-name="Trazado 609206" d="M79.632,261.635c.539.456,1.541.087,2.337.139.373.024.518-.106.51-.5-.021-1-.006-1.995-.008-2.992,0-.167.031-.345-.107-.483-.636-.637-1.261-1.284-1.913-1.9a.811.811,0,0,0-.833-.07c-.268.089-.156.377-.159.58-.012.778,0,1.557,0,2.335,0,.219-.015.439,0,.657.063.766-.354,1.785.175,2.233" transform="translate(-64.498 -207.857)" fill="#ee491c"/>
        <path id="Trazado_609207" data-name="Trazado 609207" d="M306.512,255.883a.884.884,0,0,0-.937.228c-.511.553-1.054,1.078-1.6,1.6a.812.812,0,0,0-.257.647c.01,1,.018,2,0,2.992-.008.389.137.51.51.5.656-.021,1.314-.022,1.97,0,.409.014.562-.137.551-.549-.022-.827-.007-1.654-.007-2.481,0-.73.018-1.46-.01-2.189-.01-.257.192-.644-.222-.746" transform="translate(-246.841 -207.93)" fill="#ee491c"/>
        <path id="Trazado_609208" data-name="Trazado 609208" d="M336.307,241.859c.456.01.766.011.756-.628-.039-2.41-.016-4.821-.016-7.231v-2.754c-.945.471-1.589.884-1.527,2.114.132,2.623.064,5.257.024,7.887-.01.659.331.6.763.613" transform="translate(-272.684 -187.942)" fill="#b0b8c0"/>
        <path id="Trazado_609209" data-name="Trazado 609209" d="M56.734,241.955c.371,0,.764.127.756-.536-.034-2.58-.084-5.164.019-7.741a1.991,1.991,0,0,0-1.259-2.217l-.2-.086a1.412,1.412,0,0,0-.055.251c0,3.263.011,6.525-.017,9.788-.006.651.381.543.758.541" transform="translate(-45.494 -188.047)" fill="#b0b8c0"/>
        <path id="Trazado_609210" data-name="Trazado 609210" d="M129.869,114.975c-.035-5.214-.011-10.428-.018-15.642,0-2.234-1.139-3.354-3.381-3.355q-8.771,0-17.542,0-8.844,0-17.688,0a2.944,2.944,0,0,0-3.282,3.232c-.012,5.287.007,10.574-.015,15.861a1.832,1.832,0,0,0,1.265,1.9c2.043.847,4.069,1.735,6.1,2.619a4.159,4.159,0,0,0,1.7.352q11.914-.009,23.828,0a4.011,4.011,0,0,0,1.628-.331c2.008-.87,4.01-1.752,6.033-2.583a1.96,1.96,0,0,0,1.379-2.053m-3.667-.228c-1.531.624-3.039,1.3-4.558,1.958a1.739,1.739,0,0,1-.62.2c-1.456.017-2.911.009-4.385.009.472-1.42.547-1.478,1.859-1.478.974,0,1.949.011,2.923,0a1.5,1.5,0,0,0,1.674-1.449c.017-.922-.6-1.51-1.665-1.515q-4.312-.023-8.624,0a1.477,1.477,0,0,0-1.64,1.476,1.523,1.523,0,0,0,1.651,1.489c.316.011.632,0,.955,0-.323,1.273-.581,1.484-1.786,1.484h-10.31c.409-1.367.561-1.484,1.9-1.484.926,0,1.852.007,2.777,0,1.091-.011,1.808-.617,1.8-1.5s-.667-1.461-1.735-1.466q-4.239-.02-8.478,0c-1.069,0-1.734.582-1.746,1.455-.011.89.7,1.5,1.783,1.514.283,0,.565,0,.871,0-.607,1.665-.975,1.845-2.72,1.226-1.578-.56-3.085-1.319-4.635-1.96a.8.8,0,0,1-.578-.859q-.024-7.052-.11-14.1c-.009-.671.209-.8.83-.8q17.248.026,34.5,0c.61,0,.77.169.766.771q-.036,7.016,0,14.032a.925.925,0,0,1-.69,1.009" transform="translate(-71.474 -78.004)" fill="#0b1a22"/>
        <path id="Trazado_609211" data-name="Trazado 609211" d="M152.832,239.773H130.114c-.17,0-.342-.009-.511,0a1.505,1.505,0,1,0-.024,3.008c.217.021.438.009.657.009h22.573c1.414,0,2.143-.528,2.125-1.535-.017-.977-.735-1.487-2.1-1.487" transform="translate(-104.05 -194.87)" fill="#0b1a22"/>
        <path id="Trazado_609212" data-name="Trazado 609212" d="M153.652,263.89a4.918,4.918,0,0,0-.729-.026q-11.43,0-22.86,0a3.837,3.837,0,0,0-.94.077,1.445,1.445,0,0,0-1.074,1.541A1.427,1.427,0,0,0,129.3,266.8a6.289,6.289,0,0,0,.873.043q5.66,0,11.32,0,5.149,0,10.3,0c.608,0,1.219.015,1.823-.039a1.408,1.408,0,0,0,1.327-1.393,1.474,1.474,0,0,0-1.292-1.519" transform="translate(-104.065 -214.451)" fill="#0b1a22"/>
        <path id="Trazado_609213" data-name="Trazado 609213" d="M143.29,311.6c-1.849-.048-3.7-.035-5.55,0a1.588,1.588,0,0,0-1.5.735c-.631,1.112.065,2.23,1.466,2.284.924.036,1.85.007,2.775.007.9,0,1.8.013,2.7,0,1.093-.02,1.709-.552,1.731-1.46a1.46,1.46,0,0,0-1.626-1.561" transform="translate(-110.538 -253.227)" fill="#0b1a22"/>
        <path id="Trazado_609214" data-name="Trazado 609214" d="M223.348,311.575c-1.848-.058-3.7-.047-5.55,0-1.088.026-1.658.624-1.641,1.548s.629,1.453,1.716,1.475c.9.018,1.8,0,2.7,0h2.7a1.71,1.71,0,0,0,1.642-.884c.5-1.036-.235-2.1-1.572-2.14" transform="translate(-175.677 -253.196)" fill="#0b1a22"/>
        <path id="Trazado_609215" data-name="Trazado 609215" d="M139.286,112.547c0-.6-.157-.772-.767-.771q-17.248.027-34.5,0c-.621,0-.839.13-.83.8q.1,7.051.11,14.1a.8.8,0,0,0,.578.859c1.55.642,3.057,1.4,4.635,1.96,1.745.619,2.114.438,2.72-1.226-.306,0-.589,0-.871,0-1.082-.018-1.794-.625-1.783-1.514.011-.873.677-1.451,1.745-1.455q4.239-.018,8.478,0c1.069,0,1.723.582,1.735,1.466s-.7,1.491-1.8,1.5c-.926.009-1.852,0-2.777,0-1.336,0-1.488.116-1.9,1.484h10.31c1.2,0,1.463-.211,1.786-1.484-.323,0-.639.009-.955,0a1.523,1.523,0,0,1-1.651-1.489,1.477,1.477,0,0,1,1.64-1.476q4.312-.026,8.624,0c1.069.006,1.682.594,1.665,1.515a1.5,1.5,0,0,1-1.674,1.45c-.974.014-1.949,0-2.923,0-1.312,0-1.387.058-1.859,1.478,1.474,0,2.93.008,4.385-.009a1.736,1.736,0,0,0,.62-.2c1.519-.653,3.027-1.335,4.558-1.958a.925.925,0,0,0,.69-1.009q-.036-7.016,0-14.032" transform="translate(-83.869 -90.844)" fill="#4f89c9"/>
      </g>
    </g>
  </g>
</svg>
