<svg xmlns="http://www.w3.org/2000/svg" xmlns:xlink="http://www.w3.org/1999/xlink" width="433.86" height="74.86" viewBox="0 0 433.86 74.86"><defs><clipPath id="a"><rect width="74.86" height="74.86" fill="none"/></clipPath></defs><g transform="translate(-180 -2619.969)"><path d="M0,0H403.1l-3.217,52.528L0,52Z" transform="translate(180 2632.399)" fill="#fff0a6"/><path d="M12.578,16.186a5.193,5.193,0,0,1-.8,2.622A4.833,4.833,0,0,1,9.722,20.57,7,7,0,0,1,6.7,21.2a5.584,5.584,0,0,1-4.414-1.826A7.54,7.54,0,0,1,.674,14.213v-.7A8.607,8.607,0,0,1,1.4,9.853,5.513,5.513,0,0,1,3.5,7.431,5.844,5.844,0,0,1,6.66,6.576a6.129,6.129,0,0,1,4.16,1.362,5.383,5.383,0,0,1,1.787,3.755H9.189a2.547,2.547,0,0,0-.654-1.865A2.691,2.691,0,0,0,6.66,9.262a2.048,2.048,0,0,0-1.875.957,6.151,6.151,0,0,0-.625,3.057v1.006a6.806,6.806,0,0,0,.571,3.252A2.091,2.091,0,0,0,6.7,18.51a2.632,2.632,0,0,0,1.807-.557,2.363,2.363,0,0,0,.664-1.768ZM17.52,21h-3.3V6h3.3Zm5.5,0h-3.3V10.434h3.3Zm-3.5-13.291a1.469,1.469,0,0,1,.508-1.152,2.159,2.159,0,0,1,2.637,0,1.469,1.469,0,0,1,.508,1.152,1.469,1.469,0,0,1-.508,1.152,2.159,2.159,0,0,1-2.637,0A1.469,1.469,0,0,1,19.521,7.709ZM30.156,21.2a5.432,5.432,0,0,1-3.936-1.45,5.008,5.008,0,0,1-1.5-3.774V15.7a6.489,6.489,0,0,1,.6-2.861,4.395,4.395,0,0,1,1.753-1.919,5.292,5.292,0,0,1,2.734-.679A4.574,4.574,0,0,1,33.32,11.62a5.43,5.43,0,0,1,1.289,3.853v1.279H28.066a2.372,2.372,0,0,0,.771,1.4,2.3,2.3,0,0,0,1.543.508,2.958,2.958,0,0,0,2.441-1.094l1.5,1.777a4.2,4.2,0,0,1-1.743,1.353A5.891,5.891,0,0,1,30.156,21.2Zm-.371-8.418q-1.445,0-1.719,1.914h3.32v-.254a1.63,1.63,0,0,0-.4-1.226A1.593,1.593,0,0,0,29.785,12.777Zm9.17-2.344.107,1.24a3.583,3.583,0,0,1,3.018-1.436,3.015,3.015,0,0,1,2.466.986,4.7,4.7,0,0,1,.845,2.969V21h-3.3V14.33a1.783,1.783,0,0,0-.322-1.177,1.491,1.491,0,0,0-1.172-.376,1.569,1.569,0,0,0-1.436.762V21H35.869V10.434Zm12.09-2.627v2.627h1.738v2.285H51.045v4.834a1.234,1.234,0,0,0,.215.83,1.152,1.152,0,0,0,.85.234,4.828,4.828,0,0,0,.82-.059v2.354a6.074,6.074,0,0,1-1.855.283,3.448,3.448,0,0,1-2.51-.8,3.282,3.282,0,0,1-.811-2.432V12.719H46.406V10.434h1.348V7.807ZM59.189,21.2a5.432,5.432,0,0,1-3.936-1.45,5.008,5.008,0,0,1-1.5-3.774V15.7a6.489,6.489,0,0,1,.6-2.861A4.395,4.395,0,0,1,56.1,10.917a5.292,5.292,0,0,1,2.734-.679,4.574,4.574,0,0,1,3.516,1.382,5.43,5.43,0,0,1,1.289,3.853v1.279H57.1a2.372,2.372,0,0,0,.771,1.4,2.3,2.3,0,0,0,1.543.508,2.958,2.958,0,0,0,2.441-1.094l1.5,1.777a4.2,4.2,0,0,1-1.743,1.353A5.891,5.891,0,0,1,59.189,21.2Zm-.371-8.418q-1.445,0-1.719,1.914h3.32v-.254a1.63,1.63,0,0,0-.4-1.226A1.593,1.593,0,0,0,58.818,12.777ZM70.5,18.031a.76.76,0,0,0-.439-.674,6.684,6.684,0,0,0-1.67-.527,7.615,7.615,0,0,1-2.031-.718,3.4,3.4,0,0,1-1.221-1.079,2.577,2.577,0,0,1-.42-1.455,2.92,2.92,0,0,1,1.2-2.4,4.948,4.948,0,0,1,3.145-.942,5.482,5.482,0,0,1,3.359.947,2.962,2.962,0,0,1,1.27,2.49h-3.3q0-1.27-1.338-1.27a1.326,1.326,0,0,0-.869.288.892.892,0,0,0-.352.718.819.819,0,0,0,.43.713,4.06,4.06,0,0,0,1.372.449,11.857,11.857,0,0,1,1.655.42,3.007,3.007,0,0,1,2.383,2.939,2.767,2.767,0,0,1-1.284,2.354,5.631,5.631,0,0,1-3.325.908,5.747,5.747,0,0,1-2.422-.488,4.05,4.05,0,0,1-1.66-1.328,3.007,3.007,0,0,1-.6-1.768h3.076a1.272,1.272,0,0,0,.488,1.069,2.009,2.009,0,0,0,1.2.337,1.58,1.58,0,0,0,1.011-.273A.875.875,0,0,0,70.5,18.031Zm12.8-7.6.107,1.24a3.633,3.633,0,0,1,3.018-1.436,2.675,2.675,0,0,1,2.705,1.592,3.517,3.517,0,0,1,3.105-1.592q3.213,0,3.3,3.887V21h-3.3V14.33a2.014,2.014,0,0,0-.273-1.182,1.164,1.164,0,0,0-1-.371,1.559,1.559,0,0,0-1.455.869l.01.137V21h-3.3V14.35a2.117,2.117,0,0,0-.264-1.2,1.161,1.161,0,0,0-1.006-.371,1.578,1.578,0,0,0-1.445.869V21H80.215V10.434ZM100.889,21h-3.3V10.434h3.3Zm-3.5-13.291A1.469,1.469,0,0,1,97.9,6.557a2.159,2.159,0,0,1,2.637,0,1.469,1.469,0,0,1,.508,1.152,1.469,1.469,0,0,1-.508,1.152,2.159,2.159,0,0,1-2.637,0A1.469,1.469,0,0,1,97.393,7.709Zm8.545,2.725.107,1.24a3.583,3.583,0,0,1,3.018-1.436,3.015,3.015,0,0,1,2.466.986,4.7,4.7,0,0,1,.845,2.969V21h-3.3V14.33a1.783,1.783,0,0,0-.322-1.177,1.491,1.491,0,0,0-1.172-.376,1.569,1.569,0,0,0-1.436.762V21h-3.291V10.434Zm7.842,5.186a6.236,6.236,0,0,1,.615-2.817,4.4,4.4,0,0,1,1.768-1.9,5.323,5.323,0,0,1,2.705-.664,4.858,4.858,0,0,1,3.74,1.47,5.64,5.64,0,0,1,1.367,4v.117a5.472,5.472,0,0,1-1.372,3.921,4.871,4.871,0,0,1-3.716,1.45,4.927,4.927,0,0,1-3.623-1.353,5.29,5.29,0,0,1-1.475-3.667Zm3.291.205a3.932,3.932,0,0,0,.459,2.148,1.529,1.529,0,0,0,1.357.684q1.758,0,1.8-2.705v-.332q0-2.842-1.816-2.842-1.65,0-1.787,2.451Zm14.746-2.412-1.084-.078a1.947,1.947,0,0,0-1.992.977V21h-3.291V10.434h3.086l.107,1.357a2.548,2.548,0,0,1,2.314-1.553,3.209,3.209,0,0,1,.918.117ZM136.475,21h-3.3V10.434h3.3Zm-3.5-13.291a1.469,1.469,0,0,1,.508-1.152,2.159,2.159,0,0,1,2.637,0,1.469,1.469,0,0,1,.508,1.152,1.469,1.469,0,0,1-.508,1.152,2.159,2.159,0,0,1-2.637,0A1.469,1.469,0,0,1,132.979,7.709Zm11.055,10.322a.76.76,0,0,0-.439-.674,6.684,6.684,0,0,0-1.67-.527,7.615,7.615,0,0,1-2.031-.718,3.4,3.4,0,0,1-1.221-1.079,2.577,2.577,0,0,1-.42-1.455,2.92,2.92,0,0,1,1.2-2.4,4.948,4.948,0,0,1,3.145-.942,5.482,5.482,0,0,1,3.359.947,2.962,2.962,0,0,1,1.27,2.49h-3.3q0-1.27-1.338-1.27a1.326,1.326,0,0,0-.869.288.892.892,0,0,0-.352.718.819.819,0,0,0,.43.713,4.06,4.06,0,0,0,1.372.449,11.857,11.857,0,0,1,1.655.42,3.007,3.007,0,0,1,2.383,2.939,2.767,2.767,0,0,1-1.284,2.354,5.632,5.632,0,0,1-3.325.908,5.747,5.747,0,0,1-2.422-.488,4.05,4.05,0,0,1-1.66-1.328,3.007,3.007,0,0,1-.6-1.768H141a1.272,1.272,0,0,0,.488,1.069,2.009,2.009,0,0,0,1.2.337,1.58,1.58,0,0,0,1.011-.273A.875.875,0,0,0,144.033,18.031Zm8.545-10.225v2.627h1.738v2.285h-1.738v4.834a1.234,1.234,0,0,0,.215.83,1.152,1.152,0,0,0,.85.234,4.828,4.828,0,0,0,.82-.059v2.354a6.074,6.074,0,0,1-1.855.283,3.448,3.448,0,0,1-2.51-.8,3.282,3.282,0,0,1-.811-2.432V12.719h-1.348V10.434h1.348V7.807ZM161.563,21a3.716,3.716,0,0,1-.312-.947,3.06,3.06,0,0,1-2.539,1.143,3.749,3.749,0,0,1-2.539-.9,2.875,2.875,0,0,1-1.045-2.271,2.955,2.955,0,0,1,1.27-2.6,6.468,6.468,0,0,1,3.691-.879H161.1v-.559q0-1.462-1.26-1.462a1.03,1.03,0,0,0-1.172,1.158h-3.291a2.95,2.95,0,0,1,1.3-2.487,5.479,5.479,0,0,1,3.325-.956,4.8,4.8,0,0,1,3.193.986,3.429,3.429,0,0,1,1.2,2.705v4.678a4.79,4.79,0,0,0,.449,2.227V21ZM159.5,18.852a1.836,1.836,0,0,0,1.021-.264,1.653,1.653,0,0,0,.581-.6V16.3h-.957q-1.719,0-1.719,1.543a.942.942,0,0,0,.3.728A1.1,1.1,0,0,0,159.5,18.852Zm12.256-.82a.76.76,0,0,0-.439-.674,6.684,6.684,0,0,0-1.67-.527,7.615,7.615,0,0,1-2.031-.718,3.4,3.4,0,0,1-1.221-1.079,2.577,2.577,0,0,1-.42-1.455,2.92,2.92,0,0,1,1.2-2.4,4.948,4.948,0,0,1,3.145-.942,5.482,5.482,0,0,1,3.359.947,2.962,2.962,0,0,1,1.27,2.49h-3.3q0-1.27-1.338-1.27a1.326,1.326,0,0,0-.869.288.892.892,0,0,0-.352.718.819.819,0,0,0,.43.713,4.06,4.06,0,0,0,1.372.449,11.857,11.857,0,0,1,1.655.42,3.007,3.007,0,0,1,2.383,2.939,2.767,2.767,0,0,1-1.284,2.354,5.632,5.632,0,0,1-3.325.908,5.747,5.747,0,0,1-2.422-.488,4.05,4.05,0,0,1-1.66-1.328,3.007,3.007,0,0,1-.6-1.768h3.076a1.272,1.272,0,0,0,.488,1.069,2.009,2.009,0,0,0,1.2.337,1.58,1.58,0,0,0,1.011-.273A.875.875,0,0,0,171.758,18.031Zm9.277-2.412a6.236,6.236,0,0,1,.615-2.817,4.4,4.4,0,0,1,1.768-1.9,5.323,5.323,0,0,1,2.705-.664,4.858,4.858,0,0,1,3.74,1.47,5.64,5.64,0,0,1,1.367,4v.117a5.472,5.472,0,0,1-1.372,3.921,4.871,4.871,0,0,1-3.716,1.45,4.927,4.927,0,0,1-3.623-1.353,5.29,5.29,0,0,1-1.475-3.667Zm3.291.205a3.932,3.932,0,0,0,.459,2.148,1.529,1.529,0,0,0,1.357.684q1.758,0,1.8-2.705v-.332q0-2.842-1.816-2.842-1.65,0-1.787,2.451Zm12.92-.186a6.455,6.455,0,0,1,1.084-3.955,3.568,3.568,0,0,1,3.027-1.445,3.035,3.035,0,0,1,2.383,1.113V6h3.3V21h-2.959l-.166-1.133a3.116,3.116,0,0,1-2.578,1.328,3.562,3.562,0,0,1-2.988-1.445A6.659,6.659,0,0,1,197.246,15.639Zm3.291.205q0,2.813,1.641,2.813a1.62,1.62,0,0,0,1.563-.918V13.715a1.576,1.576,0,0,0-1.543-.937q-1.523,0-1.65,2.461ZM214.023,21.2a5.432,5.432,0,0,1-3.936-1.45,5.008,5.008,0,0,1-1.5-3.774V15.7a6.489,6.489,0,0,1,.6-2.861,4.395,4.395,0,0,1,1.753-1.919,5.292,5.292,0,0,1,2.734-.679,4.574,4.574,0,0,1,3.516,1.382,5.43,5.43,0,0,1,1.289,3.853v1.279h-6.543a2.372,2.372,0,0,0,.771,1.4,2.3,2.3,0,0,0,1.543.508,2.958,2.958,0,0,0,2.441-1.094l1.5,1.777a4.2,4.2,0,0,1-1.743,1.353A5.891,5.891,0,0,1,214.023,21.2Zm-.371-8.418q-1.445,0-1.719,1.914h3.32v-.254a1.63,1.63,0,0,0-.4-1.226A1.593,1.593,0,0,0,213.652,12.777Zm9.98-4.971v2.627h1.738v2.285h-1.738v4.834a1.234,1.234,0,0,0,.215.83,1.152,1.152,0,0,0,.85.234,4.828,4.828,0,0,0,.82-.059v2.354a6.074,6.074,0,0,1-1.855.283,3.448,3.448,0,0,1-2.51-.8,3.282,3.282,0,0,1-.811-2.432V12.719h-1.348V10.434h1.348V7.807ZM232.617,21a3.716,3.716,0,0,1-.312-.947,3.06,3.06,0,0,1-2.539,1.143,3.749,3.749,0,0,1-2.539-.9,2.875,2.875,0,0,1-1.045-2.271,2.955,2.955,0,0,1,1.27-2.6,6.468,6.468,0,0,1,3.691-.879h1.016v-.559q0-1.462-1.26-1.462a1.03,1.03,0,0,0-1.172,1.158h-3.291a2.95,2.95,0,0,1,1.3-2.487,5.479,5.479,0,0,1,3.325-.956,4.8,4.8,0,0,1,3.193.986,3.429,3.429,0,0,1,1.2,2.705v4.678a4.79,4.79,0,0,0,.449,2.227V21Zm-2.061-2.148a1.836,1.836,0,0,0,1.021-.264,1.653,1.653,0,0,0,.581-.6V16.3H231.2q-1.719,0-1.719,1.543a.942.942,0,0,0,.3.728A1.1,1.1,0,0,0,230.557,18.852ZM240.752,21h-3.3V6h3.3Zm5.5,0h-3.3V6h3.3Zm5.5,0h-3.3V10.434h3.3Zm-3.5-13.291a1.469,1.469,0,0,1,.508-1.152,2.159,2.159,0,0,1,2.637,0,1.469,1.469,0,0,1,.508,1.152,1.469,1.469,0,0,1-.508,1.152,2.159,2.159,0,0,1-2.637,0A1.469,1.469,0,0,1,248.252,7.709Zm11.055,10.322a.76.76,0,0,0-.439-.674,6.684,6.684,0,0,0-1.67-.527,7.615,7.615,0,0,1-2.031-.718,3.4,3.4,0,0,1-1.221-1.079,2.577,2.577,0,0,1-.42-1.455,2.92,2.92,0,0,1,1.2-2.4,4.948,4.948,0,0,1,3.145-.942,5.482,5.482,0,0,1,3.359.947,2.962,2.962,0,0,1,1.27,2.49h-3.3q0-1.27-1.338-1.27a1.326,1.326,0,0,0-.869.288.892.892,0,0,0-.352.718.819.819,0,0,0,.43.713,4.06,4.06,0,0,0,1.372.449,11.856,11.856,0,0,1,1.655.42,3.007,3.007,0,0,1,2.383,2.939,2.767,2.767,0,0,1-1.284,2.354,5.631,5.631,0,0,1-3.325.908,5.747,5.747,0,0,1-2.422-.488,4.05,4.05,0,0,1-1.66-1.328,3.007,3.007,0,0,1-.6-1.768h3.076a1.272,1.272,0,0,0,.488,1.069,2.009,2.009,0,0,0,1.2.337,1.58,1.58,0,0,0,1.011-.273A.875.875,0,0,0,259.307,18.031Zm8.545-10.225v2.627h1.738v2.285h-1.738v4.834a1.234,1.234,0,0,0,.215.83,1.152,1.152,0,0,0,.85.234,4.828,4.828,0,0,0,.82-.059v2.354a6.074,6.074,0,0,1-1.855.283,3.448,3.448,0,0,1-2.51-.8,3.282,3.282,0,0,1-.811-2.432V12.719h-1.348V10.434h1.348V7.807ZM276.836,21a3.716,3.716,0,0,1-.312-.947,3.06,3.06,0,0,1-2.539,1.143,3.749,3.749,0,0,1-2.539-.9,2.875,2.875,0,0,1-1.045-2.271,2.955,2.955,0,0,1,1.27-2.6,6.468,6.468,0,0,1,3.691-.879h1.016v-.559q0-1.462-1.26-1.462a1.03,1.03,0,0,0-1.172,1.158h-3.291a2.95,2.95,0,0,1,1.3-2.487,5.479,5.479,0,0,1,3.325-.956,4.8,4.8,0,0,1,3.193.986,3.429,3.429,0,0,1,1.2,2.705v4.678a4.79,4.79,0,0,0,.449,2.227V21Zm-2.061-2.148a1.836,1.836,0,0,0,1.021-.264,1.653,1.653,0,0,0,.581-.6V16.3h-.957q-1.719,0-1.719,1.543a.942.942,0,0,0,.3.728A1.1,1.1,0,0,0,274.775,18.852Zm12.256-.82a.76.76,0,0,0-.439-.674,6.684,6.684,0,0,0-1.67-.527,7.615,7.615,0,0,1-2.031-.718,3.4,3.4,0,0,1-1.221-1.079,2.577,2.577,0,0,1-.42-1.455,2.92,2.92,0,0,1,1.2-2.4,4.948,4.948,0,0,1,3.145-.942,5.482,5.482,0,0,1,3.359.947,2.962,2.962,0,0,1,1.27,2.49h-3.3q0-1.27-1.338-1.27a1.326,1.326,0,0,0-.869.288.892.892,0,0,0-.352.718.819.819,0,0,0,.43.713,4.06,4.06,0,0,0,1.372.449,11.856,11.856,0,0,1,1.655.42,3.007,3.007,0,0,1,2.383,2.939,2.767,2.767,0,0,1-1.284,2.354,5.631,5.631,0,0,1-3.325.908,5.747,5.747,0,0,1-2.422-.488,4.05,4.05,0,0,1-1.66-1.328,3.007,3.007,0,0,1-.6-1.768h3.076a1.272,1.272,0,0,0,.488,1.069,2.009,2.009,0,0,0,1.2.337,1.58,1.58,0,0,0,1.011-.273A.875.875,0,0,0,287.031,18.031Z" transform="translate(223 2645.399)" fill="#12263f"/><g transform="translate(539 2619.969)"><g clip-path="url(#a)"><path d="M74.86,73.19c0,1.291-.373,1.669-1.647,1.669H1.757C.328,74.859,0,74.527,0,73.075Q0,55.494,0,37.913c0-1.336.356-1.691,1.7-1.691,1.66,0,3.32-.019,4.98.012.467.009.579-.112.579-.579q-.023-12.714,0-25.428c0-.463-.106-.584-.576-.582-1.6.008-1.85-.274-1.85-1.9,0-2.088,0-4.175,0-6.263C4.834.44,5.262,0,6.287,0Q26.546,0,46.806,0c1.073,0,1.488.427,1.49,1.52q.006,3.282,0,6.565c0,1.174-.407,1.617-1.591,1.555-.7-.037-.849.19-.84.857q.059,4.074,0,8.149c-.008.582.158.687.7.685q10.9-.029,21.806-.013c1.282,0,1.653.373,1.653,1.661,0,6.439.01,12.878-.016,19.316,0,.626.139.819.772.771.825-.062,1.659-.017,2.489-.015,1.183,0,1.584.4,1.584,1.579q0,13.884,0,27.767,0,1.4,0,2.792" transform="translate(0 0.001)" fill="#fefefe"/><path d="M73.275,41.053c-.83,0-1.664-.047-2.489.015-.633.047-.775-.145-.772-.771.026-6.439.017-12.877.016-19.316,0-1.288-.371-1.661-1.653-1.661q-10.9,0-21.806.013c-.547,0-.712-.1-.7-.685q.054-4.074,0-8.149c-.01-.667.135-.894.84-.857,1.183.063,1.589-.381,1.591-1.555q0-3.282,0-6.565c0-1.093-.417-1.52-1.49-1.52Q26.546,0,6.286,0C5.262,0,4.834.441,4.831,1.479c-.005,2.088,0,4.175,0,6.263,0,1.63.252,1.912,1.85,1.9.47,0,.577.119.576.582q-.023,12.714,0,25.428c0,.467-.112.587-.579.579-1.659-.031-3.32-.013-4.98-.012-1.341,0-1.7.355-1.7,1.691Q0,55.495,0,73.076c0,1.452.327,1.784,1.757,1.784H73.213c1.274,0,1.645-.378,1.647-1.669q0-1.4,0-2.792,0-13.884,0-27.768c0-1.179-.4-1.576-1.584-1.579M32.593,2.982c-.006-.4.081-.579.534-.576,3.444.024,6.888.024,10.332.032h0c.628-.007,1.257,0,1.884-.027.365-.014.552.076.546.5q-.031,1.923,0,3.846c.007.42-.181.51-.546.5-.627-.024-1.256-.02-1.884-.027-3.444.007-6.888.008-10.331.032-.454,0-.541-.174-.535-.576q.03-1.847,0-3.7m-9.661.023c-.009-.434.068-.611.564-.6,2.057.031,4.114.026,6.171,0,.45-.005.534.159.527.562-.023,1.229-.037,2.459.005,3.687.019.53-.184.614-.643.6-.978-.03-1.957-.009-2.935-.009-1,0-2.008-.026-3.01.011-.5.018-.7-.077-.683-.638.046-1.2.031-2.408.005-3.612m2.408,7.414c0-.63.152-.794.779-.777,1.65.045,1.651.013,1.651,1.7V23.024c0,4.171-.012,8.342.014,12.513,0,.567-.14.709-.7.7-1.726-.03-1.727,0-1.727-1.7q0-12.061-.016-24.122m-2.385-.078q-.031,12.6,0,25.2c0,.579-.162.7-.713.7q-5.922-.036-11.844,0c-.574,0-.758-.121-.754-.733.029-4.2.015-8.4.015-12.6,0-4.174.014-8.349-.015-12.523,0-.609.176-.738.752-.734q5.922.037,11.844,0c.549,0,.716.114.715.7M21.742,47.755c0,.416-.1.561-.537.551q-1.881-.042-3.765,0c-.427.009-.554-.112-.546-.543.026-1.43.01-2.861.01-4.292s.014-2.862-.009-4.292c-.007-.417.1-.561.538-.552q1.881.042,3.765,0c.427-.009.549.113.546.543q-.028,4.292,0,8.584M7.232,6.5c.042-1.156.027-2.314,0-3.47C7.229,2.6,7.3,2.4,7.8,2.4q6.074.03,12.149,0c.482,0,.593.16.583.607-.026,1.207-.033,2.415,0,3.622.015.513-.169.627-.646.621-1.987-.023-3.974-.01-5.961-.01S9.956,7.218,7.97,7.26c-.618.013-.758-.189-.737-.763M36.239,71.6c0,.686-.166.934-.858.852a15.336,15.336,0,0,0-1.581-.034c-.226.008-.452.023-.677.023q-14.974,0-29.948.017c-.626,0-.777-.146-.775-.774q.033-16.143,0-32.286c0-.621.136-.786.771-.78q5.318.052,10.636,0c.568,0,.7.138.7.7-.029,3.269-.016,6.538-.014,9.806,0,1.182.4,1.58,1.581,1.582q3.281,0,6.563,0c1.083,0,1.512-.425,1.513-1.5,0-3.294.015-6.588-.012-9.882,0-.55.11-.715.69-.707,2.991.041,5.983.031,8.975.039.775.007,1.76-.271,2.266.1.485.358.15,1.406.15,2.148.01,10.231,0,20.462.023,30.693M30.721,36.231c-.435,0-.549-.132-.544-.554.021-1.758.009-3.517.009-5.275,0-6.657.009-13.315-.015-19.972,0-.62.14-.795.776-.787,3.366.042,6.732.032,10.1.04.774-.017,1.753-.325,2.262.1.49.411.152,1.416.153,2.158.012,7.834,0,15.668.022,23.5,0,.619-.143.858-.782.788-.546-.059-1.1-.026-1.655-.034-3.441.008-6.883.008-10.324.033m9.661,2.406c1.333,0,2.665,0,4,0,1.075,0,1.5-.429,1.5-1.511,0-4.877.014-9.755-.015-14.632,0-.626.145-.779.774-.776,6.184.034,12.368.032,18.552.04.774.006,1.756-.272,2.263.1.488.357.134,1.4.153,2.143.027,1.078-.013,2.158.017,3.236.012.435-.128.568-.552.542-.625-.038-1.253-.024-1.88-.031-1.131.008-2.262.012-3.393.025-.983.011-1.421.447-1.426,1.432q-.012,2.188,0,4.376c.005.985.445,1.422,1.426,1.434,1.131.013,2.262.017,3.393.025.774.006,1.756-.272,2.263.1.488.357.134,1.4.153,2.143.027,1.078-.013,2.158.017,3.236.012.435-.128.568-.552.542-.625-.038-1.253-.023-1.88-.031q-5.694.012-11.387.023c-4.827,0-9.654-.009-14.481.015-.558,0-.714-.122-.7-.694.033-1.734.005-1.734,1.76-1.734M65.824,32.6h-.676c-.6,0-1.2-.035-1.8.011-.488.037-.569-.153-.571-.594-.008-1.831-.023-1.831,1.8-1.831.826,0,1.655.032,2.479-.012.488-.026.569.154.571.6.009,1.831.024,1.831-1.8,1.831M53.12,43.928c0-.358.1-.474.465-.468q1.956.028,3.914,0c.363-.005.472.11.465.469-.02,1.053-.007,2.107-.007,3.161s-.013,2.108.007,3.161c.007.359-.1.474-.465.469q-1.956-.029-3.914,0c-.363.005-.467-.11-.465-.468q.022-3.161,0-6.322m4.844,28.055c0,.358-.1.474-.465.469q-1.956-.029-3.914,0c-.362.005-.473-.109-.465-.468.021-1.053.007-2.107.007-3.161s.013-2.108-.007-3.161c-.007-.358.1-.474.465-.469q1.956.029,3.914,0c.362-.005.468.11.465.468q-.022,3.161,0,6.322m14.5-.392c0,.677-.153.95-.859.865a15.027,15.027,0,0,0-1.579-.034c-3.041.008-6.083,0-9.124.037-.543.006-.533-.257-.531-.642.009-2.464.006-4.927,0-7.391,0-1.247-.381-1.637-1.6-1.638q-3.281,0-6.562,0c-1.079,0-1.493.423-1.5,1.515,0,2.464-.016,4.928.01,7.391.006.551-.081.775-.717.769-3.569-.035-7.14-.028-10.709,0-.521,0-.672-.123-.671-.66q.026-13.84,0-27.679c0-.534.144-.666.669-.663q5.392.035,10.785,0c.559,0,.648.189.644.688-.024,2.489-.014,4.978-.009,7.466,0,1.09.419,1.515,1.494,1.517q3.318.008,6.637,0c1.117,0,1.525-.421,1.526-1.562q0-3.733,0-7.467c0-.385-.011-.648.532-.642,3.041.035,6.083.029,9.124.037.774-.017,1.753-.325,2.262.1.49.412.152,1.417.153,2.159.011,8.613,0,17.226.023,25.839" transform="translate(0 0)"/><path d="M34.321,191.464c-.58-.008-.694.157-.69.707.027,3.294.016,6.588.012,9.882,0,1.075-.43,1.5-1.513,1.5q-3.281.006-6.563,0c-1.182,0-1.581-.4-1.581-1.582,0-3.269-.016-6.538.014-9.806.005-.562-.129-.7-.7-.7q-5.318.044-10.636,0c-.635-.006-.772.159-.771.779q.031,16.143,0,32.286c0,.628.149.775.775.774q14.974-.033,29.948-.017c.226,0,.451-.015.677-.023V191.5c-2.992-.008-5.984,0-8.975-.039M19.616,208.632c.728-.728,1.449-1.463,2.187-2.181a1.207,1.207,0,0,1,1.961.007c1.058,1.036,2.09,2.1,3.153,3.131.291.282.288.474-.018.711-.5.387-.839,1.267-1.422,1.161-.488-.089-.854-.856-1.273-1.322l-.218.127c0,2.351-.021,4.7.015,7.054.009.588-.142.75-.735.737-1.694-.038-1.695-.01-1.695-1.719v-6.3c-.513.536-.894.917-1.254,1.317-.215.24-.357.227-.6.009-1.5-1.328-1.509-1.32-.1-2.731m17.113,14.24c-5.63,0-11.259-.009-16.889.014-.563,0-.71-.131-.7-.7.032-1.731.005-1.732,1.761-1.732h7.992c2.991,0,5.982.012,8.972-.012.492,0,.624.126.621.619-.008,1.807.012,1.807-1.759,1.807m2.292-12.6c-1.3,1.418-1.29,1.428-2.681.1-.052-.049-.113-.089-.279-.217v1.689c0,1.858-.013,3.716.009,5.574.006.458-.07.645-.6.642-1.826-.01-1.826.015-1.826-1.814v-5.949l-.2-.157c-.286.338-.6.66-.854,1.018-.375.52-.65.377-1.034-.02-1.166-1.207-1.181-1.192-.014-2.358.782-.781,1.555-1.57,2.347-2.339a1.188,1.188,0,0,1,1.906-.017c1.079,1.051,2.13,2.13,3.206,3.184.246.241.273.383.017.663" transform="translate(-9.497 -152.842)" fill="#f8d08a"/><path d="M222.9,215.459c-3.041-.008-6.083,0-9.124-.037-.543-.006-.533.257-.532.642q.013,3.733,0,7.467c0,1.142-.409,1.56-1.526,1.562q-3.318.006-6.637,0c-1.076,0-1.492-.427-1.494-1.517,0-2.489-.014-4.978.01-7.466,0-.5-.085-.692-.644-.688q-5.392.04-10.785,0c-.525,0-.669.129-.669.663q.025,13.84,0,27.68c0,.537.15.663.671.66,3.57-.023,7.14-.03,10.71,0,.636.006.723-.218.717-.769-.026-2.464-.014-4.927-.01-7.391,0-1.091.416-1.512,1.495-1.515q3.281-.008,6.562,0c1.219,0,1.6.392,1.6,1.638,0,2.464,0,4.927,0,7.391,0,.385-.012.648.531.642,3.041-.035,6.083-.028,9.124-.036Z" transform="translate(-152.883 -171.968)" fill="#c08d59"/><path d="M48.568,47.823c-.576,0-.757.125-.752.734.029,4.174.015,8.349.015,12.523,0,4.2.014,8.4-.015,12.6,0,.612.18.736.754.733q5.922-.036,11.844,0c.551,0,.715-.118.713-.7q-.031-12.6,0-25.2c0-.581-.166-.7-.715-.695q-5.922.036-11.844,0" transform="translate(-38.172 -38.176)" fill="#c08d59"/><path d="M160.462,74.362l.006-16.892c-1.83,0-3.659,0-5.488.02-.416.005-.549-.1-.558-.539-.041-1.885-.057-1.886,1.837-1.884q2.105,0,4.21.011V52.641c-1.83,0-3.659,0-5.488.02-.416.005-.549-.1-.558-.539-.041-1.885-.057-1.886,1.837-1.884q2.105,0,4.21.011l-.006-2.4c-3.366-.008-6.732,0-10.1-.04-.636-.008-.778.167-.776.787.024,6.657.015,13.315.015,19.972,0,1.759.012,3.517-.009,5.275-.005.422.109.557.544.554,3.441-.024,6.882-.025,10.324-.033" transform="translate(-119.418 -38.163)" fill="#c08d59"/><path d="M192.191,127.015c4.827-.024,9.654-.01,14.481-.015q5.693,0,11.387-.023,0-3,0-5.99c-1.131-.008-2.262-.012-3.393-.025-.981-.011-1.421-.449-1.426-1.433q-.012-2.188,0-4.376c.005-.986.443-1.421,1.426-1.432,1.131-.013,2.262-.017,3.394-.025q0-2.995,0-5.99c-6.184-.008-12.368-.005-18.552-.039-.629,0-.778.149-.774.776.029,4.877.018,9.754.015,14.632,0,1.082-.426,1.507-1.5,1.511-1.332,0-2.665,0-4,0-1.755,0-1.727,0-1.76,1.734-.011.572.145.7.7.694m8.976-15.551c.009-.921.466-1.357,1.416-1.364,1.132-.009,2.263,0,3.4,0,1.106,0,2.213,0,3.32,0s1.518.417,1.524,1.488c.006,1.106.028,2.214,0,3.319a4.706,4.706,0,0,1-3.072,4.5c-.417.176-.588.35-.553.8.048.623-.2,1.431.111,1.825.33.422,1.174.126,1.791.124.443,0,.527.149.532.558.024,1.871.037,1.871-1.846,1.871-1.609,0-3.219-.016-4.828.01-.449.007-.594-.088-.595-.572,0-1.837-.023-1.861,1.791-1.839.543.006.628-.16.659-.668.07-1.178-.041-2.007-1.388-2.594a4.077,4.077,0,0,1-2.243-3.84c-.044-1.205-.021-2.414-.008-3.621" transform="translate(-152.866 -85.949)" fill="#f8d08a"/><path d="M169.848,191.4c-.505-.373-1.49-.1-2.265-.1a1.272,1.272,0,0,1,.251.992q.009,15.888,0,31.776a1.272,1.272,0,0,1-.251.992,15.394,15.394,0,0,1,1.581.034c.692.082.86-.165.858-.852-.023-10.231-.013-20.462-.023-30.693,0-.742.335-1.79-.151-2.148" transform="translate(-133.783 -152.634)" fill="#ba9c68"/><path d="M167.834,224.431q.009-15.888,0-31.776a1.272,1.272,0,0,0-.251-.992v33.76a1.271,1.271,0,0,0,.251-.992" transform="translate(-133.783 -153.002)" fill="#ba9c68"/><path d="M349.44,215.222c-.509-.428-1.488-.119-2.262-.1a1.27,1.27,0,0,1,.251.992q.009,13.473,0,26.947a1.271,1.271,0,0,1-.251.992,15.085,15.085,0,0,1,1.579.034c.705.086.86-.187.859-.864-.023-8.613-.011-17.226-.023-25.84,0-.742.336-1.747-.153-2.158" transform="translate(-277.156 -171.628)" fill="#906b43"/><path d="M347.429,243.545q.009-13.473,0-26.947a1.271,1.271,0,0,0-.251-.992v28.931a1.27,1.27,0,0,0,.251-.992" transform="translate(-277.156 -172.115)" fill="#906b43"/><path d="M36.588,16.773c1.986-.042,3.974-.016,5.961-.016s3.974-.014,5.961.01c.477.006.661-.108.646-.621-.036-1.206-.029-2.415,0-3.622.01-.447-.1-.609-.583-.607q-6.074.028-12.149,0c-.5,0-.575.2-.567.622.022,1.157.037,2.315,0,3.47-.021.575.119.777.737.763" transform="translate(-28.618 -9.513)" fill="#906b43"/><path d="M127.381,74.395c.562.01.706-.133.7-.7-.027-4.171-.014-8.342-.014-12.513V49.5c0-1.685,0-1.652-1.651-1.7-.627-.017-.781.147-.779.777q.036,12.061.016,24.122c0,1.692,0,1.666,1.727,1.7" transform="translate(-100.299 -38.157)" fill="#a7afbb"/><path d="M203.561,49.927c-.018.014-.036.024-.054.036v2.3c.015.01.031.018.046.029a3.622,3.622,0,0,1,.019,2.446c-.021.018-.043.032-.065.047V57.1a.805.805,0,0,1,.068.05,1.961,1.961,0,0,1,.178,1.1q.006,7.317,0,14.635a1.489,1.489,0,0,1-.251,1.145c.552.008,1.108-.025,1.655.034.64.069.784-.169.782-.788-.021-7.834-.009-15.667-.021-23.5,0-.742.336-1.747-.153-2.158-.509-.428-1.488-.119-2.262-.1a3.072,3.072,0,0,1,.06,2.41" transform="translate(-162.457 -37.834)" fill="#906b43"/><path d="M203.752,111.309q.009-7.317,0-14.635a1.96,1.96,0,0,0-.178-1.1c-.022-.019-.045-.034-.068-.05v.039l-.006,16.892a1.489,1.489,0,0,0,.251-1.145" transform="translate(-162.457 -76.255)" fill="#906b43"/><path d="M203.507,50.406v.044c.018-.012.036-.022.054-.036A3.071,3.071,0,0,0,203.5,48l.006,2.4" transform="translate(-162.457 -38.321)" fill="#906b43"/><path d="M203.6,74.029a3.623,3.623,0,0,0-.019-2.446c-.015-.011-.03-.019-.046-.029v2.522c.022-.016.044-.029.065-.047" transform="translate(-162.481 -57.121)" fill="#906b43"/><path d="M162.133,16.775c3.444-.024,6.887-.024,10.331-.032V11.96c-3.444-.008-6.888-.008-10.331-.032-.454,0-.541.174-.534.576q.03,1.847,0,3.7c-.007.4.08.579.534.576" transform="translate(-129.006 -9.522)" fill="#906b43"/><path d="M88.064,191.5q-1.881.041-3.765,0c-.436-.01-.544.135-.537.552.023,1.43.009,2.861.009,4.292s.016,2.862-.01,4.292c-.008.431.119.553.546.543q1.881-.041,3.765,0c.436.01.54-.136.537-.551q-.025-4.292,0-8.584c0-.43-.119-.552-.546-.543" transform="translate(-66.867 -152.868)" fill="#a7afbb"/><path d="M114.351,16.762c1-.037,2.007-.011,3.01-.011.978,0,1.958-.021,2.935.009.459.014.662-.07.643-.6-.043-1.228-.028-2.458-.005-3.688.007-.4-.076-.567-.527-.562-2.057.024-4.115.028-6.171,0-.5-.007-.573.169-.564.6.026,1.2.041,2.409-.005,3.612-.022.561.186.656.683.638" transform="translate(-90.741 -9.506)" fill="#a7afbb"/><path d="M263.837,222.711q1.956-.029,3.914,0c.363.005.472-.11.465-.469-.021-1.053-.007-2.107-.007-3.161s-.013-2.108.007-3.161c.007-.359-.1-.474-.465-.469q-1.956.028-3.914,0c-.363-.005-.467.11-.465.468q.022,3.161,0,6.322c0,.358.1.474.465.469" transform="translate(-210.253 -171.992)" fill="#a7afbb"/><path d="M267.748,323.2q-1.956.028-3.914,0c-.363-.005-.472.11-.465.469.021,1.053.007,2.107.007,3.161s.013,2.108-.007,3.161c-.007.359.1.473.466.468q1.956-.028,3.914,0c.363.005.467-.111.465-.469q-.022-3.161,0-6.322c0-.359-.1-.473-.465-.468" transform="translate(-210.251 -258.003)" fill="#a7afbb"/><path d="M323.476,112.633a1.087,1.087,0,0,1-.245.845c.627.008,1.255-.007,1.88.031.424.026.564-.108.552-.542-.029-1.078.01-2.158-.017-3.237-.019-.742.336-1.786-.153-2.143-.507-.371-1.489-.093-2.263-.1a1.086,1.086,0,0,1,.245.845q.016,2.15,0,4.3" transform="translate(-258.039 -85.731)" fill="#ba9c68"/><path d="M323.476,113.007q.016-2.15,0-4.3a1.086,1.086,0,0,0-.245-.845v5.99a1.087,1.087,0,0,0,.245-.845" transform="translate(-258.039 -86.105)" fill="#ba9c68"/><path d="M323.476,178.476a1.087,1.087,0,0,1-.245.845c.627.008,1.255-.007,1.88.031.424.026.564-.108.552-.542-.029-1.078.01-2.158-.017-3.237-.019-.742.336-1.786-.153-2.143-.507-.371-1.489-.093-2.263-.1a1.086,1.086,0,0,1,.245.845q.016,2.15,0,4.3" transform="translate(-258.039 -138.292)" fill="#ba9c68"/><path d="M323.476,178.85q.016-2.15,0-4.3a1.086,1.086,0,0,0-.245-.845v5.99a1.087,1.087,0,0,0,.245-.845" transform="translate(-258.039 -138.666)" fill="#ba9c68"/><path d="M215.475,16.757c.628.008,1.257,0,1.884.027.365.014.552-.076.545-.5q-.031-1.923,0-3.846c.007-.42-.181-.51-.545-.5-.628.024-1.256.02-1.884.027a10.81,10.81,0,0,1,0,4.783" transform="translate(-172.016 -9.536)" fill="#6d5032"/><path d="M215.475,12.087V16.87a10.81,10.81,0,0,0,0-4.783" transform="translate(-172.016 -9.649)" fill="#6d5032"/><path d="M315.521,149.576c-.824.044-1.652.012-2.479.012-1.825,0-1.81,0-1.8,1.831,0,.442.082.632.571.594.6-.046,1.2-.011,1.8-.011h.676c1.826,0,1.811,0,1.8-1.831,0-.441-.083-.621-.571-.6" transform="translate(-248.465 -119.403)" fill="#a7afbb"/><path d="M66.539,335.147c-2.991.023-5.981.012-8.972.012H49.575c-1.756,0-1.729,0-1.761,1.732-.011.566.136.7.7.7,5.63-.023,11.259-.014,16.889-.014,1.771,0,1.751,0,1.759-1.807,0-.493-.13-.623-.621-.619" transform="translate(-38.17 -267.543)"/><path d="M46.738,268.694c.359-.4.741-.781,1.254-1.317v6.3c0,1.709,0,1.681,1.695,1.719.593.013.743-.149.735-.737-.036-2.351-.015-4.7-.015-7.054l.218-.127c.42.467.785,1.233,1.273,1.322.583.106.921-.775,1.422-1.161.306-.237.309-.429.018-.711-1.064-1.031-2.095-2.1-3.153-3.131a1.207,1.207,0,0,0-1.961-.007c-.738.717-1.458,1.453-2.187,2.181-1.412,1.411-1.405,1.4.1,2.73.247.219.389.232.6-.008" transform="translate(-35.918 -210.182)"/><path d="M110.131,263.758a1.187,1.187,0,0,0-1.906.017c-.793.769-1.566,1.559-2.347,2.339-1.168,1.167-1.152,1.152.014,2.358.384.4.66.54,1.034.02.258-.359.568-.68.854-1.018l.2.157v5.949c0,1.828,0,1.8,1.826,1.814.527,0,.6-.183.6-.642-.023-1.858-.009-3.716-.009-5.574V267.49c.166.128.227.168.279.217,1.391,1.326,1.38,1.316,2.681-.1.257-.28.23-.422-.017-.663-1.076-1.054-2.127-2.134-3.206-3.184" transform="translate(-83.831 -210.179)"/><path d="M180.557,60.209a1.778,1.778,0,0,1-1.005.161c-1.3.01-2.61-.008-3.914.008-.785.01-.855.1-.856.961s.068.963.842.973c1.3.017,2.61,0,3.915.009a1.832,1.832,0,0,1,1.019.162,2.81,2.81,0,0,1,0-2.274" transform="translate(-139.529 -48.064)"/><path d="M178.514,62.043c-1.3-.009-2.61.009-3.915-.008-.774-.01-.843-.105-.842-.973s.071-.951.856-.961c1.3-.016,2.61,0,3.914-.008a1.778,1.778,0,0,0,1.005-.161c.008-.02.014-.04.023-.059q-2.105-.006-4.21-.011c-1.893,0-1.877,0-1.837,1.884.009.436.142.544.558.539,1.829-.023,3.659-.016,5.488-.02-.009-.019-.015-.039-.023-.059a1.836,1.836,0,0,0-1.019-.162" transform="translate(-138.506 -47.786)"/><path d="M202.466,62.421l.023.015v-2.3l-.023.016a2.811,2.811,0,0,0,0,2.274" transform="translate(-161.439 -48.003)"/><path d="M203.417,71.482c.008.02.014.039.023.059V71.5l-.023-.015" transform="translate(-162.39 -57.063)"/><path d="M203.417,59.974l.023-.016v-.044c-.009.02-.015.04-.023.059" transform="translate(-162.39 -47.829)"/><path d="M180.557,84.137a1.7,1.7,0,0,1-.987.164c-1.3.01-2.6-.006-3.906.008-.808.009-.878.1-.884.93-.006.9.069,1,.886,1,1.3.015,2.6,0,3.906.008a1.685,1.685,0,0,1,.985.166,2.811,2.811,0,0,1,0-2.281" transform="translate(-139.529 -67.165)"/><path d="M178.55,85.986c-1.3-.011-2.6.006-3.906-.008-.817-.009-.892-.107-.886-1,.006-.834.076-.921.884-.929,1.3-.014,2.6,0,3.906-.008a1.7,1.7,0,0,0,.987-.164c.008-.019.014-.038.022-.056q-2.105-.006-4.21-.011c-1.893,0-1.877,0-1.837,1.884.009.436.142.544.558.539,1.829-.023,3.659-.016,5.488-.02-.008-.018-.014-.037-.021-.055a1.683,1.683,0,0,0-.985-.166" transform="translate(-138.506 -66.899)"/><path d="M202.467,86.355l.021.016V84.058l-.022.016a2.812,2.812,0,0,0,0,2.281" transform="translate(-161.439 -67.102)"/><path d="M203.444,83.9v-.04c-.008.019-.014.038-.022.056l.022-.016" transform="translate(-162.394 -66.943)"/><path d="M203.425,95.444c.008.018.013.037.021.055V95.46l-.021-.016" transform="translate(-162.396 -76.192)"/><path d="M241.66,128.534c1.348.587,1.458,1.416,1.388,2.594-.03.508-.116.675-.659.668-1.814-.022-1.794,0-1.791,1.839,0,.483.146.579.595.571,1.609-.027,3.219-.01,4.828-.01,1.883,0,1.87,0,1.846-1.871-.005-.409-.089-.56-.532-.558-.617,0-1.462.3-1.791-.124-.308-.394-.063-1.2-.111-1.825-.034-.45.137-.624.553-.8a4.706,4.706,0,0,0,3.072-4.5c.033-1.106.01-2.213,0-3.319-.005-1.072-.43-1.485-1.524-1.489s-2.213,0-3.32,0c-1.132,0-2.263-.006-3.4,0-.95.007-1.407.443-1.416,1.364-.012,1.207-.036,2.416.008,3.621a4.077,4.077,0,0,0,2.243,3.84m.316-6.288c.467-.381,1.479-.094,2.251-.1.791.009,1.926-.374,2.286.134.457.647.21,1.743.1,2.628a2.332,2.332,0,0,1-3.133,1.874,2.282,2.282,0,0,1-1.653-2.091,1.137,1.137,0,0,1,0-.226c.049-.766-.335-1.819.155-2.219" transform="translate(-191.109 -95.559)"/><path d="M260.412,133.69a4.421,4.421,0,0,1-.763,2.236,2.332,2.332,0,0,0,3.133-1.874c.112-.885.359-1.981-.1-2.628-.359-.508-1.495-.125-2.285-.134,0,.8-.015,1.6.013,2.4" transform="translate(-207.281 -104.703)" fill="#7d838c"/><path d="M251.052,133.74a1.136,1.136,0,0,0,0,.225,2.282,2.282,0,0,0,1.654,2.091.362.362,0,0,1-.015-.291,7.027,7.027,0,0,0,.564-3.646.915.915,0,0,1,.2-.7c-.772.007-1.784-.28-2.251.1-.49.4-.106,1.453-.155,2.219" transform="translate(-200.34 -104.833)" fill="#a7afbb"/><path d="M260.037,132.5a7.028,7.028,0,0,1-.564,3.646.36.36,0,0,0,.015.291,4.423,4.423,0,0,0,.763-2.236c-.028-.8-.011-1.6-.013-2.4a.914.914,0,0,0-.2.7" transform="translate(-207.12 -105.217)" fill="#a7afbb"/></g></g></g></svg>