<svg xmlns="http://www.w3.org/2000/svg" xmlns:xlink="http://www.w3.org/1999/xlink" width="505" height="466.998" viewBox="0 0 505 466.998">
  <defs>
    <clipPath id="clip-path">
      <rect id="Rectángulo_290777" data-name="Rectángulo 290777" width="505" height="405" transform="translate(0 0)" fill="none"/>
    </clipPath>
    <clipPath id="clip-path-2">
      <path id="Trazado_605049" data-name="Trazado 605049" d="M776.131,103.6c-65.456,79.575-75.986,214.735-7.61,279.4,35.6,33.67,81.2,37.444,103.868,39.32,83,6.87,188.943-33.422,229.076-127.229,25.079-58.62,22.133-131.8-11.389-184.222A183.252,183.252,0,0,0,1052.8,68.576c-5.681-4.685-52.405-42.288-118.974-42.961-.6-.006-1.206-.009-1.808-.009-89.886,0-147.517,67.816-155.89,78" transform="translate(-721.91 -25.606)" fill="none"/>
    </clipPath>
    <linearGradient id="linear-gradient" x1="-0.004" y1="0.841" x2="-0.004" y2="0.841" gradientUnits="objectBoundingBox">
      <stop offset="0" stop-color="#dae3fe"/>
      <stop offset="1" stop-color="#e9effd"/>
    </linearGradient>
    <clipPath id="clip-path-4">
      <rect id="Rectángulo_290696" data-name="Rectángulo 290696" width="44.483" height="180.255" fill="none"/>
    </clipPath>
    <clipPath id="clip-path-11">
      <rect id="Rectángulo_290714" data-name="Rectángulo 290714" width="45.981" height="97.399" fill="none"/>
    </clipPath>
    <linearGradient id="linear-gradient-2" x1="-5.851" y1="1.04" x2="-5.848" y2="1.04" gradientUnits="objectBoundingBox">
      <stop offset="0" stop-color="#53d8ff"/>
      <stop offset="1" stop-color="#3840f7"/>
    </linearGradient>
    <clipPath id="clip-path-12">
      <rect id="Rectángulo_290718" data-name="Rectángulo 290718" width="505" height="405" transform="translate(0 0)" fill="#4a2efc"/>
    </clipPath>
    <clipPath id="clip-path-13">
      <path id="Trazado_605050" data-name="Trazado 605050" d="M1666.515,2084.711c0,2.459,32.761,7.819,74.972,7.819s76.033-4.806,76.033-7.266-34.219-4.453-76.43-4.453-74.575,1.44-74.575,3.9" transform="translate(-1666.515 -2080.812)" fill="#05b798"/>
    </clipPath>
    <clipPath id="clip-path-14">
      <path id="Trazado_605051" data-name="Trazado 605051" d="M1456.179,1321.612c0,3.107,40.835,10.588,100.4,10.588s112.579-7.669,112.579-10.775-47.86-5.162-107.426-5.162-105.554,2.243-105.554,5.35" transform="translate(-1456.179 -1316.262)" fill="none"/>
    </clipPath>
    <linearGradient id="linear-gradient-3" x1="-0.989" y1="13.471" x2="-0.989" y2="13.471" gradientUnits="objectBoundingBox">
      <stop offset="0" stop-color="#fe7062"/>
      <stop offset="1" stop-color="#ff928e"/>
    </linearGradient>
    <clipPath id="clip-path-16">
      <path id="Trazado_605053" data-name="Trazado 605053" d="M1658.323,1351.986c-29.3,10.436-177.93,9.656-211.932.14a1.3,1.3,0,0,0-1.6,1.623l25.382,84.944a14.23,14.23,0,0,0,12.021,10.053,611.684,611.684,0,0,0,138.378.093,15.7,15.7,0,0,0,13.3-11.081l25.464-84.813a.781.781,0,0,0-.745-1.007.8.8,0,0,0-.268.047" transform="translate(-1444.735 -1351.939)" fill="none"/>
    </clipPath>
    <linearGradient id="linear-gradient-4" x1="-2.415" y1="1.227" x2="-2.414" y2="1.227" xlink:href="#linear-gradient-3"/>
    <clipPath id="clip-path-17">
      <path id="Trazado_605054" data-name="Trazado 605054" d="M1660.355,2109.173l25.6,85.678a14.55,14.55,0,0,0,11.876,10.216,266.263,266.263,0,0,0,38.254,2.77h.007a268.447,268.447,0,0,0,37.445-2.639,16.068,16.068,0,0,0,13.154-11.287l25.268-84.161a1.543,1.543,0,0,0-1.725-1.968c-43.332,7.161-100.664,7.55-148.566-.111a1.21,1.21,0,0,0-.193-.015,1.179,1.179,0,0,0-1.124,1.518" transform="translate(-1660.304 -2107.655)" fill="#00e7bf"/>
    </clipPath>
    <clipPath id="clip-path-18">
      <path id="Trazado_605055" data-name="Trazado 605055" d="M1244.577,551.8c0,3.625,60.049,6.563,136.335,6.563s136.343-2.938,136.343-6.563-60.058-6.563-136.343-6.563-136.335,2.938-136.335,6.563" transform="translate(-1244.577 -545.234)" fill="#05b798"/>
    </clipPath>
    <clipPath id="clip-path-20">
      <circle id="Elipse_7360" data-name="Elipse 7360" cx="41.136" cy="41.136" r="41.136" fill="none"/>
    </clipPath>
    <linearGradient id="linear-gradient-5" x1="-0.994" y1="3.637" x2="-0.993" y2="3.637" gradientUnits="objectBoundingBox">
      <stop offset="0" stop-color="#e1473d"/>
      <stop offset="1" stop-color="#e9605a"/>
    </linearGradient>
    <clipPath id="clip-path-21">
      <path id="Trazado_605064" data-name="Trazado 605064" d="M923.481,49.221A39.768,39.768,0,1,0,963.249,9.453a39.768,39.768,0,0,0-39.768,39.768" transform="translate(-923.481 -9.453)" fill="none"/>
    </clipPath>
    <linearGradient id="linear-gradient-6" x1="-1.073" y1="3.803" x2="-1.072" y2="3.803" xlink:href="#linear-gradient-3"/>
    <clipPath id="clip-path-23">
      <rect id="Rectángulo_290730" data-name="Rectángulo 290730" width="1.287" height="5.365" fill="none"/>
    </clipPath>
    <clipPath id="clip-path-24">
      <rect id="Rectángulo_290731" data-name="Rectángulo 290731" width="40.169" height="20.944" fill="none"/>
    </clipPath>
    <clipPath id="clip-path-25">
      <rect id="Rectángulo_290732" data-name="Rectángulo 290732" width="67.318" height="67.318" fill="none"/>
    </clipPath>
    <clipPath id="clip-path-26">
      <path id="Trazado_605068" data-name="Trazado 605068" d="M1132.888,144.792c0,5.7,4.62,11.852,10.319,11.852s10.32-6.153,10.32-11.852-4.62-9.743-10.32-9.743-10.319,4.043-10.319,9.743" transform="translate(-1132.888 -135.049)" fill="none"/>
    </clipPath>
    <linearGradient id="linear-gradient-7" x1="-5.392" y1="13.269" x2="-5.387" y2="13.269" xlink:href="#linear-gradient-3"/>
    <clipPath id="clip-path-27">
      <path id="Trazado_605069" data-name="Trazado 605069" d="M1070.438,309.971a6.072,6.072,0,0,0-3.891,7.361l1.044,3.848a6.1,6.1,0,0,0,5.885,4.5h25.192a6.1,6.1,0,0,0,5.808-4.24l1.356-4.237a6.092,6.092,0,0,0-3.68-7.579,42.588,42.588,0,0,0-14.742-2.6,53.679,53.679,0,0,0-16.971,2.942" transform="translate(-1066.331 -307.029)" fill="none"/>
    </clipPath>
    <linearGradient id="linear-gradient-8" x1="-3.955" y1="8.435" x2="-3.951" y2="8.435" xlink:href="#linear-gradient-3"/>
    <clipPath id="clip-path-28">
      <path id="Trazado_605070" data-name="Trazado 605070" d="M1473.151,342.738a41.136,41.136,0,1,0,41.136-41.136,41.136,41.136,0,0,0-41.136,41.136" transform="translate(-1473.151 -301.602)" fill="none"/>
    </clipPath>
    <linearGradient id="linear-gradient-9" x1="-1.692" y1="3.261" x2="-1.69" y2="3.261" xlink:href="#linear-gradient-5"/>
    <clipPath id="clip-path-29">
      <path id="Trazado_605071" data-name="Trazado 605071" d="M1482.6,350.822a39.768,39.768,0,1,0,39.768-39.768,39.768,39.768,0,0,0-39.768,39.768" transform="translate(-1482.604 -311.054)" fill="none"/>
    </clipPath>
    <linearGradient id="linear-gradient-10" x1="-1.807" y1="3.407" x2="-1.806" y2="3.407" xlink:href="#linear-gradient-3"/>
    <clipPath id="clip-path-31">
      <rect id="Rectángulo_290738" data-name="Rectángulo 290738" width="1.288" height="5.364" fill="none"/>
    </clipPath>
    <clipPath id="clip-path-32">
      <rect id="Rectángulo_290739" data-name="Rectángulo 290739" width="40.168" height="20.944" fill="none"/>
    </clipPath>
    <clipPath id="clip-path-34">
      <path id="Trazado_605075" data-name="Trazado 605075" d="M1692.012,446.393c0,5.7,4.62,11.852,10.319,11.852s10.32-6.153,10.32-11.852-4.62-9.743-10.32-9.743-10.319,4.043-10.319,9.743" transform="translate(-1692.012 -436.65)" fill="none"/>
    </clipPath>
    <linearGradient id="linear-gradient-11" x1="-8.127" y1="11.782" x2="-8.122" y2="11.782" xlink:href="#linear-gradient-3"/>
    <clipPath id="clip-path-35">
      <path id="Trazado_605076" data-name="Trazado 605076" d="M1629.56,611.572a6.072,6.072,0,0,0-3.891,7.361l1.044,3.848a6.1,6.1,0,0,0,5.885,4.5h25.192a6.1,6.1,0,0,0,5.808-4.24l1.355-4.237a6.092,6.092,0,0,0-3.68-7.579,42.586,42.586,0,0,0-14.742-2.6,53.686,53.686,0,0,0-16.971,2.942" transform="translate(-1625.455 -608.63)" fill="none"/>
    </clipPath>
    <linearGradient id="linear-gradient-12" x1="-6.024" y1="7.449" x2="-6.02" y2="7.449" xlink:href="#linear-gradient-3"/>
    <clipPath id="clip-path-36">
      <path id="Trazado_605077" data-name="Trazado 605077" d="M2210.32,325.424a41.136,41.136,0,1,0,41.136-41.136,41.136,41.136,0,0,0-41.136,41.136" transform="translate(-2210.32 -284.288)" fill="none"/>
    </clipPath>
    <linearGradient id="linear-gradient-13" x1="-2.611" y1="3.283" x2="-2.61" y2="3.283" xlink:href="#linear-gradient-5"/>
    <clipPath id="clip-path-37">
      <path id="Trazado_605078" data-name="Trazado 605078" d="M2219.773,333.509a39.768,39.768,0,1,0,39.768-39.768,39.768,39.768,0,0,0-39.768,39.768" transform="translate(-2219.773 -293.741)" fill="none"/>
    </clipPath>
    <linearGradient id="linear-gradient-14" x1="-2.775" y1="3.429" x2="-2.774" y2="3.429" xlink:href="#linear-gradient-3"/>
    <clipPath id="clip-path-41">
      <path id="Trazado_605082" data-name="Trazado 605082" d="M2429.18,429.079c0,5.7,4.62,11.852,10.32,11.852s10.319-6.153,10.319-11.852-4.62-9.743-10.319-9.743-10.32,4.043-10.32,9.743" transform="translate(-2429.18 -419.336)" fill="none"/>
    </clipPath>
    <linearGradient id="linear-gradient-15" x1="-11.734" y1="11.867" x2="-11.729" y2="11.867" xlink:href="#linear-gradient-3"/>
    <clipPath id="clip-path-42">
      <path id="Trazado_605083" data-name="Trazado 605083" d="M2366.729,594.259a6.072,6.072,0,0,0-3.891,7.361l1.044,3.848a6.1,6.1,0,0,0,5.885,4.5h25.192a6.1,6.1,0,0,0,5.807-4.24l1.356-4.237a6.092,6.092,0,0,0-3.68-7.579,42.584,42.584,0,0,0-14.742-2.6,53.68,53.68,0,0,0-16.971,2.942" transform="translate(-2362.624 -591.317)" fill="none"/>
    </clipPath>
    <linearGradient id="linear-gradient-16" x1="-8.751" y1="7.506" x2="-8.747" y2="7.506" xlink:href="#linear-gradient-3"/>
    <clipPath id="clip-path-43">
      <path id="Trazado_605084" data-name="Trazado 605084" d="M2761.173,63.876a41.136,41.136,0,1,0,41.136-41.136,41.136,41.136,0,0,0-41.136,41.136" transform="translate(-2761.173 -22.74)" fill="none"/>
    </clipPath>
    <linearGradient id="linear-gradient-17" x1="-3.298" y1="3.609" x2="-3.297" y2="3.609" xlink:href="#linear-gradient-5"/>
    <clipPath id="clip-path-44">
      <path id="Trazado_605085" data-name="Trazado 605085" d="M2770.626,71.962a39.768,39.768,0,1,0,39.768-39.768,39.768,39.768,0,0,0-39.768,39.768" transform="translate(-2770.626 -32.194)" fill="none"/>
    </clipPath>
    <linearGradient id="linear-gradient-18" x1="-3.498" y1="3.773" x2="-3.497" y2="3.773" xlink:href="#linear-gradient-3"/>
    <clipPath id="clip-path-46">
      <rect id="Rectángulo_290753" data-name="Rectángulo 290753" width="1.286" height="5.365" fill="none"/>
    </clipPath>
    <clipPath id="clip-path-49">
      <path id="Trazado_605089" data-name="Trazado 605089" d="M2980.033,167.532c0,5.7,4.62,11.852,10.32,11.852s10.319-6.153,10.319-11.852-4.62-9.743-10.319-9.743-10.32,4.043-10.32,9.743" transform="translate(-2980.033 -157.789)" fill="none"/>
    </clipPath>
    <linearGradient id="linear-gradient-19" x1="-14.429" y1="13.157" x2="-14.424" y2="13.157" xlink:href="#linear-gradient-3"/>
    <clipPath id="clip-path-50">
      <path id="Trazado_605090" data-name="Trazado 605090" d="M2917.582,332.711a6.072,6.072,0,0,0-3.891,7.361l1.044,3.848a6.1,6.1,0,0,0,5.885,4.5h25.192a6.1,6.1,0,0,0,5.808-4.24l1.356-4.237a6.091,6.091,0,0,0-3.68-7.579,42.588,42.588,0,0,0-14.742-2.6,53.682,53.682,0,0,0-16.97,2.942" transform="translate(-2913.476 -329.769)" fill="none"/>
    </clipPath>
    <linearGradient id="linear-gradient-20" x1="-10.789" y1="8.361" x2="-10.785" y2="8.361" xlink:href="#linear-gradient-3"/>
    <clipPath id="clip-path-51">
      <path id="Trazado_605091" data-name="Trazado 605091" d="M336.574,904.775a9.422,9.422,0,0,0-.792,13.811l.626.649a8.76,8.76,0,0,0,12.426.189l94.2-91.98-5.395-5.953Z" transform="translate(-333.143 -821.491)" fill="#4a2efc"/>
    </clipPath>
    <clipPath id="clip-path-53">
      <rect id="Rectángulo_290760" data-name="Rectángulo 290760" width="121.29" height="119.587" fill="none"/>
    </clipPath>
    <clipPath id="clip-path-54">
      <path id="Trazado_605093" data-name="Trazado 605093" d="M908.456,141.5c-10.435-29.482,5.445-62,35.469-72.624s62.823,4.659,73.258,34.141-5.445,62-35.47,72.624a58.529,58.529,0,0,1-19.55,3.377c-23.576,0-45.521-14.39-53.707-37.519m32.216-81.816c-35.194,12.457-53.809,50.57-41.577,85.129s50.678,52.477,85.872,40.02,53.809-50.57,41.577-85.129c-9.595-27.109-35.322-43.978-62.955-43.979a68.577,68.577,0,0,0-22.917,3.959" transform="translate(-895.338 -55.728)" fill="#4a2efc"/>
    </clipPath>
    <clipPath id="clip-path-56">
      <path id="Trazado_605097" data-name="Trazado 605097" d="M690.458,1296.047l1.464,10.979a12.471,12.471,0,0,0-2.928,5.124c-.732,2.928-1.407,15.221-1.407,15.221l-1.389.84-.169.7,4.042,5.435-.67-4.326c-.107-.687.078-2.079.02-2.108,2.2-5.856,6.893-22.351,6.893-22.351v-10.98Z" transform="translate(-686.029 -1294.583)" fill="none"/>
    </clipPath>
    <linearGradient id="linear-gradient-21" x1="-2.06" y1="8.753" x2="-2.056" y2="8.753" gradientUnits="objectBoundingBox">
      <stop offset="0" stop-color="#febbba"/>
      <stop offset="1" stop-color="#ff928e"/>
    </linearGradient>
    <clipPath id="clip-path-57">
      <path id="Trazado_605098" data-name="Trazado 605098" d="M726.755,1230.352l3.66,12.443c-2.508,3.762.409,25.793.346,25.784l0,.049-.955,1.313.116.712,5.834,3.443-2.3-3.728a4.188,4.188,0,0,1-.607-1.951h-.077c-.037,0-.075,0-.113,0,.283-3.53,1.576-19.067,2.87-24.89,1.464-6.588-2.2-19.763-2.2-19.763Z" transform="translate(-726.755 -1223.764)" fill="none"/>
    </clipPath>
    <linearGradient id="linear-gradient-22" x1="-1.662" y1="14.493" x2="-1.659" y2="14.493" xlink:href="#linear-gradient-21"/>
    <clipPath id="clip-path-58">
      <path id="Trazado_605099" data-name="Trazado 605099" d="M684.029,1043.719l1.307-.946s-6.368-6.1,0-13.562l-1.307-7.359s-12.826,14.456,0,21.868" transform="translate(-678.328 -1021.851)" fill="none"/>
    </clipPath>
    <linearGradient id="linear-gradient-23" x1="-6.441" y1="11.766" x2="-6.431" y2="11.766" xlink:href="#linear-gradient-21"/>
    <clipPath id="clip-path-59">
      <path id="Trazado_605100" data-name="Trazado 605100" d="M744.722,1539.195l.55,3.419h.434s-.1-2.752.675-2.7c.575.038,1.777,1.51,2.358,2.264a1.121,1.121,0,0,0,.89.436h1.862a.492.492,0,0,0,.091-.976,2.659,2.659,0,0,0-.757-.02s-2.945-2.073-3.9-2.652a2.861,2.861,0,0,1-1.136-1.887,2.024,2.024,0,0,0-1.062,2.115" transform="translate(-744.696 -1537.079)" fill="none"/>
    </clipPath>
    <linearGradient id="linear-gradient-24" x1="-11.424" y1="21.369" x2="-11.408" y2="21.369" xlink:href="#linear-gradient-2"/>
    <clipPath id="clip-path-60">
      <path id="Trazado_605101" data-name="Trazado 605101" d="M676.176,1524.854l-.819,3.365.4.168s.976-2.575,1.669-2.227c.515.258,1.053,2.081,1.3,3a1.121,1.121,0,0,0,.651.747l1.716.722a.492.492,0,0,0,.463-.864,2.663,2.663,0,0,0-.69-.312s-1.91-3.052-2.57-3.958a2.862,2.862,0,0,1-.316-2.18,2.023,2.023,0,0,0-1.8,1.538" transform="translate(-675.357 -1523.316)" fill="none"/>
    </clipPath>
    <linearGradient id="linear-gradient-25" x1="-12.708" y1="22.092" x2="-12.689" y2="22.092" xlink:href="#linear-gradient-2"/>
    <clipPath id="clip-path-61">
      <path id="Trazado_605102" data-name="Trazado 605102" d="M696.829,1154.4c-.766,4.836,2.377,17.557,2.377,17.557a44.487,44.487,0,0,0,11.732-.526c.307-8.148-1.2-16.664-1.516-20.291a23.568,23.568,0,0,1-.1-4.946l-7.575-.1s-4.153,3.469-4.918,8.305" transform="translate(-696.708 -1146.094)" fill="none"/>
    </clipPath>
    <linearGradient id="linear-gradient-26" x1="-3.07" y1="9.802" x2="-3.065" y2="9.802" gradientUnits="objectBoundingBox">
      <stop offset="0" stop-color="#4f52ff"/>
      <stop offset="1" stop-color="#4042e2"/>
    </linearGradient>
    <clipPath id="clip-path-62">
      <path id="Trazado_605103" data-name="Trazado 605103" d="M731.216,966.276h4.977l-.524-6.16-3.215-3.243Z" transform="translate(-731.216 -956.874)" fill="none"/>
    </clipPath>
    <linearGradient id="linear-gradient-27" x1="-21.26" y1="28.366" x2="-21.231" y2="28.366" xlink:href="#linear-gradient-21"/>
    <clipPath id="clip-path-63">
      <path id="Trazado_605104" data-name="Trazado 605104" d="M711.394,1014.907a1.3,1.3,0,0,0-1.18.959c-1.871,6.972,2.7,17.87,2.7,17.87,5.2,1.524,7.575.1,7.575.1l2.665-9.784a7.659,7.659,0,0,0,.108-3.578l-.664-3.18a3.16,3.16,0,0,0-2.925-2.51c-.754-.041-1.593-.057-2.449-.057-2.235,0-4.587.111-5.829.179" transform="translate(-709.765 -1014.728)" fill="none"/>
    </clipPath>
    <linearGradient id="linear-gradient-28" x1="-3.766" y1="10.59" x2="-3.761" y2="10.59" xlink:href="#linear-gradient-3"/>
    <clipPath id="clip-path-64">
      <path id="Trazado_605105" data-name="Trazado 605105" d="M772.545,1019.176a1.993,1.993,0,0,0-1.815,2.157,30.591,30.591,0,0,0,1.355,6.639,22.8,22.8,0,0,0,1.3,3.279,13.708,13.708,0,0,0,.943,1.669,8,8,0,0,0,1.5,1.73c.187.149.38.3.591.434a4.707,4.707,0,0,0,.77.39c.15.056.3.108.454.153a3.035,3.035,0,0,0,.349.063c.222.032.445.059.667.081.418.024.765-.01,1.148-.023.341-.046.668-.1,1-.159a17.857,17.857,0,0,0,3.417-1.161c.527-.24,1.033-.5,1.539-.758.5-.276.983-.563,1.463-.856a22,22,0,0,0,2.737-2,.757.757,0,0,0-.638-1.313l-.017,0c-2.148.4-4.24.925-6.252,1.3a21.349,21.349,0,0,1-2.87.394l-.613,0c-.157-.026-.668-.108-.652-.11s.1-.016.08-.036a5.194,5.194,0,0,1-.543-.777c-.2-.354-.418-.746-.617-1.171-.392-.854-.759-1.785-1.121-2.734-.711-1.9-1.373-3.921-2.106-5.852l-.026-.07a1.994,1.994,0,0,0-1.861-1.284c-.057,0-.115,0-.173.007" transform="translate(-770.723 -1019.169)" fill="none"/>
    </clipPath>
    <linearGradient id="linear-gradient-29" x1="-4.295" y1="10.814" x2="-4.289" y2="10.814" xlink:href="#linear-gradient-21"/>
    <clipPath id="clip-path-65">
      <path id="Trazado_605106" data-name="Trazado 605106" d="M895.328,1075.96l-.888,2.108c-.047,1.4,3.927.49,4.3-.422a1.714,1.714,0,0,0-.327-1.687c1.963-.354,1.589-1.165,1.589-1.165Z" transform="translate(-894.439 -1074.795)" fill="none"/>
    </clipPath>
    <linearGradient id="linear-gradient-30" x1="-17.111" y1="35.669" x2="-17.092" y2="35.669" xlink:href="#linear-gradient-21"/>
    <clipPath id="clip-path-66">
      <path id="Trazado_605107" data-name="Trazado 605107" d="M738.142,928.117c.971,2.994,4.554,5.313,5.727,3.242s-.227-7.009-.4-7.114a6.043,6.043,0,0,0-2.973-.994c-2.384,0-3.077,2.622-2.35,4.865" transform="translate(-737.867 -923.252)" fill="none"/>
    </clipPath>
    <linearGradient id="linear-gradient-31" x1="-8.645" y1="21.47" x2="-8.633" y2="21.47" xlink:href="#linear-gradient-21"/>
    <clipPath id="clip-path-67">
      <path id="Trazado_605108" data-name="Trazado 605108" d="M594.453,904.055c-5.133.85-3.971,5.839-4.329,7.593-.8,3.937-3.466,2.86-5.352,4.612-1.548,1.438-3.434,1.4-5.471,1.356-1.984-.04-4.112-.08-6.209,1.247-3.069,1.942-4.548,6.912-3.075,10.924,2.04,5.557,9.011,7.842,12.623,6.15,3.452-1.618,2.961-6.462,7.606-8.335,1.972-.795,2.946-.278,4.127-1.456,2.068-2.062,1.51-6.065,1.295-7.607-.466-3.345-1.588-3.951-1.052-5.421,1.043-2.86,5.906-2.27,6.312-4.289.343-1.707-2.671-4.832-5.758-4.832a4.382,4.382,0,0,0-.715.058" transform="translate(-569.441 -903.997)" fill="#4a2efc"/>
    </clipPath>
  </defs>
  <g id="Grupo_874027" data-name="Grupo 874027" transform="translate(-810 -10820.927)">
    <g id="Grupo_870088" data-name="Grupo 870088" transform="translate(810 10820.606)">
      <g id="Grupo_870087" data-name="Grupo 870087" transform="translate(0 0.32)" clip-path="url(#clip-path)">
        <g id="Grupo_869935" data-name="Grupo 869935" transform="translate(104.46 3.437)">
          <g id="Grupo_869934" data-name="Grupo 869934" clip-path="url(#clip-path-2)">
            <rect id="Rectángulo_290694" data-name="Rectángulo 290694" width="587.075" height="585.844" transform="matrix(0.734, -0.68, 0.68, 0.734, -222.969, 186.41)" fill="url(#linear-gradient)"/>
          </g>
        </g>
        <g id="Grupo_869958" data-name="Grupo 869958" transform="translate(0)">
          <g id="Grupo_869957" data-name="Grupo 869957" clip-path="url(#clip-path)">
            <g id="Grupo_869938" data-name="Grupo 869938" transform="translate(95.019 220.37)" opacity="0.53">
              <g id="Grupo_869937" data-name="Grupo 869937">
                <g id="Grupo_869936" data-name="Grupo 869936" clip-path="url(#clip-path-4)">
                  <rect id="Rectángulo_290695" data-name="Rectángulo 290695" width="44.483" height="180.255" transform="translate(0 0)" fill="#fff"/>
                </g>
              </g>
            </g>
            <g id="Grupo_869941" data-name="Grupo 869941" transform="translate(152.73 220.37)" opacity="0.53">
              <g id="Grupo_869940" data-name="Grupo 869940">
                <g id="Grupo_869939" data-name="Grupo 869939" clip-path="url(#clip-path-4)">
                  <rect id="Rectángulo_290697" data-name="Rectángulo 290697" width="44.483" height="180.255" transform="translate(0 0)" fill="#fff"/>
                </g>
              </g>
            </g>
            <g id="Grupo_869944" data-name="Grupo 869944" transform="translate(214.269 220.37)" opacity="0.53">
              <g id="Grupo_869943" data-name="Grupo 869943">
                <g id="Grupo_869942" data-name="Grupo 869942" clip-path="url(#clip-path-4)">
                  <rect id="Rectángulo_290699" data-name="Rectángulo 290699" width="44.483" height="180.255" transform="translate(0 0)" fill="#fff"/>
                </g>
              </g>
            </g>
            <g id="Grupo_869947" data-name="Grupo 869947" transform="translate(275.666 220.37)" opacity="0.53">
              <g id="Grupo_869946" data-name="Grupo 869946">
                <g id="Grupo_869945" data-name="Grupo 869945" clip-path="url(#clip-path-4)">
                  <rect id="Rectángulo_290701" data-name="Rectángulo 290701" width="44.483" height="180.255" transform="translate(0 0)" fill="#fff"/>
                </g>
              </g>
            </g>
            <g id="Grupo_869950" data-name="Grupo 869950" transform="translate(337.064 220.37)" opacity="0.53">
              <g id="Grupo_869949" data-name="Grupo 869949">
                <g id="Grupo_869948" data-name="Grupo 869948" clip-path="url(#clip-path-4)">
                  <rect id="Rectángulo_290703" data-name="Rectángulo 290703" width="44.483" height="180.255" transform="translate(0 0)" fill="#fff"/>
                </g>
              </g>
            </g>
            <g id="Grupo_869953" data-name="Grupo 869953" transform="translate(399.264 220.37)" opacity="0.53">
              <g id="Grupo_869952" data-name="Grupo 869952">
                <g id="Grupo_869951" data-name="Grupo 869951" clip-path="url(#clip-path-4)">
                  <rect id="Rectángulo_290705" data-name="Rectángulo 290705" width="44.483" height="180.255" transform="translate(0 0)" fill="#fff"/>
                </g>
              </g>
            </g>
            <g id="Grupo_869956" data-name="Grupo 869956" transform="translate(460.423 220.37)" opacity="0.53">
              <g id="Grupo_869955" data-name="Grupo 869955">
                <g id="Grupo_869954" data-name="Grupo 869954" clip-path="url(#clip-path-4)">
                  <rect id="Rectángulo_290707" data-name="Rectángulo 290707" width="44.483" height="180.255" transform="translate(0 0)" fill="#fff"/>
                </g>
              </g>
            </g>
            <rect id="Rectángulo_290709" data-name="Rectángulo 290709" width="44.209" height="44.209" transform="translate(95.019 356.416)" fill="#4a2efc" opacity="0.5"/>
            <rect id="Rectángulo_290710" data-name="Rectángulo 290710" width="44.209" height="62.065" transform="translate(152.868 338.56)" fill="#4a2efc" opacity="0.5"/>
            <rect id="Rectángulo_290711" data-name="Rectángulo 290711" width="44.209" height="79.928" transform="translate(214.563 320.824)" fill="#4a2efc" opacity="0.5"/>
          </g>
        </g>
        <g id="Grupo_869960" data-name="Grupo 869960" transform="translate(275.037 303.353)">
          <g id="Grupo_869959" data-name="Grupo 869959" clip-path="url(#clip-path-11)">
            <rect id="Rectángulo_290713" data-name="Rectángulo 290713" width="46.924" height="97.841" transform="matrix(1, -0.01, 0.01, 1, -0.946, 0.009)" fill="url(#linear-gradient-2)"/>
          </g>
        </g>
        <g id="Grupo_869962" data-name="Grupo 869962" transform="translate(0)" opacity="0.5">
          <g id="Grupo_869961" data-name="Grupo 869961" clip-path="url(#clip-path-12)">
            <rect id="Rectángulo_290715" data-name="Rectángulo 290715" width="45.981" height="123.521" transform="translate(336.386 277.232)" fill="#4a2efc"/>
            <rect id="Rectángulo_290716" data-name="Rectángulo 290716" width="45.981" height="152.906" transform="translate(398.515 248.465)" fill="#4a2efc"/>
            <rect id="Rectángulo_290717" data-name="Rectángulo 290717" width="45.981" height="169.579" transform="translate(459.02 231.793)" fill="#4a2efc"/>
          </g>
        </g>
        <g id="Grupo_869964" data-name="Grupo 869964" transform="translate(241.143 300.824)">
          <g id="Grupo_869963" data-name="Grupo 869963" clip-path="url(#clip-path-13)">
            <rect id="Rectángulo_290719" data-name="Rectángulo 290719" width="16.068" height="151.28" transform="matrix(0.029, -1, 1, 0.029, -0.338, 11.709)" fill="#05b798"/>
          </g>
        </g>
        <g id="Grupo_869966" data-name="Grupo 869966" transform="translate(210.708 190.194)">
          <g id="Grupo_869965" data-name="Grupo 869965" clip-path="url(#clip-path-14)">
            <rect id="Rectángulo_290720" data-name="Rectángulo 290720" width="212.98" height="15.938" fill="url(#linear-gradient-3)"/>
          </g>
        </g>
        <g id="Grupo_869968" data-name="Grupo 869968" transform="translate(0)">
          <g id="Grupo_869967" data-name="Grupo 869967" clip-path="url(#clip-path)">
            <path id="Trazado_605052" data-name="Trazado 605052" d="M1467.863,686.24a1484.813,1484.813,0,0,1-191.491-.365,17.77,17.77,0,0,1-15.937-12.857l-23.278-81.439a1.94,1.94,0,0,1,2.054-2.465c88.457,8.507,178.68,8.283,270.564-.016a1.955,1.955,0,0,1,2.057,2.49l-22.33,77.248a24.163,24.163,0,0,1-21.638,17.4" transform="translate(-1058.076 -504.116)" fill="#00e7bf"/>
          </g>
        </g>
        <g id="Grupo_869970" data-name="Grupo 869970" transform="translate(209.052 195.357)">
          <g id="Grupo_869969" data-name="Grupo 869969" clip-path="url(#clip-path-16)">
            <rect id="Rectángulo_290722" data-name="Rectángulo 290722" width="108.495" height="217.883" transform="translate(-3.214 102.103) rotate(-88.332)" fill="url(#linear-gradient-4)"/>
          </g>
        </g>
        <g id="Grupo_869972" data-name="Grupo 869972" transform="translate(240.245 304.708)">
          <g id="Grupo_869971" data-name="Grupo 869971" clip-path="url(#clip-path-17)">
            <rect id="Rectángulo_290723" data-name="Rectángulo 290723" width="169.805" height="182.107" transform="matrix(0.579, -0.816, 0.816, 0.579, -47.487, 66.616)" fill="#00e7bf"/>
          </g>
        </g>
        <g id="Grupo_869974" data-name="Grupo 869974" transform="translate(180.089 78.627)">
          <g id="Grupo_869973" data-name="Grupo 869973" clip-path="url(#clip-path-18)">
            <rect id="Rectángulo_290724" data-name="Rectángulo 290724" width="168.938" height="229.677" transform="translate(-6.203 8.705) rotate(-54.525)" fill="#05b798"/>
          </g>
        </g>
        <g id="Grupo_869976" data-name="Grupo 869976" transform="translate(0)">
          <g id="Grupo_869975" data-name="Grupo 869975" clip-path="url(#clip-path)">
            <path id="Trazado_605056" data-name="Trazado 605056" d="M939.5,1751.469a1.449,1.449,0,0,1-1.449-1.449V1576.829a1.449,1.449,0,0,1,2.9,0V1750.02a1.449,1.449,0,0,1-1.449,1.449" transform="translate(-802.316 -1347.692)" fill="#7d97f4"/>
            <path id="Trazado_605057" data-name="Trazado 605057" d="M668.141,1751.469a1.449,1.449,0,0,1-1.449-1.449V1576.829a1.449,1.449,0,0,1,2.9,0V1750.02a1.449,1.449,0,0,1-1.449,1.449" transform="translate(-570.222 -1347.692)" fill="#7d97f4"/>
            <path id="Trazado_605058" data-name="Trazado 605058" d="M1.449,1752.567a1.45,1.45,0,0,1-1.333-2.017l74.095-174.289a1.449,1.449,0,0,1,2.667,1.134L2.783,1751.684a1.45,1.45,0,0,1-1.334.882" transform="translate(0 -1347.691)" fill="#7d97f4"/>
            <path id="Trazado_605059" data-name="Trazado 605059" d="M317.742,1752.567a1.45,1.45,0,0,1-1.333-2.017L390.5,1576.261a1.449,1.449,0,0,1,2.667,1.134l-74.095,174.289a1.45,1.45,0,0,1-1.334.882" transform="translate(-270.526 -1347.691)" fill="#7d97f4"/>
            <path id="Trazado_605060" data-name="Trazado 605060" d="M550.353,1572.267H482.48a2.042,2.042,0,1,1,0-4.084h67.872a2.042,2.042,0,1,1,0,4.084" transform="translate(-410.919 -1341.536)" fill="#7d97f4"/>
            <path id="Trazado_605061" data-name="Trazado 605061" d="M481.118,1762.454h-45.9a1.449,1.449,0,0,1,0-2.9h45.9a1.449,1.449,0,0,1,0,2.9" transform="translate(-371 -1505.218)" fill="#7d97f4"/>
            <rect id="Rectángulo_290725" data-name="Rectángulo 290725" width="45.903" height="2.898" transform="translate(50.13 287.301)" fill="#7d97f4"/>
            <rect id="Rectángulo_290726" data-name="Rectángulo 290726" width="45.903" height="2.898" transform="translate(36.495 320.263)" fill="#7d97f4"/>
            <path id="Trazado_605062" data-name="Trazado 605062" d="M190.729,2445.855h-45.9a1.449,1.449,0,1,1,0-2.9h45.9a1.449,1.449,0,1,1,0,2.9" transform="translate(-122.63 -2089.731)" fill="#7d97f4"/>
            <path id="Trazado_605063" data-name="Trazado 605063" d="M95.19,2673.66h-45.9a1.449,1.449,0,1,1,0-2.9h45.9a1.449,1.449,0,1,1,0,2.9" transform="translate(-40.916 -2284.573)" fill="#7d97f4"/>
          </g>
        </g>
        <g id="Grupo_869978" data-name="Grupo 869978" transform="translate(132.259 -0.268)">
          <g id="Grupo_869977" data-name="Grupo 869977" clip-path="url(#clip-path-20)">
            <rect id="Rectángulo_290728" data-name="Rectángulo 290728" width="116.03" height="116.03" transform="matrix(0.653, -0.758, 0.758, 0.653, -40.684, 47.222)" fill="url(#linear-gradient-5)"/>
          </g>
        </g>
        <g id="Grupo_869980" data-name="Grupo 869980" transform="translate(133.627 1.1)">
          <g id="Grupo_869979" data-name="Grupo 869979" clip-path="url(#clip-path-21)">
            <rect id="Rectángulo_290729" data-name="Rectángulo 290729" width="110.225" height="110.225" transform="translate(-36.608 55.304) rotate(-56.498)" fill="url(#linear-gradient-6)"/>
          </g>
        </g>
        <g id="Grupo_869991" data-name="Grupo 869991" transform="translate(0)">
          <g id="Grupo_869990" data-name="Grupo 869990" clip-path="url(#clip-path)">
            <g id="Grupo_869983" data-name="Grupo 869983" transform="translate(136.359 33.932)" opacity="0.78">
              <g id="Grupo_869982" data-name="Grupo 869982">
                <g id="Grupo_869981" data-name="Grupo 869981" clip-path="url(#clip-path-23)">
                  <path id="Trazado_605065" data-name="Trazado 605065" d="M942.738,241.719h-.02a.377.377,0,0,1-.356-.4,37.338,37.338,0,0,1,.539-4.659.377.377,0,0,1,.741.134,36.6,36.6,0,0,0-.528,4.564.377.377,0,0,1-.376.357" transform="translate(-942.362 -236.354)" fill="#fff"/>
                </g>
              </g>
            </g>
            <g id="Grupo_869986" data-name="Grupo 869986" transform="translate(140.226 3.781)" opacity="0.78">
              <g id="Grupo_869985" data-name="Grupo 869985">
                <g id="Grupo_869984" data-name="Grupo 869984" clip-path="url(#clip-path-24)">
                  <path id="Trazado_605066" data-name="Trazado 605066" d="M969.464,48.926a.377.377,0,0,1-.336-.546,36.932,36.932,0,0,1,33.129-20.4,37.43,37.43,0,0,1,6.69.6.376.376,0,1,1-.135.741,36.677,36.677,0,0,0-6.555-.59A36.183,36.183,0,0,0,969.8,48.719a.376.376,0,0,1-.336.207" transform="translate(-969.088 -27.982)" fill="#fff"/>
                </g>
              </g>
            </g>
            <g id="Grupo_869989" data-name="Grupo 869989" transform="translate(140.603 8.076)" opacity="0.78">
              <g id="Grupo_869988" data-name="Grupo 869988">
                <g id="Grupo_869987" data-name="Grupo 869987" clip-path="url(#clip-path-25)">
                  <path id="Trazado_605067" data-name="Trazado 605067" d="M1039.008,91.321a33.659,33.659,0,1,1-33.659-33.659,33.659,33.659,0,0,1,33.659,33.659" transform="translate(-971.69 -57.662)" fill="#fff"/>
                </g>
              </g>
            </g>
          </g>
        </g>
        <g id="Grupo_869993" data-name="Grupo 869993" transform="translate(163.928 19.274)">
          <g id="Grupo_869992" data-name="Grupo 869992" clip-path="url(#clip-path-26)">
            <rect id="Rectángulo_290734" data-name="Rectángulo 290734" width="29.575" height="29.355" transform="matrix(0.582, -0.813, 0.813, 0.582, -10.224, 14.269)" fill="url(#linear-gradient-7)"/>
          </g>
        </g>
        <g id="Grupo_869995" data-name="Grupo 869995" transform="translate(154.297 44.159)">
          <g id="Grupo_869994" data-name="Grupo 869994" clip-path="url(#clip-path-27)">
            <rect id="Rectángulo_290735" data-name="Rectángulo 290735" width="39.11" height="44.286" transform="matrix(0.582, -0.813, 0.813, 0.582, -9.456, 12.325)" fill="url(#linear-gradient-8)"/>
          </g>
        </g>
        <g id="Grupo_869997" data-name="Grupo 869997" transform="translate(213.164 43.374)">
          <g id="Grupo_869996" data-name="Grupo 869996" clip-path="url(#clip-path-28)">
            <rect id="Rectángulo_290736" data-name="Rectángulo 290736" width="116.03" height="116.03" transform="translate(-40.683 47.222) rotate(-49.254)" fill="url(#linear-gradient-9)"/>
          </g>
        </g>
        <g id="Grupo_869999" data-name="Grupo 869999" transform="translate(214.532 44.742)">
          <g id="Grupo_869998" data-name="Grupo 869998" clip-path="url(#clip-path-29)">
            <rect id="Rectángulo_290737" data-name="Rectángulo 290737" width="110.225" height="110.225" transform="translate(-36.608 55.304) rotate(-56.498)" fill="url(#linear-gradient-10)"/>
          </g>
        </g>
        <g id="Grupo_870010" data-name="Grupo 870010" transform="translate(0)">
          <g id="Grupo_870009" data-name="Grupo 870009" clip-path="url(#clip-path)">
            <g id="Grupo_870002" data-name="Grupo 870002" transform="translate(217.263 77.575)" opacity="0.78">
              <g id="Grupo_870001" data-name="Grupo 870001">
                <g id="Grupo_870000" data-name="Grupo 870000" clip-path="url(#clip-path-31)">
                  <path id="Trazado_605072" data-name="Trazado 605072" d="M1501.861,543.32h-.02a.377.377,0,0,1-.356-.4,37.349,37.349,0,0,1,.539-4.659.377.377,0,1,1,.741.134,36.537,36.537,0,0,0-.528,4.564.377.377,0,0,1-.376.357" transform="translate(-1501.484 -537.956)" fill="#fff"/>
                </g>
              </g>
            </g>
            <g id="Grupo_870005" data-name="Grupo 870005" transform="translate(221.131 47.422)" opacity="0.78">
              <g id="Grupo_870004" data-name="Grupo 870004">
                <g id="Grupo_870003" data-name="Grupo 870003" clip-path="url(#clip-path-32)">
                  <path id="Trazado_605073" data-name="Trazado 605073" d="M1528.587,350.527a.371.371,0,0,1-.169-.041.376.376,0,0,1-.167-.506,36.932,36.932,0,0,1,33.129-20.4,37.443,37.443,0,0,1,6.69.6.376.376,0,0,1-.135.741,36.68,36.68,0,0,0-6.555-.59,36.183,36.183,0,0,0-32.457,19.984.376.376,0,0,1-.336.207" transform="translate(-1528.21 -329.583)" fill="#fff"/>
                </g>
              </g>
            </g>
            <g id="Grupo_870008" data-name="Grupo 870008" transform="translate(221.507 51.717)" opacity="0.78">
              <g id="Grupo_870007" data-name="Grupo 870007">
                <g id="Grupo_870006" data-name="Grupo 870006" clip-path="url(#clip-path-25)">
                  <path id="Trazado_605074" data-name="Trazado 605074" d="M1598.131,392.922a33.659,33.659,0,1,1-33.659-33.659,33.659,33.659,0,0,1,33.659,33.659" transform="translate(-1530.813 -359.263)" fill="#fff"/>
                </g>
              </g>
            </g>
          </g>
        </g>
        <g id="Grupo_870012" data-name="Grupo 870012" transform="translate(244.833 62.915)">
          <g id="Grupo_870011" data-name="Grupo 870011" clip-path="url(#clip-path-34)">
            <rect id="Rectángulo_290742" data-name="Rectángulo 290742" width="29.575" height="29.355" transform="matrix(0.582, -0.813, 0.813, 0.582, -10.224, 14.269)" fill="url(#linear-gradient-11)"/>
          </g>
        </g>
        <g id="Grupo_870014" data-name="Grupo 870014" transform="translate(235.202 87.801)">
          <g id="Grupo_870013" data-name="Grupo 870013" clip-path="url(#clip-path-35)">
            <rect id="Rectángulo_290743" data-name="Rectángulo 290743" width="39.11" height="44.286" transform="matrix(0.582, -0.813, 0.813, 0.582, -9.456, 12.324)" fill="url(#linear-gradient-12)"/>
          </g>
        </g>
        <g id="Grupo_870016" data-name="Grupo 870016" transform="translate(319.831 40.869)">
          <g id="Grupo_870015" data-name="Grupo 870015" clip-path="url(#clip-path-36)">
            <rect id="Rectángulo_290744" data-name="Rectángulo 290744" width="116.03" height="116.03" transform="translate(-40.684 47.222) rotate(-49.254)" fill="url(#linear-gradient-13)"/>
          </g>
        </g>
        <g id="Grupo_870018" data-name="Grupo 870018" transform="translate(321.199 42.236)">
          <g id="Grupo_870017" data-name="Grupo 870017" clip-path="url(#clip-path-37)">
            <rect id="Rectángulo_290745" data-name="Rectángulo 290745" width="110.225" height="110.225" transform="matrix(0.552, -0.834, 0.834, 0.552, -36.608, 55.304)" fill="url(#linear-gradient-14)"/>
          </g>
        </g>
        <g id="Grupo_870026" data-name="Grupo 870026" transform="translate(0)">
          <g id="Grupo_870025" data-name="Grupo 870025" clip-path="url(#clip-path)">
            <path id="Trazado_605079" data-name="Trazado 605079" d="M2239.03,526.007h-.02a.377.377,0,0,1-.356-.4,37.349,37.349,0,0,1,.539-4.659.376.376,0,1,1,.741.134,36.629,36.629,0,0,0-.528,4.564.376.376,0,0,1-.376.357" transform="translate(-1914.722 -445.574)" fill="#fff"/>
            <g id="Grupo_870021" data-name="Grupo 870021" transform="translate(327.799 44.918)" opacity="0.78">
              <g id="Grupo_870020" data-name="Grupo 870020">
                <g id="Grupo_870019" data-name="Grupo 870019" clip-path="url(#clip-path-32)">
                  <path id="Trazado_605080" data-name="Trazado 605080" d="M2265.756,333.214a.371.371,0,0,1-.169-.041.376.376,0,0,1-.167-.506,36.932,36.932,0,0,1,33.129-20.4,37.437,37.437,0,0,1,6.69.6.376.376,0,0,1-.135.741,36.661,36.661,0,0,0-6.555-.59,36.183,36.183,0,0,0-32.457,19.984.376.376,0,0,1-.336.207" transform="translate(-2265.38 -312.27)" fill="#fff"/>
                </g>
              </g>
            </g>
            <g id="Grupo_870024" data-name="Grupo 870024" transform="translate(328.175 49.212)" opacity="0.78">
              <g id="Grupo_870023" data-name="Grupo 870023">
                <g id="Grupo_870022" data-name="Grupo 870022" clip-path="url(#clip-path-25)">
                  <path id="Trazado_605081" data-name="Trazado 605081" d="M2335.3,375.609a33.659,33.659,0,1,1-33.659-33.659,33.659,33.659,0,0,1,33.659,33.659" transform="translate(-2267.982 -341.95)" fill="#fff"/>
                </g>
              </g>
            </g>
          </g>
        </g>
        <g id="Grupo_870028" data-name="Grupo 870028" transform="translate(351.5 60.41)">
          <g id="Grupo_870027" data-name="Grupo 870027" clip-path="url(#clip-path-41)">
            <rect id="Rectángulo_290749" data-name="Rectángulo 290749" width="29.575" height="29.355" transform="translate(-10.224 14.269) rotate(-54.377)" fill="url(#linear-gradient-15)"/>
          </g>
        </g>
        <g id="Grupo_870030" data-name="Grupo 870030" transform="translate(341.87 85.295)">
          <g id="Grupo_870029" data-name="Grupo 870029" clip-path="url(#clip-path-42)">
            <rect id="Rectángulo_290750" data-name="Rectángulo 290750" width="39.11" height="44.286" transform="matrix(0.582, -0.813, 0.813, 0.582, -9.456, 12.325)" fill="url(#linear-gradient-16)"/>
          </g>
        </g>
        <g id="Grupo_870032" data-name="Grupo 870032" transform="translate(399.539 3.023)">
          <g id="Grupo_870031" data-name="Grupo 870031" clip-path="url(#clip-path-43)">
            <rect id="Rectángulo_290751" data-name="Rectángulo 290751" width="116.03" height="116.03" transform="translate(-40.684 47.222) rotate(-49.254)" fill="url(#linear-gradient-17)"/>
          </g>
        </g>
        <g id="Grupo_870034" data-name="Grupo 870034" transform="translate(400.907 4.391)">
          <g id="Grupo_870033" data-name="Grupo 870033" clip-path="url(#clip-path-44)">
            <rect id="Rectángulo_290752" data-name="Rectángulo 290752" width="110.225" height="110.225" transform="matrix(0.552, -0.834, 0.834, 0.552, -36.608, 55.304)" fill="url(#linear-gradient-18)"/>
          </g>
        </g>
        <g id="Grupo_870045" data-name="Grupo 870045" transform="translate(0)">
          <g id="Grupo_870044" data-name="Grupo 870044" clip-path="url(#clip-path)">
            <g id="Grupo_870037" data-name="Grupo 870037" transform="translate(403.64 37.222)" opacity="0.78">
              <g id="Grupo_870036" data-name="Grupo 870036">
                <g id="Grupo_870035" data-name="Grupo 870035" clip-path="url(#clip-path-46)">
                  <path id="Trazado_605086" data-name="Trazado 605086" d="M2789.883,264.46h-.02a.377.377,0,0,1-.356-.4,37.3,37.3,0,0,1,.539-4.659.377.377,0,0,1,.741.134,36.624,36.624,0,0,0-.528,4.564.377.377,0,0,1-.376.357" transform="translate(-2789.507 -259.095)" fill="#fff"/>
                </g>
              </g>
            </g>
            <g id="Grupo_870040" data-name="Grupo 870040" transform="translate(407.506 7.071)" opacity="0.78">
              <g id="Grupo_870039" data-name="Grupo 870039">
                <g id="Grupo_870038" data-name="Grupo 870038" clip-path="url(#clip-path-32)">
                  <path id="Trazado_605087" data-name="Trazado 605087" d="M2816.609,71.667a.372.372,0,0,1-.169-.041.376.376,0,0,1-.167-.506,36.932,36.932,0,0,1,33.129-20.4,37.431,37.431,0,0,1,6.69.6.376.376,0,1,1-.135.741,36.673,36.673,0,0,0-6.555-.59,36.183,36.183,0,0,0-32.457,19.984.376.376,0,0,1-.336.207" transform="translate(-2816.232 -50.723)" fill="#fff"/>
                </g>
              </g>
            </g>
            <g id="Grupo_870043" data-name="Grupo 870043" transform="translate(407.882 11.366)" opacity="0.78">
              <g id="Grupo_870042" data-name="Grupo 870042">
                <g id="Grupo_870041" data-name="Grupo 870041" clip-path="url(#clip-path-25)">
                  <path id="Trazado_605088" data-name="Trazado 605088" d="M2886.153,114.062A33.659,33.659,0,1,1,2852.494,80.4a33.659,33.659,0,0,1,33.659,33.659" transform="translate(-2818.834 -80.403)" fill="#fff"/>
                </g>
              </g>
            </g>
          </g>
        </g>
        <g id="Grupo_870047" data-name="Grupo 870047" transform="translate(431.208 22.564)">
          <g id="Grupo_870046" data-name="Grupo 870046" clip-path="url(#clip-path-49)">
            <rect id="Rectángulo_290757" data-name="Rectángulo 290757" width="29.575" height="29.355" transform="matrix(0.582, -0.813, 0.813, 0.582, -10.224, 14.269)" fill="url(#linear-gradient-19)"/>
          </g>
        </g>
        <g id="Grupo_870049" data-name="Grupo 870049" transform="translate(421.577 47.45)">
          <g id="Grupo_870048" data-name="Grupo 870048" clip-path="url(#clip-path-50)">
            <rect id="Rectángulo_290758" data-name="Rectángulo 290758" width="39.11" height="44.286" transform="matrix(0.582, -0.813, 0.813, 0.582, -9.456, 12.325)" fill="url(#linear-gradient-20)"/>
          </g>
        </g>
        <g id="Grupo_870051" data-name="Grupo 870051" transform="translate(48.206 118.601)">
          <g id="Grupo_870050" data-name="Grupo 870050" clip-path="url(#clip-path-51)">
            <rect id="Rectángulo_290759" data-name="Rectángulo 290759" width="148.56" height="145.826" transform="translate(-47.841 30.943) rotate(-33.546)" fill="#4a2efc"/>
          </g>
        </g>
        <g id="Grupo_870056" data-name="Grupo 870056" transform="translate(0)">
          <g id="Grupo_870055" data-name="Grupo 870055" clip-path="url(#clip-path)">
            <g id="Grupo_870054" data-name="Grupo 870054" transform="translate(136.391 14.536)" opacity="0.5">
              <g id="Grupo_870053" data-name="Grupo 870053">
                <g id="Grupo_870052" data-name="Grupo 870052" clip-path="url(#clip-path-53)">
                  <path id="Trazado_605092" data-name="Trazado 605092" d="M1060.5,141.835c10.992,31.058-5.736,65.31-37.365,76.5s-66.18-4.908-77.172-35.966,5.736-65.31,37.365-76.5,66.18,4.908,77.172,35.966" transform="translate(-942.584 -102.311)" fill="#fff"/>
                </g>
              </g>
            </g>
          </g>
        </g>
        <g id="Grupo_870058" data-name="Grupo 870058" transform="translate(129.555 7.796)">
          <g id="Grupo_870057" data-name="Grupo 870057" clip-path="url(#clip-path-54)">
            <rect id="Rectángulo_290762" data-name="Rectángulo 290762" width="204.538" height="206.552" transform="matrix(0.603, -0.798, 0.798, 0.603, -76.575, 90.082)" fill="#4a2efc"/>
          </g>
        </g>
        <g id="Grupo_870060" data-name="Grupo 870060" transform="translate(0)">
          <g id="Grupo_870059" data-name="Grupo 870059" clip-path="url(#clip-path)">
            <path id="Trazado_605094" data-name="Trazado 605094" d="M932.544,176.306a.239.239,0,0,1-.214-.131c-.712-1.411-1.377-2.868-1.977-4.331a.239.239,0,1,1,.442-.182c.6,1.451,1.256,2.9,1.962,4.3a.239.239,0,0,1-.213.347m-5.756-17.652a.239.239,0,0,1-.236-.2,60.909,60.909,0,0,1-.724-12.937,62.236,62.236,0,0,1,12.244-33.95,64.2,64.2,0,0,1,65.277-24.341.239.239,0,0,1-.1.467,63.721,63.721,0,0,0-64.789,24.159,61.763,61.763,0,0,0-12.15,33.69,60.442,60.442,0,0,0,.718,12.835.239.239,0,0,1-.2.274.213.213,0,0,1-.039,0" transform="translate(-791.794 -73.574)" fill="#91b3fa"/>
            <path id="Trazado_605095" data-name="Trazado 605095" d="M360.618,1362.6c-3.917,0-6.455-1.37-7.545-4.073a7.1,7.1,0,0,1,2.088-8l12.007-10.362a.239.239,0,1,1,.312.362l-12.007,10.362a6.628,6.628,0,0,0-1.957,7.458c1.01,2.5,3.4,3.774,7.1,3.774h.122a.239.239,0,0,1,0,.478h-.124" transform="translate(-301.569 -1146.466)" fill="#91b3fa"/>
            <path id="Trazado_605096" data-name="Trazado 605096" d="M478.576,1310.586a.239.239,0,0,1-.156-.42l1.556-1.343a.239.239,0,1,1,.312.362l-1.556,1.343a.239.239,0,0,1-.156.058" transform="translate(-409.122 -1119.656)" fill="#91b3fa"/>
          </g>
        </g>
        <g id="Grupo_870062" data-name="Grupo 870062" transform="translate(99.268 187.057)">
          <g id="Grupo_870061" data-name="Grupo 870061" clip-path="url(#clip-path-56)">
            <rect id="Rectángulo_290764" data-name="Rectángulo 290764" width="40.791" height="23.985" transform="translate(-13.421 34.551) rotate(-68.772)" fill="url(#linear-gradient-21)"/>
          </g>
        </g>
        <g id="Grupo_870064" data-name="Grupo 870064" transform="translate(105.161 176.81)">
          <g id="Grupo_870063" data-name="Grupo 870063" clip-path="url(#clip-path-57)">
            <rect id="Rectángulo_290765" data-name="Rectángulo 290765" width="51.022" height="14.501" transform="translate(-4.275 49.966) rotate(-85.11)" fill="url(#linear-gradient-22)"/>
          </g>
        </g>
        <g id="Grupo_870066" data-name="Grupo 870066" transform="translate(98.153 147.593)">
          <g id="Grupo_870065" data-name="Grupo 870065" clip-path="url(#clip-path-58)">
            <rect id="Rectángulo_290766" data-name="Rectángulo 290766" width="14.133" height="21.868" transform="translate(-7.126 0)" fill="url(#linear-gradient-23)"/>
          </g>
        </g>
        <g id="Grupo_870068" data-name="Grupo 870068" transform="translate(107.757 222.146)">
          <g id="Grupo_870067" data-name="Grupo 870067" clip-path="url(#clip-path-59)">
            <rect id="Rectángulo_290767" data-name="Rectángulo 290767" width="9.346" height="8.624" transform="translate(-2.537 1.432) rotate(-30.579)" fill="url(#linear-gradient-24)"/>
          </g>
        </g>
        <g id="Grupo_870070" data-name="Grupo 870070" transform="translate(97.724 220.155)">
          <g id="Grupo_870069" data-name="Grupo 870069" clip-path="url(#clip-path-60)">
            <rect id="Rectángulo_290768" data-name="Rectángulo 290768" width="7.652" height="8.381" transform="translate(-1.01 0.138) rotate(-7.763)" fill="url(#linear-gradient-25)"/>
          </g>
        </g>
        <g id="Grupo_870072" data-name="Grupo 870072" transform="translate(100.813 165.571)">
          <g id="Grupo_870071" data-name="Grupo 870071" clip-path="url(#clip-path-61)">
            <rect id="Rectángulo_290769" data-name="Rectángulo 290769" width="30.184" height="24.312" transform="translate(-10.164 22.267) rotate(-66.854)" fill="url(#linear-gradient-26)"/>
          </g>
        </g>
        <g id="Grupo_870074" data-name="Grupo 870074" transform="translate(105.806 138.191)">
          <g id="Grupo_870073" data-name="Grupo 870073" clip-path="url(#clip-path-62)">
            <rect id="Rectángulo_290770" data-name="Rectángulo 290770" width="4.977" height="9.402" fill="url(#linear-gradient-27)"/>
          </g>
        </g>
        <g id="Grupo_870076" data-name="Grupo 870076" transform="translate(102.702 146.563)">
          <g id="Grupo_870075" data-name="Grupo 870075" clip-path="url(#clip-path-63)">
            <rect id="Rectángulo_290771" data-name="Rectángulo 290771" width="25.517" height="24.584" transform="translate(-11.377 12.772) rotate(-52.064)" fill="url(#linear-gradient-28)"/>
          </g>
        </g>
        <g id="Grupo_870078" data-name="Grupo 870078" transform="translate(111.523 147.205)">
          <g id="Grupo_870077" data-name="Grupo 870077" clip-path="url(#clip-path-64)">
            <rect id="Rectángulo_290772" data-name="Rectángulo 290772" width="25.284" height="24.177" transform="translate(-7.259 4.108) rotate(-29.808)" fill="url(#linear-gradient-29)"/>
          </g>
        </g>
        <g id="Grupo_870080" data-name="Grupo 870080" transform="translate(129.425 155.254)">
          <g id="Grupo_870079" data-name="Grupo 870079" clip-path="url(#clip-path-65)">
            <rect id="Rectángulo_290773" data-name="Rectángulo 290773" width="7.516" height="7.032" transform="translate(-2.063 1.155) rotate(-29.808)" fill="url(#linear-gradient-30)"/>
          </g>
        </g>
        <g id="Grupo_870082" data-name="Grupo 870082" transform="translate(106.769 133.326)">
          <g id="Grupo_870081" data-name="Grupo 870081" clip-path="url(#clip-path-66)">
            <rect id="Rectángulo_290774" data-name="Rectángulo 290774" width="12.042" height="12.708" transform="matrix(0.825, -0.564, 0.564, 0.825, -5.195, 3.243)" fill="url(#linear-gradient-31)"/>
          </g>
        </g>
        <g id="Grupo_870084" data-name="Grupo 870084" transform="translate(82.398 130.54)">
          <g id="Grupo_870083" data-name="Grupo 870083" clip-path="url(#clip-path-67)">
            <rect id="Rectángulo_290775" data-name="Rectángulo 290775" width="32.726" height="33.632" transform="translate(-0.898 0)" fill="#4a2efc"/>
          </g>
        </g>
        <g id="Grupo_870086" data-name="Grupo 870086" transform="translate(0)">
          <g id="Grupo_870085" data-name="Grupo 870085" clip-path="url(#clip-path)">
            <path id="Trazado_605109" data-name="Trazado 605109" d="M581.226,1017.626a.134.134,0,0,1-.131-.1c-.657-2.728-.359-4.965.887-6.65,2.067-2.8,6.084-3.072,6.125-3.075a.136.136,0,0,1,.142.126.134.134,0,0,1-.126.142c-.039,0-3.935.273-5.926,2.968-1.2,1.617-1.478,3.779-.84,6.426a.135.135,0,0,1-.1.162.148.148,0,0,1-.032,0" transform="translate(-496.721 -862.237)" fill="#91b3fa"/>
            <path id="Trazado_605110" data-name="Trazado 605110" d="M674.537,1004.239l-.017,0a.068.068,0,0,1-.048-.082c.64-2.456,1.764-4.161,3.338-5.07a6.6,6.6,0,0,1,3.165-.777,3.558,3.558,0,0,0,2.335-.662c1.311-1.166,1.235-3.969-.226-8.333a.067.067,0,0,1,.128-.043c1.48,4.419,1.543,7.27.187,8.475a3.654,3.654,0,0,1-2.417.7,6.491,6.491,0,0,0-3.105.759c-1.542.889-2.644,2.568-3.275,4.987a.067.067,0,0,1-.065.05" transform="translate(-576.874 -846.352)" fill="#91b3fa"/>
            <path id="Trazado_605111" data-name="Trazado 605111" d="M725.118,929.443a.071.071,0,0,1-.022,0,.067.067,0,0,1-.042-.085c.509-1.514,1.975-1.289,3.528-1.05a6.826,6.826,0,0,0,2.862.052c.643-.191,1.026-.486,1.136-.879.189-.668-.472-1.413-.479-1.42a.067.067,0,0,1,.1-.09,1.924,1.924,0,0,1,.509,1.546c-.124.44-.537.766-1.227.971a6.917,6.917,0,0,1-2.92-.047c-1.559-.239-2.907-.447-3.38.96a.067.067,0,0,1-.064.046" transform="translate(-620.137 -792.229)" fill="#91b3fa"/>
          </g>
        </g>
      </g>
    </g>
    <path id="Trazado_609219" data-name="Trazado 609219" d="M12.751,14.658V19H9.667V6.2h5.106a5.948,5.948,0,0,1,2.6.541,4.074,4.074,0,0,1,1.749,1.538,4.2,4.2,0,0,1,.62,2.263,3.7,3.7,0,0,1-1.34,2.993,5.561,5.561,0,0,1-3.678,1.121Zm0-2.382h2.021a1.906,1.906,0,0,0,1.367-.448,1.665,1.665,0,0,0,.47-1.266,2.059,2.059,0,0,0-.483-1.433,1.712,1.712,0,0,0-1.318-.545H12.751ZM27,12.171l-.976-.07a1.752,1.752,0,0,0-1.793.879V19H21.268V9.49h2.777l.1,1.222a2.294,2.294,0,0,1,2.083-1.4,2.888,2.888,0,0,1,.826.105Zm5.669,7a4.889,4.889,0,0,1-3.542-1.305,4.507,4.507,0,0,1-1.354-3.4v-.246a5.84,5.84,0,0,1,.541-2.575A3.955,3.955,0,0,1,29.89,9.925a4.763,4.763,0,0,1,2.461-.611,4.117,4.117,0,0,1,3.164,1.244,4.887,4.887,0,0,1,1.16,3.467v1.151H30.787a2.135,2.135,0,0,0,.694,1.257,2.066,2.066,0,0,0,1.389.457,2.662,2.662,0,0,0,2.2-.984l1.354,1.6a3.784,3.784,0,0,1-1.569,1.217A5.3,5.3,0,0,1,32.667,19.176ZM32.333,11.6q-1.3,0-1.547,1.723h2.988v-.229a1.467,1.467,0,0,0-.36-1.1A1.434,1.434,0,0,0,32.333,11.6Zm10.512,4.729a.684.684,0,0,0-.4-.606,6.016,6.016,0,0,0-1.5-.475,6.853,6.853,0,0,1-1.828-.646,3.062,3.062,0,0,1-1.1-.971,2.319,2.319,0,0,1-.378-1.31,2.628,2.628,0,0,1,1.081-2.158,4.453,4.453,0,0,1,2.83-.848,4.934,4.934,0,0,1,3.023.853,2.666,2.666,0,0,1,1.143,2.241H42.749q0-1.143-1.2-1.143a1.194,1.194,0,0,0-.782.259.8.8,0,0,0-.316.646.737.737,0,0,0,.387.642,3.654,3.654,0,0,0,1.235.4,10.671,10.671,0,0,1,1.49.378A2.706,2.706,0,0,1,45.7,16.24a2.491,2.491,0,0,1-1.156,2.118,5.068,5.068,0,0,1-2.993.817,5.172,5.172,0,0,1-2.18-.439,3.645,3.645,0,0,1-1.494-1.2,2.707,2.707,0,0,1-.536-1.591h2.769a1.145,1.145,0,0,0,.439.962,1.808,1.808,0,0,0,1.081.3,1.422,1.422,0,0,0,.91-.246A.787.787,0,0,0,42.845,16.328Zm8.842,2.848a4.889,4.889,0,0,1-3.542-1.305,4.507,4.507,0,0,1-1.354-3.4v-.246a5.84,5.84,0,0,1,.541-2.575A3.955,3.955,0,0,1,48.91,9.925a4.763,4.763,0,0,1,2.461-.611,4.117,4.117,0,0,1,3.164,1.244,4.887,4.887,0,0,1,1.16,3.467v1.151H49.806a2.135,2.135,0,0,0,.694,1.257,2.066,2.066,0,0,0,1.389.457,2.662,2.662,0,0,0,2.2-.984l1.354,1.6a3.784,3.784,0,0,1-1.569,1.217A5.3,5.3,0,0,1,51.687,19.176ZM51.353,11.6q-1.3,0-1.547,1.723h2.988v-.229a1.467,1.467,0,0,0-.36-1.1A1.434,1.434,0,0,0,51.353,11.6ZM59.606,9.49l.1,1.116a3.225,3.225,0,0,1,2.716-1.292,2.713,2.713,0,0,1,2.219.888,4.226,4.226,0,0,1,.76,2.672V19H62.427V13a1.6,1.6,0,0,0-.29-1.059,1.342,1.342,0,0,0-1.055-.338,1.413,1.413,0,0,0-1.292.686V19H56.829V9.49ZM70.487,7.126V9.49h1.564v2.057H70.487V15.9a1.111,1.111,0,0,0,.193.747,1.037,1.037,0,0,0,.765.211,4.345,4.345,0,0,0,.738-.053v2.118a5.466,5.466,0,0,1-1.67.255,3.1,3.1,0,0,1-2.259-.721,2.954,2.954,0,0,1-.729-2.188v-4.72H66.312V9.49h1.213V7.126ZM78.573,19a3.344,3.344,0,0,1-.281-.853,2.754,2.754,0,0,1-2.285,1.028,3.374,3.374,0,0,1-2.285-.813,2.588,2.588,0,0,1-.94-2.043,2.66,2.66,0,0,1,1.143-2.338,5.821,5.821,0,0,1,3.322-.791h.914v-.5q0-1.316-1.134-1.316a.927.927,0,0,0-1.055,1.042H73.009a2.655,2.655,0,0,1,1.173-2.239,4.931,4.931,0,0,1,2.993-.86,4.323,4.323,0,0,1,2.874.888,3.086,3.086,0,0,1,1.081,2.435v4.21a4.311,4.311,0,0,0,.4,2V19Zm-1.854-1.934a1.652,1.652,0,0,0,.918-.237,1.487,1.487,0,0,0,.523-.536V14.772H77.3q-1.547,0-1.547,1.389a.848.848,0,0,0,.272.655A.986.986,0,0,0,76.718,17.066Zm10.072-.176a1.317,1.317,0,0,0,.967-.338,1.241,1.241,0,0,0,.334-.945h2.777a3.288,3.288,0,0,1-1.121,2.566,4.168,4.168,0,0,1-2.887,1,4.22,4.22,0,0,1-3.27-1.3,5.125,5.125,0,0,1-1.2-3.6v-.123a5.792,5.792,0,0,1,.532-2.544,3.872,3.872,0,0,1,1.534-1.7,4.573,4.573,0,0,1,2.373-.593,4.116,4.116,0,0,1,2.944,1.028,3.647,3.647,0,0,1,1.09,2.786H88.091A1.626,1.626,0,0,0,87.731,12a1.244,1.244,0,0,0-.967-.4q-1.151,0-1.345,1.468a10.357,10.357,0,0,0-.062,1.283,4.068,4.068,0,0,0,.343,1.986A1.187,1.187,0,0,0,86.791,16.891ZM95.246,19H92.275V9.49h2.971ZM92.1,7.038A1.322,1.322,0,0,1,92.556,6a1.943,1.943,0,0,1,2.373,0,1.322,1.322,0,0,1,.457,1.037,1.322,1.322,0,0,1-.457,1.037,1.943,1.943,0,0,1-2.373,0A1.322,1.322,0,0,1,92.1,7.038Zm4.6,7.119a5.613,5.613,0,0,1,.554-2.536A3.96,3.96,0,0,1,98.84,9.912a4.791,4.791,0,0,1,2.435-.6,4.373,4.373,0,0,1,3.366,1.323,5.076,5.076,0,0,1,1.23,3.6v.105a4.925,4.925,0,0,1-1.235,3.529,4.384,4.384,0,0,1-3.344,1.305,4.434,4.434,0,0,1-3.261-1.217,4.761,4.761,0,0,1-1.327-3.3Zm2.962.185a3.538,3.538,0,0,0,.413,1.934,1.376,1.376,0,0,0,1.222.615q1.582,0,1.617-2.435v-.3q0-2.558-1.635-2.558-1.485,0-1.608,2.206ZM101.679,5.5h3.129l-2.443,2.76-2.417,0ZM109.9,9.49l.1,1.116a3.225,3.225,0,0,1,2.716-1.292,2.713,2.713,0,0,1,2.219.888,4.226,4.226,0,0,1,.76,2.672V19h-2.971V13a1.6,1.6,0,0,0-.29-1.059,1.342,1.342,0,0,0-1.055-.338,1.413,1.413,0,0,0-1.292.686V19H107.12V9.49Zm16.515,9.686a4.889,4.889,0,0,1-3.542-1.305,4.507,4.507,0,0,1-1.354-3.4v-.246a5.84,5.84,0,0,1,.541-2.575,3.955,3.955,0,0,1,1.578-1.727,4.763,4.763,0,0,1,2.461-.611,4.117,4.117,0,0,1,3.164,1.244,4.887,4.887,0,0,1,1.16,3.467v1.151h-5.889a2.135,2.135,0,0,0,.694,1.257,2.066,2.066,0,0,0,1.389.457,2.662,2.662,0,0,0,2.2-.984l1.354,1.6a3.784,3.784,0,0,1-1.569,1.217A5.3,5.3,0,0,1,126.412,19.176Zm-.334-7.576q-1.3,0-1.547,1.723h2.988v-.229a1.467,1.467,0,0,0-.36-1.1A1.434,1.434,0,0,0,126.078,11.6Zm6.188,7.4V11.547h-1.38V9.49h1.38V8.734a3.286,3.286,0,0,1,.958-2.522,3.785,3.785,0,0,1,2.689-.9A5.89,5.89,0,0,1,137.3,5.5l.009,2.18a2.706,2.706,0,0,0-.729-.079q-1.345,0-1.345,1.16V9.49h1.854v2.057h-1.854V19Zm10.468.176a4.889,4.889,0,0,1-3.542-1.305,4.507,4.507,0,0,1-1.354-3.4v-.246a5.84,5.84,0,0,1,.541-2.575,3.955,3.955,0,0,1,1.578-1.727,4.763,4.763,0,0,1,2.461-.611,4.117,4.117,0,0,1,3.164,1.244,4.887,4.887,0,0,1,1.16,3.467v1.151h-5.889a2.135,2.135,0,0,0,.694,1.257,2.066,2.066,0,0,0,1.389.457,2.662,2.662,0,0,0,2.2-.984l1.354,1.6a3.784,3.784,0,0,1-1.569,1.217A5.3,5.3,0,0,1,142.733,19.176ZM142.4,11.6q-1.3,0-1.547,1.723h2.988v-.229a1.467,1.467,0,0,0-.36-1.1A1.434,1.434,0,0,0,142.4,11.6Zm9.554,5.291a1.317,1.317,0,0,0,.967-.338,1.241,1.241,0,0,0,.334-.945h2.777a3.288,3.288,0,0,1-1.121,2.566,4.168,4.168,0,0,1-2.887,1,4.22,4.22,0,0,1-3.27-1.3,5.125,5.125,0,0,1-1.2-3.6v-.123a5.792,5.792,0,0,1,.532-2.544,3.872,3.872,0,0,1,1.534-1.7A4.573,4.573,0,0,1,152,9.314a4.116,4.116,0,0,1,2.944,1.028,3.647,3.647,0,0,1,1.09,2.786h-2.777a1.626,1.626,0,0,0-.36-1.134,1.244,1.244,0,0,0-.967-.4q-1.151,0-1.345,1.468a10.357,10.357,0,0,0-.062,1.283,4.068,4.068,0,0,0,.343,1.986A1.187,1.187,0,0,0,151.953,16.891Zm8.78-9.765V9.49H162.3v2.057h-1.564V15.9a1.111,1.111,0,0,0,.193.747,1.037,1.037,0,0,0,.765.211,4.345,4.345,0,0,0,.738-.053v2.118a5.466,5.466,0,0,1-1.67.255,3.1,3.1,0,0,1-2.259-.721,2.954,2.954,0,0,1-.729-2.188v-4.72h-1.213V9.49h1.213V7.126ZM166.586,19h-2.971V9.49h2.971ZM163.44,7.038A1.322,1.322,0,0,1,163.9,6a1.943,1.943,0,0,1,2.373,0,1.322,1.322,0,0,1,.457,1.037,1.322,1.322,0,0,1-.457,1.037,1.943,1.943,0,0,1-2.373,0A1.322,1.322,0,0,1,163.44,7.038Zm8.763,8.438,1.5-5.985h3.12l-3.1,9.51H170.7l-3.1-9.51h3.129ZM182.934,19a3.344,3.344,0,0,1-.281-.853,2.754,2.754,0,0,1-2.285,1.028,3.374,3.374,0,0,1-2.285-.813,2.588,2.588,0,0,1-.94-2.043,2.66,2.66,0,0,1,1.143-2.338,5.821,5.821,0,0,1,3.322-.791h.914v-.5q0-1.316-1.134-1.316a.927.927,0,0,0-1.055,1.042h-2.962a2.655,2.655,0,0,1,1.173-2.239,4.931,4.931,0,0,1,2.993-.86,4.323,4.323,0,0,1,2.874.888,3.086,3.086,0,0,1,1.081,2.435v4.21a4.311,4.311,0,0,0,.4,2V19Zm-1.854-1.934a1.652,1.652,0,0,0,.918-.237,1.487,1.487,0,0,0,.523-.536V14.772h-.861q-1.547,0-1.547,1.389a.848.848,0,0,0,.272.655A.986.986,0,0,0,181.08,17.066Z" transform="translate(1029 10962.749)" fill="#12263f"/>
    <path id="Trazado_609218" data-name="Trazado 609218" d="M47.648,12.865a7.546,7.546,0,0,1-.694,3.313A5.132,5.132,0,0,1,44.98,18.4a5.494,5.494,0,0,1-2.914.778,5.572,5.572,0,0,1-2.9-.751,5.123,5.123,0,0,1-1.973-2.149,7.329,7.329,0,0,1-.743-3.208v-.721a7.58,7.58,0,0,1,.69-3.318A5.119,5.119,0,0,1,39.118,6.81,5.854,5.854,0,0,1,44.95,6.8,5.211,5.211,0,0,1,46.932,9a7.362,7.362,0,0,1,.716,3.274Zm-3.138-.536a5.381,5.381,0,0,0-.637-2.9,2.044,2.044,0,0,0-1.824-.989q-2.32,0-2.452,3.48l-.009.94a5.535,5.535,0,0,0,.624,2.892,2.041,2.041,0,0,0,1.854,1.011,2.016,2.016,0,0,0,1.8-.993,5.383,5.383,0,0,0,.642-2.856Zm13.421,2a5.8,5.8,0,0,1-.967,3.595,3.238,3.238,0,0,1-2.725,1.257A2.81,2.81,0,0,1,51.9,18.024L51.779,19H49.125V5.5h2.962v4.755a2.711,2.711,0,0,1,2.136-.94,3.239,3.239,0,0,1,2.742,1.274,5.826,5.826,0,0,1,.967,3.586Zm-2.971-.189a3.866,3.866,0,0,0-.365-1.952,1.229,1.229,0,0,0-1.121-.584,1.418,1.418,0,0,0-1.389.763v3.773a1.426,1.426,0,0,0,1.406.755,1.258,1.258,0,0,0,1.327-1.018A7.309,7.309,0,0,0,54.96,14.135Zm7.726-7.009V9.49H64.25v2.057H62.686V15.9a1.111,1.111,0,0,0,.193.747,1.037,1.037,0,0,0,.765.211,4.345,4.345,0,0,0,.738-.053v2.118a5.466,5.466,0,0,1-1.67.255,3.1,3.1,0,0,1-2.259-.721,2.954,2.954,0,0,1-.729-2.188v-4.72H58.511V9.49h1.213V7.126Zm7.33,12.05a4.889,4.889,0,0,1-3.542-1.305,4.507,4.507,0,0,1-1.354-3.4v-.246a5.84,5.84,0,0,1,.541-2.575,3.955,3.955,0,0,1,1.578-1.727A4.763,4.763,0,0,1,69.7,9.314a4.117,4.117,0,0,1,3.164,1.244,4.887,4.887,0,0,1,1.16,3.467v1.151H68.135a2.135,2.135,0,0,0,.694,1.257,2.066,2.066,0,0,0,1.389.457,2.662,2.662,0,0,0,2.2-.984l1.354,1.6A3.784,3.784,0,0,1,72.2,18.723,5.3,5.3,0,0,1,70.016,19.176ZM69.682,11.6q-1.3,0-1.547,1.723h2.988v-.229a1.467,1.467,0,0,0-.36-1.1A1.434,1.434,0,0,0,69.682,11.6ZM77.935,9.49l.1,1.116a3.225,3.225,0,0,1,2.716-1.292,2.713,2.713,0,0,1,2.219.888,4.226,4.226,0,0,1,.76,2.672V19H80.756V13a1.6,1.6,0,0,0-.29-1.059,1.342,1.342,0,0,0-1.055-.338,1.413,1.413,0,0,0-1.292.686V19H75.158V9.49Zm12.032,9.686a4.889,4.889,0,0,1-3.542-1.305,4.507,4.507,0,0,1-1.354-3.4v-.246a5.84,5.84,0,0,1,.541-2.575A3.955,3.955,0,0,1,87.19,9.925a4.763,4.763,0,0,1,2.461-.611,4.117,4.117,0,0,1,3.164,1.244,4.887,4.887,0,0,1,1.16,3.467v1.151H88.086a2.135,2.135,0,0,0,.694,1.257,2.066,2.066,0,0,0,1.389.457,2.662,2.662,0,0,0,2.2-.984l1.354,1.6a3.784,3.784,0,0,1-1.569,1.217A5.3,5.3,0,0,1,89.967,19.176ZM89.633,11.6q-1.3,0-1.547,1.723h2.988v-.229a1.467,1.467,0,0,0-.36-1.1A1.434,1.434,0,0,0,89.633,11.6Zm11.285.571-.976-.07a1.752,1.752,0,0,0-1.793.879V19H95.188V9.49h2.777l.1,1.222a2.294,2.294,0,0,1,2.083-1.4,2.888,2.888,0,0,1,.826.105ZM8.695,44H5.724V34.49H8.695ZM5.548,32.038A1.322,1.322,0,0,1,6.005,31a1.724,1.724,0,0,1,1.187-.4,1.724,1.724,0,0,1,1.187.4,1.405,1.405,0,0,1,0,2.074,1.724,1.724,0,0,1-1.187.4,1.724,1.724,0,0,1-1.187-.4A1.322,1.322,0,0,1,5.548,32.038Zm7.69,2.452.1,1.116a3.225,3.225,0,0,1,2.716-1.292,2.713,2.713,0,0,1,2.219.888,4.226,4.226,0,0,1,.76,2.672V44H16.06V38a1.6,1.6,0,0,0-.29-1.059,1.342,1.342,0,0,0-1.055-.338,1.413,1.413,0,0,0-1.292.686V44H10.461V34.49ZM21.325,44V36.547h-1.38V34.49h1.38v-.756a3.286,3.286,0,0,1,.958-2.522,3.785,3.785,0,0,1,2.689-.9,5.89,5.89,0,0,1,1.389.185l.009,2.18a2.706,2.706,0,0,0-.729-.079q-1.345,0-1.345,1.16v.729H26.15v2.057H24.3V44Zm5.493-4.843a5.613,5.613,0,0,1,.554-2.536,3.96,3.96,0,0,1,1.591-1.709,4.791,4.791,0,0,1,2.435-.6,4.373,4.373,0,0,1,3.366,1.323,5.076,5.076,0,0,1,1.23,3.6v.105a4.925,4.925,0,0,1-1.235,3.529,4.384,4.384,0,0,1-3.344,1.305,4.434,4.434,0,0,1-3.261-1.217,4.761,4.761,0,0,1-1.327-3.3Zm2.962.185a3.538,3.538,0,0,0,.413,1.934,1.376,1.376,0,0,0,1.222.615q1.582,0,1.617-2.435v-.3q0-2.558-1.635-2.558-1.485,0-1.608,2.206Zm13.271-2.171-.976-.07a1.752,1.752,0,0,0-1.793.879V44H37.321V34.49H40.1l.1,1.222a2.294,2.294,0,0,1,2.083-1.4,2.888,2.888,0,0,1,.826.105Zm3.867-2.681.1,1.116a3.27,3.27,0,0,1,2.716-1.292,2.407,2.407,0,0,1,2.435,1.433,3.165,3.165,0,0,1,2.795-1.433q2.892,0,2.971,3.5V44H54.96V38a1.813,1.813,0,0,0-.246-1.063,1.048,1.048,0,0,0-.9-.334,1.4,1.4,0,0,0-1.31.782l.009.123V44H49.546V38.015a1.906,1.906,0,0,0-.237-1.081A1.045,1.045,0,0,0,48.4,36.6a1.42,1.42,0,0,0-1.3.782V44H44.141V34.49ZM64.98,44a3.344,3.344,0,0,1-.281-.853,2.754,2.754,0,0,1-2.285,1.028,3.374,3.374,0,0,1-2.285-.813,2.588,2.588,0,0,1-.94-2.043,2.66,2.66,0,0,1,1.143-2.338,5.821,5.821,0,0,1,3.322-.791h.914v-.5q0-1.316-1.134-1.316a.927.927,0,0,0-1.055,1.042H59.417a2.655,2.655,0,0,1,1.173-2.239,4.931,4.931,0,0,1,2.993-.86,4.323,4.323,0,0,1,2.874.888,3.086,3.086,0,0,1,1.081,2.435v4.21a4.311,4.311,0,0,0,.4,2V44Zm-1.854-1.934a1.652,1.652,0,0,0,.918-.237,1.487,1.487,0,0,0,.523-.536V39.772h-.861q-1.547,0-1.547,1.389a.848.848,0,0,0,.272.655A.986.986,0,0,0,63.125,42.066ZM73.2,41.891a1.317,1.317,0,0,0,.967-.338,1.241,1.241,0,0,0,.334-.945h2.777a3.288,3.288,0,0,1-1.121,2.566,4.168,4.168,0,0,1-2.887,1,4.22,4.22,0,0,1-3.27-1.3,5.125,5.125,0,0,1-1.2-3.6v-.123a5.792,5.792,0,0,1,.532-2.544,3.872,3.872,0,0,1,1.534-1.7,4.573,4.573,0,0,1,2.373-.593,4.116,4.116,0,0,1,2.944,1.028,3.647,3.647,0,0,1,1.09,2.786H74.5A1.626,1.626,0,0,0,74.138,37a1.244,1.244,0,0,0-.967-.4q-1.151,0-1.345,1.468a10.357,10.357,0,0,0-.062,1.283,4.068,4.068,0,0,0,.343,1.986A1.187,1.187,0,0,0,73.2,41.891ZM81.653,44H78.682V34.49h2.971ZM78.506,32.038A1.322,1.322,0,0,1,78.963,31a1.943,1.943,0,0,1,2.373,0,1.405,1.405,0,0,1,0,2.074,1.943,1.943,0,0,1-2.373,0A1.322,1.322,0,0,1,78.506,32.038Zm4.6,7.119a5.613,5.613,0,0,1,.554-2.536,3.96,3.96,0,0,1,1.591-1.709,4.791,4.791,0,0,1,2.435-.6,4.373,4.373,0,0,1,3.366,1.323,5.076,5.076,0,0,1,1.23,3.6v.105a4.925,4.925,0,0,1-1.235,3.529A4.384,4.384,0,0,1,87.7,44.176a4.434,4.434,0,0,1-3.261-1.217,4.761,4.761,0,0,1-1.327-3.3Zm2.962.185a3.538,3.538,0,0,0,.413,1.934,1.376,1.376,0,0,0,1.222.615q1.582,0,1.617-2.435v-.3q0-2.558-1.635-2.558-1.485,0-1.608,2.206ZM88.086,30.5h3.129l-2.443,2.76-2.417,0ZM96.3,34.49l.1,1.116a3.225,3.225,0,0,1,2.716-1.292,2.713,2.713,0,0,1,2.219.888,4.226,4.226,0,0,1,.76,2.672V44H99.125V38a1.6,1.6,0,0,0-.29-1.059,1.342,1.342,0,0,0-1.055-.338,1.413,1.413,0,0,0-1.292.686V44H93.527V34.49Zm11.54,4.685a5.809,5.809,0,0,1,.976-3.56,3.211,3.211,0,0,1,2.725-1.3,2.731,2.731,0,0,1,2.145,1V30.5h2.971V44H114l-.149-1.02a2.8,2.8,0,0,1-2.32,1.2,3.205,3.205,0,0,1-2.689-1.3A5.993,5.993,0,0,1,107.844,39.175Zm2.962.185q0,2.531,1.477,2.531a1.458,1.458,0,0,0,1.406-.826V37.443A1.419,1.419,0,0,0,112.3,36.6q-1.371,0-1.485,2.215Zm12.138,4.816a4.889,4.889,0,0,1-3.542-1.305,4.507,4.507,0,0,1-1.354-3.4v-.246a5.84,5.84,0,0,1,.541-2.575,3.955,3.955,0,0,1,1.578-1.727,4.763,4.763,0,0,1,2.461-.611,4.117,4.117,0,0,1,3.164,1.244,4.887,4.887,0,0,1,1.16,3.467v1.151h-5.889a2.135,2.135,0,0,0,.694,1.257,2.066,2.066,0,0,0,1.389.457,2.662,2.662,0,0,0,2.2-.984l1.354,1.6a3.784,3.784,0,0,1-1.569,1.217A5.3,5.3,0,0,1,122.944,44.176ZM122.61,36.6q-1.3,0-1.547,1.723h2.988v-.229a1.467,1.467,0,0,0-.36-1.1A1.434,1.434,0,0,0,122.61,36.6Zm8.657,7.4H128.3V30.5h2.971Zm-85.5,22.891a1.317,1.317,0,0,0,.967-.338,1.241,1.241,0,0,0,.334-.945h2.777a3.288,3.288,0,0,1-1.121,2.566,4.168,4.168,0,0,1-2.887,1,4.22,4.22,0,0,1-3.27-1.3,5.125,5.125,0,0,1-1.2-3.6v-.123A5.792,5.792,0,0,1,41.9,61.6a3.872,3.872,0,0,1,1.534-1.7,4.573,4.573,0,0,1,2.373-.593,4.116,4.116,0,0,1,2.944,1.028,3.647,3.647,0,0,1,1.09,2.786H47.063A1.626,1.626,0,0,0,46.7,62a1.244,1.244,0,0,0-.967-.4q-1.151,0-1.345,1.468a10.357,10.357,0,0,0-.062,1.283,4.068,4.068,0,0,0,.343,1.986A1.187,1.187,0,0,0,45.763,66.891ZM54.218,69H51.247V55.5h2.971Zm4.948,0H56.2V59.49h2.971ZM56.02,57.038A1.322,1.322,0,0,1,56.477,56a1.943,1.943,0,0,1,2.373,0,1.405,1.405,0,0,1,0,2.074,1.943,1.943,0,0,1-2.373,0A1.322,1.322,0,0,1,56.02,57.038Zm9.571,12.138a4.889,4.889,0,0,1-3.542-1.305,4.507,4.507,0,0,1-1.354-3.4v-.246a5.84,5.84,0,0,1,.541-2.575,3.955,3.955,0,0,1,1.578-1.727,4.763,4.763,0,0,1,2.461-.611,4.117,4.117,0,0,1,3.164,1.244,4.887,4.887,0,0,1,1.16,3.467v1.151H63.71a2.135,2.135,0,0,0,.694,1.257,2.066,2.066,0,0,0,1.389.457,2.662,2.662,0,0,0,2.2-.984l1.354,1.6a3.784,3.784,0,0,1-1.569,1.217A5.3,5.3,0,0,1,65.591,69.176ZM65.257,61.6q-1.3,0-1.547,1.723H66.7v-.229a1.467,1.467,0,0,0-.36-1.1A1.434,1.434,0,0,0,65.257,61.6ZM73.51,59.49l.1,1.116a3.225,3.225,0,0,1,2.716-1.292,2.713,2.713,0,0,1,2.219.888,4.226,4.226,0,0,1,.76,2.672V69H76.331V63a1.6,1.6,0,0,0-.29-1.059,1.342,1.342,0,0,0-1.055-.338,1.413,1.413,0,0,0-1.292.686V69H70.732V59.49Zm10.881-2.364V59.49h1.564v2.057H84.391V65.9a1.111,1.111,0,0,0,.193.747,1.037,1.037,0,0,0,.765.211,4.345,4.345,0,0,0,.738-.053v2.118a5.466,5.466,0,0,1-1.67.255,3.1,3.1,0,0,1-2.259-.721,2.954,2.954,0,0,1-.729-2.188v-4.72H80.216V59.49h1.213V57.126Zm7.33,12.05a4.889,4.889,0,0,1-3.542-1.305,4.507,4.507,0,0,1-1.354-3.4v-.246a5.84,5.84,0,0,1,.541-2.575,3.955,3.955,0,0,1,1.578-1.727,4.763,4.763,0,0,1,2.461-.611,4.117,4.117,0,0,1,3.164,1.244,4.887,4.887,0,0,1,1.16,3.467v1.151H89.84a2.135,2.135,0,0,0,.694,1.257,2.066,2.066,0,0,0,1.389.457,2.662,2.662,0,0,0,2.2-.984l1.354,1.6A3.784,3.784,0,0,1,93.9,68.723,5.3,5.3,0,0,1,91.721,69.176ZM91.387,61.6q-1.3,0-1.547,1.723h2.988v-.229a1.467,1.467,0,0,0-.36-1.1A1.434,1.434,0,0,0,91.387,61.6Z" transform="translate(1058 11029.749)" fill="#12263f"/>
    <path id="Trazado_609216" data-name="Trazado 609216" d="M26.384,14.667a4.673,4.673,0,0,1-.721,2.36,4.35,4.35,0,0,1-1.85,1.586,6.3,6.3,0,0,1-2.72.563,5.025,5.025,0,0,1-3.973-1.644,6.786,6.786,0,0,1-1.45-4.641v-.633a7.746,7.746,0,0,1,.655-3.292,4.961,4.961,0,0,1,1.885-2.18,5.26,5.26,0,0,1,2.848-.769A5.516,5.516,0,0,1,24.8,7.245a4.844,4.844,0,0,1,1.608,3.379H23.334a2.292,2.292,0,0,0-.589-1.679,2.422,2.422,0,0,0-1.687-.51A1.843,1.843,0,0,0,19.37,9.3a5.536,5.536,0,0,0-.562,2.751v.905a6.126,6.126,0,0,0,.514,2.927,1.882,1.882,0,0,0,1.771.879,2.369,2.369,0,0,0,1.626-.5,2.126,2.126,0,0,0,.6-1.591ZM31.13,19H28.054V6.2H31.13Zm10.081-5.432H36.359v3.059h5.73V19H33.274V6.2h8.833V8.585H36.359v2.7h4.852Zm6.891.905h-1.67V19H43.347V6.2h5.036a5.621,5.621,0,0,1,3.56,1.01,3.421,3.421,0,0,1,1.283,2.853,4.155,4.155,0,0,1-.541,2.213A3.837,3.837,0,0,1,50.993,13.7l2.672,5.167V19h-3.3ZM46.432,12.1h1.951a1.751,1.751,0,0,0,1.323-.463,1.788,1.788,0,0,0,.444-1.291,1.809,1.809,0,0,0-.448-1.3,1.735,1.735,0,0,0-1.318-.471H46.432Zm13.412,2.373h-1.67V19H55.089V6.2h5.036a5.621,5.621,0,0,1,3.56,1.01,3.421,3.421,0,0,1,1.283,2.853,4.155,4.155,0,0,1-.541,2.213A3.837,3.837,0,0,1,62.735,13.7l2.672,5.167V19H62.1ZM58.174,12.1h1.951a1.751,1.751,0,0,0,1.323-.463,1.788,1.788,0,0,0,.444-1.291,1.809,1.809,0,0,0-.448-1.3,1.735,1.735,0,0,0-1.318-.471H58.174Zm16.594,1.468H69.916v3.059h5.73V19H66.831V6.2h8.833V8.585H69.916v2.7h4.852Z" transform="translate(1081 11268.749)" fill="#12263f"/>
    <path id="Trazado_609217" data-name="Trazado 609217" d="M6.342,14.658V19H3.257V6.2H8.364a5.948,5.948,0,0,1,2.6.541A4.074,4.074,0,0,1,12.71,8.282a4.2,4.2,0,0,1,.62,2.263,3.7,3.7,0,0,1-1.34,2.993,5.561,5.561,0,0,1-3.678,1.121Zm0-2.382H8.364a1.906,1.906,0,0,0,1.367-.448,1.665,1.665,0,0,0,.47-1.266A2.059,2.059,0,0,0,9.717,9.13,1.712,1.712,0,0,0,8.4,8.585H6.342Zm14.247-.105-.976-.07a1.752,1.752,0,0,0-1.793.879V19H14.859V9.49h2.777l.1,1.222a2.294,2.294,0,0,1,2.083-1.4,2.888,2.888,0,0,1,.826.105Zm.378,1.986a5.613,5.613,0,0,1,.554-2.536,3.96,3.96,0,0,1,1.591-1.709,4.791,4.791,0,0,1,2.435-.6,4.373,4.373,0,0,1,3.366,1.323,5.076,5.076,0,0,1,1.23,3.6v.105a4.925,4.925,0,0,1-1.235,3.529,4.384,4.384,0,0,1-3.344,1.305A4.434,4.434,0,0,1,22.3,17.958a4.761,4.761,0,0,1-1.327-3.3Zm2.962.185a3.538,3.538,0,0,0,.413,1.934,1.376,1.376,0,0,0,1.222.615q1.582,0,1.617-2.435v-.3q0-2.558-1.635-2.558-1.485,0-1.608,2.206Zm7.146-.167a5.809,5.809,0,0,1,.976-3.56,3.211,3.211,0,0,1,2.725-1.3,2.731,2.731,0,0,1,2.145,1V5.5H39.89V19H37.227l-.149-1.02a2.8,2.8,0,0,1-2.32,1.2,3.205,3.205,0,0,1-2.689-1.3A5.993,5.993,0,0,1,31.075,14.175Zm2.962.185q0,2.531,1.477,2.531a1.458,1.458,0,0,0,1.406-.826V12.443a1.419,1.419,0,0,0-1.389-.844q-1.371,0-1.485,2.215Zm13.2,3.612a3.054,3.054,0,0,1-2.54,1.2,3,3,0,0,1-2.369-.91,3.826,3.826,0,0,1-.8-2.615V9.49h2.962v6.179a1.065,1.065,0,0,0,1.187,1.222,1.548,1.548,0,0,0,1.45-.729V9.49H50.1V19H47.326Zm8.508-1.081a1.317,1.317,0,0,0,.967-.338,1.241,1.241,0,0,0,.334-.945h2.777A3.288,3.288,0,0,1,58.7,18.174a4.168,4.168,0,0,1-2.887,1,4.22,4.22,0,0,1-3.27-1.3,5.125,5.125,0,0,1-1.2-3.6v-.123a5.792,5.792,0,0,1,.532-2.544,3.872,3.872,0,0,1,1.534-1.7,4.573,4.573,0,0,1,2.373-.593,4.116,4.116,0,0,1,2.944,1.028,3.647,3.647,0,0,1,1.09,2.786H57.046A1.626,1.626,0,0,0,56.686,12a1.244,1.244,0,0,0-.967-.4q-1.151,0-1.345,1.468a10.357,10.357,0,0,0-.062,1.283,4.068,4.068,0,0,0,.343,1.986A1.187,1.187,0,0,0,55.746,16.891Zm8.78-9.765V9.49H66.09v2.057H64.526V15.9a1.111,1.111,0,0,0,.193.747,1.037,1.037,0,0,0,.765.211,4.345,4.345,0,0,0,.738-.053v2.118a5.466,5.466,0,0,1-1.67.255,3.1,3.1,0,0,1-2.259-.721,2.954,2.954,0,0,1-.729-2.188v-4.72H60.351V9.49h1.213V7.126Zm2.092,7.031a5.613,5.613,0,0,1,.554-2.536,3.96,3.96,0,0,1,1.591-1.709,4.791,4.791,0,0,1,2.435-.6,4.373,4.373,0,0,1,3.366,1.323,5.076,5.076,0,0,1,1.23,3.6v.105a4.925,4.925,0,0,1-1.235,3.529,4.384,4.384,0,0,1-3.344,1.305,4.434,4.434,0,0,1-3.261-1.217,4.761,4.761,0,0,1-1.327-3.3Zm2.962.185a3.538,3.538,0,0,0,.413,1.934,1.376,1.376,0,0,0,1.222.615q1.582,0,1.617-2.435v-.3q0-2.558-1.635-2.558-1.485,0-1.608,2.206Zm15.794,1.134,1.5-5.985H90L86.894,19H83.871l-3.1-9.51H83.9Zm10.485.853a.684.684,0,0,0-.4-.606,6.016,6.016,0,0,0-1.5-.475,6.853,6.853,0,0,1-1.828-.646,3.062,3.062,0,0,1-1.1-.971,2.319,2.319,0,0,1-.378-1.31,2.628,2.628,0,0,1,1.081-2.158,4.453,4.453,0,0,1,2.83-.848,4.934,4.934,0,0,1,3.023.853,2.666,2.666,0,0,1,1.143,2.241H95.762q0-1.143-1.2-1.143a1.194,1.194,0,0,0-.782.259.8.8,0,0,0-.316.646.737.737,0,0,0,.387.642,3.654,3.654,0,0,0,1.235.4,10.671,10.671,0,0,1,1.49.378,2.706,2.706,0,0,1,2.145,2.646,2.491,2.491,0,0,1-1.156,2.118,5.068,5.068,0,0,1-2.993.817,5.172,5.172,0,0,1-2.18-.439,3.645,3.645,0,0,1-1.494-1.2,2.707,2.707,0,0,1-.536-1.591h2.769a1.145,1.145,0,0,0,.439.962,1.808,1.808,0,0,0,1.081.3,1.422,1.422,0,0,0,.91-.246A.787.787,0,0,0,95.859,16.328Zm6.073-.2a1.686,1.686,0,0,1,1.169.417,1.457,1.457,0,0,1,0,2.136,1.844,1.844,0,0,1-2.342,0,1.456,1.456,0,0,1,0-2.127A1.672,1.672,0,0,1,101.932,16.126ZM12.864,44H9.8L5.261,36.037V44H2.176V31.2H5.261l4.526,7.963V31.2h3.076Zm6.416.176a4.889,4.889,0,0,1-3.542-1.305,4.507,4.507,0,0,1-1.354-3.4v-.246a5.84,5.84,0,0,1,.541-2.575A3.955,3.955,0,0,1,16.5,34.925a4.763,4.763,0,0,1,2.461-.611,4.117,4.117,0,0,1,3.164,1.244,4.887,4.887,0,0,1,1.16,3.467v1.151H17.4a2.135,2.135,0,0,0,.694,1.257,2.066,2.066,0,0,0,1.389.457,2.662,2.662,0,0,0,2.2-.984l1.354,1.6a3.784,3.784,0,0,1-1.569,1.217A5.3,5.3,0,0,1,19.28,44.176ZM18.946,36.6q-1.3,0-1.547,1.723h2.988v-.229a1.467,1.467,0,0,0-.36-1.1A1.434,1.434,0,0,0,18.946,36.6ZM28.5,41.891a1.317,1.317,0,0,0,.967-.338,1.241,1.241,0,0,0,.334-.945h2.777a3.288,3.288,0,0,1-1.121,2.566,4.168,4.168,0,0,1-2.887,1,4.22,4.22,0,0,1-3.27-1.3,5.125,5.125,0,0,1-1.2-3.6v-.123a5.792,5.792,0,0,1,.532-2.544,3.872,3.872,0,0,1,1.534-1.7,4.573,4.573,0,0,1,2.373-.593,4.116,4.116,0,0,1,2.944,1.028,3.647,3.647,0,0,1,1.09,2.786H29.8A1.626,1.626,0,0,0,29.44,37a1.244,1.244,0,0,0-.967-.4q-1.151,0-1.345,1.468a10.357,10.357,0,0,0-.062,1.283,4.068,4.068,0,0,0,.343,1.986A1.187,1.187,0,0,0,28.5,41.891Zm9.932,2.285a4.889,4.889,0,0,1-3.542-1.305,4.507,4.507,0,0,1-1.354-3.4v-.246a5.84,5.84,0,0,1,.541-2.575,3.955,3.955,0,0,1,1.578-1.727,4.763,4.763,0,0,1,2.461-.611,4.117,4.117,0,0,1,3.164,1.244,4.887,4.887,0,0,1,1.16,3.467v1.151H36.55a2.135,2.135,0,0,0,.694,1.257,2.066,2.066,0,0,0,1.389.457,2.662,2.662,0,0,0,2.2-.984l1.354,1.6a3.784,3.784,0,0,1-1.569,1.217A5.3,5.3,0,0,1,38.431,44.176ZM38.1,36.6q-1.3,0-1.547,1.723h2.988v-.229a1.467,1.467,0,0,0-.36-1.1A1.434,1.434,0,0,0,38.1,36.6Zm10.512,4.729a.684.684,0,0,0-.4-.606,6.016,6.016,0,0,0-1.5-.475,6.853,6.853,0,0,1-1.828-.646,3.062,3.062,0,0,1-1.1-.971,2.319,2.319,0,0,1-.378-1.31,2.628,2.628,0,0,1,1.081-2.158,4.453,4.453,0,0,1,2.83-.848,4.934,4.934,0,0,1,3.023.853,2.666,2.666,0,0,1,1.143,2.241H48.512q0-1.143-1.2-1.143a1.194,1.194,0,0,0-.782.259.8.8,0,0,0-.316.646.737.737,0,0,0,.387.642,3.654,3.654,0,0,0,1.235.4,10.671,10.671,0,0,1,1.49.378,2.706,2.706,0,0,1,2.145,2.646,2.491,2.491,0,0,1-1.156,2.118,5.068,5.068,0,0,1-2.993.817,5.172,5.172,0,0,1-2.18-.439,3.645,3.645,0,0,1-1.494-1.2,2.707,2.707,0,0,1-.536-1.591h2.769a1.145,1.145,0,0,0,.439.962,1.808,1.808,0,0,0,1.081.3,1.422,1.422,0,0,0,.91-.246A.787.787,0,0,0,48.609,41.328ZM55.974,44H53V34.49h2.971ZM52.828,32.038A1.322,1.322,0,0,1,53.285,31a1.943,1.943,0,0,1,2.373,0,1.405,1.405,0,0,1,0,2.074,1.943,1.943,0,0,1-2.373,0A1.322,1.322,0,0,1,52.828,32.038Zm4.6,7.137a5.809,5.809,0,0,1,.976-3.56,3.211,3.211,0,0,1,2.725-1.3,2.731,2.731,0,0,1,2.145,1V30.5H66.24V44H63.577l-.149-1.02a2.8,2.8,0,0,1-2.32,1.2,3.205,3.205,0,0,1-2.689-1.3A5.993,5.993,0,0,1,57.424,39.175Zm2.962.185q0,2.531,1.477,2.531a1.458,1.458,0,0,0,1.406-.826V37.443A1.419,1.419,0,0,0,61.88,36.6q-1.371,0-1.485,2.215ZM73.28,44A3.344,3.344,0,0,1,73,43.147a2.754,2.754,0,0,1-2.285,1.028,3.374,3.374,0,0,1-2.285-.813,2.588,2.588,0,0,1-.94-2.043,2.66,2.66,0,0,1,1.143-2.338,5.821,5.821,0,0,1,3.322-.791h.914v-.5q0-1.316-1.134-1.316a.927.927,0,0,0-1.055,1.042H67.716a2.655,2.655,0,0,1,1.173-2.239,4.931,4.931,0,0,1,2.993-.86,4.323,4.323,0,0,1,2.874.888,3.086,3.086,0,0,1,1.081,2.435v4.21a4.311,4.311,0,0,0,.4,2V44Zm-1.854-1.934a1.652,1.652,0,0,0,.918-.237,1.487,1.487,0,0,0,.523-.536V39.772h-.861q-1.547,0-1.547,1.389a.848.848,0,0,0,.272.655A.986.986,0,0,0,71.425,42.066ZM77.1,39.175a5.809,5.809,0,0,1,.976-3.56,3.211,3.211,0,0,1,2.725-1.3,2.731,2.731,0,0,1,2.145,1V30.5h2.971V44H83.255l-.149-1.02a2.8,2.8,0,0,1-2.32,1.2,3.205,3.205,0,0,1-2.689-1.3A5.993,5.993,0,0,1,77.1,39.175Zm2.962.185q0,2.531,1.477,2.531a1.458,1.458,0,0,0,1.406-.826V37.443a1.419,1.419,0,0,0-1.389-.844q-1.371,0-1.485,2.215ZM92.2,44.176a4.889,4.889,0,0,1-3.542-1.305,4.507,4.507,0,0,1-1.354-3.4v-.246a5.84,5.84,0,0,1,.541-2.575,3.955,3.955,0,0,1,1.578-1.727,4.763,4.763,0,0,1,2.461-.611,4.117,4.117,0,0,1,3.164,1.244,4.887,4.887,0,0,1,1.16,3.467v1.151H90.322a2.135,2.135,0,0,0,.694,1.257,2.066,2.066,0,0,0,1.389.457,2.662,2.662,0,0,0,2.2-.984l1.354,1.6a3.784,3.784,0,0,1-1.569,1.217A5.3,5.3,0,0,1,92.2,44.176ZM91.869,36.6q-1.3,0-1.547,1.723H93.31v-.229a1.467,1.467,0,0,0-.36-1.1A1.434,1.434,0,0,0,91.869,36.6Zm10.512,4.729a.684.684,0,0,0-.4-.606,6.016,6.016,0,0,0-1.5-.475,6.853,6.853,0,0,1-1.828-.646,3.062,3.062,0,0,1-1.1-.971,2.319,2.319,0,0,1-.378-1.31,2.628,2.628,0,0,1,1.081-2.158,4.453,4.453,0,0,1,2.83-.848,4.934,4.934,0,0,1,3.023.853,2.666,2.666,0,0,1,1.143,2.241h-2.971q0-1.143-1.2-1.143a1.194,1.194,0,0,0-.782.259.8.8,0,0,0-.316.646.737.737,0,0,0,.387.642,3.654,3.654,0,0,0,1.235.4,10.671,10.671,0,0,1,1.49.378,2.706,2.706,0,0,1,2.145,2.646,2.491,2.491,0,0,1-1.156,2.118,5.068,5.068,0,0,1-2.993.817,5.172,5.172,0,0,1-2.18-.439,3.645,3.645,0,0,1-1.494-1.2,2.707,2.707,0,0,1-.536-1.591h2.769a1.145,1.145,0,0,0,.439.962,1.808,1.808,0,0,0,1.081.3,1.422,1.422,0,0,0,.91-.246A.787.787,0,0,0,102.38,41.328ZM11.69,64.175a5.809,5.809,0,0,1,.976-3.56,3.211,3.211,0,0,1,2.725-1.3,2.731,2.731,0,0,1,2.145,1V55.5h2.971V69H17.843l-.149-1.02a2.8,2.8,0,0,1-2.32,1.2,3.205,3.205,0,0,1-2.689-1.3A5.993,5.993,0,0,1,11.69,64.175Zm2.962.185q0,2.531,1.477,2.531a1.458,1.458,0,0,0,1.406-.826V62.443a1.419,1.419,0,0,0-1.389-.844q-1.371,0-1.485,2.215ZM26.79,69.176a4.889,4.889,0,0,1-3.542-1.305,4.507,4.507,0,0,1-1.354-3.4v-.246a5.84,5.84,0,0,1,.541-2.575,3.955,3.955,0,0,1,1.578-1.727,4.763,4.763,0,0,1,2.461-.611,4.117,4.117,0,0,1,3.164,1.244,4.887,4.887,0,0,1,1.16,3.467v1.151H24.909a2.135,2.135,0,0,0,.694,1.257,2.066,2.066,0,0,0,1.389.457,2.662,2.662,0,0,0,2.2-.984l1.354,1.6a3.784,3.784,0,0,1-1.569,1.217A5.3,5.3,0,0,1,26.79,69.176ZM26.456,61.6q-1.3,0-1.547,1.723H27.9v-.229a1.467,1.467,0,0,0-.36-1.1A1.434,1.434,0,0,0,26.456,61.6ZM35.113,69H32.143V55.5h2.971ZM45.44,66.891a1.317,1.317,0,0,0,.967-.338,1.241,1.241,0,0,0,.334-.945h2.777A3.288,3.288,0,0,1,48.4,68.174a4.168,4.168,0,0,1-2.887,1,4.22,4.22,0,0,1-3.27-1.3,5.125,5.125,0,0,1-1.2-3.6v-.123a5.792,5.792,0,0,1,.532-2.544,3.872,3.872,0,0,1,1.534-1.7,4.573,4.573,0,0,1,2.373-.593,4.116,4.116,0,0,1,2.944,1.028,3.647,3.647,0,0,1,1.09,2.786H46.741A1.626,1.626,0,0,0,46.381,62a1.244,1.244,0,0,0-.967-.4q-1.151,0-1.345,1.468a10.357,10.357,0,0,0-.062,1.283,4.068,4.068,0,0,0,.343,1.986A1.187,1.187,0,0,0,45.44,66.891ZM53.9,69H50.925V55.5H53.9Zm4.948,0H55.873V59.49h2.971ZM55.7,57.038A1.322,1.322,0,0,1,56.154,56a1.943,1.943,0,0,1,2.373,0,1.405,1.405,0,0,1,0,2.074,1.943,1.943,0,0,1-2.373,0A1.322,1.322,0,0,1,55.7,57.038Zm9.571,12.138a4.889,4.889,0,0,1-3.542-1.305,4.507,4.507,0,0,1-1.354-3.4v-.246a5.84,5.84,0,0,1,.541-2.575,3.955,3.955,0,0,1,1.578-1.727,4.763,4.763,0,0,1,2.461-.611,4.117,4.117,0,0,1,3.164,1.244,4.887,4.887,0,0,1,1.16,3.467v1.151H63.388a2.135,2.135,0,0,0,.694,1.257,2.066,2.066,0,0,0,1.389.457,2.662,2.662,0,0,0,2.2-.984l1.354,1.6a3.784,3.784,0,0,1-1.569,1.217A5.3,5.3,0,0,1,65.269,69.176ZM64.935,61.6q-1.3,0-1.547,1.723h2.988v-.229a1.467,1.467,0,0,0-.36-1.1A1.434,1.434,0,0,0,64.935,61.6Zm8.253-2.109.1,1.116A3.225,3.225,0,0,1,76,59.314a2.713,2.713,0,0,1,2.219.888,4.226,4.226,0,0,1,.76,2.672V69H76.009V63a1.6,1.6,0,0,0-.29-1.059,1.342,1.342,0,0,0-1.055-.338,1.413,1.413,0,0,0-1.292.686V69H70.41V59.49Zm10.881-2.364V59.49h1.564v2.057H84.068V65.9a1.111,1.111,0,0,0,.193.747,1.037,1.037,0,0,0,.765.211,4.345,4.345,0,0,0,.738-.053v2.118a5.466,5.466,0,0,1-1.67.255,3.1,3.1,0,0,1-2.259-.721,2.954,2.954,0,0,1-.729-2.188v-4.72H79.894V59.49h1.213V57.126Zm7.33,12.05a4.889,4.889,0,0,1-3.542-1.305,4.507,4.507,0,0,1-1.354-3.4v-.246a5.84,5.84,0,0,1,.541-2.575,3.955,3.955,0,0,1,1.578-1.727,4.763,4.763,0,0,1,2.461-.611,4.117,4.117,0,0,1,3.164,1.244,4.887,4.887,0,0,1,1.16,3.467v1.151H89.518a2.135,2.135,0,0,0,.694,1.257,2.066,2.066,0,0,0,1.389.457,2.662,2.662,0,0,0,2.2-.984l1.354,1.6a3.784,3.784,0,0,1-1.569,1.217A5.3,5.3,0,0,1,91.4,69.176ZM91.064,61.6q-1.3,0-1.547,1.723h2.988v-.229a1.467,1.467,0,0,0-.36-1.1A1.434,1.434,0,0,0,91.064,61.6Z" transform="translate(1073 11136.749)" fill="#fff"/>
    <g id="Grupo_873995" data-name="Grupo 873995" transform="translate(0 -6.754)">
      <path id="Polígono_22" data-name="Polígono 22" d="M23.006,0,46.011,15H0Z" transform="translate(1149.506 11271.973) rotate(180)" fill="#4a2efc"/>
      <rect id="Rectángulo_290778" data-name="Rectángulo 290778" width="21" height="18" transform="translate(1116 11242.681)" fill="#4a2efc"/>
    </g>
  </g>
</svg>
