<svg xmlns="http://www.w3.org/2000/svg" xmlns:xlink="http://www.w3.org/1999/xlink" width="15.6" height="21.844" viewBox="0 0 15.6 21.844"><defs><clipPath id="a"><rect width="15.6" height="21.844" fill="#4a2efc"/></clipPath></defs><g clip-path="url(#a)"><path d="M.05,8.244A7.061,7.061,0,0,0,.43,9.914a7.431,7.431,0,0,0,.823,1.644.29.29,0,0,1,.024.316,1.645,1.645,0,0,0-.146.964,1.728,1.728,0,0,0,1.655,1.477,1.688,1.688,0,0,0,1.36-.6,1.729,1.729,0,0,0-1.917-2.749.052.052,0,0,1-.073-.025,6.1,6.1,0,0,1-.441-.777,6.38,6.38,0,0,1-.425-4.248A6.385,6.385,0,0,1,5.5,1.4a7.109,7.109,0,0,1,1.559-.3A.532.532,0,0,0,7.535.808a.572.572,0,0,0-.32-.8A.033.033,0,0,0,7.2,0a3.34,3.34,0,0,0-.439,0C6.47.05,6.178.1,5.891.161A7.457,7.457,0,0,0,.008,7.321.193.193,0,0,1,0,7.359v.182a.253.253,0,0,1,.008.038c.014.222.02.444.042.665M2.845,11.96a.629.629,0,0,1,0,1.258.629.629,0,1,1,0-1.258" transform="translate(0 0)" fill="#4a2efc"/><path d="M69.452,28.8a1.624,1.624,0,0,0-1.85-1.2c-.132.023-.26.066-.4.1a1.736,1.736,0,0,0-.8-.825,1.647,1.647,0,0,0-1.156-.111l.041-.027a7.292,7.292,0,0,0,2.719-2.97,7.462,7.462,0,0,0,.8-3.54,7.3,7.3,0,0,0-.1-1.106,7.2,7.2,0,0,0-.835-2.347c-.1-.176-.209-.346-.319-.515A.224.224,0,0,1,67.535,16c.006-.01.01-.021.015-.032a1.725,1.725,0,1,0-2.725.564,1.663,1.663,0,0,0,1.71.348c.1-.031.107-.03.162.054l.011.017a6.391,6.391,0,0,1,1.008,3.589,6.129,6.129,0,0,1-.343,1.941,6.245,6.245,0,0,1-2.534,3.244,6.547,6.547,0,0,1-1.441.687c-.138.048-.275.1-.418.15,0-.02,0-.035,0-.05,0-.605,0-1.21-.008-1.816a.229.229,0,0,1,.161-.248,4.163,4.163,0,0,0,1.488-1.058,4.357,4.357,0,0,0,1.084-3.865,4.146,4.146,0,0,0-1.29-2.336,4.31,4.31,0,0,0-3.946-1.133,4.181,4.181,0,0,0-2.176,1.15,4.484,4.484,0,0,0-1.367,3.306,3.538,3.538,0,0,0,.121.92,4.424,4.424,0,0,0,2.544,3.015.18.18,0,0,1,.122.185c0,.625,0,1.251,0,1.876q0,1.78,0,3.561v.057a3.174,3.174,0,0,1-.2-.283,2.681,2.681,0,0,0-.358-.482,1.677,1.677,0,0,0-2.532.195,1.64,1.64,0,0,0-.147,1.786c.443.919.9,1.829,1.355,2.744a2.468,2.468,0,0,0,.387.588.346.346,0,0,0,.268.121.5.5,0,0,0,.39-.149.478.478,0,0,0,.177-.472,1.275,1.275,0,0,0-.1-.294c-.45-.917-.9-1.832-1.356-2.749a2.764,2.764,0,0,1-.171-.4.542.542,0,0,1,.173-.625.59.59,0,0,1,.889.171c.43.7.856,1.411,1.287,2.115a.315.315,0,0,0,.119.119,1.606,1.606,0,0,0,.311.116.443.443,0,0,0,.578-.36,1.16,1.16,0,0,0,.023-.231c0-.31,0-.62,0-.931q0-3.624,0-7.248c0-.4,0-.8,0-1.2a1.754,1.754,0,0,1,.016-.242.626.626,0,0,1,.14-.351.528.528,0,0,1,.633-.088.547.547,0,0,1,.282.512q0,3.94,0,7.88a.929.929,0,0,0,.016.181.544.544,0,0,0,.873.338.574.574,0,0,0,.206-.474c0-.678,0-1.355,0-2.033a.88.88,0,0,1,.01-.131.533.533,0,0,1,1.061.077c.01.175.01.35.011.525,0,.5,0,.995,0,1.492a3.207,3.207,0,0,0,.011.348.535.535,0,0,0,.829.377.58.58,0,0,0,.253-.507c0-.747,0-1.494.007-2.24a.532.532,0,0,1,.5-.524.527.527,0,0,1,.556.453,2.616,2.616,0,0,1,.012.333c0,.666,0,1.332,0,2a.817.817,0,0,0,.019.17.539.539,0,0,0,.522.433.524.524,0,0,0,.533-.408,1.143,1.143,0,0,0,.021-.251c0-.373,0-.745,0-1.118a1.659,1.659,0,0,1,.017-.3.506.506,0,0,1,.363-.421.524.524,0,0,1,.549.139.552.552,0,0,1,.147.388c.008.214.008.428.009.642q0,.8,0,1.593,0,.971,0,1.942c0,.015,0,.03,0,.045,0,.246-.007.492,0,.738a.616.616,0,0,0,.362.59.841.841,0,0,0,.364.016l0,0a.667.667,0,0,0,.367-.587q0-2.5-.006-5a1.727,1.727,0,0,0-.05-.4M65.981,15.882a.63.63,0,1,1,0-1.261.63.63,0,0,1,0,1.261m-3.84,5.082a.056.056,0,0,1-.082.023,1.911,1.911,0,0,0-.595-.168,1.649,1.649,0,0,0-.721.118l-.125.047a.906.906,0,0,1-.206-.492.949.949,0,0,1,.825-1.045.961.961,0,0,1,1.077.8.947.947,0,0,1-.173.712m.754,1a.251.251,0,0,1,.051-.262,2.592,2.592,0,0,0,.259-.4,1.973,1.973,0,0,0,.014-1.789,1.942,1.942,0,0,0-1.542-1.146,2.058,2.058,0,0,0-2.364,2.154,1.922,1.922,0,0,0,.409,1.1.383.383,0,0,1,.077.356,3.434,3.434,0,0,0-.076.712c-.006.184-.009.367-.014.551,0,.013,0,.026,0,.048-.026-.011-.049-.019-.071-.03a2.442,2.442,0,0,1-.876-.763,3.681,3.681,0,0,1-.711-1.807,3.061,3.061,0,0,1,.292-1.676,3.226,3.226,0,0,1,2.344-1.867,3.176,3.176,0,0,1,2.968.835,3.323,3.323,0,0,1,.124,4.716,2.9,2.9,0,0,1-.737.577l-.057.03c0-.205,0-.4,0-.6a2.8,2.8,0,0,0-.06-.647.724.724,0,0,0-.026-.092" transform="translate(-53.908 -12.955)" fill="#4a2efc"/><path d="M199.947,4.849A.544.544,0,1,0,199.4,4.3a.546.546,0,0,0,.547.546" transform="translate(-190.996 -3.601)" fill="#4a2efc"/></g></svg>