<svg xmlns="http://www.w3.org/2000/svg" xmlns:xlink="http://www.w3.org/1999/xlink" width="133" height="48" viewBox="0 0 133 48">
  <defs>
    <clipPath id="clip-path">
      <rect id="Rect치ngulo_292467" data-name="Rect치ngulo 292467" width="25.189" height="21.943" fill="#4a2efc"/>
    </clipPath>
  </defs>
  <g id="Grupo_874030" data-name="Grupo 874030" transform="translate(-375 -1475.204)">
    <g id="Grupo_870107" data-name="Grupo 870107" transform="translate(48 -405.233)">
      <rect id="Rect치ngulo_289858" data-name="Rect치ngulo 289858" width="133" height="48" transform="translate(327 1880.438)" fill="#fff"/>
      <path id="Trazado_609220" data-name="Trazado 609220" d="M9.688,13.391a4.185,4.185,0,0,1-1.332,2.785,4.365,4.365,0,0,1-2.98.98,4.008,4.008,0,0,1-3.23-1.445A5.815,5.815,0,0,1,.93,11.844V10.75A6.481,6.481,0,0,1,1.5,7.961,4.231,4.231,0,0,1,3.1,6.113a4.47,4.47,0,0,1,2.406-.645A4.11,4.11,0,0,1,8.414,6.48a4.235,4.235,0,0,1,1.273,2.8H8.18a3.268,3.268,0,0,0-.848-1.975A2.565,2.565,0,0,0,5.508,6.7,2.684,2.684,0,0,0,3.254,7.759a4.882,4.882,0,0,0-.816,3.026v1.1a5.018,5.018,0,0,0,.773,2.948A2.5,2.5,0,0,0,5.375,15.93a2.887,2.887,0,0,0,1.918-.566,3.143,3.143,0,0,0,.887-1.973ZM13.078,17H11.633V5h1.445Zm3.883,0H15.516V8.547h1.445ZM15.4,6.3a.863.863,0,0,1,.215-.594.807.807,0,0,1,.637-.242.819.819,0,0,1,.641.242.854.854,0,0,1,.219.594.826.826,0,0,1-.219.586.834.834,0,0,1-.641.234.821.821,0,0,1-.637-.234A.834.834,0,0,1,15.4,6.3Zm7.383,10.852a3.693,3.693,0,0,1-2.8-1.129,4.19,4.19,0,0,1-1.078-3.02v-.266a5.073,5.073,0,0,1,.48-2.246A3.748,3.748,0,0,1,20.73,8.949,3.378,3.378,0,0,1,22.6,8.391a3.166,3.166,0,0,1,2.563,1.086,4.7,4.7,0,0,1,.914,3.109v.6H20.352a3,3,0,0,0,.73,2.02,2.3,2.3,0,0,0,1.777.77,2.517,2.517,0,0,0,1.3-.312,3.259,3.259,0,0,0,.93-.828l.883.688A3.55,3.55,0,0,1,22.781,17.156ZM22.6,9.578a1.928,1.928,0,0,0-1.469.637A3.1,3.1,0,0,0,20.4,12h4.234v-.109a2.753,2.753,0,0,0-.594-1.707A1.815,1.815,0,0,0,22.6,9.578Zm6.516-1.031.047,1.063A3.08,3.08,0,0,1,31.7,8.391q2.68,0,2.7,3.023V17H32.953V11.406a1.946,1.946,0,0,0-.418-1.352,1.675,1.675,0,0,0-1.277-.437,2.086,2.086,0,0,0-1.234.375,2.546,2.546,0,0,0-.828.984V17H27.75V8.547ZM38.539,6.5V8.547h1.578V9.664H38.539v5.249a1.173,1.173,0,0,0,.211.763.888.888,0,0,0,.719.254,3.5,3.5,0,0,0,.688-.094V17a4.215,4.215,0,0,1-1.109.155,1.8,1.8,0,0,1-1.461-.586,2.517,2.517,0,0,1-.492-1.664V9.664H35.555V8.547h1.539V6.5Zm6.773,10.656a3.693,3.693,0,0,1-2.8-1.129,4.19,4.19,0,0,1-1.078-3.02v-.266a5.073,5.073,0,0,1,.48-2.246,3.748,3.748,0,0,1,1.344-1.547,3.378,3.378,0,0,1,1.871-.559A3.166,3.166,0,0,1,47.7,9.477a4.7,4.7,0,0,1,.914,3.109v.6H42.883a3,3,0,0,0,.73,2.02,2.3,2.3,0,0,0,1.777.77,2.517,2.517,0,0,0,1.3-.312,3.259,3.259,0,0,0,.93-.828l.883.688A3.55,3.55,0,0,1,45.313,17.156Zm-.18-7.578a1.928,1.928,0,0,0-1.469.637A3.1,3.1,0,0,0,42.93,12h4.234v-.109a2.753,2.753,0,0,0-.594-1.707A1.815,1.815,0,0,0,45.133,9.578Zm10.07,5.18a1.064,1.064,0,0,0-.441-.91,4.249,4.249,0,0,0-1.539-.559,7.277,7.277,0,0,1-1.742-.562,2.479,2.479,0,0,1-.953-.781,1.869,1.869,0,0,1-.309-1.078A2.193,2.193,0,0,1,51.1,9.109a3.432,3.432,0,0,1,2.246-.719,3.532,3.532,0,0,1,2.332.742,2.357,2.357,0,0,1,.895,1.9H55.117a1.3,1.3,0,0,0-.5-1.023,1.888,1.888,0,0,0-1.27-.43,1.976,1.976,0,0,0-1.234.344,1.082,1.082,0,0,0-.445.9.877.877,0,0,0,.414.789,5.1,5.1,0,0,0,1.5.508,7.8,7.8,0,0,1,1.754.578,2.558,2.558,0,0,1,1,.809,1.988,1.988,0,0,1,.324,1.152,2.163,2.163,0,0,1-.906,1.816,3.8,3.8,0,0,1-2.352.684,4.257,4.257,0,0,1-1.8-.359,2.922,2.922,0,0,1-1.223-1A2.42,2.42,0,0,1,49.93,14.4h1.445a1.5,1.5,0,0,0,.582,1.152,2.258,2.258,0,0,0,1.434.426,2.331,2.331,0,0,0,1.316-.332A1.02,1.02,0,0,0,55.2,14.758Z" transform="translate(374.561 1894.438)" fill="#12263f"/>
    </g>
    <g id="Grupo_873998" data-name="Grupo 873998" transform="translate(389 1488.233)">
      <g id="Grupo_873998-2" data-name="Grupo 873998" clip-path="url(#clip-path)">
        <path id="Trazado_608952" data-name="Trazado 608952" d="M22.559,155.771a9.152,9.152,0,0,0-1.86-.087,3.279,3.279,0,0,0-2.936,1.747c-.03.052-.065.1-.113.178-.066-.075-.112-.133-.164-.185a5.463,5.463,0,0,0-3.079-1.623,18.09,18.09,0,0,0-2.549-.116,5.714,5.714,0,0,0-3.6,1.249c-.257.2-.491.427-.734.64-.012,0-.022-.006-.025-.011-.037-.063-.073-.127-.11-.191a3.16,3.16,0,0,0-2.262-1.619,10.689,10.689,0,0,0-1.765-.072A3.32,3.32,0,0,0,0,159.052q0,2.607,0,5.214a1.447,1.447,0,0,0,1.535,1.544q2.066,0,4.132,0h.274c.021.084.04.154.056.225a1.7,1.7,0,0,0,1.636,1.346q4.956.011,9.912,0a1.624,1.624,0,0,0,1.541-1.035,4.481,4.481,0,0,0,.168-.533h.258c1.377,0,2.755,0,4.132,0a1.491,1.491,0,0,0,1.494-1.12.874.874,0,0,1,.049-.109v-6a.565.565,0,0,1-.044-.109,3.237,3.237,0,0,0-2.585-2.7m-16.344,4.1a15.553,15.553,0,0,0-.247,1.645c-.041.924-.011,1.851-.011,2.805H1.476v-.261q0-2.471,0-4.941a1.855,1.855,0,0,1,1.974-1.967,9.309,9.309,0,0,1,1.4.048,1.779,1.779,0,0,1,1.492,1.759,6,6,0,0,1-.124.912m11.544,5.69c0,.275-.08.345-.381.345H7.841c-.359,0-.412-.053-.412-.412,0-1.278,0-2.556,0-3.835a4.465,4.465,0,0,1,4.51-4.5,13.251,13.251,0,0,1,2.251.106,4.411,4.411,0,0,1,3.563,4.22c.021,1.36.006,2.72.005,4.08m5.95-1.242H19.236c0-.086,0-.173,0-.259-.015-1.04-.008-2.081-.058-3.119a6.176,6.176,0,0,0-.258-1.22,1.939,1.939,0,0,1,1.123-2.447.792.792,0,0,1,.258-.074,14.6,14.6,0,0,1,1.956.014,1.726,1.726,0,0,1,1.444,1.668c.02,1.8.006,3.6.006,5.437" transform="translate(0 -145.445)" fill="#4a2efc"/>
        <path id="Trazado_608953" data-name="Trazado 608953" d="M130.819,0a4.28,4.28,0,1,0,4.263,4.284A4.286,4.286,0,0,0,130.819,0M130.8,7.084a2.8,2.8,0,1,1,2.8-2.8,2.813,2.813,0,0,1-2.8,2.8" transform="translate(-118.208 -0.001)" fill="#4a2efc"/>
        <path id="Trazado_608954" data-name="Trazado 608954" d="M21.452,47.915a2.7,2.7,0,1,0,2.7,2.711,2.713,2.713,0,0,0-2.7-2.711m-.021,3.934a1.229,1.229,0,1,1,1.244-1.221,1.233,1.233,0,0,1-1.244,1.221" transform="translate(-17.509 -44.766)" fill="#4a2efc"/>
        <path id="Trazado_608955" data-name="Trazado 608955" d="M284.92,47.915a2.7,2.7,0,1,0,2.715,2.694,2.714,2.714,0,0,0-2.715-2.694m0,3.934a1.229,1.229,0,1,1,1.24-1.225,1.233,1.233,0,0,1-1.24,1.225" transform="translate(-263.678 -44.766)" fill="#4a2efc"/>
        <path id="Trazado_608956" data-name="Trazado 608956" d="M119.318,311.384h0" transform="translate(-111.476 -290.92)" fill="#4a2efc"/>
      </g>
    </g>
  </g>
</svg>
