<svg xmlns="http://www.w3.org/2000/svg" xmlns:xlink="http://www.w3.org/1999/xlink" width="116" height="48" viewBox="0 0 116 48">
  <defs>
    <clipPath id="clip-path">
      <rect id="Rect치ngulo_292470" data-name="Rect치ngulo 292470" width="21.04" height="21.942" fill="#4a2efc"/>
    </clipPath>
  </defs>
  <g id="Grupo_874033" data-name="Grupo 874033" transform="translate(-902 -1475.204)">
    <g id="Grupo_870104" data-name="Grupo 870104" transform="translate(48 -405.233)">
      <rect id="Rect치ngulo_290791" data-name="Rect치ngulo 290791" width="116" height="48" transform="translate(854 1880.438)" fill="#fff"/>
      <path id="Trazado_609223" data-name="Trazado 609223" d="M5.086,15.008l3.25-9.383H9.977L5.758,17H4.43L.219,5.625H1.852Zm9.7,2.148a3.693,3.693,0,0,1-2.8-1.129,4.19,4.19,0,0,1-1.078-3.02v-.266a5.073,5.073,0,0,1,.48-2.246A3.748,3.748,0,0,1,12.73,8.949,3.378,3.378,0,0,1,14.6,8.391a3.166,3.166,0,0,1,2.563,1.086,4.7,4.7,0,0,1,.914,3.109v.6H12.352a3,3,0,0,0,.73,2.02,2.3,2.3,0,0,0,1.777.77,2.517,2.517,0,0,0,1.3-.312,3.259,3.259,0,0,0,.93-.828l.883.688A3.55,3.55,0,0,1,14.781,17.156ZM14.6,9.578a1.928,1.928,0,0,0-1.469.637A3.1,3.1,0,0,0,12.4,12h4.234v-.109a2.753,2.753,0,0,0-.594-1.707A1.815,1.815,0,0,0,14.6,9.578Zm6.516-1.031.047,1.063A3.08,3.08,0,0,1,23.7,8.391q2.68,0,2.7,3.023V17H24.953V11.406a1.946,1.946,0,0,0-.418-1.352,1.675,1.675,0,0,0-1.277-.437,2.086,2.086,0,0,0-1.234.375,2.546,2.546,0,0,0-.828.984V17H19.75V8.547ZM30.539,6.5V8.547h1.578V9.664H30.539v5.249a1.173,1.173,0,0,0,.211.763.888.888,0,0,0,.719.254,3.5,3.5,0,0,0,.688-.094V17a4.215,4.215,0,0,1-1.109.155,1.8,1.8,0,0,1-1.461-.586,2.517,2.517,0,0,1-.492-1.664V9.664H27.555V8.547h1.539V6.5ZM39.023,17a3.036,3.036,0,0,1-.2-.891,3.225,3.225,0,0,1-2.406,1.047,2.984,2.984,0,0,1-2.051-.707,2.287,2.287,0,0,1-.8-1.793,2.39,2.39,0,0,1,1-2.051,4.733,4.733,0,0,1,2.824-.73H38.8v-.664A1.623,1.623,0,0,0,38.344,10a1.821,1.821,0,0,0-1.336-.449,2.107,2.107,0,0,0-1.3.391,1.151,1.151,0,0,0-.523.945H33.734a2,2,0,0,1,.449-1.223A3.066,3.066,0,0,1,35.4,8.734a4.1,4.1,0,0,1,1.691-.344,3.342,3.342,0,0,1,2.289.73,2.635,2.635,0,0,1,.859,2.012v3.891a4.757,4.757,0,0,0,.3,1.852V17Zm-2.4-1.1a2.54,2.54,0,0,0,1.289-.352,2.127,2.127,0,0,0,.883-.914V12.9H37.664q-2.656,0-2.656,1.555a1.316,1.316,0,0,0,.453,1.063A1.742,1.742,0,0,0,36.625,15.9Zm10.8-1.141a1.064,1.064,0,0,0-.441-.91,4.249,4.249,0,0,0-1.539-.559,7.277,7.277,0,0,1-1.742-.562,2.479,2.479,0,0,1-.953-.781,1.869,1.869,0,0,1-.309-1.078,2.193,2.193,0,0,1,.879-1.758,3.432,3.432,0,0,1,2.246-.719,3.532,3.532,0,0,1,2.332.742,2.357,2.357,0,0,1,.895,1.9H47.344a1.3,1.3,0,0,0-.5-1.023,1.888,1.888,0,0,0-1.27-.43,1.976,1.976,0,0,0-1.234.344,1.082,1.082,0,0,0-.445.9.877.877,0,0,0,.414.789,5.1,5.1,0,0,0,1.5.508,7.8,7.8,0,0,1,1.754.578,2.558,2.558,0,0,1,1,.809,1.988,1.988,0,0,1,.324,1.152,2.163,2.163,0,0,1-.906,1.816,3.8,3.8,0,0,1-2.352.684,4.257,4.257,0,0,1-1.8-.359,2.922,2.922,0,0,1-1.223-1,2.42,2.42,0,0,1-.441-1.395H43.6a1.5,1.5,0,0,0,.582,1.152,2.258,2.258,0,0,0,1.434.426,2.331,2.331,0,0,0,1.316-.332A1.02,1.02,0,0,0,47.43,14.758Z" transform="translate(901.561 1894.438)" fill="#12263f"/>
    </g>
    <g id="Grupo_874001" data-name="Grupo 874001" transform="translate(916.532 1488.233)">
      <g id="Grupo_874001-2" data-name="Grupo 874001" clip-path="url(#clip-path)">
        <path id="Trazado_608960" data-name="Trazado 608960" d="M12.147,21.116c.323-.333.668-.645,1-.97a.721.721,0,0,1,.645-.211c.544.079,1.088.152,1.631.236a1.919,1.919,0,0,0,2.31-1.6c.109-.538.2-1.08.285-1.623a.838.838,0,0,1,.481-.681c.491-.245.974-.508,1.457-.77a1.914,1.914,0,0,0,.858-2.644c-.233-.489-.465-.979-.715-1.46a.851.851,0,0,1,0-.853c.241-.461.461-.933.689-1.4a1.926,1.926,0,0,0-.879-2.719c-.472-.252-.94-.511-1.418-.75a.823.823,0,0,1-.473-.663c-.08-.522-.173-1.041-.268-1.561A1.916,1.916,0,0,0,15.5,1.761c-.546.063-1.089.145-1.631.234a.808.808,0,0,1-.76-.235c-.393-.394-.8-.778-1.2-1.163A1.913,1.913,0,0,0,9.129.6Q8.51,1.19,7.9,1.79a.724.724,0,0,1-.643.216c-.544-.079-1.088-.152-1.631-.237A1.919,1.919,0,0,0,3.309,3.364c-.111.545-.2,1.094-.289,1.644a.825.825,0,0,1-.474.663c-.485.242-.96.5-1.438.76A1.921,1.921,0,0,0,.233,9.1c.238.5.477.989.725,1.479a.8.8,0,0,1,0,.776c-.252.5-.495,1-.734,1.5A1.915,1.915,0,0,0,1.086,15.5c.489.265.98.528,1.476.78a.785.785,0,0,1,.45.609c.086.521.182,1.04.267,1.561a1.926,1.926,0,0,0,2.275,1.73q.818-.1,1.631-.234a.788.788,0,0,1,.74.231c.317.319.654.618.967.941a2.517,2.517,0,0,0,1.413.825h.429a2.52,2.52,0,0,0,1.413-.825m-1.121-.682a.654.654,0,0,1-1.017,0c-.391-.376-.785-.75-1.169-1.133a2.022,2.022,0,0,0-1.811-.609c-.543.08-1.088.153-1.631.235a.659.659,0,0,1-.847-.589c-.1-.54-.2-1.08-.287-1.622a1.987,1.987,0,0,0-1.111-1.552c-.482-.247-.958-.506-1.437-.761a.669.669,0,0,1-.337-1.024c.24-.494.478-.989.724-1.48a1.958,1.958,0,0,0,0-1.849c-.249-.5-.491-1-.733-1.5a.662.662,0,0,1,.325-1c.491-.262.981-.525,1.475-.781A1.981,1.981,0,0,0,4.264,5.229c.086-.549.188-1.1.29-1.643a.654.654,0,0,1,.82-.575c.593.086,1.186.171,1.78.249A1.894,1.894,0,0,0,8.79,2.689Q9.4,2.1,10.006,1.512a.657.657,0,0,1,1.033.005c.391.376.786.749,1.169,1.133a2.016,2.016,0,0,0,1.856.6c.542-.087,1.087-.161,1.631-.237a.646.646,0,0,1,.789.565c.112.6.213,1.194.322,1.79a1.9,1.9,0,0,0,1.034,1.391c.5.265,1,.527,1.493.792a.665.665,0,0,1,.333,1.009c-.243.5-.485,1-.733,1.5a1.953,1.953,0,0,0,0,1.83q.376.757.744,1.518a.659.659,0,0,1-.32.982c-.421.226-.835.469-1.269.666a2.205,2.205,0,0,0-1.355,1.9c-.055.488-.161.971-.253,1.454a.642.642,0,0,1-.7.534c-.525-.074-1.086-.136-1.641-.235a2.057,2.057,0,0,0-1.951.611c-.374.383-.767.748-1.153,1.119" transform="translate(0 0.001)" fill="#4a2efc"/>
        <path id="Trazado_608961" data-name="Trazado 608961" d="M115.861,115.884a.6.6,0,0,0,.065-.664.6.6,0,0,0-.57-.348.76.76,0,0,0-.549.291q-4.065,4.068-8.132,8.134a1.516,1.516,0,0,0-.173.189.628.628,0,0,0,.5.995.742.742,0,0,0,.572-.29q4.065-4.068,8.132-8.134a1.739,1.739,0,0,0,.16-.173" transform="translate(-100.668 -108.706)" fill="#4a2efc"/>
        <path id="Trazado_608962" data-name="Trazado 608962" d="M107.993,102.9a2.319,2.319,0,1,0-2.305-2.343,2.32,2.32,0,0,0,2.305,2.343m.02-3.363a1.048,1.048,0,0,1,1.042,1.052,1.053,1.053,0,1,1-2.105-.02,1.05,1.05,0,0,1,1.063-1.032" transform="translate(-100.015 -92.987)" fill="#4a2efc"/>
        <path id="Trazado_608963" data-name="Trazado 608963" d="M204.6,226.436a2.317,2.317,0,1,0-2.316,2.336,2.31,2.31,0,0,0,2.316-2.336m-3.367.029a1.053,1.053,0,1,1,2.1-.019,1.053,1.053,0,0,1-2.1.019" transform="translate(-189.229 -212.106)" fill="#4a2efc"/>
      </g>
    </g>
  </g>
</svg>
