<svg xmlns="http://www.w3.org/2000/svg" xmlns:xlink="http://www.w3.org/1999/xlink" width="157" height="48" viewBox="0 0 157 48">
  <defs>
    <clipPath id="clip-path">
      <rect id="Rect치ngulo_292268" data-name="Rect치ngulo 292268" width="15.6" height="21.844" fill="#4a2efc"/>
    </clipPath>
  </defs>
  <g id="Grupo_874033" data-name="Grupo 874033" transform="translate(-919 -878.159)">
    <g id="Grupo_870108" data-name="Grupo 870108" transform="translate(65 -1002.278)">
      <rect id="Rect치ngulo_290791" data-name="Rect치ngulo 290791" width="157" height="48" transform="translate(854 1880.438)" fill="#fff"/>
      <path id="Trazado_609224" data-name="Trazado 609224" d="M9.18,6.852H5.523V17H4.031V6.852H.383V5.625h8.8Zm4.969,10.3a3.693,3.693,0,0,1-2.8-1.129,4.19,4.19,0,0,1-1.078-3.02v-.266a5.073,5.073,0,0,1,.48-2.246A3.748,3.748,0,0,1,12.1,8.949a3.378,3.378,0,0,1,1.871-.559,3.166,3.166,0,0,1,2.563,1.086,4.7,4.7,0,0,1,.914,3.109v.6H11.719a3,3,0,0,0,.73,2.02,2.3,2.3,0,0,0,1.777.77,2.517,2.517,0,0,0,1.3-.312,3.259,3.259,0,0,0,.93-.828l.883.688A3.55,3.55,0,0,1,14.148,17.156Zm-.18-7.578a1.928,1.928,0,0,0-1.469.637A3.1,3.1,0,0,0,11.766,12H16v-.109a2.753,2.753,0,0,0-.594-1.707A1.815,1.815,0,0,0,13.969,9.578Zm8.539,6.4a2.082,2.082,0,0,0,1.352-.469,1.649,1.649,0,0,0,.641-1.172h1.367a2.621,2.621,0,0,1-.5,1.383,3.293,3.293,0,0,1-1.23,1.047,3.55,3.55,0,0,1-1.629.391A3.482,3.482,0,0,1,19.762,16a4.59,4.59,0,0,1-1.02-3.152v-.242a5.089,5.089,0,0,1,.453-2.2,3.451,3.451,0,0,1,1.3-1.492,3.7,3.7,0,0,1,2-.531,3.39,3.39,0,0,1,2.363.852,3.043,3.043,0,0,1,1,2.211H24.5a1.992,1.992,0,0,0-.621-1.348A1.932,1.932,0,0,0,22.5,9.578a2.023,2.023,0,0,0-1.707.793,3.724,3.724,0,0,0-.605,2.293v.273a3.65,3.65,0,0,0,.6,2.25A2.033,2.033,0,0,0,22.508,15.977Zm6.352-7.43.047,1.063a3.08,3.08,0,0,1,2.531-1.219q2.68,0,2.7,3.023V17H32.7V11.406a1.946,1.946,0,0,0-.418-1.352A1.675,1.675,0,0,0,31,9.617a2.086,2.086,0,0,0-1.234.375,2.546,2.546,0,0,0-.828.984V17H27.492V8.547ZM35.938,12.7a4.993,4.993,0,0,1,.488-2.234A3.643,3.643,0,0,1,37.785,8.93a3.7,3.7,0,0,1,1.988-.539,3.565,3.565,0,0,1,2.793,1.2,4.6,4.6,0,0,1,1.066,3.18v.1a5.036,5.036,0,0,1-.473,2.215,3.589,3.589,0,0,1-1.352,1.527,3.743,3.743,0,0,1-2.02.547A3.556,3.556,0,0,1,37,15.961,4.575,4.575,0,0,1,35.938,12.8Zm1.453.172a3.616,3.616,0,0,0,.652,2.258,2.211,2.211,0,0,0,3.5-.012,3.955,3.955,0,0,0,.648-2.418,3.61,3.61,0,0,0-.66-2.254,2.1,2.1,0,0,0-1.754-.863,2.075,2.075,0,0,0-1.727.852A3.925,3.925,0,0,0,37.391,12.867ZM47.016,17H45.57V5h1.445Zm1.93-4.3a4.993,4.993,0,0,1,.488-2.234A3.643,3.643,0,0,1,50.793,8.93a3.7,3.7,0,0,1,1.988-.539,3.565,3.565,0,0,1,2.793,1.2,4.6,4.6,0,0,1,1.066,3.18v.1a5.036,5.036,0,0,1-.473,2.215,3.589,3.589,0,0,1-1.352,1.527,3.743,3.743,0,0,1-2.02.547,3.556,3.556,0,0,1-2.785-1.2A4.575,4.575,0,0,1,48.945,12.8Zm1.453.172a3.616,3.616,0,0,0,.652,2.258,2.211,2.211,0,0,0,3.5-.012A3.955,3.955,0,0,0,55.2,12.7a3.61,3.61,0,0,0-.66-2.254,2.1,2.1,0,0,0-1.754-.863,2.075,2.075,0,0,0-1.727.852A3.925,3.925,0,0,0,50.4,12.867ZM53.438,5h1.75L53.094,7.3l-1.164,0Zm4.672,7.7a4.968,4.968,0,0,1,.914-3.145,3.151,3.151,0,0,1,4.836-.074l.07-.937h1.32V16.8a3.439,3.439,0,0,1-.973,2.586,3.589,3.589,0,0,1-2.613.945,4.348,4.348,0,0,1-1.789-.391,3.08,3.08,0,0,1-1.336-1.07l.75-.867a2.826,2.826,0,0,0,2.273,1.148,2.214,2.214,0,0,0,1.645-.594,2.269,2.269,0,0,0,.59-1.672v-.727a2.971,2.971,0,0,1-2.367,1,2.887,2.887,0,0,1-2.4-1.2A5.224,5.224,0,0,1,58.109,12.7Zm1.453.164a3.79,3.79,0,0,0,.586,2.246,1.9,1.9,0,0,0,1.641.816A2.117,2.117,0,0,0,63.8,14.688V10.828A2.142,2.142,0,0,0,61.8,9.617a1.921,1.921,0,0,0-1.648.82A4.128,4.128,0,0,0,59.563,12.867ZM69,17H67.555V8.547H69ZM67.438,6.3a.863.863,0,0,1,.215-.594.807.807,0,0,1,.637-.242.819.819,0,0,1,.641.242.854.854,0,0,1,.219.594.826.826,0,0,1-.219.586.834.834,0,0,1-.641.234.821.821,0,0,1-.637-.234A.834.834,0,0,1,67.438,6.3ZM74.7,15.977a2.082,2.082,0,0,0,1.352-.469,1.649,1.649,0,0,0,.641-1.172h1.367a2.621,2.621,0,0,1-.5,1.383,3.293,3.293,0,0,1-1.23,1.047,3.55,3.55,0,0,1-1.629.391A3.482,3.482,0,0,1,71.957,16a4.59,4.59,0,0,1-1.02-3.152v-.242a5.089,5.089,0,0,1,.453-2.2,3.451,3.451,0,0,1,1.3-1.492,3.7,3.7,0,0,1,2-.531,3.39,3.39,0,0,1,2.363.852,3.043,3.043,0,0,1,1,2.211H76.7a1.992,1.992,0,0,0-.621-1.348A1.932,1.932,0,0,0,74.7,9.578a2.023,2.023,0,0,0-1.707.793,3.724,3.724,0,0,0-.605,2.293v.273a3.65,3.65,0,0,0,.6,2.25A2.033,2.033,0,0,0,74.7,15.977ZM79.3,12.7a4.993,4.993,0,0,1,.488-2.234A3.643,3.643,0,0,1,81.152,8.93a3.7,3.7,0,0,1,1.988-.539,3.565,3.565,0,0,1,2.793,1.2A4.6,4.6,0,0,1,87,12.766v.1a5.036,5.036,0,0,1-.473,2.215,3.589,3.589,0,0,1-1.352,1.527,3.743,3.743,0,0,1-2.02.547,3.556,3.556,0,0,1-2.785-1.2A4.575,4.575,0,0,1,79.3,12.8Zm1.453.172a3.616,3.616,0,0,0,.652,2.258,2.211,2.211,0,0,0,3.5-.012,3.955,3.955,0,0,0,.648-2.418,3.61,3.61,0,0,0-.66-2.254,2.1,2.1,0,0,0-1.754-.863,2.075,2.075,0,0,0-1.727.852A3.925,3.925,0,0,0,80.758,12.867Zm12.977,1.891a1.064,1.064,0,0,0-.441-.91,4.249,4.249,0,0,0-1.539-.559,7.277,7.277,0,0,1-1.742-.562,2.479,2.479,0,0,1-.953-.781,1.869,1.869,0,0,1-.309-1.078,2.193,2.193,0,0,1,.879-1.758,3.432,3.432,0,0,1,2.246-.719,3.532,3.532,0,0,1,2.332.742,2.357,2.357,0,0,1,.895,1.9H93.648a1.3,1.3,0,0,0-.5-1.023,1.888,1.888,0,0,0-1.27-.43,1.976,1.976,0,0,0-1.234.344,1.082,1.082,0,0,0-.445.9.877.877,0,0,0,.414.789,5.1,5.1,0,0,0,1.5.508,7.8,7.8,0,0,1,1.754.578,2.558,2.558,0,0,1,1,.809,1.988,1.988,0,0,1,.324,1.152,2.163,2.163,0,0,1-.906,1.816,3.8,3.8,0,0,1-2.352.684,4.257,4.257,0,0,1-1.8-.359,2.922,2.922,0,0,1-1.223-1,2.42,2.42,0,0,1-.441-1.395h1.445a1.5,1.5,0,0,0,.582,1.152,2.258,2.258,0,0,0,1.434.426,2.331,2.331,0,0,0,1.316-.332A1.02,1.02,0,0,0,93.734,14.758Z" transform="translate(901.561 1894.438)" fill="#12263f"/>
    </g>
    <g id="Grupo_873550" data-name="Grupo 873550" transform="translate(934.155 890.864)">
      <g id="Grupo_873550-2" data-name="Grupo 873550" clip-path="url(#clip-path)">
        <path id="Trazado_608310" data-name="Trazado 608310" d="M.05,8.244A7.061,7.061,0,0,0,.43,9.914a7.431,7.431,0,0,0,.823,1.644.29.29,0,0,1,.024.316,1.645,1.645,0,0,0-.146.964,1.728,1.728,0,0,0,1.655,1.477,1.688,1.688,0,0,0,1.36-.6,1.729,1.729,0,0,0-1.917-2.749.052.052,0,0,1-.073-.025,6.1,6.1,0,0,1-.441-.777,6.38,6.38,0,0,1-.425-4.248A6.385,6.385,0,0,1,5.5,1.4a7.109,7.109,0,0,1,1.559-.3A.532.532,0,0,0,7.535.808a.572.572,0,0,0-.32-.8A.033.033,0,0,0,7.2,0a3.34,3.34,0,0,0-.439,0C6.47.05,6.178.1,5.891.161A7.457,7.457,0,0,0,.008,7.321.193.193,0,0,1,0,7.359v.182a.253.253,0,0,1,.008.038c.014.222.02.444.042.665M2.845,11.96a.629.629,0,0,1,0,1.258.629.629,0,1,1,0-1.258" transform="translate(0 0)" fill="#4a2efc"/>
        <path id="Trazado_608311" data-name="Trazado 608311" d="M69.452,28.8a1.624,1.624,0,0,0-1.85-1.2c-.132.023-.26.066-.4.1a1.736,1.736,0,0,0-.8-.825,1.647,1.647,0,0,0-1.156-.111l.041-.027a7.292,7.292,0,0,0,2.719-2.97,7.462,7.462,0,0,0,.8-3.54,7.3,7.3,0,0,0-.1-1.106,7.2,7.2,0,0,0-.835-2.347c-.1-.176-.209-.346-.319-.515A.224.224,0,0,1,67.535,16c.006-.01.01-.021.015-.032a1.725,1.725,0,1,0-2.725.564,1.663,1.663,0,0,0,1.71.348c.1-.031.107-.03.162.054l.011.017a6.391,6.391,0,0,1,1.008,3.589,6.129,6.129,0,0,1-.343,1.941,6.245,6.245,0,0,1-2.534,3.244,6.547,6.547,0,0,1-1.441.687c-.138.048-.275.1-.418.15,0-.02,0-.035,0-.05,0-.605,0-1.21-.008-1.816a.229.229,0,0,1,.161-.248,4.163,4.163,0,0,0,1.488-1.058,4.357,4.357,0,0,0,1.084-3.865,4.146,4.146,0,0,0-1.29-2.336,4.31,4.31,0,0,0-3.946-1.133,4.181,4.181,0,0,0-2.176,1.15,4.484,4.484,0,0,0-1.367,3.306,3.538,3.538,0,0,0,.121.92,4.424,4.424,0,0,0,2.544,3.015.18.18,0,0,1,.122.185c0,.625,0,1.251,0,1.876q0,1.78,0,3.561v.057a3.174,3.174,0,0,1-.2-.283,2.681,2.681,0,0,0-.358-.482,1.677,1.677,0,0,0-2.532.195,1.64,1.64,0,0,0-.147,1.786c.443.919.9,1.829,1.355,2.744a2.468,2.468,0,0,0,.387.588.346.346,0,0,0,.268.121.5.5,0,0,0,.39-.149.478.478,0,0,0,.177-.472,1.275,1.275,0,0,0-.1-.294c-.45-.917-.9-1.832-1.356-2.749a2.764,2.764,0,0,1-.171-.4.542.542,0,0,1,.173-.625.59.59,0,0,1,.889.171c.43.7.856,1.411,1.287,2.115a.315.315,0,0,0,.119.119,1.606,1.606,0,0,0,.311.116.443.443,0,0,0,.578-.36,1.16,1.16,0,0,0,.023-.231c0-.31,0-.62,0-.931q0-3.624,0-7.248c0-.4,0-.8,0-1.2a1.754,1.754,0,0,1,.016-.242.626.626,0,0,1,.14-.351.528.528,0,0,1,.633-.088.547.547,0,0,1,.282.512q0,3.94,0,7.88a.929.929,0,0,0,.016.181.544.544,0,0,0,.873.338.574.574,0,0,0,.206-.474c0-.678,0-1.355,0-2.033a.88.88,0,0,1,.01-.131.533.533,0,0,1,1.061.077c.01.175.01.35.011.525,0,.5,0,.995,0,1.492a3.207,3.207,0,0,0,.011.348.535.535,0,0,0,.829.377.58.58,0,0,0,.253-.507c0-.747,0-1.494.007-2.24a.532.532,0,0,1,.5-.524.527.527,0,0,1,.556.453,2.616,2.616,0,0,1,.012.333c0,.666,0,1.332,0,2a.817.817,0,0,0,.019.17.539.539,0,0,0,.522.433.524.524,0,0,0,.533-.408,1.143,1.143,0,0,0,.021-.251c0-.373,0-.745,0-1.118a1.659,1.659,0,0,1,.017-.3.506.506,0,0,1,.363-.421.524.524,0,0,1,.549.139.552.552,0,0,1,.147.388c.008.214.008.428.009.642q0,.8,0,1.593,0,.971,0,1.942c0,.015,0,.03,0,.045,0,.246-.007.492,0,.738a.616.616,0,0,0,.362.59.841.841,0,0,0,.364.016l0,0a.667.667,0,0,0,.367-.587q0-2.5-.006-5a1.727,1.727,0,0,0-.05-.4M65.981,15.882a.63.63,0,1,1,0-1.261.63.63,0,0,1,0,1.261m-3.84,5.082a.056.056,0,0,1-.082.023,1.911,1.911,0,0,0-.595-.168,1.649,1.649,0,0,0-.721.118l-.125.047a.906.906,0,0,1-.206-.492.949.949,0,0,1,.825-1.045.961.961,0,0,1,1.077.8.947.947,0,0,1-.173.712m.754,1a.251.251,0,0,1,.051-.262,2.592,2.592,0,0,0,.259-.4,1.973,1.973,0,0,0,.014-1.789,1.942,1.942,0,0,0-1.542-1.146,2.058,2.058,0,0,0-2.364,2.154,1.922,1.922,0,0,0,.409,1.1.383.383,0,0,1,.077.356,3.434,3.434,0,0,0-.076.712c-.006.184-.009.367-.014.551,0,.013,0,.026,0,.048-.026-.011-.049-.019-.071-.03a2.442,2.442,0,0,1-.876-.763,3.681,3.681,0,0,1-.711-1.807,3.061,3.061,0,0,1,.292-1.676,3.226,3.226,0,0,1,2.344-1.867,3.176,3.176,0,0,1,2.968.835,3.323,3.323,0,0,1,.124,4.716,2.9,2.9,0,0,1-.737.577l-.057.03c0-.205,0-.4,0-.6a2.8,2.8,0,0,0-.06-.647.724.724,0,0,0-.026-.092" transform="translate(-53.908 -12.955)" fill="#4a2efc"/>
        <path id="Trazado_608312" data-name="Trazado 608312" d="M199.947,4.849A.544.544,0,1,0,199.4,4.3a.546.546,0,0,0,.547.546" transform="translate(-190.996 -3.601)" fill="#4a2efc"/>
      </g>
    </g>
  </g>
</svg>
