<svg xmlns="http://www.w3.org/2000/svg" xmlns:xlink="http://www.w3.org/1999/xlink" width="166" height="48" viewBox="0 0 166 48">
  <defs>
    <clipPath id="clip-path">
      <rect id="Rect치ngulo_292472" data-name="Rect치ngulo 292472" width="21.943" height="21.943" fill="#4a2efc"/>
    </clipPath>
  </defs>
  <g id="Grupo_874034" data-name="Grupo 874034" transform="translate(-1048 -1475.204)">
    <g id="Grupo_870103" data-name="Grupo 870103" transform="translate(44 -405.233)">
      <rect id="Rect치ngulo_290792" data-name="Rect치ngulo 290792" width="166" height="48" transform="translate(1004 1880.438)" fill="#fff"/>
      <path id="Trazado_609224" data-name="Trazado 609224" d="M9.688,13.391a4.185,4.185,0,0,1-1.332,2.785,4.365,4.365,0,0,1-2.98.98,4.008,4.008,0,0,1-3.23-1.445A5.815,5.815,0,0,1,.93,11.844V10.75A6.481,6.481,0,0,1,1.5,7.961,4.231,4.231,0,0,1,3.1,6.113a4.47,4.47,0,0,1,2.406-.645A4.11,4.11,0,0,1,8.414,6.48a4.235,4.235,0,0,1,1.273,2.8H8.18a3.268,3.268,0,0,0-.848-1.975A2.565,2.565,0,0,0,5.508,6.7,2.684,2.684,0,0,0,3.254,7.759a4.882,4.882,0,0,0-.816,3.026v1.1a5.018,5.018,0,0,0,.773,2.948A2.5,2.5,0,0,0,5.375,15.93a2.887,2.887,0,0,0,1.918-.566,3.143,3.143,0,0,0,.887-1.973Zm1.438-.7a4.993,4.993,0,0,1,.488-2.234A3.643,3.643,0,0,1,12.973,8.93a3.7,3.7,0,0,1,1.988-.539,3.565,3.565,0,0,1,2.793,1.2,4.6,4.6,0,0,1,1.066,3.18v.1a5.036,5.036,0,0,1-.473,2.215A3.589,3.589,0,0,1,17,16.609a3.743,3.743,0,0,1-2.02.547,3.556,3.556,0,0,1-2.785-1.2A4.575,4.575,0,0,1,11.125,12.8Zm1.453.172a3.616,3.616,0,0,0,.652,2.258,2.211,2.211,0,0,0,3.5-.012,3.955,3.955,0,0,0,.648-2.418,3.61,3.61,0,0,0-.66-2.254,2.1,2.1,0,0,0-1.754-.863,2.075,2.075,0,0,0-1.727.852A3.925,3.925,0,0,0,12.578,12.867Zm9.414-4.32.039.938a3.122,3.122,0,0,1,2.508-1.094A2.417,2.417,0,0,1,26.953,9.75a3.2,3.2,0,0,1,1.1-.984,3.242,3.242,0,0,1,1.6-.375q2.781,0,2.828,2.945V17H31.031V11.422a1.941,1.941,0,0,0-.414-1.355,1.823,1.823,0,0,0-1.391-.449,1.916,1.916,0,0,0-1.336.48,1.949,1.949,0,0,0-.617,1.293V17H25.82V11.461a1.613,1.613,0,0,0-1.8-1.844,1.934,1.934,0,0,0-1.945,1.211V17H20.625V8.547Zm19.8,4.32a5.062,5.062,0,0,1-.883,3.109,2.829,2.829,0,0,1-2.391,1.18A3.1,3.1,0,0,1,36.1,16.18v4.07H34.656V8.547h1.32l.07.938A2.977,2.977,0,0,1,38.5,8.391a2.882,2.882,0,0,1,2.41,1.148,5.117,5.117,0,0,1,.887,3.2ZM40.352,12.7a3.735,3.735,0,0,0-.609-2.258,1.963,1.963,0,0,0-1.672-.828A2.125,2.125,0,0,0,36.1,10.781V14.82a2.129,2.129,0,0,0,1.984,1.156,1.954,1.954,0,0,0,1.652-.824A4.077,4.077,0,0,0,40.352,12.7Zm6.789,4.453a3.693,3.693,0,0,1-2.8-1.129,4.19,4.19,0,0,1-1.078-3.02v-.266a5.073,5.073,0,0,1,.48-2.246A3.748,3.748,0,0,1,45.09,8.949a3.378,3.378,0,0,1,1.871-.559,3.166,3.166,0,0,1,2.563,1.086,4.7,4.7,0,0,1,.914,3.109v.6H44.711a3,3,0,0,0,.73,2.02,2.3,2.3,0,0,0,1.777.77,2.517,2.517,0,0,0,1.3-.312,3.259,3.259,0,0,0,.93-.828l.883.688A3.55,3.55,0,0,1,47.141,17.156Zm-.18-7.578a1.928,1.928,0,0,0-1.469.637A3.1,3.1,0,0,0,44.758,12h4.234v-.109a2.753,2.753,0,0,0-.594-1.707A1.815,1.815,0,0,0,46.961,9.578ZM54.07,6.5V8.547h1.578V9.664H54.07v5.249a1.173,1.173,0,0,0,.211.763A.888.888,0,0,0,55,15.93a3.5,3.5,0,0,0,.688-.094V17a4.215,4.215,0,0,1-1.109.155,1.8,1.8,0,0,1-1.461-.586,2.517,2.517,0,0,1-.492-1.664V9.664H51.086V8.547h1.539V6.5Zm6.773,10.656a3.693,3.693,0,0,1-2.8-1.129,4.19,4.19,0,0,1-1.078-3.02v-.266a5.073,5.073,0,0,1,.48-2.246,3.748,3.748,0,0,1,1.344-1.547,3.378,3.378,0,0,1,1.871-.559,3.166,3.166,0,0,1,2.563,1.086,4.7,4.7,0,0,1,.914,3.109v.6H58.414a3,3,0,0,0,.73,2.02,2.3,2.3,0,0,0,1.777.77,2.517,2.517,0,0,0,1.3-.312,3.259,3.259,0,0,0,.93-.828l.883.688A3.55,3.55,0,0,1,60.844,17.156Zm-.18-7.578a1.928,1.928,0,0,0-1.469.637A3.1,3.1,0,0,0,58.461,12H62.7v-.109a2.753,2.753,0,0,0-.594-1.707A1.815,1.815,0,0,0,60.664,9.578ZM67.18,8.547l.047,1.063a3.08,3.08,0,0,1,2.531-1.219q2.68,0,2.7,3.023V17H71.016V11.406a1.946,1.946,0,0,0-.418-1.352,1.675,1.675,0,0,0-1.277-.437,2.086,2.086,0,0,0-1.234.375,2.546,2.546,0,0,0-.828.984V17H65.813V8.547Zm10.852,7.43a2.082,2.082,0,0,0,1.352-.469,1.649,1.649,0,0,0,.641-1.172h1.367a2.621,2.621,0,0,1-.5,1.383,3.293,3.293,0,0,1-1.23,1.047,3.55,3.55,0,0,1-1.629.391A3.482,3.482,0,0,1,75.285,16a4.59,4.59,0,0,1-1.02-3.152v-.242a5.089,5.089,0,0,1,.453-2.2,3.451,3.451,0,0,1,1.3-1.492,3.7,3.7,0,0,1,2-.531,3.39,3.39,0,0,1,2.363.852,3.043,3.043,0,0,1,1,2.211H80.023a1.992,1.992,0,0,0-.621-1.348,1.932,1.932,0,0,0-1.379-.527,2.023,2.023,0,0,0-1.707.793,3.724,3.724,0,0,0-.605,2.293v.273a3.65,3.65,0,0,0,.6,2.25A2.033,2.033,0,0,0,78.031,15.977ZM84.586,17H83.141V8.547h1.445ZM83.023,6.3a.863.863,0,0,1,.215-.594.807.807,0,0,1,.637-.242.819.819,0,0,1,.641.242.854.854,0,0,1,.219.594.826.826,0,0,1-.219.586.834.834,0,0,1-.641.234.821.821,0,0,1-.637-.234A.834.834,0,0,1,83.023,6.3ZM92.117,17a3.036,3.036,0,0,1-.2-.891,3.225,3.225,0,0,1-2.406,1.047,2.984,2.984,0,0,1-2.051-.707,2.288,2.288,0,0,1-.8-1.793,2.39,2.39,0,0,1,1-2.051,4.733,4.733,0,0,1,2.824-.73h1.406v-.664A1.623,1.623,0,0,0,91.438,10,1.821,1.821,0,0,0,90.1,9.555a2.108,2.108,0,0,0-1.3.391,1.151,1.151,0,0,0-.523.945H86.828a2,2,0,0,1,.449-1.223A3.066,3.066,0,0,1,88.5,8.734a4.1,4.1,0,0,1,1.691-.344,3.342,3.342,0,0,1,2.289.73,2.635,2.635,0,0,1,.859,2.012v3.891a4.757,4.757,0,0,0,.3,1.852V17Zm-2.4-1.1a2.54,2.54,0,0,0,1.289-.352,2.127,2.127,0,0,0,.883-.914V12.9H90.758q-2.656,0-2.656,1.555a1.316,1.316,0,0,0,.453,1.063A1.742,1.742,0,0,0,89.719,15.9Zm10.8-1.141a1.064,1.064,0,0,0-.441-.91,4.249,4.249,0,0,0-1.539-.559,7.277,7.277,0,0,1-1.742-.562,2.479,2.479,0,0,1-.953-.781,1.869,1.869,0,0,1-.309-1.078,2.193,2.193,0,0,1,.879-1.758,3.432,3.432,0,0,1,2.246-.719A3.532,3.532,0,0,1,101,9.133a2.357,2.357,0,0,1,.895,1.9h-1.453a1.3,1.3,0,0,0-.5-1.023,1.888,1.888,0,0,0-1.27-.43,1.976,1.976,0,0,0-1.234.344,1.082,1.082,0,0,0-.445.9.877.877,0,0,0,.414.789,5.1,5.1,0,0,0,1.5.508,7.8,7.8,0,0,1,1.754.578,2.558,2.558,0,0,1,1,.809,1.988,1.988,0,0,1,.324,1.152,2.163,2.163,0,0,1-.906,1.816,3.8,3.8,0,0,1-2.352.684,4.257,4.257,0,0,1-1.8-.359,2.922,2.922,0,0,1-1.223-1A2.42,2.42,0,0,1,95.25,14.4H96.7a1.5,1.5,0,0,0,.582,1.152,2.258,2.258,0,0,0,1.434.426,2.331,2.331,0,0,0,1.316-.332A1.02,1.02,0,0,0,100.523,14.758Z" transform="translate(1051.561 1894.438)" fill="#12263f"/>
    </g>
    <g id="Grupo_874002" data-name="Grupo 874002" transform="translate(1062.119 1488.233)">
      <g id="Grupo_874003" data-name="Grupo 874003" clip-path="url(#clip-path)">
        <path id="Trazado_608984" data-name="Trazado 608984" d="M8.864,21.92a.718.718,0,0,0,.372-.62c.009-.193,0-.387,0-.58,0-.842,0-1.685,0-2.527q0-1.831,0-3.663c0-.05,0-.1,0-.149,0-.02,0-.039,0-.066h.076c.32,0,.64,0,.96,0a.615.615,0,0,0,.539-.241.721.721,0,0,0,.111-.431c0-.662,0-1.324,0-1.987q0-1.277,0-2.554c0-.311,0-.622-.006-.932a3.587,3.587,0,0,0-.05-.537,3.108,3.108,0,0,0-2.5-2.483c-.145-.025-.293-.04-.439-.06,0-.005,0-.01,0-.013a.289.289,0,0,1,.019-.028,3.069,3.069,0,0,0,.635-2.2,3.006,3.006,0,0,0-.9-1.914A3.094,3.094,0,0,0,5.762.02L5.57,0h-.2L5.143.025A3.089,3.089,0,0,0,3.313.87a3,3,0,0,0-.93,1.735,3.075,3.075,0,0,0,.578,2.406l.057.078c-.1.011-.193.02-.285.033A3.1,3.1,0,0,0,.054,7.734a3.717,3.717,0,0,0-.04.538c0,.615,0,1.23,0,1.845A.545.545,0,0,1,0,10.194v2.163a.449.449,0,0,1,.011.07c0,.41,0,.82,0,1.23a.957.957,0,0,0,.043.278.493.493,0,0,0,.462.365c.265.017.531.011.8.014.126,0,.252,0,.386,0v.078q0,2.656,0,5.313c0,.5,0,1.009,0,1.514a.752.752,0,0,0,.238.6,2.141,2.141,0,0,0,.174.127H8.842a.112.112,0,0,1,.022-.023M5.534,1.192A1.97,1.97,0,0,1,7.42,3.185,1.95,1.95,0,1,1,5.534,1.192m2.846,8.2a.561.561,0,0,0-.321.49c0,.049,0,.1,0,.149q0,5.306,0,10.613v.1H6.064v-.1q0-3.126,0-6.253a2.45,2.45,0,0,0-.02-.337.582.582,0,0,0-1.149,0,1.554,1.554,0,0,0-.015.215q0,3.194-.005,6.388v.089H2.882v-.1q0-5.33,0-10.66a.688.688,0,0,0-.12-.427A.592.592,0,0,0,1.7,9.88c0,.034,0,.068,0,.1q0,1.521,0,3.042v.086H1.192c0-.022,0-.046,0-.07q0-2,0-3.995c0-.315-.007-.631.013-.946A1.9,1.9,0,0,1,2.666,6.342a2.189,2.189,0,0,1,.521-.064q2.031-.009,4.062,0a7.806,7.806,0,0,1,.782.028A1.872,1.872,0,0,1,9.706,7.9a3.4,3.4,0,0,1,.04.511q0,2.308,0,4.617v.084H9.241v-.09q0-.977,0-1.954,0-.544,0-1.088a.615.615,0,0,0-.265-.553.567.567,0,0,0-.591-.036" fill="#4a2efc"/>
        <path id="Trazado_608985" data-name="Trazado 608985" d="M284.192,18.982a.805.805,0,0,0-.478-.139c-.523,0-1.045,0-1.568,0h-3.251a1.678,1.678,0,0,0-.229.016.524.524,0,0,0-.48.458,1.743,1.743,0,0,0-.026.3q0,2.352,0,4.7a2.314,2.314,0,0,0,.014.249.538.538,0,0,0,.488.519,1.8,1.8,0,0,0,.289.023q2.166,0,4.333,0c.153,0,.307,0,.459,0a.761.761,0,0,0,.534-.211,2.287,2.287,0,0,0,.156-.192V19.269a.871.871,0,0,0-.241-.287m-.968,4.935h-3.859V20.05h3.859Z" transform="translate(-262.49 -17.781)" fill="#4a2efc"/>
        <path id="Trazado_608986" data-name="Trazado 608986" d="M283.626,259.3c-.209.005-.419,0-.628,0h-4.076a1.881,1.881,0,0,0-.249.016.528.528,0,0,0-.487.459,1.6,1.6,0,0,0-.025.289q0,2.376,0,4.752a1.907,1.907,0,0,0,.014.229.537.537,0,0,0,.434.5,1.258,1.258,0,0,0,.275.029c.572,0,1.145,0,1.717,0q1.561,0,3.123,0a.735.735,0,0,0,.648-.324l.063-.094v-5.449a.823.823,0,0,0-.806-.413m-.4,5.075h-3.861v-3.861h3.861Z" transform="translate(-262.49 -244.693)" fill="#4a2efc"/>
        <path id="Trazado_608987" data-name="Trazado 608987" d="M284.42,139.616a.7.7,0,0,0-.7-.42l-.669,0H278.92c-.076,0-.153,0-.229.012a.53.53,0,0,0-.508.46,1.435,1.435,0,0,0-.022.275q0,2.386,0,4.772a1.9,1.9,0,0,0,.014.229.528.528,0,0,0,.454.491,1.486,1.486,0,0,0,.269.02c.876,0,1.753,0,2.629,0,.732,0,1.464,0,2.2.006a.7.7,0,0,0,.566-.221,2.014,2.014,0,0,0,.145-.218v-5.394s-.011-.008-.013-.013m-1.191,4.644h-3.862V140.4h3.862Z" transform="translate(-262.49 -131.355)" fill="#4a2efc"/>
        <path id="Trazado_608988" data-name="Trazado 608988" d="M206.117,274.379q-.368-.011-.736-.009c-.59,0-1.18,0-1.769.014a.622.622,0,0,0-.576.361.6.6,0,0,0,.555.813c.416,0,.833,0,1.25,0v0h.493c.268,0,.536,0,.8-.007a.565.565,0,0,0,.493-.273.588.588,0,0,0,.01-.611.571.571,0,0,0-.522-.293" transform="translate(-191.557 -258.913)" fill="#4a2efc"/>
        <path id="Trazado_608989" data-name="Trazado 608989" d="M206.484,146.86a.756.756,0,0,0-.42-.1h-1.71c-.254,0-.509,0-.763.007a.564.564,0,0,0-.5.3.593.593,0,0,0,.539.871c.788,0,1.577,0,2.365,0a1.642,1.642,0,0,0,.262-.016.559.559,0,0,0,.47-.451.573.573,0,0,0-.242-.613" transform="translate(-191.581 -138.489)" fill="#4a2efc"/>
        <path id="Trazado_608990" data-name="Trazado 608990" d="M206.3,304.63a1.135,1.135,0,0,0-.28-.032q-1.135,0-2.271,0a1.888,1.888,0,0,0-.2.011.58.58,0,0,0-.5.8.631.631,0,0,0,.607.373h1.217v0c.322,0,.644,0,.967,0a2.385,2.385,0,0,0,.443-.03.58.58,0,0,0,.02-1.122" transform="translate(-191.564 -287.437)" fill="#4a2efc"/>
        <path id="Trazado_608991" data-name="Trazado 608991" d="M203.625,35.053l.311,0c.311,0,.622,0,.933,0,.415,0,.829,0,1.243,0a.612.612,0,0,0,.479-.2.58.58,0,0,0,.1-.615.543.543,0,0,0-.5-.357c-.183-.017-.369-.013-.553-.013q-.757,0-1.514,0c-.187,0-.374,0-.56.013a.586.586,0,0,0,.063,1.17" transform="translate(-191.574 -31.962)" fill="#4a2efc"/>
        <path id="Trazado_608992" data-name="Trazado 608992" d="M204.8,63.96c-.39,0-.779,0-1.169,0a.589.589,0,1,0-.015,1.177c.4.006.8,0,1.2,0,.435,0,.87,0,1.3,0a.589.589,0,1,0-.012-1.177c-.412,0-.825,0-1.237,0v0H204.8" transform="translate(-191.57 -60.357)" fill="#4a2efc"/>
        <path id="Trazado_608993" data-name="Trazado 608993" d="M206.265,177.98a.563.563,0,0,0,.469-.507.554.554,0,0,0-.353-.6.918.918,0,0,0-.3-.051c-.4-.006-.8,0-1.2,0h-1.034a2.611,2.611,0,0,0-.27,0,.568.568,0,0,0-.523.384.561.561,0,0,0,.146.626.642.642,0,0,0,.471.167h2.412a1.032,1.032,0,0,0,.181-.016" transform="translate(-191.579 -166.854)" fill="#4a2efc"/>
        <path id="Trazado_608994" data-name="Trazado 608994" d="M205.248,94.07H204.1c-.13,0-.259,0-.389,0a.991.991,0,0,0-.22.028.565.565,0,0,0-.446.542.559.559,0,0,0,.4.571.99.99,0,0,0,.291.046c.507,0,1.014,0,1.52,0a.925.925,0,0,0,.22-.029.558.558,0,0,0,.435-.463.565.565,0,0,0-.262-.6.738.738,0,0,0-.4-.1" transform="translate(-191.608 -88.77)" fill="#4a2efc"/>
        <path id="Trazado_608995" data-name="Trazado 608995" d="M214.885,94.072c.13,0,.259,0,.389,0-.13,0-.259,0-.389,0" transform="translate(-202.78 -88.77)" fill="#4a2efc"/>
        <path id="Trazado_608996" data-name="Trazado 608996" d="M205.324,334.724c-.275,0-.55,0-.824,0h0c-.291,0-.581-.007-.872,0a.576.576,0,0,0-.574.545.6.6,0,0,0,.618.631c.264,0,.527,0,.791,0,.284,0,.568,0,.852,0a.583.583,0,0,0,.611-.593.57.57,0,0,0-.6-.584" transform="translate(-191.614 -315.865)" fill="#4a2efc"/>
        <path id="Trazado_608997" data-name="Trazado 608997" d="M203.608,206.766a.588.588,0,1,0,.054,1.175c.27,0,.541,0,.811,0v0c.288,0,.577.008.865,0a.546.546,0,0,0,.519-.339.577.577,0,0,0-.526-.831c-.574-.019-1.149-.01-1.723,0" transform="translate(-191.596 -195.11)" fill="#4a2efc"/>
        <path id="Trazado_608998" data-name="Trazado 608998" d="M308.122,55.605a.554.554,0,0,0,.8-.018q.609-.6,1.213-1.213a.586.586,0,0,0-.734-.9,1.363,1.363,0,0,0-.2.169c-.232.226-.462.454-.7.686-.055-.058-.11-.121-.17-.177a.583.583,0,0,0-.52-.166.565.565,0,0,0-.457.394.549.549,0,0,0,.126.583c.209.221.423.436.645.644" transform="translate(-290.004 -50.367)" fill="#4a2efc"/>
        <path id="Trazado_608999" data-name="Trazado 608999" d="M308.148,296.615a.532.532,0,0,0,.751-.014q.635-.625,1.261-1.26a.5.5,0,0,0,.1-.6.612.612,0,0,0-.976-.18c-.017.015-.033.03-.05.046l-.492.482-.212.209c-.086-.069-.168-.136-.251-.2a.584.584,0,0,0-.79.056.572.572,0,0,0-.019.785q.327.35.679.676" transform="translate(-290.01 -277.81)" fill="#4a2efc"/>
        <path id="Trazado_609000" data-name="Trazado 609000" d="M308.755,170.545l.184.189c-.121.119-.246.233-.362.356a1.047,1.047,0,0,0-.164.221.576.576,0,0,0,.525.853.666.666,0,0,0,.452-.217c.129-.131.252-.269.381-.407l.226.243a1.278,1.278,0,0,0,.419.334.574.574,0,0,0,.8-.532.7.7,0,0,0-.215-.467c-.124-.137-.253-.268-.385-.407.057-.054.128-.114.191-.181a2.528,2.528,0,0,0,.33-.372.571.571,0,0,0-.349-.846.6.6,0,0,0-.6.179c-.138.135-.266.28-.41.434a.423.423,0,0,0-.038-.055c-.132-.139-.257-.285-.4-.413a.58.58,0,0,0-.883.078.6.6,0,0,0,.06.758c.077.088.164.167.246.251" transform="translate(-290.97 -159.754)" fill="#4a2efc"/>
      </g>
    </g>
  </g>
</svg>
