<svg xmlns="http://www.w3.org/2000/svg" xmlns:xlink="http://www.w3.org/1999/xlink" width="24.361" height="21.942" viewBox="0 0 24.361 21.942"><defs><clipPath id="a"><rect width="24.361" height="21.942" fill="#4a2efc"/></clipPath></defs><g clip-path="url(#a)"><path d="M24.361,2.565V19.392a.557.557,0,0,0-.036.071c-.054.159-.11.318-.16.478a2.8,2.8,0,0,1-2.756,2q-9.134,0-18.268,0c-.138,0-.277,0-.414-.014a2.755,2.755,0,0,1-1.87-.849,2.957,2.957,0,0,1-.839-1.935C0,18.785.006,18.425.005,18.065Q0,16.009,0,13.953,0,8.43,0,2.907a2.974,2.974,0,0,1,.033-.443A2.927,2.927,0,0,1,2.357.06c.125-.024.251-.04.377-.06H21.569c.1.015.2.026.3.045a2.855,2.855,0,0,1,2.355,2.045c.051.157.09.317.135.476M12.175,20.886H20.98c.206,0,.413,0,.618-.017a1.807,1.807,0,0,0,1.261-.645A1.948,1.948,0,0,0,23.3,18.93q0-7.933,0-15.866a2.4,2.4,0,0,0-.023-.376A1.789,1.789,0,0,0,22,1.16a2.875,2.875,0,0,0-.924-.1l-18.011,0a2.69,2.69,0,0,0-.405.028,1.8,1.8,0,0,0-1.279.782A1.969,1.969,0,0,0,1.056,3q0,7.956,0,15.912a2.617,2.617,0,0,0,.033.405,1.807,1.807,0,0,0,1.565,1.532,6.193,6.193,0,0,0,.782.031q4.369,0,8.738,0" fill="#4a2efc"/><path d="M35.983,68.241h-2.1q-2.407,0-4.814,0c-.734,0-1.468.013-2.2.013a1.4,1.4,0,0,1-1.325-.747,1.536,1.536,0,0,1-.177-.748c0-1.222.006-2.444.007-3.666q0-4.474,0-8.948c0-.538,0-1.076,0-1.614A1.622,1.622,0,0,1,25.5,51.9a1.219,1.219,0,0,1,.986-.748,2.313,2.313,0,0,1,.39-.031q9.084,0,18.169,0a1.849,1.849,0,0,1,.623.1,1.2,1.2,0,0,1,.816.988,2.472,2.472,0,0,1,.038.442q0,7.039,0,14.078a1.771,1.771,0,0,1-.167.826,1.233,1.233,0,0,1-.99.665A2.589,2.589,0,0,1,45,68.24H35.983m-5.778-6.9-.072.032q-1.8.9-3.6,1.793a.165.165,0,0,0-.1.171q0,1.716,0,3.433a1.267,1.267,0,0,0,.017.195.211.211,0,0,0,.188.2,1.6,1.6,0,0,0,.225.019H45.106c.273-.007.338-.069.36-.342,0-.015,0-.03,0-.045q0-1.72.006-3.44a.193.193,0,0,0-.123-.2c-.148-.069-.293-.144-.439-.216L41.8,61.388l-.093-.044c0,.024-.005.038-.005.052,0,.309-.006.618,0,.927a.713.713,0,0,1-.4.707q-2.459,1.32-4.915,2.648a.843.843,0,0,1-.87,0q-2.141-1.164-4.289-2.315c-.208-.112-.417-.221-.625-.333a.715.715,0,0,1-.406-.7c0-.133.008-.266.009-.4,0-.19,0-.381,0-.585m5.218-9.167H26.835a1.259,1.259,0,0,0-.224.026.172.172,0,0,0-.15.149,1.854,1.854,0,0,0-.029.284q0,4.655,0,9.309v.089c.029-.013.05-.021.069-.03q1.8-.9,3.607-1.8a.154.154,0,0,0,.1-.16c0-.717,0-1.433,0-2.15,0-.274,0-.548-.009-.822a.769.769,0,0,1,.451-.773c1.123-.595,2.24-1.2,3.359-1.8q.644-.346,1.285-.7c.067-.036.125-.074.124-.169,0-.349.005-.7.008-1.048,0-.135,0-.271,0-.414m1.057,0c0,.04,0,.07,0,.1,0,.415,0,.83,0,1.245a.289.289,0,0,0,.156.308q1.681.9,3.358,1.8c.429.231.86.458,1.289.689a.757.757,0,0,1,.425.725q-.007.4-.008.807c0,.707,0,1.413,0,2.12a.265.265,0,0,0,.172.274c.347.165.69.337,1.034.509L45.379,62l.09.042v-.1q0-4.658,0-9.317a1.775,1.775,0,0,0-.022-.247.2.2,0,0,0-.17-.177,1.239,1.239,0,0,0-.217-.023H36.48Zm-5.22,5.578c0,.037,0,.059,0,.082q0,2.1,0,4.209a.2.2,0,0,0,.122.2q1.982,1.062,3.961,2.128c.021.011.043.021.079.039,0-.04,0-.067,0-.094q0-1.263,0-2.527c0-.543,0-1.086.005-1.629a.244.244,0,0,0-.151-.247q-1.634-.874-3.263-1.756l-.754-.405m5.219,6.663.081-.04q1.974-1.061,3.949-2.12a.232.232,0,0,0,.137-.233c0-.7-.006-1.4-.006-2.1s0-1.378,0-2.067v-.1l-.1.051q-1.961,1.053-3.923,2.1a.237.237,0,0,0-.14.239q0,2.086,0,4.172Zm3.574-7.547-.1-.056q-1.909-1.031-3.817-2.064a.347.347,0,0,0-.367,0q-1.918,1.039-3.838,2.072l-.082.047.049.029L35.822,59a.259.259,0,0,0,.264,0l3.392-1.821.575-.311" transform="translate(-23.772 -47.906)" fill="#4a2efc"/><path d="M246.11,25.558c.9,0,1.805,0,2.708,0a.977.977,0,0,1,.289.039.505.505,0,0,1,.346.554.521.521,0,0,1-.482.453c-.246.01-.492.009-.738.009q-2.417,0-4.835,0a.934.934,0,0,1-.267-.037.519.519,0,0,1,.121-1.009c.068-.005.135-.008.2-.008h2.655" transform="translate(-227.509 -23.95)" fill="#4a2efc"/><path d="M83.609,26.687a.529.529,0,0,1-.526-.528.527.527,0,0,1,1.054,0,.532.532,0,0,1-.528.527" transform="translate(-77.859 -24.029)" fill="#4a2efc"/><path d="M32.588,26.687a.516.516,0,0,1-.509-.532.5.5,0,0,1,.523-.514.526.526,0,0,1,.526.521.534.534,0,0,1-.539.526" transform="translate(-30.062 -24.029)" fill="#4a2efc"/><path d="M58.12,25.641a.515.515,0,0,1,.528.522.526.526,0,0,1-.529.525.52.52,0,0,1-.517-.534.507.507,0,0,1,.519-.513" transform="translate(-53.979 -24.029)" fill="#4a2efc"/></g></svg>