<svg xmlns="http://www.w3.org/2000/svg" xmlns:xlink="http://www.w3.org/1999/xlink" width="23.693" height="21.943" viewBox="0 0 23.693 21.943"><defs><clipPath id="a"><rect width="23.693" height="21.943" fill="#4a2efc"/></clipPath></defs><g clip-path="url(#a)"><path d="M23.493,21.942c.066,0,.133-.009.2-.013V17.568H21.335V8.775H19.1V0H8.922V8.792H2.355v8.8H0v4.352c.031,0,.062,0,.092,0h23.4m-5.081-11.76h1.526v7.374H12.561V10.187h1.513v3h4.338Zm-2.933,0h1.539V11.8H15.479ZM13.25,1.395h1.53V3H13.25Zm-2.919,0h1.514v3h4.339v-3H17.7V8.768H10.331ZM6.686,10.178H8.224V11.8H6.686Zm-2.917,0H5.279v3H9.624v-3h1.518v7.379H3.769ZM1.4,18.982H22.31v1.555H1.4Z" fill="#4a2efc"/></g></svg>