<svg xmlns="http://www.w3.org/2000/svg" xmlns:xlink="http://www.w3.org/1999/xlink" width="137" height="40" viewBox="0 0 137 40">
  <defs>
    <clipPath id="clip-path">
      <rect id="Rect치ngulo_292265" data-name="Rect치ngulo 292265" width="19.63" height="21.943" fill="#4a2efc"/>
    </clipPath>
  </defs>
  <g id="Grupo_874033" data-name="Grupo 874033" transform="translate(-751 -878.159)">
    <g id="Grupo_870112" data-name="Grupo 870112" transform="translate(72 -1002.278)">
      <rect id="Rect치ngulo_290790" data-name="Rect치ngulo 290790" width="137" height="40" transform="translate(679 1880.438)" fill="#fff"/>
      <path id="Trazado_609220" data-name="Trazado 609220" d="M3.258,5.625l3.719,9.281L10.7,5.625h1.945V17h-1.5V12.57l.141-4.781L7.547,17H6.4L2.672,7.813,2.82,12.57V17H1.32V5.625ZM20.281,17a3.036,3.036,0,0,1-.2-.891,3.225,3.225,0,0,1-2.406,1.047,2.984,2.984,0,0,1-2.051-.707,2.287,2.287,0,0,1-.8-1.793,2.39,2.39,0,0,1,1-2.051,4.733,4.733,0,0,1,2.824-.73h1.406v-.664A1.623,1.623,0,0,0,19.6,10a1.821,1.821,0,0,0-1.336-.449,2.107,2.107,0,0,0-1.3.391,1.151,1.151,0,0,0-.523.945H14.992a2,2,0,0,1,.449-1.223,3.066,3.066,0,0,1,1.219-.934,4.1,4.1,0,0,1,1.691-.344,3.342,3.342,0,0,1,2.289.73,2.635,2.635,0,0,1,.859,2.012v3.891a4.757,4.757,0,0,0,.3,1.852V17Zm-2.4-1.1a2.54,2.54,0,0,0,1.289-.352,2.127,2.127,0,0,0,.883-.914V12.9H18.922q-2.656,0-2.656,1.555a1.316,1.316,0,0,0,.453,1.063A1.742,1.742,0,0,0,17.883,15.9Zm7.844-9.4V8.547H27.3V9.664H25.727v5.249a1.173,1.173,0,0,0,.211.763.888.888,0,0,0,.719.254,3.5,3.5,0,0,0,.688-.094V17a4.215,4.215,0,0,1-1.109.155,1.8,1.8,0,0,1-1.461-.586,2.517,2.517,0,0,1-.492-1.664V9.664H22.742V8.547h1.539V6.5ZM32.5,17.156a3.693,3.693,0,0,1-2.8-1.129,4.19,4.19,0,0,1-1.078-3.02v-.266a5.073,5.073,0,0,1,.48-2.246,3.748,3.748,0,0,1,1.344-1.547,3.378,3.378,0,0,1,1.871-.559,3.166,3.166,0,0,1,2.563,1.086,4.7,4.7,0,0,1,.914,3.109v.6H30.07a3,3,0,0,0,.73,2.02,2.3,2.3,0,0,0,1.777.77,2.517,2.517,0,0,0,1.3-.312,3.259,3.259,0,0,0,.93-.828l.883.688A3.55,3.55,0,0,1,32.5,17.156Zm-.18-7.578a1.928,1.928,0,0,0-1.469.637A3.1,3.1,0,0,0,30.117,12h4.234v-.109a2.753,2.753,0,0,0-.594-1.707A1.815,1.815,0,0,0,32.32,9.578Zm9.234.266a4.331,4.331,0,0,0-.711-.055A1.9,1.9,0,0,0,38.914,11v6H37.469V8.547h1.406l.023.977a2.251,2.251,0,0,1,2.016-1.133,1.477,1.477,0,0,1,.641.109ZM44.453,17H43.008V8.547h1.445ZM42.891,6.3a.863.863,0,0,1,.215-.594.807.807,0,0,1,.637-.242.819.819,0,0,1,.641.242A.854.854,0,0,1,44.6,6.3a.826.826,0,0,1-.219.586.834.834,0,0,1-.641.234.821.821,0,0,1-.637-.234A.834.834,0,0,1,42.891,6.3ZM51.984,17a3.036,3.036,0,0,1-.2-.891,3.225,3.225,0,0,1-2.406,1.047,2.984,2.984,0,0,1-2.051-.707,2.287,2.287,0,0,1-.8-1.793,2.39,2.39,0,0,1,1-2.051,4.733,4.733,0,0,1,2.824-.73h1.406v-.664A1.623,1.623,0,0,0,51.3,10a1.821,1.821,0,0,0-1.336-.449,2.107,2.107,0,0,0-1.3.391,1.151,1.151,0,0,0-.523.945H46.7a2,2,0,0,1,.449-1.223,3.066,3.066,0,0,1,1.219-.934,4.1,4.1,0,0,1,1.691-.344,3.342,3.342,0,0,1,2.289.73,2.635,2.635,0,0,1,.859,2.012v3.891a4.757,4.757,0,0,0,.3,1.852V17Zm-2.4-1.1a2.54,2.54,0,0,0,1.289-.352,2.127,2.127,0,0,0,.883-.914V12.9H50.625q-2.656,0-2.656,1.555a1.316,1.316,0,0,0,.453,1.063A1.742,1.742,0,0,0,49.586,15.9ZM57.039,17H55.594V5h1.445Zm5.82.156a3.693,3.693,0,0,1-2.8-1.129,4.19,4.19,0,0,1-1.078-3.02v-.266a5.073,5.073,0,0,1,.48-2.246,3.748,3.748,0,0,1,1.344-1.547,3.378,3.378,0,0,1,1.871-.559,3.166,3.166,0,0,1,2.563,1.086,4.7,4.7,0,0,1,.914,3.109v.6H60.43a3,3,0,0,0,.73,2.02,2.3,2.3,0,0,0,1.777.77,2.517,2.517,0,0,0,1.3-.312,3.259,3.259,0,0,0,.93-.828l.883.688A3.55,3.55,0,0,1,62.859,17.156Zm-.18-7.578a1.928,1.928,0,0,0-1.469.637A3.1,3.1,0,0,0,60.477,12h4.234v-.109a2.753,2.753,0,0,0-.594-1.707A1.815,1.815,0,0,0,62.68,9.578Zm10.07,5.18a1.064,1.064,0,0,0-.441-.91,4.249,4.249,0,0,0-1.539-.559,7.277,7.277,0,0,1-1.742-.562,2.479,2.479,0,0,1-.953-.781,1.869,1.869,0,0,1-.309-1.078,2.193,2.193,0,0,1,.879-1.758,3.432,3.432,0,0,1,2.246-.719,3.532,3.532,0,0,1,2.332.742,2.357,2.357,0,0,1,.895,1.9H72.664a1.3,1.3,0,0,0-.5-1.023,1.888,1.888,0,0,0-1.27-.43,1.976,1.976,0,0,0-1.234.344,1.082,1.082,0,0,0-.445.9.877.877,0,0,0,.414.789,5.1,5.1,0,0,0,1.5.508,7.8,7.8,0,0,1,1.754.578,2.558,2.558,0,0,1,1,.809,1.988,1.988,0,0,1,.324,1.152,2.163,2.163,0,0,1-.906,1.816,3.8,3.8,0,0,1-2.352.684,4.257,4.257,0,0,1-1.8-.359,2.922,2.922,0,0,1-1.223-1,2.42,2.42,0,0,1-.441-1.395h1.445a1.5,1.5,0,0,0,.582,1.152,2.258,2.258,0,0,0,1.434.426,2.331,2.331,0,0,0,1.316-.332A1.02,1.02,0,0,0,72.75,14.758Z" transform="translate(726.561 1890.289)" fill="#12263f"/>
    </g>
    <g id="Grupo_873546" data-name="Grupo 873546" transform="translate(765.978 890.766)">
      <g id="Grupo_873547" data-name="Grupo 873547" clip-path="url(#clip-path)">
        <path id="Trazado_608292" data-name="Trazado 608292" d="M19.58,14.848a2.31,2.31,0,0,0-1.108-1.571.228.228,0,0,1-.123-.22c0-.788,0-1.577,0-2.365,0-.6,0-1.2,0-1.8a.236.236,0,0,1,.127-.231,2.26,2.26,0,0,0,.867-.879,2.3,2.3,0,0,0-.049-2.3,2.212,2.212,0,0,0-1.886-1.151,2.351,2.351,0,0,0-1.3.3.18.18,0,0,1-.192,0q-1.835-1.056-3.672-2.11a.2.2,0,0,1-.106-.186A2.327,2.327,0,0,0,11.4.621,2.642,2.642,0,0,0,10.13.006a2.789,2.789,0,0,0-.738.04c-.107.037-.219.059-.325.1A2.236,2.236,0,0,0,7.8,1.15,2.492,2.492,0,0,0,7.479,2.3a.27.27,0,0,1-.151.248q-1.8,1.039-3.6,2.085a.207.207,0,0,1-.231,0,2.284,2.284,0,0,0-2.29-.015A2.331,2.331,0,0,0,1.164,8.67a.2.2,0,0,1,.11.213c0,.036,0,.072,0,.108q0,2.025.006,4.05a.255.255,0,0,1-.138.247,2.331,2.331,0,0,0,2.332,4.036.254.254,0,0,1,.286,0q1.613.938,3.231,1.869c.123.071.247.142.369.216a.237.237,0,0,1,.133.241,1.067,1.067,0,0,0,.033.4,2.326,2.326,0,0,0,1.827,1.834c.1.025.212.035.318.052h.272c.115-.018.231-.032.346-.055a2.321,2.321,0,0,0,1.829-1.942,2.725,2.725,0,0,0,.027-.338.207.207,0,0,1,.12-.194q.877-.5,1.752-1.009.937-.541,1.872-1.087a.226.226,0,0,1,.256,0A2.335,2.335,0,0,0,19.6,15.624c.013-.082.021-.164.031-.246v-.19c0-.019-.01-.038-.012-.057-.012-.094-.018-.19-.037-.282M17.307,5.186a1.474,1.474,0,1,1-1.5,1.467,1.478,1.478,0,0,1,1.5-1.467m.16,7.762H17.1V8.993h.363ZM11.933,3.333l3.43,1.98-.2.352-3.43-1.981.2-.352M9.819.868A1.475,1.475,0,1,1,8.337,2.35,1.477,1.477,0,0,1,9.819.868M7.69,3.334l.2.352L4.464,5.667l-.2-.352L7.69,3.334M.862,6.652a1.482,1.482,0,0,1,1.5-1.466A1.464,1.464,0,0,1,3.811,6.66,1.479,1.479,0,0,1,2.346,8.135,1.5,1.5,0,0,1,.862,6.652m1.482,10.1A1.478,1.478,0,0,1,.862,15.282,1.5,1.5,0,0,1,2.346,13.8,1.483,1.483,0,0,1,3.811,15.28a1.46,1.46,0,0,1-1.467,1.473m5.347,1.854-3.432-1.98.2-.351,3.43,1.98-.2.352m2.118,2.467A1.475,1.475,0,1,1,11.284,19.6a1.482,1.482,0,0,1-1.476,1.471m2.128-2.467-.207-.349,3.431-1.982.2.352-3.427,1.98m3.214-4.294a2.314,2.314,0,0,0-.2.97.181.181,0,0,1-.1.176q-1.828,1.048-3.654,2.1a.212.212,0,0,1-.229,0,2.384,2.384,0,0,0-1.243-.308,2.354,2.354,0,0,0-1.076.318.193.193,0,0,1-.218,0q-1.818-1.059-3.64-2.111a.212.212,0,0,1-.115-.192,2.33,2.33,0,0,0-1.158-2.008.2.2,0,0,1-.109-.182c0-.46,0-.919-.01-1.379a.88.88,0,0,0-.027-.221.384.384,0,0,0-.394-.3.4.4,0,0,0-.406.3.9.9,0,0,0-.03.234c0,.385,0,.77,0,1.155v.082H2.156V8.993h.387c0,.025,0,.05,0,.074,0,.371-.005.743,0,1.114a1.045,1.045,0,0,0,.036.294.411.411,0,0,0,.477.28.4.4,0,0,0,.347-.4c0-.482.005-.965,0-1.447a.248.248,0,0,1,.13-.243A2.261,2.261,0,0,0,4.589,7.3a2.333,2.333,0,0,0,.082-.631.2.2,0,0,1,.11-.191Q6.607,5.426,8.431,4.37a.2.2,0,0,1,.226,0,2.325,2.325,0,0,0,1.131.318,2.279,2.279,0,0,0,1.16-.309.231.231,0,0,1,.261,0q1.811,1.05,3.627,2.093a.209.209,0,0,1,.118.2A2.179,2.179,0,0,0,15.628,8.3a3.847,3.847,0,0,0,.478.367.23.23,0,0,1,.116.211q0,1.577,0,3.153c0,.344,0,.689,0,1.033a.21.21,0,0,1-.114.2,2.314,2.314,0,0,0-.958,1.044m2.131,2.44A1.463,1.463,0,0,1,15.81,15.29a1.475,1.475,0,1,1,1.471,1.463" transform="translate(0 0)" fill="#4a2efc"/>
        <path id="Trazado_608293" data-name="Trazado 608293" d="M92.235,92.872q-2.273-1.31-4.543-2.623a.561.561,0,0,0-.6,0q-2.268,1.312-4.538,2.619a.581.581,0,0,0-.314.545c0,.87,0,1.74,0,2.609s0,1.744,0,2.616a.576.576,0,0,0,.312.539q2.252,1.3,4.5,2.6a.631.631,0,0,0,.69,0q1.53-.893,3.065-1.777c.466-.269.932-.539,1.4-.8a.62.62,0,0,0,.342-.595c0-.1,0-.195,0-.292q0-2.439,0-4.879a.6.6,0,0,0-.313-.561m-6.278-.963c.449-.259.9-.515,1.346-.777a.156.156,0,0,1,.18,0q1.474.853,2.95,1.7l.746.431.064.039c-.179.1-.352.206-.526.305-.281.161-.562.319-.842.481a.218.218,0,0,1-.245,0q-1.829-1.059-3.662-2.111l-.06-.037c.02-.014.034-.025.05-.035m1,8.736c0,.02,0,.041,0,.077l-.227-.129q-1.741-1-3.482-2a.267.267,0,0,1-.152-.261c.006-.675.006-1.35.006-2.025q0-1.077,0-2.154v-.091a.512.512,0,0,1,.051.022q1.855,1.069,3.71,2.139a.178.178,0,0,1,.1.174q0,2.127,0,4.254m.557-5.19a.22.22,0,0,1-.246,0q-1.83-1.059-3.663-2.113l-.064-.038.348-.2c.349-.2.7-.4,1.048-.6a.17.17,0,0,1,.193,0q1.845,1.067,3.692,2.13l.058.036-.137.081c-.41.236-.82.471-1.229.709m3.806,3.262c-.218.133-.447.247-.669.374q-1.343.774-2.685,1.551l-.139.08c0-.031,0-.054,0-.077q0-1.743,0-3.485c0-.242,0-.484,0-.727a.238.238,0,0,1,.13-.226q1.824-1.054,3.646-2.112l.072-.038v.887c0,.7,0,1.4,0,2.106,0,.332.016.665.014,1a.75.75,0,0,1-.37.671" transform="translate(-77.58 -85.056)" fill="#4a2efc"/>
        <path id="Trazado_608294" data-name="Trazado 608294" d="M191.066,196a1.567,1.567,0,0,0-.03-.323.38.38,0,0,0-.366-.3.546.546,0,0,0-.3.083l-2.076,1.2a.5.5,0,0,0-.264.464c0,.322,0,.643,0,.965,0,.154,0,.308.012.461a.417.417,0,0,0,.331.4.523.523,0,0,0,.363-.081l2.069-1.193a.5.5,0,0,0,.27-.468c0-.222,0-.444,0-.666,0-.181,0-.362,0-.543m-.868,1c0,.013-.018.031-.032.039l-1.249.724a.156.156,0,0,1-.025.007c0-.146,0-.285,0-.425a.076.076,0,0,1,.035-.051q.621-.362,1.243-.722a.122.122,0,0,1,.027-.006c0,.147,0,.29,0,.434" transform="translate(-177.375 -184.31)" fill="#4a2efc"/>
      </g>
    </g>
  </g>
</svg>
