<svg xmlns="http://www.w3.org/2000/svg" xmlns:xlink="http://www.w3.org/1999/xlink" width="21.947" height="21.942" viewBox="0 0 21.947 21.942"><defs><clipPath id="a"><rect width="21.947" height="21.942" fill="#4a2efc"/></clipPath></defs><g clip-path="url(#a)"><path d="M4.148,19.555a10.679,10.679,0,0,0,7.308,2.379A10.97,10.97,0,0,0,13.6.32C13.023.18,12.428.13,11.844.038,11.781.028,11.72.013,11.657,0H10.286C9.891.056,9.495.1,9.1.166A10.747,10.747,0,0,0,2.819,3.637,10.786,10.786,0,0,0,.1,9.5c-.037.26-.064.522-.1.783v1.371c.054.395.095.792.164,1.184a10.743,10.743,0,0,0,3.984,6.712m-.685-2.191a8.629,8.629,0,0,1,7.53-4.183,8.622,8.622,0,0,1,7.486,4.183,9.848,9.848,0,0,1-15.016,0M7.681,8.926a3.294,3.294,0,1,1,3.385,3.143A3.307,3.307,0,0,1,7.681,8.926M4,3.983A9.862,9.862,0,0,1,19.174,16.438,9.968,9.968,0,0,0,13.5,12.391a4.4,4.4,0,1,0-5.05,0,9.96,9.96,0,0,0-5.677,4.043A9.817,9.817,0,0,1,4,3.983" transform="translate(0 -0.001)" fill="#4a2efc"/></g></svg>