<svg xmlns="http://www.w3.org/2000/svg" xmlns:xlink="http://www.w3.org/1999/xlink" width="21.04" height="21.942" viewBox="0 0 21.04 21.942"><defs><clipPath id="a"><rect width="21.04" height="21.942" fill="#4a2efc"/></clipPath></defs><g clip-path="url(#a)"><path d="M12.147,21.116c.323-.333.668-.645,1-.97a.721.721,0,0,1,.645-.211c.544.079,1.088.152,1.631.236a1.919,1.919,0,0,0,2.31-1.6c.109-.538.2-1.08.285-1.623a.838.838,0,0,1,.481-.681c.491-.245.974-.508,1.457-.77a1.914,1.914,0,0,0,.858-2.644c-.233-.489-.465-.979-.715-1.46a.851.851,0,0,1,0-.853c.241-.461.461-.933.689-1.4a1.926,1.926,0,0,0-.879-2.719c-.472-.252-.94-.511-1.418-.75a.823.823,0,0,1-.473-.663c-.08-.522-.173-1.041-.268-1.561A1.916,1.916,0,0,0,15.5,1.761c-.546.063-1.089.145-1.631.234a.808.808,0,0,1-.76-.235c-.393-.394-.8-.778-1.2-1.163A1.913,1.913,0,0,0,9.129.6Q8.51,1.19,7.9,1.79a.724.724,0,0,1-.643.216c-.544-.079-1.088-.152-1.631-.237A1.919,1.919,0,0,0,3.309,3.364c-.111.545-.2,1.094-.289,1.644a.825.825,0,0,1-.474.663c-.485.242-.96.5-1.438.76A1.921,1.921,0,0,0,.233,9.1c.238.5.477.989.725,1.479a.8.8,0,0,1,0,.776c-.252.5-.495,1-.734,1.5A1.915,1.915,0,0,0,1.086,15.5c.489.265.98.528,1.476.78a.785.785,0,0,1,.45.609c.086.521.182,1.04.267,1.561a1.926,1.926,0,0,0,2.275,1.73q.818-.1,1.631-.234a.788.788,0,0,1,.74.231c.317.319.654.618.967.941a2.517,2.517,0,0,0,1.413.825h.429a2.52,2.52,0,0,0,1.413-.825m-1.121-.682a.654.654,0,0,1-1.017,0c-.391-.376-.785-.75-1.169-1.133a2.022,2.022,0,0,0-1.811-.609c-.543.08-1.088.153-1.631.235a.659.659,0,0,1-.847-.589c-.1-.54-.2-1.08-.287-1.622a1.987,1.987,0,0,0-1.111-1.552c-.482-.247-.958-.506-1.437-.761a.669.669,0,0,1-.337-1.024c.24-.494.478-.989.724-1.48a1.958,1.958,0,0,0,0-1.849c-.249-.5-.491-1-.733-1.5a.662.662,0,0,1,.325-1c.491-.262.981-.525,1.475-.781A1.981,1.981,0,0,0,4.264,5.229c.086-.549.188-1.1.29-1.643a.654.654,0,0,1,.82-.575c.593.086,1.186.171,1.78.249A1.894,1.894,0,0,0,8.79,2.689Q9.4,2.1,10.006,1.512a.657.657,0,0,1,1.033.005c.391.376.786.749,1.169,1.133a2.016,2.016,0,0,0,1.856.6c.542-.087,1.087-.161,1.631-.237a.646.646,0,0,1,.789.565c.112.6.213,1.194.322,1.79a1.9,1.9,0,0,0,1.034,1.391c.5.265,1,.527,1.493.792a.665.665,0,0,1,.333,1.009c-.243.5-.485,1-.733,1.5a1.953,1.953,0,0,0,0,1.83q.376.757.744,1.518a.659.659,0,0,1-.32.982c-.421.226-.835.469-1.269.666a2.205,2.205,0,0,0-1.355,1.9c-.055.488-.161.971-.253,1.454a.642.642,0,0,1-.7.534c-.525-.074-1.086-.136-1.641-.235a2.057,2.057,0,0,0-1.951.611c-.374.383-.767.748-1.153,1.119" transform="translate(0 0.001)" fill="#4a2efc"/><path d="M115.861,115.884a.6.6,0,0,0,.065-.664.6.6,0,0,0-.57-.348.76.76,0,0,0-.549.291q-4.065,4.068-8.132,8.134a1.516,1.516,0,0,0-.173.189.628.628,0,0,0,.5.995.742.742,0,0,0,.572-.29q4.065-4.068,8.132-8.134a1.739,1.739,0,0,0,.16-.173" transform="translate(-100.668 -108.706)" fill="#4a2efc"/><path d="M107.993,102.9a2.319,2.319,0,1,0-2.305-2.343,2.32,2.32,0,0,0,2.305,2.343m.02-3.363a1.048,1.048,0,0,1,1.042,1.052,1.053,1.053,0,1,1-2.105-.02,1.05,1.05,0,0,1,1.063-1.032" transform="translate(-100.015 -92.987)" fill="#4a2efc"/><path d="M204.6,226.436a2.317,2.317,0,1,0-2.316,2.336,2.31,2.31,0,0,0,2.316-2.336m-3.367.029a1.053,1.053,0,1,1,2.1-.019,1.053,1.053,0,0,1-2.1.019" transform="translate(-189.229 -212.106)" fill="#4a2efc"/></g></svg>