<svg xmlns="http://www.w3.org/2000/svg" xmlns:xlink="http://www.w3.org/1999/xlink" width="28.385" height="21.942" viewBox="0 0 28.385 21.942"><defs><clipPath id="a"><rect width="28.385" height="21.942" fill="#4a2efc"/></clipPath></defs><g clip-path="url(#a)"><path d="M27.4,179.713H17.43a.861.861,0,0,0-.986.985c0,.869,0,1.738,0,2.618-.406-.139-.766-.285-1.138-.385-.893-.238-1.791-.454-2.687-.68-.674-.17-.855-.105-1.279.454-.546.721-1.094,1.442-1.657,2.183-.077-.1-.141-.172-.2-.252-.527-.692-1.059-1.381-1.576-2.08a.911.911,0,0,0-1.069-.365c-.911.241-1.827.464-2.739.7a5.345,5.345,0,0,0-2.531,1.426A5.018,5.018,0,0,0,0,188.021c.016.953,0,1.907,0,2.861a.687.687,0,0,0,.522.72,1.441,1.441,0,0,0,.409.051q13.232,0,26.465,0a.862.862,0,0,0,.985-.987q0-4.986,0-9.971a.862.862,0,0,0-.986-.985M16.444,189.967H1.551a18.792,18.792,0,0,1,.228-2.776A3.55,3.55,0,0,1,4.525,184.5c.7-.19,1.4-.352,2.093-.541a.3.3,0,0,1,.37.132q.972,1.3,1.961,2.59a.811.811,0,0,0,1.01.356,1.079,1.079,0,0,0,.4-.321q1-1.281,1.971-2.581a.327.327,0,0,1,.411-.149c.721.2,1.462.336,2.17.571a9.285,9.285,0,0,1,1.383.68.324.324,0,0,1,.14.24c.008,1.49.006,2.979.006,4.49m5.116-8.458h1.717V182.8a1.258,1.258,0,0,0-1.717,0Zm5.144,8.458H18.13V181.4h1.75c0,.1,0,.193,0,.29,0,.787,0,1.573,0,2.36a.827.827,0,0,0,1.257.789c.374-.181.74-.38,1.119-.551a.443.443,0,0,1,.326,0c.37.168.728.363,1.093.541a.827.827,0,0,0,1.279-.78c.007-.777,0-1.555,0-2.332v-.323H26.7Z" transform="translate(0 -169.714)" fill="#4a2efc"/><path d="M78.674,11.222a5.61,5.61,0,1,0-5.616-5.614,5.606,5.606,0,0,0,5.616,5.614m.018-9.554A3.944,3.944,0,1,1,74.724,5.6a3.936,3.936,0,0,1,3.968-3.936" transform="translate(-68.993 -0.001)" fill="#4a2efc"/></g></svg>