<svg xmlns="http://www.w3.org/2000/svg" xmlns:xlink="http://www.w3.org/1999/xlink" width="21.943" height="21.943" viewBox="0 0 21.943 21.943"><defs><clipPath id="a"><rect width="21.943" height="21.943" fill="#4a2efc"/></clipPath></defs><g clip-path="url(#a)"><path d="M8.864,21.92a.718.718,0,0,0,.372-.62c.009-.193,0-.387,0-.58,0-.842,0-1.685,0-2.527q0-1.831,0-3.663c0-.05,0-.1,0-.149,0-.02,0-.039,0-.066h.076c.32,0,.64,0,.96,0a.615.615,0,0,0,.539-.241.721.721,0,0,0,.111-.431c0-.662,0-1.324,0-1.987q0-1.277,0-2.554c0-.311,0-.622-.006-.932a3.587,3.587,0,0,0-.05-.537,3.108,3.108,0,0,0-2.5-2.483c-.145-.025-.293-.04-.439-.06,0-.005,0-.01,0-.013a.289.289,0,0,1,.019-.028,3.069,3.069,0,0,0,.635-2.2,3.006,3.006,0,0,0-.9-1.914A3.094,3.094,0,0,0,5.762.02L5.57,0h-.2L5.143.025A3.089,3.089,0,0,0,3.313.87a3,3,0,0,0-.93,1.735,3.075,3.075,0,0,0,.578,2.406l.057.078c-.1.011-.193.02-.285.033A3.1,3.1,0,0,0,.054,7.734a3.717,3.717,0,0,0-.04.538c0,.615,0,1.23,0,1.845A.545.545,0,0,1,0,10.194v2.163a.449.449,0,0,1,.011.07c0,.41,0,.82,0,1.23a.957.957,0,0,0,.043.278.493.493,0,0,0,.462.365c.265.017.531.011.8.014.126,0,.252,0,.386,0v.078q0,2.656,0,5.313c0,.5,0,1.009,0,1.514a.752.752,0,0,0,.238.6,2.141,2.141,0,0,0,.174.127H8.842a.112.112,0,0,1,.022-.023M5.534,1.192A1.97,1.97,0,0,1,7.42,3.185,1.95,1.95,0,1,1,5.534,1.192m2.846,8.2a.561.561,0,0,0-.321.49c0,.049,0,.1,0,.149q0,5.306,0,10.613v.1H6.064v-.1q0-3.126,0-6.253a2.45,2.45,0,0,0-.02-.337.582.582,0,0,0-1.149,0,1.554,1.554,0,0,0-.015.215q0,3.194-.005,6.388v.089H2.882v-.1q0-5.33,0-10.66a.688.688,0,0,0-.12-.427A.592.592,0,0,0,1.7,9.88c0,.034,0,.068,0,.1q0,1.521,0,3.042v.086H1.192c0-.022,0-.046,0-.07q0-2,0-3.995c0-.315-.007-.631.013-.946A1.9,1.9,0,0,1,2.666,6.342a2.189,2.189,0,0,1,.521-.064q2.031-.009,4.062,0a7.806,7.806,0,0,1,.782.028A1.872,1.872,0,0,1,9.706,7.9a3.4,3.4,0,0,1,.04.511q0,2.308,0,4.617v.084H9.241v-.09q0-.977,0-1.954,0-.544,0-1.088a.615.615,0,0,0-.265-.553.567.567,0,0,0-.591-.036" fill="#4a2efc"/><path d="M284.192,18.982a.805.805,0,0,0-.478-.139c-.523,0-1.045,0-1.568,0h-3.251a1.678,1.678,0,0,0-.229.016.524.524,0,0,0-.48.458,1.743,1.743,0,0,0-.026.3q0,2.352,0,4.7a2.314,2.314,0,0,0,.014.249.538.538,0,0,0,.488.519,1.8,1.8,0,0,0,.289.023q2.166,0,4.333,0c.153,0,.307,0,.459,0a.761.761,0,0,0,.534-.211,2.287,2.287,0,0,0,.156-.192V19.269a.871.871,0,0,0-.241-.287m-.968,4.935h-3.859V20.05h3.859Z" transform="translate(-262.49 -17.781)" fill="#4a2efc"/><path d="M283.626,259.3c-.209.005-.419,0-.628,0h-4.076a1.881,1.881,0,0,0-.249.016.528.528,0,0,0-.487.459,1.6,1.6,0,0,0-.025.289q0,2.376,0,4.752a1.907,1.907,0,0,0,.014.229.537.537,0,0,0,.434.5,1.258,1.258,0,0,0,.275.029c.572,0,1.145,0,1.717,0q1.561,0,3.123,0a.735.735,0,0,0,.648-.324l.063-.094v-5.449a.823.823,0,0,0-.806-.413m-.4,5.075h-3.861v-3.861h3.861Z" transform="translate(-262.49 -244.693)" fill="#4a2efc"/><path d="M284.42,139.616a.7.7,0,0,0-.7-.42l-.669,0H278.92c-.076,0-.153,0-.229.012a.53.53,0,0,0-.508.46,1.435,1.435,0,0,0-.022.275q0,2.386,0,4.772a1.9,1.9,0,0,0,.014.229.528.528,0,0,0,.454.491,1.486,1.486,0,0,0,.269.02c.876,0,1.753,0,2.629,0,.732,0,1.464,0,2.2.006a.7.7,0,0,0,.566-.221,2.014,2.014,0,0,0,.145-.218v-5.394s-.011-.008-.013-.013m-1.191,4.644h-3.862V140.4h3.862Z" transform="translate(-262.49 -131.355)" fill="#4a2efc"/><path d="M206.117,274.379q-.368-.011-.736-.009c-.59,0-1.18,0-1.769.014a.622.622,0,0,0-.576.361.6.6,0,0,0,.555.813c.416,0,.833,0,1.25,0v0h.493c.268,0,.536,0,.8-.007a.565.565,0,0,0,.493-.273.588.588,0,0,0,.01-.611.571.571,0,0,0-.522-.293" transform="translate(-191.557 -258.913)" fill="#4a2efc"/><path d="M206.484,146.86a.756.756,0,0,0-.42-.1h-1.71c-.254,0-.509,0-.763.007a.564.564,0,0,0-.5.3.593.593,0,0,0,.539.871c.788,0,1.577,0,2.365,0a1.642,1.642,0,0,0,.262-.016.559.559,0,0,0,.47-.451.573.573,0,0,0-.242-.613" transform="translate(-191.581 -138.489)" fill="#4a2efc"/><path d="M206.3,304.63a1.135,1.135,0,0,0-.28-.032q-1.135,0-2.271,0a1.888,1.888,0,0,0-.2.011.58.58,0,0,0-.5.8.631.631,0,0,0,.607.373h1.217v0c.322,0,.644,0,.967,0a2.385,2.385,0,0,0,.443-.03.58.58,0,0,0,.02-1.122" transform="translate(-191.564 -287.437)" fill="#4a2efc"/><path d="M203.625,35.053l.311,0c.311,0,.622,0,.933,0,.415,0,.829,0,1.243,0a.612.612,0,0,0,.479-.2.58.58,0,0,0,.1-.615.543.543,0,0,0-.5-.357c-.183-.017-.369-.013-.553-.013q-.757,0-1.514,0c-.187,0-.374,0-.56.013a.586.586,0,0,0,.063,1.17" transform="translate(-191.574 -31.962)" fill="#4a2efc"/><path d="M204.8,63.96c-.39,0-.779,0-1.169,0a.589.589,0,1,0-.015,1.177c.4.006.8,0,1.2,0,.435,0,.87,0,1.3,0a.589.589,0,1,0-.012-1.177c-.412,0-.825,0-1.237,0v0H204.8" transform="translate(-191.57 -60.357)" fill="#4a2efc"/><path d="M206.265,177.98a.563.563,0,0,0,.469-.507.554.554,0,0,0-.353-.6.918.918,0,0,0-.3-.051c-.4-.006-.8,0-1.2,0h-1.034a2.611,2.611,0,0,0-.27,0,.568.568,0,0,0-.523.384.561.561,0,0,0,.146.626.642.642,0,0,0,.471.167h2.412a1.032,1.032,0,0,0,.181-.016" transform="translate(-191.579 -166.854)" fill="#4a2efc"/><path d="M205.248,94.07H204.1c-.13,0-.259,0-.389,0a.991.991,0,0,0-.22.028.565.565,0,0,0-.446.542.559.559,0,0,0,.4.571.99.99,0,0,0,.291.046c.507,0,1.014,0,1.52,0a.925.925,0,0,0,.22-.029.558.558,0,0,0,.435-.463.565.565,0,0,0-.262-.6.738.738,0,0,0-.4-.1" transform="translate(-191.608 -88.77)" fill="#4a2efc"/><path d="M214.885,94.072c.13,0,.259,0,.389,0-.13,0-.259,0-.389,0" transform="translate(-202.78 -88.77)" fill="#4a2efc"/><path d="M205.324,334.724c-.275,0-.55,0-.824,0h0c-.291,0-.581-.007-.872,0a.576.576,0,0,0-.574.545.6.6,0,0,0,.618.631c.264,0,.527,0,.791,0,.284,0,.568,0,.852,0a.583.583,0,0,0,.611-.593.57.57,0,0,0-.6-.584" transform="translate(-191.614 -315.865)" fill="#4a2efc"/><path d="M203.608,206.766a.588.588,0,1,0,.054,1.175c.27,0,.541,0,.811,0v0c.288,0,.577.008.865,0a.546.546,0,0,0,.519-.339.577.577,0,0,0-.526-.831c-.574-.019-1.149-.01-1.723,0" transform="translate(-191.596 -195.11)" fill="#4a2efc"/><path d="M308.122,55.605a.554.554,0,0,0,.8-.018q.609-.6,1.213-1.213a.586.586,0,0,0-.734-.9,1.363,1.363,0,0,0-.2.169c-.232.226-.462.454-.7.686-.055-.058-.11-.121-.17-.177a.583.583,0,0,0-.52-.166.565.565,0,0,0-.457.394.549.549,0,0,0,.126.583c.209.221.423.436.645.644" transform="translate(-290.004 -50.367)" fill="#4a2efc"/><path d="M308.148,296.615a.532.532,0,0,0,.751-.014q.635-.625,1.261-1.26a.5.5,0,0,0,.1-.6.612.612,0,0,0-.976-.18c-.017.015-.033.03-.05.046l-.492.482-.212.209c-.086-.069-.168-.136-.251-.2a.584.584,0,0,0-.79.056.572.572,0,0,0-.019.785q.327.35.679.676" transform="translate(-290.01 -277.81)" fill="#4a2efc"/><path d="M308.755,170.545l.184.189c-.121.119-.246.233-.362.356a1.047,1.047,0,0,0-.164.221.576.576,0,0,0,.525.853.666.666,0,0,0,.452-.217c.129-.131.252-.269.381-.407l.226.243a1.278,1.278,0,0,0,.419.334.574.574,0,0,0,.8-.532.7.7,0,0,0-.215-.467c-.124-.137-.253-.268-.385-.407.057-.054.128-.114.191-.181a2.528,2.528,0,0,0,.33-.372.571.571,0,0,0-.349-.846.6.6,0,0,0-.6.179c-.138.135-.266.28-.41.434a.423.423,0,0,0-.038-.055c-.132-.139-.257-.285-.4-.413a.58.58,0,0,0-.883.078.6.6,0,0,0,.06.758c.077.088.164.167.246.251" transform="translate(-290.97 -159.754)" fill="#4a2efc"/></g></svg>