<svg xmlns="http://www.w3.org/2000/svg" xmlns:xlink="http://www.w3.org/1999/xlink" width="50.237" height="48.931" viewBox="0 0 50.237 48.931"><defs><clipPath id="a"><rect width="50.237" height="48.931" fill="#a395fd"/></clipPath></defs><g clip-path="url(#a)"><path d="M50.738,37.942c.013-.091-.055-.206.071-.269.009,0,.011-.047,0-.063a.365.365,0,0,1-.076-.238c0-.014,0-.039-.012-.043-.259-.13-.3-.438-.5-.616s-.4-.395-.592-.594-.379-.39-.572-.582q-1.115-1.111-2.231-2.22a1.662,1.662,0,0,0-1.456-.521,1.626,1.626,0,0,0-.744.311c-.2.144-.2.144-.373-.042a2.657,2.657,0,0,1-.695-1.617,6.127,6.127,0,0,1-.012-.769c0-.107.02-.173.153-.171a.974.974,0,0,0,.3-.059.884.884,0,0,0,.574-1.138.869.869,0,0,0-.739-.563c-.1-.02-.225,0-.291-.055s-.052-.2-.069-.306a4.356,4.356,0,0,0-1.132-2.233c-.172-.189-.359-.366-.54-.548-.934-.934-1.864-1.872-2.8-2.8a4.238,4.238,0,0,0-2.02-1.149,4.015,4.015,0,0,0-2.656.3c-.127.058-.248.128-.375.187s-.167.048-.243-.081a.369.369,0,0,1-.055-.2c.029-1.476.008-2.953.012-4.429q.005-1.737,0-3.474a4.924,4.924,0,0,0-.251-1.58A4.1,4.1,0,0,0,32.617,11a2.968,2.968,0,0,1-.728-2.1c0-.131.039-.2.175-.223a1.15,1.15,0,0,0,.2-.06,1.639,1.639,0,0,0,1.21-1.59q0-.058,0-.117,0-2.32,0-4.64a2.178,2.178,0,0,0-.067-.531A1.592,1.592,0,0,0,32.1.467c-.083-.017-.168-.028-.252-.042-.139,0-.279,0-.418,0H18.5c-.139,0-.279,0-.418-.005a1.938,1.938,0,0,0-.523.11,1.63,1.63,0,0,0-1.1,1.381,2.986,2.986,0,0,0-.038.487q0,2.168,0,4.336a3.022,3.022,0,0,0,.067.647,1.547,1.547,0,0,0,.939,1.138,3.069,3.069,0,0,0,.464.153c.191.05.192.05.184.249a2.681,2.681,0,0,1-.777,1.821c-.461.472-.93.938-1.4,1.4a4.406,4.406,0,0,0-1.242,2.2,4.755,4.755,0,0,0-.11,1.017q0,2.249,0,4.5a4.145,4.145,0,0,0,.18,1.333c.044.131.1.257.152.392-.219.046-.426.08-.627.134a3.86,3.86,0,0,0-1.732,1.007c-.917.907-1.827,1.822-2.739,2.734-.231.231-.463.461-.687.7a4.273,4.273,0,0,0-1.186,2.788c-.043.738-.013,1.476-.014,2.213a2.8,2.8,0,0,1-.724,1.915c-.026.029-.054.056-.078.086a.11.11,0,0,1-.179.012c-.03-.025-.063-.046-.095-.067a1.642,1.642,0,0,0-2.12.13c-.227.2-.437.42-.651.635q-1.4,1.4-2.8,2.808a1.784,1.784,0,0,0-.528.965,2.832,2.832,0,0,0,0,.615,1.746,1.746,0,0,0,.472.894c.373.386.755.762,1.136,1.139a1.253,1.253,0,0,0,.22.171.867.867,0,0,0,1.077-.086.878.878,0,0,0,.215-1.08,1.383,1.383,0,0,0-.259-.356c-.285-.3-.574-.591-.876-.872-.129-.12-.128-.125,0-.25q1.5-1.482,2.982-2.987c.153-.156.157-.155.323.012q1.695,1.7,3.389,3.405,2.843,2.847,5.688,5.69a.618.618,0,0,1,.179.213,1.5,1.5,0,0,1-.27.287q-1.21,1.214-2.424,2.425a2.913,2.913,0,0,1-.381.343.218.218,0,0,1-.316,0,2.888,2.888,0,0,1-.38-.344L5.935,41.289a1.968,1.968,0,0,0-.393-.327.894.894,0,0,0-1.079.118.854.854,0,0,0-.21,1,1.367,1.367,0,0,0,.3.44q3.09,3.095,6.178,6.19a2.3,2.3,0,0,0,1.056.6H12.3c.018-.012.035-.032.055-.036a1.888,1.888,0,0,0,.961-.541q1.659-1.655,3.312-3.316a2.1,2.1,0,0,0,.373-.5,1.564,1.564,0,0,0,.043-1.415,2.019,2.019,0,0,0-.215-.386.11.11,0,0,1,.014-.162,2.852,2.852,0,0,1,1.888-1.007,4.591,4.591,0,0,0,3.028-1.42c.888-.9,1.79-1.794,2.682-2.693a1.65,1.65,0,0,1,.553-.375,2.533,2.533,0,0,0,1.465-1.509c.068-.182.07-.182.263-.135a2.845,2.845,0,0,0,1.52-.006,2.551,2.551,0,0,0,1.83-2.04,4.064,4.064,0,0,0,.069-.858c0-.349,0-.7,0-1.045a.433.433,0,0,1,.241.013,2.7,2.7,0,0,0,3.245-2.312,4.561,4.561,0,0,0,.028-.976c-.057-1.119-.026-2.237,0-3.356,0-.17,0-.339,0-.513.09,0,.117.062.157.1q.794.789,1.584,1.582a1.25,1.25,0,0,0,.626.384.894.894,0,0,0,.95-.391.884.884,0,0,0-.012-1.007,2.772,2.772,0,0,0-.382-.408q-.646-.623-1.3-1.241a.992.992,0,0,0-.141-.09,1.691,1.691,0,0,1,.747-.23,2.165,2.165,0,0,1,1.773.666c.858.846,1.706,1.7,2.558,2.553l.724.727a2.469,2.469,0,0,1,.752,1.776c.007.606.013,1.213,0,1.818A4.575,4.575,0,0,0,43,34.417c.128.131.126.137-.014.277q-1.138,1.138-2.278,2.273-2.216,2.22-4.429,4.442c-.1.1-.18.259-.308.272s-.209-.164-.307-.26a4.563,4.563,0,0,0-2.905-1.328,2.763,2.763,0,0,1-1.777-.873c-.712-.717-1.432-1.426-2.149-2.138a1.137,1.137,0,0,0-.556-.324.858.858,0,0,0-.907.336.824.824,0,0,0-.109.918,1.281,1.281,0,0,0,.271.376c.808.808,1.611,1.621,2.439,2.408A3.9,3.9,0,0,0,32.4,41.9a3.167,3.167,0,0,1,2.093.949c.163.167.164.166.048.362a1.785,1.785,0,0,0-.284,1.153,1.7,1.7,0,0,0,.329.786,3.1,3.1,0,0,0,.335.387l3,3a2.915,2.915,0,0,0,.835.625c.118.054.242.1.363.143h.56a3.277,3.277,0,0,0,1.36-.934q2.719-2.734,5.448-5.458Q48.243,41.166,50,39.41a4.7,4.7,0,0,0,.711-.944c.072-.121.085-.274.169-.394v-.047c-.062,0-.155.04-.138-.083m-29.328.312q-.6.592-1.193,1.181a2.257,2.257,0,0,1-1.457.647,4.656,4.656,0,0,0-3.124,1.481c-.148.158-.128.2-.318.007q-3.394-3.4-6.787-6.8c-.26-.261-.242-.193-.011-.442a4.409,4.409,0,0,0,1.215-3.064c0-.676,0-1.352,0-2.028a2.59,2.59,0,0,1,.808-1.918c1.09-1.075,2.165-2.166,3.251-3.244a2.123,2.123,0,0,1,1.775-.651,2.055,2.055,0,0,1,.624.163c-.355.375-.7.743-1.049,1.107-.156.163-.319.318-.478.478a1.3,1.3,0,0,0-.268.379.839.839,0,0,0,.155.97.861.861,0,0,0,.976.235,1.335,1.335,0,0,0,.477-.325q.789-.793,1.58-1.585a.482.482,0,0,1,.165-.14.441.441,0,0,1,.024.246q0,3.987,0,7.975a3.535,3.535,0,0,0,.259,1.434,2.4,2.4,0,0,0,2.251,1.529,3.36,3.36,0,0,0,.971-.092c.075-.019.146-.041.183.073a2.591,2.591,0,0,0,.97,1.306.218.218,0,0,1,.033.044q-.518.517-1.038,1.037M31.8,16.2q0,6.355,0,12.71a2.255,2.255,0,0,1-.045.556.788.788,0,0,1-.879.629.772.772,0,0,1-.716-.756c-.012-.186-.019-.373-.019-.559q0-3.568,0-7.136a5.463,5.463,0,0,0-.023-.559.909.909,0,0,0-1.387-.709.872.872,0,0,0-.425.735c-.014.154-.011.311-.011.466q0,5.667,0,11.334a2.485,2.485,0,0,1-.042.533.779.779,0,0,1-.852.632.761.761,0,0,1-.742-.727c-.009-.1-.007-.2-.007-.3q0-5.807,0-11.614a1.993,1.993,0,0,0-.046-.486.885.885,0,0,0-.941-.7.921.921,0,0,0-.863.805,2.255,2.255,0,0,0-.024.348q0,5.783,0,11.567c0,.606.014,1.212.022,1.818a1.394,1.394,0,0,1-.09.548.752.752,0,0,1-.747.492.761.761,0,0,1-.744-.5,1.624,1.624,0,0,1-.091-.6q0-1.306,0-2.612,0-5.329,0-10.657a2.149,2.149,0,0,0-.043-.579.816.816,0,0,0-.7-.63.851.851,0,0,0-.916.364.945.945,0,0,0-.174.5c0,.109-.008.217-.008.326q0,5.76,0,11.52a2.842,2.842,0,0,1-.027.442.771.771,0,0,1-.606.659.811.811,0,0,1-.888-.365.946.946,0,0,1-.14-.463c0-.109,0-.218,0-.326q0-6.471,0-12.943a1.736,1.736,0,0,0-.036-.44.909.909,0,0,0-1.792.157c-.029.473-.031.947-.021,1.421a8.725,8.725,0,0,1-.013.987,2.2,2.2,0,0,1-1.355-2.02c-.019-1.64-.011-3.28,0-4.92a2.164,2.164,0,0,1,.53-1.387c.148-.179.314-.344.478-.51.372-.376.748-.747,1.12-1.122a4.394,4.394,0,0,0,1.37-3.235c0-.161.016-.176.176-.17.326.012.653.015.979,0a1.227,1.227,0,0,0,.6-.156A.9.9,0,0,0,21.4,6.914a1.8,1.8,0,0,0-.393-.04q-1.224,0-2.448.006h-.047c-.232,0-.254-.023-.253-.254,0-.49.012-.979.012-1.469,0-.839,0-1.679-.007-2.518,0-.078,0-.156,0-.233,0-.11.053-.154.156-.155l.56,0,11.823,0c.21,0,.42-.006.63,0,.187,0,.211.029.211.22,0,.171,0,.342-.008.513-.022,1.173-.023,2.347.009,3.52.01.376.008.378-.363.378l-6.436-.006a2.287,2.287,0,0,0-.395.027.9.9,0,0,0-.017,1.78,3.183,3.183,0,0,0,.58.044L29.7,8.719c.374,0,.375,0,.362.374a4.324,4.324,0,0,0,.912,2.8c.042.056.084.113.13.165a2.762,2.762,0,0,1,.7,1.946c-.007.731,0,1.461,0,2.192M48.68,38.119,46.239,40.56l-4.551,4.551q-1.047,1.047-2.09,2.1a2.084,2.084,0,0,0-.166.221l-3.274-3.288c.282-.284.57-.576.859-.867l7.645-7.657c.264-.264.524-.531.786-.8.141-.143.143-.144.289,0,.542.546,1.081,1.1,1.624,1.641.439.44.883.875,1.324,1.314.173.172.184.149-.006.34" transform="translate(-0.639 -0.383)" fill="#a395fd"/><path d="M.753,389.536l-.017-.028a.039.039,0,0,0,.017.028" transform="translate(-0.664 -351.657)" fill="#a395fd"/><path d="M179.534.024h13.675c.019,0,.038,0,.057,0,0,0,0-.006,0-.009s.01-.015.015-.015H179.52c.013.009.016.017.014.024" transform="translate(-162.075)" fill="#a395fd"/><path d="M193.225.244H179.494s0,0,0,.005a.025.025,0,0,1-.018.012c.139,0,.279.005.418.005h12.932c.139,0,.279,0,.418,0-.012-.006-.017-.012-.018-.018" transform="translate(-162.034 -0.22)" fill="#a395fd"/><path d="M320.956.015s0,.006,0,.009h.013a.067.067,0,0,1,0-.024c-.005,0-.01.005-.015.015" transform="translate(-289.766)" fill="#a395fd"/><path d="M320.988.266a.068.068,0,0,1,0-.018h-.013c0,.006.006.013.018.018" transform="translate(-289.779 -0.224)" fill="#a395fd"/><path d="M179.51.024c0-.007,0-.015-.014-.024a.11.11,0,0,1,0,.024h.017" transform="translate(-162.05)" fill="#a395fd"/><path d="M179.493.246h-.017a.1.1,0,0,1,0,.017.024.024,0,0,0,.018-.012s0,0,0-.005" transform="translate(-162.033 -0.222)" fill="#a395fd"/><path d="M.036,384.483a.087.087,0,0,1-.036,0v.373a.116.116,0,0,1,.037,0,2.061,2.061,0,0,1,0-.372" transform="translate(0 -347.117)" fill="#a395fd"/><path d="M.3,383.563a2.061,2.061,0,0,0,0,.372c.053.013.027.074.035.114l.017.028a2.826,2.826,0,0,1,0-.615c-.025.026,0,.094-.048.1" transform="translate(-0.26 -346.198)" fill="#a395fd"/><path d="M.036,384.027q0-.026.006-.052L0,384.024a.087.087,0,0,0,.036,0" transform="translate(0 -346.661)" fill="#a395fd"/><path d="M.37,383.563c.047-.008.023-.075.048-.1l-.043.05q0,.026-.006.052" transform="translate(-0.334 -346.198)" fill="#a395fd"/><path d="M.037,388.315a.113.113,0,0,0-.037,0l.043.07q0-.034-.006-.068" transform="translate(0 -350.577)" fill="#a395fd"/><path d="M.379,388.336q0,.034.006.068l.028.046c-.008-.04.018-.1-.035-.114" transform="translate(-0.342 -350.599)" fill="#a395fd"/><path d="M404.565,142.778a.919.919,0,0,0-.921-.938.9.9,0,0,0-.92.885.921.921,0,1,0,1.84.053" transform="translate(-363.589 -128.056)" fill="#a395fd"/><path d="M437.825,260.121a.943.943,0,0,0-.927.916.928.928,0,0,0,.941.921.893.893,0,0,0,.9-.922.909.909,0,0,0-.915-.915" transform="translate(-394.441 -234.843)" fill="#a395fd"/><path d="M334.5,79.34a.923.923,0,0,0-.931.885.9.9,0,0,0,.9.959.914.914,0,0,0,.937-.875.946.946,0,0,0-.9-.968" transform="translate(-301.153 -71.629)" fill="#a395fd"/><path d="M360.722,96.441a.918.918,0,1,0,.934.931.94.94,0,0,0-.934-.931" transform="translate(-324.849 -87.069)" fill="#a395fd"/><path d="M420.176,169.866a.935.935,0,0,0-.922-.942.907.907,0,0,0-.918.913.92.92,0,0,0,1.84.029" transform="translate(-377.683 -152.508)" fill="#a395fd"/><path d="M431.317,199.1a.935.935,0,0,0-.919-.943.9.9,0,0,0-.912.914.876.876,0,0,0,.9.92.906.906,0,0,0,.935-.891" transform="translate(-387.75 -178.905)" fill="#a395fd"/><path d="M383.89,117.371a.942.942,0,0,0-.926.916.927.927,0,0,0,.935.925.877.877,0,0,0,.9-.895.915.915,0,0,0-.908-.946" transform="translate(-345.749 -105.965)" fill="#a395fd"/><path d="M436.6,230.716a.917.917,0,1,0-.9-.922.906.906,0,0,0,.9.922" transform="translate(-393.356 -206.64)" fill="#a395fd"/><path d="M45.8,221.767a.9.9,0,0,0,.912-.917.928.928,0,0,0-.905-.934.948.948,0,0,0-.93.94.916.916,0,0,0,.923.911" transform="translate(-40.52 -198.545)" fill="#a395fd"/><path d="M51.235,309.357a.878.878,0,0,0-.911.906.92.92,0,0,0,.9.936.943.943,0,0,0,.933-.932.909.909,0,0,0-.919-.91" transform="translate(-45.434 -279.294)" fill="#a395fd"/><path d="M122.357,96.848a.929.929,0,0,0,.922-.919.9.9,0,0,0-.9-.924.922.922,0,1,0-.018,1.843" transform="translate(-109.636 -85.773)" fill="#a395fd"/><path d="M64.676,165a.887.887,0,0,0,.913-.907.907.907,0,0,0-.9-.93.941.941,0,0,0-.934.929.9.9,0,0,0,.918.908" transform="translate(-57.562 -147.304)" fill="#a395fd"/><path d="M53.175,192.739a.919.919,0,1,0-.894-.926.888.888,0,0,0,.894.926" transform="translate(-47.201 -172.35)" fill="#a395fd"/><path d="M45.678,280.759a.927.927,0,0,0-.908-.929.951.951,0,0,0-.935.935.924.924,0,0,0,.929.908.9.9,0,0,0,.914-.914" transform="translate(-39.575 -252.637)" fill="#a395fd"/><path d="M80.369,139.558a.934.934,0,0,0,.943-.919.921.921,0,0,0-1.843-.016.922.922,0,0,0,.9.935" transform="translate(-71.747 -124.338)" fill="#a395fd"/><path d="M99.767,116.6a.915.915,0,0,0,.9-.926.881.881,0,0,0-.9-.912.917.917,0,0,0-.926.906.929.929,0,0,0,.927.933" transform="translate(-89.235 -103.609)" fill="#a395fd"/><path d="M147.807,80.8a.921.921,0,0,0,.9-.934.88.88,0,0,0-.9-.9.894.894,0,0,0-.931.895.932.932,0,0,0,.925.94" transform="translate(-132.608 -71.289)" fill="#a395fd"/><path d="M43.182,251.7a.907.907,0,0,0,.921-.908.931.931,0,0,0-.927-.935.915.915,0,0,0-.9.93.887.887,0,0,0,.908.913" transform="translate(-38.166 -225.574)" fill="#a395fd"/><path d="M262,449.423a.934.934,0,0,0-.923.942.919.919,0,0,0,1.837-.015.935.935,0,0,0-.915-.927" transform="translate(-235.709 -405.749)" fill="#a395fd"/><path d="M291.288,444.148a.92.92,0,0,0-.925.908.942.942,0,0,0,.929.936.916.916,0,0,0,.9-.929.889.889,0,0,0-.905-.915" transform="translate(-262.146 -400.987)" fill="#a395fd"/><path d="M232.168,450.479a.918.918,0,1,0-.011,1.836.893.893,0,0,0,.913-.91.909.909,0,0,0-.9-.927" transform="translate(-208.763 -406.702)" fill="#a395fd"/><path d="M173.865,439.2a.89.89,0,0,0-.92.9.92.92,0,0,0,.909.928.932.932,0,0,0,.928-.913.917.917,0,0,0-.917-.919" transform="translate(-156.139 -396.521)" fill="#a395fd"/><path d="M202.479,447.127a.907.907,0,0,0-.915.914.942.942,0,0,0,.942.923.917.917,0,0,0,.894-.938.885.885,0,0,0-.922-.9" transform="translate(-181.977 -403.676)" fill="#a395fd"/><path d="M319.588,434.324a.917.917,0,0,0,0,1.834.929.929,0,0,0,.93-.93.918.918,0,0,0-.928-.9" transform="translate(-287.712 -392.118)" fill="#a395fd"/><path d="M110.392,444.408a.956.956,0,0,0,.983-.963.967.967,0,0,0-1.935,0,.95.95,0,0,0,.952.968" transform="translate(-98.806 -399.481)" fill="#a395fd"/><path d="M195.134,33.131a.939.939,0,0,0-.967.948.959.959,0,0,0,.937.986,1,1,0,0,0,.993-.968.973.973,0,0,0-.963-.966" transform="translate(-175.299 -29.912)" fill="#a395fd"/><path d="M456.024,374.321a.944.944,0,0,0-.962.951.982.982,0,0,0,.956.973.956.956,0,0,0,.962-.979.916.916,0,0,0-.956-.945" transform="translate(-410.84 -337.945)" fill="#a395fd"/></g></svg>