<svg xmlns="http://www.w3.org/2000/svg" xmlns:xlink="http://www.w3.org/1999/xlink" width="155" height="48" viewBox="0 0 155 48">
  <defs>
    <clipPath id="clip-path">
      <rect id="Rect치ngulo_292247" data-name="Rect치ngulo 292247" width="21.931" height="21.942" fill="#4a2efc"/>
    </clipPath>
  </defs>
  <g id="Grupo_874033" data-name="Grupo 874033" transform="translate(-490 -1880.438)">
    <rect id="Rect치ngulo_290789" data-name="Rect치ngulo 290789" width="155" height="48" transform="translate(490 1880.438)" fill="#fff"/>
    <path id="Trazado_609220" data-name="Trazado 609220" d="M6.645,10.6H2.468V15H1.155V5.047H7.321V6.12H2.468V9.531H6.645ZM10.069,15H8.8V7.6h1.265ZM8.7,5.642a.755.755,0,0,1,.188-.52.706.706,0,0,1,.557-.212.717.717,0,0,1,.561.212.747.747,0,0,1,.191.52.722.722,0,0,1-.191.513.73.73,0,0,1-.561.205.718.718,0,0,1-.557-.205A.73.73,0,0,1,8.7,5.642ZM13.289,7.6l.041.93a2.7,2.7,0,0,1,2.215-1.066q2.345,0,2.365,2.646V15H16.646V10.105a1.7,1.7,0,0,0-.366-1.183,1.466,1.466,0,0,0-1.118-.383,1.825,1.825,0,0,0-1.08.328,2.228,2.228,0,0,0-.725.861V15H12.093V7.6ZM24.384,15a2.657,2.657,0,0,1-.178-.779,2.822,2.822,0,0,1-2.105.916,2.611,2.611,0,0,1-1.794-.619,2,2,0,0,1-.7-1.569,2.091,2.091,0,0,1,.878-1.794,4.142,4.142,0,0,1,2.471-.639h1.23V9.935a1.42,1.42,0,0,0-.4-1.056,1.593,1.593,0,0,0-1.169-.393,1.844,1.844,0,0,0-1.135.342,1.007,1.007,0,0,0-.458.827H19.756a1.745,1.745,0,0,1,.393-1.07,2.683,2.683,0,0,1,1.066-.817,3.588,3.588,0,0,1,1.48-.3,2.924,2.924,0,0,1,2,.639,2.306,2.306,0,0,1,.752,1.76v3.4a4.162,4.162,0,0,0,.26,1.62V15Zm-2.1-.964a2.223,2.223,0,0,0,1.128-.308,1.861,1.861,0,0,0,.772-.8V11.411h-.991q-2.324,0-2.324,1.36a1.151,1.151,0,0,0,.4.93A1.524,1.524,0,0,0,22.285,14.036ZM28.629,7.6l.041.93a2.7,2.7,0,0,1,2.215-1.066q2.345,0,2.365,2.646V15H31.985V10.105a1.7,1.7,0,0,0-.366-1.183A1.466,1.466,0,0,0,30.5,8.54a1.825,1.825,0,0,0-1.08.328,2.228,2.228,0,0,0-.725.861V15H27.433V7.6Zm9.5,6.5a1.822,1.822,0,0,0,1.183-.41,1.443,1.443,0,0,0,.561-1.025h1.2a2.293,2.293,0,0,1-.437,1.21,2.881,2.881,0,0,1-1.077.916,3.107,3.107,0,0,1-1.425.342,3.047,3.047,0,0,1-2.4-1.008,4.016,4.016,0,0,1-.892-2.758v-.212a4.453,4.453,0,0,1,.4-1.921,3.02,3.02,0,0,1,1.138-1.306,3.233,3.233,0,0,1,1.753-.465,2.966,2.966,0,0,1,2.068.745,2.663,2.663,0,0,1,.878,1.935h-1.2a1.743,1.743,0,0,0-.543-1.179,1.691,1.691,0,0,0-1.207-.461,1.77,1.77,0,0,0-1.494.694,3.259,3.259,0,0,0-.53,2.006v.239a3.194,3.194,0,0,0,.526,1.969A1.779,1.779,0,0,0,38.124,14.1Zm5.735.9H42.595V7.6h1.265ZM42.492,5.642a.755.755,0,0,1,.188-.52.706.706,0,0,1,.557-.212.717.717,0,0,1,.561.212.747.747,0,0,1,.191.52.722.722,0,0,1-.191.513.73.73,0,0,1-.561.205.718.718,0,0,1-.557-.205A.73.73,0,0,1,42.492,5.642Zm6.46,9.5a3.232,3.232,0,0,1-2.447-.988,3.666,3.666,0,0,1-.943-2.642v-.232a4.438,4.438,0,0,1,.42-1.965,3.28,3.28,0,0,1,1.176-1.354,2.956,2.956,0,0,1,1.637-.489,2.77,2.77,0,0,1,2.242.95,4.114,4.114,0,0,1,.8,2.721v.526H46.826a2.629,2.629,0,0,0,.639,1.767,2.009,2.009,0,0,0,1.555.673,2.2,2.2,0,0,0,1.135-.273,2.851,2.851,0,0,0,.813-.725l.772.6A3.106,3.106,0,0,1,48.952,15.137Zm-.157-6.631a1.687,1.687,0,0,0-1.285.557,2.708,2.708,0,0,0-.643,1.562h3.705v-.1a2.409,2.409,0,0,0-.52-1.494A1.588,1.588,0,0,0,48.795,8.506Zm8.08.232a3.79,3.79,0,0,0-.622-.048,1.667,1.667,0,0,0-1.688,1.06V15H53.3V7.6h1.23l.021.854a1.969,1.969,0,0,1,1.764-.991,1.292,1.292,0,0,1,.561.1Zm.69,2.5a4.369,4.369,0,0,1,.427-1.955,3.187,3.187,0,0,1,1.189-1.34,3.238,3.238,0,0,1,1.74-.472,3.119,3.119,0,0,1,2.444,1.046,4.024,4.024,0,0,1,.933,2.782v.089a4.407,4.407,0,0,1-.414,1.938A3.14,3.14,0,0,1,62.7,14.658a3.275,3.275,0,0,1-1.767.479A3.111,3.111,0,0,1,58.5,14.091a4,4,0,0,1-.933-2.769Zm1.271.15a3.164,3.164,0,0,0,.571,1.976,1.934,1.934,0,0,0,3.059-.01,3.46,3.46,0,0,0,.567-2.116,3.159,3.159,0,0,0-.578-1.972,1.836,1.836,0,0,0-1.535-.755,1.816,1.816,0,0,0-1.511.745A3.435,3.435,0,0,0,58.837,11.384Zm11.354,1.654a.931.931,0,0,0-.386-.8,3.718,3.718,0,0,0-1.347-.489,6.367,6.367,0,0,1-1.524-.492,2.169,2.169,0,0,1-.834-.684,1.635,1.635,0,0,1-.27-.943A1.919,1.919,0,0,1,66.6,8.1a3,3,0,0,1,1.965-.629,3.091,3.091,0,0,1,2.041.649,2.063,2.063,0,0,1,.783,1.661H70.116a1.142,1.142,0,0,0-.441-.9,1.652,1.652,0,0,0-1.111-.376,1.729,1.729,0,0,0-1.08.3.947.947,0,0,0-.39.786.767.767,0,0,0,.362.69,4.458,4.458,0,0,0,1.309.444,6.821,6.821,0,0,1,1.535.506,2.239,2.239,0,0,1,.872.708,1.74,1.74,0,0,1,.284,1.008,1.893,1.893,0,0,1-.793,1.589,3.326,3.326,0,0,1-2.058.6,3.725,3.725,0,0,1-1.572-.314,2.557,2.557,0,0,1-1.07-.878,2.117,2.117,0,0,1-.386-1.22h1.265a1.309,1.309,0,0,0,.509,1.008,1.976,1.976,0,0,0,1.254.373,2.039,2.039,0,0,0,1.152-.291A.893.893,0,0,0,70.191,13.038Z" transform="translate(537.561 1894.438)" fill="#12263f"/>
    <g id="Grupo_873541" data-name="Grupo 873541" transform="translate(503.915 1893.044)">
      <g id="Grupo_873537" data-name="Grupo 873537" clip-path="url(#clip-path)">
        <path id="Trazado_608262" data-name="Trazado 608262" d="M13.5.3C12.949.174,12.378.122,11.815.034,11.759.026,11.7.011,11.65,0H10.279c-.4.055-.805.1-1.2.166A10.966,10.966,0,1,0,21.676,13.3c.106-.5.149-1.015.222-1.522a1.052,1.052,0,0,1,.033-.123V10.28c-.055-.4-.1-.805-.166-1.205A10.946,10.946,0,0,0,13.5.3M10.966,20.561a9.6,9.6,0,1,1,9.594-9.586,9.613,9.613,0,0,1-9.594,9.586" transform="translate(0 0.001)" fill="#4a2efc"/>
        <path id="Trazado_608263" data-name="Trazado 608263" d="M140.715,78.04a1.715,1.715,0,1,1,1.69-1.762.689.689,0,1,0,1.37-.05,3.1,3.1,0,0,0-2.2-2.858c-.066-.019-.13-.043-.2-.066,0-.25,0-.485,0-.721a.685.685,0,1,0-1.369,0c0,.242,0,.484,0,.729-.057.021-.1.04-.15.053a3.062,3.062,0,0,0-1.986,4.193,2.986,2.986,0,0,0,2.8,1.852,1.715,1.715,0,1,1-1.689,1.762.694.694,0,0,0-.7-.73.686.686,0,0,0-.667.779,3,3,0,0,0,1.5,2.541,7.987,7.987,0,0,0,.9.412c0,.221,0,.456,0,.691a.685.685,0,1,0,1.369.006c0-.242,0-.484,0-.73l.213-.065a3.073,3.073,0,0,0,1.922-4.18,2.986,2.986,0,0,0-2.8-1.851" transform="translate(-129.728 -67.756)" fill="#4a2efc"/>
      </g>
    </g>
  </g>
</svg>
