<svg xmlns="http://www.w3.org/2000/svg" xmlns:xlink="http://www.w3.org/1999/xlink" width="137" height="48" viewBox="0 0 137 48">
  <defs>
    <clipPath id="clip-path">
      <rect id="Rect치ngulo_292265" data-name="Rect치ngulo 292265" width="19.63" height="21.943" fill="#4a2efc"/>
    </clipPath>
  </defs>
  <g id="Grupo_874034" data-name="Grupo 874034" transform="translate(-751 -878.159)">
    <rect id="Rect치ngulo_290790" data-name="Rect치ngulo 290790" width="137" height="48" transform="translate(751 878.159)" fill="#fff"/>
    <path id="Trazado_609221" data-name="Trazado 609221" d="M2.851,5.047,6.1,13.168,9.358,5.047h1.7V15H9.748V11.124L9.871,6.94,6.6,15h-1L2.338,6.961l.13,4.163V15H1.155V5.047ZM17.746,15a2.657,2.657,0,0,1-.178-.779,2.822,2.822,0,0,1-2.105.916,2.611,2.611,0,0,1-1.794-.619,2,2,0,0,1-.7-1.569,2.091,2.091,0,0,1,.878-1.794,4.142,4.142,0,0,1,2.471-.639h1.23V9.935a1.42,1.42,0,0,0-.4-1.056,1.593,1.593,0,0,0-1.169-.393,1.844,1.844,0,0,0-1.135.342,1.007,1.007,0,0,0-.458.827H13.118a1.745,1.745,0,0,1,.393-1.07,2.683,2.683,0,0,1,1.066-.817,3.588,3.588,0,0,1,1.48-.3,2.924,2.924,0,0,1,2,.639,2.306,2.306,0,0,1,.752,1.76v3.4a4.162,4.162,0,0,0,.26,1.62V15Zm-2.1-.964a2.223,2.223,0,0,0,1.128-.308,1.861,1.861,0,0,0,.772-.8V11.411h-.991q-2.324,0-2.324,1.36a1.151,1.151,0,0,0,.4.93A1.524,1.524,0,0,0,15.647,14.036Zm6.863-8.224V7.6h1.381v.978H22.511v4.593a1.027,1.027,0,0,0,.185.667.777.777,0,0,0,.629.222,3.062,3.062,0,0,0,.6-.082V15a3.688,3.688,0,0,1-.971.136,1.575,1.575,0,0,1-1.278-.513,2.2,2.2,0,0,1-.431-1.456V8.581H19.9V7.6h1.347V5.813Zm5.927,9.324a3.232,3.232,0,0,1-2.447-.988,3.666,3.666,0,0,1-.943-2.642v-.232a4.438,4.438,0,0,1,.42-1.965,3.28,3.28,0,0,1,1.176-1.354,2.956,2.956,0,0,1,1.637-.489,2.77,2.77,0,0,1,2.242.95,4.114,4.114,0,0,1,.8,2.721v.526H26.312a2.629,2.629,0,0,0,.639,1.767,2.009,2.009,0,0,0,1.555.673,2.2,2.2,0,0,0,1.135-.273,2.851,2.851,0,0,0,.813-.725l.772.6A3.106,3.106,0,0,1,28.438,15.137ZM28.28,8.506A1.687,1.687,0,0,0,27,9.063a2.708,2.708,0,0,0-.643,1.562h3.705v-.1a2.409,2.409,0,0,0-.52-1.494A1.588,1.588,0,0,0,28.28,8.506Zm8.08.232a3.79,3.79,0,0,0-.622-.048A1.667,1.667,0,0,0,34.05,9.75V15H32.785V7.6h1.23l.021.854A1.969,1.969,0,0,1,35.8,7.467a1.292,1.292,0,0,1,.561.1ZM38.9,15H37.632V7.6H38.9ZM37.529,5.642a.755.755,0,0,1,.188-.52.706.706,0,0,1,.557-.212.717.717,0,0,1,.561.212.747.747,0,0,1,.191.52.722.722,0,0,1-.191.513.73.73,0,0,1-.561.205.718.718,0,0,1-.557-.205A.73.73,0,0,1,37.529,5.642ZM45.486,15a2.657,2.657,0,0,1-.178-.779,2.822,2.822,0,0,1-2.105.916,2.611,2.611,0,0,1-1.794-.619,2,2,0,0,1-.7-1.569,2.091,2.091,0,0,1,.878-1.794,4.142,4.142,0,0,1,2.471-.639h1.23V9.935a1.42,1.42,0,0,0-.4-1.056,1.593,1.593,0,0,0-1.169-.393,1.844,1.844,0,0,0-1.135.342,1.007,1.007,0,0,0-.458.827H40.858a1.745,1.745,0,0,1,.393-1.07,2.683,2.683,0,0,1,1.066-.817,3.588,3.588,0,0,1,1.48-.3,2.924,2.924,0,0,1,2,.639,2.306,2.306,0,0,1,.752,1.76v3.4a4.162,4.162,0,0,0,.26,1.62V15Zm-2.1-.964a2.223,2.223,0,0,0,1.128-.308,1.861,1.861,0,0,0,.772-.8V11.411H44.3q-2.324,0-2.324,1.36a1.151,1.151,0,0,0,.4.93A1.524,1.524,0,0,0,43.388,14.036ZM49.909,15H48.645V4.5h1.265ZM55,15.137a3.232,3.232,0,0,1-2.447-.988,3.666,3.666,0,0,1-.943-2.642v-.232a4.438,4.438,0,0,1,.42-1.965,3.28,3.28,0,0,1,1.176-1.354,2.956,2.956,0,0,1,1.637-.489,2.77,2.77,0,0,1,2.242.95,4.114,4.114,0,0,1,.8,2.721v.526H52.876a2.629,2.629,0,0,0,.639,1.767,2.009,2.009,0,0,0,1.555.673,2.2,2.2,0,0,0,1.135-.273,2.851,2.851,0,0,0,.813-.725l.772.6A3.106,3.106,0,0,1,55,15.137Zm-.157-6.631a1.687,1.687,0,0,0-1.285.557,2.708,2.708,0,0,0-.643,1.562h3.705v-.1a2.409,2.409,0,0,0-.52-1.494A1.588,1.588,0,0,0,54.845,8.506Zm8.812,4.532a.931.931,0,0,0-.386-.8,3.718,3.718,0,0,0-1.347-.489,6.367,6.367,0,0,1-1.524-.492,2.169,2.169,0,0,1-.834-.684,1.635,1.635,0,0,1-.27-.943A1.919,1.919,0,0,1,60.064,8.1a3,3,0,0,1,1.965-.629,3.091,3.091,0,0,1,2.041.649,2.063,2.063,0,0,1,.783,1.661H63.581a1.142,1.142,0,0,0-.441-.9,1.652,1.652,0,0,0-1.111-.376,1.729,1.729,0,0,0-1.08.3.947.947,0,0,0-.39.786.767.767,0,0,0,.362.69,4.458,4.458,0,0,0,1.309.444,6.821,6.821,0,0,1,1.535.506,2.239,2.239,0,0,1,.872.708,1.74,1.74,0,0,1,.284,1.008,1.893,1.893,0,0,1-.793,1.589,3.326,3.326,0,0,1-2.058.6,3.725,3.725,0,0,1-1.572-.314,2.557,2.557,0,0,1-1.07-.878,2.117,2.117,0,0,1-.386-1.22h1.265a1.309,1.309,0,0,0,.509,1.008,1.976,1.976,0,0,0,1.254.373,2.039,2.039,0,0,0,1.152-.291A.893.893,0,0,0,63.656,13.038Z" transform="translate(798.561 892.159)" fill="#12263f"/>
    <g id="Grupo_873546" data-name="Grupo 873546" transform="translate(765.978 890.766)">
      <g id="Grupo_873547" data-name="Grupo 873547" clip-path="url(#clip-path)">
        <path id="Trazado_608292" data-name="Trazado 608292" d="M19.58,14.848a2.31,2.31,0,0,0-1.108-1.571.228.228,0,0,1-.123-.22c0-.788,0-1.577,0-2.365,0-.6,0-1.2,0-1.8a.236.236,0,0,1,.127-.231,2.26,2.26,0,0,0,.867-.879,2.3,2.3,0,0,0-.049-2.3,2.212,2.212,0,0,0-1.886-1.151,2.351,2.351,0,0,0-1.3.3.18.18,0,0,1-.192,0q-1.835-1.056-3.672-2.11a.2.2,0,0,1-.106-.186A2.327,2.327,0,0,0,11.4.621,2.642,2.642,0,0,0,10.13.006a2.789,2.789,0,0,0-.738.04c-.107.037-.219.059-.325.1A2.236,2.236,0,0,0,7.8,1.15,2.492,2.492,0,0,0,7.479,2.3a.27.27,0,0,1-.151.248q-1.8,1.039-3.6,2.085a.207.207,0,0,1-.231,0,2.284,2.284,0,0,0-2.29-.015A2.331,2.331,0,0,0,1.164,8.67a.2.2,0,0,1,.11.213c0,.036,0,.072,0,.108q0,2.025.006,4.05a.255.255,0,0,1-.138.247,2.331,2.331,0,0,0,2.332,4.036.254.254,0,0,1,.286,0q1.613.938,3.231,1.869c.123.071.247.142.369.216a.237.237,0,0,1,.133.241,1.067,1.067,0,0,0,.033.4,2.326,2.326,0,0,0,1.827,1.834c.1.025.212.035.318.052h.272c.115-.018.231-.032.346-.055a2.321,2.321,0,0,0,1.829-1.942,2.725,2.725,0,0,0,.027-.338.207.207,0,0,1,.12-.194q.877-.5,1.752-1.009.937-.541,1.872-1.087a.226.226,0,0,1,.256,0A2.335,2.335,0,0,0,19.6,15.624c.013-.082.021-.164.031-.246v-.19c0-.019-.01-.038-.012-.057-.012-.094-.018-.19-.037-.282M17.307,5.186a1.474,1.474,0,1,1-1.5,1.467,1.478,1.478,0,0,1,1.5-1.467m.16,7.762H17.1V8.993h.363ZM11.933,3.333l3.43,1.98-.2.352-3.43-1.981.2-.352M9.819.868A1.475,1.475,0,1,1,8.337,2.35,1.477,1.477,0,0,1,9.819.868M7.69,3.334l.2.352L4.464,5.667l-.2-.352L7.69,3.334M.862,6.652a1.482,1.482,0,0,1,1.5-1.466A1.464,1.464,0,0,1,3.811,6.66,1.479,1.479,0,0,1,2.346,8.135,1.5,1.5,0,0,1,.862,6.652m1.482,10.1A1.478,1.478,0,0,1,.862,15.282,1.5,1.5,0,0,1,2.346,13.8,1.483,1.483,0,0,1,3.811,15.28a1.46,1.46,0,0,1-1.467,1.473m5.347,1.854-3.432-1.98.2-.351,3.43,1.98-.2.352m2.118,2.467A1.475,1.475,0,1,1,11.284,19.6a1.482,1.482,0,0,1-1.476,1.471m2.128-2.467-.207-.349,3.431-1.982.2.352-3.427,1.98m3.214-4.294a2.314,2.314,0,0,0-.2.97.181.181,0,0,1-.1.176q-1.828,1.048-3.654,2.1a.212.212,0,0,1-.229,0,2.384,2.384,0,0,0-1.243-.308,2.354,2.354,0,0,0-1.076.318.193.193,0,0,1-.218,0q-1.818-1.059-3.64-2.111a.212.212,0,0,1-.115-.192,2.33,2.33,0,0,0-1.158-2.008.2.2,0,0,1-.109-.182c0-.46,0-.919-.01-1.379a.88.88,0,0,0-.027-.221.384.384,0,0,0-.394-.3.4.4,0,0,0-.406.3.9.9,0,0,0-.03.234c0,.385,0,.77,0,1.155v.082H2.156V8.993h.387c0,.025,0,.05,0,.074,0,.371-.005.743,0,1.114a1.045,1.045,0,0,0,.036.294.411.411,0,0,0,.477.28.4.4,0,0,0,.347-.4c0-.482.005-.965,0-1.447a.248.248,0,0,1,.13-.243A2.261,2.261,0,0,0,4.589,7.3a2.333,2.333,0,0,0,.082-.631.2.2,0,0,1,.11-.191Q6.607,5.426,8.431,4.37a.2.2,0,0,1,.226,0,2.325,2.325,0,0,0,1.131.318,2.279,2.279,0,0,0,1.16-.309.231.231,0,0,1,.261,0q1.811,1.05,3.627,2.093a.209.209,0,0,1,.118.2A2.179,2.179,0,0,0,15.628,8.3a3.847,3.847,0,0,0,.478.367.23.23,0,0,1,.116.211q0,1.577,0,3.153c0,.344,0,.689,0,1.033a.21.21,0,0,1-.114.2,2.314,2.314,0,0,0-.958,1.044m2.131,2.44A1.463,1.463,0,0,1,15.81,15.29a1.475,1.475,0,1,1,1.471,1.463" transform="translate(0 0)" fill="#4a2efc"/>
        <path id="Trazado_608293" data-name="Trazado 608293" d="M92.235,92.872q-2.273-1.31-4.543-2.623a.561.561,0,0,0-.6,0q-2.268,1.312-4.538,2.619a.581.581,0,0,0-.314.545c0,.87,0,1.74,0,2.609s0,1.744,0,2.616a.576.576,0,0,0,.312.539q2.252,1.3,4.5,2.6a.631.631,0,0,0,.69,0q1.53-.893,3.065-1.777c.466-.269.932-.539,1.4-.8a.62.62,0,0,0,.342-.595c0-.1,0-.195,0-.292q0-2.439,0-4.879a.6.6,0,0,0-.313-.561m-6.278-.963c.449-.259.9-.515,1.346-.777a.156.156,0,0,1,.18,0q1.474.853,2.95,1.7l.746.431.064.039c-.179.1-.352.206-.526.305-.281.161-.562.319-.842.481a.218.218,0,0,1-.245,0q-1.829-1.059-3.662-2.111l-.06-.037c.02-.014.034-.025.05-.035m1,8.736c0,.02,0,.041,0,.077l-.227-.129q-1.741-1-3.482-2a.267.267,0,0,1-.152-.261c.006-.675.006-1.35.006-2.025q0-1.077,0-2.154v-.091a.512.512,0,0,1,.051.022q1.855,1.069,3.71,2.139a.178.178,0,0,1,.1.174q0,2.127,0,4.254m.557-5.19a.22.22,0,0,1-.246,0q-1.83-1.059-3.663-2.113l-.064-.038.348-.2c.349-.2.7-.4,1.048-.6a.17.17,0,0,1,.193,0q1.845,1.067,3.692,2.13l.058.036-.137.081c-.41.236-.82.471-1.229.709m3.806,3.262c-.218.133-.447.247-.669.374q-1.343.774-2.685,1.551l-.139.08c0-.031,0-.054,0-.077q0-1.743,0-3.485c0-.242,0-.484,0-.727a.238.238,0,0,1,.13-.226q1.824-1.054,3.646-2.112l.072-.038v.887c0,.7,0,1.4,0,2.106,0,.332.016.665.014,1a.75.75,0,0,1-.37.671" transform="translate(-77.58 -85.056)" fill="#4a2efc"/>
        <path id="Trazado_608294" data-name="Trazado 608294" d="M191.066,196a1.567,1.567,0,0,0-.03-.323.38.38,0,0,0-.366-.3.546.546,0,0,0-.3.083l-2.076,1.2a.5.5,0,0,0-.264.464c0,.322,0,.643,0,.965,0,.154,0,.308.012.461a.417.417,0,0,0,.331.4.523.523,0,0,0,.363-.081l2.069-1.193a.5.5,0,0,0,.27-.468c0-.222,0-.444,0-.666,0-.181,0-.362,0-.543m-.868,1c0,.013-.018.031-.032.039l-1.249.724a.156.156,0,0,1-.025.007c0-.146,0-.285,0-.425a.076.076,0,0,1,.035-.051q.621-.362,1.243-.722a.122.122,0,0,1,.027-.006c0,.147,0,.29,0,.434" transform="translate(-177.375 -184.31)" fill="#4a2efc"/>
      </g>
    </g>
  </g>
</svg>
