<svg xmlns="http://www.w3.org/2000/svg" xmlns:xlink="http://www.w3.org/1999/xlink" width="479.88" height="74.86" viewBox="0 0 479.88 74.86"><defs><clipPath id="a"><rect width="74.88" height="74.86" fill="none"/></clipPath></defs><g transform="translate(-180 -12796.111)"><path d="M0,0H438.24l-3.5,52.528L0,52Z" transform="translate(180 12807.586)" fill="#fff0a6"/><path d="M12.578,16.186a5.193,5.193,0,0,1-.8,2.622A4.833,4.833,0,0,1,9.722,20.57,7,7,0,0,1,6.7,21.2a5.584,5.584,0,0,1-4.414-1.826A7.54,7.54,0,0,1,.674,14.213v-.7A8.607,8.607,0,0,1,1.4,9.853,5.513,5.513,0,0,1,3.5,7.431,5.844,5.844,0,0,1,6.66,6.576a6.129,6.129,0,0,1,4.16,1.362,5.383,5.383,0,0,1,1.787,3.755H9.189a2.547,2.547,0,0,0-.654-1.865A2.691,2.691,0,0,0,6.66,9.262a2.048,2.048,0,0,0-1.875.957,6.151,6.151,0,0,0-.625,3.057v1.006a6.806,6.806,0,0,0,.571,3.252A2.091,2.091,0,0,0,6.7,18.51a2.632,2.632,0,0,0,1.807-.557,2.363,2.363,0,0,0,.664-1.768Zm1.055-.566a6.236,6.236,0,0,1,.615-2.817,4.4,4.4,0,0,1,1.768-1.9,5.323,5.323,0,0,1,2.705-.664,4.858,4.858,0,0,1,3.74,1.47,5.64,5.64,0,0,1,1.367,4v.117a5.472,5.472,0,0,1-1.372,3.921A4.871,4.871,0,0,1,18.74,21.2a4.927,4.927,0,0,1-3.623-1.353,5.29,5.29,0,0,1-1.475-3.667Zm3.291.205a3.932,3.932,0,0,0,.459,2.148,1.529,1.529,0,0,0,1.357.684q1.758,0,1.8-2.705v-.332q0-2.842-1.816-2.842-1.65,0-1.787,2.451ZM28.3,10.434l.107,1.24a3.583,3.583,0,0,1,3.018-1.436,3.015,3.015,0,0,1,2.466.986,4.7,4.7,0,0,1,.845,2.969V21h-3.3V14.33a1.783,1.783,0,0,0-.322-1.177,1.491,1.491,0,0,0-1.172-.376,1.569,1.569,0,0,0-1.436.762V21H25.215V10.434Zm12.725,8.223A1.464,1.464,0,0,0,42.1,18.28a1.379,1.379,0,0,0,.371-1.05h3.086a3.653,3.653,0,0,1-1.245,2.852A4.631,4.631,0,0,1,41.1,21.2a4.689,4.689,0,0,1-3.633-1.445,5.7,5.7,0,0,1-1.328-4v-.137a6.436,6.436,0,0,1,.591-2.827,4.3,4.3,0,0,1,1.7-1.885,5.081,5.081,0,0,1,2.637-.659,4.573,4.573,0,0,1,3.271,1.143,4.053,4.053,0,0,1,1.211,3.1H42.471a1.807,1.807,0,0,0-.4-1.26A1.382,1.382,0,0,0,41,12.777q-1.279,0-1.494,1.631a11.507,11.507,0,0,0-.068,1.426,4.52,4.52,0,0,0,.381,2.207A1.319,1.319,0,0,0,41.025,18.656ZM52.061,21.2a5.432,5.432,0,0,1-3.936-1.45,5.008,5.008,0,0,1-1.5-3.774V15.7a6.489,6.489,0,0,1,.6-2.861,4.395,4.395,0,0,1,1.753-1.919,5.292,5.292,0,0,1,2.734-.679,4.574,4.574,0,0,1,3.516,1.382,5.43,5.43,0,0,1,1.289,3.853v1.279H49.971a2.372,2.372,0,0,0,.771,1.4,2.3,2.3,0,0,0,1.543.508,2.958,2.958,0,0,0,2.441-1.094l1.5,1.777a4.2,4.2,0,0,1-1.743,1.353A5.891,5.891,0,0,1,52.061,21.2Zm-.371-8.418q-1.445,0-1.719,1.914h3.32v-.254a1.63,1.63,0,0,0-.4-1.226A1.593,1.593,0,0,0,51.689,12.777Zm15.957,3.018a6.372,6.372,0,0,1-1.108,3.931,3.554,3.554,0,0,1-2.993,1.47,3.046,3.046,0,0,1-2.393-1.064v4.932H57.861V10.434h3.076l.1.977a3.046,3.046,0,0,1,2.49-1.172,3.582,3.582,0,0,1,3.037,1.44,6.45,6.45,0,0,1,1.084,3.96Zm-3.291-.205q0-2.812-1.641-2.812a1.549,1.549,0,0,0-1.562.84v4.16a1.6,1.6,0,0,0,1.582.879q1.572,0,1.621-2.715ZM72.93,7.807v2.627h1.738v2.285H72.93v4.834a1.234,1.234,0,0,0,.215.83,1.152,1.152,0,0,0,.85.234,4.828,4.828,0,0,0,.82-.059v2.354a6.074,6.074,0,0,1-1.855.283,3.448,3.448,0,0,1-2.51-.8,3.282,3.282,0,0,1-.811-2.432V12.719H68.291V10.434h1.348V7.807Zm2.324,7.813a6.236,6.236,0,0,1,.615-2.817,4.4,4.4,0,0,1,1.768-1.9,5.323,5.323,0,0,1,2.705-.664,4.858,4.858,0,0,1,3.74,1.47,5.64,5.64,0,0,1,1.367,4v.117a5.472,5.472,0,0,1-1.372,3.921,4.871,4.871,0,0,1-3.716,1.45,4.927,4.927,0,0,1-3.623-1.353,5.29,5.29,0,0,1-1.475-3.667Zm3.291.205A3.932,3.932,0,0,0,79,17.973a1.529,1.529,0,0,0,1.357.684q1.758,0,1.8-2.705v-.332q0-2.842-1.816-2.842-1.65,0-1.787,2.451Zm13.887,2.207a.76.76,0,0,0-.439-.674,6.684,6.684,0,0,0-1.67-.527,7.615,7.615,0,0,1-2.031-.718,3.4,3.4,0,0,1-1.221-1.079,2.577,2.577,0,0,1-.42-1.455,2.92,2.92,0,0,1,1.2-2.4A4.948,4.948,0,0,1,91,10.238a5.482,5.482,0,0,1,3.359.947,2.962,2.962,0,0,1,1.27,2.49h-3.3q0-1.27-1.338-1.27a1.326,1.326,0,0,0-.869.288.892.892,0,0,0-.352.718.819.819,0,0,0,.43.713,4.06,4.06,0,0,0,1.372.449,11.857,11.857,0,0,1,1.655.42,3.007,3.007,0,0,1,2.383,2.939,2.767,2.767,0,0,1-1.284,2.354A5.631,5.631,0,0,1,91,21.2a5.747,5.747,0,0,1-2.422-.488,4.05,4.05,0,0,1-1.66-1.328,3.007,3.007,0,0,1-.6-1.768h3.076a1.272,1.272,0,0,0,.488,1.069,2.009,2.009,0,0,0,1.2.337,1.58,1.58,0,0,0,1.011-.273A.875.875,0,0,0,92.432,18.031Zm19.5-2.227a6.44,6.44,0,0,1-1.074,3.994,3.6,3.6,0,0,1-3.027,1.4,3.122,3.122,0,0,1-2.6-1.279L105.1,21h-2.949V6h3.291v5.283a3.013,3.013,0,0,1,2.373-1.045,3.6,3.6,0,0,1,3.047,1.416,6.473,6.473,0,0,1,1.074,3.984Zm-3.3-.21a4.3,4.3,0,0,0-.405-2.169,1.366,1.366,0,0,0-1.245-.648,1.576,1.576,0,0,0-1.543.848v4.192a1.585,1.585,0,0,0,1.563.838,1.4,1.4,0,0,0,1.475-1.131A8.121,8.121,0,0,0,108.633,15.595ZM119.336,21a3.716,3.716,0,0,1-.312-.947,3.06,3.06,0,0,1-2.539,1.143,3.749,3.749,0,0,1-2.539-.9,2.875,2.875,0,0,1-1.045-2.271,2.955,2.955,0,0,1,1.27-2.6,6.468,6.468,0,0,1,3.691-.879h1.016v-.559q0-1.462-1.26-1.462a1.03,1.03,0,0,0-1.172,1.158h-3.291a2.95,2.95,0,0,1,1.3-2.487,5.479,5.479,0,0,1,3.325-.956,4.8,4.8,0,0,1,3.193.986,3.429,3.429,0,0,1,1.2,2.705v4.678a4.79,4.79,0,0,0,.449,2.227V21Zm-2.061-2.148a1.836,1.836,0,0,0,1.021-.264,1.653,1.653,0,0,0,.581-.6V16.3h-.957q-1.719,0-1.719,1.543a.942.942,0,0,0,.3.728A1.1,1.1,0,0,0,117.275,18.852ZM118.1,6h3.477l-2.715,3.066-2.686,0Zm11.436,12.031a.76.76,0,0,0-.439-.674,6.684,6.684,0,0,0-1.67-.527,7.615,7.615,0,0,1-2.031-.718,3.4,3.4,0,0,1-1.221-1.079,2.577,2.577,0,0,1-.42-1.455,2.92,2.92,0,0,1,1.2-2.4,4.948,4.948,0,0,1,3.145-.942,5.482,5.482,0,0,1,3.359.947,2.962,2.962,0,0,1,1.27,2.49h-3.3q0-1.27-1.338-1.27a1.326,1.326,0,0,0-.869.288.892.892,0,0,0-.352.718.819.819,0,0,0,.43.713,4.06,4.06,0,0,0,1.372.449,11.857,11.857,0,0,1,1.655.42,3.007,3.007,0,0,1,2.383,2.939,2.767,2.767,0,0,1-1.284,2.354,5.632,5.632,0,0,1-3.325.908,5.747,5.747,0,0,1-2.422-.488,4.05,4.05,0,0,1-1.66-1.328,3.007,3.007,0,0,1-.6-1.768h3.076a1.272,1.272,0,0,0,.488,1.069,2.009,2.009,0,0,0,1.2.337,1.58,1.58,0,0,0,1.011-.273A.875.875,0,0,0,129.531,18.031ZM137.715,21h-3.3V10.434h3.3Zm-3.5-13.291a1.469,1.469,0,0,1,.508-1.152,2.159,2.159,0,0,1,2.637,0,1.469,1.469,0,0,1,.508,1.152,1.469,1.469,0,0,1-.508,1.152,2.159,2.159,0,0,1-2.637,0A1.469,1.469,0,0,1,134.219,7.709Zm9.99,10.947a1.464,1.464,0,0,0,1.074-.376,1.379,1.379,0,0,0,.371-1.05h3.086a3.653,3.653,0,0,1-1.245,2.852,4.631,4.631,0,0,1-3.208,1.113,4.689,4.689,0,0,1-3.633-1.445,5.7,5.7,0,0,1-1.328-4v-.137a6.436,6.436,0,0,1,.591-2.827,4.3,4.3,0,0,1,1.7-1.885,5.081,5.081,0,0,1,2.637-.659,4.573,4.573,0,0,1,3.271,1.143,4.053,4.053,0,0,1,1.211,3.1h-3.086a1.807,1.807,0,0,0-.4-1.26,1.382,1.382,0,0,0-1.074-.439q-1.279,0-1.494,1.631a11.507,11.507,0,0,0-.068,1.426A4.52,4.52,0,0,0,143,18.041,1.319,1.319,0,0,0,144.209,18.656Zm5.508-3.037a6.236,6.236,0,0,1,.615-2.817,4.4,4.4,0,0,1,1.768-1.9,5.323,5.323,0,0,1,2.705-.664,4.858,4.858,0,0,1,3.74,1.47,5.64,5.64,0,0,1,1.367,4v.117a5.472,5.472,0,0,1-1.372,3.921,4.871,4.871,0,0,1-3.716,1.45,4.927,4.927,0,0,1-3.623-1.353,5.29,5.29,0,0,1-1.475-3.667Zm3.291.205a3.932,3.932,0,0,0,.459,2.148,1.529,1.529,0,0,0,1.357.684q1.758,0,1.8-2.705v-.332q0-2.842-1.816-2.842-1.65,0-1.787,2.451Zm13.887,2.207a.76.76,0,0,0-.439-.674,6.684,6.684,0,0,0-1.67-.527,7.615,7.615,0,0,1-2.031-.718,3.4,3.4,0,0,1-1.221-1.079,2.577,2.577,0,0,1-.42-1.455,2.92,2.92,0,0,1,1.2-2.4,4.948,4.948,0,0,1,3.145-.942,5.482,5.482,0,0,1,3.359.947,2.962,2.962,0,0,1,1.27,2.49h-3.3q0-1.27-1.338-1.27a1.326,1.326,0,0,0-.869.288.892.892,0,0,0-.352.718.819.819,0,0,0,.43.713,4.06,4.06,0,0,0,1.372.449,11.857,11.857,0,0,1,1.655.42,3.007,3.007,0,0,1,2.383,2.939,2.767,2.767,0,0,1-1.284,2.354,5.632,5.632,0,0,1-3.325.908,5.747,5.747,0,0,1-2.422-.488,4.05,4.05,0,0,1-1.66-1.328,3.007,3.007,0,0,1-.6-1.768h3.076a1.272,1.272,0,0,0,.488,1.069,2.009,2.009,0,0,0,1.2.337,1.58,1.58,0,0,0,1.011-.273A.875.875,0,0,0,166.895,18.031Zm9.277-2.393a6.455,6.455,0,0,1,1.084-3.955,3.568,3.568,0,0,1,3.027-1.445,3.035,3.035,0,0,1,2.383,1.113V6h3.3V21h-2.959l-.166-1.133a3.116,3.116,0,0,1-2.578,1.328,3.562,3.562,0,0,1-2.988-1.445A6.659,6.659,0,0,1,176.172,15.639Zm3.291.205q0,2.813,1.641,2.813a1.62,1.62,0,0,0,1.563-.918V13.715a1.576,1.576,0,0,0-1.543-.937q-1.523,0-1.65,2.461ZM192.949,21.2a5.432,5.432,0,0,1-3.936-1.45,5.008,5.008,0,0,1-1.5-3.774V15.7a6.489,6.489,0,0,1,.6-2.861,4.395,4.395,0,0,1,1.753-1.919,5.292,5.292,0,0,1,2.734-.679,4.574,4.574,0,0,1,3.516,1.382,5.43,5.43,0,0,1,1.289,3.853v1.279h-6.543a2.372,2.372,0,0,0,.771,1.4,2.3,2.3,0,0,0,1.543.508,2.958,2.958,0,0,0,2.441-1.094l1.5,1.777a4.2,4.2,0,0,1-1.743,1.353A5.891,5.891,0,0,1,192.949,21.2Zm-.371-8.418q-1.445,0-1.719,1.914h3.32v-.254a1.63,1.63,0,0,0-.4-1.226A1.593,1.593,0,0,0,192.578,12.777ZM213.516,15.8a6.44,6.44,0,0,1-1.074,3.994,3.6,3.6,0,0,1-3.027,1.4,3.122,3.122,0,0,1-2.6-1.279L206.68,21H203.73V6h3.291v5.283a3.013,3.013,0,0,1,2.373-1.045,3.6,3.6,0,0,1,3.047,1.416,6.473,6.473,0,0,1,1.074,3.984Zm-3.3-.21a4.3,4.3,0,0,0-.405-2.169,1.366,1.366,0,0,0-1.245-.648,1.576,1.576,0,0,0-1.543.848v4.192a1.585,1.585,0,0,0,1.563.838,1.4,1.4,0,0,0,1.475-1.131A8.121,8.121,0,0,0,210.215,15.595ZM220.918,21a3.716,3.716,0,0,1-.312-.947,3.06,3.06,0,0,1-2.539,1.143,3.749,3.749,0,0,1-2.539-.9,2.875,2.875,0,0,1-1.045-2.271,2.955,2.955,0,0,1,1.27-2.6,6.468,6.468,0,0,1,3.691-.879h1.016v-.559q0-1.462-1.26-1.462a1.03,1.03,0,0,0-1.172,1.158h-3.291a2.95,2.95,0,0,1,1.3-2.487,5.479,5.479,0,0,1,3.325-.956,4.8,4.8,0,0,1,3.193.986,3.429,3.429,0,0,1,1.2,2.705v4.678a4.79,4.79,0,0,0,.449,2.227V21Zm-2.061-2.148a1.836,1.836,0,0,0,1.021-.264,1.653,1.653,0,0,0,.581-.6V16.3H219.5q-1.719,0-1.719,1.543a.942.942,0,0,0,.3.728A1.1,1.1,0,0,0,218.857,18.852Zm12.256-.82a.76.76,0,0,0-.439-.674A6.684,6.684,0,0,0,229,16.83a7.615,7.615,0,0,1-2.031-.718,3.4,3.4,0,0,1-1.221-1.079,2.577,2.577,0,0,1-.42-1.455,2.92,2.92,0,0,1,1.2-2.4,4.948,4.948,0,0,1,3.145-.942,5.482,5.482,0,0,1,3.359.947,2.962,2.962,0,0,1,1.27,2.49h-3.3q0-1.27-1.338-1.27a1.326,1.326,0,0,0-.869.288.892.892,0,0,0-.352.718.819.819,0,0,0,.43.713,4.06,4.06,0,0,0,1.372.449,11.857,11.857,0,0,1,1.655.42,3.007,3.007,0,0,1,2.383,2.939A2.767,2.767,0,0,1,233,20.287a5.632,5.632,0,0,1-3.325.908,5.747,5.747,0,0,1-2.422-.488,4.05,4.05,0,0,1-1.66-1.328,3.007,3.007,0,0,1-.6-1.768h3.076a1.272,1.272,0,0,0,.488,1.069,2.009,2.009,0,0,0,1.2.337,1.58,1.58,0,0,0,1.011-.273A.875.875,0,0,0,231.113,18.031Zm9.824,3.164A5.432,5.432,0,0,1,237,19.745a5.008,5.008,0,0,1-1.5-3.774V15.7a6.489,6.489,0,0,1,.6-2.861,4.395,4.395,0,0,1,1.753-1.919,5.292,5.292,0,0,1,2.734-.679A4.574,4.574,0,0,1,244.1,11.62a5.43,5.43,0,0,1,1.289,3.853v1.279h-6.543a2.372,2.372,0,0,0,.771,1.4,2.3,2.3,0,0,0,1.543.508,2.958,2.958,0,0,0,2.441-1.094l1.5,1.777a4.2,4.2,0,0,1-1.743,1.353A5.891,5.891,0,0,1,240.938,21.2Zm-.371-8.418q-1.445,0-1.719,1.914h3.32v-.254a1.63,1.63,0,0,0-.4-1.226A1.593,1.593,0,0,0,240.566,12.777Zm10.713,2.861a6.455,6.455,0,0,1,1.084-3.955,3.568,3.568,0,0,1,3.027-1.445,3.035,3.035,0,0,1,2.383,1.113V6h3.3V21h-2.959l-.166-1.133a3.116,3.116,0,0,1-2.578,1.328,3.562,3.562,0,0,1-2.988-1.445A6.659,6.659,0,0,1,251.279,15.639Zm3.291.205q0,2.813,1.641,2.813a1.62,1.62,0,0,0,1.563-.918V13.715a1.576,1.576,0,0,0-1.543-.937q-1.523,0-1.65,2.461ZM268.057,21.2a5.432,5.432,0,0,1-3.936-1.45,5.008,5.008,0,0,1-1.5-3.774V15.7a6.489,6.489,0,0,1,.6-2.861,4.395,4.395,0,0,1,1.753-1.919,5.292,5.292,0,0,1,2.734-.679,4.574,4.574,0,0,1,3.516,1.382,5.43,5.43,0,0,1,1.289,3.853v1.279h-6.543a2.372,2.372,0,0,0,.771,1.4,2.3,2.3,0,0,0,1.543.508,2.958,2.958,0,0,0,2.441-1.094l1.5,1.777a4.2,4.2,0,0,1-1.743,1.353A5.891,5.891,0,0,1,268.057,21.2Zm-.371-8.418q-1.445,0-1.719,1.914h3.32v-.254a1.63,1.63,0,0,0-.4-1.226A1.593,1.593,0,0,0,267.686,12.777ZM278.4,15.639a6.455,6.455,0,0,1,1.084-3.955,3.568,3.568,0,0,1,3.027-1.445,3.035,3.035,0,0,1,2.383,1.113V6h3.3V21h-2.959l-.166-1.133A3.116,3.116,0,0,1,282.49,21.2,3.562,3.562,0,0,1,279.5,19.75,6.659,6.659,0,0,1,278.4,15.639Zm3.291.205q0,2.813,1.641,2.813a1.62,1.62,0,0,0,1.563-.918V13.715a1.576,1.576,0,0,0-1.543-.937q-1.523,0-1.65,2.461ZM296.016,21a3.716,3.716,0,0,1-.312-.947,3.06,3.06,0,0,1-2.539,1.143,3.749,3.749,0,0,1-2.539-.9,2.875,2.875,0,0,1-1.045-2.271,2.955,2.955,0,0,1,1.27-2.6,6.468,6.468,0,0,1,3.691-.879h1.016v-.559q0-1.462-1.26-1.462a1.03,1.03,0,0,0-1.172,1.158h-3.291a2.95,2.95,0,0,1,1.3-2.487,5.479,5.479,0,0,1,3.325-.956,4.8,4.8,0,0,1,3.193.986,3.429,3.429,0,0,1,1.2,2.705v4.678a4.79,4.79,0,0,0,.449,2.227V21Zm-2.061-2.148a1.836,1.836,0,0,0,1.021-.264,1.653,1.653,0,0,0,.581-.6V16.3H294.6q-1.719,0-1.719,1.543a.942.942,0,0,0,.3.728A1.1,1.1,0,0,0,293.955,18.852ZM304.512,7.807v2.627h1.738v2.285h-1.738v4.834a1.234,1.234,0,0,0,.215.83,1.152,1.152,0,0,0,.85.234,4.828,4.828,0,0,0,.82-.059v2.354a6.074,6.074,0,0,1-1.855.283,3.448,3.448,0,0,1-2.51-.8,3.282,3.282,0,0,1-.811-2.432V12.719h-1.348V10.434h1.348V7.807Zm2.324,7.813a6.236,6.236,0,0,1,.615-2.817,4.4,4.4,0,0,1,1.768-1.9,5.323,5.323,0,0,1,2.705-.664,4.859,4.859,0,0,1,3.74,1.47,5.64,5.64,0,0,1,1.367,4v.117a5.472,5.472,0,0,1-1.372,3.921,4.871,4.871,0,0,1-3.716,1.45,4.927,4.927,0,0,1-3.623-1.353,5.29,5.29,0,0,1-1.475-3.667Zm3.291.205a3.931,3.931,0,0,0,.459,2.148,1.529,1.529,0,0,0,1.357.684q1.758,0,1.8-2.705v-.332q0-2.842-1.816-2.842-1.65,0-1.787,2.451Zm13.887,2.207a.76.76,0,0,0-.439-.674,6.684,6.684,0,0,0-1.67-.527,7.615,7.615,0,0,1-2.031-.718,3.4,3.4,0,0,1-1.221-1.079,2.577,2.577,0,0,1-.42-1.455,2.92,2.92,0,0,1,1.2-2.4,4.948,4.948,0,0,1,3.145-.942,5.482,5.482,0,0,1,3.359.947,2.962,2.962,0,0,1,1.27,2.49h-3.3q0-1.27-1.338-1.27a1.326,1.326,0,0,0-.869.288.892.892,0,0,0-.352.718.819.819,0,0,0,.43.713,4.06,4.06,0,0,0,1.372.449,11.856,11.856,0,0,1,1.655.42,3.007,3.007,0,0,1,2.383,2.939,2.767,2.767,0,0,1-1.284,2.354,5.631,5.631,0,0,1-3.325.908,5.747,5.747,0,0,1-2.422-.488,4.05,4.05,0,0,1-1.66-1.328,3.007,3.007,0,0,1-.6-1.768h3.076a1.272,1.272,0,0,0,.488,1.069,2.009,2.009,0,0,0,1.2.337,1.58,1.58,0,0,0,1.011-.273A.875.875,0,0,0,324.014,18.031Z" transform="translate(223 12820.586)" fill="#12263f"/><g transform="translate(585 12796.111)"><g clip-path="url(#a)"><path d="M73.632,33.675c-1.124-.2-2.244-.471-3.377-.56a1.762,1.762,0,0,1-1.867-1.432,1.049,1.049,0,0,1,.1-1.04c.839-1.123,1.645-2.27,2.449-3.419a1.264,1.264,0,0,0-.151-1.934q-2.469-2.493-4.961-4.964a1.293,1.293,0,0,0-2-.153c-1.147.806-2.281,1.63-3.426,2.439a1.786,1.786,0,0,1-2.257-.9c-.254-1.4-.483-2.814-.729-4.22-.166-.947-.556-1.272-1.535-1.274-2.261,0-4.523.014-6.784-.011a1.7,1.7,0,0,0-1.676.859v-.933c0-2.573-.089-5.151.028-7.719a4.6,4.6,0,0,0-2.393-4.386,18.716,18.716,0,0,0-5.22-2.167A56.814,56.814,0,0,0,26.986.072,65.763,65.763,0,0,0,7.511,1.887a15.648,15.648,0,0,0-5.773,2.6A4,4,0,0,0,0,7.8Q.026,26.24,0,44.682A3.717,3.717,0,0,0,1.077,47.35a7.142,7.142,0,0,0,1.661,1.278,24.476,24.476,0,0,0,7.783,2.582.934.934,0,0,1,.873.849,3.662,3.662,0,0,0,3.4,2.832c1.439.078,1.385.081,1.46,1.529.043.821-.2,1.009-1,.992a3.707,3.707,0,0,0-4.008,3.965q-.008,4.64,0,9.28c0,2.693,1.5,4.2,4.187,4.2H41.082q9.319,0,18.637,0a3.726,3.726,0,0,0,3.914-3.685q.045-5.068,0-10.137A3.754,3.754,0,0,0,60.3,57.4c-.547-.067-1.3.274-1.589-.189-.257-.413-.059-1.11-.061-1.682a2.031,2.031,0,0,0,0-.234c-.036-.292.067-.4.382-.41a3.287,3.287,0,0,1,2.594.7,20.93,20.93,0,0,0,2.2,1.6,1.313,1.313,0,0,0,2-.165q2.49-2.472,4.96-4.965a1.268,1.268,0,0,0,.147-1.936c-.713-1.022-1.4-2.064-2.182-3.034A1.547,1.547,0,0,1,68.53,45.3a1.439,1.439,0,0,1,1.342-1c1.259-.171,2.511-.4,3.764-.617a1.262,1.262,0,0,0,1.233-1.415q.014-3.587,0-7.174a1.262,1.262,0,0,0-1.237-1.411M47.416,31.994a.7.7,0,0,1,.368-.689,8.382,8.382,0,0,1,4.63-1.337,8.678,8.678,0,0,1,8.568,6.966c.08.474.077.649-.552.567a29.4,29.4,0,0,0-3.186-.1c-3.111.008-6.222.008-9.332.035-.442,0-.5-.168-.5-.544q.025-2.45,0-4.9M3.1,6.556a11.426,11.426,0,0,1,3.82-1.871A46.99,46.99,0,0,1,18.467,2.666,73.55,73.55,0,0,1,33.4,3.12a24.52,24.52,0,0,1,4.042.77,17.707,17.707,0,0,1,6.521,2.387c1.28.832,1.279,1.578,0,2.411a17.67,17.67,0,0,1-6.522,2.387,38.616,38.616,0,0,1-6.75,1.084,74.053,74.053,0,0,1-13.932,0,38.413,38.413,0,0,1-11.8-2.634A7.572,7.572,0,0,1,3.1,8.41c-.773-.646-.78-1.212,0-1.854m-.593,4.485a23.254,23.254,0,0,0,4.251,1.8,52.6,52.6,0,0,0,11.957,1.973,75.637,75.637,0,0,0,15.936-.621,53.714,53.714,0,0,0,6.374-1.406,23.886,23.886,0,0,0,3.9-1.775v4.527c0,1.35-.023,2.7.011,4.05a1.522,1.522,0,0,1-.641,1.339,8.9,8.9,0,0,1-3.107,1.547A28.037,28.037,0,0,1,34.5,24.158a70.843,70.843,0,0,1-15.7.632,44.449,44.449,0,0,1-13.03-2.448A11.046,11.046,0,0,1,3.3,21.051a1.743,1.743,0,0,1-.809-1.57c.033-2.779.014-5.558.014-8.439m8.728,31.012c.023,1.946-.027,3.892.024,5.837.019.723-.065.989-.885.784a30.055,30.055,0,0,1-5.47-1.72,8.531,8.531,0,0,1-1.667-.99,1.768,1.768,0,0,1-.742-1.529c.032-2.775.013-5.551.013-8.479a27.831,27.831,0,0,0,9.422,3.049,4.979,4.979,0,0,0-.695,3.048M4.989,34.486c-.214-.091-.417-.209-.63-.3a2.807,2.807,0,0,1-1.9-3.084c.159-2.483.042-4.984.042-7.59a21.274,21.274,0,0,0,4.472,1.884,52.894,52.894,0,0,0,11.5,1.882,75.544,75.544,0,0,0,16.092-.6,56.852,56.852,0,0,0,6.452-1.412,24.822,24.822,0,0,0,3.9-1.772V27.62c0,1.454-.026,2.909.012,4.362a1.629,1.629,0,0,1-.7,1.468,9.325,9.325,0,0,1-3.046,1.5,28.5,28.5,0,0,1-6.688,1.684,70.676,70.676,0,0,1-15.931.62,41.3,41.3,0,0,1-13.585-2.77m38.718,2.943H42.162c.943-.444,1.8-.959,2.71-1.391.138,1.391.138,1.391-1.165,1.391m16.1,22.464a1.236,1.236,0,0,1,1.331,1.377q.017,4.855,0,9.711a1.239,1.239,0,0,1-1.332,1.377c-.905.016-1.811-.011-2.717-.02-.259.009-.518.025-.777.025H15.559c-1.482,0-1.824-.345-1.824-1.836q0-4.559,0-9.118c0-1.071.446-1.521,1.511-1.521q20.768,0,41.537,0c.1,0,.207.016.31.025.906-.008,1.812-.036,2.717-.02M18.723,55.217c-.011-.3.16-.324.392-.323,1.4,0,2.8.008,4.2,0,.292,0,.383.084.412.39.2,2.111.208,2.11-1.876,2.11h-.622c-.233,0-.467.013-.7,0-.585-.039-1.473.264-1.687-.124-.3-.54-.093-1.352-.118-2.047m7.473,1.43c.04-1.751.012-1.752,1.774-1.752h9.512c3.509,0,7.017.014,10.526-.014.55,0,.685.135.677.68-.026,1.829,0,1.83-1.851,1.83-6.627,0-13.255-.009-19.882.015-.612,0-.769-.153-.755-.759M53.051,54.9c.855,0,1.712.026,2.565-.01.456-.019.545.147.551.57.026,1.936.04,1.936-1.9,1.936h-.544c-.674,0-1.349-.028-2.021.01-.457.026-.545-.146-.551-.569-.026-1.936-.04-1.936,1.9-1.936m8.092-3.879a1.239,1.239,0,0,1-1.332,1.377c-.905.016-1.811-.011-2.717-.02-.259.009-.518.025-.777.025H15.559c-1.482,0-1.824-.345-1.824-1.836q0-4.559,0-9.118c0-1.071.446-1.521,1.511-1.521q20.768,0,41.537,0c.1,0,.207.016.31.025.906-.009,1.812-.036,2.717-.02a1.236,1.236,0,0,1,1.331,1.377q.017,4.855,0,9.711M72.389,40.837c.011.454-.18.572-.568.631-1.282.2-2.558.439-3.842.625a1.427,1.427,0,0,0-1.29,1.063,15.257,15.257,0,0,1-1.03,2.514A1.346,1.346,0,0,0,65.8,47.2c.763,1.05,1.484,2.131,2.263,3.169.288.384.313.612-.057.963-1,.946-1.971,1.925-2.924,2.92-.33.345-.575.431-.958.085-.345-.311-.876-.48-1.094-.849s.331-.726.424-1.14a6.187,6.187,0,0,0,.2-1.383c-.008-3.171.06-6.344-.028-9.513-.053-1.9.184-3.82-.351-5.716a11.229,11.229,0,0,0-15.21-7.391c-.181.075-.346.25-.634.148,0-1.17.011-2.358-.007-3.546-.006-.348.185-.427.455-.508a1.523,1.523,0,0,0,1.141-1.408c.163-1.234.416-2.456.6-3.688.067-.46.21-.657.728-.641,1.376.043,2.756.046,4.132,0,.561-.019.689.216.758.7.181,1.258.419,2.508.612,3.765a1.385,1.385,0,0,0,1.028,1.23,15.017,15.017,0,0,1,2.515,1.029,1.353,1.353,0,0,0,1.531-.116c1.075-.773,2.173-1.514,3.236-2.3a.56.56,0,0,1,.9.073q1.452,1.524,2.977,2.977c.343.327.331.54.061.9-.776,1.04-1.5,2.121-2.267,3.167a1.437,1.437,0,0,0-.119,1.669,13.008,13.008,0,0,1,.97,2.37,1.474,1.474,0,0,0,1.342,1.11c1.259.175,2.508.418,3.765.612.409.063.628.173.614.671-.04,1.429-.035,2.859,0,4.288" transform="translate(0 0)"/><path d="M278.584,13.574c0-1.211-.417-1.619-1.649-1.619q-4.678,0-9.355,0h-8.5c-1.711,0-1.675,0-1.727,1.723-.02.667.176.791.808.788,5.743-.027,11.486-.005,17.229-.031.594,0,.718.152.712.724-.032,2.78-.162,5.571.033,8.338a5.126,5.126,0,0,1-2.066,4.96c-.488.362-1.261.853-1.2,1.33.068.516.829.928,1.249,1.418.284.331.463.262.733-.015q1.551-1.59,3.14-3.143a1.877,1.877,0,0,0,.6-1.452c-.015-4.34-.007-8.679-.009-13.019" transform="translate(-203.713 -9.462)"/><path d="M17.793,283.987c-.909.022-1.821-.023-2.728.02-.488.023-.6-.119-.6-.6.029-2.079.012-4.158.012-6.237,0-1.977,0-1.963-1.992-1.921-.413.009-.519.122-.513.523.022,1.559.009,3.119.009,4.678s-.011,3.119,0,4.678a1.242,1.242,0,0,0,1.358,1.357c.987.017,1.975,0,2.963,0,2.044,0,2.034,0,1.923-2.066-.018-.337-.1-.445-.44-.437" transform="translate(-9.479 -217.869)"/><path d="M13.319,253.9c1.2,0,1.2,0,1.2-1.221,0-1.274,0-1.274-1.3-1.274-1.2,0-1.2,0-1.2,1.221,0,1.274,0,1.274,1.3,1.274" transform="translate(-9.515 -199.001)"/><path d="M234.791,14.451c1.211,0,1.211,0,1.211-1.207,0-1.289,0-1.289-1.284-1.289-1.211,0-1.211,0-1.211,1.206,0,1.289,0,1.289,1.285,1.289" transform="translate(-184.836 -9.464)"/><path d="M43.82,125.911a28.5,28.5,0,0,0,6.688-1.684c0-2.936,0-5.873-.014-8.809,0-.3.119-.63-.156-.884a56.852,56.852,0,0,1-6.452,1.412,75.542,75.542,0,0,1-16.092.6,52.894,52.894,0,0,1-11.5-1.882,21.275,21.275,0,0,1-4.472-1.884c0,2.606.117,5.107-.042,7.59a2.807,2.807,0,0,0,1.9,3.084c.213.094.416.212.63.3a41.3,41.3,0,0,0,13.585,2.77,70.677,70.677,0,0,0,15.931-.62" transform="translate(-9.315 -89.276)" fill="#bfaa90"/><path d="M12.762,62.98a11.028,11.028,0,0,0,2.476,1.291,44.449,44.449,0,0,0,13.03,2.449,70.843,70.843,0,0,0,15.7-.632A28.027,28.027,0,0,0,50.652,64.4q0-4.441-.011-8.883c0-.273.1-.579-.157-.806a53.758,53.758,0,0,1-6.374,1.406,75.636,75.636,0,0,1-15.936.621,52.585,52.585,0,0,1-11.956-1.973,23.248,23.248,0,0,1-4.251-1.8c0,2.881.02,5.661-.014,8.439a1.743,1.743,0,0,0,.809,1.57" transform="translate(-9.462 -41.929)" fill="#bfaa90"/><path d="M109.558,297.325h0c-1.246-.065-1.246-.065-1.246-1.351,0-1.131,0-1.131,1.246-1.2v-2.444c-1.246-.066-1.246-.066-1.246-1.351,0-1.13,0-1.13,1.246-1.2a4.844,4.844,0,0,0-.308-2.443c-.1-.009-.207-.025-.31-.025q-20.768,0-41.537,0c-1.064,0-1.509.45-1.511,1.521q-.007,4.559,0,9.118c0,1.492.342,1.836,1.824,1.836h40.757c.259,0,.518-.016.777-.025a4.836,4.836,0,0,0,.309-2.444m-33.691-1.4a1.257,1.257,0,0,1-1.42,1.373q-2.334.018-4.667,0a1.254,1.254,0,0,1-1.39-1.4q-.02-2.334,0-4.667c.008-.951.481-1.4,1.459-1.412.752-.009,1.5,0,2.256,0,.8,0,1.608-.014,2.412,0a1.243,1.243,0,0,1,1.352,1.361q.025,2.373,0,4.745m9.984-.039a1.261,1.261,0,0,1-1.383,1.41q-2.372.023-4.745,0a1.238,1.238,0,0,1-1.35-1.361q-.023-2.373,0-4.745a1.235,1.235,0,0,1,1.341-1.369q2.411-.027,4.823,0a1.229,1.229,0,0,1,1.312,1.32c.021.8,0,1.608,0,2.412,0,.778.01,1.556,0,2.334m4.3-6.072h6.93c2.7,0,5.4.013,8.1-.011.5,0,.652.117.65.636-.006,1.87.015,1.871-1.818,1.871-4.983,0-9.967-.01-14.95.014-.572,0-.741-.122-.73-.717.033-1.792,0-1.793,1.82-1.793m13.868,7.486h-6.93c-2.7,0-5.4-.011-8.1.01-.485,0-.661-.093-.659-.627.007-1.879-.017-1.879,1.888-1.879,4.957,0,9.915.009,14.872-.013.556,0,.752.1.74.707-.035,1.8,0,1.8-1.813,1.8" transform="translate(-52.156 -227.431)" fill="#57a3fe"/><path d="M109.558,201.547h0c-1.246-.065-1.246-.065-1.246-1.351,0-1.131,0-1.131,1.246-1.2v-2.444c-1.246-.066-1.246-.066-1.246-1.351,0-1.13,0-1.13,1.246-1.2a4.844,4.844,0,0,0-.308-2.443c-.1-.009-.207-.025-.31-.025q-20.768,0-41.536,0c-1.065,0-1.509.45-1.511,1.521q-.008,4.559,0,9.118c0,1.492.342,1.836,1.824,1.836h40.757c.259,0,.518-.016.777-.025a4.833,4.833,0,0,0,.309-2.444m-19.4-7.512h7.008c2.673,0,5.347.013,8.02-.011.5,0,.651.119.65.637-.006,1.87.015,1.87-1.818,1.87-4.983,0-9.967-.01-14.95.014-.573,0-.741-.123-.73-.717.033-1.791,0-1.792,1.821-1.792m-14.286,6.113a1.261,1.261,0,0,1-1.423,1.37c-.778.012-1.556,0-2.334,0s-1.556.012-2.334,0a1.258,1.258,0,0,1-1.387-1.4q-.019-2.334,0-4.667a1.252,1.252,0,0,1,1.384-1.406q2.373-.022,4.745,0a1.237,1.237,0,0,1,1.349,1.363q.024,2.372,0,4.745m9.981.017a1.24,1.24,0,0,1-1.361,1.351q-2.372.024-4.745,0a1.258,1.258,0,0,1-1.372-1.42c-.012-.778,0-1.556,0-2.334,0-.8-.017-1.608,0-2.412a1.226,1.226,0,0,1,1.321-1.31q2.411-.028,4.823,0a1.238,1.238,0,0,1,1.333,1.379q.022,2.372,0,4.745m18.094,1.356c-4.957,0-9.915-.009-14.872.013-.559,0-.75-.1-.738-.709.035-1.8,0-1.8,1.814-1.8h6.93c2.7,0,5.4.011,8.1-.01.487,0,.66.1.658.628-.006,1.878.016,1.878-1.889,1.878" transform="translate(-52.156 -151.617)" fill="#57a3fe"/><path d="M12.648,17.837a7.572,7.572,0,0,0,1.866,1.111,38.42,38.42,0,0,0,11.8,2.634,74.07,74.07,0,0,0,13.932,0,38.622,38.622,0,0,0,6.75-1.084c.749-.453,1.517-.879,2.245-1.363,1.977-1.313,1.953-3.107.01-4.476-.723-.509-1.56-.807-2.256-1.346a24.518,24.518,0,0,0-4.042-.77,73.548,73.548,0,0,0-14.932-.454,46.981,46.981,0,0,0-11.548,2.019,11.426,11.426,0,0,0-3.82,1.871c-.781.642-.774,1.208,0,1.854" transform="translate(-9.551 -9.427)" fill="#fecc00"/><path d="M251.848,106.879c-1.256-.194-2.506-.437-3.765-.612a1.474,1.474,0,0,1-1.342-1.11,13.009,13.009,0,0,0-.97-2.37,1.437,1.437,0,0,1,.119-1.669c.769-1.046,1.49-2.127,2.267-3.167.27-.361.282-.574-.061-.9q-1.525-1.451-2.977-2.977a.56.56,0,0,0-.9-.073c-1.062.79-2.161,1.531-3.235,2.3a1.354,1.354,0,0,1-1.531.116,14.981,14.981,0,0,0-2.515-1.029,1.385,1.385,0,0,1-1.028-1.23c-.193-1.257-.431-2.506-.612-3.765-.069-.481-.2-.716-.758-.7-1.376.046-2.756.044-4.132,0-.518-.016-.66.181-.728.641-.18,1.232-.434,2.454-.6,3.688a1.522,1.522,0,0,1-1.141,1.408c-.271.081-.461.16-.456.508.019,1.188.007,2.377.007,3.546.288.1.454-.073.635-.148a11.229,11.229,0,0,1,15.21,7.391c.535,1.9.3,3.813.351,5.716.088,3.169.02,6.342.028,9.512a6.185,6.185,0,0,1-.2,1.383c-.093.415-.647.762-.424,1.141s.749.537,1.094.849c.382.345.628.259.958-.085.952-.995,1.923-1.974,2.924-2.92.37-.35.345-.579.057-.963-.778-1.038-1.5-2.119-2.263-3.169a1.346,1.346,0,0,1-.139-1.526,15.265,15.265,0,0,0,1.03-2.514,1.427,1.427,0,0,1,1.29-1.063c1.284-.186,2.56-.427,3.842-.624.387-.06.578-.177.568-.631-.033-1.429-.038-2.86,0-4.288.014-.5-.205-.608-.614-.671" transform="translate(-180.071 -71.002)" fill="#feea98"/><path d="M11.954,180.988a1.768,1.768,0,0,0,.742,1.529,8.539,8.539,0,0,0,1.667.99,30.054,30.054,0,0,0,5.47,1.72c.82.2.9-.061.886-.784-.05-1.945,0-3.892-.024-5.837a4.979,4.979,0,0,1,.695-3.048,27.828,27.828,0,0,1-9.422-3.049c0,2.928.019,5.7-.014,8.479" transform="translate(-9.463 -136.552)" fill="#bfaa90"/><path d="M227.981,151.234c3.111-.027,6.222-.027,9.332-.035a8.872,8.872,0,0,0-1.873-4.743,11.494,11.494,0,0,0-2.957-2.692,8.382,8.382,0,0,0-4.63,1.337.7.7,0,0,0-.368.69q.022,2.45,0,4.9c0,.376.055.548.5.544" transform="translate(-180.07 -113.796)" fill="#c5c4c9"/><path d="M146.315,265.814c1.849,0,1.825,0,1.851-1.83.008-.545-.127-.684-.677-.68-3.509.028-7.017.014-10.526.014h-9.512c-1.762,0-1.734,0-1.774,1.752-.014.606.144.761.756.759,6.627-.024,13.255-.015,19.882-.015" transform="translate(-99.482 -208.423)" fill="#fefefe"/><path d="M276.635,191.549c-.905-.016-1.811.011-2.717.02.8.713.571,1.583.385,2.448,1.169.062,1.172.09,1.172,1.347,0,1.1,0,1.13-1.171,1.192.007.009.014.016.021.024a4.57,4.57,0,0,1,.016,2.374.4.4,0,0,1-.047.053c1.178.063,1.181.087,1.181,1.348,0,1.109,0,1.13-1.182,1.192.209.866.418,1.731-.377,2.447.906.008,1.812.036,2.717.02a1.239,1.239,0,0,0,1.332-1.377q.016-4.855,0-9.711a1.236,1.236,0,0,0-1.331-1.377" transform="translate(-216.824 -151.62)" fill="#2487fe"/><path d="M275.4,215.592v2.444l.068,0a.405.405,0,0,0,.046-.053,4.57,4.57,0,0,0-.015-2.374c-.006-.009-.014-.016-.021-.024l-.078,0" transform="translate(-217.998 -170.652)" fill="#2487fe"/><path d="M274.228,194.108l.077,0c.186-.864.413-1.735-.385-2.448a4.844,4.844,0,0,1,.308,2.443" transform="translate(-216.826 -151.716)" fill="#2487fe"/><path d="M274.294,239.535l-.068,0a4.833,4.833,0,0,1-.309,2.444c.795-.716.585-1.581.377-2.447" transform="translate(-216.824 -189.608)" fill="#2487fe"/><path d="M274.3,289.795c1.169.062,1.172.09,1.172,1.347,0,1.1,0,1.13-1.171,1.192.007.008.014.016.02.024a4.57,4.57,0,0,1,.016,2.374.405.405,0,0,1-.047.053c1.178.063,1.181.087,1.181,1.348,0,1.109,0,1.13-1.182,1.192.209.866.418,1.731-.377,2.447.906.009,1.812.036,2.717.02a1.239,1.239,0,0,0,1.332-1.377q.016-4.855,0-9.711a1.236,1.236,0,0,0-1.331-1.377c-.905-.016-1.811.011-2.717.02.8.713.571,1.583.385,2.448" transform="translate(-216.824 -227.435)" fill="#2487fe"/><path d="M274.228,289.885l.077,0c.186-.864.413-1.735-.385-2.448a4.844,4.844,0,0,1,.308,2.443" transform="translate(-216.826 -227.53)" fill="#2487fe"/><path d="M274.294,335.313l-.068,0a4.833,4.833,0,0,1-.309,2.444c.795-.716.585-1.581.377-2.447" transform="translate(-216.824 -265.423)" fill="#2487fe"/><path d="M275.4,311.37v2.444l.068,0a.405.405,0,0,0,.046-.053,4.57,4.57,0,0,0-.015-2.374c-.006-.009-.014-.016-.021-.024l-.078,0" transform="translate(-217.998 -246.467)" fill="#2487fe"/><path d="M197.211,115.181c.033,2.746.026,5.493.008,8.239a1.12,1.12,0,0,1-.234.726,9.325,9.325,0,0,0,3.046-1.5,1.629,1.629,0,0,0,.7-1.468c-.038-1.453-.012-2.908-.012-4.362v-4.133a24.859,24.859,0,0,1-3.9,1.772c.439.074.392.445.4.728" transform="translate(-155.792 -89.195)" fill="#b2997b"/><path d="M196.972,122.067c.012,2.936.011,5.872.014,8.809a1.122,1.122,0,0,0,.234-.726c.018-2.746.025-5.493-.008-8.239,0-.283.043-.654-.4-.728h0c.275.255.154.587.156.884" transform="translate(-155.793 -95.924)" fill="#b2997b"/><path d="M197.212,55.311c.033,2.745.026,5.491.008,8.236a1.1,1.1,0,0,1-.236.725,8.907,8.907,0,0,0,3.107-1.547,1.522,1.522,0,0,0,.641-1.339c-.033-1.349-.011-2.7-.011-4.05,0-1.467,0-2.934,0-4.527a23.882,23.882,0,0,1-3.9,1.774c.439.074.392.445.4.728" transform="translate(-155.793 -41.802)" fill="#b2997b"/><path d="M196.973,62.127q.014,4.441.011,8.883a1.1,1.1,0,0,0,.236-.724c.018-2.745.025-5.491-.008-8.236,0-.283.043-.654-.4-.728.26.228.156.533.157.806" transform="translate(-155.793 -48.54)" fill="#b2997b"/><path d="M256.425,150.311a.865.865,0,0,1-.127.878,29.348,29.348,0,0,1,3.186.1c.629.082.631-.093.552-.567a8.678,8.678,0,0,0-8.568-6.966,3.561,3.561,0,0,1,1.644.983,10.434,10.434,0,0,1,3.313,5.576" transform="translate(-199.053 -113.786)" fill="#abaab0"/><path d="M254.424,146.466a8.873,8.873,0,0,1,1.873,4.743.864.864,0,0,0,.127-.878,10.437,10.437,0,0,0-3.313-5.576,3.559,3.559,0,0,0-1.644-.982,11.493,11.493,0,0,1,2.957,2.692" transform="translate(-199.053 -113.807)" fill="#abaab0"/><path d="M182.283,24.433a8.592,8.592,0,0,1-2.656,1.41,17.67,17.67,0,0,0,6.522-2.387c1.278-.834,1.279-1.579,0-2.411a17.708,17.708,0,0,0-6.521-2.387,8.4,8.4,0,0,1,2.656,1.407c1.667,1.348,1.675,3.032,0,4.369" transform="translate(-142.187 -14.769)" fill="#eabe00"/><path d="M181.873,24.482c-.729.484-1.5.91-2.245,1.363a8.592,8.592,0,0,0,2.656-1.41c1.674-1.336,1.667-3.021,0-4.369a8.4,8.4,0,0,0-2.656-1.407c.7.54,1.533.837,2.256,1.346,1.943,1.369,1.967,3.164-.01,4.476" transform="translate(-142.187 -14.77)" fill="#eabe00"/><path d="M89.776,265.724c.213.389,1.1.085,1.686.124.232.015.466,0,.7,0h.622c2.085,0,2.076,0,1.876-2.111-.029-.305-.12-.392-.412-.389-1.4.011-2.8.007-4.2,0-.232,0-.4.022-.392.323.025.7-.178,1.506.118,2.047" transform="translate(-70.935 -208.46)" fill="#c5c4c9"/><path d="M245.957,265.833c.672-.038,1.347-.01,2.021-.01h.544c1.936,0,1.922,0,1.9-1.936-.006-.423-.094-.589-.551-.57-.854.036-1.71.01-2.565.01-1.936,0-1.922,0-1.9,1.936.006.424.094.6.551.57" transform="translate(-194.251 -208.432)" fill="#c5c4c9"/><path d="M203.826,174.29c1.3,0,1.3,0,1.165-1.391-.912.432-1.767.947-2.71,1.391Z" transform="translate(-160.119 -136.861)" fill="#b0987a"/><path d="M133.21,300.585a1.229,1.229,0,0,0-1.312-1.32q-2.411-.03-4.823,0a1.235,1.235,0,0,0-1.341,1.369q-.023,2.373,0,4.745a1.238,1.238,0,0,0,1.35,1.361q2.372.026,4.745,0a1.26,1.26,0,0,0,1.383-1.41c.013-.778,0-1.556,0-2.334,0-.8.016-1.608,0-2.412m-3.682,3.664c-1.3,0-1.3,0-1.3-1.269,0-1.226,0-1.226,1.191-1.226,1.3,0,1.3,0,1.3,1.269,0,1.226,0,1.226-1.191,1.226" transform="translate(-99.518 -236.877)"/><path d="M83.973,299.275c-.8-.018-1.608,0-2.412,0-.752,0-1.5-.008-2.256,0-.977.012-1.45.461-1.458,1.412q-.019,2.334,0,4.668a1.254,1.254,0,0,0,1.39,1.4q2.334.022,4.667,0a1.257,1.257,0,0,0,1.42-1.373q.024-2.372,0-4.745a1.243,1.243,0,0,0-1.352-1.361M81.6,304.262c-1.264,0-1.264,0-1.264-1.31,0-1.186,0-1.186,1.232-1.186,1.264,0,1.264,0,1.264,1.232,0,1.264,0,1.264-1.232,1.264" transform="translate(-61.614 -236.889)"/><path d="M174.295,301.756c4.983-.024,9.966-.014,14.95-.014,1.833,0,1.812,0,1.818-1.871,0-.519-.151-.64-.65-.636-2.7.024-5.4.011-8.1.011h-6.93c-1.816,0-1.787,0-1.82,1.793-.011.595.159.719.731.717" transform="translate(-137.387 -236.865)"/><path d="M190.334,323.173c-4.957.022-9.915.013-14.872.013-1.905,0-1.882,0-1.888,1.879,0,.534.175.63.659.627,2.7-.021,5.4-.01,8.1-.01h6.93c1.809,0,1.778,0,1.813-1.8.012-.611-.184-.71-.74-.707" transform="translate(-137.395 -255.813)"/><path d="M270.38,300.625c.021.611.137,1.007.823,1.034a.391.391,0,0,1,.259.13.2.2,0,0,1,.132-.093c.79-.046.815-.552.89-1.2.1-.869-.532-.91-1-1.167-.052.051-.106.112-.175.115-.77.037-.955.463-.93,1.181" transform="translate(-214.022 -236.939)"/><path d="M270.447,301.529c-.686-.027-.8-.423-.823-1.034-.025-.718.16-1.144.93-1.181.069,0,.124-.065.175-.115-.02-.011-.041-.022-.06-.034-1.246.065-1.246.065-1.246,1.2,0,1.286,0,1.286,1.246,1.351.012-.017.024-.035.037-.052a.391.391,0,0,0-.259-.131" transform="translate(-213.266 -236.809)"/><path d="M275.6,299.216c.467.256,1.1.3,1,1.167-.076.649-.1,1.155-.891,1.2a.2.2,0,0,0-.131.093c.014.015.028.032.041.048,1.168-.062,1.171-.087,1.171-1.192,0-1.257,0-1.285-1.172-1.347l0,.017-.013.013" transform="translate(-218.141 -236.826)"/><path d="M275.461,299.2l.013-.013,0-.017-.077,0,.06.034" transform="translate(-217.998 -236.81)"/><path d="M275.4,311.187l.078,0a.609.609,0,0,0-.041-.048l-.038.052" transform="translate(-217.998 -246.284)"/><path d="M271.317,323.36c-.268.139-.686,0-.824.346a3.23,3.23,0,0,0-.059,1.389c.013.242.173.36.4.4a1.228,1.228,0,0,1,.633.208.193.193,0,0,1,.13-.092c.79-.046.815-.552.891-1.2.1-.877-.543-.911-1.012-1.174a.645.645,0,0,1-.163.122" transform="translate(-214.03 -255.865)"/><path d="M270.074,325.4c-.231-.042-.391-.161-.4-.4a3.234,3.234,0,0,1,.059-1.389c.138-.347.555-.207.824-.346a.647.647,0,0,0,.164-.122l-.048-.027c-1.246.065-1.246.065-1.246,1.2,0,1.286,0,1.286,1.246,1.351.012-.018.025-.036.039-.054a1.228,1.228,0,0,0-.633-.208" transform="translate(-213.266 -255.763)"/><path d="M276.606,324.325c-.076.649-.1,1.155-.891,1.2a.194.194,0,0,0-.13.092c.007.006.014.01.021.017l.008.033c1.179-.062,1.182-.084,1.182-1.192,0-1.261,0-1.285-1.182-1.348l-.02.023c.469.263,1.114.3,1.012,1.174" transform="translate(-218.144 -255.777)"/><path d="M275.448,323.137l.02-.023-.068,0,.048.027" transform="translate(-217.998 -255.763)"/><path d="M275.439,335.073c-.014.018-.026.036-.039.054l.067,0-.008-.033-.021-.017" transform="translate(-217.998 -265.233)"/><path d="M131.883,203.487q-2.411-.028-4.823,0a1.226,1.226,0,0,0-1.321,1.31c-.022.8,0,1.607,0,2.411,0,.778-.009,1.556,0,2.334a1.258,1.258,0,0,0,1.372,1.42q2.372.024,4.745,0a1.24,1.24,0,0,0,1.361-1.351q.026-2.372,0-4.745a1.237,1.237,0,0,0-1.333-1.379m-2.35,4.985c-1.3,0-1.3,0-1.3-1.269,0-1.226,0-1.226,1.191-1.226,1.3,0,1.3,0,1.3,1.269,0,1.226,0,1.226-1.191,1.226" transform="translate(-99.522 -161.062)"/><path d="M83.977,203.49q-2.372-.026-4.745,0a1.252,1.252,0,0,0-1.384,1.406q-.019,2.334,0,4.667a1.258,1.258,0,0,0,1.387,1.4c.778.015,1.556,0,2.334,0s1.556.009,2.334,0a1.261,1.261,0,0,0,1.423-1.37q.025-2.372,0-4.745a1.237,1.237,0,0,0-1.349-1.363m-2.353,4.986c-1.284,0-1.284,0-1.284-1.289,0-1.206,0-1.206,1.211-1.206,1.284,0,1.284,0,1.284,1.289,0,1.207,0,1.207-1.211,1.207" transform="translate(-61.615 -161.066)"/><path d="M174.3,205.977c4.983-.024,9.967-.014,14.95-.014,1.834,0,1.812,0,1.818-1.87,0-.518-.15-.641-.65-.637-2.673.024-5.347.011-8.02.011h-7.008c-1.816,0-1.788,0-1.821,1.792-.011.594.157.72.73.717" transform="translate(-137.388 -161.049)"/><path d="M190.4,227.406c-2.7.022-5.4.01-8.1.01h-6.93c-1.81,0-1.779,0-1.814,1.8-.012.608.18.711.738.709,4.957-.022,9.915-.013,14.872-.013,1.906,0,1.883,0,1.889-1.878,0-.532-.171-.632-.658-.628" transform="translate(-137.384 -180.007)"/><path d="M270.38,204.847c.021.611.137,1.007.823,1.034a.391.391,0,0,1,.259.13.2.2,0,0,1,.132-.093c.79-.046.815-.552.89-1.2.1-.869-.532-.91-1-1.167-.052.051-.106.112-.175.115-.77.037-.955.463-.93,1.181" transform="translate(-214.022 -161.124)"/><path d="M270.447,205.752c-.686-.027-.8-.422-.823-1.034-.025-.718.16-1.144.93-1.181.069,0,.124-.065.175-.115-.02-.011-.041-.022-.06-.034-1.246.065-1.246.065-1.246,1.2,0,1.286,0,1.286,1.246,1.351.012-.017.024-.035.037-.052a.391.391,0,0,0-.259-.131" transform="translate(-213.266 -160.995)"/><path d="M275.6,203.438c.467.256,1.1.3,1,1.167-.076.649-.1,1.155-.891,1.2a.2.2,0,0,0-.131.093c.014.015.028.031.041.048,1.168-.062,1.171-.087,1.171-1.192,0-1.257,0-1.285-1.172-1.347l0,.017-.013.013" transform="translate(-218.141 -161.011)"/><path d="M275.4,215.409l.078,0a.607.607,0,0,0-.041-.048c-.013.017-.026.035-.038.052" transform="translate(-217.998 -170.47)"/><path d="M275.461,203.422l.013-.013,0-.017-.077,0c.02.012.04.023.06.034" transform="translate(-217.998 -160.995)"/><path d="M271.317,227.582c-.268.139-.686,0-.824.346a3.23,3.23,0,0,0-.059,1.389c.013.242.173.36.4.4a1.228,1.228,0,0,1,.633.208.193.193,0,0,1,.13-.092c.79-.046.815-.552.891-1.2.1-.877-.543-.911-1.012-1.174a.644.644,0,0,1-.163.122" transform="translate(-214.03 -180.05)"/><path d="M270.074,229.618c-.231-.042-.391-.161-.4-.4a3.234,3.234,0,0,1,.059-1.389c.138-.347.555-.207.824-.346a.647.647,0,0,0,.164-.122l-.048-.027c-1.246.066-1.246.066-1.246,1.2,0,1.286,0,1.286,1.246,1.351.012-.018.025-.036.039-.054a1.228,1.228,0,0,0-.633-.208" transform="translate(-213.266 -179.949)"/><path d="M276.606,228.547c-.076.649-.1,1.155-.891,1.2a.194.194,0,0,0-.13.092c.007.006.014.01.021.017l.008.033c1.179-.063,1.182-.084,1.182-1.192,0-1.261,0-1.285-1.182-1.348l-.02.023c.469.263,1.114.3,1.012,1.174" transform="translate(-218.144 -179.963)"/><path d="M275.439,239.295c-.014.018-.026.036-.039.054l.067,0-.008-.033-.021-.017" transform="translate(-217.998 -189.418)"/><path d="M275.448,227.359l.02-.023-.068,0,.048.027" transform="translate(-217.998 -179.949)"/><path d="M138.919,311.262c-1.191,0-1.191,0-1.191,1.226,0,1.269,0,1.269,1.3,1.269,1.191,0,1.191,0,1.191-1.226,0-1.269,0-1.269-1.3-1.269" transform="translate(-109.021 -246.385)" fill="#feea98"/><path d="M91.071,311.262c-1.232,0-1.232,0-1.232,1.186,0,1.31,0,1.31,1.264,1.31,1.232,0,1.232,0,1.232-1.264,0-1.232,0-1.232-1.264-1.232" transform="translate(-71.114 -246.385)" fill="#feea98"/><path d="M138.919,215.484c-1.191,0-1.191,0-1.191,1.226,0,1.269,0,1.269,1.3,1.269,1.191,0,1.191,0,1.191-1.226,0-1.269,0-1.269-1.3-1.269" transform="translate(-109.021 -170.57)" fill="#feea98"/><path d="M91.05,215.484c-1.211,0-1.211,0-1.211,1.206,0,1.289,0,1.289,1.284,1.289,1.211,0,1.211,0,1.211-1.207,0-1.289,0-1.289-1.284-1.289" transform="translate(-71.114 -170.57)" fill="#feea98"/></g></g></g></svg>