<svg xmlns="http://www.w3.org/2000/svg" xmlns:xlink="http://www.w3.org/1999/xlink" width="25.189" height="21.943" viewBox="0 0 25.189 21.943"><defs><clipPath id="a"><rect width="25.189" height="21.943" fill="#4a2efc"/></clipPath></defs><g clip-path="url(#a)"><path d="M22.559,155.771a9.152,9.152,0,0,0-1.86-.087,3.279,3.279,0,0,0-2.936,1.747c-.03.052-.065.1-.113.178-.066-.075-.112-.133-.164-.185a5.463,5.463,0,0,0-3.079-1.623,18.09,18.09,0,0,0-2.549-.116,5.714,5.714,0,0,0-3.6,1.249c-.257.2-.491.427-.734.64-.012,0-.022-.006-.025-.011-.037-.063-.073-.127-.11-.191a3.16,3.16,0,0,0-2.262-1.619,10.689,10.689,0,0,0-1.765-.072A3.32,3.32,0,0,0,0,159.052q0,2.607,0,5.214a1.447,1.447,0,0,0,1.535,1.544q2.066,0,4.132,0h.274c.021.084.04.154.056.225a1.7,1.7,0,0,0,1.636,1.346q4.956.011,9.912,0a1.624,1.624,0,0,0,1.541-1.035,4.481,4.481,0,0,0,.168-.533h.258c1.377,0,2.755,0,4.132,0a1.491,1.491,0,0,0,1.494-1.12.874.874,0,0,1,.049-.109v-6a.565.565,0,0,1-.044-.109,3.237,3.237,0,0,0-2.585-2.7m-16.344,4.1a15.553,15.553,0,0,0-.247,1.645c-.041.924-.011,1.851-.011,2.805H1.476v-.261q0-2.471,0-4.941a1.855,1.855,0,0,1,1.974-1.967,9.309,9.309,0,0,1,1.4.048,1.779,1.779,0,0,1,1.492,1.759,6,6,0,0,1-.124.912m11.544,5.69c0,.275-.08.345-.381.345H7.841c-.359,0-.412-.053-.412-.412,0-1.278,0-2.556,0-3.835a4.465,4.465,0,0,1,4.51-4.5,13.251,13.251,0,0,1,2.251.106,4.411,4.411,0,0,1,3.563,4.22c.021,1.36.006,2.72.005,4.08m5.95-1.242H19.236c0-.086,0-.173,0-.259-.015-1.04-.008-2.081-.058-3.119a6.176,6.176,0,0,0-.258-1.22,1.939,1.939,0,0,1,1.123-2.447.792.792,0,0,1,.258-.074,14.6,14.6,0,0,1,1.956.014,1.726,1.726,0,0,1,1.444,1.668c.02,1.8.006,3.6.006,5.437" transform="translate(0 -145.445)" fill="#4a2efc"/><path d="M130.819,0a4.28,4.28,0,1,0,4.263,4.284A4.286,4.286,0,0,0,130.819,0M130.8,7.084a2.8,2.8,0,1,1,2.8-2.8,2.813,2.813,0,0,1-2.8,2.8" transform="translate(-118.208 -0.001)" fill="#4a2efc"/><path d="M21.452,47.915a2.7,2.7,0,1,0,2.7,2.711,2.713,2.713,0,0,0-2.7-2.711m-.021,3.934a1.229,1.229,0,1,1,1.244-1.221,1.233,1.233,0,0,1-1.244,1.221" transform="translate(-17.509 -44.766)" fill="#4a2efc"/><path d="M284.92,47.915a2.7,2.7,0,1,0,2.715,2.694,2.714,2.714,0,0,0-2.715-2.694m0,3.934a1.229,1.229,0,1,1,1.24-1.225,1.233,1.233,0,0,1-1.24,1.225" transform="translate(-263.678 -44.766)" fill="#4a2efc"/><path d="M119.318,311.384h0" transform="translate(-111.476 -290.92)" fill="#4a2efc"/></g></svg>