<svg xmlns="http://www.w3.org/2000/svg" xmlns:xlink="http://www.w3.org/1999/xlink" width="21.939" height="21.943" viewBox="0 0 21.939 21.943"><defs><clipPath id="a"><rect width="21.939" height="21.943" fill="#4a2efc"/></clipPath></defs><g clip-path="url(#a)"><path d="M16.711,15.251q0-5.387,0-10.775a.545.545,0,0,0-.18-.427c-1.312-1.3-2.616-2.614-3.929-3.917a.46.46,0,0,0-.291-.127Q6.244,0,.172,0H0V21.943H16.711V19.371h5.228V15.514H16.711ZM12.87,2.3l1.547,1.549H12.87Zm2.542,18.348H1.3V1.3H11.567V5.138H15.41V15.514h-.27c-2.113,0-4.227.026-6.34-.011a4.294,4.294,0,0,0-2.867.985,1.239,1.239,0,0,1-.968.314,4.287,4.287,0,0,0-.455,0v1.286c.273,0,.549-.012.823.006a.646.646,0,0,1,.341.122,5.024,5.024,0,0,0,2.067,1.08,3.7,3.7,0,0,0,.743.075q3.331.008,6.662,0h.267ZM7.7,16.911v1.057l-.952-.524.952-.533m11.677-.1h1.259v1.259H19.377Zm-1.3,1.263H9.016V16.815h9.057Z" transform="translate(0 0)" fill="#4a2efc"/><path d="M47.432,99.079c0-.4.007-.788,0-1.172a.271.271,0,0,1,.186-.3,1.909,1.909,0,0,0,.878-2.631,1.887,1.887,0,0,0-1.685-1.034.643.643,0,1,1,.612-.768c.011.039.017.079.023.109H48.72a1.8,1.8,0,0,0-.926-1.607.611.611,0,0,1-.368-.7c.023-.309.005-.621.005-.927H46.146c0,.41-.009.809,0,1.207a.273.273,0,0,1-.187.3,1.927,1.927,0,0,0,.828,3.666.643.643,0,0,1,.638.6.654.654,0,0,1-.537.675.645.645,0,0,1-.721-.469c-.016-.052-.029-.106-.046-.166H44.869a1.872,1.872,0,0,0,1.06,1.714.319.319,0,0,1,.22.369c-.015.163,0,.328,0,.493v.634Z" transform="translate(-42.29 -84.898)" fill="#4a2efc"/><rect width="6.4" height="1.261" transform="translate(7.73 6.486)" fill="#4a2efc"/><rect width="6.4" height="1.26" transform="translate(7.73 9.057)" fill="#4a2efc"/><rect width="6.397" height="1.261" transform="translate(7.73 11.629)" fill="#4a2efc"/></g></svg>