<svg xmlns="http://www.w3.org/2000/svg" xmlns:xlink="http://www.w3.org/1999/xlink" width="155" height="48" viewBox="0 0 155 48">
  <defs>
    <clipPath id="clip-path">
      <rect id="Rect치ngulo_292468" data-name="Rect치ngulo 292468" width="28.385" height="21.942" fill="#4a2efc"/>
    </clipPath>
  </defs>
  <g id="Grupo_874031" data-name="Grupo 874031" transform="translate(-538 -1475.204)">
    <g id="Grupo_870106" data-name="Grupo 870106" transform="translate(48 -405.233)">
      <rect id="Rect치ngulo_290789" data-name="Rect치ngulo 290789" width="155" height="48" transform="translate(490 1880.438)" fill="#fff"/>
      <path id="Trazado_609221" data-name="Trazado 609221" d="M2.82,12.547V17H1.32V5.625h4.2a4.215,4.215,0,0,1,2.926.953A3.231,3.231,0,0,1,9.5,9.1a3.189,3.189,0,0,1-1.035,2.551,4.4,4.4,0,0,1-2.965.895Zm0-1.227h2.7a2.7,2.7,0,0,0,1.844-.567A2.075,2.075,0,0,0,8,9.113a2.143,2.143,0,0,0-.641-1.628A2.525,2.525,0,0,0,5.6,6.852H2.82ZM15.273,9.844a4.331,4.331,0,0,0-.711-.055A1.9,1.9,0,0,0,12.633,11v6H11.188V8.547h1.406l.023.977a2.251,2.251,0,0,1,2.016-1.133,1.477,1.477,0,0,1,.641.109Zm.789,2.852a4.993,4.993,0,0,1,.488-2.234A3.643,3.643,0,0,1,17.91,8.93,3.7,3.7,0,0,1,19.9,8.391a3.565,3.565,0,0,1,2.793,1.2,4.6,4.6,0,0,1,1.066,3.18v.1a5.036,5.036,0,0,1-.473,2.215,3.589,3.589,0,0,1-1.352,1.527,3.743,3.743,0,0,1-2.02.547,3.556,3.556,0,0,1-2.785-1.2A4.575,4.575,0,0,1,16.063,12.8Zm1.453.172a3.616,3.616,0,0,0,.652,2.258,2.211,2.211,0,0,0,3.5-.012,3.955,3.955,0,0,0,.648-2.418,3.61,3.61,0,0,0-.66-2.254A2.1,2.1,0,0,0,19.9,9.578a2.075,2.075,0,0,0-1.727.852A3.925,3.925,0,0,0,17.516,12.867Zm10.727,2.172,2.094-6.492h1.477L28.781,17h-1.1L24.617,8.547h1.477Zm8.469,2.117a3.693,3.693,0,0,1-2.8-1.129,4.19,4.19,0,0,1-1.078-3.02v-.266a5.073,5.073,0,0,1,.48-2.246A3.748,3.748,0,0,1,34.66,8.949a3.378,3.378,0,0,1,1.871-.559,3.166,3.166,0,0,1,2.563,1.086,4.7,4.7,0,0,1,.914,3.109v.6H34.281a3,3,0,0,0,.73,2.02,2.3,2.3,0,0,0,1.777.77,2.517,2.517,0,0,0,1.3-.312,3.259,3.259,0,0,0,.93-.828l.883.688A3.55,3.55,0,0,1,36.711,17.156Zm-.18-7.578a1.928,1.928,0,0,0-1.469.637A3.1,3.1,0,0,0,34.328,12h4.234v-.109a2.753,2.753,0,0,0-.594-1.707A1.815,1.815,0,0,0,36.531,9.578Zm8.656,7.578a3.693,3.693,0,0,1-2.8-1.129,4.19,4.19,0,0,1-1.078-3.02v-.266a5.073,5.073,0,0,1,.48-2.246,3.748,3.748,0,0,1,1.344-1.547,3.378,3.378,0,0,1,1.871-.559A3.166,3.166,0,0,1,47.57,9.477a4.7,4.7,0,0,1,.914,3.109v.6H42.758a3,3,0,0,0,.73,2.02,2.3,2.3,0,0,0,1.777.77,2.517,2.517,0,0,0,1.3-.312,3.259,3.259,0,0,0,.93-.828l.883.688A3.55,3.55,0,0,1,45.188,17.156Zm-.18-7.578a1.928,1.928,0,0,0-1.469.637A3.1,3.1,0,0,0,42.8,12h4.234v-.109a2.753,2.753,0,0,0-.594-1.707A1.815,1.815,0,0,0,45.008,9.578ZM49.8,12.7a4.952,4.952,0,0,1,.922-3.129,3.137,3.137,0,0,1,4.766-.168V5h1.445V17H55.609l-.07-.906a2.943,2.943,0,0,1-2.414,1.063,2.887,2.887,0,0,1-2.395-1.2,5.008,5.008,0,0,1-.926-3.141Zm1.445.164a3.749,3.749,0,0,0,.594,2.25,1.92,1.92,0,0,0,1.641.813A2.108,2.108,0,0,0,55.492,14.7V10.813a2.125,2.125,0,0,0-1.992-1.2,1.929,1.929,0,0,0-1.656.82A4.128,4.128,0,0,0,51.25,12.867ZM58.8,12.7a4.993,4.993,0,0,1,.488-2.234A3.643,3.643,0,0,1,60.645,8.93a3.7,3.7,0,0,1,1.988-.539,3.565,3.565,0,0,1,2.793,1.2,4.6,4.6,0,0,1,1.066,3.18v.1a5.036,5.036,0,0,1-.473,2.215,3.589,3.589,0,0,1-1.352,1.527,3.743,3.743,0,0,1-2.02.547,3.556,3.556,0,0,1-2.785-1.2A4.575,4.575,0,0,1,58.8,12.8Zm1.453.172a3.616,3.616,0,0,0,.652,2.258,2.211,2.211,0,0,0,3.5-.012,3.955,3.955,0,0,0,.648-2.418,3.61,3.61,0,0,0-.66-2.254,2.1,2.1,0,0,0-1.754-.863,2.075,2.075,0,0,0-1.727.852A3.925,3.925,0,0,0,60.25,12.867ZM72.391,9.844a4.331,4.331,0,0,0-.711-.055A1.9,1.9,0,0,0,69.75,11v6H68.3V8.547h1.406l.023.977A2.251,2.251,0,0,1,71.75,8.391a1.477,1.477,0,0,1,.641.109Zm4.836,7.313a3.693,3.693,0,0,1-2.8-1.129,4.19,4.19,0,0,1-1.078-3.02v-.266a5.073,5.073,0,0,1,.48-2.246,3.748,3.748,0,0,1,1.344-1.547,3.378,3.378,0,0,1,1.871-.559,3.166,3.166,0,0,1,2.563,1.086,4.7,4.7,0,0,1,.914,3.109v.6H74.8a3,3,0,0,0,.73,2.02,2.3,2.3,0,0,0,1.777.77,2.517,2.517,0,0,0,1.3-.312,3.259,3.259,0,0,0,.93-.828l.883.688A3.55,3.55,0,0,1,77.227,17.156Zm-.18-7.578a1.928,1.928,0,0,0-1.469.637A3.1,3.1,0,0,0,74.844,12h4.234v-.109a2.753,2.753,0,0,0-.594-1.707A1.815,1.815,0,0,0,77.047,9.578Zm10.07,5.18a1.064,1.064,0,0,0-.441-.91,4.249,4.249,0,0,0-1.539-.559,7.277,7.277,0,0,1-1.742-.562,2.479,2.479,0,0,1-.953-.781,1.869,1.869,0,0,1-.309-1.078,2.193,2.193,0,0,1,.879-1.758,3.432,3.432,0,0,1,2.246-.719,3.532,3.532,0,0,1,2.332.742,2.357,2.357,0,0,1,.895,1.9H87.031a1.3,1.3,0,0,0-.5-1.023,1.888,1.888,0,0,0-1.27-.43,1.976,1.976,0,0,0-1.234.344,1.082,1.082,0,0,0-.445.9.877.877,0,0,0,.414.789,5.1,5.1,0,0,0,1.5.508,7.8,7.8,0,0,1,1.754.578,2.558,2.558,0,0,1,1,.809,1.988,1.988,0,0,1,.324,1.152,2.163,2.163,0,0,1-.906,1.816,3.8,3.8,0,0,1-2.352.684,4.257,4.257,0,0,1-1.8-.359,2.922,2.922,0,0,1-1.223-1,2.42,2.42,0,0,1-.441-1.395h1.445a1.5,1.5,0,0,0,.582,1.152,2.258,2.258,0,0,0,1.434.426,2.331,2.331,0,0,0,1.316-.332A1.02,1.02,0,0,0,87.117,14.758Z" transform="translate(537.561 1894.438)" fill="#12263f"/>
    </g>
    <g id="Grupo_873999" data-name="Grupo 873999" transform="translate(552.829 1488.233)">
      <g id="Grupo_873999-2" data-name="Grupo 873999" clip-path="url(#clip-path)">
        <path id="Trazado_608957" data-name="Trazado 608957" d="M27.4,179.713H17.43a.861.861,0,0,0-.986.985c0,.869,0,1.738,0,2.618-.406-.139-.766-.285-1.138-.385-.893-.238-1.791-.454-2.687-.68-.674-.17-.855-.105-1.279.454-.546.721-1.094,1.442-1.657,2.183-.077-.1-.141-.172-.2-.252-.527-.692-1.059-1.381-1.576-2.08a.911.911,0,0,0-1.069-.365c-.911.241-1.827.464-2.739.7a5.345,5.345,0,0,0-2.531,1.426A5.018,5.018,0,0,0,0,188.021c.016.953,0,1.907,0,2.861a.687.687,0,0,0,.522.72,1.441,1.441,0,0,0,.409.051q13.232,0,26.465,0a.862.862,0,0,0,.985-.987q0-4.986,0-9.971a.862.862,0,0,0-.986-.985M16.444,189.967H1.551a18.792,18.792,0,0,1,.228-2.776A3.55,3.55,0,0,1,4.525,184.5c.7-.19,1.4-.352,2.093-.541a.3.3,0,0,1,.37.132q.972,1.3,1.961,2.59a.811.811,0,0,0,1.01.356,1.079,1.079,0,0,0,.4-.321q1-1.281,1.971-2.581a.327.327,0,0,1,.411-.149c.721.2,1.462.336,2.17.571a9.285,9.285,0,0,1,1.383.68.324.324,0,0,1,.14.24c.008,1.49.006,2.979.006,4.49m5.116-8.458h1.717V182.8a1.258,1.258,0,0,0-1.717,0Zm5.144,8.458H18.13V181.4h1.75c0,.1,0,.193,0,.29,0,.787,0,1.573,0,2.36a.827.827,0,0,0,1.257.789c.374-.181.74-.38,1.119-.551a.443.443,0,0,1,.326,0c.37.168.728.363,1.093.541a.827.827,0,0,0,1.279-.78c.007-.777,0-1.555,0-2.332v-.323H26.7Z" transform="translate(0 -169.714)" fill="#4a2efc"/>
        <path id="Trazado_608958" data-name="Trazado 608958" d="M78.674,11.222a5.61,5.61,0,1,0-5.616-5.614,5.606,5.606,0,0,0,5.616,5.614m.018-9.554A3.944,3.944,0,1,1,74.724,5.6a3.936,3.936,0,0,1,3.968-3.936" transform="translate(-68.993 -0.001)" fill="#4a2efc"/>
      </g>
    </g>
  </g>
</svg>
