<svg xmlns="http://www.w3.org/2000/svg" xmlns:xlink="http://www.w3.org/1999/xlink" width="398.701" height="74.859" viewBox="0 0 398.701 74.859"><defs><clipPath id="a"><rect width="74.701" height="74.86" fill="none"/></clipPath></defs><g transform="translate(-180 -12552.348)"><path d="M0,0H363.057l-2.9,52.528L0,52Z" transform="translate(180 12563.822)" fill="#fff0a6"/><path d="M1.074,21V6.781H6.182a7.232,7.232,0,0,1,4.175,1.006,3.347,3.347,0,0,1,1.431,2.92,3.383,3.383,0,0,1-.508,1.885,2.959,2.959,0,0,1-1.494,1.152,3,3,0,0,1,1.709,1.094,3.18,3.18,0,0,1,.6,1.953,3.765,3.765,0,0,1-1.323,3.14A6.3,6.3,0,0,1,6.846,21ZM4.5,14.955v3.408H6.748a2.136,2.136,0,0,0,1.426-.425,1.487,1.487,0,0,0,.5-1.2A1.576,1.576,0,0,0,6.9,14.955Zm0-2.246H6.289a2.539,2.539,0,0,0,1.6-.411,1.46,1.46,0,0,0,.479-1.185,1.533,1.533,0,0,0-.518-1.3,2.77,2.77,0,0,0-1.67-.4H4.5ZM19.775,21a3.716,3.716,0,0,1-.312-.947A3.06,3.06,0,0,1,16.924,21.2a3.749,3.749,0,0,1-2.539-.9,2.875,2.875,0,0,1-1.045-2.271,2.955,2.955,0,0,1,1.27-2.6,6.468,6.468,0,0,1,3.691-.879h1.016v-.559q0-1.462-1.26-1.462a1.03,1.03,0,0,0-1.172,1.158H13.594a2.95,2.95,0,0,1,1.3-2.487,5.479,5.479,0,0,1,3.325-.956,4.8,4.8,0,0,1,3.193.986,3.429,3.429,0,0,1,1.2,2.705v4.678a4.79,4.79,0,0,0,.449,2.227V21Zm-2.061-2.148a1.836,1.836,0,0,0,1.021-.264,1.653,1.653,0,0,0,.581-.6V16.3h-.957q-1.719,0-1.719,1.543a.942.942,0,0,0,.3.728A1.1,1.1,0,0,0,17.715,18.852Zm12.256-.82a.76.76,0,0,0-.439-.674,6.684,6.684,0,0,0-1.67-.527,7.615,7.615,0,0,1-2.031-.718,3.4,3.4,0,0,1-1.221-1.079,2.577,2.577,0,0,1-.42-1.455,2.92,2.92,0,0,1,1.2-2.4,4.948,4.948,0,0,1,3.145-.942,5.482,5.482,0,0,1,3.359.947,2.962,2.962,0,0,1,1.27,2.49h-3.3q0-1.27-1.338-1.27a1.326,1.326,0,0,0-.869.288.892.892,0,0,0-.352.718.819.819,0,0,0,.43.713,4.06,4.06,0,0,0,1.372.449,11.857,11.857,0,0,1,1.655.42,3.007,3.007,0,0,1,2.383,2.939,2.767,2.767,0,0,1-1.284,2.354,5.631,5.631,0,0,1-3.325.908,5.747,5.747,0,0,1-2.422-.488,4.05,4.05,0,0,1-1.66-1.328,3.007,3.007,0,0,1-.6-1.768h3.076a1.272,1.272,0,0,0,.488,1.069,2.009,2.009,0,0,0,1.2.337,1.58,1.58,0,0,0,1.011-.273A.875.875,0,0,0,29.971,18.031ZM39.795,21.2a5.432,5.432,0,0,1-3.936-1.45,5.008,5.008,0,0,1-1.5-3.774V15.7a6.489,6.489,0,0,1,.6-2.861,4.395,4.395,0,0,1,1.753-1.919,5.292,5.292,0,0,1,2.734-.679,4.574,4.574,0,0,1,3.516,1.382,5.43,5.43,0,0,1,1.289,3.853v1.279H37.705a2.372,2.372,0,0,0,.771,1.4,2.3,2.3,0,0,0,1.543.508,2.958,2.958,0,0,0,2.441-1.094l1.5,1.777a4.2,4.2,0,0,1-1.743,1.353A5.891,5.891,0,0,1,39.795,21.2Zm-.371-8.418q-1.445,0-1.719,1.914h3.32v-.254a1.63,1.63,0,0,0-.4-1.226A1.593,1.593,0,0,0,39.424,12.777Zm10.713,2.861a6.455,6.455,0,0,1,1.084-3.955,3.568,3.568,0,0,1,3.027-1.445,3.035,3.035,0,0,1,2.383,1.113V6h3.3V21H56.973l-.166-1.133A3.116,3.116,0,0,1,54.229,21.2,3.562,3.562,0,0,1,51.24,19.75,6.659,6.659,0,0,1,50.137,15.639Zm3.291.205q0,2.813,1.641,2.813a1.62,1.62,0,0,0,1.563-.918V13.715a1.576,1.576,0,0,0-1.543-.937q-1.523,0-1.65,2.461ZM66.914,21.2a5.432,5.432,0,0,1-3.936-1.45,5.008,5.008,0,0,1-1.5-3.774V15.7a6.489,6.489,0,0,1,.6-2.861,4.395,4.395,0,0,1,1.753-1.919,5.292,5.292,0,0,1,2.734-.679,4.574,4.574,0,0,1,3.516,1.382,5.43,5.43,0,0,1,1.289,3.853v1.279H64.824a2.372,2.372,0,0,0,.771,1.4,2.3,2.3,0,0,0,1.543.508,2.958,2.958,0,0,0,2.441-1.094l1.5,1.777a4.2,4.2,0,0,1-1.743,1.353A5.891,5.891,0,0,1,66.914,21.2Zm-.371-8.418q-1.445,0-1.719,1.914h3.32v-.254a1.63,1.63,0,0,0-.4-1.226A1.593,1.593,0,0,0,66.543,12.777Zm10.713,2.861a6.455,6.455,0,0,1,1.084-3.955,3.568,3.568,0,0,1,3.027-1.445,3.035,3.035,0,0,1,2.383,1.113V6h3.3V21H84.092l-.166-1.133A3.116,3.116,0,0,1,81.348,21.2a3.562,3.562,0,0,1-2.988-1.445A6.659,6.659,0,0,1,77.256,15.639Zm3.291.205q0,2.813,1.641,2.813a1.62,1.62,0,0,0,1.563-.918V13.715a1.576,1.576,0,0,0-1.543-.937q-1.523,0-1.65,2.461ZM94.873,21a3.716,3.716,0,0,1-.312-.947A3.06,3.06,0,0,1,92.021,21.2a3.749,3.749,0,0,1-2.539-.9,2.875,2.875,0,0,1-1.045-2.271,2.955,2.955,0,0,1,1.27-2.6,6.468,6.468,0,0,1,3.691-.879h1.016v-.559q0-1.462-1.26-1.462a1.03,1.03,0,0,0-1.172,1.158H88.691A2.95,2.95,0,0,1,90,11.194a5.479,5.479,0,0,1,3.325-.956,4.8,4.8,0,0,1,3.193.986,3.429,3.429,0,0,1,1.2,2.705v4.678a4.79,4.79,0,0,0,.449,2.227V21Zm-2.061-2.148a1.836,1.836,0,0,0,1.021-.264,1.653,1.653,0,0,0,.581-.6V16.3h-.957q-1.719,0-1.719,1.543a.942.942,0,0,0,.3.728A1.1,1.1,0,0,0,92.813,18.852ZM103.369,7.807v2.627h1.738v2.285h-1.738v4.834a1.234,1.234,0,0,0,.215.83,1.152,1.152,0,0,0,.85.234,4.828,4.828,0,0,0,.82-.059v2.354a6.074,6.074,0,0,1-1.855.283,3.448,3.448,0,0,1-2.51-.8,3.282,3.282,0,0,1-.811-2.432V12.719H98.73V10.434h1.348V7.807Zm2.324,7.813a6.236,6.236,0,0,1,.615-2.817,4.4,4.4,0,0,1,1.768-1.9,5.323,5.323,0,0,1,2.705-.664,4.858,4.858,0,0,1,3.74,1.47,5.64,5.64,0,0,1,1.367,4v.117a5.472,5.472,0,0,1-1.372,3.921A4.871,4.871,0,0,1,110.8,21.2a4.927,4.927,0,0,1-3.623-1.353,5.29,5.29,0,0,1-1.475-3.667Zm3.291.205a3.932,3.932,0,0,0,.459,2.148,1.529,1.529,0,0,0,1.357.684q1.758,0,1.8-2.705v-.332q0-2.842-1.816-2.842-1.65,0-1.787,2.451Zm13.887,2.207a.76.76,0,0,0-.439-.674,6.684,6.684,0,0,0-1.67-.527,7.615,7.615,0,0,1-2.031-.718,3.4,3.4,0,0,1-1.221-1.079,2.577,2.577,0,0,1-.42-1.455,2.92,2.92,0,0,1,1.2-2.4,4.948,4.948,0,0,1,3.145-.942,5.482,5.482,0,0,1,3.359.947,2.962,2.962,0,0,1,1.27,2.49h-3.3q0-1.27-1.338-1.27a1.326,1.326,0,0,0-.869.288.892.892,0,0,0-.352.718.819.819,0,0,0,.43.713,4.06,4.06,0,0,0,1.372.449,11.857,11.857,0,0,1,1.655.42,3.007,3.007,0,0,1,2.383,2.939,2.767,2.767,0,0,1-1.284,2.354,5.631,5.631,0,0,1-3.325.908,5.747,5.747,0,0,1-2.422-.488,4.05,4.05,0,0,1-1.66-1.328,3.007,3.007,0,0,1-.6-1.768h3.076a1.272,1.272,0,0,0,.488,1.069,2.009,2.009,0,0,0,1.2.337,1.58,1.58,0,0,0,1.011-.273A.875.875,0,0,0,122.871,18.031Zm16.084-4.619-1.084-.078a1.947,1.947,0,0,0-1.992.977V21h-3.291V10.434h3.086l.107,1.357a2.548,2.548,0,0,1,2.314-1.553,3.209,3.209,0,0,1,.918.117Zm6.3,7.783a5.432,5.432,0,0,1-3.936-1.45,5.008,5.008,0,0,1-1.5-3.774V15.7a6.489,6.489,0,0,1,.6-2.861,4.395,4.395,0,0,1,1.753-1.919,5.292,5.292,0,0,1,2.734-.679,4.574,4.574,0,0,1,3.516,1.382,5.43,5.43,0,0,1,1.289,3.853v1.279h-6.543a2.372,2.372,0,0,0,.771,1.4,2.3,2.3,0,0,0,1.543.508,2.958,2.958,0,0,0,2.441-1.094l1.5,1.777a4.2,4.2,0,0,1-1.743,1.353A5.891,5.891,0,0,1,145.254,21.2Zm-.371-8.418q-1.445,0-1.719,1.914h3.32v-.254a1.63,1.63,0,0,0-.4-1.226A1.593,1.593,0,0,0,144.883,12.777ZM154.5,21h-3.3V6h3.3Zm7.979,0a3.716,3.716,0,0,1-.312-.947,3.06,3.06,0,0,1-2.539,1.143,3.749,3.749,0,0,1-2.539-.9,2.875,2.875,0,0,1-1.045-2.271,2.955,2.955,0,0,1,1.27-2.6,6.468,6.468,0,0,1,3.691-.879h1.016v-.559q0-1.462-1.26-1.462a1.03,1.03,0,0,0-1.172,1.158H156.3a2.95,2.95,0,0,1,1.3-2.487,5.479,5.479,0,0,1,3.325-.956,4.8,4.8,0,0,1,3.193.986,3.429,3.429,0,0,1,1.2,2.705v4.678a4.79,4.79,0,0,0,.449,2.227V21Zm-2.061-2.148a1.836,1.836,0,0,0,1.021-.264,1.653,1.653,0,0,0,.581-.6V16.3h-.957q-1.719,0-1.719,1.543a.942.942,0,0,0,.3.728A1.1,1.1,0,0,0,160.42,18.852Zm11.191-.2a1.464,1.464,0,0,0,1.074-.376,1.379,1.379,0,0,0,.371-1.05h3.086a3.653,3.653,0,0,1-1.245,2.852,4.631,4.631,0,0,1-3.208,1.113,4.689,4.689,0,0,1-3.633-1.445,5.7,5.7,0,0,1-1.328-4v-.137a6.436,6.436,0,0,1,.591-2.827,4.3,4.3,0,0,1,1.7-1.885,5.081,5.081,0,0,1,2.637-.659,4.573,4.573,0,0,1,3.271,1.143,4.053,4.053,0,0,1,1.211,3.1h-3.086a1.807,1.807,0,0,0-.4-1.26,1.382,1.382,0,0,0-1.074-.439q-1.279,0-1.494,1.631a11.507,11.507,0,0,0-.068,1.426,4.52,4.52,0,0,0,.381,2.207A1.319,1.319,0,0,0,171.611,18.656ZM181.006,21h-3.3V10.434h3.3Zm-3.5-13.291a1.469,1.469,0,0,1,.508-1.152,2.159,2.159,0,0,1,2.637,0,1.469,1.469,0,0,1,.508,1.152,1.469,1.469,0,0,1-.508,1.152,2.159,2.159,0,0,1-2.637,0A1.469,1.469,0,0,1,177.51,7.709Zm5.107,7.91a6.236,6.236,0,0,1,.615-2.817A4.4,4.4,0,0,1,185,10.9a5.323,5.323,0,0,1,2.705-.664,4.858,4.858,0,0,1,3.74,1.47,5.64,5.64,0,0,1,1.367,4v.117a5.472,5.472,0,0,1-1.372,3.921,4.871,4.871,0,0,1-3.716,1.45,4.927,4.927,0,0,1-3.623-1.353,5.29,5.29,0,0,1-1.475-3.667Zm3.291.205a3.932,3.932,0,0,0,.459,2.148,1.529,1.529,0,0,0,1.357.684q1.758,0,1.8-2.705v-.332q0-2.842-1.816-2.842-1.65,0-1.787,2.451Zm11.377-5.391.107,1.24a3.583,3.583,0,0,1,3.018-1.436,3.015,3.015,0,0,1,2.466.986,4.7,4.7,0,0,1,.845,2.969V21h-3.3V14.33a1.783,1.783,0,0,0-.322-1.177,1.491,1.491,0,0,0-1.172-.376,1.569,1.569,0,0,0-1.436.762V21H194.2V10.434ZM211.494,21a3.716,3.716,0,0,1-.312-.947,3.06,3.06,0,0,1-2.539,1.143,3.749,3.749,0,0,1-2.539-.9,2.875,2.875,0,0,1-1.045-2.271,2.955,2.955,0,0,1,1.27-2.6,6.468,6.468,0,0,1,3.691-.879h1.016v-.559q0-1.462-1.26-1.462a1.03,1.03,0,0,0-1.172,1.158h-3.291a2.95,2.95,0,0,1,1.3-2.487,5.479,5.479,0,0,1,3.325-.956,4.8,4.8,0,0,1,3.193.986,3.429,3.429,0,0,1,1.2,2.705v4.678a4.79,4.79,0,0,0,.449,2.227V21Zm-2.061-2.148a1.836,1.836,0,0,0,1.021-.264,1.653,1.653,0,0,0,.581-.6V16.3h-.957q-1.719,0-1.719,1.543a.942.942,0,0,0,.3.728A1.1,1.1,0,0,0,209.434,18.852ZM219.629,21h-3.3V6h3.3Zm7.139.2a5.432,5.432,0,0,1-3.936-1.45,5.008,5.008,0,0,1-1.5-3.774V15.7a6.489,6.489,0,0,1,.6-2.861,4.395,4.395,0,0,1,1.753-1.919,5.292,5.292,0,0,1,2.734-.679,4.574,4.574,0,0,1,3.516,1.382,5.43,5.43,0,0,1,1.289,3.853v1.279h-6.543a2.372,2.372,0,0,0,.771,1.4,2.3,2.3,0,0,0,1.543.508,2.958,2.958,0,0,0,2.441-1.094l1.5,1.777a4.2,4.2,0,0,1-1.743,1.353A5.891,5.891,0,0,1,226.768,21.2Zm-.371-8.418q-1.445,0-1.719,1.914H228v-.254a1.63,1.63,0,0,0-.4-1.226A1.593,1.593,0,0,0,226.4,12.777Zm11.68,5.254a.76.76,0,0,0-.439-.674,6.684,6.684,0,0,0-1.67-.527,7.615,7.615,0,0,1-2.031-.718,3.4,3.4,0,0,1-1.221-1.079,2.577,2.577,0,0,1-.42-1.455,2.92,2.92,0,0,1,1.2-2.4,4.948,4.948,0,0,1,3.145-.942,5.482,5.482,0,0,1,3.359.947,2.962,2.962,0,0,1,1.27,2.49h-3.3q0-1.27-1.338-1.27a1.326,1.326,0,0,0-.869.288.892.892,0,0,0-.352.718.819.819,0,0,0,.43.713,4.06,4.06,0,0,0,1.372.449,11.857,11.857,0,0,1,1.655.42,3.007,3.007,0,0,1,2.383,2.939,2.767,2.767,0,0,1-1.284,2.354,5.632,5.632,0,0,1-3.325.908,5.747,5.747,0,0,1-2.422-.488,4.05,4.05,0,0,1-1.66-1.328,3.007,3.007,0,0,1-.6-1.768h3.076a1.272,1.272,0,0,0,.488,1.069,2.009,2.009,0,0,0,1.2.337,1.58,1.58,0,0,0,1.011-.273A.875.875,0,0,0,238.076,18.031Z" transform="translate(223 12576.822)" fill="#12263f"/><g transform="translate(504 12552.348)"><g clip-path="url(#a)"><path d="M70.567,14.984q-10.113,0-20.226.009c-.549,0-.809-.032-.7-.718A11.765,11.765,0,0,0,48.252,6.54c-.238-.434-.115-.61.231-.863Q50.367,4.3,52.209,2.869A1.7,1.7,0,0,1,53.343,2.5c2.36.017,4.719.008,7.079.008,1.841,0,1.817,0,1.844-1.833C62.274.126,62.13,0,61.587,0c-2.982.029-5.964.025-8.946,0a2.2,2.2,0,0,0-1.424.5C49.817,1.574,48.39,2.609,47,3.7c-.4.312-.6.257-.943-.077a12.288,12.288,0,0,0-17.407,0c-.4.391-.613.338-1,.034C26.26,2.571,24.833,1.536,23.434.465A2.093,2.093,0,0,0,22.075.007C19.482.025,16.889.015,14.3.015c-1.853,0-1.831,0-1.855,1.82-.007.53.1.7.665.69,2.774-.033,5.549-.01,8.324-.021a1.5,1.5,0,0,1,1,.313c1.252.966,2.514,1.919,3.795,2.846.392.283.443.5.2.937a11.616,11.616,0,0,0-1.373,7.585c.118.732-.1.816-.754.814-6.716-.025-13.432-.016-20.148-.015A3.77,3.77,0,0,0,.005,19.135Q0,28.917,0,38.7q0,9.86,0,19.72A3.817,3.817,0,0,0,1.362,61.51a3.948,3.948,0,0,0,2.666.879c7.935-.011,15.87.006,23.8-.026.712,0,.851.2.82.853-.055,1.167-.05,2.339,0,3.506.024.571-.166.687-.692.662-.931-.044-1.867,0-2.8-.018a1.552,1.552,0,0,0-1.39.686c-1.138,1.545-2.294,3.077-3.45,4.608a1.3,1.3,0,0,0-.252,1.507,1.365,1.365,0,0,0,1.366.693q15.909-.009,31.817,0a1.384,1.384,0,0,0,1.377-.677,1.3,1.3,0,0,0-.232-1.511c-1.154-1.533-2.31-3.065-3.45-4.609a1.56,1.56,0,0,0-1.386-.7c-.985.022-1.971-.019-2.956.017-.454.016-.557-.137-.547-.566.028-1.221.055-2.444-.008-3.662-.035-.67.177-.789.806-.787q11.825.035,23.649.015c2.691,0,4.2-1.5,4.2-4.183q0-19.525,0-39.05c0-2.646-1.507-4.165-4.132-4.165M38.588,3.134c0-.437.138-.537.535-.458a9.922,9.922,0,0,1,5.365,2.885c-.882.666-1.676,1.289-2.5,1.875-.33.236-.341.4-.109.731,1.142,1.624,1.132,1.632,2.732.423.207-.156.415-.31.622-.466.8-.6.8-.6,1.221.353a10.815,10.815,0,0,1,.852,3.453c.041.443-.1.572-.544.569q-3.808-.029-7.615,0c-.445,0-.563-.127-.561-.566q.028-4.4,0-8.8m-10.246,5.1c.248-.523.446-.722.968-.257.6.533,1.286.962,1.907,1.471.324.266.5.233.722-.115.341-.547,1.108-1.035,1.022-1.572-.073-.452-.883-.789-1.372-1.169-.429-.333-.866-.656-1.367-1.033a10.1,10.1,0,0,1,5.294-2.876c.485-.1.608.033.6.532-.023,3.376-.013,6.751-.011,10.127,0,1.224.412,1.641,1.622,1.642,3.057,0,6.114,0,9.254,0A9.951,9.951,0,0,1,30.23,19.478,10.017,10.017,0,0,1,28.342,8.234M2.48,51.619c.067-.983.032-1.972.041-2.959C2.512,46.53,2.5,44.4,2.5,42.271q0-11.534,0-23.068c0-1.336.382-1.725,1.7-1.725,6.87,0,13.741.02,20.612-.025.92-.006,1.464.223,1.653,1.134a12.855,12.855,0,0,0,5.9,5.3,12.379,12.379,0,0,0,15.67-5c.066-.108.151-.2.227-.307.188-.913.735-1.14,1.653-1.132,5.8.047,11.607.024,17.411.025.284,0,.569.016.853.025.907-.009,1.814-.036,2.721-.02A1.243,1.243,0,0,1,72.209,18.8c.007.13,0,.26,0,.39q0,16.211.015,32.422c0,.643-.146.809-.8.808q-34.07-.028-68.14,0c-.64,0-.852-.139-.807-.8M48.706,69.865a.7.7,0,0,1,.676.265c.506.713,1.044,1.4,1.631,2.184H23.693c.587-.782,1.126-1.473,1.632-2.187A.7.7,0,0,1,26,69.866q11.352,0,22.7,0m-5.155-4.986h0c-.006.8.282,1.818-.1,2.336-.366.494-1.448.145-2.213.15-3.159.017-6.318,0-9.476.019-.5,0-.684-.121-.642-.639.051-.619.027-1.243.036-1.865.006-.8-.281-1.817.1-2.337.367-.5,1.448-.148,2.213-.152,3.133-.018,6.266.009,9.4-.022.579-.006.78.134.721.724s-.028,1.191-.037,1.787m28.675-9.114c-.064.9,0,1.818-.019,2.727a1.269,1.269,0,0,1-1.4,1.4c-.155,0-.311,0-.467,0H4.364c-1.539,0-1.869-.329-1.87-1.865,0-.883.017-1.767-.008-2.65-.01-.374.1-.522.48-.478a5.437,5.437,0,0,0,.622,0H37.353q17,0,34-.017c.711,0,.925.176.875.884" transform="translate(0 -0.001)"/><path d="M275.3,25.891c0,.511.133.639.638.636,3.319-.024,6.638-.012,9.957-.012,1.918,0,1.9,0,1.88-1.949-.005-.441-.121-.561-.559-.555-1.892.024-3.785.01-5.678.01h-4.356c-1.89,0-1.87,0-1.882,1.871" transform="translate(-218.045 -19.016)"/><path d="M35.817,24.009c-1.892.024-3.785.01-5.678.01H25.783c-1.891,0-1.87,0-1.882,1.871,0,.51.132.639.638.636,3.319-.024,6.638-.012,9.957-.012,1.918,0,1.9,0,1.88-1.949,0-.44-.12-.561-.559-.556" transform="translate(-18.93 -19.016)"/><path d="M251.742,50.24c2.489-.026,4.978-.012,7.467-.012,1.973,0,1.959,0,1.917-1.989-.009-.41-.116-.521-.52-.515-1.478.024-2.956.009-4.434.009-1.037,0-2.074-.013-3.111,0-.615.01-1.419-.265-1.792.11s-.053,1.184-.121,1.8c-.055.49.116.6.594.6" transform="translate(-198.864 -37.74)"/><path d="M64.884,48.008H61.7c-1.89,0-1.869,0-1.881,1.872,0,.513.136.64.639.635,2.489-.027,4.978-.012,7.467-.012,1.917,0,1.9,0,1.879-1.951,0-.442-.123-.562-.56-.554-1.451.027-2.9.01-4.356.01" transform="translate(-47.374 -38.015)"/><path d="M315.71,48.007c-1.4.021-2.8.008-4.2.009-.178,0-.38-.034-.373.25a5.808,5.808,0,0,0,.117,2.134c.159.35,1.051.071,1.611.108.232.015.466,0,.7,0h.622c2.042,0,2.035,0,1.937-2.043-.015-.306-.043-.466-.414-.46" transform="translate(-246.396 -38.023)"/><path d="M24.208,50.521c.673-.024,1.348-.007,2.021-.007h.622c2.037,0,2.027,0,1.915-2.067-.018-.34-.1-.443-.441-.435-.881.022-1.763.007-2.644.007-2.038,0-2.027,0-1.916,2.067.018.34.1.447.441.434" transform="translate(-18.793 -38.026)"/><path d="M313.109,2.509h1.167c2.044,0,2.031,0,1.951-2.033C316.211.1,316.1,0,315.741.006c-1.3.02-2.593.035-3.888-.005-.521-.016-.633.147-.63.644.011,1.864-.008,1.864,1.886,1.864" transform="translate(-246.494 0)"/><path d="M23.887,2.113c-.058.352.105.441.436.429.673-.023,1.348-.007,2.022-.007h.622c1.97,0,1.97,0,1.9-1.994a.389.389,0,0,1,0-.078c.057-.351-.105-.437-.436-.43-.881.02-1.762.007-2.644.007-1.97,0-1.97,0-1.9,1.994a.4.4,0,0,1,0,.078" transform="translate(-18.903 -0.027)"/><path d="M252.614,26.554c1.3,0,1.3,0,1.3-1.269,0-1.226,0-1.226-1.189-1.226-1.3,0-1.3,0-1.3,1.269,0,1.226,0,1.226,1.189,1.226" transform="translate(-199.133 -19.055)"/><path d="M98.286,25.29c0-1.231,0-1.231-1.261-1.231-1.229,0-1.229,0-1.229,1.185,0,1.309,0,1.309,1.261,1.309,1.229,0,1.229,0,1.229-1.263" transform="translate(-75.872 -19.055)"/><path d="M15.813,113.878H25.6c1.292,0,1.292,0,1.357,1.246H29.4c.065-1.246.065-1.246,1.358-1.246H45.518c1.292,0,1.292,0,1.357,1.246H51.8q.013-4.782.026-9.564c0-1.263.4-1.659,1.677-1.66q2.1,0,4.191,0c1.169,0,1.6.425,1.6,1.582q.016,4.821.026,9.641h2.438q.013-7.2.026-14.393c0-1.48.343-1.82,1.83-1.82,1.346,0,2.692,0,4.038,0,1.17,0,1.6.424,1.6,1.583q0,6.186,0,12.372c0,.285.016.57.025.854a10.25,10.25,0,0,0,2.438-1.4q.013-7.069.025-14.139c0-1.387.368-1.759,1.727-1.764,1.5-.006,3-.017,4.5-.025V88.956c-.854-.009-1.71.006-2.563-.035a1.083,1.083,0,0,0-.977.469c-1.711,2.085-3.458,4.14-5.16,6.232a1.994,1.994,0,0,1-1.736.806c-1.813-.037-3.628.021-5.44-.03a1.056,1.056,0,0,0-1.159.742c-.5,1.11-1.1,2.174-1.61,3.278a1.541,1.541,0,0,1-1.58,1c-1.787-.028-3.575-.022-5.363,0-.435.005-.559-.116-.566-.559-.032-1.946-.048-1.945,1.894-1.945.959,0,1.919-.031,2.875.012a.9.9,0,0,0,1.009-.6c.527-1.154,1.143-2.266,1.677-3.417a1.54,1.54,0,0,1,1.582-.991c1.995.027,3.99,0,5.985.019a1.12,1.12,0,0,0,.979-.463c1.726-2.105,3.484-4.185,5.208-6.292a1.846,1.846,0,0,1,1.6-.75c1.112.033,2.227-.006,3.34-.015a4.849,4.849,0,0,0-.308-2.443h0c-.284-.009-.569-.025-.853-.025-5.8,0-11.607.022-17.41-.025-.919-.007-1.465.22-1.654,1.132A9.493,9.493,0,0,1,55.5,89.824a11.113,11.113,0,0,1-8.66,4.106c-.012.8.278,1.848-.119,2.328-.414.5-1.5.144-2.293.151-2.3.019-4.606-.009-6.908.019-.51.006-.641-.138-.64-.643.005-1.863-.014-1.86,1.816-1.864q3.454-.008,6.907-.025a13.161,13.161,0,0,1-3.873-1.214,11.436,11.436,0,0,1-5.738-7.166,2.277,2.277,0,0,1-.037-.463c-.188-.912-.733-1.14-1.653-1.134-6.87.044-13.741.023-20.612.024-1.315,0-1.7.389-1.7,1.725q0,11.534,0,23.068c0,2.129.016,4.259.025,6.389h2.438c.065-1.246.065-1.246,1.356-1.246m16.717-2.495c-5.776,0-11.552-.008-17.328.013-.556,0-.749-.1-.738-.708.035-1.8,0-1.8,1.81-1.8h8.159c3.108,0,6.216.01,9.324-.01.485,0,.659.1.657.627-.006,1.877.017,1.877-1.886,1.877m12.445,0c-2.484,0-4.968-.014-7.451.012-.5,0-.648-.122-.646-.637.006-1.869-.015-1.869,1.811-1.869h3.26c1.449,0,2.9.016,4.346-.01.433-.007.559.114.567.557.033,1.947.048,1.947-1.887,1.947m1.893-6.7c-.047,1.71-.013,1.711-1.744,1.711H34.942c-3.679,0-7.357-.014-11.036.014-.576,0-.737-.131-.726-.72.032-1.789,0-1.789,1.82-1.789,7.021,0,14.041.01,21.062-.016.642,0,.823.144.8.8M33.116,93.92c1.285,0,1.285,0,1.285,1.284,0,1.21,0,1.21-1.2,1.21-1.285,0-1.285,0-1.285-1.285,0-1.21,0-1.21,1.2-1.21m.667,4.989c4.117,0,8.234.011,12.35-.013.562,0,.745.108.734.711-.034,1.8,0,1.8-1.811,1.8h-5.67c-2.278,0-4.557-.014-6.835.011-.49.005-.656-.1-.654-.631.006-1.875-.016-1.875,1.886-1.875M21.643,86.443c1.052-.027,1.539.431,1.552,1.473.008.7,0,1.4,0,2.1s.026,1.4-.009,2.1c-.023.448.13.567.565.559,1.374-.026,2.748-.014,4.121-.008,1.132,0,1.582.491,1.536,1.64a7.464,7.464,0,1,1-7.766-7.871M16.353,103.9h1.241c.879,0,1.758.016,2.636-.007.366-.009.471.1.488.476.094,2.026.106,2.026-1.881,2.026-1.266,0-2.533-.017-3.8.009-.432.009-.559-.113-.567-.556-.033-1.948-.049-1.948,1.882-1.948" transform="translate(-9.498 -66.464)" fill="#57a3fe"/><path d="M80.819,263.872q-17,.037-34,.017H13.057a5.437,5.437,0,0,1-.622,0c-.375-.043-.49.1-.48.478.025.883.008,1.767.008,2.65,0,1.536.33,1.865,1.87,1.865H79.806c.156,0,.311,0,.467,0a1.269,1.269,0,0,0,1.4-1.4c.015-.909-.046-1.822.019-2.727.051-.708-.163-.885-.875-.884" transform="translate(-9.468 -208.992)" fill="#c5c4c9"/><path d="M12.707,118.978q34.07-.027,68.141,0c.653,0,.8-.166.8-.808q-.032-16.211-.015-32.422c0-.13,0-.26,0-.39a1.243,1.243,0,0,0-1.322-1.315c-.907-.016-1.814.011-2.721.02.8.709.558,1.583.389,2.446h0c1.163.062,1.167.091,1.167,1.346,0,1.108,0,1.13-1.179,1.192a.641.641,0,0,1,.067.1,5.18,5.18,0,0,1,.114,1.687c.01,1.519.008,3.038,0,4.557a1.993,1.993,0,0,1-.179,1.116c.924.263,1.174.589,1.175,1.551q0,8.442,0,16.883c0,1.07-.447,1.521-1.5,1.527q-2.252.012-4.5,0c-1.005-.007-1.449-.467-1.462-1.486-.011-.814-.017-1.628-.025-2.443a5.407,5.407,0,0,1-2.1,1.341.333.333,0,0,1-.336-.01c-.008.421-.01.843-.027,1.263a1.236,1.236,0,0,1-1.295,1.33c-1.623.022-3.248.017-4.871,0a1.267,1.267,0,0,1-1.315-1.191,3.645,3.645,0,0,1-2.47.015c-.264.927-.588,1.176-1.539,1.18q-2.2.008-4.4,0c-.949,0-1.277-.255-1.537-1.176a1.235,1.235,0,0,1-.709.173q-1.766.025-3.532,0a1.3,1.3,0,0,1-.712-.163c-.062,1.163-.091,1.167-1.354,1.167H30.676c-1.272,0-1.292,0-1.355-1.193a3.676,3.676,0,0,1-2.445.02c-.062,1.17-.089,1.173-1.353,1.173H15.736c-1.271,0-1.291,0-1.354-1.192a3.086,3.086,0,0,1-2.441-.057c-.009.987.026,1.976-.041,2.959-.045.661.167.8.807.8" transform="translate(-9.42 -66.56)" fill="#2487fe"/><path d="M83.932,233.96l0,.076a3.676,3.676,0,0,0,2.445-.02c0-.019,0-.036,0-.056H83.932" transform="translate(-66.473 -185.301)" fill="#2487fe"/><path d="M328.06,86.6l.08,0h0c.169-.863.41-1.737-.389-2.446a4.851,4.851,0,0,1,.308,2.443" transform="translate(-259.586 -66.655)" fill="#2487fe"/><path d="M179.7,233.96c0,.029,0,.054,0,.082a1.3,1.3,0,0,0,.712.163q1.766.021,3.532,0a1.234,1.234,0,0,0,.709-.173c-.007-.024-.014-.046-.02-.071H179.7" transform="translate(-142.325 -185.301)" fill="#2487fe"/><path d="M329.232,108.133v7.432l.07.02a1.989,1.989,0,0,0,.179-1.116c.007-1.519.01-3.038,0-4.557a5.193,5.193,0,0,0-.114-1.687.627.627,0,0,0-.067-.1Z" transform="translate(-260.758 -85.64)" fill="#2487fe"/><path d="M289.9,220.47a10.246,10.246,0,0,1-2.438,1.4c0,.017,0,.035,0,.052a.333.333,0,0,0,.336.01,5.4,5.4,0,0,0,2.1-1.341v-.123" transform="translate(-227.674 -174.616)" fill="#2487fe"/><path d="M239.5,233.96c-.006.024-.013.045-.02.068a3.644,3.644,0,0,0,2.47-.015c0-.018-.009-.035-.012-.053Z" transform="translate(-189.674 -185.301)" fill="#2487fe"/><path d="M14.56,234.016c0-.02,0-.037,0-.057H12.119a3.086,3.086,0,0,0,2.441.057" transform="translate(-9.598 -185.3)" fill="#2487fe"/><path d="M145.778,31.658a9.827,9.827,0,0,0,5.516-6.592c-3.141,0-6.2,0-9.255,0-1.21,0-1.621-.418-1.622-1.642,0-3.376-.011-6.751.011-10.127,0-.5-.12-.636-.6-.532a10.1,10.1,0,0,0-5.294,2.877c.5.378.938.7,1.367,1.033.49.38,1.3.717,1.372,1.169.086.537-.681,1.026-1.022,1.572-.217.347-.4.38-.721.115-.621-.509-1.309-.939-1.907-1.471-.522-.465-.72-.266-.968.257a10.017,10.017,0,0,0,1.888,11.244,9.871,9.871,0,0,0,11.238,2.1" transform="translate(-104.309 -10.084)" fill="#fedd55"/><path d="M115.551,336.18c-.506.714-1.045,1.4-1.632,2.186h27.32c-.586-.78-1.125-1.471-1.631-2.184a.7.7,0,0,0-.676-.265q-11.352,0-22.7,0a.7.7,0,0,0-.677.262" transform="translate(-90.226 -266.053)" fill="#c5c4c9"/><path d="M186.1,22.592q3.808-.031,7.616,0c.445,0,.585-.125.544-.569a10.814,10.814,0,0,0-.852-3.453c-.425-.951-.423-.952-1.22-.353-.207.156-.415.31-.622.466-1.6,1.208-1.59,1.2-2.732-.423-.232-.33-.221-.495.109-.73.821-.586,1.616-1.209,2.5-1.875a9.921,9.921,0,0,0-5.365-2.885c-.4-.079-.537.022-.535.458q.027,4.4,0,8.8c0,.439.116.57.561.566" transform="translate(-146.948 -10.095)" fill="#fe7956"/><path d="M130.515,94.969a11.2,11.2,0,0,0,5.635,2.889,1.39,1.39,0,0,1,.595.148c.11.079.141.144.127.2l1.176.034c.183-.207.473-.188.738-.215a11.255,11.255,0,0,0,7.541-3.712A15.477,15.477,0,0,0,149,89.362c-.076.1-.161.2-.227.307a12.379,12.379,0,0,1-15.67,5,12.855,12.855,0,0,1-5.9-5.3,13.845,13.845,0,0,0,3.311,5.605" transform="translate(-100.748 -70.776)" fill="#2487fe"/><path d="M127.24,89.834A11.436,11.436,0,0,0,132.978,97a13.157,13.157,0,0,0,3.873,1.214h.021c.014-.056-.016-.121-.127-.2a1.393,1.393,0,0,0-.595-.148,11.2,11.2,0,0,1-5.635-2.889,13.847,13.847,0,0,1-3.312-5.605,2.277,2.277,0,0,0,.037.463" transform="translate(-100.747 -70.784)" fill="#2487fe"/><path d="M180.082,98.026c-.265.027-.555.007-.738.215h.04a11.114,11.114,0,0,0,8.661-4.106,9.492,9.492,0,0,0,2.248-4.774,15.476,15.476,0,0,1-2.669,4.952,11.255,11.255,0,0,1-7.541,3.712" transform="translate(-142.044 -70.776)" fill="#2487fe"/><path d="M161.133,299.514c-3.132.031-6.265,0-9.4.022-.765,0-1.846-.345-2.213.152-.384.52-.1,1.537-.1,2.337h12.4c.009-.6-.022-1.2.037-1.787s-.142-.73-.721-.724" transform="translate(-118.266 -237.147)" fill="#2487fe"/><path d="M161,312.19q-5.171.011-10.341,0a1.333,1.333,0,0,1-1.028-.247c-.009.622.015,1.247-.036,1.865-.042.518.14.643.642.639,3.159-.023,6.317,0,9.476-.019.765,0,1.847.345,2.213-.15.384-.518.1-1.536.1-2.336a1.333,1.333,0,0,1-1.028.247" transform="translate(-118.48 -247.065)" fill="#57a3fe"/><path d="M150.82,312.19q5.171.011,10.341,0a1.333,1.333,0,0,0,1.028-.247h-12.4a1.333,1.333,0,0,0,1.028.247" transform="translate(-118.638 -247.065)" fill="#57a3fe"/><path d="M301.16,144.325c-1.189.018-1.511.336-1.514,1.546-.013,4.2,0,8.4-.007,12.593a6.051,6.051,0,0,1-.066,1.316,2.316,2.316,0,0,1-.157.254c.364.453.2,1,.21,1.506.022,2.157.1,2.251,2.233,2.251,1.115,0,2.23.016,3.345-.006,1.05-.022,1.406-.36,1.41-1.421.02-5.534-.005-11.069.024-16.6a2.141,2.141,0,0,0-.974-1.669,1.47,1.47,0,0,1-1.013.225c-1.164.012-2.328-.008-3.491.009m2.747,17.223c-2.023.1-2.025.113-2.022-1.9q.01-5.917.025-11.833c-.066-1.25-.066-1.25,1.142-1.25h.155c1.208,0,1.208,0,1.142,1.25q.013,6.618.032,13.235c0,.363-.1.476-.474.495" transform="translate(-237.143 -114.123)"/><path d="M299.393,159.615a6.049,6.049,0,0,0,.066-1.316c0-4.2-.006-8.4.007-12.593,0-1.21.325-1.528,1.514-1.546,1.164-.017,2.328,0,3.491-.009a1.469,1.469,0,0,0,1.013-.225l-.047-.043q-2.248.013-4.5.025c-1.359.005-1.725.377-1.727,1.764q-.012,7.07-.026,14.139c.017.019.032.038.047.057a2.267,2.267,0,0,0,.157-.253" transform="translate(-236.963 -113.958)"/><path d="M305.488,144a2.141,2.141,0,0,1,.974,1.669c-.029,5.534,0,11.069-.024,16.6,0,1.061-.36,1.4-1.41,1.421-1.115.023-2.23.006-3.345.006-2.13,0-2.211-.094-2.233-2.251-.005-.5.154-1.053-.21-1.506-.015.022-.03.045-.046.066.008.814.014,1.628.025,2.443.014,1.02.457,1.48,1.462,1.486q2.252.015,4.5,0c1.053-.005,1.5-.457,1.5-1.527q.006-8.442,0-16.883c0-.962-.251-1.289-1.175-1.551l0,.009-.018.014" transform="translate(-236.967 -114.035)"/><path d="M329.279,143.926l.018-.014,0-.009-.07-.02.047.043" transform="translate(-260.758 -113.958)"/><path d="M299.188,220.47v.123c.016-.021.031-.044.046-.066-.015-.019-.03-.038-.047-.057" transform="translate(-236.963 -174.616)"/><path d="M32.062,111a7.521,7.521,0,0,0,6.921-7.072c.047-1.149-.4-1.636-1.536-1.64-1.374-.006-2.748-.018-4.121.008-.435.008-.588-.112-.565-.559.036-.7.009-1.4.009-2.1s.007-1.4,0-2.1c-.012-1.042-.5-1.5-1.552-1.473A7.484,7.484,0,1,0,32.062,111M30.281,98.788c0,1.481,0,2.958,0,4.436,0,1.115.439,1.555,1.546,1.559,1.475.005,2.95,0,4.429,0a4.828,4.828,0,0,1-5.031,3.73,5.019,5.019,0,0,1-4.67-4.674,4.825,4.825,0,0,1,3.725-5.051" transform="translate(-19.072 -76.08)"/><path d="M258.767,171.542a3.652,3.652,0,0,1-.1-1.235q-.005-5.605,0-11.211a7.807,7.807,0,0,0-.03-.933,1,1,0,0,0-1-1c-1.63-.068-3.263-.064-4.893,0a1.013,1.013,0,0,0-1.02.984,7.491,7.491,0,0,0-.035,1.011q0,6.345,0,12.69a2.107,2.107,0,0,1-.2,1.284l-.035.012a2.272,2.272,0,0,0,2.347.991c1.106-.064,2.219-.008,3.33-.017,1.228-.009,1.507-.283,1.566-1.487.015-.314-.044-.655.219-.905a.466.466,0,0,1-.138-.183m-2.814.321c-2.023.089-2.026.1-2.022-1.89q.009-4.672.025-9.345c-.065-1.25-.065-1.25,1.142-1.25h.155c1.207,0,1.207,0,1.142,1.25.009,3.582.012,7.165.033,10.747,0,.368-.1.471-.474.488" transform="translate(-199.148 -124.438)"/><path d="M251.366,172.246a2.106,2.106,0,0,0,.2-1.284q.009-6.345,0-12.69a7.452,7.452,0,0,1,.035-1.011,1.013,1.013,0,0,1,1.02-.984c1.63-.063,3.263-.066,4.893,0a1,1,0,0,1,1,1,7.807,7.807,0,0,1,.03.933q0,5.605,0,11.211a3.659,3.659,0,0,0,.1,1.235.467.467,0,0,0,.139.183c.011-.01.018-.021.03-.031-.009-.285-.025-.569-.025-.854q0-6.186,0-12.372c0-1.159-.43-1.58-1.6-1.583-1.346,0-2.692,0-4.038,0-1.487,0-1.828.341-1.83,1.82q-.012,7.2-.026,14.393c.01.017.02.031.03.047l.035-.012" transform="translate(-199.035 -123.552)"/><path d="M258.618,228.268c-.059,1.2-.338,1.478-1.566,1.487-1.11.009-2.223-.047-3.33.017a2.272,2.272,0,0,1-2.347-.991l-.018.006a1.267,1.267,0,0,0,1.315,1.191c1.624.014,3.248.02,4.871,0a1.236,1.236,0,0,0,1.294-1.33c.017-.421.019-.842.027-1.263l-.03-.021c-.264.251-.2.591-.219.905" transform="translate(-199.08 -180.076)"/><path d="M287.348,227.212h0c-.012.01-.02.021-.031.031l.03.021c0-.017,0-.035,0-.052" transform="translate(-227.561 -179.956)"/><path d="M251.3,233.96c0,.019.008.035.012.053l.018-.006c-.01-.016-.02-.031-.03-.047" transform="translate(-199.036 -185.301)"/><path d="M229.642,96.254q-1.243.018-2.487,0a1.757,1.757,0,0,0-1.471.713c-1.579,1.925-3.206,3.81-4.756,5.757a2.431,2.431,0,0,1-2.184,1.035c-1.707-.069-3.419,0-5.128-.029a1.652,1.652,0,0,0-1.712,1.057c-.49,1.059-1.043,2.089-1.554,3.139a1.3,1.3,0,0,1-1.293.8c-1.218-.008-2.435-.012-3.653,0-.781.009-.822.074-.82,1.033s.047,1.013.84,1.019c1.58.011,3.161-.014,4.741.01a1.558,1.558,0,0,0,1.581-1.011c.392-.847.893-1.649,1.23-2.516a2.082,2.082,0,0,1,2.372-1.493c1.47.1,2.953-.008,4.428.036a2.326,2.326,0,0,0,2.07-.953c1.488-1.864,3.064-3.658,4.552-5.523a2.263,2.263,0,0,1,2.183-1.028c.408.051.828,0,1.242.016a1.015,1.015,0,0,1,.716.192.207.207,0,0,1,.138-.1c.788-.046.813-.552.888-1.2.1-.875-.538-.911-1.006-1.171a1.246,1.246,0,0,1-.918.211" transform="translate(-162.035 -76.068)"/><path d="M228.922,98.215c-.414-.021-.834.035-1.242-.016a2.263,2.263,0,0,0-2.183,1.028c-1.488,1.865-3.064,3.659-4.552,5.523a2.326,2.326,0,0,1-2.07.953c-1.475-.044-2.958.066-4.428-.036a2.082,2.082,0,0,0-2.372,1.493c-.337.867-.837,1.669-1.23,2.516a1.558,1.558,0,0,1-1.581,1.011c-1.58-.024-3.16,0-4.741-.01-.793-.006-.838-.075-.84-1.018,0-.959.039-1.023.82-1.033,1.218-.015,2.435-.011,3.653,0a1.3,1.3,0,0,0,1.292-.8c.511-1.05,1.064-2.08,1.554-3.139a1.652,1.652,0,0,1,1.712-1.057c1.709.033,3.421-.04,5.128.029a2.432,2.432,0,0,0,2.184-1.035c1.55-1.947,3.178-3.832,4.756-5.757a1.757,1.757,0,0,1,1.471-.713q1.243.016,2.487,0a1.245,1.245,0,0,0,.918-.211l-.051-.029c-1.114.009-2.228.047-3.34.015a1.846,1.846,0,0,0-1.6.75c-1.725,2.107-3.482,4.187-5.208,6.292a1.12,1.12,0,0,1-.979.463c-1.995-.022-3.99.008-5.985-.019a1.54,1.54,0,0,0-1.582.991c-.533,1.151-1.15,2.263-1.677,3.417a.9.9,0,0,1-1.009.6c-.957-.043-1.917-.012-2.875-.012-1.942,0-1.926,0-1.894,1.945.007.443.131.564.566.559,1.787-.023,3.576-.028,5.363,0a1.541,1.541,0,0,0,1.58-1c.512-1.1,1.112-2.168,1.61-3.278a1.056,1.056,0,0,1,1.159-.742c1.812.051,3.627-.007,5.44.03a1.994,1.994,0,0,0,1.736-.806c1.7-2.092,3.449-4.147,5.16-6.232a1.082,1.082,0,0,1,.977-.469c.853.041,1.708.027,2.563.035h0l.03-.043a1.016,1.016,0,0,0-.716-.192" transform="translate(-161.133 -75.958)"/><path d="M330.4,97.12c-.076.648-.1,1.155-.888,1.2a.207.207,0,0,0-.138.1.521.521,0,0,1,.038.039c1.176-.062,1.178-.084,1.179-1.192,0-1.256,0-1.284-1.167-1.346-.009.01-.019.016-.029.025.467.26,1.108.3,1.006,1.171" transform="translate(-260.874 -75.974)"/><path d="M329.282,95.933c.009-.009.019-.015.029-.025l-.08,0,.051.029" transform="translate(-260.757 -75.958)"/><path d="M329.262,107.94l-.03.043.068,0c-.012-.015-.025-.027-.038-.04" transform="translate(-260.758 -85.491)"/><path d="M210.813,191.013c-.008-2.7,0-5.393-.006-8.09,0-1.5-.268-1.758-1.773-1.762q-1.708-.006-3.416,0c-1.536,0-1.786.257-1.789,1.826-.005,2.671,0,5.341-.005,8.012a1.787,1.787,0,0,1-.222,1.2l-.006,0a2.232,2.232,0,0,0,2.331.979,21.363,21.363,0,0,1,2.784,0,2.232,2.232,0,0,0,2.332-.981,1.71,1.71,0,0,1-.23-1.186m-2.719-.108c-2.022.1-2.024.107-2.02-1.887,0-1.45.015-2.9.022-4.35-.06-1.258-.06-1.258,1.144-1.258h.154c1.2,0,1.2,0,1.144,1.258.008,1.916.007,3.832.03,5.748,0,.367-.1.471-.476.489" transform="translate(-161.251 -143.48)"/><path d="M203.452,191.271l.006,0a1.787,1.787,0,0,0,.223-1.2c.007-2.67,0-5.341,0-8.012,0-1.569.253-1.821,1.789-1.826q1.708-.006,3.416,0c1.5,0,1.769.262,1.773,1.762.007,2.7,0,5.393.006,8.09a1.709,1.709,0,0,0,.23,1.186c.012-.02.025-.038.036-.059q-.013-4.821-.026-9.641c0-1.157-.431-1.579-1.6-1.582q-2.1-.005-4.191,0c-1.275,0-1.674.4-1.677,1.661q-.013,4.782-.026,9.563h0c.012.021.025.04.037.061" transform="translate(-161.109 -142.552)"/><path d="M210.978,234.244a2.232,2.232,0,0,1-2.333.981,21.29,21.29,0,0,0-2.783,0,2.233,2.233,0,0,1-2.332-.979l-.017.011c.26.921.588,1.173,1.537,1.176q2.2.008,4.4,0c.951,0,1.275-.253,1.539-1.18l-.013,0,0-.005" transform="translate(-161.187 -185.526)"/><path d="M239.4,234.019l0,.005.013,0c.006-.023.013-.044.02-.068-.012.021-.024.039-.036.059" transform="translate(-189.612 -185.301)"/><path d="M203.416,233.96h0c.007.025.014.047.02.071l.017-.011c-.012-.021-.025-.039-.037-.061" transform="translate(-161.109 -185.301)"/><path d="M88.67,179.915c-7.02.025-14.041.016-21.062.016-1.816,0-1.788,0-1.82,1.789-.011.59.15.724.726.72,3.678-.028,7.357-.014,11.036-.014H87.731c1.731,0,1.7,0,1.744-1.711.018-.655-.163-.8-.805-.8" transform="translate(-52.105 -142.496)"/><path d="M43.176,203.932c-3.108.02-6.216.01-9.324.01H25.692c-1.806,0-1.775,0-1.81,1.8-.012.609.181.71.737.708,5.776-.021,11.552-.013,17.328-.013,1.9,0,1.879,0,1.886-1.877,0-.532-.172-.631-.657-.627" transform="translate(-18.915 -161.518)"/><path d="M112.944,229.6a.555.555,0,0,0-.6-.491c-.259-.015-.518-.015-.777-.015-4.714,0-9.428.018-14.141-.017-.842-.006-1.477.09-1.631,1.052l-.047.016c.277.921.976.974,1.823.968q6.9-.054,13.8,0c.841.007,1.535-.047,1.816-.948l0,0a.971.971,0,0,1-.243-.562" transform="translate(-75.837 -181.429)"/><path d="M95.736,229.252c.155-.962.789-1.058,1.631-1.052,4.713.036,9.428.017,14.141.017.259,0,.518,0,.777.015a.555.555,0,0,1,.6.491.974.974,0,0,0,.243.562l0,0c.007-.024.016-.046.023-.071-.065-1.246-.065-1.246-1.358-1.246H97.029c-1.292,0-1.292,0-1.357,1.246,0,.018.011.034.016.052l.047-.016" transform="translate(-75.774 -180.557)"/><path d="M111.325,235.176q-6.9-.054-13.8,0c-.847.007-1.545-.047-1.822-.968l-.014,0c.063,1.19.083,1.193,1.355,1.193h14.764c1.262,0,1.292,0,1.354-1.167l-.019-.011c-.281.9-.976.955-1.816.948" transform="translate(-75.785 -185.497)"/><path d="M95.671,233.96c0,.02,0,.037,0,.056l.014,0c-.005-.018-.012-.033-.017-.052" transform="translate(-75.773 -185.301)"/><path d="M179.611,234.031l.018.011c0-.028,0-.053,0-.082-.007.025-.015.047-.023.071" transform="translate(-142.255 -185.301)"/><path d="M108.352,158.456c2.278-.024,4.557-.011,6.835-.011h5.67c1.807,0,1.777,0,1.811-1.8.012-.6-.172-.715-.734-.711-4.117.025-8.233.013-12.35.013-1.9,0-1.88,0-1.886,1.875,0,.527.164.636.654.631" transform="translate(-85.299 -123.506)"/><path d="M34.661,229.05q-4.472.068-8.947,0c-.849-.013-1.473.1-1.624,1.06l-.01,0a.555.555,0,0,1,.18.348c.068.495.388.614.826.614q1.163,0,2.326,0c2.4,0,4.808-.025,7.211.014.843.014,1.6.01,1.886-.948h0c-.211-1.053-.948-1.1-1.845-1.09" transform="translate(-19.072 -181.411)"/><path d="M23.9,229.256c.152-.958.776-1.073,1.624-1.06q4.472.07,8.947,0c.9-.014,1.634.037,1.845,1.09h0c.007-.024.016-.046.022-.071-.065-1.246-.065-1.246-1.356-1.246H25.2c-1.291,0-1.291,0-1.357,1.246a.494.494,0,0,1,.05.043l.01,0" transform="translate(-18.883 -180.557)"/><path d="M34.446,235.141c-2.4-.038-4.807-.013-7.211-.014-.775,0-1.551,0-2.326,0-.437,0-.758-.119-.826-.614a.555.555,0,0,0-.18-.348l-.047.014c.063,1.189.083,1.192,1.354,1.192H35c1.264,0,1.291,0,1.353-1.173l-.018-.005c-.287.958-1.043.962-1.886.948" transform="translate(-18.895 -185.463)"/><path d="M23.842,233.96c0,.02,0,.037,0,.057l.046-.015a.469.469,0,0,0-.049-.043" transform="translate(-18.883 -185.301)"/><path d="M83.842,234.031l.018.005c0-.026,0-.049,0-.076-.007.025-.015.047-.022.071" transform="translate(-66.404 -185.301)"/><path d="M141.36,131.95a.4.4,0,0,1-.209.166,7.049,7.049,0,0,1-1.776.085c-1.887.011-3.774-.009-5.66.011-.769.008-.841.12-.84,1.036,0,.866.06.958.818.962q3.877.02,7.754,0c.8,0,.876-.1.9-.9a4.714,4.714,0,0,1,.08-1.157.635.635,0,0,1,.067-.131.9.9,0,0,1-1.136-.072" transform="translate(-105.239 -104.507)"/><path d="M141.458,132.1a4.694,4.694,0,0,0-.08,1.157c-.027.8-.1.9-.9.9q-3.877.02-7.754,0c-.758,0-.817-.1-.818-.962,0-.916.071-1.027.84-1.036,1.887-.02,3.774,0,5.661-.011a7.048,7.048,0,0,0,1.776-.085.4.4,0,0,0,.209-.166l-.018-.013q-3.453.013-6.906.025c-1.831,0-1.811,0-1.816,1.864,0,.505.13.65.64.643,2.3-.028,4.605,0,6.908-.019.792-.006,1.879.351,2.293-.151.4-.48.107-1.529.119-2.328-.028.018-.056.033-.083.049a.624.624,0,0,0-.066.131" transform="translate(-104.268 -104.456)"/><path d="M174.811,131.972a.489.489,0,0,1,.043-.05l-1.176-.034a.093.093,0,0,1,0,.013.9.9,0,0,0,1.136.072" transform="translate(-137.554 -104.458)"/><path d="M173.611,131.886h-.021l.018.014a.1.1,0,0,0,0-.013" transform="translate(-137.487 -104.455)"/><path d="M179.178,132.052a.471.471,0,0,0-.043.05c.028-.016.055-.031.083-.049h-.04" transform="translate(-141.878 -104.588)"/><path d="M141.063,203.935c-1.448.025-2.9.01-4.347.009h-3.26c-1.827,0-1.806,0-1.812,1.869,0,.515.146.642.646.637,2.483-.025,4.967-.011,7.451-.011,1.936,0,1.92,0,1.887-1.947-.007-.443-.133-.565-.567-.557" transform="translate(-104.265 -161.52)"/><path d="M24.447,182.466c1.266-.026,2.533-.009,3.8-.009,1.987,0,1.975,0,1.881-2.026-.017-.374-.122-.485-.488-.476-.878.023-1.757.007-2.636.007h-1.24c-1.931,0-1.916,0-1.882,1.948.007.443.134.565.567.556" transform="translate(-18.907 -142.527)"/><path d="M109.052,134.507c1.2,0,1.2,0,1.2-1.21,0-1.285,0-1.285-1.285-1.285-1.2,0-1.2,0-1.2,1.21,0,1.285,0,1.285,1.285,1.285" transform="translate(-85.354 -104.556)"/><path d="M311.31,162.009h0q-.013,5.917-.025,11.833c0,2.008,0,2,2.022,1.9.378-.019.475-.132.474-.495q-.028-6.617-.032-13.235H311.31" transform="translate(-246.544 -128.314)" fill="#fe7956"/><path d="M313.759,157.251c.066-1.249.066-1.249-1.142-1.249h-.155c-1.208,0-1.208,0-1.142,1.249a2.774,2.774,0,0,1,2.438,0" transform="translate(-246.555 -123.557)" fill="#fe5023"/><path d="M313.845,160.934a2.774,2.774,0,0,0-2.438,0h2.438" transform="translate(-246.64 -127.24)" fill="#fe5023"/><path d="M40.624,118.907a4.828,4.828,0,0,0,5.031-3.73c-1.48,0-2.954,0-4.429,0-1.107,0-1.543-.444-1.546-1.559,0-1.477,0-2.955,0-4.436a4.825,4.825,0,0,0-3.725,5.051,5.019,5.019,0,0,0,4.67,4.674" transform="translate(-28.469 -86.474)" fill="#fedd55"/><path d="M263.424,174.006h0q-.013,4.672-.025,9.345c0,1.991,0,1.978,2.022,1.89.375-.016.476-.12.474-.488-.021-3.582-.024-7.165-.033-10.747h-2.438" transform="translate(-208.617 -137.816)" fill="#fedd55"/><path d="M265.874,169.247c.065-1.25.065-1.25-1.142-1.25h-.155c-1.207,0-1.207,0-1.142,1.25a2.772,2.772,0,0,1,2.438,0" transform="translate(-208.629 -133.057)" fill="#eabe00"/><path d="M265.959,172.93a2.772,2.772,0,0,0-2.438,0h2.438" transform="translate(-208.714 -136.74)" fill="#eabe00"/><path d="M215.536,198.034c-.008,1.45-.02,2.9-.022,4.35,0,1.994,0,1.982,2.02,1.887.373-.018.48-.122.476-.489-.023-1.916-.023-3.832-.03-5.748h-2.443" transform="translate(-170.691 -156.847)" fill="#00d6de"/><path d="M217.99,193.245c.06-1.258.06-1.258-1.145-1.258h-.154c-1.2,0-1.2,0-1.144,1.258a2.7,2.7,0,0,1,2.443,0" transform="translate(-170.702 -152.057)" fill="#009597"/><path d="M215.623,196.921h2.443a2.7,2.7,0,0,0-2.443,0" transform="translate(-170.778 -155.733)" fill="#009597"/></g></g></g></svg>