<svg xmlns="http://www.w3.org/2000/svg" xmlns:xlink="http://www.w3.org/1999/xlink" width="560.348" height="74.859" viewBox="0 0 560.348 74.859">
  <defs>
    <clipPath id="clip-path">
      <rect id="Rectángulo_290929" data-name="Rectángulo 290929" width="86.256" height="74.859" fill="none"/>
    </clipPath>
  </defs>
  <g id="Grupo_874043" data-name="Grupo 874043" transform="translate(-180 -6355.107)">
    <path id="Trazado_605416" data-name="Trazado 605416" d="M0,0H553.592l-4.418,52.528L0,52Z" transform="translate(180 6366.581)" fill="#fff0a6"/>
    <path id="Trazado_609232" data-name="Trazado 609232" d="M7.251,18.746,10.366,7.359h4.211L9.313,23H5.188L-.032,7.359H4.146Zm13.922,4.469a5.975,5.975,0,0,1-4.329-1.6,5.509,5.509,0,0,1-1.654-4.152v-.3a7.138,7.138,0,0,1,.661-3.147,4.834,4.834,0,0,1,1.928-2.111,5.821,5.821,0,0,1,3.008-.747,5.031,5.031,0,0,1,3.867,1.52,5.973,5.973,0,0,1,1.418,4.238v1.407h-7.2a2.609,2.609,0,0,0,.849,1.536,2.525,2.525,0,0,0,1.7.559,3.254,3.254,0,0,0,2.686-1.2l1.654,1.955a4.624,4.624,0,0,1-1.917,1.488A6.48,6.48,0,0,1,21.173,23.215Zm-.408-9.26q-1.59,0-1.891,2.105h3.652v-.279a1.793,1.793,0,0,0-.44-1.348A1.753,1.753,0,0,0,20.765,13.955Zm10.087-2.578.118,1.364a3.942,3.942,0,0,1,3.319-1.579A3.316,3.316,0,0,1,37,12.247a5.165,5.165,0,0,1,.929,3.266V23H34.3V15.663a1.961,1.961,0,0,0-.354-1.294,1.64,1.64,0,0,0-1.289-.414,1.726,1.726,0,0,0-1.579.838V23h-3.62V11.377Zm13.3-2.89v2.89h1.912v2.514H44.15v5.317a1.358,1.358,0,0,0,.236.913,1.268,1.268,0,0,0,.935.258,5.311,5.311,0,0,0,.9-.064V22.9a6.681,6.681,0,0,1-2.041.312,3.792,3.792,0,0,1-2.761-.881,3.61,3.61,0,0,1-.892-2.675V13.891H39.048V11.377H40.53V8.487ZM54.033,23a4.088,4.088,0,0,1-.344-1.042A3.366,3.366,0,0,1,50.9,23.215a4.124,4.124,0,0,1-2.793-.994,3.163,3.163,0,0,1-1.149-2.5,3.251,3.251,0,0,1,1.4-2.857,7.114,7.114,0,0,1,4.061-.967h1.117v-.615q0-1.608-1.386-1.608a1.133,1.133,0,0,0-1.289,1.274h-3.62a3.245,3.245,0,0,1,1.434-2.736,6.027,6.027,0,0,1,3.658-1.051,5.284,5.284,0,0,1,3.513,1.085,3.772,3.772,0,0,1,1.321,2.976v5.146a5.269,5.269,0,0,0,.494,2.449V23Zm-2.267-2.363a2.019,2.019,0,0,0,1.123-.29,1.818,1.818,0,0,0,.639-.655V17.833H52.476q-1.891,0-1.891,1.7a1.036,1.036,0,0,0,.333.8A1.205,1.205,0,0,0,51.767,20.637Zm11.29-9.26V23.4a4.219,4.219,0,0,1-1.182,3.18,4.539,4.539,0,0,1-3.266,1.117,7.71,7.71,0,0,1-1.708-.183V24.772a6.926,6.926,0,0,0,1.021.1,1.325,1.325,0,0,0,1.5-1.493v-12Zm-3.9-3a1.616,1.616,0,0,1,.559-1.268,2.375,2.375,0,0,1,2.9,0,1.616,1.616,0,0,1,.559,1.268,1.616,1.616,0,0,1-.559,1.268,2.375,2.375,0,0,1-2.9,0A1.616,1.616,0,0,1,59.157,8.38ZM71.65,23a4.087,4.087,0,0,1-.344-1.042,3.366,3.366,0,0,1-2.793,1.257,4.124,4.124,0,0,1-2.793-.994,3.163,3.163,0,0,1-1.149-2.5,3.251,3.251,0,0,1,1.4-2.857,7.114,7.114,0,0,1,4.061-.967h1.117v-.615q0-1.608-1.386-1.608a1.133,1.133,0,0,0-1.289,1.274h-3.62a3.245,3.245,0,0,1,1.434-2.736,6.027,6.027,0,0,1,3.658-1.051,5.284,5.284,0,0,1,3.513,1.085,3.772,3.772,0,0,1,1.321,2.976v5.146a5.269,5.269,0,0,0,.494,2.449V23Zm-2.267-2.363a2.019,2.019,0,0,0,1.123-.29,1.818,1.818,0,0,0,.639-.655V17.833H70.093q-1.891,0-1.891,1.7a1.036,1.036,0,0,0,.333.8A1.205,1.205,0,0,0,69.384,20.637Zm13.481-.9a.836.836,0,0,0-.483-.741,7.353,7.353,0,0,0-1.837-.58,8.376,8.376,0,0,1-2.234-.79,3.743,3.743,0,0,1-1.343-1.187,2.834,2.834,0,0,1-.462-1.6A3.212,3.212,0,0,1,77.827,12.2a5.443,5.443,0,0,1,3.459-1.037,6.03,6.03,0,0,1,3.7,1.042,3.258,3.258,0,0,1,1.4,2.739H82.747q0-1.4-1.472-1.4a1.459,1.459,0,0,0-.956.317.981.981,0,0,0-.387.79.9.9,0,0,0,.473.784,4.466,4.466,0,0,0,1.509.494,13.043,13.043,0,0,1,1.821.462q2.621.9,2.621,3.233a3.044,3.044,0,0,1-1.413,2.589,6.2,6.2,0,0,1-3.658,1,6.322,6.322,0,0,1-2.664-.537A4.455,4.455,0,0,1,76.8,21.217a3.308,3.308,0,0,1-.655-1.944h3.384a1.4,1.4,0,0,0,.537,1.176,2.209,2.209,0,0,0,1.321.371,1.738,1.738,0,0,0,1.112-.3A.962.962,0,0,0,82.865,19.734ZM93.07,17.1a7.1,7.1,0,0,1,1.192-4.351,3.925,3.925,0,0,1,3.33-1.59,3.338,3.338,0,0,1,2.621,1.225V6.5h3.631V23H100.59l-.183-1.246a3.428,3.428,0,0,1-2.836,1.461,3.918,3.918,0,0,1-3.287-1.59A7.325,7.325,0,0,1,93.07,17.1Zm3.62.226q0,3.094,1.8,3.094a1.782,1.782,0,0,0,1.719-1.01V14.986a1.734,1.734,0,0,0-1.7-1.031q-1.676,0-1.815,2.707Zm14.835,5.887a5.975,5.975,0,0,1-4.329-1.6,5.509,5.509,0,0,1-1.654-4.152v-.3a7.138,7.138,0,0,1,.661-3.147,4.834,4.834,0,0,1,1.928-2.111,5.821,5.821,0,0,1,3.008-.747,5.031,5.031,0,0,1,3.867,1.52,5.973,5.973,0,0,1,1.418,4.238v1.407h-7.2a2.609,2.609,0,0,0,.849,1.536,2.525,2.525,0,0,0,1.7.559,3.254,3.254,0,0,0,2.686-1.2l1.654,1.955a4.624,4.624,0,0,1-1.917,1.488A6.48,6.48,0,0,1,111.525,23.215Zm-.408-9.26q-1.59,0-1.891,2.105h3.652v-.279a1.793,1.793,0,0,0-.44-1.348A1.753,1.753,0,0,0,111.117,13.955ZM127.177,23h-3.631V6.5h3.631Zm8.776,0a4.088,4.088,0,0,1-.344-1.042,3.366,3.366,0,0,1-2.793,1.257,4.124,4.124,0,0,1-2.793-.994,3.163,3.163,0,0,1-1.149-2.5,3.251,3.251,0,0,1,1.4-2.857,7.114,7.114,0,0,1,4.061-.967h1.117v-.615q0-1.608-1.386-1.608a1.133,1.133,0,0,0-1.289,1.274h-3.62a3.245,3.245,0,0,1,1.434-2.736,6.027,6.027,0,0,1,3.658-1.051,5.284,5.284,0,0,1,3.513,1.085,3.772,3.772,0,0,1,1.321,2.976v5.146a5.269,5.269,0,0,0,.494,2.449V23Zm-2.267-2.363a2.019,2.019,0,0,0,1.123-.29,1.818,1.818,0,0,0,.639-.655V17.833H134.4q-1.891,0-1.891,1.7a1.036,1.036,0,0,0,.333.8A1.205,1.205,0,0,0,133.687,20.637Zm19.905-5.983-1.192-.086a2.142,2.142,0,0,0-2.191,1.074V23h-3.62V11.377h3.395l.118,1.493a2.8,2.8,0,0,1,2.546-1.708,3.53,3.53,0,0,1,1.01.129Zm6.929,8.562a5.975,5.975,0,0,1-4.329-1.6,5.509,5.509,0,0,1-1.654-4.152v-.3a7.138,7.138,0,0,1,.661-3.147,4.834,4.834,0,0,1,1.928-2.111,5.821,5.821,0,0,1,3.008-.747A5.031,5.031,0,0,1,164,12.682a5.973,5.973,0,0,1,1.418,4.238v1.407h-7.2a2.609,2.609,0,0,0,.849,1.536,2.525,2.525,0,0,0,1.7.559,3.254,3.254,0,0,0,2.686-1.2l1.654,1.955a4.624,4.624,0,0,1-1.917,1.488A6.48,6.48,0,0,1,160.521,23.215Zm-.408-9.26q-1.59,0-1.891,2.105h3.652v-.279a1.793,1.793,0,0,0-.44-1.348A1.753,1.753,0,0,0,160.112,13.955ZM173.422,23a4.088,4.088,0,0,1-.344-1.042,3.366,3.366,0,0,1-2.793,1.257,4.124,4.124,0,0,1-2.793-.994,3.163,3.163,0,0,1-1.149-2.5,3.251,3.251,0,0,1,1.4-2.857A7.114,7.114,0,0,1,171.8,15.9h1.117v-.615q0-1.608-1.386-1.608a1.133,1.133,0,0,0-1.289,1.274h-3.62a3.245,3.245,0,0,1,1.434-2.736,6.027,6.027,0,0,1,3.658-1.051,5.284,5.284,0,0,1,3.513,1.085,3.772,3.772,0,0,1,1.321,2.976v5.146a5.269,5.269,0,0,0,.494,2.449V23Zm-2.267-2.363a2.019,2.019,0,0,0,1.123-.29,1.818,1.818,0,0,0,.639-.655V17.833h-1.053q-1.891,0-1.891,1.7a1.036,1.036,0,0,0,.333.8A1.205,1.205,0,0,0,171.155,20.637ZM182.37,23h-3.631V6.5h3.631Zm6.048,0h-3.631V11.377h3.631ZM184.572,8.38a1.616,1.616,0,0,1,.559-1.268,2.375,2.375,0,0,1,2.9,0,1.616,1.616,0,0,1,.559,1.268,1.616,1.616,0,0,1-.559,1.268,2.375,2.375,0,0,1-2.9,0A1.616,1.616,0,0,1,184.572,8.38Zm10.345,11.827h5.3V23h-9.872V20.98L195.5,14.17h-4.931V11.377h9.528v1.955ZM208.517,23a4.088,4.088,0,0,1-.344-1.042,3.366,3.366,0,0,1-2.793,1.257,4.124,4.124,0,0,1-2.793-.994,3.163,3.163,0,0,1-1.149-2.5,3.251,3.251,0,0,1,1.4-2.857,7.114,7.114,0,0,1,4.061-.967h1.117v-.615q0-1.608-1.386-1.608a1.133,1.133,0,0,0-1.289,1.274h-3.62a3.245,3.245,0,0,1,1.434-2.736,6.027,6.027,0,0,1,3.658-1.051,5.284,5.284,0,0,1,3.513,1.085,3.772,3.772,0,0,1,1.321,2.976v5.146a5.269,5.269,0,0,0,.494,2.449V23Zm-2.267-2.363a2.019,2.019,0,0,0,1.123-.29,1.818,1.818,0,0,0,.639-.655V17.833h-1.053q-1.891,0-1.891,1.7a1.036,1.036,0,0,0,.333.8A1.205,1.205,0,0,0,206.25,20.637Zm12.311-.215a1.61,1.61,0,0,0,1.182-.414,1.517,1.517,0,0,0,.408-1.155h3.395a4.018,4.018,0,0,1-1.37,3.137,5.1,5.1,0,0,1-3.529,1.225,5.158,5.158,0,0,1-4-1.59,6.264,6.264,0,0,1-1.461-4.4v-.15a7.08,7.08,0,0,1,.65-3.11,4.732,4.732,0,0,1,1.875-2.073,5.589,5.589,0,0,1,2.9-.725,5.03,5.03,0,0,1,3.6,1.257,4.458,4.458,0,0,1,1.332,3.405H220.15a1.987,1.987,0,0,0-.44-1.386,1.52,1.52,0,0,0-1.182-.483q-1.407,0-1.644,1.794a12.659,12.659,0,0,0-.075,1.568,4.972,4.972,0,0,0,.419,2.428A1.45,1.45,0,0,0,218.561,20.422ZM228.895,23h-3.631V11.377h3.631ZM225.049,8.38a1.616,1.616,0,0,1,.559-1.268,2.375,2.375,0,0,1,2.9,0,1.616,1.616,0,0,1,.559,1.268,1.616,1.616,0,0,1-.559,1.268,2.375,2.375,0,0,1-2.9,0A1.616,1.616,0,0,1,225.049,8.38Zm5.618,8.7a6.86,6.86,0,0,1,.677-3.1,4.84,4.84,0,0,1,1.944-2.089,5.856,5.856,0,0,1,2.976-.73,5.344,5.344,0,0,1,4.114,1.617,6.2,6.2,0,0,1,1.5,4.4v.129a6.019,6.019,0,0,1-1.509,4.313,5.359,5.359,0,0,1-4.087,1.6,5.42,5.42,0,0,1-3.985-1.488,5.819,5.819,0,0,1-1.622-4.034Zm3.62.226a4.325,4.325,0,0,0,.5,2.363,1.682,1.682,0,0,0,1.493.752q1.934,0,1.977-2.976v-.365q0-3.126-2-3.126-1.815,0-1.966,2.7ZM236.758,6.5h3.824L237.6,9.873l-2.954-.005ZM246.8,11.377l.118,1.364a3.942,3.942,0,0,1,3.319-1.579,3.316,3.316,0,0,1,2.712,1.085,5.165,5.165,0,0,1,.929,3.266V23H250.25V15.663a1.961,1.961,0,0,0-.354-1.294,1.64,1.64,0,0,0-1.289-.414,1.726,1.726,0,0,0-1.579.838V23h-3.62V11.377Zm14.1,5.726a7.1,7.1,0,0,1,1.192-4.351,3.925,3.925,0,0,1,3.33-1.59,3.338,3.338,0,0,1,2.621,1.225V6.5h3.631V23h-3.255l-.183-1.246a3.428,3.428,0,0,1-2.836,1.461,3.918,3.918,0,0,1-3.287-1.59A7.325,7.325,0,0,1,260.906,17.1Zm3.62.226q0,3.094,1.8,3.094a1.782,1.782,0,0,0,1.719-1.01V14.986a1.734,1.734,0,0,0-1.7-1.031q-1.676,0-1.815,2.707Zm14.835,5.887a5.975,5.975,0,0,1-4.329-1.6,5.509,5.509,0,0,1-1.654-4.152v-.3a7.138,7.138,0,0,1,.661-3.147,4.834,4.834,0,0,1,1.928-2.111,5.821,5.821,0,0,1,3.008-.747,5.031,5.031,0,0,1,3.867,1.52,5.973,5.973,0,0,1,1.418,4.238v1.407h-7.2a2.609,2.609,0,0,0,.849,1.536,2.525,2.525,0,0,0,1.7.559,3.254,3.254,0,0,0,2.686-1.2l1.654,1.955a4.624,4.624,0,0,1-1.917,1.488A6.48,6.48,0,0,1,279.361,23.215Zm-.408-9.26q-1.59,0-1.891,2.105h3.652v-.279a1.793,1.793,0,0,0-.44-1.348A1.753,1.753,0,0,0,278.953,13.955Zm19.271.7-1.192-.086a2.142,2.142,0,0,0-2.191,1.074V23h-3.62V11.377h3.395l.118,1.493a2.8,2.8,0,0,1,2.546-1.708,3.53,3.53,0,0,1,1.01.129Zm8.229,7.09a3.732,3.732,0,0,1-3.1,1.472,3.66,3.66,0,0,1-2.9-1.112,4.676,4.676,0,0,1-.983-3.2v-7.53h3.62v7.552a1.3,1.3,0,0,0,1.45,1.493,1.892,1.892,0,0,0,1.772-.892V11.377h3.642V23h-3.395Zm9.7-13.256v2.89h1.912v2.514h-1.912v5.317a1.358,1.358,0,0,0,.236.913,1.268,1.268,0,0,0,.935.258,5.311,5.311,0,0,0,.9-.064V22.9a6.681,6.681,0,0,1-2.041.312,3.792,3.792,0,0,1-2.761-.881,3.61,3.61,0,0,1-.892-2.675V13.891h-1.482V11.377h1.482V8.487ZM326.036,23a4.087,4.087,0,0,1-.344-1.042,3.366,3.366,0,0,1-2.793,1.257,4.124,4.124,0,0,1-2.793-.994,3.163,3.163,0,0,1-1.149-2.5,3.251,3.251,0,0,1,1.4-2.857,7.114,7.114,0,0,1,4.061-.967h1.117v-.615q0-1.608-1.386-1.608a1.133,1.133,0,0,0-1.289,1.274h-3.62a3.245,3.245,0,0,1,1.434-2.736,6.027,6.027,0,0,1,3.658-1.051,5.284,5.284,0,0,1,3.513,1.085,3.772,3.772,0,0,1,1.321,2.976v5.146a5.269,5.269,0,0,0,.494,2.449V23Zm-2.267-2.363a2.019,2.019,0,0,0,1.123-.29,1.818,1.818,0,0,0,.639-.655V17.833h-1.053q-1.891,0-1.891,1.7a1.036,1.036,0,0,0,.333.8A1.205,1.205,0,0,0,323.77,20.637ZM336.188,17.1a7.1,7.1,0,0,1,1.192-4.351,3.925,3.925,0,0,1,3.33-1.59,3.338,3.338,0,0,1,2.621,1.225V6.5h3.631V23h-3.255l-.183-1.246a3.428,3.428,0,0,1-2.836,1.461,3.918,3.918,0,0,1-3.287-1.59A7.325,7.325,0,0,1,336.188,17.1Zm3.62.226q0,3.094,1.8,3.094a1.782,1.782,0,0,0,1.719-1.01V14.986a1.734,1.734,0,0,0-1.7-1.031q-1.676,0-1.815,2.707Zm14.835,5.887a5.975,5.975,0,0,1-4.329-1.6,5.509,5.509,0,0,1-1.654-4.152v-.3a7.138,7.138,0,0,1,.661-3.147,4.834,4.834,0,0,1,1.928-2.111,5.821,5.821,0,0,1,3.008-.747,5.031,5.031,0,0,1,3.867,1.52,5.973,5.973,0,0,1,1.418,4.238v1.407h-7.2a2.609,2.609,0,0,0,.849,1.536,2.525,2.525,0,0,0,1.7.559,3.254,3.254,0,0,0,2.686-1.2l1.654,1.955a4.624,4.624,0,0,1-1.917,1.488A6.48,6.48,0,0,1,354.643,23.215Zm-.408-9.26q-1.59,0-1.891,2.105H356v-.279a1.793,1.793,0,0,0-.44-1.348A1.753,1.753,0,0,0,354.234,13.955Zm16.876,4.737,1.837-7.315h3.813L372.969,23h-3.7l-3.792-11.623h3.824Zm12.354,4.522a5.975,5.975,0,0,1-4.329-1.6,5.509,5.509,0,0,1-1.654-4.152v-.3a7.138,7.138,0,0,1,.661-3.147,4.834,4.834,0,0,1,1.928-2.111,5.821,5.821,0,0,1,3.008-.747,5.031,5.031,0,0,1,3.867,1.52,5.973,5.973,0,0,1,1.418,4.238v1.407h-7.2a2.609,2.609,0,0,0,.849,1.536,2.525,2.525,0,0,0,1.7.559,3.254,3.254,0,0,0,2.686-1.2l1.654,1.955a4.624,4.624,0,0,1-1.917,1.488A6.48,6.48,0,0,1,383.464,23.215Zm-.408-9.26q-1.59,0-1.891,2.105h3.652v-.279a1.793,1.793,0,0,0-.44-1.348A1.753,1.753,0,0,0,383.056,13.955Zm10.087-2.578.118,1.364a3.942,3.942,0,0,1,3.319-1.579,3.316,3.316,0,0,1,2.712,1.085,5.165,5.165,0,0,1,.929,3.266V23h-3.631V15.663a1.961,1.961,0,0,0-.354-1.294,1.64,1.64,0,0,0-1.289-.414,1.726,1.726,0,0,0-1.579.838V23h-3.62V11.377Zm13.3-2.89v2.89h1.912v2.514h-1.912v5.317a1.358,1.358,0,0,0,.236.913,1.268,1.268,0,0,0,.935.258,5.311,5.311,0,0,0,.9-.064V22.9a6.681,6.681,0,0,1-2.041.312,3.792,3.792,0,0,1-2.761-.881,3.61,3.61,0,0,1-.892-2.675V13.891h-1.482V11.377h1.482V8.487ZM416.324,23a4.087,4.087,0,0,1-.344-1.042,3.366,3.366,0,0,1-2.793,1.257,4.124,4.124,0,0,1-2.793-.994,3.163,3.163,0,0,1-1.149-2.5,3.251,3.251,0,0,1,1.4-2.857A7.114,7.114,0,0,1,414.7,15.9h1.117v-.615q0-1.608-1.386-1.608a1.133,1.133,0,0,0-1.289,1.274h-3.62a3.245,3.245,0,0,1,1.434-2.736,6.027,6.027,0,0,1,3.658-1.051,5.284,5.284,0,0,1,3.513,1.085,3.772,3.772,0,0,1,1.321,2.976v5.146a5.269,5.269,0,0,0,.494,2.449V23Zm-2.267-2.363a2.019,2.019,0,0,0,1.123-.29,1.818,1.818,0,0,0,.639-.655V17.833h-1.053q-1.891,0-1.891,1.7a1.036,1.036,0,0,0,.333.8A1.205,1.205,0,0,0,414.058,20.637Zm13.481-.9a.836.836,0,0,0-.483-.741,7.353,7.353,0,0,0-1.837-.58,8.376,8.376,0,0,1-2.234-.79,3.743,3.743,0,0,1-1.343-1.187,2.834,2.834,0,0,1-.462-1.6A3.212,3.212,0,0,1,422.5,12.2a5.443,5.443,0,0,1,3.459-1.037,6.03,6.03,0,0,1,3.7,1.042,3.258,3.258,0,0,1,1.4,2.739h-3.631q0-1.4-1.472-1.4a1.459,1.459,0,0,0-.956.317.981.981,0,0,0-.387.79.9.9,0,0,0,.473.784,4.466,4.466,0,0,0,1.509.494,13.043,13.043,0,0,1,1.821.462q2.621.9,2.621,3.233a3.044,3.044,0,0,1-1.413,2.589,6.2,6.2,0,0,1-3.658,1,6.322,6.322,0,0,1-2.664-.537,4.455,4.455,0,0,1-1.826-1.461,3.308,3.308,0,0,1-.655-1.944H424.2a1.4,1.4,0,0,0,.537,1.176,2.209,2.209,0,0,0,1.321.371,1.738,1.738,0,0,0,1.112-.3A.962.962,0,0,0,427.539,19.734Z" transform="translate(190 6378.345)" fill="#12263f"/>
    <g id="Grupo_870162" data-name="Grupo 870162" transform="translate(654.092 6355.107)">
      <g id="Grupo_870161" data-name="Grupo 870161" clip-path="url(#clip-path)">
        <path id="Trazado_605417" data-name="Trazado 605417" d="M7.93,34.385a3.864,3.864,0,0,1,.616-.486Q23.362,23.258,38.18,12.62c1.135-.815,1.4-.785,2.315.3,2.959,3.5,5.925,6.989,8.86,10.506.429.514.673.651,1.283.177q11.2-8.695,22.453-17.314c.525-.4.47-.617.074-1.049-1.006-1.1-1.961-2.239-2.942-3.357A1.137,1.137,0,0,1,69.965.6,1.07,1.07,0,0,1,71.13.005c2.619.184,5.24.351,7.857.57,1.877.157,1.875.189,1.8,2.06q-.265,3.886-.53,7.771a1.161,1.161,0,0,1-.762,1.159,1.066,1.066,0,0,1-1.227-.437c-.847-.965-1.734-1.9-2.515-2.916-.513-.666-.84-.736-1.548-.185Q62.7,16.973,51.145,25.845c-.139.107-.276.215-.417.319-.877.649-1.275.609-2-.246q-3.34-3.94-6.666-7.89c-.81-.959-1.647-1.9-2.417-2.885-.386-.5-.645-.547-1.18-.16Q28.15,22.44,17.8,29.849q-4.051,2.909-8.105,5.812a4.4,4.4,0,0,1-.59.371A1.028,1.028,0,0,1,7.93,34.385m47.777,7.846a4.119,4.119,0,0,1-.035,5.516c-.286.348-.272.5.007.843a4.121,4.121,0,0,1-.037,5.582c-.265.329-.238.468.013.777a4.11,4.11,0,0,1,.008,5.58c-.3.362-.241.516.027.842a4.116,4.116,0,0,1,0,5.517c-.321.388-.275.552.023.907a4.158,4.158,0,0,1,.651,4.586,3.919,3.919,0,0,1-3.814,2.457q-9.588.042-19.175,0a3.953,3.953,0,0,1-3.842-2.419,4.239,4.239,0,0,1,.59-4.6c.14-.179.56-.338.3-.61-.3-.32-.419-.89-.97-.914-.7-.031-1.4-.006-2.1-.007-.55,0-.651.528-.93.826s.16.433.291.611a4.3,4.3,0,0,1,.479,4.621,3.928,3.928,0,0,1-3.8,2.334q-9.544.028-19.088,0a3.97,3.97,0,0,1-3.859-2.39A4.122,4.122,0,0,1,1.02,67.7c.315-.384.274-.547-.012-.906a4.109,4.109,0,0,1,.11-5.444c.289-.345.282-.5,0-.835a3.981,3.981,0,0,1-.648-4.561A4.056,4.056,0,0,1,4.39,53.526c3.823,0,7.647-.011,11.47.008.55,0,.774-.081.867-.72a11.715,11.715,0,0,1,12.49-10.047c.7.054.83-.434,1.131-.754.345-.367-.168-.526-.323-.745a4.261,4.261,0,0,1-.462-4.545,3.866,3.866,0,0,1,3.7-2.335c3.239-.013,6.479,0,9.719,0,3.094,0,6.188.02,9.281-.009a4.026,4.026,0,0,1,4.047,2.353,4.128,4.128,0,0,1-.65,4.727c-.3.346-.182.491.042.775m30.1,30.232a4.025,4.025,0,0,1-3.953,2.386q-9.454.011-18.907,0a3.976,3.976,0,0,1-3.923-2.423,4.161,4.161,0,0,1,.6-4.591c.289-.349.266-.508,0-.843a4.3,4.3,0,0,1,.019-5.544c.242-.306.278-.448.017-.779a4.3,4.3,0,0,1,0-5.612c.262-.331.231-.458-.016-.767a4.309,4.309,0,0,1-.029-5.547c.263-.328.308-.489.019-.846a4.271,4.271,0,0,1,0-5.538c.294-.361.237-.521-.023-.846a4.312,4.312,0,0,1,.031-5.548c.247-.31.277-.437.015-.767a4.3,4.3,0,0,1,0-5.611c.268-.337.228-.477-.019-.778a4.163,4.163,0,0,1-.579-4.667,3.973,3.973,0,0,1,3.96-2.346c3.151.023,6.3.006,9.453.006,3.093,0,6.186.022,9.279-.009a4.036,4.036,0,0,1,4.01,2.273,4.167,4.167,0,0,1-.547,4.743.518.518,0,0,0,0,.8,4.23,4.23,0,0,1-.033,5.6c-.279.352-.178.489.045.769a4.26,4.26,0,0,1,.005,5.541c-.282.361-.237.53.022.862a4.266,4.266,0,0,1-.047,5.542c-.248.318-.251.464,0,.784a4.234,4.234,0,0,1-.024,5.6c-.281.347-.188.484.038.77a4.264,4.264,0,0,1,.014,5.543c-.275.357-.248.526.017.865a4.269,4.269,0,0,1-.044,5.544c-.247.312-.274.46-.008.775a4.137,4.137,0,0,1,.615,4.66" transform="translate(0 0)" fill="#fefefe"/>
        <path id="Trazado_605418" data-name="Trazado 605418" d="M56.314,149.217a4.026,4.026,0,0,0-4.047-2.353c-3.093.028-6.187.008-9.281.009-3.239,0-6.479-.008-9.719,0a3.866,3.866,0,0,0-3.7,2.335,4.262,4.262,0,0,0,.462,4.545c.155.218.669.378.323.745-.3.32-.429.808-1.131.754A11.715,11.715,0,0,0,16.726,165.3c-.092.639-.317.723-.867.72-3.823-.02-7.647-.012-11.47-.008a4.055,4.055,0,0,0-3.925,2.429,3.98,3.98,0,0,0,.648,4.561c.286.336.293.49,0,.835a4.109,4.109,0,0,0-.11,5.444c.286.359.327.522.012.906a4.123,4.123,0,0,0-.572,4.592,3.97,3.97,0,0,0,3.859,2.39q9.544.019,19.087,0a3.928,3.928,0,0,0,3.8-2.334,4.294,4.294,0,0,0-.479-4.621c-.131-.179-.567-.315-.291-.611s.38-.827.93-.826c.7,0,1.4-.024,2.1.007.551.024.667.594.97.914.257.272-.163.431-.3.61a4.24,4.24,0,0,0-.59,4.6,3.952,3.952,0,0,0,3.842,2.419q9.587.032,19.175,0a3.919,3.919,0,0,0,3.814-2.457,4.159,4.159,0,0,0-.651-4.586c-.3-.356-.344-.52-.023-.907a4.115,4.115,0,0,0,0-5.517c-.268-.327-.323-.48-.027-.842a4.11,4.11,0,0,0-.008-5.58c-.25-.309-.278-.448-.012-.777a4.121,4.121,0,0,0,.037-5.582c-.279-.34-.293-.5-.007-.843a4.12,4.12,0,0,0,.035-5.516c-.224-.284-.342-.429-.043-.775a4.128,4.128,0,0,0,.65-4.727M4.089,168.129c.516-.044,1.041,0,1.561.011,3.469-.011,6.939-.017,10.408-.04.424,0,.6.1.654.566a9.963,9.963,0,0,0,.879,3.095c.236.5.085.6-.4.593q-5.772-.032-11.545-.042h0c-.492.008-.984.043-1.475.02a2.129,2.129,0,0,1-2.015-2.1,2.152,2.152,0,0,1,1.929-2.1m-.672,6.549a2.981,2.981,0,0,1,1.19-.227q7.025,0,14.05,0c.218,0,.473-.088.64.153a12.886,12.886,0,0,0,5.3,3.584.823.823,0,0,1-.913.478q-9.015-.007-18.03-.028c-.494.01-.988.033-1.482.026a2,2,0,0,1-1.987-1.62,2.163,2.163,0,0,1,1.237-2.364M24.05,184.942h0c-.246.22-.55.157-.834.157q-9.39,0-18.78-.017a2.159,2.159,0,0,1-1.276-4,5.367,5.367,0,0,1,2.488-.181q9.039-.019,18.079-.032a1.789,1.789,0,0,1,1.751,1.629,1.987,1.987,0,0,1-1.427,2.44m3.87-8.246a9.705,9.705,0,1,1,10.14-9.194A9.734,9.734,0,0,1,27.92,176.7m24.571-4.358c-3.588.015-7.176-.008-10.764-.016H38.947a12.982,12.982,0,0,0,1.15-3.788c.051-.4.289-.434.606-.426.752.017,1.5.021,2.256.03,3.18-.008,6.359-.035,9.538-.017a2.1,2.1,0,0,1,2.113,2.116,2.079,2.079,0,0,1-2.12,2.1m2.116,4.253a2.034,2.034,0,0,1-1.642,2.049h0a1.188,1.188,0,0,1-.839.144q-9.221,0-18.442,0a2.334,2.334,0,0,1-1.63-.54,12.24,12.24,0,0,0,5.293-3.554.85.85,0,0,1,.718-.233q7.08,0,14.159-.006a.9.9,0,0,1,.584.131,2.052,2.052,0,0,1,1.8,2.014m-1.622-10.726h0a1.363,1.363,0,0,1-.927.141c-3.7,0-7.394-.014-11.091.008-.555,0-.848-.1-.916-.712A10.22,10.22,0,0,0,39.2,162.3c-.175-.4-.132-.61.35-.609q6.506.007,13.012.014a.714.714,0,0,1,.239.1,2.083,2.083,0,0,1,1.846,2.043,2.049,2.049,0,0,1-1.659,2.024m-.4-6.308c-4.259.014-8.518-.014-12.778-.027-.2.013-.407.011-.607.041a2.754,2.754,0,0,1-2.657-1.036,10.68,10.68,0,0,0-4.329-2.7c.643-.551.681-.558,2.687-.474,5.864-.007,11.729-.024,17.594-.014a2.1,2.1,0,0,1,2.118,2.116,2.054,2.054,0,0,1-2.028,2.1m.535,25.555c-.278.23-.612.154-.925.154q-9.226,0-18.453-.012a2.285,2.285,0,0,1-2.181-1.014A2.106,2.106,0,0,1,31.524,182a2.15,2.15,0,0,1,2.052-1.075q7.652,0,15.3-.015c1.108,0,2.216-.006,3.323,0,.313,0,.646-.075.925.154a2.027,2.027,0,0,1,1.521,2.071,2,2,0,0,1-1.533,1.975m-.289-31.9a1.844,1.844,0,0,1-.262.015L36.121,153.2c-.927.009-1.855.045-2.782.021a2.077,2.077,0,0,1-2.1-2.181A2,2,0,0,1,33.342,149c.927-.013,1.854.013,2.782.022,5.51-.01,11.021-.029,16.531-.02a1.965,1.965,0,0,1,2,2.006,2.118,2.118,0,0,1-1.824,2.21" transform="translate(0 -112.488)" fill="#284268"/>
        <path id="Trazado_605419" data-name="Trazado 605419" d="M276.934,138.334a4.27,4.27,0,0,0,.045-5.544c-.264-.339-.292-.508-.017-.865a4.264,4.264,0,0,0-.014-5.543c-.226-.286-.319-.422-.038-.77a4.233,4.233,0,0,0,.024-5.6c-.253-.32-.25-.466,0-.784a4.266,4.266,0,0,0,.047-5.542c-.259-.332-.3-.5-.022-.862a4.26,4.26,0,0,0-.005-5.541c-.223-.28-.323-.417-.045-.769a4.23,4.23,0,0,0,.033-5.6.518.518,0,0,1,0-.8,4.167,4.167,0,0,0,.547-4.743,4.036,4.036,0,0,0-4.01-2.273c-3.092.031-6.186.008-9.278.009-3.151,0-6.3.017-9.454-.006a3.972,3.972,0,0,0-3.96,2.346,4.163,4.163,0,0,0,.579,4.667c.247.3.288.441.019.778a4.3,4.3,0,0,0,0,5.611c.263.33.233.457-.015.767a4.312,4.312,0,0,0-.031,5.548c.26.325.317.485.023.846a4.271,4.271,0,0,0,0,5.538c.289.357.243.518-.019.846a4.31,4.31,0,0,0,.029,5.547c.247.309.278.436.016.767a4.3,4.3,0,0,0,0,5.612c.261.331.225.473-.017.779a4.3,4.3,0,0,0-.019,5.544c.27.334.293.493,0,.843a4.16,4.16,0,0,0-.6,4.591,3.976,3.976,0,0,0,3.922,2.423q9.454.02,18.907,0a4.025,4.025,0,0,0,3.953-2.386,4.137,4.137,0,0,0-.615-4.66c-.266-.316-.24-.464.008-.775M254.663,95.219c.406-.006.812.017,1.219.027,6.01-.009,12.019-.029,18.029-.016a1.955,1.955,0,0,1,1.938,2.139,2,2,0,0,1-2.109,2.076q-6.827.021-13.654.006c-1.4,0-2.8-.02-4.2-.03-.406.009-.813.032-1.219.026a2.114,2.114,0,1,1,0-4.227m.093,6.336q9.392-.016,18.783-.015c.312,0,.647-.078.918.169a2.064,2.064,0,0,1,1.368,2.415,1.907,1.907,0,0,1-1.863,1.658c-6.026.011-12.053-.012-18.08-.024-.378.011-.756.034-1.133.031-1.473-.013-2.234-.715-2.243-2.056a2,2,0,0,1,2.25-2.178m1.128,16.96c-.406.011-.813.034-1.219.029a2.112,2.112,0,1,1,0-4.223c.406,0,.813.018,1.219.027,6.008-.009,12.017-.03,18.025-.017a1.963,1.963,0,0,1,1.938,2.143,1.994,1.994,0,0,1-2.114,2.068q-7,.022-14,.005c-1.283,0-2.565-.022-3.848-.033m-1.152-10.61c6.3-.029,12.595-.018,18.892-.014a.93.93,0,0,1,.269.05.832.832,0,0,1,.229.069,1.934,1.934,0,0,1,1.726,1.948,1.954,1.954,0,0,1-1.528,2.115h0c-.281.226-.615.141-.927.141q-9.271,0-18.542-.006c-1.508,0-2.326-.738-2.345-2.091a1.982,1.982,0,0,1,2.227-2.213m.111,12.745q9.271-.011,18.542-.007a1.344,1.344,0,0,1,.928.145,1.96,1.96,0,0,1,1.535,2.109,1.936,1.936,0,0,1-1.717,1.956h0a1,1,0,0,1-.672.119q-9.271,0-18.543-.01c-1.485,0-2.314-.672-2.4-1.862a2.056,2.056,0,0,1,2.33-2.45m19.447,23.289h0a1.176,1.176,0,0,1-.839.146q-9.31,0-18.621-.018c-1.465,0-2.285-.742-2.324-2.033-.043-1.472.763-2.281,2.333-2.286q7.562-.022,15.124-.021c1.137,0,2.273-.006,3.409,0,.313,0,.646-.076.927.146a2.1,2.1,0,0,1-.009,4.062m-18.408-6.327c-.406.01-.812.033-1.218.028a2.111,2.111,0,1,1,0-4.222c.406,0,.812.017,1.219.026,6.009-.009,12.018-.03,18.028-.017a1.973,1.973,0,0,1,1.934,2.153,1.949,1.949,0,0,1-1.938,2.051c-6.009.01-12.019-.01-18.028-.02m19.936-7.963a2.131,2.131,0,0,1-2.345,1.663q-6.564.007-13.127,0c-1.429,0-2.858-.016-4.287-.024-.552.007-1.106.048-1.656.013a1.969,1.969,0,0,1-1.872-1.649,2.073,2.073,0,0,1,1.189-2.448,2.888,2.888,0,0,1,1.117-.134c.348,0,.7.02,1.045.031,2.654-.016,5.307-.04,7.961-.046,3.267-.008,6.535-.015,9.8.006a2.077,2.077,0,0,1,2.173,2.588" transform="translate(-191.735 -71.306)" fill="#284268"/>
        <path id="Trazado_605420" data-name="Trazado 605420" d="M34.011,36.032a4.383,4.383,0,0,0,.59-.371q4.054-2.9,8.105-5.812,10.339-7.425,20.667-14.866c.535-.387.793-.337,1.18.16.77.989,1.607,1.927,2.417,2.885q3.332,3.946,6.666,7.89c.724.855,1.123.894,2,.245.141-.1.278-.213.417-.319q11.538-8.9,23.061-17.816c.708-.551,1.035-.481,1.548.186.781,1.016,1.669,1.95,2.515,2.915a1.066,1.066,0,0,0,1.227.437,1.161,1.161,0,0,0,.762-1.159q.26-3.886.53-7.772c.075-1.871.077-1.9-1.8-2.06C101.278.357,98.657.19,96.038.006A1.07,1.07,0,0,0,94.872.6a1.137,1.137,0,0,0,.258,1.29c.982,1.118,1.936,2.261,2.942,3.357.4.431.45.646-.074,1.049Q86.748,14.919,75.545,23.608c-.61.474-.854.337-1.283-.177-2.936-3.517-5.9-7.008-8.86-10.506-.92-1.088-1.18-1.118-2.315-.3L33.453,33.9a3.865,3.865,0,0,0-.616.486,1.028,1.028,0,0,0,1.174,1.647M98.259,2.3c1.684.1,3.156.216,4.631.257.6.017.743.242.69.789-.14,1.441-.248,2.885-.389,4.571L98.259,2.3" transform="translate(-24.908 -0.001)" fill="#284268"/>
        <path id="Trazado_605421" data-name="Trazado 605421" d="M99.233,201.633a9.687,9.687,0,1,0-10.14,9.194,9.708,9.708,0,0,0,10.14-9.194M91.3,207.791c-.491.225-.72.443-.693,1.01a.986.986,0,0,1-1.094,1.168.972.972,0,0,1-.979-1.185.852.852,0,0,0-.626-.958,3.834,3.834,0,0,1-2.405-3.358c0-.833.211-1.3.909-1.365.728-.065,1.03.356,1.166,1.02.327,1.6,1.454,2.337,2.719,1.819a1.928,1.928,0,0,0,1.221-1.934,1.826,1.826,0,0,0-1.332-1.757,3.56,3.56,0,0,0-.856-.153,4.061,4.061,0,0,1-3.751-3.136,4.016,4.016,0,0,1,2.214-4.588c.5-.235.8-.451.754-1.073a.923.923,0,0,1,.977-1.013.955.955,0,0,1,1.072,1.017c-.011.608.241.826.747,1.076a3.885,3.885,0,0,1,2.288,3.464,1.009,1.009,0,0,1-.963,1.216c-.7.055-1.033-.406-1.138-1.07-.207-1.307-.906-1.946-2.059-1.911a1.869,1.869,0,0,0-1.854,1.739,1.93,1.93,0,0,0,1.608,2.154c.373.06.756.071,1.125.147a4.058,4.058,0,0,1,.95,7.671" transform="translate(-61.174 -146.619)" fill="#ecb640"/>
        <path id="Trazado_605422" data-name="Trazado 605422" d="M164.434,292.985,147.11,293c-1.22,0-1.613.321-1.763,1.526a3.581,3.581,0,0,0,.122,1.466,1.285,1.285,0,0,0,1.454,1.047c5.833-.029,11.666-.011,17.5-.008h0a2,2,0,0,0,1.533-1.975,2.027,2.027,0,0,0-1.522-2.071" transform="translate(-111.305 -224.408)" fill="#ecb640"/>
        <path id="Trazado_605423" data-name="Trazado 605423" d="M39.89,292.163q-9.039,0-18.079.031a3.261,3.261,0,0,0-.705,2.191c.064,1.414.478,1.834,1.872,1.835l17.235.011h0a1.987,1.987,0,0,0,1.427-2.439,1.789,1.789,0,0,0-1.751-1.629" transform="translate(-16.163 -223.778)" fill="#ecb640"/>
        <path id="Trazado_605424" data-name="Trazado 605424" d="M168.571,155.984c-5.51-.009-11.021.011-16.531.02a3.479,3.479,0,0,0,0,4.183l16.444.027a1.839,1.839,0,0,0,.262-.015,2.119,2.119,0,0,0,1.824-2.21,1.966,1.966,0,0,0-2-2.006" transform="translate(-115.916 -119.472)" fill="#d7a33d"/>
        <path id="Trazado_605425" data-name="Trazado 605425" d="M164.893,183.08c-5.865-.01-11.729.007-17.594.014-.791.967-.789,1,.406,1.366a8.541,8.541,0,0,1,4.5,2.807c4.259.012,8.518.041,12.777.027a2.054,2.054,0,0,0,2.029-2.1,2.1,2.1,0,0,0-2.118-2.116" transform="translate(-112.401 -140.225)" fill="#ecb640"/>
        <path id="Trazado_605426" data-name="Trazado 605426" d="M165.184,265.265c-3.875.008-7.749.032-11.624.013a2.785,2.785,0,0,0-2.057.668,11.01,11.01,0,0,1-4.228,2.181c-.187.056-.636-.026-.545.381.073.322.194.706.607.78a4.538,4.538,0,0,0,.785.023l17.219.016h0a2.061,2.061,0,0,0-.157-4.062" transform="translate(-112.376 -203.176)" fill="#d7a33d"/>
        <path id="Trazado_605427" data-name="Trazado 605427" d="M21.044,268.17a4.092,4.092,0,0,0,.615,1.237q9.015.017,18.03.029a.823.823,0,0,0,.913-.478,12.886,12.886,0,0,1-5.3-3.584H23.1c-1.781,0-2.541,1.04-2.059,2.8" transform="translate(-16.01 -203.259)" fill="#d7a33d"/>
        <path id="Trazado_605428" data-name="Trazado 605428" d="M21.885,241.806h0q5.772.018,11.545.042c.482,0,.633-.1.4-.593a9.969,9.969,0,0,1-.879-3.095c-.056-.467-.231-.569-.654-.566-3.469.023-6.939.029-10.408.04a3.5,3.5,0,0,0,0,4.172" transform="translate(-16.235 -181.982)" fill="#ecb640"/>
        <path id="Trazado_605429" data-name="Trazado 605429" d="M189.041,237.661c-3.179-.018-6.359.008-9.538.017a17.262,17.262,0,0,1-1.233,4.184c3.588.008,7.176.031,10.764.016a2.079,2.079,0,0,0,2.12-2.1,2.1,2.1,0,0,0-2.113-2.116" transform="translate(-136.543 -182.028)" fill="#ecb640"/>
        <path id="Trazado_605430" data-name="Trazado 605430" d="M189.7,210.663l-10.141.024c-.971,0-.949-.005-.594.851a8.781,8.781,0,0,1,.722,2.321c.072.611.334.874,1.02.867,3.059-.034,6.12,0,9.18.006h0a2.049,2.049,0,0,0,1.659-2.024,2.083,2.083,0,0,0-1.846-2.043" transform="translate(-136.907 -161.354)" fill="#d7a33d"/>
        <path id="Trazado_605431" data-name="Trazado 605431" d="M154.412,296.569q-8.308.007-16.616,0c-1.25,0-1.663-.352-1.848-1.58a3.338,3.338,0,0,1,.123-1.555,1.321,1.321,0,0,1,1.384-1.073c5.8.019,11.6.01,17.4.01a.833.833,0,0,1,.425.072c-.278-.229-.612-.151-.925-.154-1.108-.009-2.215,0-3.323,0q-7.652.008-15.3.015a2.15,2.15,0,0,0-2.051,1.075,2.105,2.105,0,0,0,.033,2.242,2.285,2.285,0,0,0,2.182,1.014q9.226,0,18.453.011c.313,0,.647.076.925-.154a1.731,1.731,0,0,1-.859.076" transform="translate(-102.154 -223.87)" fill="#c3943b"/>
        <path id="Trazado_605432" data-name="Trazado 605432" d="M146.068,296.769a1.286,1.286,0,0,1-1.454-1.047,3.581,3.581,0,0,1-.123-1.466c.15-1.2.542-1.525,1.763-1.526l17.324-.014a.831.831,0,0,0-.425-.072c-5.8,0-11.6.009-17.4-.01a1.322,1.322,0,0,0-1.384,1.073,3.339,3.339,0,0,0-.123,1.555c.184,1.228.6,1.58,1.848,1.58q8.308,0,16.617,0a1.728,1.728,0,0,0,.859-.077c-5.833,0-11.666-.021-17.5.008" transform="translate(-110.45 -224.138)" fill="#c3943b"/>
        <path id="Trazado_605433" data-name="Trazado 605433" d="M138.34,155.994c-.927-.009-1.855-.035-2.782-.022a2,2,0,0,0-2.106,2.046,2.077,2.077,0,0,0,2.1,2.181c.926.025,1.854-.012,2.782-.021a2.8,2.8,0,0,1,0-4.183" transform="translate(-102.216 -119.462)" fill="#c59339"/>
        <path id="Trazado_605434" data-name="Trazado 605434" d="M151.266,156.078a2.8,2.8,0,0,0,0,4.183,3.479,3.479,0,0,1,0-4.183" transform="translate(-115.142 -119.546)" fill="#c59339"/>
        <path id="Trazado_605435" data-name="Trazado 605435" d="M176.573,214.425c-1.693.018-3.386-.014-5.079.015a.812.812,0,0,1-.945-.685,20.215,20.215,0,0,0-.88-2.749c-.173-.452-.146-.785.5-.782,3.473.019,6.947,0,10.42.016a.5.5,0,0,1,.164.059.717.717,0,0,0-.239-.1q-6.506-.012-13.012-.014c-.482,0-.525.214-.35.609a10.219,10.219,0,0,1,.853,3.006c.068.611.361.715.916.712,3.7-.021,7.394,0,11.091-.008a1.362,1.362,0,0,0,.927-.141c-1.454.139-2.912.042-4.369.058" transform="translate(-127.957 -160.991)" fill="#c4933a"/>
        <path id="Trazado_605436" data-name="Trazado 605436" d="M180,214.481c-.686.008-.947-.256-1.02-.867a8.79,8.79,0,0,0-.722-2.321c-.356-.856-.378-.848.594-.851l10.141-.024a.5.5,0,0,0-.164-.059c-3.473-.019-6.947,0-10.42-.016-.648,0-.675.329-.5.782a20.238,20.238,0,0,1,.88,2.749.812.812,0,0,0,.945.685c1.693-.029,3.386,0,5.078-.015,1.456-.016,2.914.081,4.368-.058h0c-3.06-.008-6.12-.04-9.18-.006" transform="translate(-136.197 -161.11)" fill="#c4933a"/>
        <path id="Trazado_605437" data-name="Trazado 605437" d="M30.25,296.22q-8.464.005-16.928,0c-1.02,0-1.251-.177-1.534-1.156a2.575,2.575,0,0,1,.832-2.956,5.367,5.367,0,0,0-2.487.181,2.159,2.159,0,0,0,1.276,4q9.39.018,18.78.017c.284,0,.588.063.834-.157a1.564,1.564,0,0,1-.772.072" transform="translate(-6.972 -223.694)" fill="#c3943b"/>
        <path id="Trazado_605438" data-name="Trazado 605438" d="M22.106,296.323c-1.395,0-1.809-.421-1.872-1.835a3.26,3.26,0,0,1,.705-2.191,2.576,2.576,0,0,0-.832,2.956c.283.979.514,1.155,1.534,1.155q8.464,0,16.928,0a1.561,1.561,0,0,0,.772-.072l-17.235-.011" transform="translate(-15.291 -223.881)" fill="#c3943b"/>
        <path id="Trazado_605439" data-name="Trazado 605439" d="M156.991,268.969q-8.261.006-16.521,0a2.884,2.884,0,0,1-.783-.035.892.892,0,0,1-.625-.767c-.083-.385.2-.531.475-.626a15.174,15.174,0,0,0,4.755-2.535,1.26,1.26,0,0,1,.826-.235c4.138.007,8.275-.008,12.412.011a.517.517,0,0,1,.165.054.9.9,0,0,0-.584-.131q-7.079,0-14.159.006a.851.851,0,0,0-.718.233,12.236,12.236,0,0,1-5.293,3.554,2.334,2.334,0,0,0,1.63.54q9.221,0,18.442,0a1.188,1.188,0,0,0,.839-.144,1.9,1.9,0,0,1-.861.068" transform="translate(-104.888 -202.749)" fill="#c59339"/>
        <path id="Trazado_605440" data-name="Trazado 605440" d="M147.528,269.1a4.491,4.491,0,0,1-.785-.023c-.413-.074-.535-.458-.608-.78-.092-.406.358-.324.545-.381a11.006,11.006,0,0,0,4.228-2.181,2.788,2.788,0,0,1,2.057-.668c3.874.019,7.749,0,11.624-.013a.516.516,0,0,0-.165-.054c-4.138-.019-8.275,0-12.412-.011a1.26,1.26,0,0,0-.826.235,15.188,15.188,0,0,1-4.755,2.535c-.271.094-.558.24-.475.626a.893.893,0,0,0,.625.768,2.892,2.892,0,0,0,.782.034q8.261,0,16.521,0a1.9,1.9,0,0,0,.861-.068h0l-17.219-.016" transform="translate(-111.783 -202.962)" fill="#c59339"/>
        <path id="Trazado_605441" data-name="Trazado 605441" d="M11.164,268.881c.494.007.988-.016,1.482-.026a2.82,2.82,0,0,1-.453-3.748,1.045,1.045,0,0,1,.845-.375c4.367,0,8.734-.013,13.1.012.052,0,.1.048.155.076-.167-.241-.421-.153-.64-.153q-7.025,0-14.05,0a2.985,2.985,0,0,0-1.19.227,2.163,2.163,0,0,0-1.237,2.364,2,2,0,0,0,1.987,1.62" transform="translate(-6.997 -202.707)" fill="#c59339"/>
        <path id="Trazado_605442" data-name="Trazado 605442" d="M21.354,264.99a1.045,1.045,0,0,0-.845.375,2.82,2.82,0,0,0,.453,3.748,4.088,4.088,0,0,1-.615-1.237c-.481-1.757.278-2.8,2.059-2.8h12.2c-.051-.028-.1-.076-.155-.076-4.367-.025-8.734-.008-13.1-.012" transform="translate(-15.312 -202.964)" fill="#c59339"/>
        <path id="Trazado_605443" data-name="Trazado 605443" d="M170.41,237.651c-.752-.009-1.5-.013-2.256-.03-.316-.007-.554.026-.606.427a12.983,12.983,0,0,1-1.15,3.788h2.779c-.036-.046-.093-.1-.08-.146a30.682,30.682,0,0,1,1.313-4.038" transform="translate(-127.45 -182.001)" fill="#c59339"/>
        <path id="Trazado_605444" data-name="Trazado 605444" d="M179.236,237.752a30.679,30.679,0,0,0-1.313,4.038c-.013.043.044.1.08.146a17.285,17.285,0,0,0,1.233-4.184" transform="translate(-136.276 -182.103)" fill="#c59339"/>
        <path id="Trazado_605445" data-name="Trazado 605445" d="M11.247,241.86c.49.023.983-.011,1.475-.02h0a2.8,2.8,0,0,1,0-4.172c-.521-.007-1.045-.055-1.561-.011a2.152,2.152,0,0,0-1.929,2.1,2.129,2.129,0,0,0,2.015,2.1" transform="translate(-7.071 -182.016)" fill="#c59339"/>
        <path id="Trazado_605446" data-name="Trazado 605446" d="M21.09,241.935a3.5,3.5,0,0,1,0-4.172,2.8,2.8,0,0,0,0,4.172" transform="translate(-15.44 -182.111)" fill="#c59339"/>
        <path id="Trazado_605447" data-name="Trazado 605447" d="M140.472,184.546c-.349-.1-.786-.134-.839-.626s.28-.725.672-.9c-2.006-.084-2.044-.078-2.687.474a10.68,10.68,0,0,1,4.329,2.7,2.753,2.753,0,0,0,2.657,1.036c.2-.03.4-.028.607-.041a3.992,3.992,0,0,1-.721-.48,9.258,9.258,0,0,0-4.018-2.168" transform="translate(-105.407 -140.152)" fill="#c59439"/>
        <path id="Trazado_605448" data-name="Trazado 605448" d="M147.286,184.516c-1.2-.364-1.2-.4-.406-1.366-.393.174-.726.4-.672.9s.49.527.839.626a9.256,9.256,0,0,1,4.018,2.168,4,4,0,0,0,.721.48,8.539,8.539,0,0,0-4.5-2.807" transform="translate(-111.981 -140.281)" fill="#c59439"/>
        <path id="Trazado_605449" data-name="Trazado 605449" d="M272.075,106.387h0c1.4.011,2.8.029,4.2.03q6.827,0,13.654-.006a2,2,0,0,0,2.109-2.075A1.954,1.954,0,0,0,290.1,102.2c-6.01-.013-12.019.007-18.029.016a3.887,3.887,0,0,0,0,4.174" transform="translate(-207.925 -78.272)" fill="#d7a33d"/>
        <path id="Trazado_605450" data-name="Trazado 605450" d="M290.162,269.591a1.949,1.949,0,0,0,1.939-2.051,1.974,1.974,0,0,0-1.934-2.153c-6.009-.013-12.019.008-18.028.017a3.986,3.986,0,0,0,0,4.168c6.009.01,12.018.03,18.028.02" transform="translate(-207.988 -203.266)" fill="#d7a33d"/>
        <path id="Trazado_605451" data-name="Trazado 605451" d="M275.987,188.021q7,.006,14-.005a1.994,1.994,0,0,0,2.114-2.068,1.963,1.963,0,0,0-1.938-2.144c-6.008-.012-12.017.008-18.025.018a3.979,3.979,0,0,0,0,4.166h0c1.283.012,2.566.033,3.848.033" transform="translate(-207.99 -140.779)" fill="#ecb640"/>
        <path id="Trazado_605452" data-name="Trazado 605452" d="M289.869,238.154c-3.267-.021-6.535-.014-9.8-.006-2.654.006-5.307.03-7.961.046a3.55,3.55,0,0,0,.176,4.188c1.429.008,2.858.023,4.287.024q6.564,0,13.128,0a2.131,2.131,0,0,0,2.344-1.663,2.077,2.077,0,0,0-2.173-2.588" transform="translate(-207.96 -182.401)" fill="#ecb640"/>
        <path id="Trazado_605453" data-name="Trazado 605453" d="M351,156.517c.076.023.153.05.229.069a.833.833,0,0,0-.229-.069" transform="translate(-268.846 -119.882)" fill="#d7a33d"/>
        <path id="Trazado_605454" data-name="Trazado 605454" d="M271.2,158.894a4.355,4.355,0,0,0,.208,1.018,1.2,1.2,0,0,0,1.323.961c5.856-.031,11.712-.005,17.568,0h0a1.954,1.954,0,0,0,1.528-2.115,1.934,1.934,0,0,0-1.726-1.949l-16.957.019a1.71,1.71,0,0,0-1.945,2.063" transform="translate(-207.72 -120.108)" fill="#d7a33d"/>
        <path id="Trazado_605455" data-name="Trazado 605455" d="M271.734,131.26a3.984,3.984,0,0,0,.524,2.679h0c6.026.012,12.053.035,18.08.024a1.907,1.907,0,0,0,1.863-1.658,2.065,2.065,0,0,0-1.368-2.415l-17.638,0c-1.073,0-1.387.292-1.46,1.366" transform="translate(-208.111 -99.487)" fill="#ecb640"/>
        <path id="Trazado_605456" data-name="Trazado 605456" d="M271.239,213.64a4.584,4.584,0,0,0,.142.767c.214.635.492,1.062,1.344,1.057,5.8-.039,11.6-.009,17.394,0h0a1.936,1.936,0,0,0,1.717-1.955A1.96,1.96,0,0,0,290.3,211.4l-17.22.021a1.739,1.739,0,0,0-1.843,2.22" transform="translate(-207.724 -161.918)" fill="#d7a33d"/>
        <path id="Trazado_605457" data-name="Trazado 605457" d="M290.643,292.953l-17.409.021c-1.107,0-1.426.289-1.532,1.4a5.042,5.042,0,0,0-.025.861c.124,1.606.294,1.757,1.9,1.759l17.059.018h0a2.1,2.1,0,0,0,.009-4.062" transform="translate(-208.08 -224.383)" fill="#ecb640"/>
        <path id="Trazado_605458" data-name="Trazado 605458" d="M280.635,296.568q-8.406,0-16.812,0c-1.063,0-1.39-.273-1.589-1.318a4.134,4.134,0,0,1-.05-1.22c.143-1.325.506-1.659,1.821-1.659q8.231,0,16.461,0a2.519,2.519,0,0,1,.953.062c-.281-.222-.614-.144-.927-.146-1.137-.009-2.273,0-3.41,0q-7.562.008-15.124.021c-1.57,0-2.376.815-2.332,2.286.038,1.291.858,2.03,2.324,2.033q9.31.021,18.621.018a1.174,1.174,0,0,0,.839-.146,1.67,1.67,0,0,1-.776.068" transform="translate(-198.857 -223.867)" fill="#c3943b"/>
        <path id="Trazado_605459" data-name="Trazado 605459" d="M272.646,296.747c-1.6,0-1.774-.153-1.9-1.759a5.048,5.048,0,0,1,.026-.861c.106-1.113.425-1.4,1.532-1.4l17.409-.021a2.518,2.518,0,0,0-.953-.062q-8.231-.006-16.462,0c-1.315,0-1.679.334-1.821,1.659a4.135,4.135,0,0,0,.05,1.22c.2,1.045.526,1.318,1.589,1.318q8.406,0,16.812,0a1.67,1.67,0,0,0,.776-.068l-17.059-.018" transform="translate(-207.151 -224.133)" fill="#c3943b"/>
        <path id="Trazado_605460" data-name="Trazado 605460" d="M351.981,156.812h0Z" transform="translate(-269.595 -120.108)" fill="#c3933a"/>
        <path id="Trazado_605461" data-name="Trazado 605461" d="M261.971,160.6q9.271.008,18.543.006c.312,0,.646.085.926-.141a2.256,2.256,0,0,1-.865.059q-8.354.005-16.707,0c-1.1,0-1.376-.218-1.64-1.268a3.26,3.26,0,0,1-.043-1.472c.246-1.2.543-1.457,1.751-1.457q8.222,0,16.445,0a4.052,4.052,0,0,1,.633,0,.929.929,0,0,0-.269-.05c-6.3,0-12.595-.015-18.892.014a1.983,1.983,0,0,0-2.227,2.213c.019,1.353.837,2.089,2.345,2.091" transform="translate(-198.857 -119.701)" fill="#c3933a"/>
        <path id="Trazado_605462" data-name="Trazado 605462" d="M288.545,156.468q-8.222-.006-16.445,0c-1.207,0-1.5.254-1.751,1.457a3.26,3.26,0,0,0,.043,1.472c.264,1.05.542,1.268,1.64,1.268q8.354,0,16.707,0a2.256,2.256,0,0,0,.865-.059h0c-5.856-.008-11.713-.034-17.568,0a1.2,1.2,0,0,1-1.323-.961,4.353,4.353,0,0,1-.208-1.018,1.71,1.71,0,0,1,1.945-2.063l16.957-.019c-.076-.019-.153-.046-.229-.069a4.052,4.052,0,0,0-.633,0" transform="translate(-207.021 -119.833)" fill="#c3933a"/>
        <path id="Trazado_605463" data-name="Trazado 605463" d="M262.028,215.056q9.271.019,18.542.01a1,1,0,0,0,.672-.119,2.027,2.027,0,0,1-.863.065q-8.223.006-16.446,0c-1.213,0-1.508-.251-1.756-1.451a3.265,3.265,0,0,1,.04-1.472c.263-1.055.539-1.274,1.635-1.274q8.354,0,16.708,0a2.128,2.128,0,0,1,.864.062,1.345,1.345,0,0,0-.927-.145q-9.271,0-18.542.007a2.056,2.056,0,0,0-2.33,2.45c.088,1.19.917,1.858,2.4,1.862" transform="translate(-198.848 -161.401)" fill="#c3933b"/>
        <path id="Trazado_605464" data-name="Trazado 605464" d="M288.733,211.089q-8.354-.006-16.708,0c-1.1,0-1.372.219-1.635,1.274a3.264,3.264,0,0,0-.04,1.472c.248,1.2.544,1.451,1.756,1.451q8.223,0,16.446,0a2.023,2.023,0,0,0,.863-.065h0c-5.8-.008-11.6-.038-17.394,0-.852.006-1.13-.422-1.344-1.057a4.584,4.584,0,0,1-.142-.767,1.739,1.739,0,0,1,1.843-2.22l17.22-.021a2.128,2.128,0,0,0-.864-.062" transform="translate(-207.021 -161.67)" fill="#c3933b"/>
        <path id="Trazado_605465" data-name="Trazado 605465" d="M261.875,133.38c.378,0,.756-.02,1.133-.031a3.391,3.391,0,0,1-.471-3.691,1.207,1.207,0,0,1,1.16-.436q5.282.005,10.565,0c2.154,0,4.307,0,6.461,0a1.819,1.819,0,0,1,.859.073c-.27-.246-.606-.169-.918-.169q-9.391,0-18.783.015a2,2,0,0,0-2.25,2.178c.009,1.341.771,2.044,2.243,2.056" transform="translate(-198.861 -98.897)" fill="#c59339"/>
        <path id="Trazado_605466" data-name="Trazado 605466" d="M289.089,129.53c-2.154-.006-4.307,0-6.461,0q-5.282,0-10.565,0a1.207,1.207,0,0,0-1.16.436,3.392,3.392,0,0,0,.471,3.691h0a3.982,3.982,0,0,1-.525-2.679c.074-1.074.387-1.366,1.46-1.366l17.638,0a1.822,1.822,0,0,0-.859-.073" transform="translate(-207.227 -99.2)" fill="#c59339"/>
        <path id="Trazado_605467" data-name="Trazado 605467" d="M262.271,241.28c-.064-1.062-.387-2.207.7-3.012-.348-.011-.7-.031-1.045-.031a2.887,2.887,0,0,0-1.117.134,2.073,2.073,0,0,0-1.189,2.448,1.969,1.969,0,0,0,1.871,1.649c.549.035,1.1-.006,1.656-.013a1.257,1.257,0,0,1-.872-1.176" transform="translate(-198.819 -182.474)" fill="#c59339"/>
        <path id="Trazado_605468" data-name="Trazado 605468" d="M271.47,238.369c-1.083.805-.759,1.95-.7,3.012a1.257,1.257,0,0,0,.872,1.176,3.552,3.552,0,0,1-.176-4.188" transform="translate(-207.323 -182.575)" fill="#c59339"/>
        <path id="Trazado_605469" data-name="Trazado 605469" d="M263.013,183.8c-.406-.01-.813-.031-1.219-.027a2.112,2.112,0,1,0,0,4.222c.406.005.812-.018,1.219-.029a3.022,3.022,0,0,1,0-4.166" transform="translate(-198.863 -140.758)" fill="#c59339"/>
        <path id="Trazado_605470" data-name="Trazado 605470" d="M271.343,183.891a3.022,3.022,0,0,0,0,4.166,3.979,3.979,0,0,1,0-4.166" transform="translate(-207.193 -140.849)" fill="#c59339"/>
        <path id="Trazado_605471" data-name="Trazado 605471" d="M263.013,265.384c-.406-.01-.812-.031-1.218-.026a2.112,2.112,0,1,0,0,4.222c.406,0,.812-.018,1.218-.028h0a3.057,3.057,0,0,1,0-4.168" transform="translate(-198.863 -203.247)" fill="#c59339"/>
        <path id="Trazado_605472" data-name="Trazado 605472" d="M271.382,265.473a3.057,3.057,0,0,0,0,4.168,3.986,3.986,0,0,1,0-4.168" transform="translate(-207.231 -203.335)" fill="#c59339"/>
        <path id="Trazado_605473" data-name="Trazado 605473" d="M261.793,106.388c.406.006.812-.016,1.219-.026h0a3.019,3.019,0,0,1,0-4.174c-.406-.01-.812-.033-1.219-.027a2.114,2.114,0,1,0,0,4.227" transform="translate(-198.862 -78.248)" fill="#c59339"/>
        <path id="Trazado_605474" data-name="Trazado 605474" d="M271.324,106.453a3.887,3.887,0,0,1,0-4.174,3.019,3.019,0,0,0,0,4.174" transform="translate(-207.174 -78.339)" fill="#c59339"/>
        <path id="Trazado_605475" data-name="Trazado 605475" d="M318.7,10.876c.053-.546-.091-.772-.69-.788-1.474-.041-2.947-.158-4.631-.258l4.933,5.617c.141-1.685.249-3.13.389-4.571" transform="translate(-240.029 -7.529)" fill="#49c060"/>
        <path id="Trazado_605476" data-name="Trazado 605476" d="M108.723,202.94c-.37-.075-.752-.086-1.125-.147a1.931,1.931,0,0,1-1.608-2.154,1.869,1.869,0,0,1,1.854-1.739c1.153-.035,1.852.6,2.059,1.911.105.664.437,1.124,1.138,1.07a1.009,1.009,0,0,0,.963-1.216,3.884,3.884,0,0,0-2.288-3.464c-.506-.25-.758-.468-.747-1.076a.955.955,0,0,0-1.073-1.017.923.923,0,0,0-.977,1.013c.046.623-.252.838-.755,1.073a4.016,4.016,0,0,0-2.214,4.588,4.061,4.061,0,0,0,3.751,3.136,3.573,3.573,0,0,1,.856.153,1.827,1.827,0,0,1,1.332,1.757,1.929,1.929,0,0,1-1.221,1.934c-1.265.518-2.392-.22-2.719-1.819-.136-.664-.437-1.085-1.165-1.02-.7.062-.914.533-.909,1.365a3.835,3.835,0,0,0,2.405,3.358.851.851,0,0,1,.626.958.972.972,0,0,0,.979,1.185.986.986,0,0,0,1.094-1.168c-.027-.567.2-.785.693-1.01a4.058,4.058,0,0,0-.95-7.671" transform="translate(-79.545 -149.439)" fill="#284268"/>
      </g>
    </g>
  </g>
</svg>
