<svg xmlns="http://www.w3.org/2000/svg" xmlns:xlink="http://www.w3.org/1999/xlink" width="448.605" height="74.86" viewBox="0 0 448.605 74.86">
  <defs>
    <clipPath id="clip-path">
      <rect id="Rectángulo_290693" data-name="Rectángulo 290693" width="74.852" height="74.86" fill="none"/>
    </clipPath>
  </defs>
  <g id="Grupo_874036" data-name="Grupo 874036" transform="translate(-251 -10748.274)">
    <path id="Trazado_605035" data-name="Trazado 605035" d="M0,0,369.139,3.075,399.4,52.528,0,52Z" transform="translate(251 10759.44)" fill="#fff0a6"/>
    <path id="Trazado_609224" data-name="Trazado 609224" d="M4.952,17.693V23H1.182V7.359H7.423A7.269,7.269,0,0,1,10.6,8.02,4.979,4.979,0,0,1,12.735,9.9a5.134,5.134,0,0,1,.757,2.766,4.526,4.526,0,0,1-1.638,3.658,6.8,6.8,0,0,1-4.5,1.37Zm0-2.911H7.423a2.33,2.33,0,0,0,1.67-.548,2.035,2.035,0,0,0,.575-1.547,2.516,2.516,0,0,0-.591-1.751,2.092,2.092,0,0,0-1.611-.666H4.952Zm17.413-.129-1.192-.086a2.142,2.142,0,0,0-2.191,1.074V23h-3.62V11.377h3.395l.118,1.493a2.8,2.8,0,0,1,2.546-1.708,3.53,3.53,0,0,1,1.01.129Zm.462,2.428a6.86,6.86,0,0,1,.677-3.1,4.84,4.84,0,0,1,1.944-2.089,5.856,5.856,0,0,1,2.976-.73,5.344,5.344,0,0,1,4.114,1.617,6.2,6.2,0,0,1,1.5,4.4v.129a6.019,6.019,0,0,1-1.509,4.313,5.359,5.359,0,0,1-4.087,1.6,5.42,5.42,0,0,1-3.985-1.488,5.819,5.819,0,0,1-1.622-4.034Zm3.62.226a4.325,4.325,0,0,0,.5,2.363,1.682,1.682,0,0,0,1.493.752q1.934,0,1.977-2.976v-.365q0-3.126-2-3.126-1.815,0-1.966,2.7Zm15.275,2.428a.836.836,0,0,0-.483-.741,7.353,7.353,0,0,0-1.837-.58,8.376,8.376,0,0,1-2.234-.79,3.743,3.743,0,0,1-1.343-1.187,2.835,2.835,0,0,1-.462-1.6A3.212,3.212,0,0,1,36.685,12.2a5.443,5.443,0,0,1,3.459-1.037,6.03,6.03,0,0,1,3.7,1.042,3.258,3.258,0,0,1,1.4,2.739H41.6q0-1.4-1.472-1.4a1.459,1.459,0,0,0-.956.317.981.981,0,0,0-.387.79.9.9,0,0,0,.473.784,4.466,4.466,0,0,0,1.509.494,13.042,13.042,0,0,1,1.821.462q2.621.9,2.621,3.233A3.044,3.044,0,0,1,43.8,22.216a6.2,6.2,0,0,1-3.658,1,6.322,6.322,0,0,1-2.664-.537,4.455,4.455,0,0,1-1.826-1.461A3.308,3.308,0,0,1,35,19.272h3.384a1.4,1.4,0,0,0,.537,1.176,2.209,2.209,0,0,0,1.321.371,1.738,1.738,0,0,0,1.112-.3A.962.962,0,0,0,41.723,19.734ZM57.7,17.274A7.009,7.009,0,0,1,56.477,21.6a3.909,3.909,0,0,1-3.292,1.617,3.351,3.351,0,0,1-2.632-1.171v5.425h-3.62V11.377h3.384l.107,1.074a3.351,3.351,0,0,1,2.739-1.289A3.941,3.941,0,0,1,56.5,12.747,7.1,7.1,0,0,1,57.7,17.1Zm-3.62-.226q0-3.094-1.8-3.094a1.7,1.7,0,0,0-1.719.924v4.576a1.759,1.759,0,0,0,1.74.967q1.729,0,1.783-2.986Zm10.839,6.166a5.975,5.975,0,0,1-4.329-1.6,5.509,5.509,0,0,1-1.654-4.152v-.3a7.138,7.138,0,0,1,.661-3.147,4.834,4.834,0,0,1,1.928-2.111,5.821,5.821,0,0,1,3.008-.747,5.031,5.031,0,0,1,3.867,1.52,5.973,5.973,0,0,1,1.418,4.238v1.407h-7.2a2.609,2.609,0,0,0,.849,1.536,2.525,2.525,0,0,0,1.7.559,3.254,3.254,0,0,0,2.686-1.2L69.5,21.174a4.624,4.624,0,0,1-1.917,1.488A6.48,6.48,0,0,1,64.915,23.215Zm-.408-9.26q-1.59,0-1.891,2.105h3.652v-.279a1.793,1.793,0,0,0-.44-1.348A1.753,1.753,0,0,0,64.507,13.955Zm11.677,6.467a1.61,1.61,0,0,0,1.182-.414,1.517,1.517,0,0,0,.408-1.155h3.395A4.018,4.018,0,0,1,79.8,21.99a5.1,5.1,0,0,1-3.529,1.225,5.158,5.158,0,0,1-4-1.59,6.264,6.264,0,0,1-1.461-4.4v-.15a7.08,7.08,0,0,1,.65-3.11,4.732,4.732,0,0,1,1.875-2.073,5.589,5.589,0,0,1,2.9-.725,5.03,5.03,0,0,1,3.6,1.257,4.458,4.458,0,0,1,1.332,3.405H77.773a1.987,1.987,0,0,0-.44-1.386,1.52,1.52,0,0,0-1.182-.483q-1.407,0-1.644,1.794a12.658,12.658,0,0,0-.075,1.568,4.972,4.972,0,0,0,.419,2.428A1.45,1.45,0,0,0,76.184,20.422Zm11.43,0a1.61,1.61,0,0,0,1.182-.414,1.517,1.517,0,0,0,.408-1.155H92.6a4.018,4.018,0,0,1-1.37,3.137A5.1,5.1,0,0,1,87.7,23.215a5.158,5.158,0,0,1-4-1.59,6.264,6.264,0,0,1-1.461-4.4v-.15a7.08,7.08,0,0,1,.65-3.11,4.732,4.732,0,0,1,1.875-2.073,5.589,5.589,0,0,1,2.9-.725,5.03,5.03,0,0,1,3.6,1.257A4.458,4.458,0,0,1,92.6,15.824H89.2a1.987,1.987,0,0,0-.44-1.386,1.52,1.52,0,0,0-1.182-.483q-1.407,0-1.644,1.794a12.658,12.658,0,0,0-.075,1.568,4.972,4.972,0,0,0,.419,2.428A1.45,1.45,0,0,0,87.613,20.422ZM97.947,23H94.316V11.377h3.631ZM94.1,8.38a1.616,1.616,0,0,1,.559-1.268,2.375,2.375,0,0,1,2.9,0,1.616,1.616,0,0,1,.559,1.268,1.616,1.616,0,0,1-.559,1.268,2.375,2.375,0,0,1-2.9,0A1.616,1.616,0,0,1,94.1,8.38Zm5.618,8.7a6.86,6.86,0,0,1,.677-3.1,4.84,4.84,0,0,1,1.944-2.089,5.856,5.856,0,0,1,2.976-.73,5.344,5.344,0,0,1,4.114,1.617,6.2,6.2,0,0,1,1.5,4.4v.129a6.019,6.019,0,0,1-1.509,4.313,5.359,5.359,0,0,1-4.087,1.6,5.42,5.42,0,0,1-3.985-1.488,5.819,5.819,0,0,1-1.622-4.034Zm3.62.226a4.325,4.325,0,0,0,.5,2.363,1.682,1.682,0,0,0,1.493.752q1.934,0,1.977-2.976v-.365q0-3.126-2-3.126-1.815,0-1.966,2.7ZM105.811,6.5h3.824l-2.986,3.373-2.954-.005Zm10.044,4.877.118,1.364a3.942,3.942,0,0,1,3.319-1.579A3.316,3.316,0,0,1,122,12.247a5.165,5.165,0,0,1,.929,3.266V23H119.3V15.663a1.961,1.961,0,0,0-.354-1.294,1.64,1.64,0,0,0-1.289-.414,1.726,1.726,0,0,0-1.579.838V23h-3.62V11.377Zm25.352,5.9a7.009,7.009,0,0,1-1.219,4.324,3.909,3.909,0,0,1-3.292,1.617,3.351,3.351,0,0,1-2.632-1.171v5.425h-3.62V11.377h3.384l.107,1.074a3.351,3.351,0,0,1,2.739-1.289,3.941,3.941,0,0,1,3.341,1.584,7.1,7.1,0,0,1,1.192,4.356Zm-3.62-.226q0-3.094-1.8-3.094a1.7,1.7,0,0,0-1.719.924v4.576a1.759,1.759,0,0,0,1.74.967q1.729,0,1.783-2.986Zm10.839,6.166a5.975,5.975,0,0,1-4.329-1.6,5.509,5.509,0,0,1-1.654-4.152v-.3a7.138,7.138,0,0,1,.661-3.147,4.834,4.834,0,0,1,1.928-2.111,5.821,5.821,0,0,1,3.008-.747,5.031,5.031,0,0,1,3.867,1.52,5.973,5.973,0,0,1,1.418,4.238v1.407h-7.2a2.609,2.609,0,0,0,.849,1.536,2.525,2.525,0,0,0,1.7.559,3.254,3.254,0,0,0,2.686-1.2l1.654,1.955a4.624,4.624,0,0,1-1.917,1.488A6.48,6.48,0,0,1,148.425,23.215Zm-.408-9.26q-1.59,0-1.891,2.105h3.652v-.279a1.793,1.793,0,0,0-.44-1.348A1.753,1.753,0,0,0,148.017,13.955Zm13.793.7-1.192-.086a2.142,2.142,0,0,0-2.191,1.074V23h-3.62V11.377H158.2l.118,1.493a2.8,2.8,0,0,1,2.546-1.708,3.53,3.53,0,0,1,1.01.129Zm7.391,5.081a.836.836,0,0,0-.483-.741,7.353,7.353,0,0,0-1.837-.58,8.376,8.376,0,0,1-2.234-.79,3.743,3.743,0,0,1-1.343-1.187,2.835,2.835,0,0,1-.462-1.6,3.212,3.212,0,0,1,1.321-2.637,5.443,5.443,0,0,1,3.459-1.037,6.03,6.03,0,0,1,3.7,1.042,3.258,3.258,0,0,1,1.4,2.739h-3.631q0-1.4-1.472-1.4a1.459,1.459,0,0,0-.956.317.981.981,0,0,0-.387.79.9.9,0,0,0,.473.784,4.466,4.466,0,0,0,1.509.494,13.042,13.042,0,0,1,1.821.462q2.621.9,2.621,3.233a3.044,3.044,0,0,1-1.413,2.589,6.2,6.2,0,0,1-3.658,1,6.322,6.322,0,0,1-2.664-.537,4.455,4.455,0,0,1-1.826-1.461,3.308,3.308,0,0,1-.655-1.944h3.384a1.4,1.4,0,0,0,.537,1.176,2.209,2.209,0,0,0,1.321.371,1.738,1.738,0,0,0,1.112-.3A.962.962,0,0,0,169.2,19.734Zm4.727-2.653a6.86,6.86,0,0,1,.677-3.1,4.84,4.84,0,0,1,1.944-2.089,5.856,5.856,0,0,1,2.976-.73,5.344,5.344,0,0,1,4.114,1.617,6.2,6.2,0,0,1,1.5,4.4v.129a6.019,6.019,0,0,1-1.509,4.313,5.359,5.359,0,0,1-4.087,1.6,5.42,5.42,0,0,1-3.985-1.488,5.819,5.819,0,0,1-1.622-4.034Zm3.62.226a4.325,4.325,0,0,0,.5,2.363,1.682,1.682,0,0,0,1.493.752q1.934,0,1.977-2.976v-.365q0-3.126-2-3.126-1.815,0-1.966,2.7Zm12.515-5.93.118,1.364a3.942,3.942,0,0,1,3.319-1.579,3.316,3.316,0,0,1,2.712,1.085,5.165,5.165,0,0,1,.929,3.266V23H193.51V15.663a1.961,1.961,0,0,0-.354-1.294,1.64,1.64,0,0,0-1.289-.414,1.726,1.726,0,0,0-1.579.838V23h-3.62V11.377ZM205.691,23a4.088,4.088,0,0,1-.344-1.042,3.366,3.366,0,0,1-2.793,1.257,4.124,4.124,0,0,1-2.793-.994,3.163,3.163,0,0,1-1.149-2.5,3.251,3.251,0,0,1,1.4-2.857,7.114,7.114,0,0,1,4.061-.967h1.117v-.615q0-1.608-1.386-1.608a1.133,1.133,0,0,0-1.289,1.274h-3.62a3.245,3.245,0,0,1,1.434-2.736,6.027,6.027,0,0,1,3.658-1.051,5.284,5.284,0,0,1,3.513,1.085,3.772,3.772,0,0,1,1.321,2.976v5.146a5.269,5.269,0,0,0,.494,2.449V23Zm-2.267-2.363a2.019,2.019,0,0,0,1.123-.29,1.818,1.818,0,0,0,.639-.655V17.833h-1.053q-1.891,0-1.891,1.7a1.036,1.036,0,0,0,.333.8A1.205,1.205,0,0,0,203.425,20.637ZM222.847,23a4.088,4.088,0,0,1-.344-1.042,3.366,3.366,0,0,1-2.793,1.257,4.124,4.124,0,0,1-2.793-.994,3.163,3.163,0,0,1-1.149-2.5,3.251,3.251,0,0,1,1.4-2.857,7.114,7.114,0,0,1,4.061-.967h1.117v-.615q0-1.608-1.386-1.608a1.133,1.133,0,0,0-1.289,1.274h-3.62a3.245,3.245,0,0,1,1.434-2.736,6.027,6.027,0,0,1,3.658-1.051,5.284,5.284,0,0,1,3.513,1.085,3.772,3.772,0,0,1,1.321,2.976v5.146a5.269,5.269,0,0,0,.494,2.449V23Zm-2.267-2.363a2.019,2.019,0,0,0,1.123-.29,1.818,1.818,0,0,0,.639-.655V17.833h-1.053q-1.891,0-1.891,1.7a1.036,1.036,0,0,0,.333.8A1.205,1.205,0,0,0,220.58,20.637Zm23.665-3.362a7.009,7.009,0,0,1-1.219,4.324,3.909,3.909,0,0,1-3.292,1.617,3.351,3.351,0,0,1-2.632-1.171v5.425h-3.62V11.377h3.384l.107,1.074a3.351,3.351,0,0,1,2.739-1.289,3.941,3.941,0,0,1,3.341,1.584,7.1,7.1,0,0,1,1.192,4.356Zm-3.62-.226q0-3.094-1.8-3.094a1.7,1.7,0,0,0-1.719.924v4.576a1.759,1.759,0,0,0,1.74.967q1.729,0,1.783-2.986Zm10.839,6.166a5.975,5.975,0,0,1-4.329-1.6,5.509,5.509,0,0,1-1.654-4.152v-.3a7.138,7.138,0,0,1,.661-3.147,4.834,4.834,0,0,1,1.928-2.111,5.821,5.821,0,0,1,3.008-.747,5.031,5.031,0,0,1,3.867,1.52,5.973,5.973,0,0,1,1.418,4.238v1.407h-7.2a2.609,2.609,0,0,0,.849,1.536,2.525,2.525,0,0,0,1.7.559,3.254,3.254,0,0,0,2.686-1.2l1.654,1.955a4.624,4.624,0,0,1-1.917,1.488A6.48,6.48,0,0,1,251.464,23.215Zm-.408-9.26q-1.59,0-1.891,2.105h3.652v-.279a1.793,1.793,0,0,0-.44-1.348A1.753,1.753,0,0,0,251.056,13.955Zm13.793.7-1.192-.086a2.142,2.142,0,0,0-2.191,1.074V23h-3.62V11.377h3.395l.118,1.493a2.8,2.8,0,0,1,2.546-1.708,3.53,3.53,0,0,1,1.01.129Zm7.391,5.081a.836.836,0,0,0-.483-.741,7.353,7.353,0,0,0-1.837-.58,8.376,8.376,0,0,1-2.234-.79,3.743,3.743,0,0,1-1.343-1.187,2.834,2.834,0,0,1-.462-1.6A3.212,3.212,0,0,1,267.2,12.2a5.443,5.443,0,0,1,3.459-1.037,6.03,6.03,0,0,1,3.7,1.042,3.258,3.258,0,0,1,1.4,2.739h-3.631q0-1.4-1.472-1.4a1.459,1.459,0,0,0-.956.317.981.981,0,0,0-.387.79.9.9,0,0,0,.473.784,4.466,4.466,0,0,0,1.509.494,13.043,13.043,0,0,1,1.821.462q2.621.9,2.621,3.233a3.044,3.044,0,0,1-1.413,2.589,6.2,6.2,0,0,1-3.658,1A6.322,6.322,0,0,1,268,22.678a4.455,4.455,0,0,1-1.826-1.461,3.308,3.308,0,0,1-.655-1.944H268.9a1.4,1.4,0,0,0,.537,1.176,2.209,2.209,0,0,0,1.321.371,1.738,1.738,0,0,0,1.112-.3A.962.962,0,0,0,272.239,19.734Zm4.727-2.653a6.86,6.86,0,0,1,.677-3.1,4.84,4.84,0,0,1,1.944-2.089,5.856,5.856,0,0,1,2.976-.73,5.344,5.344,0,0,1,4.114,1.617,6.2,6.2,0,0,1,1.5,4.4v.129a6.019,6.019,0,0,1-1.509,4.313,5.359,5.359,0,0,1-4.087,1.6,5.42,5.42,0,0,1-3.985-1.488,5.819,5.819,0,0,1-1.622-4.034Zm3.62.226a4.325,4.325,0,0,0,.5,2.363,1.682,1.682,0,0,0,1.493.752q1.934,0,1.977-2.976v-.365q0-3.126-2-3.126-1.815,0-1.966,2.7Zm12.515-5.93.118,1.364a3.942,3.942,0,0,1,3.319-1.579,3.316,3.316,0,0,1,2.712,1.085,5.165,5.165,0,0,1,.929,3.266V23h-3.631V15.663a1.961,1.961,0,0,0-.354-1.294,1.64,1.64,0,0,0-1.289-.414,1.726,1.726,0,0,0-1.579.838V23h-3.62V11.377ZM308.73,23a4.087,4.087,0,0,1-.344-1.042,3.366,3.366,0,0,1-2.793,1.257,4.124,4.124,0,0,1-2.793-.994,3.163,3.163,0,0,1-1.149-2.5,3.251,3.251,0,0,1,1.4-2.857,7.114,7.114,0,0,1,4.061-.967h1.117v-.615q0-1.608-1.386-1.608a1.133,1.133,0,0,0-1.289,1.274h-3.62a3.245,3.245,0,0,1,1.434-2.736,6.027,6.027,0,0,1,3.658-1.051,5.284,5.284,0,0,1,3.513,1.085,3.772,3.772,0,0,1,1.321,2.976v5.146a5.269,5.269,0,0,0,.494,2.449V23Zm-2.267-2.363a2.019,2.019,0,0,0,1.123-.29,1.818,1.818,0,0,0,.639-.655V17.833h-1.053q-1.891,0-1.891,1.7a1.036,1.036,0,0,0,.333.8A1.205,1.205,0,0,0,306.464,20.637Z" transform="translate(278 10771.205)" fill="#12263f"/>
    <g id="Grupo_869933" data-name="Grupo 869933" transform="translate(624.753 10748.274)">
      <g id="Grupo_869932" data-name="Grupo 869932" clip-path="url(#clip-path)">
        <path id="Trazado_605036" data-name="Trazado 605036" d="M75.423,71.316c.073-.213.024-.492.288-.619v-2.34c-.358,0-.33-.314-.394-.52a7.607,7.607,0,0,0-1.977-3.118q-6.487-6.492-12.978-12.979a6.514,6.514,0,0,0-.479-.451A1.229,1.229,0,0,0,58,51.312c-.836.736-.838.738-1.639-.062-1.225-1.222-2.453-2.442-3.669-3.673-.6-.6-.606-.752-.117-1.436a28.515,28.515,0,0,0,1.649-30.808,27.113,27.113,0,0,0-4.332-5.773,28.482,28.482,0,0,0-8.9-6.162A27.8,27.8,0,0,0,28.1,1,27.866,27.866,0,0,0,11.814,7.147a27.747,27.747,0,0,0-10.6,19.112,27.622,27.622,0,0,0,6.578,21.61A27.56,27.56,0,0,0,26.3,57.737a27.969,27.969,0,0,0,19.717-5.084c.895-.621.966-.635,1.718.113,1.261,1.256,2.524,2.509,3.772,3.778.256.26.384.426.395.591l.058.058-.068.049a1.411,1.411,0,0,1-.349.52c-.875.989-.87,1.441.1,2.413q5.083,5.1,10.187,10.186c1.209,1.2,2.364,2.46,3.654,3.581a7.225,7.225,0,0,0,2.2,1.275c.224.086.56.079.568.454h2.194c.358-.112.721-.209,1.071-.34a6.233,6.233,0,0,0,3.906-4.014m-45.9-15.683a26.123,26.123,0,1,1,26.15-26.088,26.143,26.143,0,0,1-26.15,26.088m22.789-1.589C51.3,53.028,50.293,52,49.254,51c-.337-.323-.319-.509.018-.8.478-.407.92-1.2,1.374-1.2s.926.762,1.375,1.206c1.006.993,2,1.995,3,2.994.119.119.231.245.375.4l-.236.28c-1.377,1.631-1.377,1.631-2.85.158m14.941,18.38a6.092,6.092,0,0,1-.707-.632Q60.37,65.623,54.189,59.458c-.42-.417-.471-.647-.018-1.082,1.476-1.416,2.914-2.871,4.343-4.335.333-.342.528-.348.869-.006q6.338,6.37,12.7,12.717a3.909,3.909,0,0,1,1.145,3.054,3.51,3.51,0,0,1-2.051,2.983,3.589,3.589,0,0,1-3.921-.365" transform="translate(-0.858 -0.809)"/>
        <path id="Trazado_605037" data-name="Trazado 605037" d="M71.071,62.268q-5.8-5.776-11.585-11.576c-1.187-1.186-1.59-1.2-2.764-.011-.32.325-.473.316-.782,0-1.325-1.363-2.659-2.719-4.037-4.027-.453-.43-.433-.679-.084-1.175a27.946,27.946,0,0,0,4.336-24.765A28.648,28.648,0,1,0,36.566,56.2a29.136,29.136,0,0,0,9.046-4.448c.2-.149.382-.478.726-.13,1.538,1.557,3.094,3.1,4.7,4.706-.01-.164-.139-.331-.395-.591-1.247-1.269-2.511-2.522-3.772-3.777-.752-.749-.823-.735-1.718-.114a27.968,27.968,0,0,1-19.717,5.084A27.56,27.56,0,0,1,6.936,47.06,27.623,27.623,0,0,1,.358,25.45a27.749,27.749,0,0,1,10.6-19.112A27.866,27.866,0,0,1,27.242.191a27.8,27.8,0,0,1,12.889,2.4,28.482,28.482,0,0,1,8.9,6.162,27.122,27.122,0,0,1,4.332,5.773,28.514,28.514,0,0,1-1.649,30.808c-.488.683-.479.832.117,1.436C53.052,48,54.279,49.219,55.5,50.441c.8.8.8.8,1.639.062a1.229,1.229,0,0,1,1.881-.022,6.513,6.513,0,0,1,.479.451Q65.993,57.42,72.481,63.91a7.608,7.608,0,0,1,1.977,3.118c.064.205.035.521.394.52-.539-2.277-2.223-3.729-3.781-5.28" transform="translate(0 0)"/>
        <path id="Trazado_605038" data-name="Trazado 605038" d="M336.3,379.909a7.223,7.223,0,0,1-2.2-1.275c-1.29-1.121-2.445-2.378-3.654-3.581q-5.106-5.08-10.186-10.186c-.967-.971-.973-1.423-.1-2.413a1.408,1.408,0,0,0,.349-.52,2.617,2.617,0,0,0-.327.251c-1.234,1.239-1.234,1.6-.018,2.812q5.971,5.971,11.937,11.948c1.39,1.4,2.723,2.857,4.747,3.349.012,0,.015.044.022.068-.008-.375-.344-.368-.568-.454" transform="translate(-269.478 -305.502)"/>
        <path id="Trazado_605039" data-name="Trazado 605039" d="M42.652,16.531A26.123,26.123,0,1,0,68.72,42.69,26.073,26.073,0,0,0,42.652,16.531m-.162,49.76A23.636,23.636,0,1,1,66.233,42.732,23.627,23.627,0,0,1,42.49,66.291" transform="translate(-13.905 -13.954)" fill="#fe9711"/>
        <path id="Trazado_605040" data-name="Trazado 605040" d="M359.257,355.776a3.908,3.908,0,0,0-1.145-3.054q-6.346-6.362-12.7-12.717c-.34-.342-.535-.335-.869.006-1.429,1.464-2.867,2.919-4.343,4.335-.453.435-.4.665.018,1.082q6.2,6.149,12.358,12.334a6.1,6.1,0,0,0,.707.632,3.589,3.589,0,0,0,3.921.365,3.51,3.51,0,0,0,2.051-2.983" transform="translate(-286.889 -286.778)" fill="#78767f"/>
        <path id="Trazado_605041" data-name="Trazado 605041" d="M314.979,314.008l.236-.28c-.145-.154-.257-.28-.375-.4-1-1-2-2-3-2.994-.449-.443-.914-1.2-1.375-1.206s-.9.791-1.374,1.2c-.338.287-.356.474-.018.8,1.039.993,2.042,2.025,3.058,3.041,1.473,1.473,1.473,1.473,2.85-.158" transform="translate(-260.675 -260.931)" fill="#ed8600"/>
        <path id="Trazado_605042" data-name="Trazado 605042" d="M56.124,32.487A23.636,23.636,0,1,0,79.709,56.2,23.589,23.589,0,0,0,56.124,32.487m-.153,44.785A21.149,21.149,0,1,1,77.222,56.144,21.141,21.141,0,0,1,55.971,77.272" transform="translate(-27.38 -27.421)"/>
        <path id="Trazado_605043" data-name="Trazado 605043" d="M69.585,48.442a21.149,21.149,0,1,0,21.107,21.17,21.1,21.1,0,0,0-21.107-21.17M81.965,84.3c-.005,1.022-.457,1.459-1.484,1.46q-5.481.007-10.963,0-5.408,0-10.817,0c-1.195,0-1.637-.429-1.619-1.635a57.075,57.075,0,0,1,.1-6.642A5.963,5.963,0,0,1,61.7,72.31c1.137-.353,2.288-.662,3.432-.992a1.235,1.235,0,0,0,.457-1.934,6.35,6.35,0,0,1-2.258-5.448c.02-.364-.062-.573-.449-.681a1.105,1.105,0,0,1-.8-1.032c-.424-4.614,2.156-7.56,5.36-8.5a7.422,7.422,0,0,1,9.533,6.806c.023.535.02,1.072.013,1.607a1.052,1.052,0,0,1-.713,1.084c-.455.137-.526.383-.51.792a6.292,6.292,0,0,1-2.227,5.319c-.426.363-.17.816-.257,1.222-.14.652.341.674.761.793,1.215.344,2.436.67,3.634,1.068a6.082,6.082,0,0,1,4.281,5.753c.051,2.045.024,4.093.014,6.139" transform="translate(-40.849 -40.889)" fill="#fed322"/>
        <path id="Trazado_605044" data-name="Trazado 605044" d="M124.424,99.3c-1.2-.4-2.419-.723-3.634-1.068-.42-.119-.9-.14-.761-.793.087-.406-.169-.859.257-1.222a6.293,6.293,0,0,0,2.227-5.319c-.016-.409.055-.655.51-.792a1.052,1.052,0,0,0,.713-1.084c.007-.536.01-1.072-.013-1.607a7.422,7.422,0,0,0-9.533-6.806c-3.2.945-5.784,3.89-5.36,8.5a1.106,1.106,0,0,0,.8,1.032c.387.108.469.317.449.681a6.35,6.35,0,0,0,2.258,5.448,1.235,1.235,0,0,1-.457,1.934c-1.144.33-2.295.64-3.432.992a5.963,5.963,0,0,0-4.515,5.175,57.04,57.04,0,0,0-.1,6.642c-.018,1.206.424,1.634,1.619,1.635q5.408,0,10.817,0,5.482,0,10.963,0c1.027,0,1.478-.438,1.483-1.46.01-2.046.037-4.094-.014-6.139a6.082,6.082,0,0,0-4.281-5.753M111.735,87.791c-.347-.014-.47-.119-.429-.481a4.977,4.977,0,0,1,4.986-4.493,4.919,4.919,0,0,1,4.876,3.921c.063.273.19.7-.055.808-.319.141-.522-.265-.687-.512-.2-.3-.33-.651-.51-.967a1.236,1.236,0,0,0-1.954-.494q-.768.491-1.515,1.016a7.359,7.359,0,0,1-4.713,1.2m.838,3.938c-.064-1.39-.066-1.4,1.3-1.562a8.606,8.606,0,0,0,3.964-1.537c.314-.218.5-.286.739.1a3.017,3.017,0,0,0,.713.722c.733.578.74.568.739,1.507,0,2.339-1.088,3.808-3.107,4.2a3.71,3.71,0,0,1-4.35-3.432m2.475,6.235c.007-.275.065-.428.394-.311a4.477,4.477,0,0,0,1.71-.015c.275-.062.386,0,.4.308.02.616-.157,1.267.289,1.821.1.123-.019.22-.114.295-.114.09-.232.175-.348.262-1.089.817-1.082.807-2.188,0-.358-.261-.593-.45-.266-.936.278-.413.112-.946.125-1.426m10.657,12.215c-1.963.047-1.963.06-1.963-1.882,0-.852-.015-1.705.007-2.557.01-.383-.064-.551-.509-.564-1.987-.059-1.987-.075-1.987,1.935,0,.8-.028,1.609.01,2.411.024.5-.111.672-.637.659-1.46-.036-2.922-.013-4.383-.013s-2.923-.017-4.383.01c-.455.009-.581-.132-.572-.578.028-1.266-.008-2.533.019-3.8.01-.456-.092-.626-.593-.627-1.9-.007-1.9-.027-1.9,1.87,0,.877-.015,1.754.007,2.63.009.374-.1.525-.491.5a9.791,9.791,0,0,0-1.46,0c-.486.043-.558-.177-.551-.594.021-1.436-.007-2.874.013-4.31a3.739,3.739,0,0,1,2.715-3.656,5.5,5.5,0,0,0,.838-.243,2.692,2.692,0,0,1,3.444.621,17.88,17.88,0,0,0,2.028,1.55,1.328,1.328,0,0,0,1.857.012c1.058-.779,2.113-1.564,3.151-2.371a.966.966,0,0,1,.992-.213c.76.252,1.542.44,2.3.691a3.615,3.615,0,0,1,2.568,3.445c.032,1.509,0,3.02.02,4.529.006.411-.12.529-.534.539" transform="translate(-87.604 -67.779)"/>
        <path id="Trazado_605045" data-name="Trazado 605045" d="M139.89,216.722a3.615,3.615,0,0,0-2.568-3.445c-.76-.252-1.542-.44-2.3-.691a.966.966,0,0,0-.992.213c-1.038.807-2.092,1.591-3.151,2.371a1.328,1.328,0,0,1-1.857-.012,17.877,17.877,0,0,1-2.028-1.55,2.692,2.692,0,0,0-3.444-.621,5.5,5.5,0,0,1-.838.243A3.739,3.739,0,0,0,120,216.885c-.02,1.437.008,2.874-.013,4.31-.006.417.065.637.552.594a9.792,9.792,0,0,1,1.46,0c.392.024.5-.126.491-.5-.022-.876-.007-1.753-.007-2.63,0-1.9,0-1.877,1.9-1.87.5,0,.6.172.593.627-.027,1.266.009,2.533-.019,3.8-.01.446.116.587.572.578,1.461-.028,2.922-.01,4.383-.01s2.923-.024,4.383.013c.527.013.661-.161.637-.659-.039-.8-.01-1.607-.01-2.411,0-2.011,0-1.995,1.987-1.935.445.013.519.181.509.564-.022.852-.007,1.7-.007,2.557,0,1.942,0,1.929,1.963,1.882.414-.01.54-.128.534-.539-.022-1.51.013-3.02-.02-4.529" transform="translate(-101.274 -179.391)" fill="#3d99e1"/>
        <path id="Trazado_605046" data-name="Trazado 605046" d="M164.383,139.3c2.02-.4,3.106-1.865,3.107-4.2,0-.939-.007-.929-.739-1.507a3.02,3.02,0,0,1-.713-.722c-.239-.384-.426-.316-.739-.1a8.606,8.606,0,0,1-3.964,1.537c-1.368.159-1.367.171-1.3,1.562a3.71,3.71,0,0,0,4.35,3.432" transform="translate(-135.064 -111.922)" fill="#fed9a9"/>
        <path id="Trazado_605047" data-name="Trazado 605047" d="M158.635,99.162a1.236,1.236,0,0,1,1.954.494c.181.317.309.666.51.967.165.247.368.652.687.512.245-.108.118-.535.055-.808a4.919,4.919,0,0,0-4.876-3.921,4.977,4.977,0,0,0-4.986,4.493c-.041.362.082.467.429.481a7.358,7.358,0,0,0,4.712-1.2q.746-.524,1.515-1.016" transform="translate(-128.276 -81.368)" fill="#3e3d42"/>
        <path id="Trazado_605048" data-name="Trazado 605048" d="M174.641,194.062c1.106.806,1.1.816,2.188,0,.116-.087.234-.172.348-.262.095-.075.213-.172.114-.295-.446-.554-.269-1.205-.289-1.821-.01-.308-.121-.37-.4-.308a4.477,4.477,0,0,1-1.71.015c-.329-.118-.387.036-.394.311-.012.48.153,1.013-.125,1.426-.328.486-.092.676.266.936" transform="translate(-147.055 -161.515)" fill="#fdd8a9"/>
      </g>
    </g>
  </g>
</svg>
