<svg xmlns="http://www.w3.org/2000/svg" xmlns:xlink="http://www.w3.org/1999/xlink" width="49.597" height="48.931" viewBox="0 0 49.597 48.931"><defs><clipPath id="a"><rect width="49.597" height="48.931" fill="#4a2efc"/></clipPath></defs><g transform="translate(0)" clip-path="url(#a)"><path d="M1.063,119.256c1.279,1.109,2.576,2.2,3.855,3.308a5.359,5.359,0,0,1,.819.948c1.123,1.558,2.3,3.074,3.428,4.629.393.543.4.6.047,1.159a3.288,3.288,0,0,0,2.062,5.022c.441.1.5.354.468.7a3.162,3.162,0,0,0,2.393,3.179,1.627,1.627,0,0,1,.775.3.258.258,0,0,1,.125.126,1.668,1.668,0,0,1,.3.77,3.187,3.187,0,0,0,3.281,2.47c.4-.015.528.137.621.489a3.3,3.3,0,0,0,5.579,1.556c.556-.533.556-.533,1.2-.069a3.278,3.278,0,0,0,5.25-2.117c.076-.433.228-.665.716-.736a3.186,3.186,0,0,0,2.773-2.767.744.744,0,0,1,.731-.722,3.219,3.219,0,0,0,2.757-2.73c.11-.625.12-.634.745-.746a3.3,3.3,0,0,0,2.474-4.677,1.051,1.051,0,0,1,.006-1c.966-1.934,1.867-3.9,2.8-5.848a1.384,1.384,0,0,1,.347-.458q2.1-1.822,4.217-3.629a1.744,1.744,0,0,0,.552-.662.908.908,0,0,0-.214-.938c-1.2-1.584-2.415-3.15-3.625-4.724q-2.154-2.8-4.312-5.6c-.572-.738-.878-.817-1.672-.323-1.534.954-3.053,1.934-4.575,2.909a2.072,2.072,0,0,1-1.182.341c-1.969-.011-3.938,0-5.907-.007a3.785,3.785,0,0,0-1.1.153c-1.424.42-2.86.8-4.277,1.242a2.456,2.456,0,0,1-1.469.017c-1.458-.417-2.925-.8-4.388-1.2a4.254,4.254,0,0,1-1.183-.538c-1.5-.956-2.989-1.914-4.49-2.862a1.68,1.68,0,0,0-.835-.36,1.037,1.037,0,0,0-.838.5c-1.969,2.454-3.952,4.9-5.921,7.35-1.07,1.333-2.173,2.641-3.206,4-.049.065-.1.127-.2.1v.581c.456.161.72.569,1.063.866m11.087,13.319a1.467,1.467,0,0,1-1.466-.728,1.378,1.378,0,0,1,.107-1.63,13.846,13.846,0,0,1,1.466-1.467,1.357,1.357,0,0,1,1.54-.175,1.387,1.387,0,0,1,.835,1.278c-.005.11,0,.191-.014.271a4.509,4.509,0,0,1-2.468,2.451m3.771,3.644a1.206,1.206,0,0,1-.892.308,1.412,1.412,0,0,1-1.346-.85,1.385,1.385,0,0,1,.235-1.617c.776-.817,1.575-1.612,2.39-2.391a1.457,1.457,0,0,1,2.012-.023,1.441,1.441,0,0,1,.154,2.007c-.81.892-1.689,1.723-2.553,2.566m3.584,3.414a1.379,1.379,0,0,1-1.609.27,1.351,1.351,0,0,1-.878-1.193,1.574,1.574,0,0,1,.436-1.222c.751-.752,1.5-1.511,2.257-2.252a1.484,1.484,0,1,1,2.12,2.077c-.756.792-1.534,1.563-2.325,2.32m5.414,1.485a7.01,7.01,0,0,1-1.745,1.781,1.119,1.119,0,0,1-.736.193,1.422,1.422,0,0,1-1.316-.823,1.356,1.356,0,0,1,.145-1.545,13.909,13.909,0,0,1,1.463-1.471,1.421,1.421,0,0,1,1.864.027,1.436,1.436,0,0,1,.326,1.836m11.522-30.813q1.7-1.067,3.381-2.156c.2-.133.306-.129.462.074q3.4,4.436,6.811,8.86c.057.074.113.15.181.241-.073.07-.127.126-.186.177-1,.863-2.009,1.721-3,2.593-.183.16-.27.134-.412-.047q-3.655-4.666-7.327-9.318c-.178-.226-.1-.3.095-.424m-15.588,2.853q3.227-.916,6.447-1.854a2.167,2.167,0,0,1,.617-.087c1.986,0,3.971.007,5.957-.005a.714.714,0,0,1,.638.316q3.878,4.954,7.783,9.886a.673.673,0,0,1,.084.848c-.822,1.671-1.612,3.357-2.415,5.04a1.068,1.068,0,0,1-.423-.348q-5.105-5.1-10.2-10.209a1.73,1.73,0,0,0-1.183-.557c-1.611-.1-3.221-.205-4.829-.332a1.159,1.159,0,0,0-1.212.679q-1.277,2.3-2.59,4.583a1.485,1.485,0,0,1-2.768-1,2.07,2.07,0,0,1,.234-.577c1.131-2,2.271-4,3.4-6.011a.713.713,0,0,1,.46-.378m-4.962-1.581a.442.442,0,0,1,.538-.153c.7.2,1.393.4,2.1.571.338.083.436.161.228.519q-1.779,3.07-3.506,6.171a3.434,3.434,0,1,0,5.963,3.405q1.129-1.94,2.211-3.908a.552.552,0,0,1,.64-.334c1.172.109,2.348.18,3.524.249a.892.892,0,0,1,.633.275Q33.823,124,39.44,129.607a1.5,1.5,0,1,1-2.1,2.116q-2.991-3-5.962-6.02a3.179,3.179,0,0,0-.427-.391.965.965,0,0,0-1.2.1.938.938,0,0,0-.131,1.233,3.039,3.039,0,0,0,.354.4q3,3.03,5.992,6.059a1.49,1.49,0,0,1-.588,2.573,1.518,1.518,0,0,1-1.567-.508q-1.954-1.983-3.914-3.96a1.515,1.515,0,0,0-.533-.406.97.97,0,0,0-1.121.341.928.928,0,0,0,0,1.127,2.978,2.978,0,0,0,.357.393c1.3,1.32,2.623,2.627,3.913,3.961a1.482,1.482,0,0,1-.621,2.537,1.461,1.461,0,0,1-1.5-.438c-.7-.711-1.405-1.425-2.112-2.133a1.01,1.01,0,0,0-1.493-.156c-.445.423-.4,1,.117,1.528.7.714,1.417,1.414,2.11,2.135a1.5,1.5,0,0,1,.063,2.166,1.524,1.524,0,0,1-2.169-.032.361.361,0,0,1-.129-.484,3.385,3.385,0,0,0-2.388-4.667c-.241-.067-.243-.158-.216-.369a3.381,3.381,0,0,0-3.132-3.881c-.26-.024-.3-.107-.317-.341a3.385,3.385,0,0,0-3.567-3.168,1.188,1.188,0,0,0-.3.021c-.251.068-.322-.036-.386-.27a3.389,3.389,0,0,0-5.339-1.916c-.233.164-.322.14-.48-.076q-1.659-2.262-3.345-4.5c-.146-.194-.178-.321-.006-.529q4.308-5.228,8.594-10.474M2.534,117.662q3.819-4.716,7.628-9.441c.119-.147.2-.262.424-.116,1.161.755,2.333,1.491,3.5,2.235a1.75,1.75,0,0,1,.181.154c-.074.094-.131.171-.192.246q-4.051,4.934-8.1,9.872c-.2.246-.306.218-.52.029-.955-.842-1.919-1.675-2.9-2.489-.23-.191-.181-.3-.026-.49" transform="translate(0 -96.113)" fill="#4a2efc"/><path d="M.546,242.731c1.243,1.078,2.5,2.143,3.74,3.224a6.546,6.546,0,0,1,1.054.992c1.282,1.739,2.566,3.477,3.866,5.2a.474.474,0,0,1,.006.694,3.412,3.412,0,0,0,2.02,5.364c.344.072.382.192.375.5A3.358,3.358,0,0,0,14.7,262.21a.605.605,0,0,1,.212.053,1.627,1.627,0,0,0-.775-.3,3.162,3.162,0,0,1-2.392-3.179c.033-.342-.027-.6-.469-.7a3.288,3.288,0,0,1-2.062-5.022c.352-.562.346-.616-.047-1.159-1.125-1.556-2.3-3.072-3.428-4.63a5.358,5.358,0,0,0-.819-.948c-1.28-1.109-2.576-2.2-3.855-3.308-.343-.3-.607-.7-1.063-.866a7.628,7.628,0,0,0,.546.579" transform="translate(0 -219.875)" fill="#4a2efc"/><path d="M.2,116.28c1.033-1.363,2.136-2.671,3.206-4,1.97-2.454,3.953-4.9,5.921-7.35a1.037,1.037,0,0,1,.838-.5,1.681,1.681,0,0,1,.835.36c1.5.948,2.994,1.906,4.49,2.862a4.259,4.259,0,0,0,1.183.538c1.463.4,2.93.786,4.388,1.2a2.457,2.457,0,0,0,1.469-.017c1.416-.445,2.853-.821,4.277-1.242a3.786,3.786,0,0,1,1.1-.153c1.969.005,3.938,0,5.906.007a2.073,2.073,0,0,0,1.182-.341c1.521-.976,3.04-1.955,4.575-2.909.794-.494,1.1-.415,1.672.323q2.164,2.794,4.312,5.6c1.21,1.573,2.429,3.14,3.625,4.724a.909.909,0,0,1,.213.938,1.743,1.743,0,0,1-.552.662q-2.117,1.805-4.217,3.629a1.382,1.382,0,0,0-.347.458c-.936,1.949-1.837,3.914-2.8,5.848a1.051,1.051,0,0,0-.006,1,3.3,3.3,0,0,1-2.474,4.677c-.626.111-.635.12-.745.746a3.219,3.219,0,0,1-2.757,2.73.744.744,0,0,0-.731.722,3.186,3.186,0,0,1-2.773,2.767c-.488.071-.64.3-.716.736a3.278,3.278,0,0,1-5.25,2.117c-.646-.464-.646-.464-1.2.069a3.3,3.3,0,0,1-5.579-1.556c-.092-.352-.218-.5-.621-.489a3.187,3.187,0,0,1-3.281-2.47,1.667,1.667,0,0,0-.3-.77.718.718,0,0,1,.053.227,3.391,3.391,0,0,0,3.632,3.119c.256-.013.325.042.367.287a3.222,3.222,0,0,0,1.069,1.9,3.426,3.426,0,0,0,4.86-.274c.287-.29.449-.341.8-.05a3.255,3.255,0,0,0,3.661.483,3.337,3.337,0,0,0,1.965-2.8c.019-.148-.068-.333.231-.377a3.355,3.355,0,0,0,3.26-3.218c.027-.163.043-.239.24-.266a3.371,3.371,0,0,0,3.244-3.184c.031-.214.07-.284.3-.306a3.408,3.408,0,0,0,2.795-5.008.6.6,0,0,1,.008-.613q1.4-2.915,2.782-5.838a2.187,2.187,0,0,1,.581-.752q2.082-1.774,4.149-3.565c.692-.6.739-1.018.189-1.734q-3.981-5.178-7.967-10.353c-.542-.7-.94-.772-1.69-.295-1.59,1.011-3.182,2.02-4.766,3.042a1.407,1.407,0,0,1-.812.228c-2.066-.009-4.132,0-6.2-.008a3.168,3.168,0,0,0-.9.124c-1.576.458-3.154.906-4.729,1.37a1.283,1.283,0,0,1-.753.009c-1.037-.295-2.089-.539-3.118-.858a9.834,9.834,0,0,1-2.6-.862c-1.583-1.022-3.178-2.027-4.769-3.038-.757-.481-1.134-.423-1.7.273-2.119,2.622-4.245,5.24-6.351,7.873-.966,1.207-2,2.358-2.871,3.643.1.027.148-.036.2-.1" transform="translate(0 -94.685)" fill="#4a2efc"/><path d="M323.163,29.938a1.772,1.772,0,0,0-.488.388q-3.137,3.128-6.265,6.263a2.373,2.373,0,0,0-.316.364.879.879,0,0,0-.032.963.928.928,0,0,0,.8.513,1.27,1.27,0,0,0,.939-.476q3.112-3.118,6.228-6.232a2.225,2.225,0,0,0,.372-.441.961.961,0,0,0-1.235-1.342" transform="translate(-286.87 -27.096)" fill="#4a2efc"/><path d="M131.409,30.226a1.11,1.11,0,0,0-.79-.349.979.979,0,0,0-.58,1.731q3.251,3.253,6.5,6.5a.975.975,0,1,0,1.367-1.379q-3.244-3.26-6.5-6.507" transform="translate(-117.749 -27.128)" fill="#4a2efc"/><path d="M260.908,43.336a.97.97,0,1,0-1.934,0q-.009,2.662,0,5.325a.972.972,0,1,0,1.935,0c.007-.887,0-1.775,0-2.662s.006-1.775,0-2.662" transform="translate(-235.146 -38.396)" fill="#4a2efc"/><path d="M259.965,1.937a.976.976,0,0,0,.97-.942.969.969,0,1,0-.97.942" transform="translate(-235.172 0)" fill="#4a2efc"/></g></svg>