<svg id="Grupo_845752" data-name="Grupo 845752" xmlns="http://www.w3.org/2000/svg" xmlns:xlink="http://www.w3.org/1999/xlink" width="82.67" height="82.707" viewBox="0 0 82.67 82.707">
  <defs>
    <clipPath id="clip-path">
      <rect id="Rectángulo_281020" data-name="Rectángulo 281020" width="82.67" height="82.707" fill="none"/>
    </clipPath>
  </defs>
  <g id="Grupo_845752-2" data-name="Grupo 845752" clip-path="url(#clip-path)">
    <path id="Trazado_583375" data-name="Trazado 583375" d="M73.514,17.657a1.518,1.518,0,0,0-.158,2.226,46.234,46.234,0,0,1,2.835,5.006c.242.5.139.647-.34.842Q70.043,28.086,64.259,30.5a.727.727,0,0,1-1.049-.291,6.6,6.6,0,0,0-2.944-2.173A6.582,6.582,0,0,0,61.888,24.5a34.836,34.836,0,0,0-.074-7.892,6.768,6.768,0,0,0-7.319-5.516,6.907,6.907,0,0,0-6.262,6.64c-.04,1.979-.031,3.959,0,5.938a6.95,6.95,0,0,0,1.724,4.354,8.038,8.038,0,0,0-2.515,1.667,6.809,6.809,0,0,0-1.969,4.721c-.021,1.09-.009,2.18,0,3.27,0,.3-.016.538-.372.667-.774.281-1.53.61-2.385.957v-.934q0-17.3-.02-34.6c0-.846.241-.933,1.011-.882A38.764,38.764,0,0,1,69.635,15.175c.8.848,1.157.9,2.189.4.654-1,.644-1.447-.17-2.272C59.615,1.114,45.28-2.823,28.857,2.007,12.556,6.8.82,22.194.047,39.121a41.2,41.2,0,0,0,6.9,25.164c.638.968,1.056,1.106,2.165.724a1.47,1.47,0,0,0,.145-2.216,38.437,38.437,0,0,1-6.1-15.965c-.17-1.158-.205-2.335-.338-3.5-.054-.48.129-.587.567-.583,2.6.023,5.209.025,7.814.035,2.521-.01,5.043-.026,7.564-.027,7.079,0,14.158,0,21.237-.012a1.6,1.6,0,0,1,1.277.52c1.458,1.5,2.948,2.969,4.432,4.444.825.82,1.185.868,2.2.336.641-.989.6-1.425-.221-2.258-1.09-1.1-2.169-2.213-3.292-3.279-.516-.49-.556-.694.178-.99,4.938-1.992,9.859-4.024,14.785-6.046q8.66-3.554,17.314-7.121c.567-.235.884-.3,1.123.426A38.412,38.412,0,0,1,75.878,58.5c-.06.124-.139.239-.209.357-.324-.1-.256-.389-.333-.579a6.762,6.762,0,0,0-4.009-4.008c-.426-.16-.53-.281-.335-.77a2.5,2.5,0,0,1,1.667-1.725,3.455,3.455,0,0,0,1.956-1.618,24.636,24.636,0,0,0,2.276-4.573,5.4,5.4,0,0,0-6.273-6.84,1.157,1.157,0,0,1-1.026-.236,5.321,5.321,0,0,0-5.174-.958,1.476,1.476,0,0,1-.991-.025,4.075,4.075,0,0,0-5.183,2.142,1.361,1.361,0,0,1-.683.7A4.043,4.043,0,0,0,55.45,45.69a1.3,1.3,0,0,1-.02,1.049,4.094,4.094,0,0,0,3.752,5.645,3.056,3.056,0,0,1,1.973,1.04c.314.285.409.635-.211.829a5.33,5.33,0,0,0-2.366,1.513c-.366.4-.565.364-.928-.007-1.826-1.865-3.679-3.7-5.53-5.544a1.494,1.494,0,0,0-2.273-.222A1.515,1.515,0,0,0,50.2,52.2q8.351,8.352,16.718,16.689c.547.543.607.815-.026,1.35a36.7,36.7,0,0,1-8.009,5.4,34.187,34.187,0,0,1-9.373,3.409c-1.14.254-2.311.364-3.459.586-.467.091-.605-.016-.595-.487.031-1.4.027-2.8.036-4.2q-.014-7.058-.028-14.115a12.4,12.4,0,0,0-24.774-1.036c-.014.171-.03.343-.046.514V73.877a33.256,33.256,0,0,1-5.2-3.929c-.846-.773-1.641-1.6-2.45-2.413a1.458,1.458,0,0,0-2.186-.324h0c-.627,1-.6,1.406.236,2.266C21.776,80.485,34.741,84.755,49.808,81.794A41.256,41.256,0,0,0,75.674,18.4c-.658-.992-1.049-1.125-2.16-.747M31.855,40c-3.831,0-7.662-.036-11.492.026-.937.015-1.114-.283-1.085-1.135A4.147,4.147,0,0,1,21.192,35.2a3.287,3.287,0,0,1,2.068-.7c1.943-.023,3.887-.039,5.829,0a4.07,4.07,0,0,1,3.953,4.12.771.771,0,0,1,.013.085c.053,1.3.053,1.3-1.2,1.3m7.454.013a24.853,24.853,0,0,0-2.753,0c-.637.038-.765-.209-.739-.784a6.849,6.849,0,0,0-2.89-6.183c-.474-.348-1.005-.617-1.51-.922.3-.484.638-.951.9-1.455a6.173,6.173,0,0,0,.745-3.059c-.062-2.29.239-4.6-.162-6.87a6.787,6.787,0,0,0-6.564-5.526c-1.807-.027-3.615-.013-5.423,0-1.119.006-1.61.509-1.616,1.644-.009,1.635-.006,3.271,0,4.906,0,1.095.288,1.446,1.378,1.738h6.194c.94-.009,1.882,0,2.821-.036.466-.019.65.1.635.6-.036,1.225.037,2.454-.026,3.677a3.84,3.84,0,0,1-2.223,3.477,4.075,4.075,0,0,1-6.01-3.372A1.531,1.531,0,0,0,20.678,26.2c-1.118.3-1.424.7-1.37,1.821A7.77,7.77,0,0,0,21,32.175a8,8,0,0,0-2.081,1.268,6.818,6.818,0,0,0-2.36,5.662c.037.7-.136.939-.878.911-1.717-.067-3.438-.037-5.157-.046-2.375.009-4.751.007-7.126.037-.519.007-.613-.187-.582-.661a38.632,38.632,0,0,1,8.718-22.393c.161-.2.351-.37.527-.554a36.337,36.337,0,0,1,10.7-8.784A38.783,38.783,0,0,1,39.3,2.855c.565-.037.668.148.668.658q-.017,17.9,0,35.807c0,.507-.1.718-.659.69M29.9,20.57c-.161.348-.724.133-1.1.136-1.89.019-3.784-.051-5.67.034-.942.042-1.125-.283-1.092-1.139.064-1.705.019-1.707,1.764-1.61a13.1,13.1,0,0,1,3.467.135,3.341,3.341,0,0,1,1.9,1.19,1.053,1.053,0,0,1,.193.166c.244.341.715.706.538,1.087m21.622-4.641a3.647,3.647,0,0,1,1.359-1.389,4.073,4.073,0,0,1,5.831,1.407c.242.446.258.664-.35.642-.97-.035-1.941-.027-2.911-.037-1.2.01-2.4.006-3.605.036-.649.016-.576-.26-.323-.66m-.553,3.937c-.007-.412.132-.543.539-.535,1.429.028,2.858.025,4.288.034.94-.009,1.882,0,2.821-.036.466-.019.65.1.635.6-.035,1.225.037,2.454-.026,3.677A3.839,3.839,0,0,1,57,27.088,4.075,4.075,0,0,1,51,23.811c-.083-1.31,0-2.63-.028-3.945M57.7,33.116,48.26,37.067c-.087-2.4-.375-4.723,2.036-6.14a4.135,4.135,0,0,1,2.2-.575c1.8.013,3.595-.01,5.392.01a3.922,3.922,0,0,1,3.089,1.478L57.7,33.116M23.878,57.792a9.47,9.47,0,0,1,7.29-6.565h0a9.608,9.608,0,0,1,11.542,9.7c.005,2.261-.016,4.521-.026,6.782v1.279a11.187,11.187,0,0,0-4.412-2.518c1.962-2.158,1.724-4.73,1.668-7.25a1.25,1.25,0,0,0-1.33-1.3,8.318,8.318,0,0,1-5.983-2.4,1.658,1.658,0,0,0-1.369-.363A5.541,5.541,0,0,0,26.2,60.263c-.132,2.126.016,4.2,1.446,5.948.109.134.127.25-.067.32h0a11.191,11.191,0,0,0-4.117,2.5V63.413a16.089,16.089,0,0,1,.419-5.621m13.3,4.077a3.955,3.955,0,0,1-2.666,3.99h0a4.082,4.082,0,0,1-5.552-3.468,13.535,13.535,0,0,1,.006-1.971,2.621,2.621,0,0,1,1.087-1.962,1.241,1.241,0,0,1,1.805-.009,8.048,8.048,0,0,0,4.233,1.93c1.075.13,1.271.593,1.088,1.489m4.8,18.081a39.475,39.475,0,0,1-12.332-1.841,41.2,41.2,0,0,1-5.559-2.252.862.862,0,0,1-.544-1.145,6.593,6.593,0,0,1,4.369-5.275,5.368,5.368,0,0,1,2.933-.491h0c2.163.028,4.353-.295,6.482.175a6.423,6.423,0,0,1,5.07,4.78,7.871,7.871,0,0,1,.293,3.281c.009.658-.013,1.319.038,1.974.046.586-.137.787-.752.793M60.6,48.346c-.035.385.332.96-.4,1.12s-1.484.395-2.049-.342a1.354,1.354,0,0,1-.038-1.681c.822-1.247.827-1.244,0-2.5a1.383,1.383,0,0,1,1-2.19c1.128-.157,1.37-.389,1.5-1.479a1.17,1.17,0,0,1,.508-.942,1.258,1.258,0,0,1,1.724-.038,1.681,1.681,0,0,0,1.988.087,2.613,2.613,0,0,1,3.55.85,1.43,1.43,0,0,0,1.882.5c2.027-.834,3.553-.07,4.1,2.036a2.623,2.623,0,0,1-.828,2.33A1.659,1.659,0,0,0,73,47.223a2.728,2.728,0,0,1-.852,1.641c-.1.1-.2.226-.362.167s-.143-.232-.144-.368c-.006-.688.012-1.376-.008-2.064a1.328,1.328,0,0,0-1.866-1.341,1.98,1.98,0,0,1-2.067-.277,1.246,1.246,0,0,0-1.59.149,1.056,1.056,0,0,1-1.159.254,1.39,1.39,0,0,0-1.722.766,1.472,1.472,0,0,1-1.264.742c-.9.073-1.28.555-1.361,1.452m8.271,2.814a2.643,2.643,0,0,1-2.027,2.465h0c-1.962.569-3.568-.888-3.446-3.127-.012-.368-.2-.909.075-1.065.618-.354,1.1-1.029,1.777-1.129,1.032-.153,2.079-.626,3.169-.082.284.141.479.165.468.531-.023.8.019,1.607-.015,2.408m3.448,13.149c-.81.922-1.572,1.888-2.339,2.849-.281.352-.479.457-.86.071q-4.314-4.36-8.673-8.674c-.335-.332-.289-.533.023-.811a3.165,3.165,0,0,1,1.351-.86,3.2,3.2,0,0,1,1.649-.358c1.742,0,3.484,0,5.226,0a4.13,4.13,0,0,1,4.313,4.308c0,.4-.017.8-.027,1.2a2.529,2.529,0,0,1-.663,2.277" transform="translate(0.001 0)"/>
    <path id="Trazado_583376" data-name="Trazado 583376" d="M214.166,26.387a4.734,4.734,0,0,1-.965-.852,38.014,38.014,0,0,0-9.813-7.471,38.562,38.562,0,0,0-12.964-4.133c-.882-.121-1.771-.138-2.653-.239-.546-.063-.74.155-.729.66,0,.2,0,.4,0,.6q0,16.734,0,33.468c0,.2,0,.4,0,.6.012.323.183.394.458.283.452-.181.911-.346,1.353-.555.406-.192.457-.553.459-.94.006-.889-.012-1.778.005-2.667a6.986,6.986,0,0,1,3.6-6.251c.562-.332.65-.571.288-1.117a7.1,7.1,0,0,1-1.139-4.165c.032-1.691-.006-3.384.01-5.076a7.123,7.123,0,1,1,14.245.033c.013,1.663-.025,3.327.011,4.99a7.278,7.278,0,0,1-1.2,4.321c-.294.44-.266.688.22.935a6.032,6.032,0,0,1,2,1.6.918.918,0,0,0,1.219.258c3.624-1.516,7.268-2.984,10.9-4.48.615-.253.694-.57.4-1.116-.763-1.413-1.527-2.825-2.406-4.171a2.622,2.622,0,0,1-.585-1.672c.042-.49.178-.905.722-1.043l-1.69-2.078a1.256,1.256,0,0,1-1.748.27" transform="translate(-144.089 -10.539)" fill="#fbe942"/>
    <path id="Trazado_583377" data-name="Trazado 583377" d="M212.858,24.841a38.764,38.764,0,0,0-25.932-12.282c-.769-.051-1.013.036-1.011.882q.045,17.3.02,34.6v.934c.855-.347,1.611-.676,2.385-.957.357-.129.374-.366.372-.667-.007-1.09-.019-2.181,0-3.271a6.808,6.808,0,0,1,1.969-4.721,8.029,8.029,0,0,1,2.514-1.667,6.952,6.952,0,0,1-1.724-4.354c-.031-1.979-.039-3.96,0-5.938a6.907,6.907,0,0,1,6.262-6.64,6.768,6.768,0,0,1,7.319,5.516,34.837,34.837,0,0,1,.074,7.892,6.583,6.583,0,0,1-1.622,3.538,6.6,6.6,0,0,1,2.944,2.173.727.727,0,0,0,1.049.291q5.783-2.417,11.593-4.772c.48-.195.582-.346.34-.842a46.209,46.209,0,0,0-2.835-5.005,1.518,1.518,0,0,1,.158-2.226c-.544.138-.68.554-.722,1.043a2.619,2.619,0,0,0,.585,1.672c.88,1.346,1.643,2.758,2.406,4.171.295.545.215.863-.4,1.116-3.633,1.5-7.277,2.964-10.9,4.48a.918.918,0,0,1-1.219-.259,6.041,6.041,0,0,0-2-1.6c-.486-.247-.514-.5-.22-.935a7.278,7.278,0,0,0,1.2-4.321c-.036-1.663,0-3.327-.011-4.99a7.123,7.123,0,1,0-14.245-.033c-.016,1.692.022,3.384-.011,5.076a7.1,7.1,0,0,0,1.139,4.165c.362.546.274.785-.288,1.117a6.986,6.986,0,0,0-3.6,6.251c-.017.889,0,1.778-.006,2.667,0,.387-.053.748-.459.94-.441.209-.9.373-1.353.555-.276.11-.446.04-.458-.283-.008-.2,0-.4,0-.6q0-16.734,0-33.468c0-.2.006-.4,0-.6-.012-.5.182-.722.728-.66.881.1,1.771.118,2.653.239a38.567,38.567,0,0,1,12.964,4.133,38.015,38.015,0,0,1,9.813,7.472,4.736,4.736,0,0,0,.965.852,1.256,1.256,0,0,0,1.748-.27h0c-1.032.492-1.391.445-2.189-.4" transform="translate(-143.223 -9.666)" fill="#fbe942"/>
    <path id="Trazado_583378" data-name="Trazado 583378" d="M23.366,211.279A19.551,19.551,0,0,1,25.03,212.9a32.063,32.063,0,0,0,5.168,4.258,1.8,1.8,0,0,0,.774.367c0-4.365,0-8.695-.007-13.026,0-.065.009-.128.012-.193a29.115,29.115,0,0,1-3.72-4.946A44.31,44.31,0,0,1,21.8,187.2c-2.428,0-4.857.012-7.285-.01-.651-.006-.885.153-.843.882a37.757,37.757,0,0,0,6.212,18.643,2.174,2.174,0,0,1,.5,1.6c-.078.425-.165.869-.738.9l1.7,2.2h0a1.3,1.3,0,0,1,2.017-.133" transform="translate(-10.532 -144.202)" fill="#00b3d7"/>
    <path id="Trazado_583379" data-name="Trazado 583379" d="M49.292,269.159c.809.813,1.6,1.641,2.45,2.413a33.257,33.257,0,0,0,5.2,3.929V261.932c-.07-.067-.135-.137-.2-.205,0,.065-.01.128-.012.193.01,4.331,0,8.66.007,13.026a1.8,1.8,0,0,1-.774-.367,32.066,32.066,0,0,1-5.168-4.258,19.622,19.622,0,0,0-1.664-1.619,1.3,1.3,0,0,0-2.017.133h0a1.458,1.458,0,0,1,2.186.324" transform="translate(-36.289 -201.625)" fill="#00b3d7"/>
    <path id="Trazado_583380" data-name="Trazado 583380" d="M19.319,207.506a2.172,2.172,0,0,0-.5-1.6,37.758,37.758,0,0,1-6.212-18.643c-.042-.729.192-.888.843-.882,2.428.022,4.857.007,7.285.009-.02-.072-.042-.143-.062-.215-2.6-.009-5.209-.012-7.814-.035-.437,0-.621.1-.567.583.132,1.164.167,2.341.338,3.5a38.437,38.437,0,0,0,6.1,15.965,1.47,1.47,0,0,1-.145,2.216c.573-.03.66-.473.738-.9" transform="translate(-9.463 -143.396)" fill="#00b3d7"/>
    <path id="Trazado_583381" data-name="Trazado 583381" d="M58.212,203.4a8.274,8.274,0,0,1,.578.754,12.63,12.63,0,0,1,25.1-1.181,16.7,16.7,0,0,1,.156,2.313c-.008,4.617,0,9.234-.005,13.851,0,.021,0,.043,0,.065a56.973,56.973,0,0,0,6.316.774,28.046,28.046,0,0,0,5.063-.05,13.61,13.61,0,0,1,1.451-.059c.058-.03.118-.057.175-.088a38.775,38.775,0,0,0,8.06-5.518c.379-.336.381-.589.041-.914-.186-.178-.364-.365-.546-.548q-7.992-7.993-15.983-15.986c-1.009-1.011-1.126-1.623-.552-2.715l-1.72-1.739c-.054.061-.11.122-.171.185-.934.454-1.478.364-2.374-.49-1.285-1.225-2.553-2.471-3.763-3.769a3.2,3.2,0,0,0-2.565-1.073c-8.907.034-17.813.02-26.72.019-.331,0-.662,0-.992-.011a2.8,2.8,0,0,1,.355.906,44.59,44.59,0,0,0,8.1,15.275" transform="translate(-38.333 -144.22)" fill="#48c9e3"/>
    <path id="Trazado_583382" data-name="Trazado 583382" d="M215.961,219.911q7.988,8,15.983,15.986c.182.182.36.37.547.547.34.325.338.578-.042.914a38.775,38.775,0,0,1-8.06,5.518c-.058.031-.117.058-.175.088.117,0,.234,0,.35-.006a36.7,36.7,0,0,0,8.009-5.4c.632-.534.572-.807.026-1.35q-8.382-8.321-16.718-16.688a1.516,1.516,0,0,1-.358-2.205l-.115-.116c-.574,1.092-.458,1.7.552,2.715" transform="translate(-165.678 -167.32)" fill="#48c9e3"/>
    <path id="Trazado_583383" data-name="Trazado 583383" d="M49.036,186.381c.33.014.661.011.992.011,8.907,0,17.813.015,26.72-.019a3.2,3.2,0,0,1,2.565,1.073c1.21,1.3,2.478,2.543,3.763,3.769.9.854,1.44.945,2.374.49q.091-.094.171-.185l-.1-.1c-1.012.532-1.371.484-2.2-.336-1.484-1.475-2.974-2.944-4.432-4.444a1.6,1.6,0,0,0-1.277-.52q-10.618.024-21.237.012c-2.521,0-5.043.018-7.564.027a1.038,1.038,0,0,1,.216.218" transform="translate(-37.609 -143.382)" fill="#48c9e3"/>
    <path id="Trazado_583384" data-name="Trazado 583384" d="M114.333,235.99c.009-4.617,0-9.234.005-13.851a16.706,16.706,0,0,0-.156-2.313,12.63,12.63,0,0,0-25.1,1.182,2.208,2.208,0,0,1,.192.374c.015-.171.032-.343.045-.514a12.4,12.4,0,0,1,24.774,1.036q.012,7.057.028,14.115l.21.036c0-.022,0-.043,0-.065" transform="translate(-68.626 -161.074)" fill="#48c9e3"/>
    <path id="Trazado_583385" data-name="Trazado 583385" d="M57.694,203.414a44.59,44.59,0,0,1-8.1-15.275,2.8,2.8,0,0,0-.355-.906c-.041,0-.083,0-.124,0h-.03a44.31,44.31,0,0,0,5.453,12.161,29.1,29.1,0,0,0,3.72,4.946c0-.057.007-.113.011-.169a8.27,8.27,0,0,0-.578-.754" transform="translate(-37.816 -144.235)" fill="#48c9e3"/>
    <path id="Trazado_583386" data-name="Trazado 583386" d="M89.036,261.161c.068.068.133.138.2.205a2.211,2.211,0,0,0-.192-.374c0,.056-.008.112-.011.169" transform="translate(-68.59 -201.058)" fill="#48c9e3"/>
    <path id="Trazado_583387" data-name="Trazado 583387" d="M48.911,186.51c.041,0,.083,0,.124,0a1.039,1.039,0,0,0-.216-.218c.02.072.042.143.062.215h.03" transform="translate(-37.608 -143.515)" fill="#48c9e3"/>
    <path id="Trazado_583388" data-name="Trazado 583388" d="M72.381,13.071c0-.51-.1-.695-.668-.658a38.778,38.778,0,0,0-16.538,4.76,36.334,36.334,0,0,0-10.7,8.784,55.269,55.269,0,0,0-1.755,7.117A43.951,43.951,0,0,0,42.2,43.7c.164,1.959.446,3.891.734,5.828,1.719.009,3.44-.02,5.157.046.742.029.914-.211.878-.911A6.818,6.818,0,0,1,51.332,43a8,8,0,0,1,2.081-1.268,7.772,7.772,0,0,1-1.692-4.159c-.053-1.119.252-1.525,1.37-1.821v-2.7c-1.089-.292-1.374-.643-1.378-1.738-.006-1.635-.008-3.271,0-4.906.006-1.136.5-1.638,1.616-1.644,1.807-.01,3.615-.024,5.423,0A6.787,6.787,0,0,1,65.317,30.3c.4,2.272.1,4.579.163,6.87a6.175,6.175,0,0,1-.746,3.059c-.265.5-.6.971-.9,1.455.5.305,1.036.574,1.51.922a6.849,6.849,0,0,1,2.89,6.183c-.026.575.1.823.739.784a24.852,24.852,0,0,1,2.753,0c.556.028.66-.183.659-.69q-.019-17.9,0-35.808" transform="translate(-32.413 -9.559)" fill="#fe7373"/>
    <path id="Trazado_583389" data-name="Trazado 583389" d="M198.812,145.508a1.8,1.8,0,0,1,2.584.27c1.684,1.641,3.33,3.321,5,4.981.719.716.726.722,1.528.09a8.642,8.642,0,0,1,1.764-1.062c.44-.2.493-.473.094-.757a3.448,3.448,0,0,0-1.779-.767,4.327,4.327,0,0,1-3.787-5.768,1.859,1.859,0,0,0,0-1.252,4.211,4.211,0,0,1,1.838-5.14,4.162,4.162,0,0,0,1.307-1.315,4.228,4.228,0,0,1,4.991-1.871,2.056,2.056,0,0,0,1.263.027,5.422,5.422,0,0,1,4.826.819,2.026,2.026,0,0,0,1.442.378,5.7,5.7,0,0,1,5.529,8.815,7.11,7.11,0,0,0-.7,1.37,5.81,5.81,0,0,1-3.239,3.485c-.13.059-.267.106-.393.175a1.636,1.636,0,0,0-.78,1.362c-.051.471.491.488.8.646a6.931,6.931,0,0,1,3.081,3.02,10.738,10.738,0,0,0,.541,1.052,39.318,39.318,0,0,0,2.619-6.886,38.059,38.059,0,0,0,1.363-11.826,39.7,39.7,0,0,0-1.95-10.452c-.261-.8-.419-.863-1.282-.513-6.006,2.433-11.993,4.914-17.989,7.372q-6.606,2.708-13.214,5.412c-1.015.416-1.021.43-.24,1.217.97.977,1.964,1.93,2.913,2.927a1.565,1.565,0,0,1,.141,2.455,3.8,3.8,0,0,1,1.732,1.733" transform="translate(-149.041 -95.67)" fill="#fe7373"/>
    <path id="Trazado_583390" data-name="Trazado 583390" d="M195.576,140.211c-.948-1-1.943-1.951-2.913-2.927-.781-.787-.775-.8.239-1.217q6.606-2.708,13.214-5.412c6-2.458,11.983-4.939,17.989-7.373.863-.35,1.021-.289,1.282.514a39.7,39.7,0,0,1,1.95,10.452,38.06,38.06,0,0,1-1.363,11.826,39.336,39.336,0,0,1-2.619,6.886,10.682,10.682,0,0,1-.541-1.052,6.933,6.933,0,0,0-3.081-3.02c-.31-.158-.852-.175-.8-.646a1.636,1.636,0,0,1,.78-1.362c.126-.068.262-.115.393-.175a5.81,5.81,0,0,0,3.239-3.485,7.111,7.111,0,0,1,.7-1.37,5.7,5.7,0,0,0-5.529-8.815,2.026,2.026,0,0,1-1.442-.378,5.421,5.421,0,0,0-4.826-.819,2.057,2.057,0,0,1-1.263-.027A4.228,4.228,0,0,0,206,133.68,4.161,4.161,0,0,1,204.691,135a4.211,4.211,0,0,0-1.838,5.14,1.859,1.859,0,0,1,0,1.252,4.327,4.327,0,0,0,3.787,5.767,3.449,3.449,0,0,1,1.779.767c.4.284.346.555-.094.757a8.65,8.65,0,0,0-1.764,1.062c-.8.632-.809.626-1.528-.09-1.666-1.66-3.312-3.34-5-4.981a1.8,1.8,0,0,0-2.584-.27c.025.051.052.1.076.154a1.494,1.494,0,0,1,2.273.222c1.851,1.841,3.7,3.679,5.53,5.544.363.371.562.41.928.007a5.33,5.33,0,0,1,2.366-1.513c.62-.194.525-.544.211-.829a3.056,3.056,0,0,0-1.973-1.04,4.094,4.094,0,0,1-3.752-5.645,1.3,1.3,0,0,0,.02-1.049,4.043,4.043,0,0,1,2.112-5.321,1.36,1.36,0,0,0,.683-.7,4.075,4.075,0,0,1,5.183-2.142,1.476,1.476,0,0,0,.991.025,5.322,5.322,0,0,1,5.174.958,1.157,1.157,0,0,0,1.026.236,5.4,5.4,0,0,1,6.273,6.841,24.647,24.647,0,0,1-2.276,4.573,3.455,3.455,0,0,1-1.957,1.618,2.5,2.5,0,0,0-1.667,1.725c-.194.489-.091.61.335.77a6.763,6.763,0,0,1,4.009,4.008c.077.19.009.479.332.579.07-.118.149-.233.209-.357a38.412,38.412,0,0,0,1.925-29.725c-.239-.727-.556-.66-1.123-.426q-8.65,3.579-17.315,7.121c-4.926,2.022-9.847,4.054-14.785,6.046-.734.3-.694.5-.178.99,1.123,1.066,2.2,2.179,3.292,3.279.825.833.863,1.269.222,2.258.042.02.081.043.122.065a1.565,1.565,0,0,0-.141-2.455" transform="translate(-147.679 -94.561)" fill="#fe7373"/>
    <path id="Trazado_583391" data-name="Trazado 583391" d="M210.807,211.235l.028-.018a3.8,3.8,0,0,0-1.732-1.733l-.027.032,1.72,1.739.01-.02" transform="translate(-161.065 -161.379)" fill="#fe7373"/>
    <path id="Trazado_583392" data-name="Trazado 583392" d="M208.757,209.3l.027-.032c-.041-.021-.08-.044-.122-.065l.1.1" transform="translate(-160.745 -161.162)" fill="#fe7373"/>
    <path id="Trazado_583393" data-name="Trazado 583393" d="M216.576,217.047l-.01.02.115.116c-.023-.054-.051-.1-.076-.154l-.028.018" transform="translate(-166.834 -167.191)" fill="#fe7373"/>
    <path id="Trazado_583394" data-name="Trazado 583394" d="M20.784,72.874a6.362,6.362,0,0,1,.7-1.466c-.177.184-.367.357-.528.555A38.631,38.631,0,0,0,12.24,94.356c-.031.473.063.667.582.661,2.375-.031,4.751-.028,7.126-.037a2.738,2.738,0,0,1-.53-1.606,45.255,45.255,0,0,1,1.366-20.5" transform="translate(-9.425 -55.01)" fill="#ee5350"/>
    <path id="Trazado_583395" data-name="Trazado 583395" d="M41.826,78.525a55.236,55.236,0,0,1,1.755-7.117,6.358,6.358,0,0,0-.7,1.466,45.254,45.254,0,0,0-1.366,20.5,2.741,2.741,0,0,0,.531,1.606c-.288-1.937-.57-3.869-.734-5.828a43.951,43.951,0,0,1,.517-10.626" transform="translate(-31.521 -55.01)" fill="#ee5350"/>
    <path id="Trazado_583396" data-name="Trazado 583396" d="M121.493,310.119c-4.3-.225-8.4-1.1-11.892-3.816a7.767,7.767,0,0,1-2.888-3.93,6.593,6.593,0,0,0-4.369,5.275.862.862,0,0,0,.544,1.145,41.238,41.238,0,0,0,5.559,2.252,39.474,39.474,0,0,0,12.332,1.841c.615-.005.8-.207.752-.793-.051-.655-.028-1.316-.038-1.974" transform="translate(-78.807 -232.937)" fill="#e43935"/>
    <path id="Trazado_583397" data-name="Trazado 583397" d="M106.117,238.379h0c.195-.07.177-.186.067-.32-1.43-1.752-1.578-3.821-1.446-5.948a5.541,5.541,0,0,1,5.061-5.106,1.658,1.658,0,0,1,1.369.363,8.317,8.317,0,0,0,5.983,2.4,1.25,1.25,0,0,1,1.33,1.3c.056,2.52.294,5.092-1.668,7.25a11.19,11.19,0,0,1,4.412,2.518v-1.279a3.444,3.444,0,0,1-1.341-2.828c-.033-1.773-.007-3.546-.009-5.32,0-1.962-1.063-2.959-3.011-3.053a8.059,8.059,0,0,1-7.078-4.5c-.135-.249-.306-.5-.078-.787a9.47,9.47,0,0,0-7.29,6.565,16.089,16.089,0,0,0-.419,5.621c1.02.885,2.043,1.766,3.057,2.657a1.616,1.616,0,0,0,1.06.461" transform="translate(-78.54 -171.848)" fill="#fcc641"/>
    <path id="Trazado_583398" data-name="Trazado 583398" d="M121.941,301.176a9.807,9.807,0,0,0,4.535,4.517,19.785,19.785,0,0,0,8.005,2.323,4.008,4.008,0,0,1,1.818.382,7.871,7.871,0,0,0-.293-3.281c-.145.2-.32.172-.531.109a43.586,43.586,0,0,1-10.648-4.73,2.851,2.851,0,0,1-.374-.334h0a5.368,5.368,0,0,0-2.933.491.972.972,0,0,1,.421.524" transform="translate(-93.614 -231.215)" fill="#ee5350"/>
    <path id="Trazado_583399" data-name="Trazado 583399" d="M124.409,306.3c3.491,2.717,7.591,3.591,11.892,3.816a4.015,4.015,0,0,0-1.818-.382,19.78,19.78,0,0,1-8-2.323,9.809,9.809,0,0,1-4.535-4.517.972.972,0,0,0-.421-.524,7.766,7.766,0,0,0,2.888,3.93" transform="translate(-93.615 -232.937)" fill="#ee5350"/>
    <path id="Trazado_583400" data-name="Trazado 583400" d="M257.276,181.459a1.39,1.39,0,0,1,1.722-.766,1.057,1.057,0,0,0,1.159-.254,1.246,1.246,0,0,1,1.59-.149,1.981,1.981,0,0,0,2.067.277,1.328,1.328,0,0,1,1.866,1.341c.02.687,0,1.376.008,2.064,0,.136-.028.305.144.368s.266-.068.362-.167a2.728,2.728,0,0,0,.852-1.641,1.659,1.659,0,0,1,.546-1.126,2.623,2.623,0,0,0,.828-2.33,5.658,5.658,0,0,1-1.615-.126,5.423,5.423,0,0,0-3.1.2,3.962,3.962,0,0,1-2.991-.124,5.308,5.308,0,0,0-2.16-.466,3.073,3.073,0,0,1-3.381-2.92h0a1.171,1.171,0,0,0-.507.942c-.133,1.09-.376,1.322-1.5,1.479a1.383,1.383,0,0,0-1,2.19c.832,1.254.826,1.25,0,2.5a1.354,1.354,0,0,0,.038,1.681c.565.736,1.317.5,2.049.342s.365-.735.4-1.12c.081-.9.463-1.379,1.361-1.452a1.473,1.473,0,0,0,1.264-.742" transform="translate(-194.047 -135.309)" fill="#464a51"/>
    <path id="Trazado_583401" data-name="Trazado 583401" d="M143.121,227.6a2.968,2.968,0,0,1,3,3.09c.027,1.172.05,2.346,0,3.516a6.936,6.936,0,0,0,1.127,4.806c.009-2.261.031-4.521.026-6.782a9.608,9.608,0,0,0-11.542-9.7h0a7.939,7.939,0,0,0,7.392,5.071" transform="translate(-104.56 -171.304)" fill="#fbe942"/>
    <path id="Trazado_583402" data-name="Trazado 583402" d="M135.433,223.862a8.06,8.06,0,0,0,7.079,4.5c1.948.094,3.009,1.091,3.011,3.053,0,1.773-.023,3.547.009,5.32a3.446,3.446,0,0,0,1.341,2.828,6.937,6.937,0,0,1-1.127-4.806c.054-1.17.031-2.344,0-3.516a2.968,2.968,0,0,0-3-3.09,7.939,7.939,0,0,1-7.392-5.071c-.228.287-.058.538.077.787" transform="translate(-104.187 -171.848)" fill="#fbe942"/>
    <path id="Trazado_583403" data-name="Trazado 583403" d="M274.064,250.949c2.037.9,4.192.684,6.324.7.009-.4.029-.8.027-1.2a4.13,4.13,0,0,0-4.313-4.308c-1.742-.006-3.484,0-5.226,0a3.2,3.2,0,0,0-1.649.358,8.707,8.707,0,0,0,4.838,4.449" transform="translate(-207.401 -189.617)" fill="#fbe942"/>
    <path id="Trazado_583404" data-name="Trazado 583404" d="M97.026,154.264c2.37.011,4.74,0,7.111,0a4.07,4.07,0,0,0-3.953-4.12c-1.942-.039-3.886-.023-5.829,0a3.288,3.288,0,0,0-2.068.7,5.228,5.228,0,0,0,4.74,3.42" transform="translate(-71.094 -115.647)" fill="#fbe942"/>
    <path id="Trazado_583405" data-name="Trazado 583405" d="M274.629,253.05c-4.191.367-7.862-.572-10.447-4.2-.234-.329-.606-.655-.341-1.148a3.163,3.163,0,0,0-1.35.86c-.312.278-.357.48-.023.811q4.356,4.317,8.673,8.674c.382.386.579.282.86-.071.766-.96,1.528-1.926,2.339-2.849a2.53,2.53,0,0,0,.663-2.277.632.632,0,0,1-.374.2" transform="translate(-202.017 -190.823)" fill="#fcc641"/>
    <path id="Trazado_583406" data-name="Trazado 583406" d="M269.258,248.854c2.584,3.623,6.256,4.562,10.447,4.2a.629.629,0,0,0,.374-.2c-2.132-.017-4.287.2-6.324-.7a8.707,8.707,0,0,1-4.838-4.449c-.266.494.106.82.341,1.148" transform="translate(-207.093 -190.823)" fill="#fcc641"/>
    <path id="Trazado_583407" data-name="Trazado 583407" d="M205.8,328.014a38.057,38.057,0,0,1-5.89-.658,2.623,2.623,0,0,1-.888-.262c0,1.139-.008,2.278,0,3.417.007.828.092.913.9.8a37.824,37.824,0,0,0,9.99-2.814c.533-.235,1.076-.449,1.6-.7a21.893,21.893,0,0,1-5.715.218" transform="translate(-153.318 -251.981)" fill="#00b3d7"/>
    <path id="Trazado_583408" data-name="Trazado 583408" d="M210.7,327.229c-.527.248-1.07.462-1.6.7a37.845,37.845,0,0,1-9.99,2.814c-.806.115-.891.031-.9-.8-.01-1.139,0-2.278,0-3.417a1,1,0,0,1-.21-.169c-.009,1.4-.005,2.8-.036,4.2-.01.471.128.578.595.487,1.147-.223,2.319-.332,3.459-.586a34.189,34.189,0,0,0,9.373-3.409h0c-.229.068-.458.125-.688.176" transform="translate(-152.504 -251.414)" fill="#00b3d7"/>
    <path id="Trazado_583409" data-name="Trazado 583409" d="M205.353,327.29a56.961,56.961,0,0,1-6.316-.774c0,.044,0,.089,0,.133a2.622,2.622,0,0,0,.888.262,38.087,38.087,0,0,0,5.889.658,21.894,21.894,0,0,0,5.715-.218c.114-.054.226-.112.338-.17a13.682,13.682,0,0,0-1.451.059,28.068,28.068,0,0,1-5.063.05" transform="translate(-153.331 -251.536)" fill="#00b3d7"/>
    <path id="Trazado_583410" data-name="Trazado 583410" d="M253.437,329.561c.23-.051.46-.108.688-.176h0c-.117,0-.234,0-.35.006-.112.058-.224.116-.338.17" transform="translate(-195.238 -253.746)" fill="#00b3d7"/>
    <path id="Trazado_583411" data-name="Trazado 583411" d="M198.334,326.394l-.21-.036a1,1,0,0,0,.21.169c0-.044,0-.088,0-.133" transform="translate(-152.627 -251.414)" fill="#00b3d7"/>
    <path id="Trazado_583412" data-name="Trazado 583412" d="M108.568,107.481a4.937,4.937,0,0,0,2.642,2.435,3.839,3.839,0,0,0,2.223-3.477c.063-1.223-.009-2.452.026-3.677.015-.5-.169-.624-.635-.6-.939.038-1.881.027-2.821.036-2.547,1.015-2.428,3.275-1.436,5.289" transform="translate(-83.13 -78.696)" fill="#f8daae"/>
    <path id="Trazado_583413" data-name="Trazado 583413" d="M234.521,89.487a4.937,4.937,0,0,0,2.642,2.435,3.839,3.839,0,0,0,2.223-3.477c.063-1.223-.009-2.452.026-3.677.015-.5-.169-.624-.635-.6-.939.038-1.88.027-2.821.036-2.547,1.015-2.428,3.275-1.436,5.289" transform="translate(-180.16 -64.834)" fill="#f8daae"/>
    <path id="Trazado_583414" data-name="Trazado 583414" d="M266.6,175.163a2.81,2.81,0,0,0,2.842,1.951,6.339,6.339,0,0,1,2.342.474,4.062,4.062,0,0,0,2.935.105,7.432,7.432,0,0,1,4.71.172c-.551-2.106-2.078-2.869-4.1-2.036a1.43,1.43,0,0,1-1.882-.5,2.613,2.613,0,0,0-3.55-.85,1.681,1.681,0,0,1-1.988-.087,1.258,1.258,0,0,0-1.724.038h0a1.3,1.3,0,0,1,.419.731" transform="translate(-205.056 -134.098)" fill="#656a75"/>
    <path id="Trazado_583415" data-name="Trazado 583415" d="M269.562,178.563a5.309,5.309,0,0,1,2.16.466,3.962,3.962,0,0,0,2.991.124,5.423,5.423,0,0,1,3.1-.2,5.66,5.66,0,0,0,1.615.126,7.431,7.431,0,0,0-4.71-.172,4.063,4.063,0,0,1-2.935-.105,6.341,6.341,0,0,0-2.341-.474,2.81,2.81,0,0,1-2.842-1.951,1.3,1.3,0,0,0-.42-.731,3.074,3.074,0,0,0,3.381,2.92" transform="translate(-205.056 -135.309)" fill="#656a75"/>
    <path id="Trazado_583416" data-name="Trazado 583416" d="M90.049,105.018h0a1.53,1.53,0,0,1,1.391,1.651,4.074,4.074,0,0,0,6.01,3.372h0c-.847.158-1.328-.491-1.8-.954a5.327,5.327,0,0,1-1.683-4.177,2.614,2.614,0,0,1,2.276-2.592H90.049a3.123,3.123,0,0,1,0,2.7" transform="translate(-69.37 -78.822)" fill="#ecb78d"/>
    <path id="Trazado_583417" data-name="Trazado 583417" d="M90.049,102.324v2.7a3.124,3.124,0,0,0,0-2.7" transform="translate(-69.37 -78.827)" fill="#ecb78d"/>
    <path id="Trazado_583418" data-name="Trazado 583418" d="M107.089,104.91a5.327,5.327,0,0,0,1.683,4.177c.471.463.952,1.113,1.8.954a4.937,4.937,0,0,1-2.643-2.434c-.992-2.014-1.111-4.274,1.436-5.289a2.615,2.615,0,0,0-2.276,2.592" transform="translate(-82.492 -78.822)" fill="#ecb78d"/>
    <path id="Trazado_583419" data-name="Trazado 583419" d="M97.708,156.692a1.262,1.262,0,0,1-.97.25c-2.035.006-4.072.066-6.1-.017a5.364,5.364,0,0,1-4.576-2.619c-.19-.306-.429-.633-.2-1.034a4.147,4.147,0,0,0-1.913,3.691c-.029.852.147,1.15,1.085,1.135,3.83-.061,7.661-.025,11.492-.025,1.253,0,1.253,0,1.2-1.3a.764.764,0,0,0-.013-.085" transform="translate(-64.665 -118.075)" fill="#fcc641"/>
    <path id="Trazado_583420" data-name="Trazado 583420" d="M92.176,154.306a5.364,5.364,0,0,0,4.576,2.619c2.032.083,4.069.023,6.1.017a1.262,1.262,0,0,0,.97-.25c-2.37,0-4.74.011-7.111,0a5.228,5.228,0,0,1-4.74-3.42c-.228.4.011.728.2,1.034" transform="translate(-70.782 -118.075)" fill="#fcc641"/>
    <path id="Trazado_583421" data-name="Trazado 583421" d="M132.848,258.118c-.563.079-.913.244-.9.954a5.48,5.48,0,0,0,3.138,5.351,2.764,2.764,0,0,0,1.069.272h0a3.955,3.955,0,0,0,2.666-3.99,7.941,7.941,0,0,1-4.923-2.133,1.27,1.27,0,0,0-1.049-.454" transform="translate(-101.646 -198.836)" fill="#f8daae"/>
    <path id="Trazado_583422" data-name="Trazado 583422" d="M221.949,88.656a4.075,4.075,0,0,0,6.005,3.277c-.848.158-1.328-.491-1.8-.954a5.328,5.328,0,0,1-1.683-4.177,2.615,2.615,0,0,1,2.276-2.592c-1.429-.009-2.859-.006-4.288-.034-.408-.008-.546.123-.539.535.023,1.315-.055,2.635.028,3.945" transform="translate(-170.951 -64.846)" fill="#ecb78d"/>
    <path id="Trazado_583423" data-name="Trazado 583423" d="M233.042,86.917a5.327,5.327,0,0,0,1.683,4.177c.471.463.952,1.113,1.8.954h0a4.937,4.937,0,0,1-2.643-2.434c-.992-2.014-1.111-4.274,1.436-5.289a2.615,2.615,0,0,0-2.276,2.592" transform="translate(-179.521 -64.961)" fill="#ecb78d"/>
    <path id="Trazado_583424" data-name="Trazado 583424" d="M145.847,304.916a6.423,6.423,0,0,0-5.07-4.78c-2.129-.469-4.319-.146-6.482-.175,1.384.619,2.66,1.444,4.025,2.1a41.652,41.652,0,0,0,7.528,2.851" transform="translate(-103.455 -231.015)" fill="#fe7272"/>
    <path id="Trazado_583425" data-name="Trazado 583425" d="M145.315,305.3c.212.063.387.088.531-.109a41.673,41.673,0,0,1-7.528-2.851c-1.365-.66-2.64-1.485-4.025-2.1a2.851,2.851,0,0,0,.374.333,43.588,43.588,0,0,0,10.648,4.73" transform="translate(-103.455 -231.291)" fill="#fe7272"/>
    <path id="Trazado_583426" data-name="Trazado 583426" d="M280.867,209.127c-1.089-.544-2.136-.071-3.169.082-.676.1-1.158.775-1.776,1.129-.273.156-.088.7-.075,1.065a4.832,4.832,0,0,0,1.481,2.3,2.807,2.807,0,0,0,1.965.829h0a2.643,2.643,0,0,0,2.027-2.465c.034-.8-.008-1.606.015-2.408.011-.366-.184-.39-.468-.531" transform="translate(-212.446 -160.907)" fill="#ecb78d"/>
    <path id="Trazado_583427" data-name="Trazado 583427" d="M215.324,136.678a5.1,5.1,0,0,1-3.321-2c-2.411,1.417-2.123,3.741-2.036,6.14l9.441-3.951a19.039,19.039,0,0,1-4.084-.187" transform="translate(-161.707 -103.749)" fill="#0095c6"/>
    <path id="Trazado_583428" data-name="Trazado 583428" d="M226.619,132.182c-1.8-.02-3.595,0-5.392-.009a4.133,4.133,0,0,0-2.2.575,8.176,8.176,0,0,0,3.963,1.888c.8.1,1.6.032,2.394.062.362.014.752-.069,1.049.239l3.277-1.277a3.923,3.923,0,0,0-3.089-1.478" transform="translate(-168.729 -101.821)" fill="#00b3d7"/>
    <path id="Trazado_583429" data-name="Trazado 583429" d="M225.382,136.627c-.8-.031-1.6.034-2.394-.062a8.177,8.177,0,0,1-3.963-1.888,5.1,5.1,0,0,0,3.321,2,19.041,19.041,0,0,0,4.084.187c-.3-.307-.687-.225-1.049-.239" transform="translate(-168.729 -103.749)" fill="#00b3d7"/>
    <path id="Trazado_583430" data-name="Trazado 583430" d="M128.877,253.234a1.241,1.241,0,0,0-1.806.009,2.621,2.621,0,0,0-1.087,1.962,13.535,13.535,0,0,0-.005,1.971,4.082,4.082,0,0,0,5.552,3.468,3.083,3.083,0,0,1-2.9-1.32,5.655,5.655,0,0,1-1.518-4.085c.009-.482-.053-1.005.538-1.235a1.46,1.46,0,0,1,1.61.213,10.2,10.2,0,0,0,2.673,1.689,21.138,21.138,0,0,1,2.266.748c.183-.9-.013-1.358-1.088-1.489a8.048,8.048,0,0,1-4.233-1.93" transform="translate(-97.023 -194.784)" fill="#ecb78d"/>
    <path id="Trazado_583431" data-name="Trazado 583431" d="M133.167,257.6a1.46,1.46,0,0,0-1.61-.213c-.591.23-.529.752-.538,1.235a5.656,5.656,0,0,0,1.518,4.085,3.083,3.083,0,0,0,2.9,1.32h0a2.763,2.763,0,0,1-1.069-.272,5.479,5.479,0,0,1-3.138-5.351c-.011-.71.338-.875.9-.954a1.271,1.271,0,0,1,1.049.454,7.941,7.941,0,0,0,4.923,2.133,21.162,21.162,0,0,0-2.266-.748,10.194,10.194,0,0,1-2.673-1.689" transform="translate(-100.931 -198.173)" fill="#ecb78d"/>
    <path id="Trazado_583432" data-name="Trazado 583432" d="M100.022,79.571a2.75,2.75,0,0,1-2.316-1.344h0c-1.746-.1-1.7-.1-1.765,1.61-.032.856.15,1.182,1.092,1.14,1.887-.084,3.78-.015,5.67-.034.38,0,.942.212,1.1-.136.177-.381-.294-.746-.538-1.088a1.068,1.068,0,0,0-.193-.166c-1.018.007-2.037.026-3.055.018" transform="translate(-73.908 -60.238)" fill="#00b3d7"/>
    <path id="Trazado_583433" data-name="Trazado 583433" d="M232.852,63.013h0c.971.01,1.942,0,2.911.037.609.022.593-.2.35-.642A4.073,4.073,0,0,0,230.283,61a5.819,5.819,0,0,0,2.569,2.013" transform="translate(-177.401 -46.461)" fill="#00b3d7"/>
    <path id="Trazado_583434" data-name="Trazado 583434" d="M106.277,279.26a.874.874,0,0,1-.894-.1,37.96,37.96,0,0,1-2.978-2.569,1.636,1.636,0,0,1-.245-.45v5.615a11.19,11.19,0,0,1,4.117-2.5" transform="translate(-78.7 -212.729)" fill="#eeac1b"/>
    <path id="Trazado_583435" data-name="Trazado 583435" d="M105.383,279.16a.874.874,0,0,0,.894.1h0a1.617,1.617,0,0,1-1.06-.461c-1.014-.892-2.037-1.772-3.057-2.657a1.636,1.636,0,0,0,.245.45,37.864,37.864,0,0,0,2.978,2.569" transform="translate(-78.7 -212.729)" fill="#eeac1b"/>
    <path id="Trazado_583436" data-name="Trazado 583436" d="M107.935,79.288a2.311,2.311,0,0,1,1.072.218,3.342,3.342,0,0,0-1.9-1.19,13.093,13.093,0,0,0-3.467-.135h0a5.368,5.368,0,0,0,4.3,1.108" transform="translate(-79.838 -60.19)" fill="#47c9e3"/>
    <path id="Trazado_583437" data-name="Trazado 583437" d="M105.953,79.684c1.018.008,2.036-.011,3.055-.018a2.305,2.305,0,0,0-1.072-.218,5.368,5.368,0,0,1-4.3-1.108h0a2.75,2.75,0,0,0,2.316,1.344" transform="translate(-79.838 -60.35)" fill="#47c9e3"/>
    <path id="Trazado_583438" data-name="Trazado 583438" d="M224.073,65.364c1.2-.03,2.4-.026,3.605-.036a3.4,3.4,0,0,1-2.327-1.419c-.147-.166-.329-.328-.242-.594A3.647,3.647,0,0,0,223.75,64.7c-.253.4-.326.676.323.66" transform="translate(-172.227 -48.775)" fill="#0095c6"/>
    <path id="Trazado_583439" data-name="Trazado 583439" d="M230.45,63.908a3.4,3.4,0,0,0,2.327,1.419,5.821,5.821,0,0,1-2.569-2.013c-.087.266.1.428.242.594" transform="translate(-177.326 -48.775)" fill="#0095c6"/>
    <path id="Trazado_583440" data-name="Trazado 583440" d="M276.211,220.647a5.411,5.411,0,0,0-.142-.75c-.122,2.239,1.484,3.7,3.446,3.127a3.308,3.308,0,0,1-3.3-2.377" transform="translate(-212.668 -169.4)" fill="#d39066"/>
    <path id="Trazado_583441" data-name="Trazado 583441" d="M277.572,222.195a4.832,4.832,0,0,1-1.481-2.3,5.414,5.414,0,0,1,.142.75,3.308,3.308,0,0,0,3.3,2.377h0a2.806,2.806,0,0,1-1.965-.829" transform="translate(-212.69 -169.4)" fill="#d39066"/>
  </g>
</svg>
