<svg xmlns="http://www.w3.org/2000/svg" xmlns:xlink="http://www.w3.org/1999/xlink" width="625.864" height="74.859" viewBox="0 0 625.864 74.859">
  <defs>
    <clipPath id="clip-path">
      <rect id="Rectángulo_290928" data-name="Rectángulo 290928" width="74.864" height="74.859" fill="none"/>
    </clipPath>
  </defs>
  <g id="Grupo_874042" data-name="Grupo 874042" transform="translate(-180 -5697.107)">
    <path id="Trazado_605379" data-name="Trazado 605379" d="M0,0H580.56l-4.633,52.528L0,52Z" transform="translate(180 5708.581)" fill="#fff0a6"/>
    <g id="Grupo_874041" data-name="Grupo 874041">
      <path id="Trazado_609231" data-name="Trazado 609231" d="M6.993,17.468H4.952V23H1.182V7.359H7.337a6.87,6.87,0,0,1,4.351,1.234,4.181,4.181,0,0,1,1.568,3.488,5.078,5.078,0,0,1-.661,2.7,4.689,4.689,0,0,1-2.068,1.738l3.266,6.315V23H9.754Zm-2.041-2.9H7.337A2.141,2.141,0,0,0,8.954,14,2.186,2.186,0,0,0,9.5,12.424a2.211,2.211,0,0,0-.548-1.588,2.121,2.121,0,0,0-1.611-.576H4.952ZM22.29,21.743a3.732,3.732,0,0,1-3.1,1.472,3.661,3.661,0,0,1-2.9-1.112,4.676,4.676,0,0,1-.983-3.2v-7.53h3.62v7.552a1.3,1.3,0,0,0,1.45,1.493,1.892,1.892,0,0,0,1.772-.892V11.377h3.642V23H22.4Zm9.7-13.256v2.89H33.9v2.514H31.99v5.317a1.358,1.358,0,0,0,.236.913,1.268,1.268,0,0,0,.935.258,5.311,5.311,0,0,0,.9-.064V22.9a6.681,6.681,0,0,1-2.041.312,3.792,3.792,0,0,1-2.761-.881,3.61,3.61,0,0,1-.892-2.675V13.891H26.888V11.377H28.37V8.487ZM41.873,23a4.088,4.088,0,0,1-.344-1.042,3.366,3.366,0,0,1-2.793,1.257,4.124,4.124,0,0,1-2.793-.994,3.163,3.163,0,0,1-1.149-2.5,3.251,3.251,0,0,1,1.4-2.857,7.114,7.114,0,0,1,4.061-.967h1.117v-.615q0-1.608-1.386-1.608a1.133,1.133,0,0,0-1.289,1.274h-3.62a3.245,3.245,0,0,1,1.434-2.736,6.027,6.027,0,0,1,3.658-1.051,5.284,5.284,0,0,1,3.513,1.085A3.772,3.772,0,0,1,45,15.223v5.146a5.269,5.269,0,0,0,.494,2.449V23Zm-2.267-2.363a2.019,2.019,0,0,0,1.123-.29,1.818,1.818,0,0,0,.639-.655V17.833H40.315q-1.891,0-1.891,1.7a1.036,1.036,0,0,0,.333.8A1.205,1.205,0,0,0,39.606,20.637ZM52.024,17.1a7.1,7.1,0,0,1,1.192-4.351,3.925,3.925,0,0,1,3.33-1.59,3.338,3.338,0,0,1,2.621,1.225V6.5H62.8V23H59.544l-.183-1.246a3.428,3.428,0,0,1-2.836,1.461,3.918,3.918,0,0,1-3.287-1.59A7.325,7.325,0,0,1,52.024,17.1Zm3.62.226q0,3.094,1.8,3.094a1.782,1.782,0,0,0,1.719-1.01V14.986a1.734,1.734,0,0,0-1.7-1.031q-1.676,0-1.815,2.707Zm14.835,5.887a5.975,5.975,0,0,1-4.329-1.6A5.509,5.509,0,0,1,64.5,17.468v-.3a7.138,7.138,0,0,1,.661-3.147,4.834,4.834,0,0,1,1.928-2.111,5.821,5.821,0,0,1,3.008-.747,5.031,5.031,0,0,1,3.867,1.52,5.973,5.973,0,0,1,1.418,4.238v1.407h-7.2a2.609,2.609,0,0,0,.849,1.536,2.525,2.525,0,0,0,1.7.559,3.254,3.254,0,0,0,2.686-1.2l1.654,1.955a4.624,4.624,0,0,1-1.917,1.488A6.48,6.48,0,0,1,70.479,23.215Zm-.408-9.26q-1.59,0-1.891,2.105h3.652v-.279a1.793,1.793,0,0,0-.44-1.348A1.753,1.753,0,0,0,70.071,13.955Zm16.876,4.737,1.837-7.315H92.6L88.806,23h-3.7L81.318,11.377h3.824ZM99.3,23.215a5.975,5.975,0,0,1-4.329-1.6,5.509,5.509,0,0,1-1.654-4.152v-.3a7.138,7.138,0,0,1,.661-3.147,4.834,4.834,0,0,1,1.928-2.111,5.821,5.821,0,0,1,3.008-.747,5.031,5.031,0,0,1,3.867,1.52A5.973,5.973,0,0,1,104.2,16.92v1.407H97a2.609,2.609,0,0,0,.849,1.536,2.525,2.525,0,0,0,1.7.559,3.254,3.254,0,0,0,2.686-1.2l1.654,1.955a4.624,4.624,0,0,1-1.917,1.488A6.48,6.48,0,0,1,99.3,23.215Zm-.408-9.26q-1.59,0-1.891,2.105h3.652v-.279a1.793,1.793,0,0,0-.44-1.348A1.753,1.753,0,0,0,98.893,13.955Zm10.087-2.578.118,1.364a3.942,3.942,0,0,1,3.319-1.579,3.316,3.316,0,0,1,2.712,1.085,5.165,5.165,0,0,1,.929,3.266V23h-3.631V15.663a1.961,1.961,0,0,0-.354-1.294,1.64,1.64,0,0,0-1.289-.414,1.726,1.726,0,0,0-1.579.838V23h-3.62V11.377Zm13.3-2.89v2.89h1.912v2.514h-1.912v5.317a1.358,1.358,0,0,0,.236.913,1.268,1.268,0,0,0,.935.258,5.311,5.311,0,0,0,.9-.064V22.9a6.681,6.681,0,0,1-2.041.312,3.792,3.792,0,0,1-2.761-.881,3.61,3.61,0,0,1-.892-2.675V13.891h-1.482V11.377h1.482V8.487ZM132.161,23a4.088,4.088,0,0,1-.344-1.042,3.366,3.366,0,0,1-2.793,1.257,4.124,4.124,0,0,1-2.793-.994,3.163,3.163,0,0,1-1.149-2.5,3.251,3.251,0,0,1,1.4-2.857,7.114,7.114,0,0,1,4.061-.967h1.117v-.615q0-1.608-1.386-1.608a1.133,1.133,0,0,0-1.289,1.274h-3.62a3.245,3.245,0,0,1,1.434-2.736,6.027,6.027,0,0,1,3.658-1.051,5.284,5.284,0,0,1,3.513,1.085,3.772,3.772,0,0,1,1.321,2.976v5.146a5.269,5.269,0,0,0,.494,2.449V23Zm-2.267-2.363a2.019,2.019,0,0,0,1.123-.29,1.818,1.818,0,0,0,.639-.655V17.833H130.6q-1.891,0-1.891,1.7a1.036,1.036,0,0,0,.333.8A1.205,1.205,0,0,0,129.895,20.637Zm13.481-.9a.836.836,0,0,0-.483-.741,7.353,7.353,0,0,0-1.837-.58,8.376,8.376,0,0,1-2.234-.79,3.743,3.743,0,0,1-1.343-1.187,2.835,2.835,0,0,1-.462-1.6,3.212,3.212,0,0,1,1.321-2.637,5.443,5.443,0,0,1,3.459-1.037,6.03,6.03,0,0,1,3.7,1.042,3.258,3.258,0,0,1,1.4,2.739h-3.631q0-1.4-1.472-1.4a1.459,1.459,0,0,0-.956.317.981.981,0,0,0-.387.79.9.9,0,0,0,.473.784,4.466,4.466,0,0,0,1.509.494,13.042,13.042,0,0,1,1.821.462q2.621.9,2.621,3.233a3.044,3.044,0,0,1-1.413,2.589,6.2,6.2,0,0,1-3.658,1,6.322,6.322,0,0,1-2.664-.537,4.455,4.455,0,0,1-1.826-1.461,3.308,3.308,0,0,1-.655-1.944h3.384a1.4,1.4,0,0,0,.537,1.176,2.209,2.209,0,0,0,1.321.371,1.738,1.738,0,0,0,1.112-.3A.962.962,0,0,0,143.376,19.734Zm15.308-1.8,1.934-6.553H164.5l-4.737,13.567-.2.494a3.6,3.6,0,0,1-3.566,2.256,5.674,5.674,0,0,1-1.493-.214V24.9h.473a2.476,2.476,0,0,0,1.166-.22,1.337,1.337,0,0,0,.6-.79l.29-.774-4.039-11.74h3.867Zm15.77-5.307a3.973,3.973,0,0,1,5.865-.322,5.116,5.116,0,0,1,1,3.362V23h-3.631V15.749a2.046,2.046,0,0,0-.376-1.359,1.616,1.616,0,0,0-1.278-.435,1.74,1.74,0,0,0-1.579.709V23h-3.62V6.5h3.62Zm14.5,10.592a5.975,5.975,0,0,1-4.329-1.6,5.509,5.509,0,0,1-1.654-4.152v-.3a7.138,7.138,0,0,1,.661-3.147,4.834,4.834,0,0,1,1.928-2.111,5.821,5.821,0,0,1,3.008-.747,5.031,5.031,0,0,1,3.867,1.52,5.973,5.973,0,0,1,1.418,4.238v1.407h-7.2a2.609,2.609,0,0,0,.849,1.536,2.525,2.525,0,0,0,1.7.559,3.254,3.254,0,0,0,2.686-1.2l1.654,1.955a4.624,4.624,0,0,1-1.917,1.488A6.48,6.48,0,0,1,188.955,23.215Zm-.408-9.26q-1.59,0-1.891,2.105h3.652v-.279a1.793,1.793,0,0,0-.44-1.348A1.753,1.753,0,0,0,188.547,13.955Zm13.793.7-1.192-.086a2.142,2.142,0,0,0-2.191,1.074V23h-3.62V11.377h3.395l.118,1.493a2.8,2.8,0,0,1,2.546-1.708,3.53,3.53,0,0,1,1.01.129Zm8.336,0-1.192-.086a2.142,2.142,0,0,0-2.191,1.074V23h-3.62V11.377h3.395l.118,1.493a2.8,2.8,0,0,1,2.546-1.708,3.53,3.53,0,0,1,1.01.129ZM218.206,23a4.088,4.088,0,0,1-.344-1.042,3.366,3.366,0,0,1-2.793,1.257,4.124,4.124,0,0,1-2.793-.994,3.163,3.163,0,0,1-1.149-2.5,3.251,3.251,0,0,1,1.4-2.857,7.114,7.114,0,0,1,4.061-.967H217.7v-.615q0-1.608-1.386-1.608a1.133,1.133,0,0,0-1.289,1.274h-3.62a3.245,3.245,0,0,1,1.434-2.736,6.027,6.027,0,0,1,3.658-1.051,5.284,5.284,0,0,1,3.513,1.085,3.772,3.772,0,0,1,1.321,2.976v5.146a5.269,5.269,0,0,0,.494,2.449V23Zm-2.267-2.363a2.019,2.019,0,0,0,1.123-.29,1.818,1.818,0,0,0,.639-.655V17.833h-1.053q-1.891,0-1.891,1.7a1.036,1.036,0,0,0,.333.8A1.205,1.205,0,0,0,215.939,20.637Zm10.817-9.26.118,1.364a4,4,0,0,1,3.319-1.579,2.942,2.942,0,0,1,2.976,1.751,3.868,3.868,0,0,1,3.416-1.751q3.534,0,3.631,4.275V23h-3.631V15.663a2.216,2.216,0,0,0-.3-1.3,1.28,1.28,0,0,0-1.1-.408,1.715,1.715,0,0,0-1.6.956l.011.15V23h-3.631V15.685a2.329,2.329,0,0,0-.29-1.321,1.277,1.277,0,0,0-1.106-.408,1.736,1.736,0,0,0-1.59.956V23h-3.62V11.377ZM246.1,23h-3.631V11.377H246.1ZM242.258,8.38a1.616,1.616,0,0,1,.559-1.268,2.375,2.375,0,0,1,2.9,0,1.616,1.616,0,0,1,.559,1.268,1.616,1.616,0,0,1-.559,1.268,2.375,2.375,0,0,1-2.9,0A1.616,1.616,0,0,1,242.258,8.38Zm11.7,14.835a5.975,5.975,0,0,1-4.329-1.6,5.509,5.509,0,0,1-1.654-4.152v-.3a7.138,7.138,0,0,1,.661-3.147,4.834,4.834,0,0,1,1.928-2.111,5.821,5.821,0,0,1,3.008-.747,5.031,5.031,0,0,1,3.867,1.52,5.973,5.973,0,0,1,1.418,4.238v1.407h-7.2a2.609,2.609,0,0,0,.849,1.536,2.525,2.525,0,0,0,1.7.559,3.254,3.254,0,0,0,2.686-1.2l1.654,1.955a4.624,4.624,0,0,1-1.917,1.488A6.48,6.48,0,0,1,253.956,23.215Zm-.408-9.26q-1.59,0-1.891,2.105h3.652v-.279a1.793,1.793,0,0,0-.44-1.348A1.753,1.753,0,0,0,253.548,13.955Zm10.087-2.578.118,1.364a3.942,3.942,0,0,1,3.319-1.579,3.316,3.316,0,0,1,2.712,1.085,5.165,5.165,0,0,1,.929,3.266V23h-3.631V15.663a1.961,1.961,0,0,0-.354-1.294,1.64,1.64,0,0,0-1.289-.414,1.726,1.726,0,0,0-1.579.838V23h-3.62V11.377Zm13.3-2.89v2.89h1.912v2.514h-1.912v5.317a1.358,1.358,0,0,0,.236.913,1.268,1.268,0,0,0,.935.258,5.311,5.311,0,0,0,.9-.064V22.9a6.681,6.681,0,0,1-2.041.312,3.792,3.792,0,0,1-2.761-.881,3.61,3.61,0,0,1-.892-2.675V13.891h-1.482V11.377h1.482V8.487ZM286.816,23a4.087,4.087,0,0,1-.344-1.042,3.366,3.366,0,0,1-2.793,1.257,4.124,4.124,0,0,1-2.793-.994,3.163,3.163,0,0,1-1.149-2.5,3.251,3.251,0,0,1,1.4-2.857,7.114,7.114,0,0,1,4.061-.967h1.117v-.615q0-1.608-1.386-1.608a1.133,1.133,0,0,0-1.289,1.274h-3.62a3.245,3.245,0,0,1,1.434-2.736,6.027,6.027,0,0,1,3.658-1.051,5.284,5.284,0,0,1,3.513,1.085,3.772,3.772,0,0,1,1.321,2.976v5.146a5.269,5.269,0,0,0,.494,2.449V23Zm-2.267-2.363a2.019,2.019,0,0,0,1.123-.29,1.818,1.818,0,0,0,.639-.655V17.833h-1.053q-1.891,0-1.891,1.7a1.036,1.036,0,0,0,.333.8A1.205,1.205,0,0,0,284.55,20.637Zm13.481-.9a.836.836,0,0,0-.483-.741,7.353,7.353,0,0,0-1.837-.58,8.376,8.376,0,0,1-2.234-.79,3.743,3.743,0,0,1-1.343-1.187,2.834,2.834,0,0,1-.462-1.6,3.212,3.212,0,0,1,1.321-2.637,5.443,5.443,0,0,1,3.459-1.037,6.03,6.03,0,0,1,3.7,1.042,3.258,3.258,0,0,1,1.4,2.739h-3.631q0-1.4-1.472-1.4a1.459,1.459,0,0,0-.956.317.981.981,0,0,0-.387.79.9.9,0,0,0,.473.784,4.466,4.466,0,0,0,1.509.494,13.043,13.043,0,0,1,1.821.462q2.621.9,2.621,3.233a3.044,3.044,0,0,1-1.413,2.589,6.2,6.2,0,0,1-3.658,1,6.322,6.322,0,0,1-2.664-.537,4.455,4.455,0,0,1-1.826-1.461,3.308,3.308,0,0,1-.655-1.944h3.384a1.4,1.4,0,0,0,.537,1.176,2.209,2.209,0,0,0,1.321.371,1.738,1.738,0,0,0,1.112-.3A.962.962,0,0,0,298.031,19.734ZM308.236,17.1a7.1,7.1,0,0,1,1.192-4.351,3.925,3.925,0,0,1,3.33-1.59,3.338,3.338,0,0,1,2.621,1.225V6.5h3.631V23h-3.255l-.183-1.246a3.428,3.428,0,0,1-2.836,1.461,3.918,3.918,0,0,1-3.287-1.59A7.325,7.325,0,0,1,308.236,17.1Zm3.62.226q0,3.094,1.8,3.094a1.782,1.782,0,0,0,1.719-1.01V14.986a1.734,1.734,0,0,0-1.7-1.031q-1.676,0-1.815,2.707Zm14.835,5.887a5.975,5.975,0,0,1-4.329-1.6,5.509,5.509,0,0,1-1.654-4.152v-.3a7.138,7.138,0,0,1,.661-3.147,4.834,4.834,0,0,1,1.928-2.111,5.821,5.821,0,0,1,3.008-.747,5.031,5.031,0,0,1,3.867,1.52,5.973,5.973,0,0,1,1.418,4.238v1.407h-7.2a2.609,2.609,0,0,0,.849,1.536,2.525,2.525,0,0,0,1.7.559,3.254,3.254,0,0,0,2.686-1.2l1.654,1.955a4.624,4.624,0,0,1-1.917,1.488A6.48,6.48,0,0,1,326.691,23.215Zm-.408-9.26q-1.59,0-1.891,2.105h3.652v-.279a1.793,1.793,0,0,0-.44-1.348A1.753,1.753,0,0,0,326.283,13.955ZM338.1,17.1a7.848,7.848,0,0,1,.58-3.115,4.67,4.67,0,0,1,1.665-2.089,4.389,4.389,0,0,1,2.524-.736,3.49,3.49,0,0,1,2.836,1.225l.129-1.01h3.287V22.56a4.9,4.9,0,0,1-.714,2.669,4.584,4.584,0,0,1-2.068,1.74,7.6,7.6,0,0,1-3.137.607,6.557,6.557,0,0,1-2.476-.483,4.47,4.47,0,0,1-1.832-1.257l1.515-2.127a3.319,3.319,0,0,0,2.664,1.192,2.156,2.156,0,0,0,2.406-2.471v-.365a3.4,3.4,0,0,1-2.632,1.149,4.2,4.2,0,0,1-3.437-1.627,6.743,6.743,0,0,1-1.311-4.356Zm3.631.226a4.135,4.135,0,0,0,.537,2.261,1.7,1.7,0,0,0,1.5.833,1.923,1.923,0,0,0,1.708-.784V14.75a1.875,1.875,0,0,0-1.687-.795,1.706,1.706,0,0,0-1.515.865A4.715,4.715,0,0,0,341.73,17.328ZM356.8,23.215a5.975,5.975,0,0,1-4.329-1.6,5.509,5.509,0,0,1-1.654-4.152v-.3a7.138,7.138,0,0,1,.661-3.147,4.834,4.834,0,0,1,1.928-2.111,5.821,5.821,0,0,1,3.008-.747,5.031,5.031,0,0,1,3.867,1.52A5.973,5.973,0,0,1,361.7,16.92v1.407h-7.2a2.609,2.609,0,0,0,.849,1.536,2.525,2.525,0,0,0,1.7.559,3.254,3.254,0,0,0,2.686-1.2l1.654,1.955a4.624,4.624,0,0,1-1.917,1.488A6.48,6.48,0,0,1,356.8,23.215Zm-.408-9.26q-1.59,0-1.891,2.105h3.652v-.279a1.793,1.793,0,0,0-.44-1.348A1.753,1.753,0,0,0,356.394,13.955Zm6.306,3.126a6.86,6.86,0,0,1,.677-3.1,4.84,4.84,0,0,1,1.944-2.089,5.856,5.856,0,0,1,2.976-.73,5.344,5.344,0,0,1,4.114,1.617,6.2,6.2,0,0,1,1.5,4.4v.129A6.019,6.019,0,0,1,372.4,21.62a5.359,5.359,0,0,1-4.087,1.6,5.42,5.42,0,0,1-3.985-1.488,5.819,5.819,0,0,1-1.622-4.034Zm3.62.226a4.325,4.325,0,0,0,.5,2.363,1.682,1.682,0,0,0,1.493.752q1.934,0,1.977-2.976v-.365q0-3.126-2-3.126-1.815,0-1.966,2.7Zm16.221-2.653-1.192-.086a2.142,2.142,0,0,0-2.191,1.074V23h-3.62V11.377h3.395l.118,1.493a2.8,2.8,0,0,1,2.546-1.708,3.53,3.53,0,0,1,1.01.129Zm8.336,0-1.192-.086a2.142,2.142,0,0,0-2.191,1.074V23h-3.62V11.377h3.395l.118,1.493a2.8,2.8,0,0,1,2.546-1.708,3.53,3.53,0,0,1,1.01.129Zm6.929,8.562a5.975,5.975,0,0,1-4.329-1.6,5.509,5.509,0,0,1-1.654-4.152v-.3a7.138,7.138,0,0,1,.661-3.147,4.834,4.834,0,0,1,1.928-2.111,5.821,5.821,0,0,1,3.008-.747,5.031,5.031,0,0,1,3.867,1.52A5.973,5.973,0,0,1,402.7,16.92v1.407h-7.2a2.609,2.609,0,0,0,.849,1.536,2.525,2.525,0,0,0,1.7.559,3.254,3.254,0,0,0,2.686-1.2l1.654,1.955a4.624,4.624,0,0,1-1.917,1.488A6.48,6.48,0,0,1,397.8,23.215Zm-.408-9.26q-1.59,0-1.891,2.105h3.652v-.279a1.793,1.793,0,0,0-.44-1.348A1.753,1.753,0,0,0,397.4,13.955ZM404.959,23V13.891h-1.687V11.377h1.687v-.924A4.016,4.016,0,0,1,406.13,7.37a4.626,4.626,0,0,1,3.287-1.1,7.2,7.2,0,0,1,1.7.226l.011,2.664a3.307,3.307,0,0,0-.892-.1q-1.644,0-1.644,1.418v.892h2.267v2.514H408.59V23Zm12.794.215a5.975,5.975,0,0,1-4.329-1.6,5.509,5.509,0,0,1-1.654-4.152v-.3a7.138,7.138,0,0,1,.661-3.147,4.834,4.834,0,0,1,1.928-2.111,5.821,5.821,0,0,1,3.008-.747,5.031,5.031,0,0,1,3.867,1.52,5.973,5.973,0,0,1,1.418,4.238v1.407h-7.2a2.609,2.609,0,0,0,.849,1.536,2.525,2.525,0,0,0,1.7.559,3.254,3.254,0,0,0,2.686-1.2l1.654,1.955a4.624,4.624,0,0,1-1.917,1.488A6.48,6.48,0,0,1,417.753,23.215Zm-.408-9.26q-1.59,0-1.891,2.105h3.652v-.279a1.793,1.793,0,0,0-.44-1.348A1.753,1.753,0,0,0,417.345,13.955Zm13.793.7-1.192-.086a2.142,2.142,0,0,0-2.191,1.074V23h-3.62V11.377h3.395l.118,1.493a2.8,2.8,0,0,1,2.546-1.708,3.53,3.53,0,0,1,1.01.129Zm6.929,8.562a5.975,5.975,0,0,1-4.329-1.6,5.509,5.509,0,0,1-1.654-4.152v-.3a7.138,7.138,0,0,1,.661-3.147,4.834,4.834,0,0,1,1.928-2.111,5.821,5.821,0,0,1,3.008-.747,5.031,5.031,0,0,1,3.867,1.52,5.973,5.973,0,0,1,1.418,4.238v1.407h-7.2a2.609,2.609,0,0,0,.849,1.536,2.525,2.525,0,0,0,1.7.559,3.254,3.254,0,0,0,2.686-1.2l1.654,1.955a4.624,4.624,0,0,1-1.917,1.488A6.48,6.48,0,0,1,438.066,23.215Zm-.408-9.26q-1.59,0-1.891,2.105h3.652v-.279a1.793,1.793,0,0,0-.44-1.348A1.753,1.753,0,0,0,437.658,13.955Zm10.087-2.578.118,1.364a3.942,3.942,0,0,1,3.319-1.579,3.316,3.316,0,0,1,2.712,1.085,5.165,5.165,0,0,1,.929,3.266V23h-3.631V15.663a1.961,1.961,0,0,0-.354-1.294,1.64,1.64,0,0,0-1.289-.414,1.726,1.726,0,0,0-1.579.838V23h-3.62V11.377Zm14,9.045a1.61,1.61,0,0,0,1.182-.414,1.517,1.517,0,0,0,.408-1.155h3.395a4.018,4.018,0,0,1-1.37,3.137,5.1,5.1,0,0,1-3.529,1.225,5.158,5.158,0,0,1-4-1.59,6.264,6.264,0,0,1-1.461-4.4v-.15a7.08,7.08,0,0,1,.65-3.11,4.732,4.732,0,0,1,1.875-2.073,5.589,5.589,0,0,1,2.9-.725,5.03,5.03,0,0,1,3.6,1.257,4.458,4.458,0,0,1,1.332,3.405h-3.395a1.987,1.987,0,0,0-.44-1.386,1.52,1.52,0,0,0-1.182-.483q-1.407,0-1.644,1.794a12.656,12.656,0,0,0-.075,1.568,4.972,4.972,0,0,0,.419,2.428A1.45,1.45,0,0,0,461.742,20.422ZM472.076,23h-3.631V11.377h3.631ZM468.23,8.38a1.616,1.616,0,0,1,.559-1.268,2.375,2.375,0,0,1,2.9,0,1.616,1.616,0,0,1,.559,1.268,1.616,1.616,0,0,1-.559,1.268,2.375,2.375,0,0,1-2.9,0A1.616,1.616,0,0,1,468.23,8.38ZM480.853,23a4.087,4.087,0,0,1-.344-1.042,3.366,3.366,0,0,1-2.793,1.257,4.124,4.124,0,0,1-2.793-.994,3.163,3.163,0,0,1-1.149-2.5,3.251,3.251,0,0,1,1.4-2.857,7.114,7.114,0,0,1,4.061-.967h1.117v-.615q0-1.608-1.386-1.608a1.133,1.133,0,0,0-1.289,1.274h-3.62a3.245,3.245,0,0,1,1.434-2.736,6.027,6.027,0,0,1,3.658-1.051,5.284,5.284,0,0,1,3.513,1.085,3.772,3.772,0,0,1,1.321,2.976v5.146a5.269,5.269,0,0,0,.494,2.449V23Zm-2.267-2.363a2.019,2.019,0,0,0,1.123-.29,1.818,1.818,0,0,0,.639-.655V17.833h-1.053q-1.891,0-1.891,1.7a1.036,1.036,0,0,0,.333.8A1.205,1.205,0,0,0,478.586,20.637Zm12.311-.215a1.61,1.61,0,0,0,1.182-.414,1.517,1.517,0,0,0,.408-1.155h3.395a4.018,4.018,0,0,1-1.37,3.137,5.1,5.1,0,0,1-3.529,1.225,5.158,5.158,0,0,1-4-1.59,6.264,6.264,0,0,1-1.461-4.4v-.15a7.08,7.08,0,0,1,.65-3.11,4.732,4.732,0,0,1,1.875-2.073,5.589,5.589,0,0,1,2.9-.725,5.03,5.03,0,0,1,3.6,1.257,4.458,4.458,0,0,1,1.332,3.405h-3.395a1.987,1.987,0,0,0-.44-1.386,1.52,1.52,0,0,0-1.182-.483q-1.407,0-1.644,1.794a12.656,12.656,0,0,0-.075,1.568,4.972,4.972,0,0,0,.419,2.428A1.45,1.45,0,0,0,490.9,20.422ZM501.23,23H497.6V11.377h3.631ZM497.385,8.38a1.616,1.616,0,0,1,.559-1.268,2.375,2.375,0,0,1,2.9,0A1.616,1.616,0,0,1,501.4,8.38a1.616,1.616,0,0,1-.559,1.268,2.375,2.375,0,0,1-2.9,0A1.616,1.616,0,0,1,497.385,8.38Zm5.618,8.7a6.86,6.86,0,0,1,.677-3.1,4.84,4.84,0,0,1,1.944-2.089,5.856,5.856,0,0,1,2.976-.73,5.344,5.344,0,0,1,4.114,1.617,6.2,6.2,0,0,1,1.5,4.4v.129a6.019,6.019,0,0,1-1.509,4.313,5.359,5.359,0,0,1-4.087,1.6,5.42,5.42,0,0,1-3.985-1.488,5.819,5.819,0,0,1-1.622-4.034Zm3.62.226a4.325,4.325,0,0,0,.5,2.363,1.682,1.682,0,0,0,1.493.752q1.934,0,1.977-2.976v-.365q0-3.126-2-3.126-1.815,0-1.966,2.7ZM509.094,6.5h3.824l-2.986,3.373-2.954-.005Zm10.044,4.877.118,1.364a3.942,3.942,0,0,1,3.319-1.579,3.316,3.316,0,0,1,2.712,1.085,5.165,5.165,0,0,1,.929,3.266V23h-3.631V15.663a1.961,1.961,0,0,0-.354-1.294,1.64,1.64,0,0,0-1.289-.414,1.726,1.726,0,0,0-1.579.838V23h-3.62V11.377Z" transform="translate(186 5720.037)" fill="#12263f"/>
    </g>
    <g id="Grupo_870159" data-name="Grupo 870159" transform="translate(731 5697.107)">
      <g id="Grupo_870158" data-name="Grupo 870158" clip-path="url(#clip-path)">
        <path id="Trazado_605380" data-name="Trazado 605380" d="M70.82,19.288a14.141,14.141,0,0,0,1.586-6.3A10.266,10.266,0,0,0,66.736,3.77a10.427,10.427,0,0,0-10.949.387,1.067,1.067,0,0,1-1.2.067A36.734,36.734,0,0,0,24.75,2.274,37.4,37.4,0,0,0,37.313,74.858a36.153,36.153,0,0,0,9.1-1.079A37.43,37.43,0,0,0,74.82,39.233a36.751,36.751,0,0,0-3.958-18.559,1.414,1.414,0,0,1-.042-1.386m-60.373-4.03a33.189,33.189,0,0,1,9.506-8.111,35.044,35.044,0,0,1,11.673-4.22,4.133,4.133,0,0,1,.449-.046,3.061,3.061,0,0,1,.332.027c-.565.433-1.053.8-1.537,1.179a41.489,41.489,0,0,0-11.9,14.562,1.052,1.052,0,0,1-1.128.7c-2.963-.042-5.927-.032-8.891-.04H7.526a26.651,26.651,0,0,1,2.921-4.053m25.8,20.514c0,.359-.1.47-.462.466-1.809-.017-3.619-.027-5.427.006-.428.008-.489-.222-.578-.513a10.948,10.948,0,0,0-11.646-7.9A39.642,39.642,0,0,1,20,22.11a.508.508,0,0,1,.553-.369q7.613.015,15.227,0c.357,0,.468.1.467.461q-.017,6.784,0,13.568M20.66,54.626c-.314.541-.651,1.071-.937,1.628-.273.531-.442.527-.753,0-1.842-3.108-3.633-6.243-5.214-9.493a27.838,27.838,0,0,1-2.74-7.215,7.218,7.218,0,0,1,1.247-5.418c2.247-4.068,8.191-5.173,12.1-2.291a8.332,8.332,0,0,1,3.01,9.1,61.265,61.265,0,0,1-4.157,9.17c-.813,1.527-1.7,3.013-2.558,4.518h0m7.506-9.055A21.527,21.527,0,0,0,30.189,39c.029-.316.161-.356.422-.355,1.732.007,3.465.016,5.2-.005.395,0,.44.159.439.489q-.012,6.742,0,13.484c0,.362-.049.529-.478.527-3.766-.017-7.531-.01-11.422-.01,1.4-2.554,2.707-5.006,3.817-7.553M2.485,35.739a35.543,35.543,0,0,1,3.5-13.6.582.582,0,0,1,.631-.394c.525.033,1.053.024,1.58.032h9.3c-.427,1.287-.873,2.555-1.264,3.84a15.724,15.724,0,0,1-.708,2.6c-.416.812-1.495.89-2.221,1.406a10.59,10.59,0,0,0-4.263,5.752c-.234.811-.608.959-1.3.83-1.582.008-3.164.009-4.745.031-.372.005-.53-.072-.506-.5M5.979,52.734A34.911,34.911,0,0,1,2.6,40.565c-.04-.45-.043-.905-.115-1.349-.079-.49.117-.589.569-.582,1.631.024,3.263.008,4.894.011.257,0,.523-.093.562.364a21.082,21.082,0,0,0,2.018,6.574c1.061,2.436,2.3,4.783,3.577,7.113.058.105.11.214.22.429-2.655,0-5.189-.006-7.723.007a.6.6,0,0,1-.628-.4M18.137,66.594A34.822,34.822,0,0,1,7.515,55.538c2.723,0,5.325.005,7.927-.007.331,0,.422.223.548.43.666,1.092,1.32,2.192,1.992,3.28.9,1.458,1.587,1.509,2.72.158A43.742,43.742,0,0,0,32.368,71.97a33.474,33.474,0,0,1-14.231-5.376m18.08-.953v5.851a32.838,32.838,0,0,1-3.95-2.7,36.423,36.423,0,0,1-7.091-7.212,28.376,28.376,0,0,1-2.9-4.285c-.311-.536.519-1.759,1.175-1.76q4.442-.008,8.884,0c1.129,0,2.259.011,3.388-.006.359-.006.532.044.529.476-.027,3.211-.027,6.423-.035,9.634M36.238,3.8q.008,7.463.005,14.926c0,.322.08.621-.458.619-4.8-.02-9.592-.012-14.459-.012,2.642-5.852,8.787-12.44,14.791-15.91.211.068.122.249.122.377m30.7,3a7.807,7.807,0,0,1,2.652,8.788,57.466,57.466,0,0,1-4.712,10.234c-.632,1.169-1.319,2.308-1.981,3.461-.314.541-.65,1.072-.937,1.628-.268.52-.436.546-.752.011-1.338-2.269-2.66-4.547-3.883-6.881A50.115,50.115,0,0,1,53.5,15.386a7.507,7.507,0,0,1,1-6.6C56.851,4.556,63.117,3.513,66.938,6.8M53.317,6.259a11.355,11.355,0,0,0-2.326,4.663,47.341,47.341,0,0,0-8.405-8A32.476,32.476,0,0,1,53.317,6.259M38.656,3.424a2.473,2.473,0,0,1,.933.492A39.933,39.933,0,0,1,50.47,14.2a3.464,3.464,0,0,1,.591,1.279,25.745,25.745,0,0,0,1.3,3.858c-4.48,0-8.848-.006-13.217.009-.4,0-.5-.126-.5-.509.011-5.122.007-10.245.007-15.411m-.013,35.915c0-.54.1-.719.684-.712,2.991.035,5.982.016,8.973.016q4.525,0,9.049,0c.358,0,.593-.018.566.5a40.989,40.989,0,0,1-2.931,13.39.819.819,0,0,1-.922.607q-7.352-.028-14.7,0c-.528,0-.723-.076-.718-.676q.046-6.56,0-13.12M38.681,66.1c-.008-3.363-.012-6.725-.031-10.088,0-.344.071-.478.45-.477,4.793.012,9.586.008,14.47.008a29.579,29.579,0,0,1-2.155,3.737,35.986,35.986,0,0,1-6.066,7.147,36.622,36.622,0,0,1-6.668,5.1Zm25.375-6.017h0a31.849,31.849,0,0,1-7.072,6.365,35.037,35.037,0,0,1-13.771,5.511,2.343,2.343,0,0,1-.7.016,53.516,53.516,0,0,0,6.826-6.037A47.107,47.107,0,0,0,54.75,58.44c.454-.808.873-1.637,1.3-2.46.13-.25.236-.453.6-.451,3.537.015,7.073.009,10.736.009a28.081,28.081,0,0,1-3.327,4.54m8.353-20.86A35.589,35.589,0,0,1,68.977,52.6c-.146.3-.267.533-.695.531-3.615-.02-7.231-.011-10.952-.011a43.213,43.213,0,0,0,2.52-9.207A39.613,39.613,0,0,0,60.3,39.2c.016-.463.171-.569.62-.567q5.462.029,10.924,0c.46,0,.593.1.564.584m-.023-3.624c.053.585-.141.647-.639.645-5.051-.016-10.1-.01-15.153-.01-5.729,0-11.459-.012-17.188.017-.641,0-.77-.17-.766-.783q.043-6.483,0-12.967c0-.647.178-.767.787-.763q6.672.041,13.344,0a.956.956,0,0,1,1.008.649A128.823,128.823,0,0,0,60.275,34c.876,1.4,1.761,1.391,2.641-.026,2.236-3.6,4.356-7.269,6.3-11.179a34.452,34.452,0,0,1,2.631,8.318c.274,1.484.4,2.983.537,4.484" transform="translate(0 0)"/>
        <path id="Trazado_605381" data-name="Trazado 605381" d="M215.946,120.049c-.88,1.417-1.765,1.424-2.641.026a128.88,128.88,0,0,1-6.5-11.615.957.957,0,0,0-1.008-.649q-6.672.037-13.344,0c-.608,0-.792.116-.787.763q.05,6.483,0,12.967c0,.614.125.786.766.783,5.729-.029,11.459-.017,17.188-.017,5.051,0,10.1-.006,15.153.01.5,0,.691-.06.639-.645-.135-1.5-.263-3-.537-4.484a34.455,34.455,0,0,0-2.631-8.318c-1.947,3.91-4.067,7.578-6.3,11.179" transform="translate(-153.03 -86.077)" fill="#43fef0"/>
        <path id="Trazado_605382" data-name="Trazado 605382" d="M192.391,206.118q7.352-.029,14.7,0a.819.819,0,0,0,.922-.607,40.989,40.989,0,0,0,2.931-13.39c.027-.517-.208-.5-.566-.5q-4.524.01-9.049,0c-2.991,0-5.982.019-8.973-.016-.588-.007-.687.171-.684.712q.034,6.56,0,13.121c0,.6.191.678.718.676" transform="translate(-153.033 -152.982)" fill="#43fef0"/>
        <path id="Trazado_605383" data-name="Trazado 605383" d="M107.61,107.85q-7.614.016-15.227,0a.508.508,0,0,0-.553.368,39.664,39.664,0,0,0-1.867,5.721,10.949,10.949,0,0,1,11.646,7.9c.09.292.151.521.579.513,1.808-.033,3.618-.023,5.427-.006.364,0,.463-.107.462-.466q-.017-6.784,0-13.568c0-.365-.11-.462-.467-.461" transform="translate(-71.827 -86.108)" fill="#43fef0"/>
        <path id="Trazado_605384" data-name="Trazado 605384" d="M298.9,191.636q-5.462.027-10.924,0c-.448,0-.6.1-.62.566a39.614,39.614,0,0,1-.452,4.718,43.23,43.23,0,0,1-2.52,9.207c3.722,0,7.337-.009,10.952.012.428,0,.549-.227.695-.531a35.59,35.59,0,0,0,3.433-13.387c.029-.482-.1-.587-.564-.585" transform="translate(-227.058 -153.003)" fill="#43fef0"/>
        <path id="Trazado_605385" data-name="Trazado 605385" d="M120.579,16.99c-6,3.47-12.148,10.058-14.791,15.91,4.867,0,9.663-.008,14.459.012.538,0,.458-.3.458-.619q0-7.463-.005-14.926c0-.128.089-.309-.122-.377" transform="translate(-84.462 -13.565)" fill="#43fef0"/>
        <path id="Trazado_605386" data-name="Trazado 605386" d="M192.214,32.9c4.369-.015,8.737-.009,13.217-.009a25.771,25.771,0,0,1-1.3-3.857,3.468,3.468,0,0,0-.591-1.28,39.936,39.936,0,0,0-10.881-10.283,2.478,2.478,0,0,0-.933-.492c0,5.167,0,10.289-.008,15.411,0,.383.091.511.5.509" transform="translate(-153.069 -13.558)" fill="#43fef0"/>
        <path id="Trazado_605387" data-name="Trazado 605387" d="M53.269,30.756a1.052,1.052,0,0,0,1.128-.7A41.491,41.491,0,0,1,66.3,15.491c.484-.376.972-.746,1.537-1.179a3.058,3.058,0,0,0-.332-.027,4.132,4.132,0,0,0-.449.046,35.045,35.045,0,0,0-11.673,4.22,33.185,33.185,0,0,0-9.506,8.111l-1.5,4.053c2.964.008,5.928,0,8.891.04" transform="translate(-35.432 -11.405)" fill="#43fef0"/>
        <path id="Trazado_605388" data-name="Trazado 605388" d="M271.637,36.836a111.678,111.678,0,0,0,6.013,11.278c.115.2.2.415.474.424.662-1.153,1.349-2.292,1.981-3.461a57.461,57.461,0,0,0,4.712-10.234,7.806,7.806,0,0,0-2.652-8.788c-3.821-3.29-10.087-2.247-12.438,1.987-.616,3.2.691,5.989,1.911,8.793m5.2-10.314a6.03,6.03,0,0,1,0,12.061,5.951,5.951,0,0,1-6.06-6.065,6.042,6.042,0,0,1,6.06-6" transform="translate(-215.226 -19.254)" fill="#cd4c32"/>
        <path id="Trazado_605389" data-name="Trazado 605389" d="M71.17,169.823a61.255,61.255,0,0,0,4.157-9.17,8.332,8.332,0,0,0-3.01-9.1c-3.91-2.882-9.854-1.777-12.1,2.291-.627,3.285.746,6.124,2,8.989a102.993,102.993,0,0,0,5.849,10.924c.132.223.227.515.543.581.855-1.5,1.745-2.991,2.558-4.518m-3.908-5.44a5.98,5.98,0,0,1-6.01-6.047,6.04,6.04,0,0,1,12.08-.032,6.028,6.028,0,0,1-6.071,6.079" transform="translate(-47.952 -119.716)" fill="#cd4c32"/>
        <path id="Trazado_605390" data-name="Trazado 605390" d="M50.469,279.334c-1.132,1.351-1.82,1.3-2.72-.158-.672-1.089-1.325-2.189-1.992-3.281-.126-.206-.217-.431-.548-.43-2.6.012-5.2.007-7.927.007A34.82,34.82,0,0,0,47.9,286.528,33.474,33.474,0,0,0,62.135,291.9a43.742,43.742,0,0,1-11.666-12.57" transform="translate(-29.766 -219.934)" fill="#18eee3"/>
        <path id="Trazado_605391" data-name="Trazado 605391" d="M198.423,286.349a35.982,35.982,0,0,0,6.066-7.147,29.562,29.562,0,0,0,2.155-3.737c-4.884,0-9.677,0-14.47-.008-.379,0-.452.133-.45.477.019,3.363.023,6.725.031,10.088a49.733,49.733,0,0,0,6.668.327" transform="translate(-153.074 -219.926)" fill="#43fef0"/>
        <path id="Trazado_605392" data-name="Trazado 605392" d="M132.2,206.145c.429,0,.479-.165.478-.527q-.015-6.742,0-13.484c0-.33-.045-.493-.439-.489-1.732.021-3.465.012-5.2.005-.261,0-.393.04-.422.355a21.526,21.526,0,0,1-2.023,6.576c-1.11,2.548-2.415,5-3.817,7.553,3.891,0,7.657-.007,11.422.01" transform="translate(-96.434 -153.011)" fill="#43fef0"/>
        <path id="Trazado_605393" data-name="Trazado 605393" d="M123.686,275.461c-1.129.018-2.258.007-3.388.007q-4.442,0-8.884,0c-.656,0-1.486,1.224-1.175,1.76a28.368,28.368,0,0,0,2.9,4.286,3.287,3.287,0,0,1,1.367.58,33.308,33.308,0,0,0,9.094,3.348c.194.041.387.085.581.128.008-3.212.008-6.423.035-9.635,0-.432-.17-.482-.529-.476" transform="translate(-87.962 -219.93)" fill="#43fef0"/>
        <path id="Trazado_605394" data-name="Trazado 605394" d="M24.126,206.132c-.11-.215-.163-.323-.22-.429-1.275-2.329-2.515-4.676-3.577-7.113a21.091,21.091,0,0,1-2.018-6.574c-.039-.457-.3-.363-.562-.364-1.631,0-3.263.013-4.894-.011-.452-.007-.648.092-.569.582.071.445.075.9.115,1.349a34.913,34.913,0,0,0,3.375,12.168.6.6,0,0,0,.628.4c2.534-.014,5.068-.007,7.723-.007" transform="translate(-9.795 -153.008)" fill="#18eee3"/>
        <path id="Trazado_605395" data-name="Trazado 605395" d="M252.038,275.45c-.361,0-.467.2-.6.452-.428.823-.846,1.651-1.3,2.46a47.1,47.1,0,0,1-5.415,7.492,37.828,37.828,0,0,0,10.5-3.427,28.836,28.836,0,0,0,3.557-2.085,1.859,1.859,0,0,1,.66-.343h0a28.087,28.087,0,0,0,3.327-4.54c-3.663,0-7.2.006-10.736-.009" transform="translate(-195.391 -219.922)" fill="#43fef0"/>
        <path id="Trazado_605396" data-name="Trazado 605396" d="M36.2,119.1c.1,1.117.334,2.221.346,3.346.693.13,1.068-.018,1.3-.83a10.591,10.591,0,0,1,4.263-5.752c.726-.516,1.8-.595,2.22-1.406a15.7,15.7,0,0,0,.708-2.6c.392-1.284.838-2.552,1.264-3.839H37c-.171,1.031-.363,2.06-.51,3.095A34.364,34.364,0,0,0,36.2,119.1" transform="translate(-28.806 -86.239)" fill="#43fef0"/>
        <path id="Trazado_605397" data-name="Trazado 605397" d="M12.822,122.339c1.581-.022,3.163-.023,4.745-.031a1.492,1.492,0,0,1-.314-.907,35.168,35.168,0,0,1,.467-12.848,1.194,1.194,0,0,1,.3-.674c-.527-.009-1.055,0-1.58-.032a.581.581,0,0,0-.631.394,35.542,35.542,0,0,0-3.5,13.6c-.024.425.134.5.506.5" transform="translate(-9.832 -86.103)" fill="#18eee3"/>
        <path id="Trazado_605398" data-name="Trazado 605398" d="M35.291,121.537a1.493,1.493,0,0,0,.314.907c-.012-1.125-.244-2.229-.345-3.346a34.355,34.355,0,0,1,.291-7.989c.147-1.035.339-2.063.51-3.094a1.192,1.192,0,0,0-.3.674,35.159,35.159,0,0,0-.467,12.848" transform="translate(-27.869 -86.239)" fill="#18eee3"/>
        <path id="Trazado_605399" data-name="Trazado 605399" d="M218.7,303.874c-.328.063-.675.251-1.01,0a53.485,53.485,0,0,1-6.826,6.037,2.348,2.348,0,0,0,.7-.016,35.036,35.036,0,0,0,13.772-5.51,31.855,31.855,0,0,0,7.072-6.365,24.319,24.319,0,0,1-6.1,3.514,36.427,36.427,0,0,1-7.61,2.343" transform="translate(-168.354 -237.939)" fill="#18eee3"/>
        <path id="Trazado_605400" data-name="Trazado 605400" d="M258.787,298.36a28.818,28.818,0,0,1-3.557,2.085,37.825,37.825,0,0,1-10.5,3.427c.335.254.682.066,1.01,0a36.44,36.44,0,0,0,7.61-2.343,24.319,24.319,0,0,0,6.1-3.514,1.863,1.863,0,0,0-.66.343" transform="translate(-195.391 -237.939)" fill="#18eee3"/>
        <path id="Trazado_605401" data-name="Trazado 605401" d="M263.99,50.2a50.1,50.1,0,0,0,3.822,8.658c1.223,2.334,2.545,4.611,3.883,6.881.315.535.484.509.752-.011.287-.556.622-1.086.937-1.628h0c-.506.19-.589-.27-.75-.532-.921-1.5-1.778-3.036-2.631-4.574a64.843,64.843,0,0,1-4.568-9.67,14.668,14.668,0,0,1-.747-2.84,5.335,5.335,0,0,1,.3-2.881,7.506,7.506,0,0,0-1,6.6" transform="translate(-210.485 -34.812)" fill="#bd4829"/>
        <path id="Trazado_605402" data-name="Trazado 605402" d="M268.581,46.483a14.67,14.67,0,0,0,.747,2.84,64.828,64.828,0,0,0,4.568,9.67c.854,1.538,1.71,3.075,2.631,4.574.161.261.244.722.75.532-.277-.009-.36-.226-.474-.424a111.64,111.64,0,0,1-6.013-11.278c-1.219-2.8-2.527-5.59-1.911-8.793a5.335,5.335,0,0,0-.3,2.881" transform="translate(-214.38 -34.812)" fill="#bd4829"/>
        <path id="Trazado_605403" data-name="Trazado 605403" d="M63.11,189.258c-.843-1.368-1.657-2.755-2.428-4.165a68.658,68.658,0,0,1-4.775-10.062,14.86,14.86,0,0,1-.746-2.837,5.323,5.323,0,0,1,.3-2.878,7.219,7.219,0,0,0-1.247,5.418,27.846,27.846,0,0,0,2.74,7.215c1.582,3.249,3.372,6.385,5.215,9.493.31.523.479.527.753,0,.286-.556.622-1.086.936-1.627-.5.164-.59-.3-.747-.551" transform="translate(-43.196 -135.183)" fill="#bd4829"/>
        <path id="Trazado_605404" data-name="Trazado 605404" d="M67.22,189.227A102.99,102.99,0,0,1,61.37,178.3c-1.258-2.864-2.631-5.7-2-8.989a5.321,5.321,0,0,0-.3,2.878,14.866,14.866,0,0,0,.746,2.838,68.646,68.646,0,0,0,4.775,10.062c.771,1.409,1.585,2.8,2.428,4.165.157.254.246.715.747.551-.315-.067-.411-.358-.543-.581" transform="translate(-47.102 -135.183)" fill="#bd4829"/>
        <path id="Trazado_605405" data-name="Trazado 605405" d="M134.848,309.547a37.51,37.51,0,0,1-6.457-2.19,24.792,24.792,0,0,1-3.5-1.859,36.434,36.434,0,0,0,7.091,7.212,32.812,32.812,0,0,0,3.95,2.695v-5.851c-.36.27-.735.079-1.08-.007" transform="translate(-99.71 -243.912)" fill="#18eee3"/>
        <path id="Trazado_605406" data-name="Trazado 605406" d="M126.253,306.077a3.292,3.292,0,0,0-1.367-.58,24.781,24.781,0,0,0,3.5,1.859,37.515,37.515,0,0,0,6.457,2.19c.345.086.719.277,1.08.007-.194-.043-.387-.087-.581-.128a33.312,33.312,0,0,1-9.094-3.348" transform="translate(-99.71 -243.911)" fill="#18eee3"/>
        <path id="Trazado_605407" data-name="Trazado 605407" d="M219.658,22.505a11.356,11.356,0,0,1,2.326-4.663,32.475,32.475,0,0,0-10.731-3.334,47.353,47.353,0,0,1,8.4,8" transform="translate(-168.666 -11.584)" fill="#43fef0"/>
        <path id="Trazado_605408" data-name="Trazado 605408" d="M198.547,328.192a12,12,0,0,1-4,.161,13.681,13.681,0,0,1-1.929-.175,1.225,1.225,0,0,1-.742-.314v5.429a36.616,36.616,0,0,0,6.668-5.1" transform="translate(-153.198 -261.77)" fill="#18eee3"/>
        <path id="Trazado_605409" data-name="Trazado 605409" d="M194.55,328.354a12,12,0,0,0,4-.161,49.657,49.657,0,0,1-6.668-.327,1.222,1.222,0,0,0,.742.314,13.681,13.681,0,0,0,1.929.175" transform="translate(-153.199 -261.77)" fill="#18eee3"/>
        <path id="Trazado_605410" data-name="Trazado 605410" d="M39.847,76.391a5.281,5.281,0,0,1,.408-.707,26.655,26.655,0,0,0-2.921,4.053h1.42a8.732,8.732,0,0,1,1.093-3.346" transform="translate(-29.808 -60.427)" fill="#18ece1"/>
        <path id="Trazado_605411" data-name="Trazado 605411" d="M44.378,79.738l1.5-4.053a5.293,5.293,0,0,0-.408.707,8.739,8.739,0,0,0-1.093,3.346" transform="translate(-35.432 -60.428)" fill="#18ece1"/>
        <path id="Trazado_605412" data-name="Trazado 605412" d="M281.621,48.115a6.031,6.031,0,1,0-6.06-6.065,5.951,5.951,0,0,0,6.06,6.065m-.066-9.647a3.617,3.617,0,1,1-3.581,3.614,3.634,3.634,0,0,1,3.581-3.614" transform="translate(-220.009 -28.786)"/>
        <path id="Trazado_605413" data-name="Trazado 605413" d="M78.059,167.742a6.04,6.04,0,0,0-12.08.032,6.04,6.04,0,1,0,12.08-.032m-6.089,3.673a3.619,3.619,0,1,1,3.672-3.6,3.634,3.634,0,0,1-3.672,3.6" transform="translate(-52.678 -129.153)"/>
        <path id="Trazado_605414" data-name="Trazado 605414" d="M291.117,55.262a3.617,3.617,0,1,0-3.578-3.62,3.629,3.629,0,0,0,3.578,3.62" transform="translate(-229.573 -38.346)" fill="#ecde2e"/>
        <path id="Trazado_605415" data-name="Trazado 605415" d="M81.7,173.745a3.619,3.619,0,1,0,3.562,3.634,3.636,3.636,0,0,0-3.562-3.634" transform="translate(-62.295 -138.719)" fill="#ecde2e"/>
      </g>
    </g>
  </g>
</svg>
