<svg xmlns="http://www.w3.org/2000/svg" xmlns:xlink="http://www.w3.org/1999/xlink" width="105.19" height="100.991" viewBox="0 0 105.19 100.991"><defs><clipPath id="a"><rect width="105.19" height="100.991" fill="none"/></clipPath></defs><g clip-path="url(#a)"><path d="M105.611,55.6A41.406,41.406,0,0,0,75,20.13c-1.639-.451-1.64-.454-1.645-2.172,0-.822.036-1.645-.009-2.464a1.664,1.664,0,0,1,1.16-1.812,6.405,6.405,0,0,0,3.966-4.656A6.689,6.689,0,0,0,72.061.817C67.1.653,62.133.7,57.17.807a6.49,6.49,0,0,0-6.037,3.939,6.37,6.37,0,0,0,.786,6.876,6.462,6.462,0,0,0,2.936,2.167,1.383,1.383,0,0,1,1,1.473c-.015,1.095-.022,2.191,0,3.286a1.339,1.339,0,0,1-1.2,1.5A40.565,40.565,0,0,0,33.08,33.524,3.358,3.358,0,0,1,30.205,34.9c-4.073-.066-8.148-.026-12.222-.024a3.85,3.85,0,0,0-1.616.219,1.768,1.768,0,0,0-1.1,1.8,1.663,1.663,0,0,0,1.408,1.44,5.47,5.47,0,0,0,1.228.071q4.571,0,9.141,0c.308,0,.617-.011.924.011a1.3,1.3,0,0,1,.9.293h.056l-.022.045c.13.207.068.518-.18.973a38.542,38.542,0,0,0-1.949,3.958c-.27.666-.552,1.327-.805,2-.441,1.173-.6,1.3-1.886,1.3q-8.422.016-16.844,0c-1.335,0-2.671-.019-4.005.007-1.2.024-1.854.553-1.961,1.53-.1.911.527,1.632,1.648,1.9a6.6,6.6,0,0,0,1.534.1H22.227c.377,0,.753,0,1.13.015.746.028,1.045.393.908,1.135a50.315,50.315,0,0,0-.748,5.695c-.095,1.368-.36,1.528-1.769,1.535-2.123.01-4.245,0-6.368,0-.308,0-.616-.007-.924.006-1.311.054-2.1.722-2.1,1.767s.79,1.733,2.109,1.75c2.533.032,5.067,0,7.6.015,1.33.008,1.422.125,1.544,1.457a42.3,42.3,0,0,0,.861,5.368c.308,1.379.189,1.543-1.26,1.548-3.595.012-7.189,0-10.784,0a3.94,3.94,0,0,0-2,.367,1.652,1.652,0,0,0,.552,3.134,9.1,9.1,0,0,0,1.128.032q6.111,0,12.222,0c1.549,0,1.635.087,2.226,1.451A40.79,40.79,0,0,0,51.465,99.034a38.62,38.62,0,0,0,13.307,2.2,41.272,41.272,0,0,0,21.718-6.291,2.391,2.391,0,0,0,1.223-2.854,1.277,1.277,0,0,1,.065-.241c-1.212-1.052-1.819-1.074-3.326-.148A37.386,37.386,0,1,1,101.3,53.086a36.492,36.492,0,0,1-5,26.773c-.92,1.5-.861,2.2.285,3.338.057-.034.108-.072.168-.1a2.459,2.459,0,0,0,2.935-1.4,42.373,42.373,0,0,0,5.782-16.174c.084-.6-.159-1.4.645-1.762v-7.19c-.583-.107-.454-.6-.5-.969M69.559,17.754c.084.846-.142,1.108-1.039,1a31.691,31.691,0,0,0-7.867,0c-.884.11-1.137-.135-1.05-.994a12.6,12.6,0,0,0,0-2.251c-.06-.766.13-1.089.986-1.039,1.361.08,2.731.021,4.1.021,1.263,0,2.53.052,3.789-.019.821-.047,1.182.136,1.082,1.033a10.816,10.816,0,0,0,0,2.25M64.5,10.378c-2.36,0-4.72.013-7.08,0a2.875,2.875,0,1,1-.054-5.736q7.182-.04,14.365,0a2.882,2.882,0,1,1-.048,5.74c-2.394.015-4.788,0-7.182,0" transform="translate(-0.919 -0.516)"/><path d="M357.293,232.09a42.373,42.373,0,0,1-5.782,16.174,2.459,2.459,0,0,1-2.935,1.4c-.059.032-.111.07-.167.1l.006.006c1.493.568,2.26.32,3.106-1.026a41.805,41.805,0,0,0,5.652-14.272,25.393,25.393,0,0,1,.765-4.149c-.8.366-.561,1.163-.644,1.762" transform="translate(-252.748 -167.088)"/><path d="M141.981,55.531a40.875,40.875,0,0,0-8.624-21.583,40.519,40.519,0,0,0-22.712-14.7c-.711-.176-1-.434-.946-1.2.077-1.193.042-2.4.01-3.593a.769.769,0,0,1,.6-.871,6.875,6.875,0,0,0,4.578-7.863A6.975,6.975,0,0,0,107.761.009c-4.724-.016-9.449,0-14.174-.006a7.992,7.992,0,0,0-2.229.291,6.973,6.973,0,0,0-5.066,6.173,6.9,6.9,0,0,0,4.44,7.025c.65.244.907.51.864,1.219a26.806,26.806,0,0,0,0,3.387c.048.731-.214.994-.9,1.162A40.614,40.614,0,0,0,68.5,33.313a1.938,1.938,0,0,1-1.719.786c-3.971-.03-7.943-.015-11.914-.014-.616,0-1.235-.028-1.848.012a2.091,2.091,0,0,0-2.038,2.04,2.062,2.062,0,0,0,2.113,2.05c.752.023,1.506.007,2.259.007h9.584a1.3,1.3,0,0,0-.9-.293c-.307-.022-.616-.01-.924-.011q-4.571,0-9.141,0a5.455,5.455,0,0,1-1.228-.071,1.663,1.663,0,0,1-1.408-1.44,1.768,1.768,0,0,1,1.1-1.8,3.85,3.85,0,0,1,1.616-.219c4.074,0,8.149-.042,12.222.024a3.358,3.358,0,0,0,2.875-1.373A40.569,40.569,0,0,1,90.724,19.535a1.339,1.339,0,0,0,1.2-1.5c-.024-1.095-.017-2.191,0-3.286a1.382,1.382,0,0,0-1-1.473,6.464,6.464,0,0,1-2.936-2.167A6.37,6.37,0,0,1,87.2,4.23,6.491,6.491,0,0,1,93.238.292c4.963-.1,9.931-.154,14.891.01a6.689,6.689,0,0,1,6.416,8.208,6.4,6.4,0,0,1-3.966,4.656,1.664,1.664,0,0,0-1.16,1.812c.045.819.007,1.643.009,2.464.005,1.717.006,1.72,1.645,2.172a41.406,41.406,0,0,1,30.606,35.468c.044.365-.085.862.5.969-.267-.1-.176-.334-.195-.52" transform="translate(-36.986 -0.001)"/><path d="M86.794,192.6a2.391,2.391,0,0,1-1.223,2.854,41.272,41.272,0,0,1-21.718,6.291,38.62,38.62,0,0,1-13.307-2.2,40.79,40.79,0,0,1-24.907-23.226c-.591-1.364-.676-1.449-2.226-1.451q-6.111-.007-12.222,0a9.1,9.1,0,0,1-1.128-.032,1.652,1.652,0,0,1-.552-3.134,3.943,3.943,0,0,1,2-.367c3.595,0,7.189.009,10.784,0,1.449-.005,1.567-.169,1.26-1.548a42.3,42.3,0,0,1-.861-5.368c-.122-1.332-.213-1.449-1.544-1.457-2.533-.016-5.067.017-7.6-.015-1.319-.016-2.105-.7-2.109-1.75s.789-1.713,2.1-1.767c.308-.013.616-.005.924-.006,2.123,0,4.245.007,6.368,0,1.409-.007,1.674-.167,1.769-1.535a50.314,50.314,0,0,1,.748-5.695c.137-.742-.162-1.107-.908-1.135-.376-.014-.753-.015-1.13-.015H3.54a6.6,6.6,0,0,1-1.534-.1c-1.122-.265-1.748-.986-1.648-1.9.107-.977.763-1.507,1.961-1.53,1.335-.026,2.67-.007,4.005-.008q8.422,0,16.844,0c1.282,0,1.445-.13,1.886-1.3.253-.673.535-1.334.805-2a38.54,38.54,0,0,1,1.949-3.958c.248-.454.311-.766.18-.973-.158.321-.261.552-.384.768a36.134,36.134,0,0,0-2.856,6.223,1.137,1.137,0,0,1-1.3.91c-6.847-.031-13.695-.019-20.542-.017a9.769,9.769,0,0,0-1.128.031,2.013,2.013,0,0,0-.232,3.959,6.054,6.054,0,0,0,1.324.113q9.757.01,19.515.01c.384,0,.955-.228.749.619a34.063,34.063,0,0,0-.857,6.5c-.029.633-.232.775-.841.767-2.636-.037-5.272-.021-7.909-.014-1.49,0-2.429.8-2.435,2.043s.934,2.058,2.414,2.062c2.67.006,5.341.018,8.011-.011.592-.006.841.114.872.767a28.337,28.337,0,0,0,.983,6.165c.236.86-.044,1-.848.994-3.834-.038-7.669-.019-11.5-.014a6.439,6.439,0,0,0-1.124.065,2.015,2.015,0,0,0,.063,3.985,7.9,7.9,0,0,0,1.127.053c4.211,0,8.423.031,12.633-.021a1.446,1.446,0,0,1,1.621,1.091,41.526,41.526,0,0,0,60.442,19.339c1.482-.938,1.728-1.647,1.127-3.245l-.055-.047a1.277,1.277,0,0,0-.065.241" transform="translate(0 -101.03)"/><path d="M164.79,139.685a5.5,5.5,0,0,1,.767-1.56,35.933,35.933,0,0,0,5.217-15.218A36.734,36.734,0,0,0,165.155,98.7a36.906,36.906,0,0,0-34.714-16.916,37.108,37.108,0,0,0-29.323,19.568,36.269,36.269,0,0,0-4.036,12.964,37.106,37.106,0,0,0,2.887,19.352,35.665,35.665,0,0,0,7.506,11.066,36.17,36.17,0,0,0,16.364,9.615,39.7,39.7,0,0,0,8.39,1.329,36.439,36.439,0,0,0,21.489-5.592c1.493-.919,2.621-.767,3.386.422.215-.541.76-.8,1.2-1.108.665-.476,1.129-1.267,2.01-1.423a2.1,2.1,0,0,1,.013-2.786c.721-.774,1.684-.83,2.876-.171a8.733,8.733,0,0,1,2.7-3.139,1.784,1.784,0,0,1-1.1-2.2m-30.87,10.882A31.864,31.864,0,1,1,165.781,118.7a31.915,31.915,0,0,1-31.861,31.869" transform="translate(-70.236 -59.201)" fill="#5dddf4"/><path d="M341.274,301.142a8.733,8.733,0,0,0-2.7,3.139l.074.04,2.632-3.174h0l-.008,0" transform="translate(-245.615 -218.459)" fill="#5dddf4"/><path d="M317.576,324.765c-.435.312-.98.566-1.2,1.108.015.024.031.045.046.069l3.207-2.523c-.017-.026-.032-.051-.048-.077-.881.156-1.345.947-2.01,1.423" transform="translate(-229.514 -234.563)" fill="#5dddf4"/><path d="M152.99,149.247a36.438,36.438,0,0,1-21.489,5.592,39.686,39.686,0,0,1-8.39-1.329,36.173,36.173,0,0,1-16.364-9.615,35.663,35.663,0,0,1-7.505-11.066,37.1,37.1,0,0,1-2.887-19.352,36.993,36.993,0,0,1,19.577-28.443,36.909,36.909,0,0,1,13.783-4.09A36.907,36.907,0,0,1,164.428,97.86a36.734,36.734,0,0,1,5.618,24.207,35.937,35.937,0,0,1-5.217,15.218,5.485,5.485,0,0,0-.767,1.56,1.784,1.784,0,0,0,1.1,2.2l0,0c-1.147-1.139-1.206-1.841-.285-3.338a36.493,36.493,0,0,0,5-26.773,37.352,37.352,0,1,0-16.843,38.614c1.507-.926,2.113-.9,3.326.148l.009-.023c-.765-1.189-1.893-1.341-3.386-.422" transform="translate(-69.509 -58.36)" fill="#5dddf4"/><path d="M316.351,332.582l.055.047c-.015-.024-.031-.046-.046-.069l-.008.023" transform="translate(-229.492 -241.25)" fill="#5dddf4"/><path d="M348.4,301.138l.008,0h0l-.006-.006,0,0" transform="translate(-252.741 -218.454)" fill="#5dddf4"/><path d="M2.043,255.4A2.061,2.061,0,0,0,0,257.4a2.031,2.031,0,0,0,2.061,2.068,2.034,2.034,0,0,0,2.041-1.987A2.06,2.06,0,0,0,2.043,255.4" transform="translate(-0.002 -185.275)" fill="#010101"/><path d="M329.6,312.162c-1.681-.281-2.643.824-2.122,2.44.062.193.2.374.14.586l.046-.007a5.149,5.149,0,0,0,1.368.315,1.669,1.669,0,0,0,1.642-2.348,2.966,2.966,0,0,1-.276-.841,2.413,2.413,0,0,1-.8-.144" transform="translate(-237.462 -226.421)" fill="#010101"/><path d="M331.323,313.583a1.669,1.669,0,0,1-1.642,2.348,5.143,5.143,0,0,1-1.368-.315l-.046.007a.44.44,0,0,1-.036.089c1.163.745,2.186.726,2.936-.054.766-.8.759-1.71-.021-2.94a.624.624,0,0,1-.1.023,2.964,2.964,0,0,0,.277.841" transform="translate(-238.11 -226.857)" fill="#010101"/><path d="M326.7,311.541a2.1,2.1,0,0,0-.013,2.786l.084-.013c.06-.211-.078-.392-.14-.586-.521-1.616.441-2.72,2.122-2.44a2.415,2.415,0,0,0,.8.144c0-.007,0-.013,0-.019l.027-.044c-1.192-.659-2.154-.6-2.876.171" transform="translate(-236.617 -225.548)" fill="#010101"/><path d="M338.476,312.618c0,.007,0,.013,0,.019a.623.623,0,0,0,.1-.023l-.073-.04-.028.044" transform="translate(-245.542 -226.752)" fill="#010101"/><path d="M328.057,323.308c.016.026.031.051.048.077a.438.438,0,0,0,.037-.09l-.084.013" transform="translate(-237.984 -234.529)" fill="#010101"/><path d="M215.043,17.815a2.921,2.921,0,0,0-3.119-2.855q-7.182-.033-14.365,0a2.875,2.875,0,1,0,.054,5.736c2.36.017,4.72,0,7.08,0,2.394,0,4.788.012,7.182,0a2.909,2.909,0,0,0,3.167-2.884" transform="translate(-141.11 -10.84)" fill="#fe737f"/><path d="M222.569,50.8c-1.259.071-2.526.019-3.79.019-1.366,0-2.735.058-4.1-.021-.857-.05-1.047.272-.986,1.038a12.607,12.607,0,0,1,0,2.251c-.087.859.166,1.1,1.05.994a31.691,31.691,0,0,1,7.867,0c.9.112,1.123-.149,1.039-1a10.813,10.813,0,0,1,0-2.25c.1-.9-.261-1.08-1.082-1.034" transform="translate(-155.009 -36.849)" fill="#d4f4fa"/><path d="M147.8,100.661a31.864,31.864,0,1,0,31.85,31.859,31.858,31.858,0,0,0-31.85-31.859m-.07,59.62a27.756,27.756,0,1,1,27.812-27.68,27.805,27.805,0,0,1-27.812,27.68" transform="translate(-84.105 -73.023)"/><path d="M158.663,115.622A27.756,27.756,0,1,0,186.4,143.455a27.748,27.748,0,0,0-27.734-27.833m-2.015,5.525a2.04,2.04,0,0,1,4.063.213c.019.34,0,.682,0,1.023s.019.684-.005,1.023a2.037,2.037,0,0,1-4.052.191,11.276,11.276,0,0,1-.007-2.45m-17.633,24.171a7.761,7.761,0,0,1-2.644.025,2.022,2.022,0,0,1,.226-4.025c.372-.029.749,0,1.124,0v.016a9.678,9.678,0,0,1,1.122.007,2.021,2.021,0,0,1,.172,3.981m21.645,20.2a2.039,2.039,0,0,1-4.072-.177c-.016-.306,0-.614,0-.921,0-.341-.016-.683,0-1.023a2.04,2.04,0,0,1,4.074-.127,12.693,12.693,0,0,1,0,2.247m14.062-35.378a7.059,7.059,0,0,1-.692.753q-4.532,4.537-9.076,9.061c-.407.4-.6.73-.316,1.308a4.564,4.564,0,0,1,.4,2.109,6.23,6.23,0,0,1-3.822,5.81,6.349,6.349,0,0,1-8.606-7.753,1.333,1.333,0,0,0-.415-1.645c-1.248-1.167-2.44-2.4-3.636-3.618a2.048,2.048,0,0,1-.166-3.079,2.1,2.1,0,0,1,3.09.2c1.294,1.269,2.58,2.547,3.838,3.852a.887.887,0,0,0,1.136.259,5.836,5.836,0,0,1,4.306-.03,1.036,1.036,0,0,0,1.3-.307q4.511-4.557,9.062-9.075a7.045,7.045,0,0,1,.748-.7,2.034,2.034,0,0,1,2.85,2.849m6.012,15.3a13,13,0,0,1-2.147,0,2.045,2.045,0,0,1,.163-4.084c.307-.013.614,0,.921,0s.614-.011.921,0a2.043,2.043,0,0,1,.142,4.082" transform="translate(-94.96 -83.876)" fill="#fefefe"/><path d="M216.436,157.03a7.05,7.05,0,0,0-.748.7q-4.537,4.532-9.062,9.076a1.036,1.036,0,0,1-1.3.307,5.836,5.836,0,0,0-4.306.03.887.887,0,0,1-1.136-.259c-1.258-1.3-2.544-2.583-3.838-3.852a2.1,2.1,0,0,0-3.09-.2,2.049,2.049,0,0,0,.166,3.079c1.2,1.222,2.388,2.45,3.636,3.618a1.333,1.333,0,0,1,.415,1.645,6.349,6.349,0,0,0,8.606,7.753,6.23,6.23,0,0,0,3.822-5.81,4.564,4.564,0,0,0-.4-2.109c-.283-.579-.091-.905.316-1.308q4.557-4.512,9.076-9.061a7.005,7.005,0,0,0,.692-.754,2.034,2.034,0,0,0-2.85-2.849m-13.219,18.357a2.292,2.292,0,0,1-2.264-2.3,2.26,2.26,0,0,1,4.52-.008,2.293,2.293,0,0,1-2.255,2.307" transform="translate(-139.524 -113.618)"/><path d="M226.684,135.237a2.017,2.017,0,0,0,1.885-1.934c.024-.339,0-.682,0-1.023s.018-.683,0-1.023a2.04,2.04,0,0,0-4.062-.213,11.239,11.239,0,0,0,.007,2.449,2.006,2.006,0,0,0,2.166,1.743" transform="translate(-162.821 -93.774)" fill="#010101"/><path d="M301.566,209.317c-.306-.013-.614,0-.921,0s-.614-.012-.921,0a2.045,2.045,0,0,0-.163,4.084,13,13,0,0,0,2.147,0,2.043,2.043,0,0,0-.142-4.082" transform="translate(-215.934 -151.84)" fill="#010101"/><path d="M226.458,282.268a2.047,2.047,0,0,0-2.024,2.018c-.019.34,0,.682,0,1.023,0,.307-.014.614,0,.92a2.039,2.039,0,0,0,4.072.177,12.693,12.693,0,0,0,0-2.247,2.036,2.036,0,0,0-2.051-1.891" transform="translate(-162.806 -204.767)"/><path d="M148.684,209.191a9.678,9.678,0,0,0-1.122-.007v-.017c-.375,0-.751-.025-1.124,0a2.022,2.022,0,0,0-.226,4.025,7.769,7.769,0,0,0,2.644-.025,2.021,2.021,0,0,0-.172-3.981" transform="translate(-104.801 -151.73)" fill="#010101"/><path d="M225.934,208.488a2.228,2.228,0,0,0-2.2,2.226,2.26,2.26,0,1,0,4.52-.009,2.231,2.231,0,0,0-2.315-2.218" transform="translate(-162.301 -151.244)" fill="#fd828d"/></g></svg>