<svg id="Grupo_845318" data-name="Grupo 845318" xmlns="http://www.w3.org/2000/svg" xmlns:xlink="http://www.w3.org/1999/xlink" width="82.545" height="82.588" viewBox="0 0 82.545 82.588">
  <defs>
    <clipPath id="clip-path">
      <rect id="Rectángulo_280674" data-name="Rectángulo 280674" width="82.545" height="82.588" fill="none"/>
    </clipPath>
  </defs>
  <g id="Grupo_845318-2" data-name="Grupo 845318" clip-path="url(#clip-path)">
    <path id="Trazado_582983" data-name="Trazado 582983" d="M56.4,38.517q8.594,0,17.188,0c1.045,0,1.389-.336,1.369-1.372a40.979,40.979,0,0,0-.777-7.177C69.871,8.169,46.795-5.191,25.724,1.923A37.486,37.486,0,0,0,36.837,75c1.368.019,1.632-.24,1.632-1.6q0-17.021-.016-34.042c0-.673.144-.858.84-.854,5.7.032,11.4.018,17.105.018M67.933,22.338a1.027,1.027,0,0,0,.81-1.094c0-.115-.122-.327.159-.376a35.425,35.425,0,0,1,3.614,10.765c.231,1.378.3,2.772.45,4.157.06.549-.059.8-.679.766-.956-.049-1.918-.042-2.875,0-.54.023-.694-.15-.69-.688.025-2.848.011-5.7.011-8.545,0-.192,0-.384,0-.575a1.015,1.015,0,0,0-.754-1.124,1,1,0,0,0-1.213.588c-.127.211-.243.43-.384.63a2.776,2.776,0,0,1-4.833-.082,5.439,5.439,0,0,1,.016-5.61A2.742,2.742,0,0,1,66.294,21a5.362,5.362,0,0,1,.443.689,1.036,1.036,0,0,0,1.2.649M39.475,2.025A37.435,37.435,0,0,1,51.469,4.868a26.2,26.2,0,0,1,6.1,3.553c-.682,0-1.365.017-2.046,0-.653-.02-1.245.074-1.4.824-.149.714.258,1.105.891,1.367a3.479,3.479,0,0,1,1.919,1.822,2.535,2.535,0,0,1-.662,3.129,5.2,5.2,0,0,1-6.508.137c-1.614-1.412-1.4-3.541.5-4.768a5.787,5.787,0,0,1,.8-.408,1.086,1.086,0,0,0-.5-2.1c-1.672.012-3.344,0-5.016,0-2.056,0-4.112-.042-6.166.021-.793.024-.949-.249-.925-.967.05-1.506.072-3.017-.007-4.52-.045-.86.278-.988,1.027-.929M29.807,4.673a2.009,2.009,0,0,0,.085-.888c-.284-.961.3-1.031,1-1.168,1.589-.311,3.2-.412,4.8-.592.667-.075.833.154.816.8-.044,1.67-.016,3.341-.013,5.012,0,.315.021.591-.445.589-2.97-.012-5.941-.006-9.083-.006a6,6,0,0,0,2.837-3.746M20.232,8.388H17.394c1.02-1.255,1.306-1.259,2.838,0M8.008,18v2.178c-1.076-.895-1.067-1.292,0-2.178M1.974,35.97a45.848,45.848,0,0,1,.648-5.362c.062-.318.179-.481.535-.456,2.058.144,3.551-.845,4.884-2.618,0,3-.006,5.757.007,8.511,0,.407-.161.507-.535.5-1.668-.013-3.337-.018-5.005,0-.45.006-.564-.168-.534-.581M8.8,55.335c-.515.086-.654.4-.861,1.8-.476-.759-.917-1.405-1.3-2.084A34.41,34.41,0,0,1,2.1,40.454c-.141-1.938-.148-1.938,1.832-1.938,1.069,0,2.141.054,3.205-.018.766-.052.9.235.889.928C7.989,43.153,8,46.88,8,50.607c0,.614-.056,1.263.724,1.461.719.182.99-.355,1.309-.858a3.071,3.071,0,0,1,3.04-1.7,3.016,3.016,0,0,1,2.488,2.129,5.125,5.125,0,0,1-.3,4.737,2.841,2.841,0,0,1-5,.169l-.047-.067c-.356-.522-.535-1.283-1.409-1.137M17.724,67.07a36.63,36.63,0,0,1-7.246-6.518,1.385,1.385,0,0,1-.4-1.447,6.194,6.194,0,0,0,2.126.788,4.64,4.64,0,0,0,4.369-1.935,7.191,7.191,0,0,0,.046-8.437,4.687,4.687,0,0,0-6.128-1.45c-.142.072-.285.14-.527.259,0-1.258,0-2.427,0-3.6,0-1.836.027-3.671-.009-5.506-.011-.585.171-.729.738-.724,3.4.025,6.794.009,10.192.016a1.158,1.158,0,0,0,1.148-.476.939.939,0,0,0-.374-1.4c-.346-.219-.727-.39-1.05-.638A2.374,2.374,0,0,1,20.3,32.29a5.162,5.162,0,0,1,6.989-.05,2.386,2.386,0,0,1-.355,3.823,9.4,9.4,0,0,1-.916.543.977.977,0,0,0-.54,1.167.958.958,0,0,0,1.043.743h5.014c1.425,0,2.85.02,4.274-.011.509-.011.7.1.7.664q-.028,13.725,0,27.449c0,.527-.128.692-.676.69-5.753-.02-11.507-.013-17.26-.009a1.389,1.389,0,0,1-.846-.23m18.784,2.917c-.049.818-.028,1.642-.006,2.462.011.41-.1.595-.55.569a34.037,34.037,0,0,1-14.1-3.748h1.773c4.051,0,8.1.011,12.153-.013.573,0,.767.147.732.729m-.018-40.605c.008,2.138-.01,4.276.016,6.413.006.534-.082.775-.7.763-2.083-.04-4.166-.018-6.249-.022a.762.762,0,0,1-.193-.072,4.539,4.539,0,0,0,.643-2.974,5.81,5.81,0,0,0-5.219-4.507,7.939,7.939,0,0,0-3.406.338c-3.259,1.166-4.447,3.8-3.149,7.22-2.621,0-5.169-.013-7.716.01-.582.005-.5-.347-.5-.7q0-4.6,0-9.209c0-1.33-.293-1.558-1.648-1.632a1.794,1.794,0,0,0-2.023,1.233A3.046,3.046,0,0,1,3.77,28.17c-.385.04-.571-.053-.441-.5A33.331,33.331,0,0,1,5.959,21.14a1.279,1.279,0,0,1,.492.678,2.289,2.289,0,0,0,2.967.946,1.16,1.16,0,0,0,.6-1.165c-.009-1.973.007-3.947-.011-5.92a1.611,1.611,0,0,1,.385-1.124,40.447,40.447,0,0,1,3.861-3.919,1.187,1.187,0,0,1,.913-.239c2,0,4,0,6,0,1.071,0,1.339-.281,1.345-1.373,0-.274-.021-.55,0-.822a1.243,1.243,0,0,0-.894-1.392,1.5,1.5,0,0,1-.877-.627,34.5,34.5,0,0,1,6.588-2.717c.527-.157.637.013.589.48a3.422,3.422,0,0,1-2.035,2.787,2.571,2.571,0,0,0-.964,3.139c.259.488.7.532,1.2.531,3.18-.009,6.359.017,9.539-.021.694-.008.862.193.851.867-.041,2.466-.014,4.933-.021,7.4a1.176,1.176,0,0,1-.1.761,5.8,5.8,0,0,0-2.8-1.441A4.644,4.644,0,0,0,29,19.914a7.078,7.078,0,0,0,.009,8.43A4.682,4.682,0,0,0,35.631,29.4c.244-.173.475-.362.708-.54.256.131.151.349.152.518m1.96,6.176c.046-2.959.011-5.92.025-8.88,0-.685-.091-1.279-.872-1.462a1.387,1.387,0,0,0-1.8.868,4.684,4.684,0,0,1-.3.583,3.14,3.14,0,0,1-2.91,1.664,2.939,2.939,0,0,1-2.475-1.906,5.122,5.122,0,0,1-.043-4.524,2.979,2.979,0,0,1,2.411-1.989,3.108,3.108,0,0,1,3,1.64,4.882,4.882,0,0,1,.4.807c.364.813,1.078.782,1.757.657.632-.117.832-.62.831-1.24-.009-3.508.013-7.017-.02-10.524-.006-.673.156-.883.855-.873,2.795.041,5.59.017,8.373.017.135.25-.054.381-.144.53a4.537,4.537,0,0,0,.888,6.209,7.057,7.057,0,0,0,9.588-.566,4.543,4.543,0,0,0,.539-5.276c-.141-.26-.293-.513-.48-.837a3.776,3.776,0,0,1,3.476.886,56.775,56.775,0,0,1,4.976,5.68c.359.467.191.97.245,1.6a4.788,4.788,0,0,0-3.721-.767A4.959,4.959,0,0,0,59.5,20.888a6.96,6.96,0,0,0,.46,6.972c1.293,2,3.66,3.175,6.8,1.52,0,2.272-.007,4.463.006,6.652,0,.4-.149.549-.531.512-.136-.013-.274,0-.411,0-8.8,0-17.6-.013-26.4.021-.82,0-.986-.235-.975-1.006" transform="translate(0 0)"/>
    <path id="Trazado_582984" data-name="Trazado 582984" d="M237.527,200.671q-4.522,0-9.044,0-4.563,0-9.126,0c-.954,0-1.281.333-1.294,1.274a14.607,14.607,0,0,1-.011,1.479,1.883,1.883,0,0,0,1.291,2.228,2.878,2.878,0,0,1,1.83,2.871,3.015,3.015,0,0,1-2.058,2.634,5.161,5.161,0,0,1-3.609.266,3.5,3.5,0,0,1-2.836-2.837,3.433,3.433,0,0,1,2.3-3.185,1.19,1.19,0,0,0,.8-1.205c-.024-.821.007-1.645-.011-2.466a.965.965,0,0,0-1.079-1.062q-6.536,0-13.073,0a1.01,1.01,0,0,0-1.135,1.11q-.011,6.865,0,13.729a1.017,1.017,0,0,0,1.14,1.109c.493.008.992-.042,1.479.011a1.883,1.883,0,0,0,2.225-1.3,2.884,2.884,0,0,1,2.86-1.847,2.974,2.974,0,0,1,2.644,2.035,5.105,5.105,0,0,1-.063,4.525,2.932,2.932,0,0,1-2.57,1.9,2.683,2.683,0,0,1-2.72-1.648c-.577-1.487-1.591-1.691-2.914-1.543a6.427,6.427,0,0,1-.657,0c-1.082.008-1.425.342-1.426,1.417q0,8.8,0,17.593c0,1.086.325,1.39,1.437,1.379a37.47,37.47,0,0,0,37.044-37.082c.01-1.087-.3-1.4-1.418-1.4m-30.618,36.042a.489.489,0,0,1-.19.04,36.4,36.4,0,0,1-3.778.413c-.41.046-.515-.157-.509-.529.016-.9.024-1.807,0-2.71-.014-.463.205-.543.6-.535,1.176.023,2.353.022,3.53.03h10.535a29.918,29.918,0,0,1-10.183,3.29m30.048-33.252A35.276,35.276,0,0,1,229.32,223.7a35.921,35.921,0,0,1-7.9,7.358,1.634,1.634,0,0,1-.966.379q-6.943-.029-13.886-.027h0c-1.15.006-2.3,0-3.45.026-.467.011-.691-.1-.687-.63.02-3.149.008-6.3.014-9.448,0-.227-.091-.542.265-.6.319-.048.668-.1.861.283a5.764,5.764,0,0,0,2.993,2.669,4.84,4.84,0,0,0,4.763-1.163,6.644,6.644,0,0,0,1.95-4.687,6.779,6.779,0,0,0-1.955-5.016,4.836,4.836,0,0,0-4.761-1.165,5.744,5.744,0,0,0-2.992,2.668c-.191.384-.545.327-.862.277-.352-.056-.26-.371-.26-.6-.005-3.587.005-7.174-.014-10.76,0-.535.222-.64.688-.629,1.149.028,2.3.02,3.45.026,2.163-.007,4.327-.02,6.49-.009.253,0,.669-.2.715.287.037.389.106.768-.38,1.052a5.34,5.34,0,0,0-2.544,3.2c-.563,1.966.183,3.8,2.069,5.193a7.573,7.573,0,0,0,2.876,1.144h0a7.818,7.818,0,0,0,3.784-.435,5.127,5.127,0,0,0,3.556-4.238c.233-2.128-.92-3.633-2.568-4.82-.173-.124-.406-.171-.5-.4-.24-.567.036-.99.667-.991,5.177,0,10.354.013,15.53-.018.7,0,.733.3.7.835" transform="translate(-156.4 -156.563)"/>
    <path id="Trazado_582985" data-name="Trazado 582985" d="M71.18,177c.548,0,.677-.163.676-.69q-.023-13.725,0-27.449c0-.568-.194-.675-.7-.664-1.424.03-2.849.011-4.274.01H61.868a.958.958,0,0,1-1.043-.743.977.977,0,0,1,.54-1.167,9.442,9.442,0,0,0,.916-.542,2.386,2.386,0,0,0,.355-3.823,5.162,5.162,0,0,0-6.989.05,2.375,2.375,0,0,0,.316,3.717c.322.248.7.418,1.05.638a.938.938,0,0,1,.374,1.4,1.157,1.157,0,0,1-1.148.476c-3.4-.007-6.795.009-10.192-.016-.567,0-.75.14-.738.724.035,1.835.01,3.671.009,5.506,0,1.169,0,2.337,0,3.6.242-.119.385-.187.527-.259a4.686,4.686,0,0,1,6.128,1.45,7.191,7.191,0,0,1-.046,8.437,4.639,4.639,0,0,1-4.369,1.935,6.189,6.189,0,0,1-2.126-.788,1.385,1.385,0,0,0,.4,1.447,36.615,36.615,0,0,0,7.246,6.518,1.388,1.388,0,0,0,.846.23c5.753,0,11.507-.011,17.26.009" transform="translate(-35.349 -109.69)" fill="#edb94b"/>
    <path id="Trazado_582986" data-name="Trazado 582986" d="M170.785,73.376c.137,0,.275-.012.411,0,.382.036.534-.115.531-.512-.013-2.19-.006-4.38-.006-6.652-3.139,1.656-5.506.479-6.8-1.52a6.96,6.96,0,0,1-.46-6.972,4.96,4.96,0,0,1,3.549-3.035,4.788,4.788,0,0,1,3.721.767c-.053-.629.115-1.132-.245-1.6a56.775,56.775,0,0,0-4.976-5.68,3.776,3.776,0,0,0-3.476-.886c.186.325.339.578.479.837a4.543,4.543,0,0,1-.539,5.276,7.057,7.057,0,0,1-9.588.566,4.537,4.537,0,0,1-.888-6.209c.09-.149.279-.28.144-.53-2.783,0-5.578.024-8.373-.017-.7-.01-.861.2-.855.873.033,3.508.011,7.016.02,10.524,0,.621-.2,1.123-.831,1.241-.679.126-1.393.156-1.757-.657a4.881,4.881,0,0,0-.4-.807,3.109,3.109,0,0,0-3-1.64,2.979,2.979,0,0,0-2.411,1.989,5.122,5.122,0,0,0,.043,4.524,2.939,2.939,0,0,0,2.475,1.906,3.14,3.14,0,0,0,2.91-1.664,4.686,4.686,0,0,0,.3-.583,1.386,1.386,0,0,1,1.8-.868c.782.183.876.777.872,1.462-.014,2.96.021,5.92-.025,8.88-.012.771.154,1.009.975,1.006,8.8-.033,17.6-.021,26.4-.021" transform="translate(-104.962 -36.833)" fill="#26b983"/>
    <path id="Trazado_582987" data-name="Trazado 582987" d="M48.011,40.952c-.232.178-.464.367-.708.54a4.682,4.682,0,0,1-6.626-1.059A7.077,7.077,0,0,1,40.669,32a4.645,4.645,0,0,1,4.594-1.95,5.8,5.8,0,0,1,2.8,1.442,1.177,1.177,0,0,0,.1-.761c.007-2.467-.021-4.934.021-7.4.011-.674-.156-.876-.851-.867-3.179.038-6.359.013-9.539.021-.491,0-.937-.043-1.2-.531a2.571,2.571,0,0,1,.964-3.139A3.421,3.421,0,0,0,39.6,16.031c.048-.466-.062-.637-.588-.479a34.48,34.48,0,0,0-6.588,2.717,1.5,1.5,0,0,0,.877.627,1.243,1.243,0,0,1,.894,1.392c-.025.272,0,.548,0,.822-.006,1.092-.274,1.37-1.345,1.373-2,0-4,0-6,0a1.186,1.186,0,0,0-.913.239,40.427,40.427,0,0,0-3.862,3.92,1.61,1.61,0,0,0-.385,1.124c.018,1.973,0,3.947.011,5.92a1.16,1.16,0,0,1-.6,1.165,2.289,2.289,0,0,1-2.967-.945,1.279,1.279,0,0,0-.492-.678A33.345,33.345,0,0,0,15,39.76c-.13.446.056.539.441.5a3.046,3.046,0,0,0,2.574-1.924A1.793,1.793,0,0,1,20.039,37.1c1.355.074,1.648.3,1.648,1.632q0,4.6,0,9.209c0,.352-.08.7.5.7,2.547-.023,5.1-.01,7.717-.01-1.3-3.42-.109-6.054,3.149-7.22a7.935,7.935,0,0,1,3.406-.339,5.811,5.811,0,0,1,5.22,4.507,4.54,4.54,0,0,1-.643,2.974.768.768,0,0,0,.193.072c2.083,0,4.167-.018,6.249.022.619.012.707-.229.7-.763-.026-2.137-.008-4.275-.016-6.413,0-.169.1-.387-.152-.518M25.462,25.9c.647,0,.994.419,1,1.216,0,.849-.361,1.306-1.02,1.286-.619-.019-.952-.462-.954-1.27s.333-1.228.978-1.232m.993,12.824c0,.81-.363,1.237-1.011,1.2-.725-.042-.964-.508-.962-1.171.006-1.394,0-2.789,0-4.183,0-1.367-.007-2.734,0-4.1.006-.778.408-1.277,1.01-1.219.7.066.964.522.963,1.191-.005,2.762,0,5.523,0,8.285" transform="translate(-11.672 -12.089)" fill="#e2536c"/>
    <path id="Trazado_582988" data-name="Trazado 582988" d="M174.916,14.619c-.024.718.132.991.925.967,2.054-.062,4.11-.021,6.166-.021,1.672,0,3.344.008,5.016,0a1.086,1.086,0,0,1,.5,2.1,5.835,5.835,0,0,0-.8.408c-1.892,1.227-2.109,3.355-.5,4.768a5.2,5.2,0,0,0,6.508-.137,2.536,2.536,0,0,0,.662-3.129,3.481,3.481,0,0,0-1.919-1.822c-.633-.262-1.04-.653-.891-1.367.157-.75.749-.844,1.4-.824.681.021,1.364,0,2.046,0a26.193,26.193,0,0,0-6.1-3.552A37.429,37.429,0,0,0,175.936,9.17c-.749-.058-1.072.069-1.027.929.078,1.5.057,3.015.007,4.52" transform="translate(-136.461 -7.145)" fill="#137de3"/>
    <path id="Trazado_582989" data-name="Trazado 582989" d="M17.52,193.172a2.841,2.841,0,0,0,5-.169,5.126,5.126,0,0,0,.3-4.737,3.017,3.017,0,0,0-2.489-2.129,3.071,3.071,0,0,0-3.039,1.7c-.319.5-.59,1.04-1.309.858-.78-.2-.726-.846-.724-1.461.007-3.727-.008-7.454.028-11.18.007-.693-.122-.981-.888-.928-1.064.073-2.136.018-3.205.018-1.98,0-1.973,0-1.832,1.938a34.407,34.407,0,0,0,4.538,14.6c.384.678.825,1.324,1.3,2.084.207-1.4.346-1.719.861-1.8.873-.145,1.053.616,1.409,1.137l.047.067" transform="translate(-7.264 -136.633)" fill="#137de3"/>
    <path id="Trazado_582990" data-name="Trazado 582990" d="M282.038,90.992a2.742,2.742,0,0,0-4.728.147,5.439,5.439,0,0,0-.016,5.61,2.776,2.776,0,0,0,4.833.082c.142-.2.257-.42.384-.63a1,1,0,0,1,1.213-.588,1.014,1.014,0,0,1,.754,1.124c0,.192,0,.384,0,.575,0,2.848.013,5.7-.012,8.545,0,.538.15.711.69.688.957-.04,1.919-.047,2.875,0,.62.032.74-.217.679-.766-.152-1.385-.219-2.779-.45-4.157a35.425,35.425,0,0,0-3.615-10.765c-.281.05-.157.261-.159.376a1.038,1.038,0,0,1-2.006.446,5.355,5.355,0,0,0-.443-.689" transform="translate(-215.744 -69.992)" fill="#e2536c"/>
    <path id="Trazado_582991" data-name="Trazado 582991" d="M131.786,15.568c.466,0,.445-.275.445-.589,0-1.671-.03-3.342.013-5.012.017-.644-.15-.873-.817-.8-1.6.18-3.211.282-4.8.592-.7.136-1.287.207-1,1.168a2,2,0,0,1-.085.887,5.994,5.994,0,0,1-2.837,3.746c3.142,0,6.112-.006,9.083.006" transform="translate(-95.733 -7.142)" fill="#21cbcb"/>
    <path id="Trazado_582992" data-name="Trazado 582992" d="M9.5,134.282c1.668-.021,3.337-.016,5.006,0,.374,0,.536-.1.534-.5-.013-2.755-.007-5.509-.007-8.511-1.333,1.773-2.826,2.762-4.884,2.618-.356-.025-.474.138-.535.456a45.8,45.8,0,0,0-.648,5.362c-.03.413.084.587.534.581" transform="translate(-6.991 -97.731)" fill="#21cbcb"/>
    <path id="Trazado_582993" data-name="Trazado 582993" d="M113.335,315.095c-4.051.024-8.1.013-12.153.013H99.408a34.037,34.037,0,0,0,14.1,3.748c.455.026.561-.159.55-.569-.022-.82-.043-1.644.006-2.462.035-.582-.159-.733-.732-.729" transform="translate(-77.558 -245.837)" fill="#e2536c"/>
    <path id="Trazado_582994" data-name="Trazado 582994" d="M79.136,34.813h2.838c-1.532-1.259-1.818-1.255-2.838,0" transform="translate(-61.742 -26.426)" fill="#21cbcb"/>
    <path id="Trazado_582995" data-name="Trazado 582995" d="M33.583,84.082V81.9c-1.067.886-1.076,1.283,0,2.178" transform="translate(-25.574 -63.902)" fill="#21cbcb"/>
    <path id="Trazado_582996" data-name="Trazado 582996" d="M257.9,209.576c-5.176.031-10.353.016-15.53.019-.631,0-.907.423-.667.99.1.225.329.273.5.4,1.648,1.187,2.8,2.692,2.569,4.82a5.126,5.126,0,0,1-3.556,4.237,7.815,7.815,0,0,1-3.784.436h0a6.147,6.147,0,0,1,.859,7.085,3.811,3.811,0,0,1-5.008,2.007,3.055,3.055,0,0,0-.317-.071,4.84,4.84,0,0,1-4.763,1.163q0,3.848.005,7.7c4.629.006,9.257.008,13.886.027a1.634,1.634,0,0,0,.966-.379,35.913,35.913,0,0,0,7.9-7.358,35.276,35.276,0,0,0,7.637-20.234c.033-.536,0-.839-.7-.835" transform="translate(-178.044 -163.511)" fill="#137de3"/>
    <path id="Trazado_582997" data-name="Trazado 582997" d="M232.475,214.091a5.34,5.34,0,0,1,2.544-3.2c.486-.284.417-.663.38-1.052-.046-.486-.462-.286-.715-.287-2.163-.01-4.326,0-6.49.009q0,4.509-.009,9.017a4.836,4.836,0,0,1,4.761,1.165,6.855,6.855,0,0,0,1.6-.463c-1.886-1.4-2.632-3.227-2.069-5.193" transform="translate(-178.031 -163.464)" fill="#5fa7ec"/>
    <path id="Trazado_582998" data-name="Trazado 582998" d="M213.262,217.587q-.015-3.433,0-6.866a1.39,1.39,0,0,1,.279-1.076c-1.15-.006-2.3,0-3.45-.026-.466-.011-.691.094-.688.629.019,3.587.008,7.174.014,10.76,0,.227-.092.543.26.6.318.05.671.107.862-.277a5.744,5.744,0,0,1,2.993-2.668h0a1.337,1.337,0,0,1-.268-1.075" transform="translate(-163.376 -163.545)" fill="#487c9f"/>
    <path id="Trazado_582999" data-name="Trazado 582999" d="M227.217,209.739a1.389,1.389,0,0,0-.279,1.076q-.011,3.433,0,6.866a1.337,1.337,0,0,0,.268,1.075Q227.212,214.248,227.217,209.739Z" transform="translate(-177.053 -163.639)" fill="#487c9f"/>
    <path id="Trazado_583000" data-name="Trazado 583000" d="M250.479,264.075a4.016,4.016,0,0,0,5.048-3.391,6.047,6.047,0,0,0-.934-4.85c-.148-.217-.375-.418-.273-.734a7.569,7.569,0,0,1-2.876-1.144h0a1.293,1.293,0,0,1-1.6.463,6.779,6.779,0,0,1,1.955,5.015,6.645,6.645,0,0,1-1.95,4.687c.2-.163.411-.089.626-.046" transform="translate(-194.932 -198.138)" fill="#487c9f"/>
    <path id="Trazado_583001" data-name="Trazado 583001" d="M255.2,266.247a6.148,6.148,0,0,0-.859-7.085c-.1.316.125.517.273.734a6.049,6.049,0,0,1,.934,4.85,4.016,4.016,0,0,1-5.048,3.391c-.215-.042-.428-.117-.626.046a3.039,3.039,0,0,1,.318.072,3.812,3.812,0,0,0,5.008-2.007" transform="translate(-194.95 -202.199)" fill="#487c9f"/>
    <path id="Trazado_583002" data-name="Trazado 583002" d="M251.444,253.957h0a6.854,6.854,0,0,1-1.6.462,1.293,1.293,0,0,0,1.6-.462" transform="translate(-194.932 -198.138)" fill="#487c9f"/>
    <path id="Trazado_583003" data-name="Trazado 583003" d="M213.265,295.886a1.211,1.211,0,0,1,.27-.99,5.765,5.765,0,0,1-2.993-2.669c-.192-.385-.541-.33-.861-.283-.356.053-.264.368-.265.6-.006,3.15.007,6.3-.014,9.448,0,.534.22.641.687.63,1.15-.028,2.3-.02,3.45-.026a1.285,1.285,0,0,1-.277-.993q-.014-2.856,0-5.713" transform="translate(-163.376 -227.75)" fill="#487c9f"/>
    <path id="Trazado_583004" data-name="Trazado 583004" d="M226.943,306.482q-.018,2.856,0,5.713a1.285,1.285,0,0,0,.277.993q0-3.848-.006-7.7a1.211,1.211,0,0,0-.27.99" transform="translate(-177.054 -238.345)" fill="#487c9f"/>
    <path id="Trazado_583005" data-name="Trazado 583005" d="M228.145,352.28c0,.291-.064.62.359.7-.063.015-.127.027-.19.04a.489.489,0,0,0,.19-.04,29.921,29.921,0,0,0,10.183-3.29H228.153c0,.865-.007,1.73-.008,2.595" transform="translate(-177.997 -272.825)" fill="#e2536c"/>
    <path id="Trazado_583006" data-name="Trazado 583006" d="M213.384,352.62a5.112,5.112,0,0,1,.155-3.043c-1.177-.008-2.354-.007-3.53-.03-.392-.008-.611.073-.6.535.027.9.018,1.807,0,2.71-.007.372.1.575.508.529a36.419,36.419,0,0,0,3.778-.413.307.307,0,0,1-.316-.288" transform="translate(-163.382 -272.717)" fill="#b96376"/>
    <path id="Trazado_583007" data-name="Trazado 583007" d="M227.086,352.28c0-.865,0-1.73.008-2.595a5.114,5.114,0,0,0-.154,3.043.306.306,0,0,0,.316.288c.063-.014.127-.025.19-.04-.423-.075-.359-.4-.359-.7" transform="translate(-176.937 -272.825)" fill="#b96376"/>
    <path id="Trazado_583008" data-name="Trazado 583008" d="M59.291,78.054c-.6-.057-1,.441-1.01,1.219-.01,1.367,0,2.734,0,4.1,0,1.394,0,2.789,0,4.183,0,.663.236,1.129.961,1.171.648.038,1.009-.39,1.011-1.2.007-2.762,0-5.523,0-8.285,0-.669-.266-1.125-.963-1.191" transform="translate(-45.467 -60.895)" fill="#284268" stroke="#000" stroke-width="1"/>
    <path id="Trazado_583009" data-name="Trazado 583009" d="M59.24,65.338c.66.02,1.022-.437,1.02-1.286,0-.8-.348-1.22-1-1.216s-.98.426-.978,1.232.335,1.251.954,1.27" transform="translate(-45.475 -49.025)" fill="#294268" stroke="#000" stroke-width="1"/>
  </g>
</svg>
