<svg xmlns="http://www.w3.org/2000/svg" xmlns:xlink="http://www.w3.org/1999/xlink" width="116" height="36" viewBox="0 0 116 36">
  <defs>
    <clipPath id="clip-path">
      <rect id="Rect치ngulo_292470" data-name="Rect치ngulo 292470" width="21.04" height="21.942" fill="#4a2efc"/>
    </clipPath>
  </defs>
  <g id="Grupo_874030" data-name="Grupo 874030" transform="translate(-899 -1483.563)">
    <rect id="Rect치ngulo_290791" data-name="Rect치ngulo 290791" width="116" height="36" transform="translate(899 1483.563)" fill="#fff"/>
    <path id="Trazado_609221" data-name="Trazado 609221" d="M3.814,11.506,6.252,4.469h1.23L4.318,13h-1L.164,4.469H1.389Zm7.271,1.611a2.77,2.77,0,0,1-2.1-.847,3.142,3.142,0,0,1-.809-2.265v-.2a3.8,3.8,0,0,1,.36-1.685,2.811,2.811,0,0,1,1.008-1.16,2.534,2.534,0,0,1,1.4-.419,2.374,2.374,0,0,1,1.922.814,3.526,3.526,0,0,1,.686,2.332v.451H9.264a2.254,2.254,0,0,0,.548,1.515,1.722,1.722,0,0,0,1.333.577A1.888,1.888,0,0,0,12.117,12a2.444,2.444,0,0,0,.7-.621l.662.516A2.662,2.662,0,0,1,11.086,13.117Zm-.135-5.684a1.446,1.446,0,0,0-1.1.478A2.321,2.321,0,0,0,9.3,9.25h3.176V9.168a2.065,2.065,0,0,0-.445-1.28A1.361,1.361,0,0,0,10.951,7.434Zm4.887-.773.035.8a2.31,2.31,0,0,1,1.9-.914q2.01,0,2.027,2.268V13H18.715V8.8A1.459,1.459,0,0,0,18.4,7.791a1.256,1.256,0,0,0-.958-.328,1.564,1.564,0,0,0-.926.281,1.91,1.91,0,0,0-.621.738V13H14.813V6.66ZM22.9,5.125V6.66h1.184V7.5H22.9v3.937a.88.88,0,0,0,.158.572.666.666,0,0,0,.539.191,2.624,2.624,0,0,0,.516-.07V13a3.161,3.161,0,0,1-.832.116,1.35,1.35,0,0,1-1.1-.439,1.888,1.888,0,0,1-.369-1.248V7.5H20.666V6.66H21.82V5.125ZM29.268,13a2.277,2.277,0,0,1-.152-.668,2.419,2.419,0,0,1-1.8.785,2.238,2.238,0,0,1-1.538-.53,1.716,1.716,0,0,1-.6-1.345A1.792,1.792,0,0,1,25.925,9.7a3.55,3.55,0,0,1,2.118-.548H29.1v-.5a1.217,1.217,0,0,0-.34-.905,1.366,1.366,0,0,0-1-.337,1.581,1.581,0,0,0-.973.293.863.863,0,0,0-.393.709H25.3a1.5,1.5,0,0,1,.337-.917,2.3,2.3,0,0,1,.914-.7,3.075,3.075,0,0,1,1.269-.258,2.506,2.506,0,0,1,1.717.548A1.976,1.976,0,0,1,30.182,8.6v2.918a3.567,3.567,0,0,0,.223,1.389V13Zm-1.8-.826a1.905,1.905,0,0,0,.967-.264,1.6,1.6,0,0,0,.662-.686v-1.3h-.85q-1.992,0-1.992,1.166a.987.987,0,0,0,.34.8A1.306,1.306,0,0,0,27.469,12.174Zm8.1-.855a.8.8,0,0,0-.331-.683,3.187,3.187,0,0,0-1.154-.419,5.457,5.457,0,0,1-1.307-.422,1.859,1.859,0,0,1-.715-.586,1.4,1.4,0,0,1-.231-.809,1.645,1.645,0,0,1,.659-1.318,2.574,2.574,0,0,1,1.685-.539,2.649,2.649,0,0,1,1.749.557A1.768,1.768,0,0,1,36.6,8.523h-1.09a.979.979,0,0,0-.378-.768,1.416,1.416,0,0,0-.952-.322,1.482,1.482,0,0,0-.926.258.812.812,0,0,0-.334.674.658.658,0,0,0,.311.592,3.821,3.821,0,0,0,1.122.381,5.847,5.847,0,0,1,1.315.434,1.919,1.919,0,0,1,.747.606,1.491,1.491,0,0,1,.243.864,1.623,1.623,0,0,1-.68,1.362,2.851,2.851,0,0,1-1.764.513,3.193,3.193,0,0,1-1.348-.27,2.192,2.192,0,0,1-.917-.753,1.815,1.815,0,0,1-.331-1.046H32.7a1.122,1.122,0,0,0,.437.864,1.693,1.693,0,0,0,1.075.319,1.748,1.748,0,0,0,.987-.249A.765.765,0,0,0,35.572,11.318Z" transform="translate(944.561 1494.735)" fill="#12263f"/>
    <g id="Grupo_874001" data-name="Grupo 874001" transform="translate(912.532 1493.232)">
      <g id="Grupo_874001-2" data-name="Grupo 874001" clip-path="url(#clip-path)">
        <path id="Trazado_608960" data-name="Trazado 608960" d="M12.147,21.116c.323-.333.668-.645,1-.97a.721.721,0,0,1,.645-.211c.544.079,1.088.152,1.631.236a1.919,1.919,0,0,0,2.31-1.6c.109-.538.2-1.08.285-1.623a.838.838,0,0,1,.481-.681c.491-.245.974-.508,1.457-.77a1.914,1.914,0,0,0,.858-2.644c-.233-.489-.465-.979-.715-1.46a.851.851,0,0,1,0-.853c.241-.461.461-.933.689-1.4a1.926,1.926,0,0,0-.879-2.719c-.472-.252-.94-.511-1.418-.75a.823.823,0,0,1-.473-.663c-.08-.522-.173-1.041-.268-1.561A1.916,1.916,0,0,0,15.5,1.761c-.546.063-1.089.145-1.631.234a.808.808,0,0,1-.76-.235c-.393-.394-.8-.778-1.2-1.163A1.913,1.913,0,0,0,9.129.6Q8.51,1.19,7.9,1.79a.724.724,0,0,1-.643.216c-.544-.079-1.088-.152-1.631-.237A1.919,1.919,0,0,0,3.309,3.364c-.111.545-.2,1.094-.289,1.644a.825.825,0,0,1-.474.663c-.485.242-.96.5-1.438.76A1.921,1.921,0,0,0,.233,9.1c.238.5.477.989.725,1.479a.8.8,0,0,1,0,.776c-.252.5-.495,1-.734,1.5A1.915,1.915,0,0,0,1.086,15.5c.489.265.98.528,1.476.78a.785.785,0,0,1,.45.609c.086.521.182,1.04.267,1.561a1.926,1.926,0,0,0,2.275,1.73q.818-.1,1.631-.234a.788.788,0,0,1,.74.231c.317.319.654.618.967.941a2.517,2.517,0,0,0,1.413.825h.429a2.52,2.52,0,0,0,1.413-.825m-1.121-.682a.654.654,0,0,1-1.017,0c-.391-.376-.785-.75-1.169-1.133a2.022,2.022,0,0,0-1.811-.609c-.543.08-1.088.153-1.631.235a.659.659,0,0,1-.847-.589c-.1-.54-.2-1.08-.287-1.622a1.987,1.987,0,0,0-1.111-1.552c-.482-.247-.958-.506-1.437-.761a.669.669,0,0,1-.337-1.024c.24-.494.478-.989.724-1.48a1.958,1.958,0,0,0,0-1.849c-.249-.5-.491-1-.733-1.5a.662.662,0,0,1,.325-1c.491-.262.981-.525,1.475-.781A1.981,1.981,0,0,0,4.264,5.229c.086-.549.188-1.1.29-1.643a.654.654,0,0,1,.82-.575c.593.086,1.186.171,1.78.249A1.894,1.894,0,0,0,8.79,2.689Q9.4,2.1,10.006,1.512a.657.657,0,0,1,1.033.005c.391.376.786.749,1.169,1.133a2.016,2.016,0,0,0,1.856.6c.542-.087,1.087-.161,1.631-.237a.646.646,0,0,1,.789.565c.112.6.213,1.194.322,1.79a1.9,1.9,0,0,0,1.034,1.391c.5.265,1,.527,1.493.792a.665.665,0,0,1,.333,1.009c-.243.5-.485,1-.733,1.5a1.953,1.953,0,0,0,0,1.83q.376.757.744,1.518a.659.659,0,0,1-.32.982c-.421.226-.835.469-1.269.666a2.205,2.205,0,0,0-1.355,1.9c-.055.488-.161.971-.253,1.454a.642.642,0,0,1-.7.534c-.525-.074-1.086-.136-1.641-.235a2.057,2.057,0,0,0-1.951.611c-.374.383-.767.748-1.153,1.119" transform="translate(0 0.001)" fill="#4a2efc"/>
        <path id="Trazado_608961" data-name="Trazado 608961" d="M115.861,115.884a.6.6,0,0,0,.065-.664.6.6,0,0,0-.57-.348.76.76,0,0,0-.549.291q-4.065,4.068-8.132,8.134a1.516,1.516,0,0,0-.173.189.628.628,0,0,0,.5.995.742.742,0,0,0,.572-.29q4.065-4.068,8.132-8.134a1.739,1.739,0,0,0,.16-.173" transform="translate(-100.668 -108.706)" fill="#4a2efc"/>
        <path id="Trazado_608962" data-name="Trazado 608962" d="M107.993,102.9a2.319,2.319,0,1,0-2.305-2.343,2.32,2.32,0,0,0,2.305,2.343m.02-3.363a1.048,1.048,0,0,1,1.042,1.052,1.053,1.053,0,1,1-2.105-.02,1.05,1.05,0,0,1,1.063-1.032" transform="translate(-100.015 -92.987)" fill="#4a2efc"/>
        <path id="Trazado_608963" data-name="Trazado 608963" d="M204.6,226.436a2.317,2.317,0,1,0-2.316,2.336,2.31,2.31,0,0,0,2.316-2.336m-3.367.029a1.053,1.053,0,1,1,2.1-.019,1.053,1.053,0,0,1-2.1.019" transform="translate(-189.229 -212.106)" fill="#4a2efc"/>
      </g>
    </g>
  </g>
</svg>
