<svg xmlns="http://www.w3.org/2000/svg" xmlns:xlink="http://www.w3.org/1999/xlink" width="149" height="48" viewBox="0 0 149 48">
  <defs>
    <clipPath id="clip-path">
      <rect id="Rect치ngulo_292469" data-name="Rect치ngulo 292469" width="23.693" height="21.943" fill="#4a2efc"/>
    </clipPath>
  </defs>
  <g id="Grupo_874032" data-name="Grupo 874032" transform="translate(-723 -1475.204)">
    <g id="Grupo_870105" data-name="Grupo 870105" transform="translate(44 -405.233)">
      <rect id="Rect치ngulo_290790" data-name="Rect치ngulo 290790" width="149" height="48" transform="translate(679 1880.438)" fill="#fff"/>
      <path id="Trazado_609222" data-name="Trazado 609222" d="M2.93,17H1.43V5.625h1.5ZM6.813,8.547l.047,1.063A3.08,3.08,0,0,1,9.391,8.391q2.68,0,2.7,3.023V17H10.648V11.406a1.946,1.946,0,0,0-.418-1.352,1.675,1.675,0,0,0-1.277-.437,2.086,2.086,0,0,0-1.234.375,2.546,2.546,0,0,0-.828.984V17H5.445V8.547Zm10.25,6.492,2.094-6.492h1.477L17.6,17H16.5L13.438,8.547h1.477Zm8.469,2.117a3.693,3.693,0,0,1-2.8-1.129,4.19,4.19,0,0,1-1.078-3.02v-.266a5.073,5.073,0,0,1,.48-2.246A3.748,3.748,0,0,1,23.48,8.949a3.378,3.378,0,0,1,1.871-.559,3.166,3.166,0,0,1,2.563,1.086,4.7,4.7,0,0,1,.914,3.109v.6H23.1a3,3,0,0,0,.73,2.02,2.3,2.3,0,0,0,1.777.77,2.517,2.517,0,0,0,1.3-.312,3.259,3.259,0,0,0,.93-.828l.883.688A3.55,3.55,0,0,1,25.531,17.156Zm-.18-7.578a1.928,1.928,0,0,0-1.469.637A3.1,3.1,0,0,0,23.148,12h4.234v-.109a2.753,2.753,0,0,0-.594-1.707A1.815,1.815,0,0,0,25.352,9.578Zm6.516-1.031.047,1.063a3.08,3.08,0,0,1,2.531-1.219q2.68,0,2.7,3.023V17H35.7V11.406a1.946,1.946,0,0,0-.418-1.352,1.675,1.675,0,0,0-1.277-.437,2.086,2.086,0,0,0-1.234.375,2.546,2.546,0,0,0-.828.984V17H30.5V8.547ZM41.289,6.5V8.547h1.578V9.664H41.289v5.249a1.173,1.173,0,0,0,.211.763.888.888,0,0,0,.719.254,3.5,3.5,0,0,0,.688-.094V17a4.215,4.215,0,0,1-1.109.155,1.8,1.8,0,0,1-1.461-.586,2.517,2.517,0,0,1-.492-1.664V9.664H38.3V8.547h1.539V6.5ZM49.773,17a3.036,3.036,0,0,1-.2-.891,3.225,3.225,0,0,1-2.406,1.047,2.984,2.984,0,0,1-2.051-.707,2.287,2.287,0,0,1-.8-1.793,2.39,2.39,0,0,1,1-2.051,4.733,4.733,0,0,1,2.824-.73h1.406v-.664A1.623,1.623,0,0,0,49.094,10a1.821,1.821,0,0,0-1.336-.449,2.107,2.107,0,0,0-1.3.391,1.151,1.151,0,0,0-.523.945H44.484a2,2,0,0,1,.449-1.223,3.066,3.066,0,0,1,1.219-.934,4.1,4.1,0,0,1,1.691-.344,3.342,3.342,0,0,1,2.289.73,2.635,2.635,0,0,1,.859,2.012v3.891a4.757,4.757,0,0,0,.3,1.852V17Zm-2.4-1.1a2.54,2.54,0,0,0,1.289-.352,2.127,2.127,0,0,0,.883-.914V12.9H48.414q-2.656,0-2.656,1.555a1.316,1.316,0,0,0,.453,1.063A1.742,1.742,0,0,0,47.375,15.9Zm9.969-6.055a4.331,4.331,0,0,0-.711-.055A1.9,1.9,0,0,0,54.7,11v6H53.258V8.547h1.406l.023.977A2.251,2.251,0,0,1,56.7,8.391a1.477,1.477,0,0,1,.641.109ZM60.242,17H58.8V8.547h1.445ZM58.68,6.3a.863.863,0,0,1,.215-.594.807.807,0,0,1,.637-.242.819.819,0,0,1,.641.242.854.854,0,0,1,.219.594.826.826,0,0,1-.219.586.834.834,0,0,1-.641.234.821.821,0,0,1-.637-.234A.834.834,0,0,1,58.68,6.3ZM62.172,12.7a4.993,4.993,0,0,1,.488-2.234A3.643,3.643,0,0,1,64.02,8.93a3.7,3.7,0,0,1,1.988-.539,3.565,3.565,0,0,1,2.793,1.2,4.6,4.6,0,0,1,1.066,3.18v.1a5.036,5.036,0,0,1-.473,2.215,3.589,3.589,0,0,1-1.352,1.527,3.743,3.743,0,0,1-2.02.547,3.556,3.556,0,0,1-2.785-1.2A4.575,4.575,0,0,1,62.172,12.8Zm1.453.172a3.616,3.616,0,0,0,.652,2.258,2.211,2.211,0,0,0,3.5-.012,3.955,3.955,0,0,0,.648-2.418,3.61,3.61,0,0,0-.66-2.254,2.1,2.1,0,0,0-1.754-.863,2.075,2.075,0,0,0-1.727.852A3.925,3.925,0,0,0,63.625,12.867ZM76.6,14.758a1.064,1.064,0,0,0-.441-.91,4.249,4.249,0,0,0-1.539-.559,7.277,7.277,0,0,1-1.742-.562,2.479,2.479,0,0,1-.953-.781,1.869,1.869,0,0,1-.309-1.078A2.193,2.193,0,0,1,72.5,9.109a3.432,3.432,0,0,1,2.246-.719,3.532,3.532,0,0,1,2.332.742,2.357,2.357,0,0,1,.895,1.9H76.516a1.3,1.3,0,0,0-.5-1.023,1.888,1.888,0,0,0-1.27-.43,1.976,1.976,0,0,0-1.234.344,1.082,1.082,0,0,0-.445.9.877.877,0,0,0,.414.789,5.1,5.1,0,0,0,1.5.508,7.8,7.8,0,0,1,1.754.578,2.558,2.558,0,0,1,1,.809,1.988,1.988,0,0,1,.324,1.152,2.163,2.163,0,0,1-.906,1.816,3.8,3.8,0,0,1-2.352.684,4.257,4.257,0,0,1-1.8-.359,2.922,2.922,0,0,1-1.223-1,2.42,2.42,0,0,1-.441-1.395h1.445a1.5,1.5,0,0,0,.582,1.152,2.258,2.258,0,0,0,1.434.426,2.331,2.331,0,0,0,1.316-.332A1.02,1.02,0,0,0,76.6,14.758Z" transform="translate(726.561 1894.438)" fill="#12263f"/>
    </g>
    <g id="Grupo_874000" data-name="Grupo 874000" transform="translate(737.178 1488.233)">
      <g id="Grupo_874000-2" data-name="Grupo 874000" clip-path="url(#clip-path)">
        <path id="Trazado_608959" data-name="Trazado 608959" d="M23.493,21.942c.066,0,.133-.009.2-.013V17.568H21.335V8.775H19.1V0H8.922V8.792H2.355v8.8H0v4.352c.031,0,.062,0,.092,0h23.4m-5.081-11.76h1.526v7.374H12.561V10.187h1.513v3h4.338Zm-2.933,0h1.539V11.8H15.479ZM13.25,1.395h1.53V3H13.25Zm-2.919,0h1.514v3h4.339v-3H17.7V8.768H10.331ZM6.686,10.178H8.224V11.8H6.686Zm-2.917,0H5.279v3H9.624v-3h1.518v7.379H3.769ZM1.4,18.982H22.31v1.555H1.4Z" fill="#4a2efc"/>
      </g>
    </g>
  </g>
</svg>
