<svg xmlns="http://www.w3.org/2000/svg" xmlns:xlink="http://www.w3.org/1999/xlink" width="386.843" height="74.858" viewBox="0 0 386.843 74.858">
  <defs>
    <clipPath id="clip-path">
      <rect id="Rectángulo_289860" data-name="Rectángulo 289860" width="74.843" height="74.858" fill="none"/>
    </clipPath>
  </defs>
  <g id="Grupo_874032" data-name="Grupo 874032" transform="translate(-180 -7002.03)">
    <path id="Trazado_604118" data-name="Trazado 604118" d="M0,0H366.823L363.9,52.528,0,52Z" transform="translate(180 7013.503)" fill="#fff0a6"/>
    <path id="Trazado_609220" data-name="Trazado 609220" d="M1.182,23V7.359H6.8a7.956,7.956,0,0,1,4.592,1.106,3.682,3.682,0,0,1,1.574,3.212,3.721,3.721,0,0,1-.559,2.073,3.255,3.255,0,0,1-1.644,1.268,3.3,3.3,0,0,1,1.88,1.2A3.5,3.5,0,0,1,13.3,18.37a4.141,4.141,0,0,1-1.456,3.454A6.927,6.927,0,0,1,7.53,23Zm3.771-6.649V20.1H7.423a2.35,2.35,0,0,0,1.568-.467,1.635,1.635,0,0,0,.548-1.316,1.734,1.734,0,0,0-1.944-1.966Zm0-2.471H6.918a2.793,2.793,0,0,0,1.762-.453,1.606,1.606,0,0,0,.526-1.3A1.686,1.686,0,0,0,8.637,10.7,3.047,3.047,0,0,0,6.8,10.26H4.952ZM21.753,23a4.087,4.087,0,0,1-.344-1.042,3.366,3.366,0,0,1-2.793,1.257,4.124,4.124,0,0,1-2.793-.994,3.163,3.163,0,0,1-1.149-2.5,3.251,3.251,0,0,1,1.4-2.857,7.114,7.114,0,0,1,4.061-.967h1.117v-.615q0-1.608-1.386-1.608a1.133,1.133,0,0,0-1.289,1.274h-3.62a3.245,3.245,0,0,1,1.434-2.736,6.027,6.027,0,0,1,3.658-1.051,5.284,5.284,0,0,1,3.513,1.085,3.772,3.772,0,0,1,1.321,2.976v5.146a5.269,5.269,0,0,0,.494,2.449V23Zm-2.267-2.363a2.019,2.019,0,0,0,1.123-.29,1.818,1.818,0,0,0,.639-.655V17.833H20.2q-1.891,0-1.891,1.7a1.036,1.036,0,0,0,.333.8A1.205,1.205,0,0,0,19.486,20.637Zm13.481-.9a.836.836,0,0,0-.483-.741,7.353,7.353,0,0,0-1.837-.58,8.376,8.376,0,0,1-2.234-.79,3.743,3.743,0,0,1-1.343-1.187,2.834,2.834,0,0,1-.462-1.6A3.212,3.212,0,0,1,27.93,12.2a5.443,5.443,0,0,1,3.459-1.037,6.03,6.03,0,0,1,3.7,1.042,3.258,3.258,0,0,1,1.4,2.739H32.85q0-1.4-1.472-1.4a1.459,1.459,0,0,0-.956.317.981.981,0,0,0-.387.79.9.9,0,0,0,.473.784,4.466,4.466,0,0,0,1.509.494,13.042,13.042,0,0,1,1.821.462q2.621.9,2.621,3.233a3.044,3.044,0,0,1-1.413,2.589,6.2,6.2,0,0,1-3.658,1,6.322,6.322,0,0,1-2.664-.537A4.455,4.455,0,0,1,26.9,21.217a3.308,3.308,0,0,1-.655-1.944h3.384a1.4,1.4,0,0,0,.537,1.176,2.209,2.209,0,0,0,1.321.371,1.738,1.738,0,0,0,1.112-.3A.962.962,0,0,0,32.968,19.734Zm10.807,3.48a5.975,5.975,0,0,1-4.329-1.6,5.509,5.509,0,0,1-1.654-4.152v-.3a7.138,7.138,0,0,1,.661-3.147,4.834,4.834,0,0,1,1.928-2.111,5.821,5.821,0,0,1,3.008-.747,5.031,5.031,0,0,1,3.867,1.52,5.973,5.973,0,0,1,1.418,4.238v1.407h-7.2a2.609,2.609,0,0,0,.849,1.536,2.525,2.525,0,0,0,1.7.559,3.254,3.254,0,0,0,2.686-1.2l1.654,1.955a4.624,4.624,0,0,1-1.917,1.488A6.48,6.48,0,0,1,43.774,23.215Zm-.408-9.26q-1.59,0-1.891,2.105h3.652v-.279a1.793,1.793,0,0,0-.44-1.348A1.753,1.753,0,0,0,43.366,13.955Zm12.848,5.779a.836.836,0,0,0-.483-.741,7.353,7.353,0,0,0-1.837-.58,8.376,8.376,0,0,1-2.234-.79,3.743,3.743,0,0,1-1.343-1.187,2.835,2.835,0,0,1-.462-1.6A3.212,3.212,0,0,1,51.176,12.2a5.443,5.443,0,0,1,3.459-1.037,6.03,6.03,0,0,1,3.7,1.042,3.258,3.258,0,0,1,1.4,2.739H56.1q0-1.4-1.472-1.4a1.459,1.459,0,0,0-.956.317.981.981,0,0,0-.387.79.9.9,0,0,0,.473.784,4.466,4.466,0,0,0,1.509.494,13.042,13.042,0,0,1,1.821.462q2.621.9,2.621,3.233a3.044,3.044,0,0,1-1.413,2.589,6.2,6.2,0,0,1-3.658,1,6.322,6.322,0,0,1-2.664-.537,4.455,4.455,0,0,1-1.826-1.461,3.308,3.308,0,0,1-.655-1.944h3.384a1.4,1.4,0,0,0,.537,1.176,2.209,2.209,0,0,0,1.321.371,1.738,1.738,0,0,0,1.112-.3A.962.962,0,0,0,56.214,19.734ZM66.419,17.1a7.1,7.1,0,0,1,1.192-4.351,3.925,3.925,0,0,1,3.33-1.59,3.338,3.338,0,0,1,2.621,1.225V6.5h3.631V23H73.938l-.183-1.246a3.428,3.428,0,0,1-2.836,1.461,3.918,3.918,0,0,1-3.287-1.59A7.325,7.325,0,0,1,66.419,17.1Zm3.62.226q0,3.094,1.8,3.094a1.782,1.782,0,0,0,1.719-1.01V14.986a1.734,1.734,0,0,0-1.7-1.031q-1.676,0-1.815,2.707Zm14.835,5.887a5.975,5.975,0,0,1-4.329-1.6,5.509,5.509,0,0,1-1.654-4.152v-.3a7.138,7.138,0,0,1,.661-3.147,4.834,4.834,0,0,1,1.928-2.111,5.821,5.821,0,0,1,3.008-.747,5.031,5.031,0,0,1,3.867,1.52,5.973,5.973,0,0,1,1.418,4.238v1.407h-7.2a2.609,2.609,0,0,0,.849,1.536,2.525,2.525,0,0,0,1.7.559,3.254,3.254,0,0,0,2.686-1.2l1.654,1.955a4.624,4.624,0,0,1-1.917,1.488A6.48,6.48,0,0,1,84.874,23.215Zm-.408-9.26q-1.59,0-1.891,2.105h3.652v-.279a1.793,1.793,0,0,0-.44-1.348A1.753,1.753,0,0,0,84.466,13.955ZM96.25,17.1a7.1,7.1,0,0,1,1.192-4.351,3.925,3.925,0,0,1,3.33-1.59,3.338,3.338,0,0,1,2.621,1.225V6.5h3.631V23H103.77l-.183-1.246a3.428,3.428,0,0,1-2.836,1.461,3.918,3.918,0,0,1-3.287-1.59A7.325,7.325,0,0,1,96.25,17.1Zm3.62.226q0,3.094,1.8,3.094a1.782,1.782,0,0,0,1.719-1.01V14.986a1.734,1.734,0,0,0-1.7-1.031q-1.676,0-1.815,2.707ZM115.629,23a4.087,4.087,0,0,1-.344-1.042,3.366,3.366,0,0,1-2.793,1.257,4.124,4.124,0,0,1-2.793-.994,3.163,3.163,0,0,1-1.149-2.5,3.251,3.251,0,0,1,1.4-2.857,7.114,7.114,0,0,1,4.061-.967h1.117v-.615q0-1.608-1.386-1.608a1.133,1.133,0,0,0-1.289,1.274h-3.62a3.245,3.245,0,0,1,1.434-2.736,6.027,6.027,0,0,1,3.658-1.051,5.284,5.284,0,0,1,3.513,1.085,3.772,3.772,0,0,1,1.321,2.976v5.146a5.269,5.269,0,0,0,.494,2.449V23Zm-2.267-2.363a2.019,2.019,0,0,0,1.123-.29,1.818,1.818,0,0,0,.639-.655V17.833h-1.053q-1.891,0-1.891,1.7a1.036,1.036,0,0,0,.333.8A1.205,1.205,0,0,0,113.362,20.637ZM124.975,8.487v2.89h1.912v2.514h-1.912v5.317a1.358,1.358,0,0,0,.236.913,1.268,1.268,0,0,0,.935.258,5.311,5.311,0,0,0,.9-.064V22.9a6.681,6.681,0,0,1-2.041.312,3.792,3.792,0,0,1-2.761-.881,3.61,3.61,0,0,1-.892-2.675V13.891h-1.482V11.377h1.482V8.487Zm2.557,8.594a6.86,6.86,0,0,1,.677-3.1,4.84,4.84,0,0,1,1.944-2.089,5.856,5.856,0,0,1,2.976-.73,5.344,5.344,0,0,1,4.114,1.617,6.2,6.2,0,0,1,1.5,4.4v.129a6.019,6.019,0,0,1-1.509,4.313,5.359,5.359,0,0,1-4.087,1.6,5.42,5.42,0,0,1-3.985-1.488,5.819,5.819,0,0,1-1.622-4.034Zm3.62.226a4.325,4.325,0,0,0,.5,2.363,1.682,1.682,0,0,0,1.493.752q1.934,0,1.977-2.976v-.365q0-3.126-2-3.126-1.815,0-1.966,2.7Zm15.275,2.428a.836.836,0,0,0-.483-.741,7.353,7.353,0,0,0-1.837-.58,8.376,8.376,0,0,1-2.234-.79,3.743,3.743,0,0,1-1.343-1.187,2.835,2.835,0,0,1-.462-1.6,3.212,3.212,0,0,1,1.321-2.637,5.443,5.443,0,0,1,3.459-1.037,6.03,6.03,0,0,1,3.7,1.042,3.258,3.258,0,0,1,1.4,2.739h-3.631q0-1.4-1.472-1.4a1.459,1.459,0,0,0-.956.317.981.981,0,0,0-.387.79.9.9,0,0,0,.473.784,4.466,4.466,0,0,0,1.509.494,13.042,13.042,0,0,1,1.821.462q2.621.9,2.621,3.233a3.044,3.044,0,0,1-1.413,2.589,6.2,6.2,0,0,1-3.658,1,6.322,6.322,0,0,1-2.664-.537,4.455,4.455,0,0,1-1.826-1.461,3.308,3.308,0,0,1-.655-1.944h3.384a1.4,1.4,0,0,0,.537,1.176,2.209,2.209,0,0,0,1.321.371,1.738,1.738,0,0,0,1.112-.3A.962.962,0,0,0,146.427,19.734ZM156.632,17.1a7.1,7.1,0,0,1,1.192-4.351,3.925,3.925,0,0,1,3.33-1.59,3.338,3.338,0,0,1,2.621,1.225V6.5h3.631V23h-3.255l-.183-1.246a3.428,3.428,0,0,1-2.836,1.461,3.918,3.918,0,0,1-3.287-1.59A7.325,7.325,0,0,1,156.632,17.1Zm3.62.226q0,3.094,1.8,3.094a1.782,1.782,0,0,0,1.719-1.01V14.986a1.734,1.734,0,0,0-1.7-1.031q-1.676,0-1.815,2.707Zm14.835,5.887a5.975,5.975,0,0,1-4.329-1.6,5.509,5.509,0,0,1-1.654-4.152v-.3a7.138,7.138,0,0,1,.661-3.147,4.834,4.834,0,0,1,1.928-2.111,5.821,5.821,0,0,1,3.008-.747,5.031,5.031,0,0,1,3.867,1.52,5.973,5.973,0,0,1,1.418,4.238v1.407h-7.2a2.609,2.609,0,0,0,.849,1.536,2.525,2.525,0,0,0,1.7.559,3.254,3.254,0,0,0,2.686-1.2l1.654,1.955a4.624,4.624,0,0,1-1.917,1.488A6.48,6.48,0,0,1,175.087,23.215Zm-.408-9.26q-1.59,0-1.891,2.105h3.652v-.279a1.793,1.793,0,0,0-.44-1.348A1.753,1.753,0,0,0,174.679,13.955Zm17.155,6.467a1.61,1.61,0,0,0,1.182-.414,1.517,1.517,0,0,0,.408-1.155h3.395a4.018,4.018,0,0,1-1.37,3.137,5.1,5.1,0,0,1-3.529,1.225,5.158,5.158,0,0,1-4-1.59,6.264,6.264,0,0,1-1.461-4.4v-.15a7.08,7.08,0,0,1,.65-3.11,4.732,4.732,0,0,1,1.875-2.073,5.589,5.589,0,0,1,2.9-.725,5.03,5.03,0,0,1,3.6,1.257,4.458,4.458,0,0,1,1.332,3.405h-3.395a1.987,1.987,0,0,0-.44-1.386,1.52,1.52,0,0,0-1.182-.483q-1.407,0-1.644,1.794a12.659,12.659,0,0,0-.075,1.568,4.972,4.972,0,0,0,.419,2.428A1.45,1.45,0,0,0,191.834,20.422ZM202.168,23h-3.631V6.5h3.631Zm6.048,0h-3.631V11.377h3.631ZM204.37,8.38a1.616,1.616,0,0,1,.559-1.268,2.375,2.375,0,0,1,2.9,0,1.616,1.616,0,0,1,.559,1.268,1.616,1.616,0,0,1-.559,1.268,2.375,2.375,0,0,1-2.9,0A1.616,1.616,0,0,1,204.37,8.38Zm11.7,14.835a5.975,5.975,0,0,1-4.329-1.6,5.509,5.509,0,0,1-1.654-4.152v-.3a7.138,7.138,0,0,1,.661-3.147,4.834,4.834,0,0,1,1.928-2.111,5.821,5.821,0,0,1,3.008-.747,5.031,5.031,0,0,1,3.867,1.52,5.973,5.973,0,0,1,1.418,4.238v1.407h-7.2a2.609,2.609,0,0,0,.849,1.536,2.525,2.525,0,0,0,1.7.559,3.254,3.254,0,0,0,2.686-1.2l1.654,1.955a4.624,4.624,0,0,1-1.917,1.488A6.48,6.48,0,0,1,216.068,23.215Zm-.408-9.26q-1.59,0-1.891,2.105h3.652v-.279a1.793,1.793,0,0,0-.44-1.348A1.753,1.753,0,0,0,215.66,13.955Zm10.087-2.578.118,1.364a3.942,3.942,0,0,1,3.319-1.579,3.316,3.316,0,0,1,2.712,1.085,5.165,5.165,0,0,1,.929,3.266V23H229.2V15.663a1.961,1.961,0,0,0-.354-1.294,1.64,1.64,0,0,0-1.289-.414,1.726,1.726,0,0,0-1.579.838V23h-3.62V11.377Zm13.3-2.89v2.89h1.912v2.514h-1.912v5.317a1.358,1.358,0,0,0,.236.913,1.268,1.268,0,0,0,.935.258,5.311,5.311,0,0,0,.9-.064V22.9a6.681,6.681,0,0,1-2.041.312,3.792,3.792,0,0,1-2.761-.881,3.61,3.61,0,0,1-.892-2.675V13.891h-1.482V11.377h1.482V8.487ZM248,23.215a5.975,5.975,0,0,1-4.329-1.6,5.509,5.509,0,0,1-1.654-4.152v-.3a7.138,7.138,0,0,1,.661-3.147,4.834,4.834,0,0,1,1.928-2.111,5.821,5.821,0,0,1,3.008-.747,5.031,5.031,0,0,1,3.867,1.52A5.973,5.973,0,0,1,252.9,16.92v1.407h-7.2a2.609,2.609,0,0,0,.849,1.536,2.525,2.525,0,0,0,1.7.559,3.254,3.254,0,0,0,2.686-1.2l1.654,1.955a4.624,4.624,0,0,1-1.917,1.488A6.48,6.48,0,0,1,248,23.215Zm-.408-9.26q-1.59,0-1.891,2.105h3.652v-.279a1.793,1.793,0,0,0-.44-1.348A1.753,1.753,0,0,0,247.6,13.955Zm12.848,5.779a.836.836,0,0,0-.483-.741,7.353,7.353,0,0,0-1.837-.58,8.376,8.376,0,0,1-2.234-.79,3.743,3.743,0,0,1-1.343-1.187,2.835,2.835,0,0,1-.462-1.6,3.212,3.212,0,0,1,1.321-2.637,5.443,5.443,0,0,1,3.459-1.037,6.03,6.03,0,0,1,3.7,1.042,3.258,3.258,0,0,1,1.4,2.739h-3.631q0-1.4-1.472-1.4a1.459,1.459,0,0,0-.956.317.981.981,0,0,0-.387.79.9.9,0,0,0,.473.784,4.466,4.466,0,0,0,1.509.494,13.043,13.043,0,0,1,1.821.462q2.621.9,2.621,3.233a3.044,3.044,0,0,1-1.413,2.589,6.2,6.2,0,0,1-3.658,1,6.322,6.322,0,0,1-2.664-.537,4.455,4.455,0,0,1-1.826-1.461,3.308,3.308,0,0,1-.655-1.944H257.1a1.4,1.4,0,0,0,.537,1.176,2.209,2.209,0,0,0,1.321.371,1.738,1.738,0,0,0,1.112-.3A.962.962,0,0,0,260.444,19.734Z" transform="translate(199 7026.503)" fill="#12263f"/>
    <g id="Grupo_868163" data-name="Grupo 868163" transform="translate(492 7002.03)">
      <g id="Grupo_868164" data-name="Grupo 868164" clip-path="url(#clip-path)">
        <path id="Trazado_604119" data-name="Trazado 604119" d="M39.264,16.909c1.206.033,2.414.037,3.619,0,.51-.016.671.14.731.649a15.685,15.685,0,1,0,0-3.721c-.061.535-.223.69-.774.685q-5.392-.044-10.784,0c-.618.006-.733-.221-.789-.755A15.67,15.67,0,1,0,21.215,30.379a15.2,15.2,0,0,0,10.06-12.812c.069-.485.187-.684.722-.661,1.129.048,2.263.051,3.393,0,.648-.029.879.1.869.827-.045,3.393-.02,6.786-.02,10.18,0,1.048,0,1.048-1.039,1.074A1.24,1.24,0,0,0,33.826,30.4a13.712,13.712,0,0,0,.01,1.582c.056.556-.163.646-.668.641-2.664-.026-5.329-.013-7.994-.012a3.06,3.06,0,0,0-3.417,3.377q0,1.47,0,2.941a3.046,3.046,0,0,0,3.31,3.334c2.74,0,5.48.009,8.22-.008.413,0,.574.088.547.53-.039.626-.026,1.257,0,1.884a1.165,1.165,0,0,0,1.04,1.195,3.456,3.456,0,0,0,.9.014c.347-.028.476.066.474.447q-.022,5.58,0,11.16c0,.444-.179.477-.528.471-.955-.016-1.91-.005-2.866-.005-1.4,0-1.4,0-1.653-1.367a15.8,15.8,0,1,0,.066,4.471c.063-.59.287-.707.835-.7,3.318.025,6.636.012,9.955.012,1.372,0,1.371,0,1.621,1.314.023.123.062.243.085.367a15.672,15.672,0,1,0,8.863-17.12,15.224,15.224,0,0,0-9.012,12.393c-.069.51-.229.661-.735.645-1.18-.037-2.364-.045-3.544,0-.559.022-.7-.119-.7-.691.031-3.494.04-6.988,0-10.481-.01-.747.154-.98.923-.93,1.075.071,1.5-.406,1.51-1.481,0-.5.033-1.008-.009-1.507-.04-.483.1-.629.607-.624,2.79.026,5.581.023,8.371.009a3.008,3.008,0,0,0,3.1-3.092c.012-1.131.009-2.262,0-3.394a3.013,3.013,0,0,0-3.178-3.162c-2.288-.007-4.575,0-6.863,0-.649,0-1.524.224-1.888-.1-.424-.384-.122-1.273-.129-1.942a1.474,1.474,0,0,0-.581-1.384A1.832,1.832,0,0,0,39.249,29c-.511.051-.616-.144-.609-.622.028-1.784.011-3.569.011-5.354,0-1.835.02-3.67-.013-5.5-.009-.507.146-.622.625-.608M51.706,26.63a4.291,4.291,0,0,1,3.9-1.259c.248.078.26.286.351.448a3.515,3.515,0,0,0,3.171,1.948,3.43,3.43,0,0,0,3.233-1.953.753.753,0,0,1,.743-.46A4.251,4.251,0,0,1,66.662,26.6a13.093,13.093,0,0,1-14.956.032m2.628-12.907c-.01-.34.114-.426.436-.413a21.414,21.414,0,0,0,8.93-1.784,1.306,1.306,0,0,1,.287-.032c0,1.543.047,3.026-.011,4.505a4.82,4.82,0,0,1-9.621.06c-.046-.776,0-1.557-.022-2.336m.2-4.223a4.794,4.794,0,0,1,8.7-1.116c.312.45.248.633-.261.845a20.918,20.918,0,0,1-7.2,1.664h-.226C54.2,10.9,54.1,10.783,54.535,9.5m5.728,15.122a1.192,1.192,0,0,1-2.286-.327,13.373,13.373,0,0,1-.01-1.432,8.478,8.478,0,0,0,2.01.05c.144-.014.387-.166.384.148a3.835,3.835,0,0,1-.1,1.56M46.022,14.079A13.254,13.254,0,1,1,69.035,24.59c-.327.382-.509.432-.919.057a6.236,6.236,0,0,0-4.608-1.7c-.233.009-.618.189-.694-.194a.82.82,0,0,1,.294-.987,7.206,7.206,0,0,0,3.3-6.621,39.427,39.427,0,0,0-.138-5.417,7.214,7.214,0,0,0-14.339,1.112c-.011.829,0,1.659,0,2.7a26.833,26.833,0,0,0,.112,3.4,7.17,7.17,0,0,0,3.049,4.748c.25.176.47.305.474.685,0,.445-.089.628-.578.595a6.25,6.25,0,0,0-4.928,1.831c-.378.363-.512.055-.691-.149a12.894,12.894,0,0,1-3.344-10.565M8.242,26.608a4.343,4.343,0,0,1,3.847-1.243c.27.016.3.222.393.39a3.615,3.615,0,0,0,6.483-.007c.077-.145.1-.311.32-.379a4.3,4.3,0,0,1,3.9,1.26c-4.1,3.114-10.924,3.112-14.943-.022M10.89,13.745c-.007-.309.062-.451.413-.437a21.6,21.6,0,0,0,9-1.8.923.923,0,0,1,.233,0c0,1.531.058,3.04-.013,4.543A4.82,4.82,0,0,1,10.9,15.93c-.026-.728,0-1.457-.013-2.185m.193-4.226a4.789,4.789,0,0,1,8.733-1.083c.176.265.408.5-.128.721a20.949,20.949,0,0,1-7.339,1.735h-.226c-1.366.009-1.467-.1-1.04-1.374m5.844,14.6a1.2,1.2,0,1,1-2.407.025c-.021-.4,0-.8,0-1.284a6.535,6.535,0,0,0,1.943.051c.351-.051.518-.024.475.381-.029.273.006.552-.008.827m8.627.506c-.306.352-.477.395-.856.046a6.293,6.293,0,0,0-4.674-1.73c-.219.009-.617.218-.663-.217-.033-.313-.141-.661.261-.93a7.308,7.308,0,0,0,3.343-6.826A40.638,40.638,0,0,0,22.822,9.7,7.209,7.209,0,0,0,8.5,10.779a41.231,41.231,0,0,0,.1,6.1,6.823,6.823,0,0,0,3.064,4.807.872.872,0,0,1,.45.848c-.009.321-.09.45-.424.425a6.6,6.6,0,0,0-5.357,2.079c-5.133-4.805-5.2-13.519-.08-18.6A12.654,12.654,0,0,1,19.622,3.06,12.637,12.637,0,0,1,28.78,13.449a12.829,12.829,0,0,1-3.226,11.176M8.256,70.083a4.265,4.265,0,0,1,3.89-1.276c.254.073.269.276.359.438a3.514,3.514,0,0,0,3.238,1.961,3.409,3.409,0,0,0,3.163-1.941.805.805,0,0,1,.812-.472,4.212,4.212,0,0,1,3.49,1.233,13.014,13.014,0,0,1-14.953.056m2.73-13.108c.395-.588,1.466-.16,2.239-.235a25.117,25.117,0,0,0,6.489-1.55,1.784,1.784,0,0,1,.844-.239,35.178,35.178,0,0,1-.15,5.242,4.771,4.771,0,0,1-5.161,3.769,4.843,4.843,0,0,1-4.344-4.63c-.024-.8-.289-1.8.083-2.358m.221-4.349a4.785,4.785,0,0,1,8.6-.771c.268.4.276.587-.239.8a21.193,21.193,0,0,1-7.278,1.674c-1.565.014-1.7-.214-1.087-1.705m5.714,15.022A1.206,1.206,0,0,1,15.682,68.8a1.225,1.225,0,0,1-1.164-1.161c-.123-1.261-.123-1.255,1.132-1.255.4,0,.8-.036,1.277-.059,0,.471.025.9-.006,1.318m8.2.821a6.815,6.815,0,0,0-3.712-1.992c-.47-.067-.952-.042-1.425-.092-.216-.023-.571.184-.621-.189-.046-.34-.16-.731.289-.99a5.918,5.918,0,0,0,1.063-.835,6.488,6.488,0,0,0,2.171-4.35,31.524,31.524,0,0,0-.076-6.844A7.2,7.2,0,0,0,8.5,54.256a38.587,38.587,0,0,0,.123,6.17,6.933,6.933,0,0,0,3.005,4.686c.213.152.481.226.489.594.011.462-.012.742-.616.7A6.157,6.157,0,0,0,6.639,68.21c-.4.384-.541.074-.74-.151a12.994,12.994,0,0,1-3.4-9.976,13.263,13.263,0,0,1,26.373-.638,13.113,13.113,0,0,1-3.743,11.024m26.564,1.577a4.347,4.347,0,0,1,3.848-1.241c.271.015.3.224.392.391a3.615,3.615,0,0,0,6.483-.01c.077-.145.105-.31.321-.377a4.3,4.3,0,0,1,3.9,1.262c-4.137,3.115-10.951,3.11-14.943-.026m2.646-12.87c-.009-.321.083-.441.423-.427a21.016,21.016,0,0,0,8.72-1.7c.491-.2.539-.045.524.382-.023.652-.006,1.306-.006,2.106a15.209,15.209,0,0,1-.133,2.706,4.82,4.82,0,0,1-9.514-.883c-.025-.728.006-1.457-.013-2.185m.353-4.635a4.778,4.778,0,0,1,8.534-.732c.273.4.352.618-.22.855a21.193,21.193,0,0,1-7.2,1.667c-1.635.015-1.777-.235-1.11-1.789M59.236,68.8a1.231,1.231,0,0,1-1.275-1.276c0-.025,0-.05,0-.075-.032-1.082-.032-1.082,1.025-1.063.125,0,.284-.05.37.009.313.212,1-.6,1.023.389.033,1.334-.31,1.965-1.143,2.016M56.677,46.119A13.278,13.278,0,0,1,69.055,68.006c-.347.407-.536.457-.972.057A6.212,6.212,0,0,0,63.47,66.38c-.221.009-.611.213-.667-.223a.855.855,0,0,1,.329-.977A7.133,7.133,0,0,0,66.4,58.7a38.834,38.834,0,0,0-.14-5.566,7.214,7.214,0,0,0-14.334,1.081c-.015.854,0,1.708,0,2.789a17.391,17.391,0,0,0,.215,3.9,7.1,7.1,0,0,0,2.962,4.215.862.862,0,0,1,.453.847c-.011.321-.1.45-.428.427A6.449,6.449,0,0,0,50,68.283c-.32.31-.432.013-.577-.145A12.714,12.714,0,0,1,46.065,61.2,13.2,13.2,0,0,1,56.677,46.119m-18.01-3.2c-.018.395-.072.614-.527.554a5.8,5.8,0,0,0-.749-.006,4.421,4.421,0,0,0-.525,0c-.45.054-.648-.055-.651-.586,0-.555.185-.685.685-.632a4.9,4.9,0,0,0,1.123,0c.551-.069.667.162.644.667m10.958-7.9c.992,0,1.091.1,1.093,1.066q0,1.357,0,2.713c0,.926-.12,1.046-1.04,1.046q-6.745,0-13.489,0-5.463,0-10.927,0c-.989,0-1.09-.1-1.093-1.067q0-1.356,0-2.713c0-.928.117-1.045,1.04-1.046q6.142,0,12.283,0,6.066,0,12.132,0M38.674,32.007c-.019.494-.149.672-.632.6a4.372,4.372,0,0,0-.6,0,4.418,4.418,0,0,0-.525,0c-.466.055-.7-.022-.706-.609s.252-.644.711-.606a6.265,6.265,0,0,0,1.049,0c.466-.041.725.021.7.612" transform="translate(0 0.001)"/>
        <path id="Trazado_604120" data-name="Trazado 604120" d="M29.311,12.548a12.655,12.655,0,0,0-13.369,3.375c-5.121,5.082-5.053,13.795.08,18.6a6.6,6.6,0,0,1,5.357-2.079c.335.024.415-.1.424-.425a.871.871,0,0,0-.45-.848,6.824,6.824,0,0,1-3.064-4.808,41.261,41.261,0,0,1-.1-6.1,7.209,7.209,0,0,1,14.326-1.078,40.683,40.683,0,0,1,.142,5.267,7.309,7.309,0,0,1-3.343,6.826c-.4.269-.294.616-.261.93.046.435.444.226.663.217a6.292,6.292,0,0,1,4.674,1.73c.379.349.55.306.856-.046a12.829,12.829,0,0,0,3.226-11.176,12.637,12.637,0,0,0-9.159-10.389" transform="translate(-9.69 -9.487)" fill="#fed944"/>
        <path id="Trazado_604121" data-name="Trazado 604121" d="M22.159,227.958a13.187,13.187,0,0,0-9.967,11.789,12.994,12.994,0,0,0,3.4,9.976c.2.225.34.535.741.151a6.157,6.157,0,0,1,4.859-1.8c.6.044.627-.236.616-.7-.009-.367-.276-.442-.489-.594a6.933,6.933,0,0,1-3.005-4.686,38.614,38.614,0,0,1-.123-6.171,7.2,7.2,0,0,1,14.316-1.079,31.5,31.5,0,0,1,.076,6.844,6.487,6.487,0,0,1-2.171,4.35,5.923,5.923,0,0,1-1.063.835c-.449.259-.336.65-.289.991.051.372.405.165.621.188.473.051.955.025,1.425.092a6.816,6.816,0,0,1,3.712,1.992,13.247,13.247,0,0,0-12.662-22.176" transform="translate(-9.697 -181.664)" fill="#78b8ea"/>
        <path id="Trazado_604122" data-name="Trazado 604122" d="M231.295,249.754c.145.158.257.455.577.145a6.449,6.449,0,0,1,5.135-1.886c.333.023.417-.106.428-.427a.862.862,0,0,0-.453-.847,7.1,7.1,0,0,1-2.962-4.215,17.378,17.378,0,0,1-.215-3.9c0-1.081-.013-1.935,0-2.789a7.214,7.214,0,0,1,14.334-1.081,38.892,38.892,0,0,1,.139,5.566,7.133,7.133,0,0,1-3.273,6.478.855.855,0,0,0-.329.977c.056.436.446.232.667.223a6.213,6.213,0,0,1,4.614,1.683c.435.4.624.35.972-.057a13.268,13.268,0,1,0-22.99-6.811,12.714,12.714,0,0,0,3.353,6.942" transform="translate(-181.877 -181.616)" fill="#fe9711"/>
        <path id="Trazado_604123" data-name="Trazado 604123" d="M231.854,34.39a6.25,6.25,0,0,1,4.928-1.831c.488.033.582-.15.578-.595,0-.38-.224-.509-.474-.685a7.169,7.169,0,0,1-3.049-4.748,26.828,26.828,0,0,1-.113-3.4c0-1.044-.009-1.874,0-2.7a7.214,7.214,0,0,1,14.34-1.112,39.4,39.4,0,0,1,.138,5.417,7.205,7.205,0,0,1-3.3,6.62.821.821,0,0,0-.294.988c.076.383.461.2.694.194a6.236,6.236,0,0,1,4.608,1.7c.41.375.592.324.919-.057a13.267,13.267,0,1,0-23.013-10.511,12.894,12.894,0,0,0,3.344,10.565c.179.2.313.512.691.149" transform="translate(-181.798 -9.597)" fill="#fe5023"/>
        <path id="Trazado_604124" data-name="Trazado 604124" d="M120.931,173.724c-.923,0-1.037.118-1.04,1.046q0,1.356,0,2.713c0,.966.1,1.067,1.093,1.067q5.463,0,10.927,0,6.744,0,13.489,0c.921,0,1.037-.12,1.04-1.046q0-1.356,0-2.713c0-.969-.1-1.066-1.094-1.066q-6.066,0-12.132,0-6.141,0-12.283,0m1.4,3.617a1.2,1.2,0,1,1,1.173-1.218,1.214,1.214,0,0,1-1.173,1.218m3.559,0a1.2,1.2,0,1,1,1.235-1.231,1.214,1.214,0,0,1-1.235,1.231m3.611,0a1.2,1.2,0,1,1,1.245-1.222,1.215,1.215,0,0,1-1.245,1.222m7.4-2.407q3.5-.017,7,0a1.206,1.206,0,0,1,1.325,1.222,1.222,1.222,0,0,1-1.365,1.184c-1.178.012-2.357,0-3.536,0-1.128,0-2.257.009-3.385,0a1.22,1.22,0,0,1-1.362-1.186,1.205,1.205,0,0,1,1.327-1.219" transform="translate(-95.722 -138.703)" fill="#78767f"/>
        <path id="Trazado_604125" data-name="Trazado 604125" d="M54.031,61.495a4.82,4.82,0,0,0,9.624.122c.072-1.5.013-3.012.013-4.543a.93.93,0,0,0-.233,0,21.593,21.593,0,0,1-9,1.8c-.351-.014-.42.128-.413.437.017.728-.013,1.458.013,2.185" transform="translate(-43.128 -45.564)" fill="#fed9a9"/>
        <path id="Trazado_604126" data-name="Trazado 604126" d="M269.547,61.585a4.82,4.82,0,0,0,9.621-.06c.058-1.479.01-2.962.01-4.505a1.307,1.307,0,0,0-.287.032,21.41,21.41,0,0,1-8.93,1.784c-.322-.012-.447.073-.436.413.024.778-.024,1.559.022,2.336" transform="translate(-215.191 -45.526)" fill="#fed9a9"/>
        <path id="Trazado_604127" data-name="Trazado 604127" d="M53.631,276.968a4.843,4.843,0,0,0,4.344,4.63,4.771,4.771,0,0,0,5.161-3.769,35.205,35.205,0,0,0,.15-5.242,1.783,1.783,0,0,0-.844.239,25.1,25.1,0,0,1-6.489,1.55c-.772.075-1.844-.353-2.239.235-.373.555-.107,1.555-.083,2.358" transform="translate(-42.729 -217.635)" fill="#fed9a9"/>
        <path id="Trazado_604128" data-name="Trazado 604128" d="M269.542,277.062a4.82,4.82,0,0,0,9.514.883,15.213,15.213,0,0,0,.133-2.706c0-.8-.017-1.453.006-2.105.015-.428-.032-.578-.524-.382a21.017,21.017,0,0,1-8.72,1.7c-.34-.014-.431.106-.423.427.02.728-.012,1.457.014,2.185" transform="translate(-215.195 -217.7)" fill="#fed9a9"/>
        <path id="Trazado_604129" data-name="Trazado 604129" d="M55.356,34.876A20.953,20.953,0,0,0,62.7,33.141c.536-.221.3-.457.128-.722A4.789,4.789,0,0,0,54.09,33.5c-.427,1.276-.326,1.382,1.04,1.374h.226" transform="translate(-43.008 -23.982)" fill="#3e3d42"/>
        <path id="Trazado_604130" data-name="Trazado 604130" d="M270.631,34.877h.226a20.927,20.927,0,0,0,7.2-1.664c.509-.212.573-.4.261-.845a4.794,4.794,0,0,0-8.7,1.116c-.434,1.283-.331,1.4,1.013,1.393" transform="translate(-215.084 -23.983)" fill="#3e3d42"/>
        <path id="Trazado_604131" data-name="Trazado 604131" d="M55.335,250.383a21.191,21.191,0,0,0,7.278-1.674c.515-.214.507-.407.239-.8a4.785,4.785,0,0,0-8.6.771c-.612,1.491-.478,1.719,1.087,1.705" transform="translate(-43.042 -196.052)" fill="#3e3d42"/>
        <path id="Trazado_604132" data-name="Trazado 604132" d="M270.913,250.383a21.2,21.2,0,0,0,7.2-1.667c.571-.237.493-.459.22-.855a4.778,4.778,0,0,0-8.534.732c-.667,1.554-.525,1.8,1.11,1.79" transform="translate(-215.116 -196.052)" fill="#3e3d42"/>
        <path id="Trazado_604133" data-name="Trazado 604133" d="M51.929,125.45c-.215.067-.243.234-.32.379a3.615,3.615,0,0,1-6.483.007c-.09-.169-.123-.375-.393-.39a4.343,4.343,0,0,0-3.847,1.243c4.019,3.134,10.839,3.136,14.943.022a4.3,4.3,0,0,0-3.9-1.26" transform="translate(-32.643 -100.079)" fill="#006cef"/>
        <path id="Trazado_604134" data-name="Trazado 604134" d="M267.889,125.432a.753.753,0,0,0-.743.46,3.43,3.43,0,0,1-3.233,1.953,3.515,3.515,0,0,1-3.171-1.948c-.091-.162-.1-.37-.351-.448a4.29,4.29,0,0,0-3.9,1.259,13.093,13.093,0,0,0,14.956-.031,4.251,4.251,0,0,0-3.559-1.245" transform="translate(-204.787 -100.078)" fill="#006cef"/>
        <path id="Trazado_604135" data-name="Trazado 604135" d="M52.414,340.943a.805.805,0,0,0-.813.472,3.409,3.409,0,0,1-3.163,1.941,3.515,3.515,0,0,1-3.238-1.962c-.09-.161-.105-.365-.359-.438a4.266,4.266,0,0,0-3.89,1.276,13.013,13.013,0,0,0,14.953-.056,4.212,4.212,0,0,0-3.49-1.233" transform="translate(-32.696 -272.148)" fill="#006cef"/>
        <path id="Trazado_604136" data-name="Trazado 604136" d="M267.448,340.939c-.216.067-.244.233-.321.377a3.615,3.615,0,0,1-6.483.01c-.09-.168-.121-.376-.392-.391a4.347,4.347,0,0,0-3.849,1.241c3.992,3.136,10.806,3.14,14.943.025a4.3,4.3,0,0,0-3.9-1.262" transform="translate(-204.715 -272.129)" fill="#006cef"/>
        <path id="Trazado_604137" data-name="Trazado 604137" d="M73.925,113.453a6.535,6.535,0,0,1-1.943-.051c0,.486-.017.886,0,1.284a1.2,1.2,0,1,0,2.407-.025c.015-.275-.021-.554.008-.827.043-.4-.124-.432-.475-.381" transform="translate(-57.465 -90.542)" fill="#fdd8a9"/>
        <path id="Trazado_604138" data-name="Trazado 604138" d="M289.5,113.474a8.5,8.5,0,0,1-2.01-.051,13.379,13.379,0,0,0,.01,1.432,1.192,1.192,0,0,0,2.285.327,3.828,3.828,0,0,0,.1-1.56c0-.314-.239-.162-.384-.148" transform="translate(-229.526 -90.558)" fill="#fdd8a9"/>
        <path id="Trazado_604139" data-name="Trazado 604139" d="M71.811,330.356a1.225,1.225,0,0,0,1.164,1.161,1.206,1.206,0,0,0,1.239-1.156c.03-.422.006-.847.006-1.318-.477.023-.877.059-1.277.059-1.255,0-1.255-.006-1.132,1.255" transform="translate(-57.293 -262.712)" fill="#fdd8a9"/>
        <path id="Trazado_604140" data-name="Trazado 604140" d="M288.878,328.934c-.086-.058-.245-.009-.37-.009-1.057-.019-1.057-.019-1.025,1.063,0,.025,0,.05,0,.075a1.231,1.231,0,0,0,1.275,1.276c.833-.051,1.176-.683,1.143-2.016-.025-.985-.71-.177-1.023-.389" transform="translate(-229.523 -262.536)" fill="#fdd8a9"/>
        <path id="Trazado_604141" data-name="Trazado 604141" d="M181.393,155.7a6.267,6.267,0,0,1-1.049,0c-.459-.037-.712.011-.711.607s.24.664.706.609a4.462,4.462,0,0,1,.525,0,4.367,4.367,0,0,1,.6,0c.483.068.613-.111.632-.6.023-.591-.235-.653-.7-.613" transform="translate(-143.421 -124.303)" fill="#fed944"/>
        <path id="Trazado_604142" data-name="Trazado 604142" d="M181.456,209.549a4.913,4.913,0,0,1-1.123,0c-.5-.053-.688.077-.685.632,0,.531.2.64.651.586a4.417,4.417,0,0,1,.525,0,5.8,5.8,0,0,1,.749.006c.456.06.51-.159.527-.554.023-.5-.093-.736-.644-.667" transform="translate(-143.433 -167.297)" fill="#fed944"/>
        <path id="Trazado_604143" data-name="Trazado 604143" d="M199.1,182.1c1.128.012,2.257,0,3.385,0,1.179,0,2.357.009,3.536,0a1.222,1.222,0,0,0,1.365-1.184,1.205,1.205,0,0,0-1.325-1.222q-3.5-.018-7,0a1.205,1.205,0,0,0-1.327,1.219A1.219,1.219,0,0,0,199.1,182.1" transform="translate(-157.874 -143.466)"/>
        <path id="Trazado_604144" data-name="Trazado 604144" d="M127.1,179.721a1.2,1.2,0,1,0,1.2,1.191,1.211,1.211,0,0,0-1.2-1.191" transform="translate(-100.514 -143.492)" fill="#010101"/>
        <path id="Trazado_604145" data-name="Trazado 604145" d="M145.05,179.721a1.2,1.2,0,1,0,1.212,1.178,1.212,1.212,0,0,0-1.212-1.178" transform="translate(-114.854 -143.491)" fill="#010101"/>
        <path id="Trazado_604146" data-name="Trazado 604146" d="M163.018,179.721a1.2,1.2,0,1,0,1.2,1.187,1.212,1.212,0,0,0-1.2-1.187" transform="translate(-129.193 -143.492)" fill="#010101"/>
      </g>
    </g>
  </g>
</svg>
