<svg xmlns="http://www.w3.org/2000/svg" xmlns:xlink="http://www.w3.org/1999/xlink" width="148" height="48" viewBox="0 0 148 48">
  <defs>
    <clipPath id="clip-path">
      <rect id="Rect치ngulo_292267" data-name="Rect치ngulo 292267" width="24.361" height="21.942" fill="#4a2efc"/>
    </clipPath>
  </defs>
  <g id="Grupo_874036" data-name="Grupo 874036" transform="translate(-1107 -878.159)">
    <g id="Grupo_874035" data-name="Grupo 874035">
      <g id="Grupo_874034" data-name="Grupo 874034">
        <g id="Grupo_870109" data-name="Grupo 870109" transform="translate(103 -1002.278)">
          <rect id="Rect치ngulo_290792" data-name="Rect치ngulo 290792" width="148" height="48" transform="translate(1004 1880.438)" fill="#fff"/>
          <path id="Trazado_609223" data-name="Trazado 609223" d="M2.93,17H1.43V5.625h1.5ZM6.813,8.547l.047,1.063A3.08,3.08,0,0,1,9.391,8.391q2.68,0,2.7,3.023V17H10.648V11.406a1.946,1.946,0,0,0-.418-1.352,1.675,1.675,0,0,0-1.277-.437,2.086,2.086,0,0,0-1.234.375,2.546,2.546,0,0,0-.828.984V17H5.445V8.547ZM16.234,6.5V8.547h1.578V9.664H16.234v5.249a1.173,1.173,0,0,0,.211.763.888.888,0,0,0,.719.254,3.5,3.5,0,0,0,.688-.094V17a4.215,4.215,0,0,1-1.109.155,1.8,1.8,0,0,1-1.461-.586,2.517,2.517,0,0,1-.492-1.664V9.664H13.25V8.547h1.539V6.5ZM24.719,17a3.036,3.036,0,0,1-.2-.891,3.225,3.225,0,0,1-2.406,1.047,2.984,2.984,0,0,1-2.051-.707,2.287,2.287,0,0,1-.8-1.793,2.39,2.39,0,0,1,1-2.051,4.733,4.733,0,0,1,2.824-.73h1.406v-.664A1.623,1.623,0,0,0,24.039,10,1.821,1.821,0,0,0,22.7,9.555a2.107,2.107,0,0,0-1.3.391,1.151,1.151,0,0,0-.523.945H19.43a2,2,0,0,1,.449-1.223A3.066,3.066,0,0,1,21.1,8.734a4.1,4.1,0,0,1,1.691-.344,3.342,3.342,0,0,1,2.289.73,2.635,2.635,0,0,1,.859,2.012v3.891a4.757,4.757,0,0,0,.3,1.852V17Zm-2.4-1.1a2.54,2.54,0,0,0,1.289-.352,2.127,2.127,0,0,0,.883-.914V12.9H23.359q-2.656,0-2.656,1.555a1.316,1.316,0,0,0,.453,1.063A1.742,1.742,0,0,0,22.32,15.9Zm7.25-7.352.047,1.063a3.08,3.08,0,0,1,2.531-1.219q2.68,0,2.7,3.023V17H33.406V11.406a1.946,1.946,0,0,0-.418-1.352,1.675,1.675,0,0,0-1.277-.437,2.086,2.086,0,0,0-1.234.375,2.546,2.546,0,0,0-.828.984V17H28.2V8.547ZM36.688,12.7A4.968,4.968,0,0,1,37.6,9.559a3.151,3.151,0,0,1,4.836-.074l.07-.937h1.32V16.8a3.439,3.439,0,0,1-.973,2.586,3.589,3.589,0,0,1-2.613.945,4.348,4.348,0,0,1-1.789-.391,3.08,3.08,0,0,1-1.336-1.07l.75-.867a2.826,2.826,0,0,0,2.273,1.148,2.214,2.214,0,0,0,1.645-.594,2.269,2.269,0,0,0,.59-1.672v-.727a2.971,2.971,0,0,1-2.367,1,2.887,2.887,0,0,1-2.4-1.2A5.224,5.224,0,0,1,36.688,12.7Zm1.453.164a3.79,3.79,0,0,0,.586,2.246,1.9,1.9,0,0,0,1.641.816,2.117,2.117,0,0,0,2.008-1.242V10.828a2.142,2.142,0,0,0-1.992-1.211,1.921,1.921,0,0,0-1.648.82A4.128,4.128,0,0,0,38.141,12.867ZM47.578,17H46.133V8.547h1.445ZM46.016,6.3a.863.863,0,0,1,.215-.594.807.807,0,0,1,.637-.242.819.819,0,0,1,.641.242.854.854,0,0,1,.219.594.826.826,0,0,1-.219.586.834.834,0,0,1-.641.234.821.821,0,0,1-.637-.234A.834.834,0,0,1,46.016,6.3Zm11.031,6.563a5.026,5.026,0,0,1-.891,3.113,2.846,2.846,0,0,1-2.391,1.176,2.947,2.947,0,0,1-2.477-1.133l-.07.977H49.891V5h1.445V9.477A2.93,2.93,0,0,1,53.75,8.391a2.863,2.863,0,0,1,2.418,1.164,5.177,5.177,0,0,1,.879,3.188ZM55.6,12.7a3.906,3.906,0,0,0-.57-2.281,1.888,1.888,0,0,0-1.641-.8,2.122,2.122,0,0,0-2.055,1.328V14.6a2.181,2.181,0,0,0,2.07,1.328,1.878,1.878,0,0,0,1.617-.8A4.153,4.153,0,0,0,55.6,12.7ZM60.438,17H58.992V5h1.445Zm5.82.156a3.693,3.693,0,0,1-2.8-1.129,4.19,4.19,0,0,1-1.078-3.02v-.266a5.073,5.073,0,0,1,.48-2.246,3.748,3.748,0,0,1,1.344-1.547,3.378,3.378,0,0,1,1.871-.559,3.166,3.166,0,0,1,2.563,1.086,4.7,4.7,0,0,1,.914,3.109v.6H63.828a3,3,0,0,0,.73,2.02,2.3,2.3,0,0,0,1.777.77,2.517,2.517,0,0,0,1.3-.312,3.259,3.259,0,0,0,.93-.828l.883.688A3.55,3.55,0,0,1,66.258,17.156Zm-.18-7.578a1.928,1.928,0,0,0-1.469.637A3.1,3.1,0,0,0,63.875,12h4.234v-.109a2.753,2.753,0,0,0-.594-1.707A1.815,1.815,0,0,0,66.078,9.578Zm10.07,5.18a1.064,1.064,0,0,0-.441-.91,4.249,4.249,0,0,0-1.539-.559,7.277,7.277,0,0,1-1.742-.562,2.479,2.479,0,0,1-.953-.781,1.869,1.869,0,0,1-.309-1.078,2.193,2.193,0,0,1,.879-1.758,3.432,3.432,0,0,1,2.246-.719,3.532,3.532,0,0,1,2.332.742,2.357,2.357,0,0,1,.895,1.9H76.063a1.3,1.3,0,0,0-.5-1.023,1.888,1.888,0,0,0-1.27-.43,1.976,1.976,0,0,0-1.234.344,1.082,1.082,0,0,0-.445.9.877.877,0,0,0,.414.789,5.1,5.1,0,0,0,1.5.508,7.8,7.8,0,0,1,1.754.578,2.558,2.558,0,0,1,1,.809,1.988,1.988,0,0,1,.324,1.152,2.163,2.163,0,0,1-.906,1.816,3.8,3.8,0,0,1-2.352.684,4.257,4.257,0,0,1-1.8-.359,2.922,2.922,0,0,1-1.223-1,2.42,2.42,0,0,1-.441-1.395H72.32a1.5,1.5,0,0,0,.582,1.152,2.258,2.258,0,0,0,1.434.426,2.331,2.331,0,0,0,1.316-.332A1.02,1.02,0,0,0,76.148,14.758Z" transform="translate(1051.561 1894.438)" fill="#12263f"/>
        </g>
      </g>
    </g>
    <g id="Grupo_873548" data-name="Grupo 873548" transform="translate(1120.955 890.766)">
      <g id="Grupo_873549" data-name="Grupo 873549" clip-path="url(#clip-path)">
        <path id="Trazado_608304" data-name="Trazado 608304" d="M24.361,2.565V19.392a.557.557,0,0,0-.036.071c-.054.159-.11.318-.16.478a2.8,2.8,0,0,1-2.756,2q-9.134,0-18.268,0c-.138,0-.277,0-.414-.014a2.755,2.755,0,0,1-1.87-.849,2.957,2.957,0,0,1-.839-1.935C0,18.785.006,18.425.005,18.065Q0,16.009,0,13.953,0,8.43,0,2.907a2.974,2.974,0,0,1,.033-.443A2.927,2.927,0,0,1,2.357.06c.125-.024.251-.04.377-.06H21.569c.1.015.2.026.3.045a2.855,2.855,0,0,1,2.355,2.045c.051.157.09.317.135.476M12.175,20.886H20.98c.206,0,.413,0,.618-.017a1.807,1.807,0,0,0,1.261-.645A1.948,1.948,0,0,0,23.3,18.93q0-7.933,0-15.866a2.4,2.4,0,0,0-.023-.376A1.789,1.789,0,0,0,22,1.16a2.875,2.875,0,0,0-.924-.1l-18.011,0a2.69,2.69,0,0,0-.405.028,1.8,1.8,0,0,0-1.279.782A1.969,1.969,0,0,0,1.056,3q0,7.956,0,15.912a2.617,2.617,0,0,0,.033.405,1.807,1.807,0,0,0,1.565,1.532,6.193,6.193,0,0,0,.782.031q4.369,0,8.738,0" fill="#4a2efc"/>
        <path id="Trazado_608305" data-name="Trazado 608305" d="M35.983,68.241h-2.1q-2.407,0-4.814,0c-.734,0-1.468.013-2.2.013a1.4,1.4,0,0,1-1.325-.747,1.536,1.536,0,0,1-.177-.748c0-1.222.006-2.444.007-3.666q0-4.474,0-8.948c0-.538,0-1.076,0-1.614A1.622,1.622,0,0,1,25.5,51.9a1.219,1.219,0,0,1,.986-.748,2.313,2.313,0,0,1,.39-.031q9.084,0,18.169,0a1.849,1.849,0,0,1,.623.1,1.2,1.2,0,0,1,.816.988,2.472,2.472,0,0,1,.038.442q0,7.039,0,14.078a1.771,1.771,0,0,1-.167.826,1.233,1.233,0,0,1-.99.665A2.589,2.589,0,0,1,45,68.24H35.983m-5.778-6.9-.072.032q-1.8.9-3.6,1.793a.165.165,0,0,0-.1.171q0,1.716,0,3.433a1.267,1.267,0,0,0,.017.195.211.211,0,0,0,.188.2,1.6,1.6,0,0,0,.225.019H45.106c.273-.007.338-.069.36-.342,0-.015,0-.03,0-.045q0-1.72.006-3.44a.193.193,0,0,0-.123-.2c-.148-.069-.293-.144-.439-.216L41.8,61.388l-.093-.044c0,.024-.005.038-.005.052,0,.309-.006.618,0,.927a.713.713,0,0,1-.4.707q-2.459,1.32-4.915,2.648a.843.843,0,0,1-.87,0q-2.141-1.164-4.289-2.315c-.208-.112-.417-.221-.625-.333a.715.715,0,0,1-.406-.7c0-.133.008-.266.009-.4,0-.19,0-.381,0-.585m5.218-9.167H26.835a1.259,1.259,0,0,0-.224.026.172.172,0,0,0-.15.149,1.854,1.854,0,0,0-.029.284q0,4.655,0,9.309v.089c.029-.013.05-.021.069-.03q1.8-.9,3.607-1.8a.154.154,0,0,0,.1-.16c0-.717,0-1.433,0-2.15,0-.274,0-.548-.009-.822a.769.769,0,0,1,.451-.773c1.123-.595,2.24-1.2,3.359-1.8q.644-.346,1.285-.7c.067-.036.125-.074.124-.169,0-.349.005-.7.008-1.048,0-.135,0-.271,0-.414m1.057,0c0,.04,0,.07,0,.1,0,.415,0,.83,0,1.245a.289.289,0,0,0,.156.308q1.681.9,3.358,1.8c.429.231.86.458,1.289.689a.757.757,0,0,1,.425.725q-.007.4-.008.807c0,.707,0,1.413,0,2.12a.265.265,0,0,0,.172.274c.347.165.69.337,1.034.509L45.379,62l.09.042v-.1q0-4.658,0-9.317a1.775,1.775,0,0,0-.022-.247.2.2,0,0,0-.17-.177,1.239,1.239,0,0,0-.217-.023H36.48Zm-5.22,5.578c0,.037,0,.059,0,.082q0,2.1,0,4.209a.2.2,0,0,0,.122.2q1.982,1.062,3.961,2.128c.021.011.043.021.079.039,0-.04,0-.067,0-.094q0-1.263,0-2.527c0-.543,0-1.086.005-1.629a.244.244,0,0,0-.151-.247q-1.634-.874-3.263-1.756l-.754-.405m5.219,6.663.081-.04q1.974-1.061,3.949-2.12a.232.232,0,0,0,.137-.233c0-.7-.006-1.4-.006-2.1s0-1.378,0-2.067v-.1l-.1.051q-1.961,1.053-3.923,2.1a.237.237,0,0,0-.14.239q0,2.086,0,4.172Zm3.574-7.547-.1-.056q-1.909-1.031-3.817-2.064a.347.347,0,0,0-.367,0q-1.918,1.039-3.838,2.072l-.082.047.049.029L35.822,59a.259.259,0,0,0,.264,0l3.392-1.821.575-.311" transform="translate(-23.772 -47.906)" fill="#4a2efc"/>
        <path id="Trazado_608306" data-name="Trazado 608306" d="M246.11,25.558c.9,0,1.805,0,2.708,0a.977.977,0,0,1,.289.039.505.505,0,0,1,.346.554.521.521,0,0,1-.482.453c-.246.01-.492.009-.738.009q-2.417,0-4.835,0a.934.934,0,0,1-.267-.037.519.519,0,0,1,.121-1.009c.068-.005.135-.008.2-.008h2.655" transform="translate(-227.509 -23.95)" fill="#4a2efc"/>
        <path id="Trazado_608307" data-name="Trazado 608307" d="M83.609,26.687a.529.529,0,0,1-.526-.528.527.527,0,0,1,1.054,0,.532.532,0,0,1-.528.527" transform="translate(-77.859 -24.029)" fill="#4a2efc"/>
        <path id="Trazado_608308" data-name="Trazado 608308" d="M32.588,26.687a.516.516,0,0,1-.509-.532.5.5,0,0,1,.523-.514.526.526,0,0,1,.526.521.534.534,0,0,1-.539.526" transform="translate(-30.062 -24.029)" fill="#4a2efc"/>
        <path id="Trazado_608309" data-name="Trazado 608309" d="M58.12,25.641a.515.515,0,0,1,.528.522.526.526,0,0,1-.529.525.52.52,0,0,1-.517-.534.507.507,0,0,1,.519-.513" transform="translate(-53.979 -24.029)" fill="#4a2efc"/>
      </g>
    </g>
  </g>
</svg>
