<svg xmlns="http://www.w3.org/2000/svg" xmlns:xlink="http://www.w3.org/1999/xlink" width="227.461" height="74.859" viewBox="0 0 227.461 74.859">
  <defs>
    <clipPath id="clip-path">
      <rect id="Rectángulo_292272" data-name="Rectángulo 292272" width="74.922" height="74.859" fill="none"/>
    </clipPath>
  </defs>
  <g id="Grupo_874033" data-name="Grupo 874033" transform="translate(-180 -8248.426)">
    <path id="Trazado_608313" data-name="Trazado 608313" d="M0,0H190l16.765,17.329V38.178L188.484,52.528,0,52Z" transform="translate(180 8259.898)" fill="#fff0a6"/>
    <path id="Trazado_609221" data-name="Trazado 609221" d="M14.427,15.5a9.223,9.223,0,0,1-.849,4.05,6.272,6.272,0,0,1-2.412,2.712,6.715,6.715,0,0,1-3.561.951A6.81,6.81,0,0,1,4.061,22.3,6.261,6.261,0,0,1,1.649,19.67a8.958,8.958,0,0,1-.908-3.921v-.881a9.264,9.264,0,0,1,.843-4.055A6.257,6.257,0,0,1,4,8.1a6.762,6.762,0,0,1,3.583-.956,6.7,6.7,0,0,1,3.545.945,6.369,6.369,0,0,1,2.422,2.691,9,9,0,0,1,.875,4Zm-3.835-.655a6.577,6.577,0,0,0-.779-3.54A2.5,2.5,0,0,0,7.584,10.1q-2.836,0-3,4.254L4.576,15.5a6.764,6.764,0,0,0,.763,3.534,2.494,2.494,0,0,0,2.267,1.235,2.464,2.464,0,0,0,2.2-1.214,6.58,6.58,0,0,0,.784-3.491ZM27,17.285a7.084,7.084,0,0,1-1.182,4.394,3.958,3.958,0,0,1-3.33,1.536,3.435,3.435,0,0,1-2.857-1.407L19.476,23H16.231V6.5h3.62v5.812a3.314,3.314,0,0,1,2.61-1.149,3.959,3.959,0,0,1,3.352,1.558A7.121,7.121,0,0,1,27,17.1Zm-3.631-.231a4.725,4.725,0,0,0-.446-2.386,1.5,1.5,0,0,0-1.37-.713,1.733,1.733,0,0,0-1.7.933V19.5a1.743,1.743,0,0,0,1.719.922,1.537,1.537,0,0,0,1.622-1.244A8.933,8.933,0,0,0,23.364,17.054Zm9.12-5.677V23.4a4.219,4.219,0,0,1-1.182,3.18,4.539,4.539,0,0,1-3.266,1.117,7.71,7.71,0,0,1-1.708-.183V24.772a6.926,6.926,0,0,0,1.021.1,1.325,1.325,0,0,0,1.5-1.493v-12Zm-3.9-3a1.616,1.616,0,0,1,.559-1.268,2.375,2.375,0,0,1,2.9,0A1.616,1.616,0,0,1,32.6,8.38a1.616,1.616,0,0,1-.559,1.268,2.375,2.375,0,0,1-2.9,0A1.616,1.616,0,0,1,28.585,8.38ZM40.154,23.215a5.975,5.975,0,0,1-4.329-1.6,5.509,5.509,0,0,1-1.654-4.152v-.3a7.138,7.138,0,0,1,.661-3.147,4.834,4.834,0,0,1,1.928-2.111,5.821,5.821,0,0,1,3.008-.747,5.031,5.031,0,0,1,3.867,1.52,5.973,5.973,0,0,1,1.418,4.238v1.407h-7.2a2.609,2.609,0,0,0,.849,1.536,2.525,2.525,0,0,0,1.7.559,3.254,3.254,0,0,0,2.686-1.2l1.654,1.955a4.624,4.624,0,0,1-1.917,1.488A6.48,6.48,0,0,1,40.154,23.215Zm-.408-9.26q-1.59,0-1.891,2.105h3.652v-.279a1.793,1.793,0,0,0-.44-1.348A1.753,1.753,0,0,0,39.746,13.955ZM50.725,8.487v2.89h1.912v2.514H50.725v5.317a1.358,1.358,0,0,0,.236.913,1.268,1.268,0,0,0,.935.258,5.311,5.311,0,0,0,.9-.064V22.9a6.681,6.681,0,0,1-2.041.312A3.792,3.792,0,0,1,48,22.334a3.61,3.61,0,0,1-.892-2.675V13.891H45.622V11.377H47.1V8.487ZM57.879,23H54.248V11.377h3.631ZM54.033,8.38a1.616,1.616,0,0,1,.559-1.268,2.375,2.375,0,0,1,2.9,0,1.616,1.616,0,0,1,.559,1.268,1.616,1.616,0,0,1-.559,1.268,2.375,2.375,0,0,1-2.9,0A1.616,1.616,0,0,1,54.033,8.38Zm10.71,10.313,1.837-7.315h3.813L66.6,23h-3.7L59.114,11.377h3.824Zm6.112-1.611a6.86,6.86,0,0,1,.677-3.1,4.84,4.84,0,0,1,1.944-2.089,5.856,5.856,0,0,1,2.976-.73,5.344,5.344,0,0,1,4.114,1.617,6.2,6.2,0,0,1,1.5,4.4v.129a6.019,6.019,0,0,1-1.509,4.313,5.359,5.359,0,0,1-4.087,1.6,5.42,5.42,0,0,1-3.985-1.488,5.819,5.819,0,0,1-1.622-4.034Zm3.62.226a4.325,4.325,0,0,0,.5,2.363,1.682,1.682,0,0,0,1.493.752q1.934,0,1.977-2.976v-.365q0-3.126-2-3.126-1.815,0-1.966,2.7Zm15.275,2.428a.836.836,0,0,0-.483-.741,7.353,7.353,0,0,0-1.837-.58,8.376,8.376,0,0,1-2.234-.79,3.743,3.743,0,0,1-1.343-1.187,2.834,2.834,0,0,1-.462-1.6A3.212,3.212,0,0,1,84.713,12.2a5.443,5.443,0,0,1,3.459-1.037,6.03,6.03,0,0,1,3.7,1.042,3.258,3.258,0,0,1,1.4,2.739H89.633q0-1.4-1.472-1.4a1.459,1.459,0,0,0-.956.317.981.981,0,0,0-.387.79.9.9,0,0,0,.473.784,4.466,4.466,0,0,0,1.509.494,13.043,13.043,0,0,1,1.821.462q2.621.9,2.621,3.233a3.044,3.044,0,0,1-1.413,2.589,6.2,6.2,0,0,1-3.658,1,6.322,6.322,0,0,1-2.664-.537,4.455,4.455,0,0,1-1.826-1.461,3.308,3.308,0,0,1-.655-1.944H86.41a1.4,1.4,0,0,0,.537,1.176,2.209,2.209,0,0,0,1.321.371,1.738,1.738,0,0,0,1.112-.3A.962.962,0,0,0,89.751,19.734Z" transform="translate(198 8272.898)" fill="#12263f"/>
    <g id="Grupo_873558" data-name="Grupo 873558" transform="translate(332.539 8248.426)">
      <g id="Grupo_873558-2" data-name="Grupo 873558" clip-path="url(#clip-path)">
        <path id="Trazado_608384" data-name="Trazado 608384" d="M55,6.165a1.326,1.326,0,0,0-.33,1.353c.31,1.377.579,2.763.883,4.141a.729.729,0,0,1-.216.845c-.367.291-.536-.079-.738-.22a34.543,34.543,0,1,0-37.9,57.7A31.776,31.776,0,0,0,31.846,74.8c14.648.742,25.662-5.363,33.04-17.968a31.362,31.362,0,0,0,4.055-13.747A34.427,34.427,0,0,0,62.6,20.272c-.134-.192-.452-.351-.179-.679a.7.7,0,0,1,.773-.236c1.378.3,2.765.567,4.14.885a1.592,1.592,0,0,0,1.6-.455c1.467-1.465,2.923-2.94,4.4-4.4a8.4,8.4,0,0,0,1.593-2.8V10.539c-.217-.086-.125-.292-.163-.442a5.65,5.65,0,0,0-5.167-4.233c-.235-.015-.537.115-.536-.353a5.6,5.6,0,0,0-4.7-5.436C64.316.069,64.278.026,64.237,0h-1.9C59.115,1.132,57.383,4.04,55,6.165m1.247,9.593a.946.946,0,0,1,.19-.058c0,1.811.864,2.836,2.963,2.751-.352.37-.515.548-.685.718-3.291,3.292-6.593,6.573-9.861,9.887-.446.453-.663.409-1.054-.023-.67-.74-1.4-1.424-2.111-2.127-.182-.181-.33-.306-.06-.574q5.319-5.277,10.617-10.574M33.852,40.572a1.391,1.391,0,0,0,1.492.692,1.722,1.722,0,0,0,.981-.591c.469-.485.939-.968,1.445-1.489a3.49,3.49,0,1,1-6.334-.456A3.555,3.555,0,0,1,35.728,37.1c-.587.6-1.149,1.151-1.681,1.73a1.37,1.37,0,0,0-.194,1.747m3.6-10.2a2.342,2.342,0,0,0-.872,2.13c.046.532.206,1.223-.053,1.568-.3.4-.95-.063-1.452-.1a6.451,6.451,0,1,0,5.779,7.569,6.025,6.025,0,0,0-.107-2.749c-.111-.4.006-.459.357-.45,3.052.072,2.225.3,4.68-2.1a5.916,5.916,0,0,0,.562-.778,12.857,12.857,0,1,1-6.933-6.907c-.678.636-1.3,1.259-1.96,1.825m3.078,1.044c.864-.745,1.642-1.593,2.433-2.419.264-.275.422-.287.69-.005.739.775,1.5,1.531,2.272,2.273.262.252.315.406.022.69q-1.628,1.573-3.205,3.2c-.505.519-1.122.094-1.539.26-1.682,0-1.609,0-1.71-1.541a2.72,2.72,0,0,1,1.038-2.456M65.813,35.98a30.746,30.746,0,0,1-6.526,23.995A30.628,30.628,0,0,1,38.46,71.74,31.593,31.593,0,0,1,28.213,9.433a30.85,30.85,0,0,1,24.246,4.92c.461.312.574.492.108.934-1.275,1.208-2.509,2.459-3.728,3.723-.325.336-.538.324-.917.089A25.137,25.137,0,0,0,10.173,34.066a24.489,24.489,0,0,0,2.19,18.273,1.509,1.509,0,0,0,2.227.815h0a1.58,1.58,0,0,0,.3-2.282,22.109,22.109,0,0,1,8.831-29.88c7.3-4.022,14.719-3.836,22.032.194.478.264.507.413.11.8-1.316,1.27-2.606,2.568-3.881,3.88a.685.685,0,0,1-.934.155,15.79,15.79,0,1,0,9.1,16.776A15.174,15.174,0,0,0,48.9,33.881a.728.728,0,0,1,.212-.987c1.277-1.241,2.544-2.493,3.775-3.779.42-.439.586-.415.893.111A22.261,22.261,0,0,1,24.173,60.087c-1.167-.608-1.585-.566-2.41.243h0a1.545,1.545,0,0,0,.876,2.27A25.217,25.217,0,0,0,59.1,45.792a24.661,24.661,0,0,0-3.246-18.733.673.673,0,0,1,.12-1.031c1.265-1.218,2.5-2.464,3.728-3.723.336-.346.495-.375.792.058A31.021,31.021,0,0,1,65.813,35.98M67.509,9.5a2.645,2.645,0,0,1,3.643.013,2.588,2.588,0,0,1,.224,3.629c-1.232,1.349-2.564,2.606-3.851,3.905a.439.439,0,0,1-.451.15c-1.963-.424-3.929-.837-6.019-1.28l5.1-5.08c.449-.447.884-.911,1.352-1.338M61.639,3.66a2.624,2.624,0,0,1,3.693.037,2.591,2.591,0,0,1,.1,3.687c-2.088,2.147-4.234,4.237-6.45,6.443-.421-2.019-.814-3.95-1.236-5.874a.6.6,0,0,1,.2-.635c1.23-1.218,2.431-2.466,3.685-3.658" transform="translate(0)"/>
        <path id="Trazado_608385" data-name="Trazado 608385" d="M71.589,58.288c-1.224,1.259-2.463,2.5-3.728,3.723a.673.673,0,0,0-.12,1.031,24.661,24.661,0,0,1,3.246,18.733A25.217,25.217,0,0,1,34.527,98.584a1.546,1.546,0,0,1-.876-2.27h0A21.2,21.2,0,0,1,30.723,94.2h0c-1.228.72-2.412.285-2.527-.923a1.951,1.951,0,0,1,.4-1.209,20.566,20.566,0,0,1-2.115-2.928h0a1.509,1.509,0,0,1-2.227-.815A24.491,24.491,0,0,1,22.06,70.05,25.138,25.138,0,0,1,59.809,55.083c.379.235.593.247.917-.089,1.219-1.264,2.454-2.515,3.728-3.722.466-.442.353-.622-.108-.934A30.849,30.849,0,0,0,40.1,45.418a31.593,31.593,0,0,0,10.247,62.306A31.657,31.657,0,0,0,77.7,71.964a31.024,31.024,0,0,0-5.319-13.618c-.3-.433-.456-.4-.792-.058" transform="translate(-11.888 -35.984)" fill="#fe7a78"/>
        <path id="Trazado_608386" data-name="Trazado 608386" d="M69.274,130.46c.492.513.509,1.151.053,2a16.163,16.163,0,0,1,2.9,2.166h0c.825-.809,1.243-.851,2.41-.243a22.261,22.261,0,0,0,29.605-30.861c-.308-.525-.473-.55-.893-.111-1.231,1.286-2.5,2.539-3.775,3.779a.728.728,0,0,0-.212.987,15.174,15.174,0,0,1,1.248,8.914,15.814,15.814,0,1,1-9.1-16.776.685.685,0,0,0,.934-.155c1.274-1.312,2.565-2.61,3.881-3.88.4-.384.368-.533-.11-.8-7.313-4.03-14.737-4.216-22.032-.194a22.108,22.108,0,0,0-8.831,29.88,1.58,1.58,0,0,1-.3,2.282h0a17.07,17.07,0,0,1,2.172,2.9c.869-.465,1.531-.431,2.047.108" transform="translate(-50.465 -74.299)" fill="#fefefe"/>
        <path id="Trazado_608387" data-name="Trazado 608387" d="M76.756,274.625a17.069,17.069,0,0,0-2.172-2.9,20.563,20.563,0,0,0,2.115,2.928l.057-.03" transform="translate(-59.994 -218.572)" fill="#fefefe"/>
        <path id="Trazado_608388" data-name="Trazado 608388" d="M96.288,297.38a21.183,21.183,0,0,0,2.926,2.115,16.163,16.163,0,0,0-2.9-2.166l-.027.051" transform="translate(-77.452 -239.165)" fill="#fefefe"/>
        <path id="Trazado_608389" data-name="Trazado 608389" d="M113.035,146.088a12.863,12.863,0,1,0,22.264,2.581,5.922,5.922,0,0,1-.562.778c-2.455,2.4-1.627,2.176-4.68,2.1-.351-.008-.468.055-.357.45a6.028,6.028,0,0,1,.107,2.749,6.44,6.44,0,1,1-5.779-7.569c.5.041,1.156.5,1.452.1.258-.345.1-1.036.053-1.568a2.342,2.342,0,0,1,.872-2.13c.665-.567,1.282-1.189,1.96-1.825a12.767,12.767,0,0,0-15.332,4.326" transform="translate(-88.958 -113.215)" fill="#fe7b79"/>
        <path id="Trazado_608390" data-name="Trazado 608390" d="M232.689,91.462c.71.7,1.442,1.387,2.111,2.127.391.432.608.476,1.054.023,3.268-3.315,6.57-6.6,9.861-9.887.17-.171.333-.349.685-.718-2.1.085-2.966-.94-2.963-2.751a.933.933,0,0,0-.19.058Q237.94,85.6,232.629,90.888c-.27.268-.122.394.06.574" transform="translate(-187.003 -64.556)" fill="#66dff6"/>
        <path id="Trazado_608391" data-name="Trazado 608391" d="M318.128,53.322a.44.44,0,0,0,.451-.15c1.287-1.3,2.619-2.556,3.851-3.905a2.589,2.589,0,0,0-.224-3.629,2.646,2.646,0,0,0-3.643-.013c-.468.427-.9.89-1.352,1.338l-5.1,5.08c2.089.442,4.055.856,6.019,1.28" transform="translate(-251.054 -36.12)" fill="#cbf4fb"/>
        <path id="Trazado_608392" data-name="Trazado 608392" d="M295.12,19.955c.422,1.924.815,3.855,1.236,5.874,2.216-2.206,4.362-4.3,6.45-6.443a2.591,2.591,0,0,0-.1-3.687,2.624,2.624,0,0,0-3.693-.037c-1.254,1.193-2.455,2.441-3.685,3.659a.6.6,0,0,0-.2.635" transform="translate(-237.372 -12.002)" fill="#cbf4fb"/>
        <path id="Trazado_608393" data-name="Trazado 608393" d="M163.225,188.95a3.556,3.556,0,0,0-4.292,1.632,3.506,3.506,0,0,0,4.978,4.619,3.449,3.449,0,0,0,1.356-4.163c-.506.521-.976,1-1.445,1.489a1.723,1.723,0,0,1-.981.591,1.392,1.392,0,0,1-1.492-.693,1.37,1.37,0,0,1,.195-1.747c.531-.579,1.094-1.129,1.681-1.73" transform="translate(-127.497 -151.855)" fill="#fefefe"/>
        <path id="Trazado_608394" data-name="Trazado 608394" d="M203.538,153.771c.417-.166,1.033.259,1.539-.26q1.579-1.622,3.205-3.2c.293-.283.24-.438-.022-.69-.772-.742-1.533-1.5-2.272-2.273-.269-.282-.426-.27-.69.005-.791.826-1.569,1.674-2.433,2.419a2.721,2.721,0,0,0-1.037,2.456c.1,1.536.028,1.541,1.71,1.541" transform="translate(-162.339 -118.359)" fill="#c092db"/>
        <path id="Trazado_608395" data-name="Trazado 608395" d="M86.829,287.7c.235-1.137-.442-1.811-1.58-1.575-.183.038-.357.169-.553.106a1.351,1.351,0,0,1-.146.52,1.267,1.267,0,0,0,.217,1.411,1.344,1.344,0,0,0,1.348.26,2.744,2.744,0,0,1,.605-.168c-.059-.2.07-.371.109-.555" transform="translate(-67.916 -230.116)" fill="#010101"/>
        <path id="Trazado_608396" data-name="Trazado 608396" d="M85.84,288.75a2.744,2.744,0,0,0-.605.168,1.344,1.344,0,0,1-1.348-.26,1.267,1.267,0,0,1-.216-1.411,1.351,1.351,0,0,0,.146-.52.371.371,0,0,1-.076-.033,1.952,1.952,0,0,0-.4,1.209c.115,1.208,1.3,1.642,2.527.923h0a.385.385,0,0,1-.031-.075" transform="translate(-67.035 -230.611)" fill="#010101"/>
        <path id="Trazado_608397" data-name="Trazado 608397" d="M85.7,285.272c.2.063.37-.068.553-.106,1.138-.237,1.815.438,1.58,1.575-.038.184-.168.358-.109.555h.015l.042.024c.455-.851.439-1.489-.053-2-.516-.539-1.178-.573-2.047-.108l.02.033c0,.01,0,.02,0,.03" transform="translate(-68.924 -229.156)" fill="#010101"/>
        <path id="Trazado_608398" data-name="Trazado 608398" d="M96.145,297.2H96.13a.374.374,0,0,0,.031.075l.027-.051-.042-.024" transform="translate(-77.325 -239.065)" fill="#010101"/>
        <path id="Trazado_608399" data-name="Trazado 608399" d="M85.471,286.574l-.02-.033-.057.03a.38.38,0,0,0,.076.033c0-.01,0-.019,0-.03" transform="translate(-68.689 -230.488)" fill="#010101"/>
      </g>
    </g>
  </g>
</svg>
