<svg xmlns="http://www.w3.org/2000/svg" xmlns:xlink="http://www.w3.org/1999/xlink" width="24.753" height="24.723" viewBox="0 0 24.753 24.723"><defs><clipPath id="a"><rect width="24.753" height="24.723" fill="#4a2efc"/></clipPath></defs><g clip-path="url(#a)"><path d="M199.664,190.584a6.423,6.423,0,0,0-10.19,1.961,6.132,6.132,0,0,0-.5,3.965,6.429,6.429,0,0,0,5.283,5.064c.157.026.312.069.468.1h1.1c.174-.035.348-.075.523-.105a6.411,6.411,0,0,0,5.278-5.346c.021-.133.051-.265.077-.4v-1.148c-.026-.13-.056-.258-.077-.389a6.212,6.212,0,0,0-1.965-3.709m-2.377,9.151a4.956,4.956,0,0,1-4,0c-.023-.01-.044-.022-.07-.034a2.123,2.123,0,0,1,.653-1.247,2.056,2.056,0,0,1,2.765-.051,2.136,2.136,0,0,1,.7,1.245c.009.046-.006.066-.048.084m-3.14-5.419a1.133,1.133,0,1,1,1.161,1.129,1.139,1.139,0,0,1-1.161-1.129m4.514,4.468a3.868,3.868,0,0,0-.8-1.308,3.5,3.5,0,0,0-1.269-.842,6.2,6.2,0,0,0,.494-.39,2.579,2.579,0,0,0,.842-1.952,2.643,2.643,0,0,0-5.238-.474,2.379,2.379,0,0,0,.292,1.794,2.848,2.848,0,0,0,1.012.953l.052.03a.137.137,0,0,1,.017.017,3.594,3.594,0,0,0-1.333.843,3.778,3.778,0,0,0-.829,1.329,4.888,4.888,0,0,1-1.267-5.118,4.919,4.919,0,0,1,9.383.28,4.864,4.864,0,0,1-1.351,4.836" transform="translate(-176.953 -176.955)" fill="#4a2efc"/><path d="M.177,7.911a6.148,6.148,0,0,0,2.232,3.5,6.2,6.2,0,0,0,5.5,1.243,6.242,6.242,0,0,0,4.263-3.381A6.2,6.2,0,0,0,12.8,5.694a6.23,6.23,0,0,0-.683-2.237A6.326,6.326,0,0,0,9.184.645,6.519,6.519,0,0,0,6.623.014C6.566.012,6.509,0,6.453,0H6.317c-.052,0-.1.011-.155.013A6.228,6.228,0,0,0,3.172.9,6.353,6.353,0,0,0,.479,4.022,7.667,7.667,0,0,0,.09,5.468c-.026.133-.06.264-.09.4V7c.019.08.043.159.057.239.041.225.067.453.12.676m7.3,3.3a4.961,4.961,0,0,1-3.049-.306c-.073-.031-.059-.07-.048-.123a2.079,2.079,0,0,1,4.082-.053c.01.046.018.093.029.146a5.093,5.093,0,0,1-1.014.336M5.292,5.478A1.133,1.133,0,1,1,6.428,6.616,1.145,1.145,0,0,1,5.292,5.478m-3.641-.21a4.917,4.917,0,0,1,9.438-.386,4.856,4.856,0,0,1-1.28,5.071A3.553,3.553,0,0,0,7.73,7.8c.153-.116.314-.22.453-.349a2.541,2.541,0,0,0,.888-1.914,2.642,2.642,0,0,0-5.236-.549,2.347,2.347,0,0,0,.347,1.874,2.94,2.94,0,0,0,.95.86l.08.049A3.6,3.6,0,0,0,3.042,9.944,4.853,4.853,0,0,1,1.651,5.268" fill="#4a2efc"/><path d="M43.061,222.624a3.013,3.013,0,0,1-2.125-2.139,2.586,2.586,0,0,1-.1-.954c.064,0,.119,0,.174,0a.761.761,0,0,0,.584-1.26q-1.254-1.669-2.51-3.337a4.684,4.684,0,0,0-.369-.458.7.7,0,0,0-1-.036,1.293,1.293,0,0,0-.184.2q-1.332,1.767-2.661,3.536a1.738,1.738,0,0,0-.187.291.739.739,0,0,0,.528,1.044,3.216,3.216,0,0,0,.341.031c0,.039,0,.079,0,.119.013.226.012.454.043.677a4.463,4.463,0,0,0,1.436,2.729,4.187,4.187,0,0,0,2.31,1.111,9.856,9.856,0,0,0,1.219.072c.878.009,1.757,0,2.636,0,.239,0,.479.006.717-.01a.7.7,0,0,0,.647-.458.716.716,0,0,0-.139-.794.886.886,0,0,0-.618-.257,3.928,3.928,0,0,1-.738-.1m-2.933.131a3.4,3.4,0,0,1-1.616-.46,2.908,2.908,0,0,1-1.417-2.157,8.96,8.96,0,0,1-.037-1.161,2.964,2.964,0,0,0-.023-.353.623.623,0,0,0-.23-.4c-.015-.012-.029-.026-.048-.043l1.437-1.911,1.435,1.909-.07.06a.635.635,0,0,0-.224.494c0,.413.013.825.033,1.237a4.548,4.548,0,0,0,.275,1.439,4.267,4.267,0,0,0,.8,1.294l.048.057c-.13,0-.25.005-.368,0" transform="translate(-32.427 -200.755)" fill="#4a2efc"/><path d="M208.87,24.552c-.1-.016-.2-.014-.309-.02,0-.031,0-.058,0-.085a5.257,5.257,0,0,0-.02-.528.7.7,0,0,0-.5-.616.727.727,0,0,0-.786.183.785.785,0,0,0-.209.574c0,.3,0,.594.007.891,0,.1-.007.191,0,.287a.842.842,0,0,0,.3.659L205.924,27.8l-1.439-1.914a.753.753,0,0,0,.3-.668c0-.337.005-.675-.006-1.012a4.411,4.411,0,0,0-1.105-2.823c-.012-.014-.022-.03-.035-.049a3.654,3.654,0,0,1,1.153.109,1.493,1.493,0,0,0,.586.085.745.745,0,0,0,.431-1.28,1.046,1.046,0,0,0-.434-.219,2.5,2.5,0,0,0-.675-.151c-.37-.011-.74-.016-1.11-.021-.33,0-.66-.008-.989-.01-.8-.007-1.6-.017-2.394-.018a.663.663,0,0,0-.622.406.7.7,0,0,0,.046.763.836.836,0,0,0,.682.331,2.953,2.953,0,0,1,1.312.333,3.018,3.018,0,0,1,1.62,2.264c.033.2.032.4.047.608-.08,0-.14,0-.2,0a.758.758,0,0,0-.579,1.25q1.026,1.368,2.055,2.735c.259.344.514.691.783,1.026a.715.715,0,0,0,.852.216.97.97,0,0,0,.382-.333q1.15-1.531,2.3-3.06c.163-.217.333-.431.486-.655a.745.745,0,0,0-.508-1.166" transform="translate(-186.934 -18.584)" fill="#4a2efc"/><path d="M307.6,44.464a.752.752,0,1,0-.754-.754.749.749,0,0,0,.754.754" transform="translate(-287.522 -40.255)" fill="#4a2efc"/></g></svg>