<svg xmlns="http://www.w3.org/2000/svg" xmlns:xlink="http://www.w3.org/1999/xlink" width="516.498" height="74.859" viewBox="0 0 516.498 74.859">
  <defs>
    <clipPath id="clip-path">
      <rect id="Rectángulo_290917" data-name="Rectángulo 290917" width="83.775" height="74.859" fill="none"/>
    </clipPath>
  </defs>
  <g id="Grupo_874040" data-name="Grupo 874040" transform="translate(-180 -4586.107)">
    <path id="Trazado_605343" data-name="Trazado 605343" d="M0,0H482.578l-3.851,52.528L0,52Z" transform="translate(180 4597.581)" fill="#fff0a6"/>
    <path id="Trazado_609230" data-name="Trazado 609230" d="M5.2,23H1.439V7.359H5.2Zm5.876-11.623.118,1.364a4,4,0,0,1,3.319-1.579,2.942,2.942,0,0,1,2.976,1.751A3.868,3.868,0,0,1,20.9,11.162q3.534,0,3.631,4.275V23H20.9V15.663a2.216,2.216,0,0,0-.3-1.3,1.28,1.28,0,0,0-1.1-.408,1.715,1.715,0,0,0-1.6.956l.011.15V23H14.287V15.685A2.329,2.329,0,0,0,14,14.363a1.277,1.277,0,0,0-1.106-.408,1.736,1.736,0,0,0-1.59.956V23H7.681V11.377Zm26.318,5.9A7.009,7.009,0,0,1,36.174,21.6a3.909,3.909,0,0,1-3.292,1.617,3.351,3.351,0,0,1-2.632-1.171v5.425H26.63V11.377h3.384l.107,1.074a3.351,3.351,0,0,1,2.739-1.289A3.941,3.941,0,0,1,36.2,12.747,7.1,7.1,0,0,1,37.394,17.1Zm-3.62-.226q0-3.094-1.8-3.094a1.7,1.7,0,0,0-1.719.924v4.576a1.759,1.759,0,0,0,1.74.967q1.729,0,1.783-2.986Zm4.759.032a6.86,6.86,0,0,1,.677-3.1,4.84,4.84,0,0,1,1.944-2.089,5.856,5.856,0,0,1,2.976-.73,5.344,5.344,0,0,1,4.114,1.617,6.2,6.2,0,0,1,1.5,4.4v.129a6.019,6.019,0,0,1-1.509,4.313,5.359,5.359,0,0,1-4.087,1.6,5.42,5.42,0,0,1-3.985-1.488,5.819,5.819,0,0,1-1.622-4.034Zm3.62.226a4.325,4.325,0,0,0,.5,2.363,1.682,1.682,0,0,0,1.493.752q1.934,0,1.977-2.976v-.365q0-3.126-2-3.126-1.815,0-1.966,2.7Zm16.221-2.653-1.192-.086a2.142,2.142,0,0,0-2.191,1.074V23h-3.62V11.377h3.395l.118,1.493a2.8,2.8,0,0,1,2.546-1.708,3.53,3.53,0,0,1,1.01.129Zm6.059-6.166v2.89h1.912v2.514H64.432v5.317a1.358,1.358,0,0,0,.236.913,1.268,1.268,0,0,0,.935.258,5.311,5.311,0,0,0,.9-.064V22.9a6.681,6.681,0,0,1-2.041.312,3.792,3.792,0,0,1-2.761-.881,3.61,3.61,0,0,1-.892-2.675V13.891H59.329V11.377h1.482V8.487ZM74.314,23a4.087,4.087,0,0,1-.344-1.042,3.366,3.366,0,0,1-2.793,1.257,4.124,4.124,0,0,1-2.793-.994,3.163,3.163,0,0,1-1.149-2.5,3.251,3.251,0,0,1,1.4-2.857,7.114,7.114,0,0,1,4.061-.967H73.81v-.615q0-1.608-1.386-1.608a1.133,1.133,0,0,0-1.289,1.274h-3.62a3.245,3.245,0,0,1,1.434-2.736,6.027,6.027,0,0,1,3.658-1.051,5.284,5.284,0,0,1,3.513,1.085,3.772,3.772,0,0,1,1.321,2.976v5.146a5.269,5.269,0,0,0,.494,2.449V23Zm-2.267-2.363a2.019,2.019,0,0,0,1.123-.29,1.818,1.818,0,0,0,.639-.655V17.833H72.757q-1.891,0-1.891,1.7a1.036,1.036,0,0,0,.333.8A1.205,1.205,0,0,0,72.048,20.637Zm10.721-9.26.118,1.364a3.942,3.942,0,0,1,3.319-1.579,3.316,3.316,0,0,1,2.712,1.085,5.165,5.165,0,0,1,.929,3.266V23H86.217V15.663a1.961,1.961,0,0,0-.354-1.294,1.64,1.64,0,0,0-1.289-.414,1.726,1.726,0,0,0-1.579.838V23h-3.62V11.377Zm14,9.045a1.61,1.61,0,0,0,1.182-.414,1.517,1.517,0,0,0,.408-1.155h3.395a4.018,4.018,0,0,1-1.37,3.137,5.1,5.1,0,0,1-3.529,1.225,5.158,5.158,0,0,1-4-1.59,6.264,6.264,0,0,1-1.461-4.4v-.15a7.08,7.08,0,0,1,.65-3.11,4.732,4.732,0,0,1,1.875-2.073,5.589,5.589,0,0,1,2.9-.725,5.03,5.03,0,0,1,3.6,1.257,4.458,4.458,0,0,1,1.332,3.405H98.355a1.987,1.987,0,0,0-.44-1.386,1.52,1.52,0,0,0-1.182-.483q-1.407,0-1.644,1.794a12.658,12.658,0,0,0-.075,1.568,4.972,4.972,0,0,0,.419,2.428A1.45,1.45,0,0,0,96.766,20.422ZM107.1,23h-3.631V11.377H107.1ZM103.254,8.38a1.616,1.616,0,0,1,.559-1.268,2.375,2.375,0,0,1,2.9,0,1.616,1.616,0,0,1,.559,1.268,1.616,1.616,0,0,1-.559,1.268,2.375,2.375,0,0,1-2.9,0A1.616,1.616,0,0,1,103.254,8.38ZM115.876,23a4.087,4.087,0,0,1-.344-1.042,3.366,3.366,0,0,1-2.793,1.257,4.124,4.124,0,0,1-2.793-.994,3.163,3.163,0,0,1-1.149-2.5,3.251,3.251,0,0,1,1.4-2.857,7.114,7.114,0,0,1,4.061-.967h1.117v-.615q0-1.608-1.386-1.608A1.133,1.133,0,0,0,112.7,14.95h-3.62a3.245,3.245,0,0,1,1.434-2.736,6.027,6.027,0,0,1,3.658-1.051,5.284,5.284,0,0,1,3.513,1.085A3.772,3.772,0,0,1,119,15.223v5.146a5.269,5.269,0,0,0,.494,2.449V23Zm-2.267-2.363a2.019,2.019,0,0,0,1.123-.29,1.818,1.818,0,0,0,.639-.655V17.833h-1.053q-1.891,0-1.891,1.7a1.036,1.036,0,0,0,.333.8A1.205,1.205,0,0,0,113.609,20.637ZM131.13,17.93l1.934-6.553h3.878L132.2,24.944l-.2.494a3.6,3.6,0,0,1-3.566,2.256,5.674,5.674,0,0,1-1.493-.214V24.9h.473a2.476,2.476,0,0,0,1.166-.22,1.337,1.337,0,0,0,.6-.79l.29-.774-4.039-11.74h3.867ZM148,18.692l1.837-7.315h3.813L149.854,23h-3.7l-3.792-11.623h3.824Zm12.354,4.522a5.975,5.975,0,0,1-4.329-1.6,5.509,5.509,0,0,1-1.654-4.152v-.3a7.138,7.138,0,0,1,.661-3.147,4.834,4.834,0,0,1,1.928-2.111,5.821,5.821,0,0,1,3.008-.747,5.031,5.031,0,0,1,3.867,1.52,5.973,5.973,0,0,1,1.418,4.238v1.407h-7.2a2.609,2.609,0,0,0,.849,1.536,2.525,2.525,0,0,0,1.7.559,3.254,3.254,0,0,0,2.686-1.2l1.654,1.955a4.624,4.624,0,0,1-1.917,1.488A6.48,6.48,0,0,1,160.349,23.215Zm-.408-9.26q-1.59,0-1.891,2.105H161.7v-.279a1.793,1.793,0,0,0-.44-1.348A1.753,1.753,0,0,0,159.94,13.955Zm10.087-2.578.118,1.364a3.942,3.942,0,0,1,3.319-1.579,3.316,3.316,0,0,1,2.712,1.085,5.165,5.165,0,0,1,.929,3.266V23h-3.631V15.663a1.961,1.961,0,0,0-.354-1.294,1.64,1.64,0,0,0-1.289-.414,1.726,1.726,0,0,0-1.579.838V23h-3.62V11.377Zm13.3-2.89v2.89h1.912v2.514h-1.912v5.317a1.358,1.358,0,0,0,.236.913,1.268,1.268,0,0,0,.935.258,5.311,5.311,0,0,0,.9-.064V22.9a6.681,6.681,0,0,1-2.041.312,3.792,3.792,0,0,1-2.761-.881,3.61,3.61,0,0,1-.892-2.675V13.891h-1.482V11.377h1.482V8.487ZM193.209,23a4.088,4.088,0,0,1-.344-1.042,3.366,3.366,0,0,1-2.793,1.257,4.124,4.124,0,0,1-2.793-.994,3.163,3.163,0,0,1-1.149-2.5,3.251,3.251,0,0,1,1.4-2.857,7.114,7.114,0,0,1,4.061-.967H192.7v-.615q0-1.608-1.386-1.608a1.133,1.133,0,0,0-1.289,1.274h-3.62a3.245,3.245,0,0,1,1.434-2.736,6.027,6.027,0,0,1,3.658-1.051,5.284,5.284,0,0,1,3.513,1.085,3.772,3.772,0,0,1,1.321,2.976v5.146a5.269,5.269,0,0,0,.494,2.449V23Zm-2.267-2.363a2.019,2.019,0,0,0,1.123-.29,1.818,1.818,0,0,0,.639-.655V17.833h-1.053q-1.891,0-1.891,1.7a1.036,1.036,0,0,0,.333.8A1.205,1.205,0,0,0,190.942,20.637Zm11.29-9.26V23.4a4.219,4.219,0,0,1-1.182,3.18,4.539,4.539,0,0,1-3.266,1.117,7.71,7.71,0,0,1-1.708-.183V24.772a6.926,6.926,0,0,0,1.021.1,1.325,1.325,0,0,0,1.5-1.493v-12Zm-3.9-3a1.616,1.616,0,0,1,.559-1.268,2.375,2.375,0,0,1,2.9,0,1.616,1.616,0,0,1,.559,1.268,1.616,1.616,0,0,1-.559,1.268,2.375,2.375,0,0,1-2.9,0A1.616,1.616,0,0,1,198.333,8.38ZM210.826,23a4.088,4.088,0,0,1-.344-1.042,3.366,3.366,0,0,1-2.793,1.257,4.124,4.124,0,0,1-2.793-.994,3.163,3.163,0,0,1-1.149-2.5,3.251,3.251,0,0,1,1.4-2.857A7.114,7.114,0,0,1,209.2,15.9h1.117v-.615q0-1.608-1.386-1.608a1.133,1.133,0,0,0-1.289,1.274h-3.62a3.245,3.245,0,0,1,1.434-2.736,6.027,6.027,0,0,1,3.658-1.051,5.284,5.284,0,0,1,3.513,1.085,3.772,3.772,0,0,1,1.321,2.976v5.146a5.269,5.269,0,0,0,.494,2.449V23Zm-2.267-2.363a2.019,2.019,0,0,0,1.123-.29,1.818,1.818,0,0,0,.639-.655V17.833h-1.053q-1.891,0-1.891,1.7a1.036,1.036,0,0,0,.333.8A1.205,1.205,0,0,0,208.56,20.637Zm13.481-.9a.836.836,0,0,0-.483-.741,7.353,7.353,0,0,0-1.837-.58,8.376,8.376,0,0,1-2.234-.79,3.743,3.743,0,0,1-1.343-1.187,2.835,2.835,0,0,1-.462-1.6A3.212,3.212,0,0,1,217,12.2a5.443,5.443,0,0,1,3.459-1.037,6.03,6.03,0,0,1,3.7,1.042,3.258,3.258,0,0,1,1.4,2.739h-3.631q0-1.4-1.472-1.4a1.459,1.459,0,0,0-.956.317.981.981,0,0,0-.387.79.9.9,0,0,0,.473.784,4.466,4.466,0,0,0,1.509.494,13.042,13.042,0,0,1,1.821.462q2.621.9,2.621,3.233a3.044,3.044,0,0,1-1.413,2.589,6.2,6.2,0,0,1-3.658,1,6.322,6.322,0,0,1-2.664-.537,4.455,4.455,0,0,1-1.826-1.461,3.308,3.308,0,0,1-.655-1.944H218.7a1.4,1.4,0,0,0,.537,1.176,2.209,2.209,0,0,0,1.321.371,1.738,1.738,0,0,0,1.112-.3A.962.962,0,0,0,222.041,19.734ZM232.246,17.1a7.1,7.1,0,0,1,1.192-4.351,3.925,3.925,0,0,1,3.33-1.59,3.338,3.338,0,0,1,2.621,1.225V6.5h3.631V23h-3.255l-.183-1.246a3.428,3.428,0,0,1-2.836,1.461,3.918,3.918,0,0,1-3.287-1.59A7.325,7.325,0,0,1,232.246,17.1Zm3.62.226q0,3.094,1.8,3.094a1.782,1.782,0,0,0,1.719-1.01V14.986a1.734,1.734,0,0,0-1.7-1.031q-1.676,0-1.815,2.707ZM250.7,23.215a5.975,5.975,0,0,1-4.329-1.6,5.509,5.509,0,0,1-1.654-4.152v-.3a7.138,7.138,0,0,1,.661-3.147,4.834,4.834,0,0,1,1.928-2.111,5.821,5.821,0,0,1,3.008-.747,5.031,5.031,0,0,1,3.867,1.52A5.973,5.973,0,0,1,255.6,16.92v1.407h-7.2a2.609,2.609,0,0,0,.849,1.536,2.525,2.525,0,0,0,1.7.559,3.254,3.254,0,0,0,2.686-1.2l1.654,1.955a4.624,4.624,0,0,1-1.917,1.488A6.48,6.48,0,0,1,250.7,23.215Zm-.408-9.26q-1.59,0-1.891,2.105h3.652v-.279a1.793,1.793,0,0,0-.44-1.348A1.753,1.753,0,0,0,250.293,13.955ZM266.353,23h-3.631V6.5h3.631Zm8.776,0a4.087,4.087,0,0,1-.344-1.042,3.366,3.366,0,0,1-2.793,1.257,4.124,4.124,0,0,1-2.793-.994,3.163,3.163,0,0,1-1.149-2.5,3.251,3.251,0,0,1,1.4-2.857,7.114,7.114,0,0,1,4.061-.967h1.117v-.615q0-1.608-1.386-1.608a1.133,1.133,0,0,0-1.289,1.274h-3.62a3.245,3.245,0,0,1,1.434-2.736,6.027,6.027,0,0,1,3.658-1.051,5.284,5.284,0,0,1,3.513,1.085,3.772,3.772,0,0,1,1.321,2.976v5.146a5.269,5.269,0,0,0,.494,2.449V23Zm-2.267-2.363a2.019,2.019,0,0,0,1.123-.29,1.818,1.818,0,0,0,.639-.655V17.833h-1.053q-1.891,0-1.891,1.7a1.036,1.036,0,0,0,.333.8A1.205,1.205,0,0,0,272.862,20.637Zm17.145-.43h5.3V23h-9.872V20.98l5.156-6.811h-4.931V11.377h9.528v1.955Zm6.424-3.126a6.86,6.86,0,0,1,.677-3.1,4.84,4.84,0,0,1,1.944-2.089,5.856,5.856,0,0,1,2.976-.73,5.344,5.344,0,0,1,4.114,1.617,6.2,6.2,0,0,1,1.5,4.4v.129a6.019,6.019,0,0,1-1.509,4.313,5.359,5.359,0,0,1-4.087,1.6,5.42,5.42,0,0,1-3.985-1.488,5.819,5.819,0,0,1-1.622-4.034Zm3.62.226a4.325,4.325,0,0,0,.5,2.363,1.682,1.682,0,0,0,1.493.752q1.934,0,1.977-2.976v-.365q0-3.126-2-3.126-1.815,0-1.966,2.7Zm12.515-5.93.118,1.364A3.942,3.942,0,0,1,316,11.162a3.316,3.316,0,0,1,2.712,1.085,5.165,5.165,0,0,1,.929,3.266V23h-3.631V15.663a1.961,1.961,0,0,0-.354-1.294,1.64,1.64,0,0,0-1.289-.414,1.726,1.726,0,0,0-1.579.838V23h-3.62V11.377ZM325.467,23h-3.631V11.377h3.631ZM321.621,8.38a1.616,1.616,0,0,1,.559-1.268,2.375,2.375,0,0,1,2.9,0,1.616,1.616,0,0,1,.559,1.268,1.616,1.616,0,0,1-.559,1.268,2.375,2.375,0,0,1-2.9,0A1.616,1.616,0,0,1,321.621,8.38ZM328.539,23V13.891h-1.687V11.377h1.687V10.99a4.438,4.438,0,0,1,1.525-3.556,6.1,6.1,0,0,1,3.964-1.16,14.066,14.066,0,0,1,3.781.623l-.494,2.857-.6-.161a9.572,9.572,0,0,0-2.471-.312q-2.073,0-2.073,1.891v.2h2.277v2.514H332.17V23Zm10.936,0h-3.642V11.377h3.642Zm7.122-2.578a1.61,1.61,0,0,0,1.182-.414,1.517,1.517,0,0,0,.408-1.155h3.395a4.018,4.018,0,0,1-1.37,3.137,5.1,5.1,0,0,1-3.529,1.225,5.158,5.158,0,0,1-4-1.59,6.264,6.264,0,0,1-1.461-4.4v-.15a7.08,7.08,0,0,1,.65-3.11,4.732,4.732,0,0,1,1.875-2.073,5.589,5.589,0,0,1,2.9-.725,5.03,5.03,0,0,1,3.6,1.257,4.458,4.458,0,0,1,1.332,3.405h-3.395a1.987,1.987,0,0,0-.44-1.386,1.52,1.52,0,0,0-1.182-.483q-1.407,0-1.644,1.794a12.656,12.656,0,0,0-.075,1.568,4.972,4.972,0,0,0,.419,2.428A1.45,1.45,0,0,0,346.6,20.422ZM359.659,23a4.087,4.087,0,0,1-.344-1.042,3.366,3.366,0,0,1-2.793,1.257,4.124,4.124,0,0,1-2.793-.994,3.163,3.163,0,0,1-1.149-2.5,3.251,3.251,0,0,1,1.4-2.857,7.114,7.114,0,0,1,4.061-.967h1.117v-.615q0-1.608-1.386-1.608a1.133,1.133,0,0,0-1.289,1.274h-3.62a3.245,3.245,0,0,1,1.434-2.736,6.027,6.027,0,0,1,3.658-1.051,5.284,5.284,0,0,1,3.513,1.085,3.772,3.772,0,0,1,1.321,2.976v5.146a5.269,5.269,0,0,0,.494,2.449V23Zm-2.267-2.363a2.019,2.019,0,0,0,1.123-.29,1.818,1.818,0,0,0,.639-.655V17.833H358.1q-1.891,0-1.891,1.7a1.036,1.036,0,0,0,.333.8A1.205,1.205,0,0,0,357.393,20.637Zm12.311-.215a1.61,1.61,0,0,0,1.182-.414,1.517,1.517,0,0,0,.408-1.155h3.395a4.018,4.018,0,0,1-1.37,3.137,5.1,5.1,0,0,1-3.529,1.225,5.158,5.158,0,0,1-4-1.59,6.264,6.264,0,0,1-1.461-4.4v-.15a7.08,7.08,0,0,1,.65-3.11,4.732,4.732,0,0,1,1.875-2.073,5.589,5.589,0,0,1,2.9-.725,5.03,5.03,0,0,1,3.6,1.257,4.458,4.458,0,0,1,1.332,3.405h-3.395a1.987,1.987,0,0,0-.44-1.386,1.52,1.52,0,0,0-1.182-.483q-1.407,0-1.644,1.794a12.656,12.656,0,0,0-.075,1.568,4.972,4.972,0,0,0,.419,2.428A1.45,1.45,0,0,0,369.7,20.422ZM380.037,23h-3.631V11.377h3.631ZM376.191,8.38a1.616,1.616,0,0,1,.559-1.268,2.375,2.375,0,0,1,2.9,0,1.616,1.616,0,0,1,.559,1.268,1.616,1.616,0,0,1-.559,1.268,2.375,2.375,0,0,1-2.9,0A1.616,1.616,0,0,1,376.191,8.38Zm5.618,8.7a6.86,6.86,0,0,1,.677-3.1,4.84,4.84,0,0,1,1.944-2.089,5.856,5.856,0,0,1,2.976-.73,5.344,5.344,0,0,1,4.114,1.617,6.2,6.2,0,0,1,1.5,4.4v.129a6.019,6.019,0,0,1-1.509,4.313,5.359,5.359,0,0,1-4.087,1.6,5.42,5.42,0,0,1-3.985-1.488,5.819,5.819,0,0,1-1.622-4.034Zm3.62.226a4.325,4.325,0,0,0,.5,2.363,1.682,1.682,0,0,0,1.493.752q1.934,0,1.977-2.976v-.365q0-3.126-2-3.126-1.815,0-1.966,2.7ZM387.9,6.5h3.824l-2.986,3.373-2.954-.005Zm10.044,4.877.118,1.364a3.942,3.942,0,0,1,3.319-1.579,3.316,3.316,0,0,1,2.712,1.085,5.165,5.165,0,0,1,.929,3.266V23h-3.631V15.663a1.961,1.961,0,0,0-.354-1.294,1.64,1.64,0,0,0-1.289-.414,1.726,1.726,0,0,0-1.579.838V23h-3.62V11.377Z" transform="translate(187 4610.581)" fill="#12263f"/>
    <g id="Grupo_870151" data-name="Grupo 870151" transform="translate(612.723 4586.107)">
      <g id="Grupo_870150" data-name="Grupo 870150" clip-path="url(#clip-path)">
        <path id="Trazado_605344" data-name="Trazado 605344" d="M.371,75.176a1.449,1.449,0,0,0,1.74.156c2.661-1.193,5.317-2.4,7.978-3.59,3.432-1.54,6.877-3.05,10.286-4.639a2.613,2.613,0,0,1,2.4.014c5.95,2.717,11.936,5.357,17.884,8.079a2.735,2.735,0,0,0,2.484,0c6.066-2.79,12.183-5.471,18.256-8.249a2.151,2.151,0,0,1,1.949.137c2.918,1.352,5.865,2.642,8.8,3.962q4.809,2.166,9.625,4.316a1.26,1.26,0,0,0,1.391.006c.459-.356.409-.846.318-1.347Q81.633,63.8,79.783,53.578c-.3-1.637-.642-3.265-.873-4.911a2.6,2.6,0,0,0-1.485-2.377h0c-.97.534-1.1.815-.9,1.906q.926,5.06,1.841,10.122c.034.185.039.375.082.806l-15.924-18.5c1.567-.356,3.028-.693,4.491-1.02q2.868-.64,5.738-1.267a2.048,2.048,0,0,1,2.231,1.454c.169.91.326,1.822.5,2.731.2,1.032.488,1.295,1.524,1.408a2.954,2.954,0,0,0,.472-3.011,19.972,19.972,0,0,1-.38-2.092,2.34,2.34,0,0,0-1.4-1.861c-2.354-1.263-4.676-2.587-7.014-3.88-2.768-1.531-5.526-3.078-8.3-4.6a1.855,1.855,0,0,0-2.073.033,10.15,10.15,0,0,1-1.681.841c-.153.062-.335.139-.479.023l-.11.057.056-.111a.485.485,0,0,1,0-.461,5.265,5.265,0,0,1,.307-.668,22.4,22.4,0,0,0,2.527-9.819A16.59,16.59,0,0,0,54.5,6.742,16.168,16.168,0,0,0,44.453,1.4,16.526,16.526,0,0,0,30.2,5.992a16.413,16.413,0,0,0-5.019,9.868A20.355,20.355,0,0,0,26.4,25.572a25.705,25.705,0,0,0,1.355,3.066c.115.228.279.5.078.731l.074.161-.161-.084c-.221.146-.473-.013-.691-.114a12.212,12.212,0,0,1-1.6-.825,1.771,1.771,0,0,0-2-.051c-3.319,1.829-6.627,3.679-9.941,5.518Q10.655,35.561,7.8,37.16a2.035,2.035,0,0,0-1.078,1.529c-1.151,6.249-2.272,12.5-3.4,18.756-.3,1.664-.576,3.333-.92,4.988-.212,1.02-.392,2.013.5,2.816,1.028-.04,1.335-.331,1.527-1.4.391-2.17.8-4.337,1.164-6.512A1.513,1.513,0,0,1,6.5,56.132c4.868-2.546,9.721-5.122,14.578-7.689.141-.074.287-.139.52-.251a30.259,30.259,0,0,1-.22,3.834c-.284,3.97-.614,7.936-.912,11.9-.032.427-.066.75-.544.963q-8.384,3.728-16.749,7.5a1.743,1.743,0,0,1-.281.049c.172-.959.336-1.879.5-2.8.2-1.1.043-1.47-.867-1.931-1.05.309-1.332,1.128-1.459,2.1C.92,70.94.694,72.058.453,73.171c-.062.284,0,.683-.453.75v1.146a.363.363,0,0,1,.371.109M40.684,59.682l-.161.058L33.105,48.057c1.247.134,2.332.242,3.415.37,1.189.14,2.375.306,3.564.442.316.036.6.037.6.471q-.006,5.171,0,10.342m2.968,12.8c-.4.188-.525.122-.521-.321.013-1.55,0-3.1,0-4.492l3.727,3.367c-1.184.53-2.206.97-3.211,1.446m34.234-1.315L71.278,68.2q-3.648-1.638-7.3-3.275c-.328-.147-.607-.27-.639-.729-.261-3.722-.551-7.441-.827-11.162a.518.518,0,0,1,.124-.527L78,71.038l-.115.125M66.93,49.507q5.817,6.757,11.641,13.507a4.014,4.014,0,0,1,1.042,2.145c.23,1.613.571,3.211.874,4.864a3.049,3.049,0,0,1-.861-.893Q71.112,58.872,62.6,48.611a2.319,2.319,0,0,1-.576-1.472c-.046-1.128-.149-2.253-.243-3.6,1.814,2.1,3.483,4.034,5.148,5.968m.642-14.5a21.427,21.427,0,0,0,2.455,1.407l-6.666,1.494c-.079.018-.162.024-.241.042-1.817.41-1.817.41-1.906-1.416-.084-1.735-.052-1.636,1.579-2.169a4.8,4.8,0,0,1,4.779.643m-6.688-3.7L62,31.94a1.035,1.035,0,0,1-1.022.281c-.24-.092-.113-.518-.1-.908M59.762,49.6Q60.3,56.65,60.88,63.692a1.214,1.214,0,0,1-.858,1.456c-3.423,1.47-6.813,3.016-10.2,4.567a.8.8,0,0,1-1.106-.2q-2.551-2.706-5.166-5.352a1.4,1.4,0,0,1-.412-1.091c.014-2.289.007-4.578.006-6.867s.014-4.578-.011-6.867a.885.885,0,0,1,.624-.974q4.542-1.931,9.053-3.932a.922.922,0,0,1,1.1.139C55.7,46,57.507,47.4,59.32,48.8a1.014,1.014,0,0,1,.442.805m-.994-13.143c.159,2.557.386,5.109.584,7.663.038.487.058.976.086,1.46-.306.1-.42-.144-.574-.263-1.3-1-2.621-1.962-3.857-3.029a2.158,2.158,0,0,0-2.655-.357c-2.758,1.289-5.574,2.453-8.368,3.665-.246.107-.5.2-.757.3a1.532,1.532,0,0,1,.645-1.925,5.684,5.684,0,0,0,1.171-1.017,14.629,14.629,0,0,1,5.984-3.95c2.353-.92,4.643-2,6.946-3.047.612-.278.753-.173.794.5m-.92-5.184c.391-.212.5-.1.551.313.18,1.44.193,1.437-1.162,2.029q-2.35,1.027-4.7,2.054c-.238.1-.484.19-.845.331a7.623,7.623,0,0,1,3.48-3.345,23.792,23.792,0,0,0,2.675-1.382m-30.36-15.6c1.121-5.908,4.655-9.766,10.337-11.62a12.555,12.555,0,0,1,6.691-.338A12.892,12.892,0,0,1,51.2,6.711a14.342,14.342,0,0,1,5.46,12.26,23.276,23.276,0,0,1-4.04,11.4A54.794,54.794,0,0,1,42.487,41.958c-.37.33-.646.418-1,.014-.23-.264-.5-.494-.753-.739a39.644,39.644,0,0,1-4.63-4.6,40.054,40.054,0,0,1-6.824-10.021c-1.578-3.484-2.523-7.1-1.795-10.935M24.964,37.449q.258-2.844.416-5.7c.035-.608.214-.729.71-.39a.562.562,0,0,0,.145.075c3.753,1.195,5.926,4.23,8.256,7.084.239.293.491.574.858,1-3.39-.492-6.616-.969-9.845-1.417-.448-.062-.585-.177-.541-.657m-.589,7.571c.13-1.3.249-2.6.305-3.91.023-.531.192-.63.678-.557,2.8.422,5.6.82,8.4,1.226a25.722,25.722,0,0,0,2.587.357,5.141,5.141,0,0,1,3.395,1.491,2.5,2.5,0,0,1,.938,2.251c-.037.5-.2.583-.639.527-2.89-.365-5.783-.712-8.675-1.066-.081-.01-.162-.022-.243-.034a1.349,1.349,0,0,0-1.5.574,1.334,1.334,0,0,0,.151,1.524Q32.6,51.848,35.422,56.3q2.449,3.862,4.9,7.722a1.5,1.5,0,0,1,.34.813q0,2.686,0,5.372l-.162.039-7.36-11.183q-4.2-6.379-8.4-12.753a1.871,1.871,0,0,1-.359-1.289M24,50.159a2.221,2.221,0,0,1,.109-.351L38.4,71.531l-.092.116-6.077-2.725q-4.387-1.969-8.775-3.935c-.333-.149-.608-.251-.569-.737.383-4.7.74-9.394,1.107-14.091M8.854,39.392a.679.679,0,0,1,.4-.479l13.724-7.635c-.187,2.341-.366,4.509-.528,6.679a.62.62,0,0,1-.394.552q-7.078,3.718-14.153,7.443a.836.836,0,0,1-.224.025c.394-2.207.785-4.4,1.172-6.584M21.56,45.41,6.324,53.457c.261-1.461.495-2.741.714-4.024.044-.26.229-.35.421-.452q7.217-3.805,14.435-7.607a.96.96,0,0,1,.293-.028c-.089,1.212-.184,2.4-.255,3.588-.016.272-.179.373-.372.476" transform="translate(0 -0.968)"/>
        <path id="Trazado_605345" data-name="Trazado 605345" d="M.453,330.81c.241-1.113.467-2.231.613-3.36.126-.974.409-1.792,1.459-2.1l-.069-.035c-1.009.121-1.268.4-1.479,1.409A42.488,42.488,0,0,1,0,331.56c.449-.067.391-.466.453-.75" transform="translate(0 -258.607)"/>
        <path id="Trazado_605346" data-name="Trazado 605346" d="M274.362,132.812a10.147,10.147,0,0,0,1.681-.841,1.855,1.855,0,0,1,2.073-.033c2.771,1.525,5.53,3.072,8.3,4.6,2.338,1.293,4.66,2.617,7.014,3.88a2.341,2.341,0,0,1,1.4,1.861,19.919,19.919,0,0,0,.38,2.092,2.955,2.955,0,0,1-.472,3.011l.049.006a1.443,1.443,0,0,0,.866-1.792c-.246-1.172-.481-2.349-.638-3.536a2.051,2.051,0,0,0-1.16-1.644q-7.925-4.385-15.832-8.8a1.655,1.655,0,0,0-1.767-.012c-.729.407-1.482.776-2.369,1.232.145.116.326.039.479-.023" transform="translate(-217.723 -104.419)"/>
        <path id="Trazado_605347" data-name="Trazado 605347" d="M123.871,27.67a25.705,25.705,0,0,1-1.355-3.066,20.354,20.354,0,0,1-1.219-9.712,16.414,16.414,0,0,1,5.019-9.868A16.526,16.526,0,0,1,140.573.432a16.168,16.168,0,0,1,10.049,5.342,16.589,16.589,0,0,1,4.44,11.639,22.4,22.4,0,0,1-2.527,9.819,5.276,5.276,0,0,0-.307.668.485.485,0,0,0,0,.461,33.69,33.69,0,0,0,1.74-3.937c1.662-4.685,1.95-9.392-.091-14.02A17.1,17.1,0,0,0,128.7,2.849,16.519,16.519,0,0,0,120.962,16.1a21.021,21.021,0,0,0,1.931,10c.316.732.662,1.453,1.056,2.305.2-.229.038-.5-.078-.731" transform="translate(-96.12 0)"/>
        <path id="Trazado_605348" data-name="Trazado 605348" d="M9.95,165.817c.344-1.655.62-3.324.92-4.988,1.128-6.253,2.249-12.507,3.4-18.756a2.035,2.035,0,0,1,1.078-1.529q2.852-1.6,5.716-3.186c3.314-1.839,6.622-3.688,9.941-5.518a1.772,1.772,0,0,1,2,.051,12.264,12.264,0,0,0,1.6.825c.218.1.469.26.691.114-.962-.5-1.787-.917-2.6-1.355a1.5,1.5,0,0,0-1.551.019q-8.051,4.493-16.109,8.974a1.778,1.778,0,0,0-.944,1.337Q11.827,154.3,9.545,166.8a1.491,1.491,0,0,0,.8,1.84l.1,0c-.889-.8-.709-1.8-.5-2.816" transform="translate(-7.548 -104.352)"/>
        <path id="Trazado_605349" data-name="Trazado 605349" d="M2.252,250.235q9.331-4.192,18.655-8.4a1.416,1.416,0,0,1,1.3,0c6.213,2.812,12.439,5.594,18.65,8.411a2.31,2.31,0,0,0,2.086,0c6.211-2.817,12.437-5.6,18.651-8.409a1.415,1.415,0,0,1,1.3.008q9.434,4.26,18.88,8.494a1.365,1.365,0,0,0,1.531-.023,1.4,1.4,0,0,0,.415-1.549c-.376-1.951-.713-3.909-1.069-5.864q-1.861-10.243-3.713-20.487a1.45,1.45,0,0,0-1.507-1.391A2.6,2.6,0,0,1,78.91,223.4c.231,1.646.578,3.274.873,4.911q1.844,10.221,3.694,20.441c.09.5.141.991-.318,1.347a1.26,1.26,0,0,1-1.391-.006q-4.821-2.139-9.625-4.316c-2.932-1.321-5.879-2.611-8.8-3.962a2.152,2.152,0,0,0-1.949-.137c-6.072,2.778-12.189,5.458-18.256,8.248a2.734,2.734,0,0,1-2.484,0c-5.948-2.722-11.933-5.362-17.884-8.079a2.613,2.613,0,0,0-2.4-.014c-3.409,1.59-6.854,3.1-10.286,4.639-2.661,1.194-5.317,2.4-7.978,3.59a1.45,1.45,0,0,1-1.74-.156A.363.363,0,0,0,0,249.8c.772.878,1.113.947,2.252.436" transform="translate(0 -175.701)"/>
        <path id="Trazado_605350" data-name="Trazado 605350" d="M13.467,253.125a9.705,9.705,0,0,1-.28,2.02,3.343,3.343,0,0,0-.083,1.04,20.2,20.2,0,0,0,3.177-1.321q6.37-2.882,12.759-5.72a1.523,1.523,0,0,0,1.049-1.449c.258-3.2.446-6.407.755-9.6.146-1.516.2-3.041.347-4.559.065-.686-.061-.751-.652-.445-4.554,2.35-9.045,4.819-13.612,7.144a2.393,2.393,0,0,0-1.4,1.939c-.3,1.94-.667,3.869-1.046,5.795a3.066,3.066,0,0,1-.286.935,1.133,1.133,0,0,1-1.431.579,4.634,4.634,0,0,1-.409,2.4,1.171,1.171,0,0,1,1.11,1.25" transform="translate(-9.823 -185.152)" fill="#a7edfb"/>
        <path id="Trazado_605351" data-name="Trazado 605351" d="M12.053,315.941a4.63,4.63,0,0,0,.409-2.4c-.047-.013-.092-.024-.141-.041.036.829-.313,1.6-.346,2.422h0c.028,0,.051.011.078.016" transform="translate(-9.519 -249.218)" fill="#a7edfb"/>
        <path id="Trazado_605352" data-name="Trazado 605352" d="M12.729,247.4a1.133,1.133,0,0,0,1.431-.579,3.063,3.063,0,0,0,.286-.934c.379-1.926.75-3.855,1.046-5.795a2.393,2.393,0,0,1,1.4-1.939c4.566-2.326,9.058-4.794,13.612-7.144.591-.305.717-.241.652.445-.143,1.518-.2,3.043-.347,4.559-.308,3.2-.5,6.4-.755,9.6A1.523,1.523,0,0,1,29,247.069q-6.383,2.852-12.759,5.72a20.2,20.2,0,0,1-3.177,1.321,3.337,3.337,0,0,1,.083-1.04,9.707,9.707,0,0,0,.28-2.02,1.171,1.171,0,0,0-1.11-1.25l-.007.018h0c.91.462,1.068.83.867,1.932-.168.919-.331,1.839-.5,2.8a1.746,1.746,0,0,0,.281-.049q8.373-3.752,16.749-7.5c.477-.212.512-.536.544-.963.3-3.969.628-7.935.912-11.9a30.3,30.3,0,0,0,.22-3.834c-.233.112-.379.176-.52.251-4.857,2.567-9.71,5.143-14.578,7.689a1.513,1.513,0,0,0-.906,1.209c-.362,2.175-.772,4.342-1.164,6.512-.192,1.065-.5,1.355-1.527,1.4.015.014.028.027.043.041v0" transform="translate(-9.787 -183.078)" fill="#a7edfb"/>
        <path id="Trazado_605353" data-name="Trazado 605353" d="M13.8,313.525c-.016-.013-.028-.027-.043-.041l-.1,0c.049.017.094.027.141.041v0" transform="translate(-10.861 -249.203)" fill="#a7edfb"/>
        <path id="Trazado_605354" data-name="Trazado 605354" d="M12.044,325.348h0l.007-.018c-.027,0-.05-.012-.078-.016l.069.035" transform="translate(-9.519 -258.607)" fill="#a7edfb"/>
        <path id="Trazado_605355" data-name="Trazado 605355" d="M321.451,188.728c.02-.019.037-.039.056-.058a1.043,1.043,0,0,1-1.376-.578,4.826,4.826,0,0,1-.474-1.641c-.1-.564-.188-1.129-.311-1.689a1.769,1.769,0,0,0-2.161-1.467c-3.069.638-6.12,1.355-9.183,2.021-.734.16-.269.492-.075.717,1.438,1.673,2.89,3.335,4.325,5.012,2.87,3.353,5.768,6.681,8.629,10.041.611.717,1.23,1.431,1.832,2.1-.424-2.025-.736-4.1-1.126-6.16-.273-1.446-.555-2.891-.779-4.346-.157-1.021.194-1.515,1.143-1.682h0c-.032-.013-.063-.028-.1-.04a6.112,6.112,0,0,1-.4-2.227" transform="translate(-244.527 -145.674)" fill="#7de4f1"/>
        <path id="Trazado_605356" data-name="Trazado 605356" d="M375.181,209.583c-.019.019-.036.039-.056.058a6.114,6.114,0,0,0,.4,2.227c.034.012.065.027.1.04q-.182-1.175-.363-2.35c-.027.011-.052.016-.079.025" transform="translate(-298.201 -166.588)" fill="#7de4f1"/>
        <path id="Trazado_605357" data-name="Trazado 605357" d="M318.68,191.764c.224,1.455.506,2.9.779,4.346.39,2.06.7,4.135,1.126,6.16-.6-.667-1.221-1.381-1.832-2.1-2.862-3.359-5.759-6.688-8.629-10.041-1.435-1.676-2.887-3.338-4.325-5.012-.194-.226-.659-.558.075-.717,3.063-.666,6.114-1.382,9.183-2.021a1.769,1.769,0,0,1,2.162,1.467c.123.559.212,1.125.311,1.688a4.828,4.828,0,0,0,.474,1.641,1.043,1.043,0,0,0,1.376.579l.03-.031c-1.036-.113-1.324-.375-1.523-1.408-.176-.908-.333-1.821-.5-2.731a2.048,2.048,0,0,0-2.231-1.454q-2.869.631-5.738,1.267c-1.463.327-2.924.664-4.491,1.02l15.924,18.5c-.043-.431-.048-.621-.082-.806q-.917-5.062-1.841-10.122c-.2-1.091-.074-1.372.9-1.906-.948.167-1.3.661-1.143,1.682" transform="translate(-242.399 -144.76)" fill="#7de4f1"/>
        <path id="Trazado_605358" data-name="Trazado 605358" d="M375.449,209.53l-.03.031c.026-.009.051-.015.079-.025l-.049-.006" transform="translate(-298.438 -166.565)" fill="#7de4f1"/>
        <path id="Trazado_605359" data-name="Trazado 605359" d="M141.7,45.154a39.647,39.647,0,0,0,4.63,4.6c.8-.84,1.6-1.683,2.408-2.518a42.621,42.621,0,0,0,8.15-11.428,20.42,20.42,0,0,0,2.2-10.165,15.55,15.55,0,0,0-4.052-9.561,20.743,20.743,0,0,0-4.927-3.844,12.557,12.557,0,0,0-6.691.338c-5.682,1.854-9.216,5.712-10.337,11.62-.728,3.838.217,7.452,1.795,10.935A40.05,40.05,0,0,0,141.7,45.154m.21-23.489A1.269,1.269,0,0,1,144,21.49h0a6.22,6.22,0,0,1,2.323-1.047c.218-1.091.614-1.4,1.674-1.317a7.581,7.581,0,1,1-7.915,8.665,7.551,7.551,0,0,1,1.826-6.127" transform="translate(-105.593 -9.489)" fill="#fe4a4a"/>
        <path id="Trazado_605360" data-name="Trazado 605360" d="M221.129,211.662a.922.922,0,0,0-1.1-.14q-4.513,2-9.053,3.932a.885.885,0,0,0-.624.974c.025,2.289.011,4.578.011,6.867s.007,4.578-.007,6.867a1.4,1.4,0,0,0,.412,1.091q2.608,2.651,5.166,5.352a.8.8,0,0,0,1.106.2c3.387-1.551,6.778-3.1,10.2-4.567a1.214,1.214,0,0,0,.858-1.456q-.591-7.041-1.118-14.088a1.015,1.015,0,0,0-.442-.805c-1.813-1.395-3.622-2.8-5.411-4.223" transform="translate(-167.22 -168.054)" fill="#4ce066"/>
        <path id="Trazado_605361" data-name="Trazado 605361" d="M127.6,211.473l7.36,11.183.162-.039q0-2.686,0-5.372a1.505,1.505,0,0,0-.34-.813q-2.453-3.859-4.9-7.722-2.821-4.448-5.644-8.895a1.334,1.334,0,0,1-.151-1.524,1.348,1.348,0,0,1,1.5-.574c.081.011.162.024.243.034,2.892.353,5.785.7,8.675,1.066.442.056.6-.028.639-.527a2.5,2.5,0,0,0-.938-2.251,5.142,5.142,0,0,0-3.395-1.491,25.735,25.735,0,0,1-2.587-.357c-2.8-.406-5.6-.8-8.4-1.226-.486-.073-.655.026-.678.557-.056,1.306-.175,2.609-.305,3.91a1.87,1.87,0,0,0,.36,1.289q4.214,6.369,8.4,12.753" transform="translate(-94.459 -153.38)" fill="#feba24"/>
        <path id="Trazado_605362" data-name="Trazado 605362" d="M112.182,253.361q4.391,1.961,8.775,3.935l6.078,2.725.092-.116-14.3-21.723a2.252,2.252,0,0,0-.109.351c-.367,4.7-.724,9.4-1.107,14.091-.04.486.236.588.569.737" transform="translate(-88.724 -189.342)" fill="#7de4f1"/>
        <path id="Trazado_605363" data-name="Trazado 605363" d="M211.623,28.94a23.692,23.692,0,0,1-3.471,10.551,44.945,44.945,0,0,1-7.227,9.359c-.726.723-1.24,1.677-2.264,2.076.252.245.522.474.753.739.352.4.628.316,1-.014a54.788,54.788,0,0,0,10.131-11.587,23.276,23.276,0,0,0,4.04-11.4,14.342,14.342,0,0,0-5.46-12.26,12.89,12.89,0,0,0-6.683-2.993,9.4,9.4,0,0,1,3.211,1.907,15.947,15.947,0,0,1,5.972,13.623" transform="translate(-157.925 -10.66)" fill="#e6343f"/>
        <path id="Trazado_605364" data-name="Trazado 605364" d="M207.367,17.255a15.551,15.551,0,0,1,4.052,9.561,20.419,20.419,0,0,1-2.2,10.165,42.626,42.626,0,0,1-8.15,11.428c-.807.835-1.606,1.678-2.408,2.518,1.024-.4,1.538-1.352,2.264-2.076a44.949,44.949,0,0,0,7.227-9.359,23.691,23.691,0,0,0,3.471-10.551,15.947,15.947,0,0,0-5.972-13.623,9.4,9.4,0,0,0-3.211-1.907,20.743,20.743,0,0,1,4.927,3.844" transform="translate(-157.925 -10.661)" fill="#e6343f"/>
        <path id="Trazado_605365" data-name="Trazado 605365" d="M51.84,155.048a.62.62,0,0,0,.394-.552c.162-2.169.341-4.337.528-6.679l-13.724,7.635a.679.679,0,0,0-.4.479c-.387,2.189-.778,4.377-1.172,6.585a.842.842,0,0,0,.224-.026q7.077-3.72,14.153-7.443" transform="translate(-29.781 -117.507)" fill="#4ce066"/>
        <path id="Trazado_605366" data-name="Trazado 605366" d="M304.787,251.854c.276,3.72.566,7.44.827,11.162.032.459.311.582.639.729q3.65,1.634,7.3,3.275l6.609,2.968.115-.125-15.363-18.535a.518.518,0,0,0-.124.527" transform="translate(-242.273 -199.792)" fill="#44c768"/>
        <path id="Trazado_605367" data-name="Trazado 605367" d="M301.543,211.208a2.319,2.319,0,0,0,.576,1.472q8.524,10.249,17.025,20.519a3.056,3.056,0,0,0,.861.893c-.3-1.653-.644-3.251-.874-4.864a4.013,4.013,0,0,0-1.042-2.145q-5.843-6.734-11.641-13.507c-1.665-1.934-3.333-3.865-5.147-5.968.095,1.348.2,2.473.243,3.6" transform="translate(-239.518 -165.037)" fill="#feba24"/>
        <path id="Trazado_605368" data-name="Trazado 605368" d="M225.157,170.1c-2.3,1.045-4.593,2.127-6.946,3.047a14.632,14.632,0,0,0-5.984,3.95,5.681,5.681,0,0,1-1.171,1.017,1.532,1.532,0,0,0-.645,1.925c.259-.1.511-.193.757-.3,2.794-1.212,5.609-2.377,8.368-3.665a2.158,2.158,0,0,1,2.655.357c1.236,1.067,2.562,2.032,3.857,3.029.154.119.268.36.574.263-.028-.484-.049-.973-.086-1.46-.2-2.554-.426-5.107-.585-7.663-.042-.673-.182-.778-.794-.5" transform="translate(-167.183 -135.108)" fill="#feda56"/>
        <path id="Trazado_605369" data-name="Trazado 605369" d="M46.447,200.507c.071-1.189.167-2.377.255-3.588a.968.968,0,0,0-.293.028q-7.22,3.8-14.435,7.607c-.193.1-.377.192-.421.452-.219,1.283-.453,2.563-.714,4.024l15.237-8.047c.193-.1.356-.2.372-.475" transform="translate(-24.515 -156.54)" fill="#feda56"/>
        <path id="Trazado_605370" data-name="Trazado 605370" d="M122.256,154.248c3.229.447,6.455.925,9.845,1.417-.367-.428-.619-.71-.858-1-2.33-2.854-4.5-5.889-8.256-7.084a.572.572,0,0,1-.145-.075c-.5-.339-.676-.218-.71.39q-.162,2.852-.416,5.7c-.043.48.093.595.541.657" transform="translate(-96.75 -117.11)" fill="#44c768"/>
        <path id="Trazado_605371" data-name="Trazado 605371" d="M168.427,230.456c-1.189-.136-2.375-.3-3.564-.442-1.083-.127-2.168-.235-3.415-.37l7.418,11.683.161-.058q0-5.171,0-10.342c0-.435-.286-.435-.6-.472" transform="translate(-128.343 -182.556)" fill="#44c767"/>
        <path id="Trazado_605372" data-name="Trazado 605372" d="M298.43,163.693c.089,1.827.089,1.826,1.906,1.417.079-.018.161-.024.241-.042l6.666-1.494a21.483,21.483,0,0,1-2.455-1.407,4.8,4.8,0,0,0-4.779-.643c-1.631.533-1.663.435-1.579,2.169" transform="translate(-237.216 -128.125)" fill="#feba24"/>
        <path id="Trazado_605373" data-name="Trazado 605373" d="M252.094,152.134c.361-.141.607-.227.845-.331q2.351-1.024,4.7-2.054c1.355-.592,1.342-.59,1.161-2.029-.052-.417-.16-.525-.551-.313a23.76,23.76,0,0,1-2.675,1.382,7.624,7.624,0,0,0-3.48,3.345" transform="translate(-200.402 -117.096)" fill="#4bdf65"/>
        <path id="Trazado_605374" data-name="Trazado 605374" d="M210.342,329.758c0,.444.124.51.521.321,1.005-.476,2.028-.916,3.211-1.446l-3.728-3.367c0,1.392.008,2.942,0,4.492" transform="translate(-167.211 -258.569)" fill="#fdda55"/>
        <path id="Trazado_605375" data-name="Trazado 605375" d="M296.836,148.894a1.035,1.035,0,0,0,1.022-.281l-1.12-.627c-.015.389-.142.815.1.908" transform="translate(-235.854 -117.641)" fill="#3eb75f"/>
        <path id="Trazado_605376" data-name="Trazado 605376" d="M178.532,61.429a7.583,7.583,0,0,0-2.7-14.483c-1.061-.086-1.457.226-1.674,1.317.215.867.841,1.08,1.653,1.154a5.117,5.117,0,0,1,.987,10.03,5.168,5.168,0,0,1-5.665-2.078,5.1,5.1,0,0,1,.207-5.956c.5-.634,1.052-1.231.495-2.1h0a1.269,1.269,0,0,0-2.091.174,7.584,7.584,0,0,0,8.79,11.944" transform="translate(-133.427 -37.309)"/>
        <path id="Trazado_605377" data-name="Trazado 605377" d="M182.169,56.251a6.462,6.462,0,0,0-1.25,2.449,4.9,4.9,0,1,0,5.262-3.929,2.765,2.765,0,0,1-.806-.113c-.537-.232-1.068-.485-.894-1.237a6.214,6.214,0,0,0-2.323,1.047c.544.55.555,1,.011,1.782" transform="translate(-143.751 -42.468)" fill="#fefefe"/>
        <path id="Trazado_605378" data-name="Trazado 605378" d="M180.759,56.572a5.1,5.1,0,0,0-.207,5.956,5.138,5.138,0,0,0,9.394-3.149,5.108,5.108,0,0,0-4.717-4.8c-.812-.074-1.437-.287-1.653-1.154-.174.753.357,1.005.894,1.237a2.761,2.761,0,0,0,.806.113,4.917,4.917,0,1,1-5.263,3.929,6.465,6.465,0,0,1,1.25-2.449c.544-.784.533-1.232-.011-1.782.558.872,0,1.469-.495,2.1" transform="translate(-142.846 -42.468)" fill="#fefefe"/>
      </g>
    </g>
  </g>
</svg>
