<svg xmlns="http://www.w3.org/2000/svg" xmlns:xlink="http://www.w3.org/1999/xlink" width="360.028" height="74.859" viewBox="0 0 360.028 74.859">
  <defs>
    <clipPath id="clip-path">
      <rect id="Rectángulo_290878" data-name="Rectángulo 290878" width="74.901" height="74.859" fill="none"/>
    </clipPath>
  </defs>
  <g id="Grupo_874039" data-name="Grupo 874039" transform="translate(-180 -3701.107)">
    <path id="Trazado_605328" data-name="Trazado 605328" d="M0,0H328.5l-2.622,52.528L0,52Z" transform="translate(180 3712.581)" fill="#fff0a6"/>
    <text id="Métodos_de_zonificación" data-name="Métodos de zonificación" transform="translate(199 3725.581)" fill="#12263f" font-size="22" font-family="Roboto-Black, Roboto" font-weight="800"><tspan x="0" y="23">Métodos de zonificación</tspan></text>
    <g id="Grupo_870137" data-name="Grupo 870137" transform="translate(465.127 3701.107)">
      <g id="Grupo_870141" data-name="Grupo 870141" clip-path="url(#clip-path)">
        <path id="Trazado_605328-2" data-name="Trazado 605328" d="M66.672,52.4a59.973,59.973,0,0,0-16.606-4.2c-1.843-.237-1.845-.187-.849-1.71A63.441,63.441,0,0,0,57.059,31,28.678,28.678,0,0,0,58.47,18.327a21.215,21.215,0,0,0-40.7-5.016c-1.937,4.823-1.824,9.739-.817,14.707a46.691,46.691,0,0,0,5.879,14.4C23.934,44.291,25.136,46.1,26.4,48c-2.26.261-4.394.561-6.51.974A48.88,48.88,0,0,0,6.6,53.2a13.559,13.559,0,0,0-5.528,4.552,5.837,5.837,0,0,0-.014,6.732,11.241,11.241,0,0,0,3.327,3.238A33.957,33.957,0,0,0,14.65,72.064a83.79,83.79,0,0,0,18.535,2.7A90.591,90.591,0,0,0,59.767,72.2a33.82,33.82,0,0,0,10.847-4.541,9.582,9.582,0,0,0,3.849-4.38c1.055-2.753.109-5.029-1.813-7.014A18.292,18.292,0,0,0,66.672,52.4M24.678,40.618a43.227,43.227,0,0,1-5.4-13.689c-.937-4.99-.82-9.859,1.632-14.484a18.742,18.742,0,0,1,35.267,8.93,35.142,35.142,0,0,1-3.981,15A109.392,109.392,0,0,1,42.56,51.727q-2.377,3.33-4.743,6.668c-.184.258-.31.669-.693.132-4.225-5.917-8.789-11.6-12.445-17.909m18.96,14.469a66.755,66.755,0,0,1,11.7,1.729c.125.032.244.087.367.132A16.921,16.921,0,0,1,59.2,58.2a7.608,7.608,0,0,1,1.2.714c1,.731,1.009,1.276-.006,1.978A15.285,15.285,0,0,1,55.455,62.9a51.084,51.084,0,0,1-10.981,1.668,30.309,30.309,0,0,1-4.507.282A84.508,84.508,0,0,1,23.5,63.79,30.986,30.986,0,0,1,15.74,61.6a8.221,8.221,0,0,1-1.15-.649c-1.093-.738-1.1-1.306-.046-2.074a8.843,8.843,0,0,1,1.921-1.015,38.208,38.208,0,0,1,9.054-2.181c1.776-.25,3.561-.4,5.348-.55a.983.983,0,0,1,1.033.452c1.368,1.927,2.776,3.826,4.154,5.746,1.026,1.429,1.795,1.433,2.784.009,1.348-1.94,2.714-3.869,4.069-5.8.181-.258.333-.475.732-.445m27.781,8.625a11.646,11.646,0,0,1-3.99,3.056,45.075,45.075,0,0,1-12.035,3.866,91.855,91.855,0,0,1-20.377,1.708A94.727,94.727,0,0,1,21.08,70.937a.908.908,0,0,1-.209-.1h0c-5.236-.9-10.354-2.174-14.95-4.988a8.235,8.235,0,0,1-2.752-2.6,3.638,3.638,0,0,1,.09-4.3,9.617,9.617,0,0,1,2.994-2.684A35.7,35.7,0,0,1,16.5,52.274,79.9,79.9,0,0,1,27.458,50.4a.88.88,0,0,1,.969.435c.387.606.831,1.174,1.308,1.838-1.864.231-3.633.415-5.389.677a36.5,36.5,0,0,0-9.094,2.317,8.983,8.983,0,0,0-2.88,1.818,3.132,3.132,0,0,0,.055,4.858A10.993,10.993,0,0,0,16.4,64.582a45.027,45.027,0,0,0,10.091,2.173,103.953,103.953,0,0,0,10.8.648c3.243-.043,6.483-.148,9.709-.492A43.15,43.15,0,0,0,59.765,64.07a8.348,8.348,0,0,0,2.9-1.92,3.093,3.093,0,0,0-.085-4.634,11.123,11.123,0,0,0-4.229-2.389c-.167-.062-.328-.139-.492-.209a55.812,55.812,0,0,0-8.906-1.809c-1.288-.155-2.579-.282-3.991-.435.522-.741,1.014-1.427,1.49-2.122.171-.249.4-.2.629-.174a70.851,70.851,0,0,1,12.994,2.359A30.569,30.569,0,0,1,69,56.477a9.244,9.244,0,0,1,2.527,2.292,3.765,3.765,0,0,1-.109,4.944" transform="translate(0 0)"/>
        <path id="Trazado_605329" data-name="Trazado 605329" d="M108.946,67.734q2.373-3.333,4.743-6.668a109.393,109.393,0,0,0,9.636-15.356,35.145,35.145,0,0,0,3.981-15,18.719,18.719,0,0,0-35.267-8.93c-2.452,4.625-2.569,9.494-1.632,14.484a43.239,43.239,0,0,0,5.4,13.689c3.656,6.312,8.22,11.992,12.445,17.909.384.537.51.126.693-.132M92.361,30.527a16.223,16.223,0,1,1,16.186,16.239A16.248,16.248,0,0,1,92.361,30.527" transform="translate(-71.13 -9.338)" fill="#ea4f53"/>
        <path id="Trazado_605330" data-name="Trazado 605330" d="M148.238,256.7a30.564,30.564,0,0,0-8.929-3.739c.019.1.087.243.049.28-.711.686-1.262,1.565-2.266,1.9.164.07.325.147.492.209a11.126,11.126,0,0,1,4.229,2.389,3.093,3.093,0,0,1,.085,4.634,8.347,8.347,0,0,1-2.9,1.92,43.137,43.137,0,0,1-12.765,2.841c-3.226.344-6.467.449-9.709.492a16.194,16.194,0,0,1-3.5,1.206A60.313,60.313,0,0,1,103.8,270.7c-1.222.17-2.471.127-3.69.366h0a.906.906,0,0,0,.209.1,94.728,94.728,0,0,0,13.938,1.406,91.853,91.853,0,0,0,20.377-1.708,45.076,45.076,0,0,0,12.035-3.866,11.651,11.651,0,0,0,3.99-3.056,3.765,3.765,0,0,0,.109-4.944,9.24,9.24,0,0,0-2.526-2.292" transform="translate(-79.237 -200.223)" fill="#529ab4"/>
        <path id="Trazado_605331" data-name="Trazado 605331" d="M95.149,264.668c-1.355,1.936-2.721,3.864-4.069,5.8-.989,1.424-1.758,1.42-2.784-.009-1.378-1.92-2.785-3.819-4.153-5.746a.984.984,0,0,0-1.033-.452c-1.787.147-3.573.3-5.348.55A38.2,38.2,0,0,0,68.708,267a8.829,8.829,0,0,0-1.921,1.015c-1.055.768-1.047,1.336.046,2.074a8.236,8.236,0,0,0,1.151.649,30.986,30.986,0,0,0,7.762,2.192,84.508,84.508,0,0,0,16.464,1.06,30.308,30.308,0,0,0,4.507-.282,11.309,11.309,0,0,1,2.525-1.471,70.479,70.479,0,0,0,8.18-5.579,4.408,4.408,0,0,0,.52-.571c-.122-.044-.241-.1-.367-.132a66.769,66.769,0,0,0-11.7-1.729c-.4-.03-.551.187-.732.445" transform="translate(-52.244 -209.135)" fill="#d8d8d6"/>
        <path id="Trazado_605332" data-name="Trazado 605332" d="M31.372,261.74a57.177,57.177,0,0,0,14.234-2.773c.4-.129.821-.122,1.209-.276a104.008,104.008,0,0,1-10.8-.648,45.027,45.027,0,0,1-10.091-2.173,10.987,10.987,0,0,1-3.967-2.245,3.132,3.132,0,0,1-.055-4.858,8.983,8.983,0,0,1,2.88-1.818,36.5,36.5,0,0,1,9.094-2.317c1.757-.261,3.525-.445,5.389-.677-.477-.663-.921-1.232-1.308-1.838a.881.881,0,0,0-.969-.435,79.933,79.933,0,0,0-10.958,1.879,35.709,35.709,0,0,0-10.248,3.994,9.617,9.617,0,0,0-2.994,2.684,3.638,3.638,0,0,0-.09,4.3,8.236,8.236,0,0,0,2.752,2.6c4.6,2.814,9.714,4.083,14.95,4.988a1.181,1.181,0,0,1,.976-.388" transform="translate(-9.526 -191.286)" fill="#5eb1cf"/>
        <path id="Trazado_605333" data-name="Trazado 605333" d="M103.8,326.378a60.3,60.3,0,0,0,9.229-1.865,16.2,16.2,0,0,0,3.5-1.206c-.389.154-.813.147-1.209.276a57.167,57.167,0,0,1-14.234,2.773,1.18,1.18,0,0,0-.976.388c1.219-.239,2.468-.2,3.69-.366" transform="translate(-79.237 -255.903)" fill="#5eb1cf"/>
        <path id="Trazado_605334" data-name="Trazado 605334" d="M224.092,273.906A62.361,62.361,0,0,1,214.8,280.1a16.083,16.083,0,0,1-1.476.681,51.084,51.084,0,0,0,10.981-1.668,15.284,15.284,0,0,0,4.946-2.013c1.014-.7,1-1.248.005-1.979a7.623,7.623,0,0,0-1.2-.714,16.938,16.938,0,0,0-3.5-1.247c.068.382-.223.563-.455.748" transform="translate(-168.848 -216.209)" fill="#bebebc"/>
        <path id="Trazado_605335" data-name="Trazado 605335" d="M224.028,273.729a70.5,70.5,0,0,1-8.18,5.579,11.309,11.309,0,0,0-2.525,1.471,16.111,16.111,0,0,0,1.475-.681,62.362,62.362,0,0,0,9.295-6.192c.232-.185.523-.366.455-.748a4.391,4.391,0,0,1-.52.571" transform="translate(-168.848 -216.209)" fill="#bebebc"/>
        <path id="Trazado_605336" data-name="Trazado 605336" d="M230.765,243.926a70.854,70.854,0,0,0-12.994-2.36c-.224-.023-.458-.074-.629.175-.477.7-.968,1.381-1.49,2.122,1.412.153,2.7.28,3.991.435a55.786,55.786,0,0,1,8.906,1.809,13.665,13.665,0,0,0,2.216-2.181" transform="translate(-170.692 -191.188)" fill="#5eb1cf"/>
        <path id="Trazado_605337" data-name="Trazado 605337" d="M279.779,253.241c.038-.037-.03-.184-.049-.28a13.665,13.665,0,0,1-2.216,2.181c1-.336,1.555-1.215,2.266-1.9" transform="translate(-219.657 -200.223)" fill="#5eb1cf"/>
        <path id="Trazado_605338" data-name="Trazado 605338" d="M134.283,40.1a16.223,16.223,0,1,0-16.259,16.247A16.251,16.251,0,0,0,134.283,40.1m-29.949-.031A13.727,13.727,0,1,1,118.006,53.85a13.747,13.747,0,0,1-13.672-13.782" transform="translate(-80.607 -18.917)"/>
        <path id="Trazado_605339" data-name="Trazado 605339" d="M141.263,49.65a13.727,13.727,0,1,0-13.781,13.675A13.749,13.749,0,0,0,141.263,49.65M131.827,53.3a1.458,1.458,0,0,0-.559,1.35c.035,1.559.018,3.119.01,4.679-.005,1.022-.458,1.487-1.463,1.493q-2.261.014-4.523,0c-1.051-.005-1.491-.462-1.5-1.537-.005-.806,0-1.612,0-2.418,0-.546-.04-1.1.009-1.637a2.227,2.227,0,0,0-.857-2.243,1.212,1.212,0,0,1-.4-1.053c.011-1.637-.009-3.275.011-4.912A3.514,3.514,0,0,1,123.9,44.25a.544.544,0,0,0,.192-.763,3.65,3.65,0,0,1,1.209-4.377,3.72,3.72,0,0,1,4.432-.024,3.644,3.644,0,0,1,1.252,4.365.6.6,0,0,0,.209.828,3.624,3.624,0,0,1,1.331,2.946c0,1.455-.029,2.912.011,4.366a1.887,1.887,0,0,1-.713,1.713" transform="translate(-90.082 -28.392)" fill="#d8d8d6"/>
        <path id="Trazado_605340" data-name="Trazado 605340" d="M165.677,56.7a3.623,3.623,0,0,0-1.331-2.946.6.6,0,0,1-.209-.828,3.644,3.644,0,0,0-1.252-4.365,3.72,3.72,0,0,0-4.433.024,3.649,3.649,0,0,0-1.208,4.377.544.544,0,0,1-.192.763A3.514,3.514,0,0,0,155.7,56.5c-.021,1.637,0,3.275-.011,4.913a1.211,1.211,0,0,0,.4,1.053,2.227,2.227,0,0,1,.857,2.243c-.049.541-.009,1.091-.009,1.637,0,.806,0,1.612,0,2.418.007,1.074.448,1.531,1.5,1.537q2.261.011,4.523,0c1.005-.006,1.458-.471,1.463-1.493.008-1.56.025-3.12-.01-4.679a1.457,1.457,0,0,1,.559-1.35,1.887,1.887,0,0,0,.713-1.713c-.039-1.455-.015-2.911-.011-4.367m-4.984-6.362a1.246,1.246,0,1,1-1.255,1.217,1.265,1.265,0,0,1,1.255-1.217M162.345,61.9a1.262,1.262,0,0,0-.417,1.125c.013,1.4-.01,2.808.013,4.211.007.427-.1.57-.554.578-1.951.038-1.951.054-1.951-1.9,0-.91-.026-1.821.009-2.729a1.653,1.653,0,0,0-.637-1.509,1.643,1.643,0,0,1-.632-1.558c.042-1.116,0-2.235.015-3.353a1.275,1.275,0,0,1,1.439-1.439c.728-.011,1.456-.015,2.184,0a1.253,1.253,0,0,1,1.362,1.358c.017.675,0,1.352,0,2.027,0,.312-.023.626,0,.935a2.2,2.2,0,0,1-.84,2.252" transform="translate(-123.23 -37.864)"/>
        <path id="Trazado_605341" data-name="Trazado 605341" d="M172.616,87.118c0-.676.014-1.352,0-2.028a1.252,1.252,0,0,0-1.362-1.358c-.728-.017-1.456-.012-2.184,0a1.275,1.275,0,0,0-1.439,1.439c-.011,1.118.027,2.237-.015,3.353a1.643,1.643,0,0,0,.632,1.558,1.653,1.653,0,0,1,.637,1.509c-.035.909-.009,1.819-.009,2.729,0,1.956,0,1.94,1.951,1.9.453-.009.561-.151.554-.578-.024-1.4,0-2.807-.013-4.211a1.262,1.262,0,0,1,.417-1.125,2.2,2.2,0,0,0,.84-2.252c-.028-.31,0-.624,0-.935" transform="translate(-132.666 -66.267)" fill="#5eb1cf"/>
        <path id="Trazado_605342" data-name="Trazado 605342" d="M174.948,62.313a1.246,1.246,0,1,0-1.275-1.275,1.269,1.269,0,0,0,1.275,1.275" transform="translate(-137.465 -47.349)" fill="#5dafcd"/>
      </g>
    </g>
  </g>
</svg>
