<svg xmlns="http://www.w3.org/2000/svg" xmlns:xlink="http://www.w3.org/1999/xlink" width="133" height="42" viewBox="0 0 133 42">
  <defs>
    <clipPath id="clip-path">
      <rect id="Rect치ngulo_292467" data-name="Rect치ngulo 292467" width="25.189" height="21.943" fill="#4a2efc"/>
    </clipPath>
  </defs>
  <g id="Grupo_874027" data-name="Grupo 874027" transform="translate(-358 -1491.204)">
    <rect id="Rect치ngulo_289858" data-name="Rect치ngulo 289858" width="133" height="42" transform="translate(358 1491.204)" fill="#fff"/>
    <path id="Trazado_609216" data-name="Trazado 609216" d="M8.477,11.842a3.662,3.662,0,0,1-1.166,2.437,3.82,3.82,0,0,1-2.608.858,3.507,3.507,0,0,1-2.827-1.265A5.088,5.088,0,0,1,.813,10.488V9.531a5.671,5.671,0,0,1,.5-2.44,3.7,3.7,0,0,1,1.4-1.617A3.911,3.911,0,0,1,4.819,4.91,3.6,3.6,0,0,1,7.362,5.8,3.706,3.706,0,0,1,8.477,8.246H7.157a2.86,2.86,0,0,0-.742-1.728,2.244,2.244,0,0,0-1.6-.535,2.348,2.348,0,0,0-1.972.93,4.272,4.272,0,0,0-.714,2.648v.965a4.391,4.391,0,0,0,.677,2.579,2.187,2.187,0,0,0,1.894.958,2.526,2.526,0,0,0,1.678-.5,2.75,2.75,0,0,0,.776-1.726ZM11.443,15H10.179V4.5h1.265Zm3.4,0H13.576V7.6h1.265ZM13.474,5.642a.755.755,0,0,1,.188-.52.706.706,0,0,1,.557-.212.717.717,0,0,1,.561.212.747.747,0,0,1,.191.52.722.722,0,0,1-.191.513.73.73,0,0,1-.561.205.718.718,0,0,1-.557-.205A.73.73,0,0,1,13.474,5.642Zm6.46,9.5a3.232,3.232,0,0,1-2.447-.988,3.666,3.666,0,0,1-.943-2.642v-.232a4.438,4.438,0,0,1,.42-1.965,3.28,3.28,0,0,1,1.176-1.354,2.956,2.956,0,0,1,1.637-.489,2.77,2.77,0,0,1,2.242.95,4.114,4.114,0,0,1,.8,2.721v.526H17.808a2.629,2.629,0,0,0,.639,1.767A2.009,2.009,0,0,0,20,14.1a2.2,2.2,0,0,0,1.135-.273,2.851,2.851,0,0,0,.813-.725l.772.6A3.106,3.106,0,0,1,19.934,15.137Zm-.157-6.631a1.687,1.687,0,0,0-1.285.557,2.708,2.708,0,0,0-.643,1.562h3.705v-.1a2.409,2.409,0,0,0-.52-1.494A1.588,1.588,0,0,0,19.776,8.506Zm5.7-.9.041.93a2.7,2.7,0,0,1,2.215-1.066q2.345,0,2.365,2.646V15H28.834V10.105a1.7,1.7,0,0,0-.366-1.183,1.466,1.466,0,0,0-1.118-.383,1.825,1.825,0,0,0-1.08.328,2.228,2.228,0,0,0-.725.861V15H24.281V7.6Zm8.244-1.791V7.6H35.1v.978H33.722v4.593a1.027,1.027,0,0,0,.185.667.777.777,0,0,0,.629.222,3.062,3.062,0,0,0,.6-.082V15a3.688,3.688,0,0,1-.971.136,1.575,1.575,0,0,1-1.278-.513,2.2,2.2,0,0,1-.431-1.456V8.581H31.11V7.6h1.347V5.813Zm5.927,9.324a3.232,3.232,0,0,1-2.447-.988,3.666,3.666,0,0,1-.943-2.642v-.232a4.438,4.438,0,0,1,.42-1.965,3.28,3.28,0,0,1,1.176-1.354,2.956,2.956,0,0,1,1.637-.489,2.77,2.77,0,0,1,2.242.95,4.114,4.114,0,0,1,.8,2.721v.526H37.522a2.629,2.629,0,0,0,.639,1.767,2.009,2.009,0,0,0,1.555.673,2.2,2.2,0,0,0,1.135-.273,2.851,2.851,0,0,0,.813-.725l.772.6A3.106,3.106,0,0,1,39.648,15.137Zm-.157-6.631a1.687,1.687,0,0,0-1.285.557,2.708,2.708,0,0,0-.643,1.562h3.705v-.1a2.409,2.409,0,0,0-.52-1.494A1.588,1.588,0,0,0,39.491,8.506ZM48.3,13.038a.931.931,0,0,0-.386-.8,3.718,3.718,0,0,0-1.347-.489,6.367,6.367,0,0,1-1.524-.492,2.169,2.169,0,0,1-.834-.684,1.635,1.635,0,0,1-.27-.943A1.919,1.919,0,0,1,44.71,8.1a3,3,0,0,1,1.965-.629,3.091,3.091,0,0,1,2.041.649A2.063,2.063,0,0,1,49.5,9.777H48.228a1.142,1.142,0,0,0-.441-.9,1.652,1.652,0,0,0-1.111-.376,1.729,1.729,0,0,0-1.08.3.947.947,0,0,0-.39.786.767.767,0,0,0,.362.69,4.458,4.458,0,0,0,1.309.444,6.821,6.821,0,0,1,1.535.506,2.239,2.239,0,0,1,.872.708,1.74,1.74,0,0,1,.284,1.008,1.893,1.893,0,0,1-.793,1.589,3.326,3.326,0,0,1-2.058.6,3.725,3.725,0,0,1-1.572-.314,2.557,2.557,0,0,1-1.07-.878,2.117,2.117,0,0,1-.386-1.22h1.265a1.309,1.309,0,0,0,.509,1.008,1.976,1.976,0,0,0,1.254.373,2.039,2.039,0,0,0,1.152-.291A.893.893,0,0,0,48.3,13.038Z" transform="translate(405.561 1505.204)" fill="#12263f"/>
    <g id="Grupo_873998" data-name="Grupo 873998" transform="translate(372 1504.233)">
      <g id="Grupo_873998-2" data-name="Grupo 873998" clip-path="url(#clip-path)">
        <path id="Trazado_608952" data-name="Trazado 608952" d="M22.559,155.771a9.152,9.152,0,0,0-1.86-.087,3.279,3.279,0,0,0-2.936,1.747c-.03.052-.065.1-.113.178-.066-.075-.112-.133-.164-.185a5.463,5.463,0,0,0-3.079-1.623,18.09,18.09,0,0,0-2.549-.116,5.714,5.714,0,0,0-3.6,1.249c-.257.2-.491.427-.734.64-.012,0-.022-.006-.025-.011-.037-.063-.073-.127-.11-.191a3.16,3.16,0,0,0-2.262-1.619,10.689,10.689,0,0,0-1.765-.072A3.32,3.32,0,0,0,0,159.052q0,2.607,0,5.214a1.447,1.447,0,0,0,1.535,1.544q2.066,0,4.132,0h.274c.021.084.04.154.056.225a1.7,1.7,0,0,0,1.636,1.346q4.956.011,9.912,0a1.624,1.624,0,0,0,1.541-1.035,4.481,4.481,0,0,0,.168-.533h.258c1.377,0,2.755,0,4.132,0a1.491,1.491,0,0,0,1.494-1.12.874.874,0,0,1,.049-.109v-6a.565.565,0,0,1-.044-.109,3.237,3.237,0,0,0-2.585-2.7m-16.344,4.1a15.553,15.553,0,0,0-.247,1.645c-.041.924-.011,1.851-.011,2.805H1.476v-.261q0-2.471,0-4.941a1.855,1.855,0,0,1,1.974-1.967,9.309,9.309,0,0,1,1.4.048,1.779,1.779,0,0,1,1.492,1.759,6,6,0,0,1-.124.912m11.544,5.69c0,.275-.08.345-.381.345H7.841c-.359,0-.412-.053-.412-.412,0-1.278,0-2.556,0-3.835a4.465,4.465,0,0,1,4.51-4.5,13.251,13.251,0,0,1,2.251.106,4.411,4.411,0,0,1,3.563,4.22c.021,1.36.006,2.72.005,4.08m5.95-1.242H19.236c0-.086,0-.173,0-.259-.015-1.04-.008-2.081-.058-3.119a6.176,6.176,0,0,0-.258-1.22,1.939,1.939,0,0,1,1.123-2.447.792.792,0,0,1,.258-.074,14.6,14.6,0,0,1,1.956.014,1.726,1.726,0,0,1,1.444,1.668c.02,1.8.006,3.6.006,5.437" transform="translate(0 -145.445)" fill="#4a2efc"/>
        <path id="Trazado_608953" data-name="Trazado 608953" d="M130.819,0a4.28,4.28,0,1,0,4.263,4.284A4.286,4.286,0,0,0,130.819,0M130.8,7.084a2.8,2.8,0,1,1,2.8-2.8,2.813,2.813,0,0,1-2.8,2.8" transform="translate(-118.208 -0.001)" fill="#4a2efc"/>
        <path id="Trazado_608954" data-name="Trazado 608954" d="M21.452,47.915a2.7,2.7,0,1,0,2.7,2.711,2.713,2.713,0,0,0-2.7-2.711m-.021,3.934a1.229,1.229,0,1,1,1.244-1.221,1.233,1.233,0,0,1-1.244,1.221" transform="translate(-17.509 -44.766)" fill="#4a2efc"/>
        <path id="Trazado_608955" data-name="Trazado 608955" d="M284.92,47.915a2.7,2.7,0,1,0,2.715,2.694,2.714,2.714,0,0,0-2.715-2.694m0,3.934a1.229,1.229,0,1,1,1.24-1.225,1.233,1.233,0,0,1-1.24,1.225" transform="translate(-263.678 -44.766)" fill="#4a2efc"/>
        <path id="Trazado_608956" data-name="Trazado 608956" d="M119.318,311.384h0" transform="translate(-111.476 -290.92)" fill="#4a2efc"/>
      </g>
    </g>
  </g>
</svg>
