<svg xmlns="http://www.w3.org/2000/svg" xmlns:xlink="http://www.w3.org/1999/xlink" width="398.701" height="74.859" viewBox="0 0 398.701 74.859">
  <defs>
    <clipPath id="clip-path">
      <rect id="Rectángulo_290991" data-name="Rectángulo 290991" width="74.701" height="74.86" fill="none"/>
    </clipPath>
  </defs>
  <g id="Grupo_874037" data-name="Grupo 874037" transform="translate(-180 -12552.348)">
    <path id="Trazado_604983" data-name="Trazado 604983" d="M0,0H363.057l-2.9,52.528L0,52Z" transform="translate(180 12563.822)" fill="#fff0a6"/>
    <path id="Trazado_609228" data-name="Trazado 609228" d="M1.182,23V7.359H6.8a7.956,7.956,0,0,1,4.592,1.106,3.682,3.682,0,0,1,1.574,3.212,3.721,3.721,0,0,1-.559,2.073,3.255,3.255,0,0,1-1.644,1.268,3.3,3.3,0,0,1,1.88,1.2A3.5,3.5,0,0,1,13.3,18.37a4.141,4.141,0,0,1-1.456,3.454A6.927,6.927,0,0,1,7.53,23Zm3.771-6.649V20.1H7.423a2.35,2.35,0,0,0,1.568-.467,1.635,1.635,0,0,0,.548-1.316,1.734,1.734,0,0,0-1.944-1.966Zm0-2.471H6.918a2.793,2.793,0,0,0,1.762-.453,1.606,1.606,0,0,0,.526-1.3A1.686,1.686,0,0,0,8.637,10.7,3.047,3.047,0,0,0,6.8,10.26H4.952ZM21.753,23a4.087,4.087,0,0,1-.344-1.042,3.366,3.366,0,0,1-2.793,1.257,4.124,4.124,0,0,1-2.793-.994,3.163,3.163,0,0,1-1.149-2.5,3.251,3.251,0,0,1,1.4-2.857,7.114,7.114,0,0,1,4.061-.967h1.117v-.615q0-1.608-1.386-1.608a1.133,1.133,0,0,0-1.289,1.274h-3.62a3.245,3.245,0,0,1,1.434-2.736,6.027,6.027,0,0,1,3.658-1.051,5.284,5.284,0,0,1,3.513,1.085,3.772,3.772,0,0,1,1.321,2.976v5.146a5.269,5.269,0,0,0,.494,2.449V23Zm-2.267-2.363a2.019,2.019,0,0,0,1.123-.29,1.818,1.818,0,0,0,.639-.655V17.833H20.2q-1.891,0-1.891,1.7a1.036,1.036,0,0,0,.333.8A1.205,1.205,0,0,0,19.486,20.637Zm13.481-.9a.836.836,0,0,0-.483-.741,7.353,7.353,0,0,0-1.837-.58,8.376,8.376,0,0,1-2.234-.79,3.743,3.743,0,0,1-1.343-1.187,2.834,2.834,0,0,1-.462-1.6A3.212,3.212,0,0,1,27.93,12.2a5.443,5.443,0,0,1,3.459-1.037,6.03,6.03,0,0,1,3.7,1.042,3.258,3.258,0,0,1,1.4,2.739H32.85q0-1.4-1.472-1.4a1.459,1.459,0,0,0-.956.317.981.981,0,0,0-.387.79.9.9,0,0,0,.473.784,4.466,4.466,0,0,0,1.509.494,13.042,13.042,0,0,1,1.821.462q2.621.9,2.621,3.233a3.044,3.044,0,0,1-1.413,2.589,6.2,6.2,0,0,1-3.658,1,6.322,6.322,0,0,1-2.664-.537A4.455,4.455,0,0,1,26.9,21.217a3.308,3.308,0,0,1-.655-1.944h3.384a1.4,1.4,0,0,0,.537,1.176,2.209,2.209,0,0,0,1.321.371,1.738,1.738,0,0,0,1.112-.3A.962.962,0,0,0,32.968,19.734Zm10.807,3.48a5.975,5.975,0,0,1-4.329-1.6,5.509,5.509,0,0,1-1.654-4.152v-.3a7.138,7.138,0,0,1,.661-3.147,4.834,4.834,0,0,1,1.928-2.111,5.821,5.821,0,0,1,3.008-.747,5.031,5.031,0,0,1,3.867,1.52,5.973,5.973,0,0,1,1.418,4.238v1.407h-7.2a2.609,2.609,0,0,0,.849,1.536,2.525,2.525,0,0,0,1.7.559,3.254,3.254,0,0,0,2.686-1.2l1.654,1.955a4.624,4.624,0,0,1-1.917,1.488A6.48,6.48,0,0,1,43.774,23.215Zm-.408-9.26q-1.59,0-1.891,2.105h3.652v-.279a1.793,1.793,0,0,0-.44-1.348A1.753,1.753,0,0,0,43.366,13.955ZM55.15,17.1a7.1,7.1,0,0,1,1.192-4.351,3.925,3.925,0,0,1,3.33-1.59,3.338,3.338,0,0,1,2.621,1.225V6.5h3.631V23H62.67l-.183-1.246a3.428,3.428,0,0,1-2.836,1.461,3.918,3.918,0,0,1-3.287-1.59A7.325,7.325,0,0,1,55.15,17.1Zm3.62.226q0,3.094,1.8,3.094a1.782,1.782,0,0,0,1.719-1.01V14.986a1.734,1.734,0,0,0-1.7-1.031q-1.676,0-1.815,2.707Zm14.835,5.887a5.975,5.975,0,0,1-4.329-1.6,5.509,5.509,0,0,1-1.654-4.152v-.3a7.138,7.138,0,0,1,.661-3.147,4.834,4.834,0,0,1,1.928-2.111,5.821,5.821,0,0,1,3.008-.747,5.031,5.031,0,0,1,3.867,1.52A5.973,5.973,0,0,1,78.5,16.92v1.407h-7.2a2.609,2.609,0,0,0,.849,1.536,2.525,2.525,0,0,0,1.7.559,3.254,3.254,0,0,0,2.686-1.2l1.654,1.955a4.624,4.624,0,0,1-1.917,1.488A6.48,6.48,0,0,1,73.605,23.215Zm-.408-9.26q-1.59,0-1.891,2.105h3.652v-.279a1.793,1.793,0,0,0-.44-1.348A1.753,1.753,0,0,0,73.2,13.955ZM84.981,17.1a7.1,7.1,0,0,1,1.192-4.351,3.925,3.925,0,0,1,3.33-1.59,3.338,3.338,0,0,1,2.621,1.225V6.5h3.631V23H92.5l-.183-1.246a3.428,3.428,0,0,1-2.836,1.461,3.918,3.918,0,0,1-3.287-1.59A7.325,7.325,0,0,1,84.981,17.1Zm3.62.226q0,3.094,1.8,3.094a1.782,1.782,0,0,0,1.719-1.01V14.986a1.734,1.734,0,0,0-1.7-1.031q-1.676,0-1.815,2.707ZM104.36,23a4.087,4.087,0,0,1-.344-1.042,3.366,3.366,0,0,1-2.793,1.257,4.124,4.124,0,0,1-2.793-.994,3.163,3.163,0,0,1-1.149-2.5,3.251,3.251,0,0,1,1.4-2.857,7.114,7.114,0,0,1,4.061-.967h1.117v-.615q0-1.608-1.386-1.608a1.133,1.133,0,0,0-1.289,1.274h-3.62a3.245,3.245,0,0,1,1.434-2.736,6.027,6.027,0,0,1,3.658-1.051,5.284,5.284,0,0,1,3.513,1.085,3.772,3.772,0,0,1,1.321,2.976v5.146a5.269,5.269,0,0,0,.494,2.449V23Zm-2.267-2.363a2.019,2.019,0,0,0,1.123-.29,1.818,1.818,0,0,0,.639-.655V17.833H102.8q-1.891,0-1.891,1.7a1.036,1.036,0,0,0,.333.8A1.205,1.205,0,0,0,102.094,20.637ZM113.706,8.487v2.89h1.912v2.514h-1.912v5.317a1.358,1.358,0,0,0,.236.913,1.268,1.268,0,0,0,.935.258,5.311,5.311,0,0,0,.9-.064V22.9a6.681,6.681,0,0,1-2.041.312,3.792,3.792,0,0,1-2.761-.881,3.61,3.61,0,0,1-.892-2.675V13.891H108.6V11.377h1.482V8.487Zm2.557,8.594a6.86,6.86,0,0,1,.677-3.1,4.84,4.84,0,0,1,1.944-2.089,5.856,5.856,0,0,1,2.976-.73,5.344,5.344,0,0,1,4.114,1.617,6.2,6.2,0,0,1,1.5,4.4v.129a6.019,6.019,0,0,1-1.509,4.313,5.359,5.359,0,0,1-4.087,1.6,5.42,5.42,0,0,1-3.985-1.488,5.819,5.819,0,0,1-1.622-4.034Zm3.62.226a4.325,4.325,0,0,0,.5,2.363,1.682,1.682,0,0,0,1.493.752q1.934,0,1.977-2.976v-.365q0-3.126-2-3.126-1.815,0-1.966,2.7Zm15.275,2.428a.836.836,0,0,0-.483-.741,7.353,7.353,0,0,0-1.837-.58,8.376,8.376,0,0,1-2.234-.79,3.743,3.743,0,0,1-1.343-1.187,2.835,2.835,0,0,1-.462-1.6A3.212,3.212,0,0,1,130.12,12.2a5.443,5.443,0,0,1,3.459-1.037,6.03,6.03,0,0,1,3.7,1.042,3.258,3.258,0,0,1,1.4,2.739H135.04q0-1.4-1.472-1.4a1.459,1.459,0,0,0-.956.317.981.981,0,0,0-.387.79.9.9,0,0,0,.473.784,4.466,4.466,0,0,0,1.509.494,13.042,13.042,0,0,1,1.821.462q2.621.9,2.621,3.233a3.044,3.044,0,0,1-1.413,2.589,6.2,6.2,0,0,1-3.658,1,6.322,6.322,0,0,1-2.664-.537,4.455,4.455,0,0,1-1.826-1.461,3.308,3.308,0,0,1-.655-1.944h3.384a1.4,1.4,0,0,0,.537,1.176,2.209,2.209,0,0,0,1.321.371,1.738,1.738,0,0,0,1.112-.3A.962.962,0,0,0,135.158,19.734Zm17.692-5.081-1.192-.086a2.142,2.142,0,0,0-2.191,1.074V23h-3.62V11.377h3.395l.118,1.493a2.8,2.8,0,0,1,2.546-1.708,3.53,3.53,0,0,1,1.01.129Zm6.929,8.562a5.975,5.975,0,0,1-4.329-1.6,5.509,5.509,0,0,1-1.654-4.152v-.3a7.138,7.138,0,0,1,.661-3.147,4.834,4.834,0,0,1,1.928-2.111,5.821,5.821,0,0,1,3.008-.747,5.031,5.031,0,0,1,3.867,1.52,5.973,5.973,0,0,1,1.418,4.238v1.407h-7.2a2.609,2.609,0,0,0,.849,1.536,2.525,2.525,0,0,0,1.7.559,3.254,3.254,0,0,0,2.686-1.2l1.654,1.955a4.624,4.624,0,0,1-1.917,1.488A6.48,6.48,0,0,1,159.779,23.215Zm-.408-9.26q-1.59,0-1.891,2.105h3.652v-.279a1.793,1.793,0,0,0-.44-1.348A1.753,1.753,0,0,0,159.371,13.955ZM169.952,23h-3.631V6.5h3.631Zm8.776,0a4.088,4.088,0,0,1-.344-1.042,3.366,3.366,0,0,1-2.793,1.257,4.124,4.124,0,0,1-2.793-.994,3.163,3.163,0,0,1-1.149-2.5,3.251,3.251,0,0,1,1.4-2.857,7.114,7.114,0,0,1,4.061-.967h1.117v-.615q0-1.608-1.386-1.608a1.133,1.133,0,0,0-1.289,1.274h-3.62a3.245,3.245,0,0,1,1.434-2.736,6.027,6.027,0,0,1,3.658-1.051,5.284,5.284,0,0,1,3.513,1.085,3.772,3.772,0,0,1,1.321,2.976v5.146a5.269,5.269,0,0,0,.494,2.449V23Zm-2.267-2.363a2.019,2.019,0,0,0,1.123-.29,1.818,1.818,0,0,0,.639-.655V17.833h-1.053q-1.891,0-1.891,1.7a1.036,1.036,0,0,0,.333.8A1.205,1.205,0,0,0,176.462,20.637Zm12.311-.215a1.61,1.61,0,0,0,1.182-.414,1.517,1.517,0,0,0,.408-1.155h3.395a4.018,4.018,0,0,1-1.37,3.137,5.1,5.1,0,0,1-3.529,1.225,5.158,5.158,0,0,1-4-1.59,6.264,6.264,0,0,1-1.461-4.4v-.15a7.08,7.08,0,0,1,.65-3.11,4.732,4.732,0,0,1,1.875-2.073,5.589,5.589,0,0,1,2.9-.725,5.03,5.03,0,0,1,3.6,1.257,4.458,4.458,0,0,1,1.332,3.405h-3.395a1.987,1.987,0,0,0-.44-1.386,1.52,1.52,0,0,0-1.182-.483q-1.407,0-1.644,1.794a12.659,12.659,0,0,0-.075,1.568,4.972,4.972,0,0,0,.419,2.428A1.45,1.45,0,0,0,188.772,20.422ZM199.106,23h-3.631V11.377h3.631ZM195.261,8.38a1.616,1.616,0,0,1,.559-1.268,2.375,2.375,0,0,1,2.9,0,1.616,1.616,0,0,1,.559,1.268,1.616,1.616,0,0,1-.559,1.268,2.375,2.375,0,0,1-2.9,0A1.616,1.616,0,0,1,195.261,8.38Zm5.618,8.7a6.86,6.86,0,0,1,.677-3.1,4.84,4.84,0,0,1,1.944-2.089,5.856,5.856,0,0,1,2.976-.73,5.344,5.344,0,0,1,4.114,1.617,6.2,6.2,0,0,1,1.5,4.4v.129a6.019,6.019,0,0,1-1.509,4.313,5.359,5.359,0,0,1-4.087,1.6,5.42,5.42,0,0,1-3.985-1.488,5.819,5.819,0,0,1-1.622-4.034Zm3.62.226a4.325,4.325,0,0,0,.5,2.363,1.682,1.682,0,0,0,1.493.752q1.934,0,1.977-2.976v-.365q0-3.126-2-3.126-1.815,0-1.966,2.7Zm12.515-5.93.118,1.364a3.942,3.942,0,0,1,3.319-1.579,3.316,3.316,0,0,1,2.712,1.085,5.165,5.165,0,0,1,.929,3.266V23h-3.631V15.663a1.961,1.961,0,0,0-.354-1.294,1.64,1.64,0,0,0-1.289-.414,1.726,1.726,0,0,0-1.579.838V23h-3.62V11.377ZM232.644,23a4.088,4.088,0,0,1-.344-1.042,3.366,3.366,0,0,1-2.793,1.257,4.124,4.124,0,0,1-2.793-.994,3.163,3.163,0,0,1-1.149-2.5,3.251,3.251,0,0,1,1.4-2.857,7.114,7.114,0,0,1,4.061-.967h1.117v-.615q0-1.608-1.386-1.608a1.133,1.133,0,0,0-1.289,1.274h-3.62a3.245,3.245,0,0,1,1.434-2.736,6.027,6.027,0,0,1,3.658-1.051,5.284,5.284,0,0,1,3.513,1.085,3.772,3.772,0,0,1,1.321,2.976v5.146a5.269,5.269,0,0,0,.494,2.449V23Zm-2.267-2.363a2.019,2.019,0,0,0,1.123-.29,1.818,1.818,0,0,0,.639-.655V17.833h-1.053q-1.891,0-1.891,1.7a1.036,1.036,0,0,0,.333.8A1.205,1.205,0,0,0,230.377,20.637ZM241.592,23h-3.631V6.5h3.631Zm7.853.215a5.975,5.975,0,0,1-4.329-1.6,5.509,5.509,0,0,1-1.654-4.152v-.3a7.138,7.138,0,0,1,.661-3.147,4.834,4.834,0,0,1,1.928-2.111,5.821,5.821,0,0,1,3.008-.747,5.031,5.031,0,0,1,3.867,1.52,5.973,5.973,0,0,1,1.418,4.238v1.407h-7.2a2.609,2.609,0,0,0,.849,1.536,2.525,2.525,0,0,0,1.7.559,3.254,3.254,0,0,0,2.686-1.2l1.654,1.955a4.624,4.624,0,0,1-1.917,1.488A6.48,6.48,0,0,1,249.444,23.215Zm-.408-9.26q-1.59,0-1.891,2.105H250.8v-.279a1.793,1.793,0,0,0-.44-1.348A1.753,1.753,0,0,0,249.036,13.955Zm12.848,5.779a.836.836,0,0,0-.483-.741,7.353,7.353,0,0,0-1.837-.58,8.376,8.376,0,0,1-2.234-.79,3.743,3.743,0,0,1-1.343-1.187,2.835,2.835,0,0,1-.462-1.6,3.212,3.212,0,0,1,1.321-2.637,5.443,5.443,0,0,1,3.459-1.037A6.03,6.03,0,0,1,264,12.2a3.258,3.258,0,0,1,1.4,2.739h-3.631q0-1.4-1.472-1.4a1.459,1.459,0,0,0-.956.317.981.981,0,0,0-.387.79.9.9,0,0,0,.473.784,4.466,4.466,0,0,0,1.509.494,13.043,13.043,0,0,1,1.821.462q2.621.9,2.621,3.233a3.044,3.044,0,0,1-1.413,2.589,6.2,6.2,0,0,1-3.658,1,6.322,6.322,0,0,1-2.664-.537,4.455,4.455,0,0,1-1.826-1.461,3.308,3.308,0,0,1-.655-1.944h3.384a1.4,1.4,0,0,0,.537,1.176,2.209,2.209,0,0,0,1.321.371,1.738,1.738,0,0,0,1.112-.3A.962.962,0,0,0,261.884,19.734Z" transform="translate(203 12575.586)" fill="#12263f"/>
    <g id="Grupo_870190" data-name="Grupo 870190" transform="translate(504 12552.348)">
      <g id="Grupo_870189" data-name="Grupo 870189" clip-path="url(#clip-path)">
        <path id="Trazado_605584" data-name="Trazado 605584" d="M70.567,14.984q-10.113,0-20.226.009c-.549,0-.809-.032-.7-.718A11.765,11.765,0,0,0,48.252,6.54c-.238-.434-.115-.61.231-.863Q50.367,4.3,52.209,2.869A1.7,1.7,0,0,1,53.343,2.5c2.36.017,4.719.008,7.079.008,1.841,0,1.817,0,1.844-1.833C62.274.126,62.13,0,61.587,0c-2.982.029-5.964.025-8.946,0a2.2,2.2,0,0,0-1.424.5C49.817,1.574,48.39,2.609,47,3.7c-.4.312-.6.257-.943-.077a12.288,12.288,0,0,0-17.407,0c-.4.391-.613.338-1,.034C26.26,2.571,24.833,1.536,23.434.465A2.093,2.093,0,0,0,22.075.007C19.482.025,16.889.015,14.3.015c-1.853,0-1.831,0-1.855,1.82-.007.53.1.7.665.69,2.774-.033,5.549-.01,8.324-.021a1.5,1.5,0,0,1,1,.313c1.252.966,2.514,1.919,3.795,2.846.392.283.443.5.2.937a11.616,11.616,0,0,0-1.373,7.585c.118.732-.1.816-.754.814-6.716-.025-13.432-.016-20.148-.015A3.77,3.77,0,0,0,.005,19.135Q0,28.917,0,38.7q0,9.86,0,19.72A3.817,3.817,0,0,0,1.362,61.51a3.948,3.948,0,0,0,2.666.879c7.935-.011,15.87.006,23.8-.026.712,0,.851.2.82.853-.055,1.167-.05,2.339,0,3.506.024.571-.166.687-.692.662-.931-.044-1.867,0-2.8-.018a1.552,1.552,0,0,0-1.39.686c-1.138,1.545-2.294,3.077-3.45,4.608a1.3,1.3,0,0,0-.252,1.507,1.365,1.365,0,0,0,1.366.693q15.909-.009,31.817,0a1.384,1.384,0,0,0,1.377-.677,1.3,1.3,0,0,0-.232-1.511c-1.154-1.533-2.31-3.065-3.45-4.609a1.56,1.56,0,0,0-1.386-.7c-.985.022-1.971-.019-2.956.017-.454.016-.557-.137-.547-.566.028-1.221.055-2.444-.008-3.662-.035-.67.177-.789.806-.787q11.825.035,23.649.015c2.691,0,4.2-1.5,4.2-4.183q0-19.525,0-39.05c0-2.646-1.507-4.165-4.132-4.165M38.588,3.134c0-.437.138-.537.535-.458a9.922,9.922,0,0,1,5.365,2.885c-.882.666-1.676,1.289-2.5,1.875-.33.236-.341.4-.109.731,1.142,1.624,1.132,1.632,2.732.423.207-.156.415-.31.622-.466.8-.6.8-.6,1.221.353a10.815,10.815,0,0,1,.852,3.453c.041.443-.1.572-.544.569q-3.808-.029-7.615,0c-.445,0-.563-.127-.561-.566q.028-4.4,0-8.8m-10.246,5.1c.248-.523.446-.722.968-.257.6.533,1.286.962,1.907,1.471.324.266.5.233.722-.115.341-.547,1.108-1.035,1.022-1.572-.073-.452-.883-.789-1.372-1.169-.429-.333-.866-.656-1.367-1.033a10.1,10.1,0,0,1,5.294-2.876c.485-.1.608.033.6.532-.023,3.376-.013,6.751-.011,10.127,0,1.224.412,1.641,1.622,1.642,3.057,0,6.114,0,9.254,0A9.951,9.951,0,0,1,30.23,19.478,10.017,10.017,0,0,1,28.342,8.234M2.48,51.619c.067-.983.032-1.972.041-2.959C2.512,46.53,2.5,44.4,2.5,42.271q0-11.534,0-23.068c0-1.336.382-1.725,1.7-1.725,6.87,0,13.741.02,20.612-.025.92-.006,1.464.223,1.653,1.134a12.855,12.855,0,0,0,5.9,5.3,12.379,12.379,0,0,0,15.67-5c.066-.108.151-.2.227-.307.188-.913.735-1.14,1.653-1.132,5.8.047,11.607.024,17.411.025.284,0,.569.016.853.025.907-.009,1.814-.036,2.721-.02A1.243,1.243,0,0,1,72.209,18.8c.007.13,0,.26,0,.39q0,16.211.015,32.422c0,.643-.146.809-.8.808q-34.07-.028-68.14,0c-.64,0-.852-.139-.807-.8M48.706,69.865a.7.7,0,0,1,.676.265c.506.713,1.044,1.4,1.631,2.184H23.693c.587-.782,1.126-1.473,1.632-2.187A.7.7,0,0,1,26,69.866q11.352,0,22.7,0m-5.155-4.986h0c-.006.8.282,1.818-.1,2.336-.366.494-1.448.145-2.213.15-3.159.017-6.318,0-9.476.019-.5,0-.684-.121-.642-.639.051-.619.027-1.243.036-1.865.006-.8-.281-1.817.1-2.337.367-.5,1.448-.148,2.213-.152,3.133-.018,6.266.009,9.4-.022.579-.006.78.134.721.724s-.028,1.191-.037,1.787m28.675-9.114c-.064.9,0,1.818-.019,2.727a1.269,1.269,0,0,1-1.4,1.4c-.155,0-.311,0-.467,0H4.364c-1.539,0-1.869-.329-1.87-1.865,0-.883.017-1.767-.008-2.65-.01-.374.1-.522.48-.478a5.437,5.437,0,0,0,.622,0H37.353q17,0,34-.017c.711,0,.925.176.875.884" transform="translate(0 -0.001)"/>
        <path id="Trazado_605585" data-name="Trazado 605585" d="M275.3,25.891c0,.511.133.639.638.636,3.319-.024,6.638-.012,9.957-.012,1.918,0,1.9,0,1.88-1.949-.005-.441-.121-.561-.559-.555-1.892.024-3.785.01-5.678.01h-4.356c-1.89,0-1.87,0-1.882,1.871" transform="translate(-218.045 -19.016)"/>
        <path id="Trazado_605586" data-name="Trazado 605586" d="M35.817,24.009c-1.892.024-3.785.01-5.678.01H25.783c-1.891,0-1.87,0-1.882,1.871,0,.51.132.639.638.636,3.319-.024,6.638-.012,9.957-.012,1.918,0,1.9,0,1.88-1.949,0-.44-.12-.561-.559-.556" transform="translate(-18.93 -19.016)"/>
        <path id="Trazado_605587" data-name="Trazado 605587" d="M251.742,50.24c2.489-.026,4.978-.012,7.467-.012,1.973,0,1.959,0,1.917-1.989-.009-.41-.116-.521-.52-.515-1.478.024-2.956.009-4.434.009-1.037,0-2.074-.013-3.111,0-.615.01-1.419-.265-1.792.11s-.053,1.184-.121,1.8c-.055.49.116.6.594.6" transform="translate(-198.864 -37.74)"/>
        <path id="Trazado_605588" data-name="Trazado 605588" d="M64.884,48.008H61.7c-1.89,0-1.869,0-1.881,1.872,0,.513.136.64.639.635,2.489-.027,4.978-.012,7.467-.012,1.917,0,1.9,0,1.879-1.951,0-.442-.123-.562-.56-.554-1.451.027-2.9.01-4.356.01" transform="translate(-47.374 -38.015)"/>
        <path id="Trazado_605589" data-name="Trazado 605589" d="M315.71,48.007c-1.4.021-2.8.008-4.2.009-.178,0-.38-.034-.373.25a5.808,5.808,0,0,0,.117,2.134c.159.35,1.051.071,1.611.108.232.015.466,0,.7,0h.622c2.042,0,2.035,0,1.937-2.043-.015-.306-.043-.466-.414-.46" transform="translate(-246.396 -38.023)"/>
        <path id="Trazado_605590" data-name="Trazado 605590" d="M24.208,50.521c.673-.024,1.348-.007,2.021-.007h.622c2.037,0,2.027,0,1.915-2.067-.018-.34-.1-.443-.441-.435-.881.022-1.763.007-2.644.007-2.038,0-2.027,0-1.916,2.067.018.34.1.447.441.434" transform="translate(-18.793 -38.026)"/>
        <path id="Trazado_605591" data-name="Trazado 605591" d="M313.109,2.509h1.167c2.044,0,2.031,0,1.951-2.033C316.211.1,316.1,0,315.741.006c-1.3.02-2.593.035-3.888-.005-.521-.016-.633.147-.63.644.011,1.864-.008,1.864,1.886,1.864" transform="translate(-246.494 0)"/>
        <path id="Trazado_605592" data-name="Trazado 605592" d="M23.887,2.113c-.058.352.105.441.436.429.673-.023,1.348-.007,2.022-.007h.622c1.97,0,1.97,0,1.9-1.994a.389.389,0,0,1,0-.078c.057-.351-.105-.437-.436-.43-.881.02-1.762.007-2.644.007-1.97,0-1.97,0-1.9,1.994a.4.4,0,0,1,0,.078" transform="translate(-18.903 -0.027)"/>
        <path id="Trazado_605593" data-name="Trazado 605593" d="M252.614,26.554c1.3,0,1.3,0,1.3-1.269,0-1.226,0-1.226-1.189-1.226-1.3,0-1.3,0-1.3,1.269,0,1.226,0,1.226,1.189,1.226" transform="translate(-199.133 -19.055)"/>
        <path id="Trazado_605594" data-name="Trazado 605594" d="M98.286,25.29c0-1.231,0-1.231-1.261-1.231-1.229,0-1.229,0-1.229,1.185,0,1.309,0,1.309,1.261,1.309,1.229,0,1.229,0,1.229-1.263" transform="translate(-75.872 -19.055)"/>
        <path id="Trazado_605595" data-name="Trazado 605595" d="M15.813,113.878H25.6c1.292,0,1.292,0,1.357,1.246H29.4c.065-1.246.065-1.246,1.358-1.246H45.518c1.292,0,1.292,0,1.357,1.246H51.8q.013-4.782.026-9.564c0-1.263.4-1.659,1.677-1.66q2.1,0,4.191,0c1.169,0,1.6.425,1.6,1.582q.016,4.821.026,9.641h2.438q.013-7.2.026-14.393c0-1.48.343-1.82,1.83-1.82,1.346,0,2.692,0,4.038,0,1.17,0,1.6.424,1.6,1.583q0,6.186,0,12.372c0,.285.016.57.025.854a10.25,10.25,0,0,0,2.438-1.4q.013-7.069.025-14.139c0-1.387.368-1.759,1.727-1.764,1.5-.006,3-.017,4.5-.025V88.956c-.854-.009-1.71.006-2.563-.035a1.083,1.083,0,0,0-.977.469c-1.711,2.085-3.458,4.14-5.16,6.232a1.994,1.994,0,0,1-1.736.806c-1.813-.037-3.628.021-5.44-.03a1.056,1.056,0,0,0-1.159.742c-.5,1.11-1.1,2.174-1.61,3.278a1.541,1.541,0,0,1-1.58,1c-1.787-.028-3.575-.022-5.363,0-.435.005-.559-.116-.566-.559-.032-1.946-.048-1.945,1.894-1.945.959,0,1.919-.031,2.875.012a.9.9,0,0,0,1.009-.6c.527-1.154,1.143-2.266,1.677-3.417a1.54,1.54,0,0,1,1.582-.991c1.995.027,3.99,0,5.985.019a1.12,1.12,0,0,0,.979-.463c1.726-2.105,3.484-4.185,5.208-6.292a1.846,1.846,0,0,1,1.6-.75c1.112.033,2.227-.006,3.34-.015a4.849,4.849,0,0,0-.308-2.443h0c-.284-.009-.569-.025-.853-.025-5.8,0-11.607.022-17.41-.025-.919-.007-1.465.22-1.654,1.132A9.493,9.493,0,0,1,55.5,89.824a11.113,11.113,0,0,1-8.66,4.106c-.012.8.278,1.848-.119,2.328-.414.5-1.5.144-2.293.151-2.3.019-4.606-.009-6.908.019-.51.006-.641-.138-.64-.643.005-1.863-.014-1.86,1.816-1.864q3.454-.008,6.907-.025a13.161,13.161,0,0,1-3.873-1.214,11.436,11.436,0,0,1-5.738-7.166,2.277,2.277,0,0,1-.037-.463c-.188-.912-.733-1.14-1.653-1.134-6.87.044-13.741.023-20.612.024-1.315,0-1.7.389-1.7,1.725q0,11.534,0,23.068c0,2.129.016,4.259.025,6.389h2.438c.065-1.246.065-1.246,1.356-1.246m16.717-2.495c-5.776,0-11.552-.008-17.328.013-.556,0-.749-.1-.738-.708.035-1.8,0-1.8,1.81-1.8h8.159c3.108,0,6.216.01,9.324-.01.485,0,.659.1.657.627-.006,1.877.017,1.877-1.886,1.877m12.445,0c-2.484,0-4.968-.014-7.451.012-.5,0-.648-.122-.646-.637.006-1.869-.015-1.869,1.811-1.869h3.26c1.449,0,2.9.016,4.346-.01.433-.007.559.114.567.557.033,1.947.048,1.947-1.887,1.947m1.893-6.7c-.047,1.71-.013,1.711-1.744,1.711H34.942c-3.679,0-7.357-.014-11.036.014-.576,0-.737-.131-.726-.72.032-1.789,0-1.789,1.82-1.789,7.021,0,14.041.01,21.062-.016.642,0,.823.144.8.8M33.116,93.92c1.285,0,1.285,0,1.285,1.284,0,1.21,0,1.21-1.2,1.21-1.285,0-1.285,0-1.285-1.285,0-1.21,0-1.21,1.2-1.21m.667,4.989c4.117,0,8.234.011,12.35-.013.562,0,.745.108.734.711-.034,1.8,0,1.8-1.811,1.8h-5.67c-2.278,0-4.557-.014-6.835.011-.49.005-.656-.1-.654-.631.006-1.875-.016-1.875,1.886-1.875M21.643,86.443c1.052-.027,1.539.431,1.552,1.473.008.7,0,1.4,0,2.1s.026,1.4-.009,2.1c-.023.448.13.567.565.559,1.374-.026,2.748-.014,4.121-.008,1.132,0,1.582.491,1.536,1.64a7.464,7.464,0,1,1-7.766-7.871M16.353,103.9h1.241c.879,0,1.758.016,2.636-.007.366-.009.471.1.488.476.094,2.026.106,2.026-1.881,2.026-1.266,0-2.533-.017-3.8.009-.432.009-.559-.113-.567-.556-.033-1.948-.049-1.948,1.882-1.948" transform="translate(-9.498 -66.464)" fill="#57a3fe"/>
        <path id="Trazado_605596" data-name="Trazado 605596" d="M80.819,263.872q-17,.037-34,.017H13.057a5.437,5.437,0,0,1-.622,0c-.375-.043-.49.1-.48.478.025.883.008,1.767.008,2.65,0,1.536.33,1.865,1.87,1.865H79.806c.156,0,.311,0,.467,0a1.269,1.269,0,0,0,1.4-1.4c.015-.909-.046-1.822.019-2.727.051-.708-.163-.885-.875-.884" transform="translate(-9.468 -208.992)" fill="#c5c4c9"/>
        <path id="Trazado_605597" data-name="Trazado 605597" d="M12.707,118.978q34.07-.027,68.141,0c.653,0,.8-.166.8-.808q-.032-16.211-.015-32.422c0-.13,0-.26,0-.39a1.243,1.243,0,0,0-1.322-1.315c-.907-.016-1.814.011-2.721.02.8.709.558,1.583.389,2.446h0c1.163.062,1.167.091,1.167,1.346,0,1.108,0,1.13-1.179,1.192a.641.641,0,0,1,.067.1,5.18,5.18,0,0,1,.114,1.687c.01,1.519.008,3.038,0,4.557a1.993,1.993,0,0,1-.179,1.116c.924.263,1.174.589,1.175,1.551q0,8.442,0,16.883c0,1.07-.447,1.521-1.5,1.527q-2.252.012-4.5,0c-1.005-.007-1.449-.467-1.462-1.486-.011-.814-.017-1.628-.025-2.443a5.407,5.407,0,0,1-2.1,1.341.333.333,0,0,1-.336-.01c-.008.421-.01.843-.027,1.263a1.236,1.236,0,0,1-1.295,1.33c-1.623.022-3.248.017-4.871,0a1.267,1.267,0,0,1-1.315-1.191,3.645,3.645,0,0,1-2.47.015c-.264.927-.588,1.176-1.539,1.18q-2.2.008-4.4,0c-.949,0-1.277-.255-1.537-1.176a1.235,1.235,0,0,1-.709.173q-1.766.025-3.532,0a1.3,1.3,0,0,1-.712-.163c-.062,1.163-.091,1.167-1.354,1.167H30.676c-1.272,0-1.292,0-1.355-1.193a3.676,3.676,0,0,1-2.445.02c-.062,1.17-.089,1.173-1.353,1.173H15.736c-1.271,0-1.291,0-1.354-1.192a3.086,3.086,0,0,1-2.441-.057c-.009.987.026,1.976-.041,2.959-.045.661.167.8.807.8" transform="translate(-9.42 -66.56)" fill="#2487fe"/>
        <path id="Trazado_605598" data-name="Trazado 605598" d="M83.932,233.96l0,.076a3.676,3.676,0,0,0,2.445-.02c0-.019,0-.036,0-.056H83.932" transform="translate(-66.473 -185.301)" fill="#2487fe"/>
        <path id="Trazado_605599" data-name="Trazado 605599" d="M328.06,86.6l.08,0h0c.169-.863.41-1.737-.389-2.446a4.851,4.851,0,0,1,.308,2.443" transform="translate(-259.586 -66.655)" fill="#2487fe"/>
        <path id="Trazado_605600" data-name="Trazado 605600" d="M179.7,233.96c0,.029,0,.054,0,.082a1.3,1.3,0,0,0,.712.163q1.766.021,3.532,0a1.234,1.234,0,0,0,.709-.173c-.007-.024-.014-.046-.02-.071H179.7" transform="translate(-142.325 -185.301)" fill="#2487fe"/>
        <path id="Trazado_605601" data-name="Trazado 605601" d="M329.232,108.133v7.432l.07.02a1.989,1.989,0,0,0,.179-1.116c.007-1.519.01-3.038,0-4.557a5.193,5.193,0,0,0-.114-1.687.627.627,0,0,0-.067-.1Z" transform="translate(-260.758 -85.64)" fill="#2487fe"/>
        <path id="Trazado_605602" data-name="Trazado 605602" d="M289.9,220.47a10.246,10.246,0,0,1-2.438,1.4c0,.017,0,.035,0,.052a.333.333,0,0,0,.336.01,5.4,5.4,0,0,0,2.1-1.341v-.123" transform="translate(-227.674 -174.616)" fill="#2487fe"/>
        <path id="Trazado_605603" data-name="Trazado 605603" d="M239.5,233.96c-.006.024-.013.045-.02.068a3.644,3.644,0,0,0,2.47-.015c0-.018-.009-.035-.012-.053Z" transform="translate(-189.674 -185.301)" fill="#2487fe"/>
        <path id="Trazado_605604" data-name="Trazado 605604" d="M14.56,234.016c0-.02,0-.037,0-.057H12.119a3.086,3.086,0,0,0,2.441.057" transform="translate(-9.598 -185.3)" fill="#2487fe"/>
        <path id="Trazado_605605" data-name="Trazado 605605" d="M145.778,31.658a9.827,9.827,0,0,0,5.516-6.592c-3.141,0-6.2,0-9.255,0-1.21,0-1.621-.418-1.622-1.642,0-3.376-.011-6.751.011-10.127,0-.5-.12-.636-.6-.532a10.1,10.1,0,0,0-5.294,2.877c.5.378.938.7,1.367,1.033.49.38,1.3.717,1.372,1.169.086.537-.681,1.026-1.022,1.572-.217.347-.4.38-.721.115-.621-.509-1.309-.939-1.907-1.471-.522-.465-.72-.266-.968.257a10.017,10.017,0,0,0,1.888,11.244,9.871,9.871,0,0,0,11.238,2.1" transform="translate(-104.309 -10.084)" fill="#fedd55"/>
        <path id="Trazado_605606" data-name="Trazado 605606" d="M115.551,336.18c-.506.714-1.045,1.4-1.632,2.186h27.32c-.586-.78-1.125-1.471-1.631-2.184a.7.7,0,0,0-.676-.265q-11.352,0-22.7,0a.7.7,0,0,0-.677.262" transform="translate(-90.226 -266.053)" fill="#c5c4c9"/>
        <path id="Trazado_605607" data-name="Trazado 605607" d="M186.1,22.592q3.808-.031,7.616,0c.445,0,.585-.125.544-.569a10.814,10.814,0,0,0-.852-3.453c-.425-.951-.423-.952-1.22-.353-.207.156-.415.31-.622.466-1.6,1.208-1.59,1.2-2.732-.423-.232-.33-.221-.495.109-.73.821-.586,1.616-1.209,2.5-1.875a9.921,9.921,0,0,0-5.365-2.885c-.4-.079-.537.022-.535.458q.027,4.4,0,8.8c0,.439.116.57.561.566" transform="translate(-146.948 -10.095)" fill="#fe7956"/>
        <path id="Trazado_605608" data-name="Trazado 605608" d="M130.515,94.969a11.2,11.2,0,0,0,5.635,2.889,1.39,1.39,0,0,1,.595.148c.11.079.141.144.127.2l1.176.034c.183-.207.473-.188.738-.215a11.255,11.255,0,0,0,7.541-3.712A15.477,15.477,0,0,0,149,89.362c-.076.1-.161.2-.227.307a12.379,12.379,0,0,1-15.67,5,12.855,12.855,0,0,1-5.9-5.3,13.845,13.845,0,0,0,3.311,5.605" transform="translate(-100.748 -70.776)" fill="#2487fe"/>
        <path id="Trazado_605609" data-name="Trazado 605609" d="M127.24,89.834A11.436,11.436,0,0,0,132.978,97a13.157,13.157,0,0,0,3.873,1.214h.021c.014-.056-.016-.121-.127-.2a1.393,1.393,0,0,0-.595-.148,11.2,11.2,0,0,1-5.635-2.889,13.847,13.847,0,0,1-3.312-5.605,2.277,2.277,0,0,0,.037.463" transform="translate(-100.747 -70.784)" fill="#2487fe"/>
        <path id="Trazado_605610" data-name="Trazado 605610" d="M180.082,98.026c-.265.027-.555.007-.738.215h.04a11.114,11.114,0,0,0,8.661-4.106,9.492,9.492,0,0,0,2.248-4.774,15.476,15.476,0,0,1-2.669,4.952,11.255,11.255,0,0,1-7.541,3.712" transform="translate(-142.044 -70.776)" fill="#2487fe"/>
        <path id="Trazado_605611" data-name="Trazado 605611" d="M161.133,299.514c-3.132.031-6.265,0-9.4.022-.765,0-1.846-.345-2.213.152-.384.52-.1,1.537-.1,2.337h12.4c.009-.6-.022-1.2.037-1.787s-.142-.73-.721-.724" transform="translate(-118.266 -237.147)" fill="#2487fe"/>
        <path id="Trazado_605612" data-name="Trazado 605612" d="M161,312.19q-5.171.011-10.341,0a1.333,1.333,0,0,1-1.028-.247c-.009.622.015,1.247-.036,1.865-.042.518.14.643.642.639,3.159-.023,6.317,0,9.476-.019.765,0,1.847.345,2.213-.15.384-.518.1-1.536.1-2.336a1.333,1.333,0,0,1-1.028.247" transform="translate(-118.48 -247.065)" fill="#57a3fe"/>
        <path id="Trazado_605613" data-name="Trazado 605613" d="M150.82,312.19q5.171.011,10.341,0a1.333,1.333,0,0,0,1.028-.247h-12.4a1.333,1.333,0,0,0,1.028.247" transform="translate(-118.638 -247.065)" fill="#57a3fe"/>
        <path id="Trazado_605614" data-name="Trazado 605614" d="M301.16,144.325c-1.189.018-1.511.336-1.514,1.546-.013,4.2,0,8.4-.007,12.593a6.051,6.051,0,0,1-.066,1.316,2.316,2.316,0,0,1-.157.254c.364.453.2,1,.21,1.506.022,2.157.1,2.251,2.233,2.251,1.115,0,2.23.016,3.345-.006,1.05-.022,1.406-.36,1.41-1.421.02-5.534-.005-11.069.024-16.6a2.141,2.141,0,0,0-.974-1.669,1.47,1.47,0,0,1-1.013.225c-1.164.012-2.328-.008-3.491.009m2.747,17.223c-2.023.1-2.025.113-2.022-1.9q.01-5.917.025-11.833c-.066-1.25-.066-1.25,1.142-1.25h.155c1.208,0,1.208,0,1.142,1.25q.013,6.618.032,13.235c0,.363-.1.476-.474.495" transform="translate(-237.143 -114.123)"/>
        <path id="Trazado_605615" data-name="Trazado 605615" d="M299.393,159.615a6.049,6.049,0,0,0,.066-1.316c0-4.2-.006-8.4.007-12.593,0-1.21.325-1.528,1.514-1.546,1.164-.017,2.328,0,3.491-.009a1.469,1.469,0,0,0,1.013-.225l-.047-.043q-2.248.013-4.5.025c-1.359.005-1.725.377-1.727,1.764q-.012,7.07-.026,14.139c.017.019.032.038.047.057a2.267,2.267,0,0,0,.157-.253" transform="translate(-236.963 -113.958)"/>
        <path id="Trazado_605616" data-name="Trazado 605616" d="M305.488,144a2.141,2.141,0,0,1,.974,1.669c-.029,5.534,0,11.069-.024,16.6,0,1.061-.36,1.4-1.41,1.421-1.115.023-2.23.006-3.345.006-2.13,0-2.211-.094-2.233-2.251-.005-.5.154-1.053-.21-1.506-.015.022-.03.045-.046.066.008.814.014,1.628.025,2.443.014,1.02.457,1.48,1.462,1.486q2.252.015,4.5,0c1.053-.005,1.5-.457,1.5-1.527q.006-8.442,0-16.883c0-.962-.251-1.289-1.175-1.551l0,.009-.018.014" transform="translate(-236.967 -114.035)"/>
        <path id="Trazado_605617" data-name="Trazado 605617" d="M329.279,143.926l.018-.014,0-.009-.07-.02.047.043" transform="translate(-260.758 -113.958)"/>
        <path id="Trazado_605618" data-name="Trazado 605618" d="M299.188,220.47v.123c.016-.021.031-.044.046-.066-.015-.019-.03-.038-.047-.057" transform="translate(-236.963 -174.616)"/>
        <path id="Trazado_605619" data-name="Trazado 605619" d="M32.062,111a7.521,7.521,0,0,0,6.921-7.072c.047-1.149-.4-1.636-1.536-1.64-1.374-.006-2.748-.018-4.121.008-.435.008-.588-.112-.565-.559.036-.7.009-1.4.009-2.1s.007-1.4,0-2.1c-.012-1.042-.5-1.5-1.552-1.473A7.484,7.484,0,1,0,32.062,111M30.281,98.788c0,1.481,0,2.958,0,4.436,0,1.115.439,1.555,1.546,1.559,1.475.005,2.95,0,4.429,0a4.828,4.828,0,0,1-5.031,3.73,5.019,5.019,0,0,1-4.67-4.674,4.825,4.825,0,0,1,3.725-5.051" transform="translate(-19.072 -76.08)"/>
        <path id="Trazado_605620" data-name="Trazado 605620" d="M258.767,171.542a3.652,3.652,0,0,1-.1-1.235q-.005-5.605,0-11.211a7.807,7.807,0,0,0-.03-.933,1,1,0,0,0-1-1c-1.63-.068-3.263-.064-4.893,0a1.013,1.013,0,0,0-1.02.984,7.491,7.491,0,0,0-.035,1.011q0,6.345,0,12.69a2.107,2.107,0,0,1-.2,1.284l-.035.012a2.272,2.272,0,0,0,2.347.991c1.106-.064,2.219-.008,3.33-.017,1.228-.009,1.507-.283,1.566-1.487.015-.314-.044-.655.219-.905a.466.466,0,0,1-.138-.183m-2.814.321c-2.023.089-2.026.1-2.022-1.89q.009-4.672.025-9.345c-.065-1.25-.065-1.25,1.142-1.25h.155c1.207,0,1.207,0,1.142,1.25.009,3.582.012,7.165.033,10.747,0,.368-.1.471-.474.488" transform="translate(-199.148 -124.438)"/>
        <path id="Trazado_605621" data-name="Trazado 605621" d="M251.366,172.246a2.106,2.106,0,0,0,.2-1.284q.009-6.345,0-12.69a7.452,7.452,0,0,1,.035-1.011,1.013,1.013,0,0,1,1.02-.984c1.63-.063,3.263-.066,4.893,0a1,1,0,0,1,1,1,7.807,7.807,0,0,1,.03.933q0,5.605,0,11.211a3.659,3.659,0,0,0,.1,1.235.467.467,0,0,0,.139.183c.011-.01.018-.021.03-.031-.009-.285-.025-.569-.025-.854q0-6.186,0-12.372c0-1.159-.43-1.58-1.6-1.583-1.346,0-2.692,0-4.038,0-1.487,0-1.828.341-1.83,1.82q-.012,7.2-.026,14.393c.01.017.02.031.03.047l.035-.012" transform="translate(-199.035 -123.552)"/>
        <path id="Trazado_605622" data-name="Trazado 605622" d="M258.618,228.268c-.059,1.2-.338,1.478-1.566,1.487-1.11.009-2.223-.047-3.33.017a2.272,2.272,0,0,1-2.347-.991l-.018.006a1.267,1.267,0,0,0,1.315,1.191c1.624.014,3.248.02,4.871,0a1.236,1.236,0,0,0,1.294-1.33c.017-.421.019-.842.027-1.263l-.03-.021c-.264.251-.2.591-.219.905" transform="translate(-199.08 -180.076)"/>
        <path id="Trazado_605623" data-name="Trazado 605623" d="M287.348,227.212h0c-.012.01-.02.021-.031.031l.03.021c0-.017,0-.035,0-.052" transform="translate(-227.561 -179.956)"/>
        <path id="Trazado_605624" data-name="Trazado 605624" d="M251.3,233.96c0,.019.008.035.012.053l.018-.006c-.01-.016-.02-.031-.03-.047" transform="translate(-199.036 -185.301)"/>
        <path id="Trazado_605625" data-name="Trazado 605625" d="M229.642,96.254q-1.243.018-2.487,0a1.757,1.757,0,0,0-1.471.713c-1.579,1.925-3.206,3.81-4.756,5.757a2.431,2.431,0,0,1-2.184,1.035c-1.707-.069-3.419,0-5.128-.029a1.652,1.652,0,0,0-1.712,1.057c-.49,1.059-1.043,2.089-1.554,3.139a1.3,1.3,0,0,1-1.293.8c-1.218-.008-2.435-.012-3.653,0-.781.009-.822.074-.82,1.033s.047,1.013.84,1.019c1.58.011,3.161-.014,4.741.01a1.558,1.558,0,0,0,1.581-1.011c.392-.847.893-1.649,1.23-2.516a2.082,2.082,0,0,1,2.372-1.493c1.47.1,2.953-.008,4.428.036a2.326,2.326,0,0,0,2.07-.953c1.488-1.864,3.064-3.658,4.552-5.523a2.263,2.263,0,0,1,2.183-1.028c.408.051.828,0,1.242.016a1.015,1.015,0,0,1,.716.192.207.207,0,0,1,.138-.1c.788-.046.813-.552.888-1.2.1-.875-.538-.911-1.006-1.171a1.246,1.246,0,0,1-.918.211" transform="translate(-162.035 -76.068)"/>
        <path id="Trazado_605626" data-name="Trazado 605626" d="M228.922,98.215c-.414-.021-.834.035-1.242-.016a2.263,2.263,0,0,0-2.183,1.028c-1.488,1.865-3.064,3.659-4.552,5.523a2.326,2.326,0,0,1-2.07.953c-1.475-.044-2.958.066-4.428-.036a2.082,2.082,0,0,0-2.372,1.493c-.337.867-.837,1.669-1.23,2.516a1.558,1.558,0,0,1-1.581,1.011c-1.58-.024-3.16,0-4.741-.01-.793-.006-.838-.075-.84-1.018,0-.959.039-1.023.82-1.033,1.218-.015,2.435-.011,3.653,0a1.3,1.3,0,0,0,1.292-.8c.511-1.05,1.064-2.08,1.554-3.139a1.652,1.652,0,0,1,1.712-1.057c1.709.033,3.421-.04,5.128.029a2.432,2.432,0,0,0,2.184-1.035c1.55-1.947,3.178-3.832,4.756-5.757a1.757,1.757,0,0,1,1.471-.713q1.243.016,2.487,0a1.245,1.245,0,0,0,.918-.211l-.051-.029c-1.114.009-2.228.047-3.34.015a1.846,1.846,0,0,0-1.6.75c-1.725,2.107-3.482,4.187-5.208,6.292a1.12,1.12,0,0,1-.979.463c-1.995-.022-3.99.008-5.985-.019a1.54,1.54,0,0,0-1.582.991c-.533,1.151-1.15,2.263-1.677,3.417a.9.9,0,0,1-1.009.6c-.957-.043-1.917-.012-2.875-.012-1.942,0-1.926,0-1.894,1.945.007.443.131.564.566.559,1.787-.023,3.576-.028,5.363,0a1.541,1.541,0,0,0,1.58-1c.512-1.1,1.112-2.168,1.61-3.278a1.056,1.056,0,0,1,1.159-.742c1.812.051,3.627-.007,5.44.03a1.994,1.994,0,0,0,1.736-.806c1.7-2.092,3.449-4.147,5.16-6.232a1.082,1.082,0,0,1,.977-.469c.853.041,1.708.027,2.563.035h0l.03-.043a1.016,1.016,0,0,0-.716-.192" transform="translate(-161.133 -75.958)"/>
        <path id="Trazado_605627" data-name="Trazado 605627" d="M330.4,97.12c-.076.648-.1,1.155-.888,1.2a.207.207,0,0,0-.138.1.521.521,0,0,1,.038.039c1.176-.062,1.178-.084,1.179-1.192,0-1.256,0-1.284-1.167-1.346-.009.01-.019.016-.029.025.467.26,1.108.3,1.006,1.171" transform="translate(-260.874 -75.974)"/>
        <path id="Trazado_605628" data-name="Trazado 605628" d="M329.282,95.933c.009-.009.019-.015.029-.025l-.08,0,.051.029" transform="translate(-260.757 -75.958)"/>
        <path id="Trazado_605629" data-name="Trazado 605629" d="M329.262,107.94l-.03.043.068,0c-.012-.015-.025-.027-.038-.04" transform="translate(-260.758 -85.491)"/>
        <path id="Trazado_605630" data-name="Trazado 605630" d="M210.813,191.013c-.008-2.7,0-5.393-.006-8.09,0-1.5-.268-1.758-1.773-1.762q-1.708-.006-3.416,0c-1.536,0-1.786.257-1.789,1.826-.005,2.671,0,5.341-.005,8.012a1.787,1.787,0,0,1-.222,1.2l-.006,0a2.232,2.232,0,0,0,2.331.979,21.363,21.363,0,0,1,2.784,0,2.232,2.232,0,0,0,2.332-.981,1.71,1.71,0,0,1-.23-1.186m-2.719-.108c-2.022.1-2.024.107-2.02-1.887,0-1.45.015-2.9.022-4.35-.06-1.258-.06-1.258,1.144-1.258h.154c1.2,0,1.2,0,1.144,1.258.008,1.916.007,3.832.03,5.748,0,.367-.1.471-.476.489" transform="translate(-161.251 -143.48)"/>
        <path id="Trazado_605631" data-name="Trazado 605631" d="M203.452,191.271l.006,0a1.787,1.787,0,0,0,.223-1.2c.007-2.67,0-5.341,0-8.012,0-1.569.253-1.821,1.789-1.826q1.708-.006,3.416,0c1.5,0,1.769.262,1.773,1.762.007,2.7,0,5.393.006,8.09a1.709,1.709,0,0,0,.23,1.186c.012-.02.025-.038.036-.059q-.013-4.821-.026-9.641c0-1.157-.431-1.579-1.6-1.582q-2.1-.005-4.191,0c-1.275,0-1.674.4-1.677,1.661q-.013,4.782-.026,9.563h0c.012.021.025.04.037.061" transform="translate(-161.109 -142.552)"/>
        <path id="Trazado_605632" data-name="Trazado 605632" d="M210.978,234.244a2.232,2.232,0,0,1-2.333.981,21.29,21.29,0,0,0-2.783,0,2.233,2.233,0,0,1-2.332-.979l-.017.011c.26.921.588,1.173,1.537,1.176q2.2.008,4.4,0c.951,0,1.275-.253,1.539-1.18l-.013,0,0-.005" transform="translate(-161.187 -185.526)"/>
        <path id="Trazado_605633" data-name="Trazado 605633" d="M239.4,234.019l0,.005.013,0c.006-.023.013-.044.02-.068-.012.021-.024.039-.036.059" transform="translate(-189.612 -185.301)"/>
        <path id="Trazado_605634" data-name="Trazado 605634" d="M203.416,233.96h0c.007.025.014.047.02.071l.017-.011c-.012-.021-.025-.039-.037-.061" transform="translate(-161.109 -185.301)"/>
        <path id="Trazado_605635" data-name="Trazado 605635" d="M88.67,179.915c-7.02.025-14.041.016-21.062.016-1.816,0-1.788,0-1.82,1.789-.011.59.15.724.726.72,3.678-.028,7.357-.014,11.036-.014H87.731c1.731,0,1.7,0,1.744-1.711.018-.655-.163-.8-.805-.8" transform="translate(-52.105 -142.496)"/>
        <path id="Trazado_605636" data-name="Trazado 605636" d="M43.176,203.932c-3.108.02-6.216.01-9.324.01H25.692c-1.806,0-1.775,0-1.81,1.8-.012.609.181.71.737.708,5.776-.021,11.552-.013,17.328-.013,1.9,0,1.879,0,1.886-1.877,0-.532-.172-.631-.657-.627" transform="translate(-18.915 -161.518)"/>
        <path id="Trazado_605637" data-name="Trazado 605637" d="M112.944,229.6a.555.555,0,0,0-.6-.491c-.259-.015-.518-.015-.777-.015-4.714,0-9.428.018-14.141-.017-.842-.006-1.477.09-1.631,1.052l-.047.016c.277.921.976.974,1.823.968q6.9-.054,13.8,0c.841.007,1.535-.047,1.816-.948l0,0a.971.971,0,0,1-.243-.562" transform="translate(-75.837 -181.429)"/>
        <path id="Trazado_605638" data-name="Trazado 605638" d="M95.736,229.252c.155-.962.789-1.058,1.631-1.052,4.713.036,9.428.017,14.141.017.259,0,.518,0,.777.015a.555.555,0,0,1,.6.491.974.974,0,0,0,.243.562l0,0c.007-.024.016-.046.023-.071-.065-1.246-.065-1.246-1.358-1.246H97.029c-1.292,0-1.292,0-1.357,1.246,0,.018.011.034.016.052l.047-.016" transform="translate(-75.774 -180.557)"/>
        <path id="Trazado_605639" data-name="Trazado 605639" d="M111.325,235.176q-6.9-.054-13.8,0c-.847.007-1.545-.047-1.822-.968l-.014,0c.063,1.19.083,1.193,1.355,1.193h14.764c1.262,0,1.292,0,1.354-1.167l-.019-.011c-.281.9-.976.955-1.816.948" transform="translate(-75.785 -185.497)"/>
        <path id="Trazado_605640" data-name="Trazado 605640" d="M95.671,233.96c0,.02,0,.037,0,.056l.014,0c-.005-.018-.012-.033-.017-.052" transform="translate(-75.773 -185.301)"/>
        <path id="Trazado_605641" data-name="Trazado 605641" d="M179.611,234.031l.018.011c0-.028,0-.053,0-.082-.007.025-.015.047-.023.071" transform="translate(-142.255 -185.301)"/>
        <path id="Trazado_605642" data-name="Trazado 605642" d="M108.352,158.456c2.278-.024,4.557-.011,6.835-.011h5.67c1.807,0,1.777,0,1.811-1.8.012-.6-.172-.715-.734-.711-4.117.025-8.233.013-12.35.013-1.9,0-1.88,0-1.886,1.875,0,.527.164.636.654.631" transform="translate(-85.299 -123.506)"/>
        <path id="Trazado_605643" data-name="Trazado 605643" d="M34.661,229.05q-4.472.068-8.947,0c-.849-.013-1.473.1-1.624,1.06l-.01,0a.555.555,0,0,1,.18.348c.068.495.388.614.826.614q1.163,0,2.326,0c2.4,0,4.808-.025,7.211.014.843.014,1.6.01,1.886-.948h0c-.211-1.053-.948-1.1-1.845-1.09" transform="translate(-19.072 -181.411)"/>
        <path id="Trazado_605644" data-name="Trazado 605644" d="M23.9,229.256c.152-.958.776-1.073,1.624-1.06q4.472.07,8.947,0c.9-.014,1.634.037,1.845,1.09h0c.007-.024.016-.046.022-.071-.065-1.246-.065-1.246-1.356-1.246H25.2c-1.291,0-1.291,0-1.357,1.246a.494.494,0,0,1,.05.043l.01,0" transform="translate(-18.883 -180.557)"/>
        <path id="Trazado_605645" data-name="Trazado 605645" d="M34.446,235.141c-2.4-.038-4.807-.013-7.211-.014-.775,0-1.551,0-2.326,0-.437,0-.758-.119-.826-.614a.555.555,0,0,0-.18-.348l-.047.014c.063,1.189.083,1.192,1.354,1.192H35c1.264,0,1.291,0,1.353-1.173l-.018-.005c-.287.958-1.043.962-1.886.948" transform="translate(-18.895 -185.463)"/>
        <path id="Trazado_605646" data-name="Trazado 605646" d="M23.842,233.96c0,.02,0,.037,0,.057l.046-.015a.469.469,0,0,0-.049-.043" transform="translate(-18.883 -185.301)"/>
        <path id="Trazado_605647" data-name="Trazado 605647" d="M83.842,234.031l.018.005c0-.026,0-.049,0-.076-.007.025-.015.047-.022.071" transform="translate(-66.404 -185.301)"/>
        <path id="Trazado_605648" data-name="Trazado 605648" d="M141.36,131.95a.4.4,0,0,1-.209.166,7.049,7.049,0,0,1-1.776.085c-1.887.011-3.774-.009-5.66.011-.769.008-.841.12-.84,1.036,0,.866.06.958.818.962q3.877.02,7.754,0c.8,0,.876-.1.9-.9a4.714,4.714,0,0,1,.08-1.157.635.635,0,0,1,.067-.131.9.9,0,0,1-1.136-.072" transform="translate(-105.239 -104.507)"/>
        <path id="Trazado_605649" data-name="Trazado 605649" d="M141.458,132.1a4.694,4.694,0,0,0-.08,1.157c-.027.8-.1.9-.9.9q-3.877.02-7.754,0c-.758,0-.817-.1-.818-.962,0-.916.071-1.027.84-1.036,1.887-.02,3.774,0,5.661-.011a7.048,7.048,0,0,0,1.776-.085.4.4,0,0,0,.209-.166l-.018-.013q-3.453.013-6.906.025c-1.831,0-1.811,0-1.816,1.864,0,.505.13.65.64.643,2.3-.028,4.605,0,6.908-.019.792-.006,1.879.351,2.293-.151.4-.48.107-1.529.119-2.328-.028.018-.056.033-.083.049a.624.624,0,0,0-.066.131" transform="translate(-104.268 -104.456)"/>
        <path id="Trazado_605650" data-name="Trazado 605650" d="M174.811,131.972a.489.489,0,0,1,.043-.05l-1.176-.034a.093.093,0,0,1,0,.013.9.9,0,0,0,1.136.072" transform="translate(-137.554 -104.458)"/>
        <path id="Trazado_605651" data-name="Trazado 605651" d="M173.611,131.886h-.021l.018.014a.1.1,0,0,0,0-.013" transform="translate(-137.487 -104.455)"/>
        <path id="Trazado_605652" data-name="Trazado 605652" d="M179.178,132.052a.471.471,0,0,0-.043.05c.028-.016.055-.031.083-.049h-.04" transform="translate(-141.878 -104.588)"/>
        <path id="Trazado_605653" data-name="Trazado 605653" d="M141.063,203.935c-1.448.025-2.9.01-4.347.009h-3.26c-1.827,0-1.806,0-1.812,1.869,0,.515.146.642.646.637,2.483-.025,4.967-.011,7.451-.011,1.936,0,1.92,0,1.887-1.947-.007-.443-.133-.565-.567-.557" transform="translate(-104.265 -161.52)"/>
        <path id="Trazado_605654" data-name="Trazado 605654" d="M24.447,182.466c1.266-.026,2.533-.009,3.8-.009,1.987,0,1.975,0,1.881-2.026-.017-.374-.122-.485-.488-.476-.878.023-1.757.007-2.636.007h-1.24c-1.931,0-1.916,0-1.882,1.948.007.443.134.565.567.556" transform="translate(-18.907 -142.527)"/>
        <path id="Trazado_605655" data-name="Trazado 605655" d="M109.052,134.507c1.2,0,1.2,0,1.2-1.21,0-1.285,0-1.285-1.285-1.285-1.2,0-1.2,0-1.2,1.21,0,1.285,0,1.285,1.285,1.285" transform="translate(-85.354 -104.556)"/>
        <path id="Trazado_605656" data-name="Trazado 605656" d="M311.31,162.009h0q-.013,5.917-.025,11.833c0,2.008,0,2,2.022,1.9.378-.019.475-.132.474-.495q-.028-6.617-.032-13.235H311.31" transform="translate(-246.544 -128.314)" fill="#fe7956"/>
        <path id="Trazado_605657" data-name="Trazado 605657" d="M313.759,157.251c.066-1.249.066-1.249-1.142-1.249h-.155c-1.208,0-1.208,0-1.142,1.249a2.774,2.774,0,0,1,2.438,0" transform="translate(-246.555 -123.557)" fill="#fe5023"/>
        <path id="Trazado_605658" data-name="Trazado 605658" d="M313.845,160.934a2.774,2.774,0,0,0-2.438,0h2.438" transform="translate(-246.64 -127.24)" fill="#fe5023"/>
        <path id="Trazado_605659" data-name="Trazado 605659" d="M40.624,118.907a4.828,4.828,0,0,0,5.031-3.73c-1.48,0-2.954,0-4.429,0-1.107,0-1.543-.444-1.546-1.559,0-1.477,0-2.955,0-4.436a4.825,4.825,0,0,0-3.725,5.051,5.019,5.019,0,0,0,4.67,4.674" transform="translate(-28.469 -86.474)" fill="#fedd55"/>
        <path id="Trazado_605660" data-name="Trazado 605660" d="M263.424,174.006h0q-.013,4.672-.025,9.345c0,1.991,0,1.978,2.022,1.89.375-.016.476-.12.474-.488-.021-3.582-.024-7.165-.033-10.747h-2.438" transform="translate(-208.617 -137.816)" fill="#fedd55"/>
        <path id="Trazado_605661" data-name="Trazado 605661" d="M265.874,169.247c.065-1.25.065-1.25-1.142-1.25h-.155c-1.207,0-1.207,0-1.142,1.25a2.772,2.772,0,0,1,2.438,0" transform="translate(-208.629 -133.057)" fill="#eabe00"/>
        <path id="Trazado_605662" data-name="Trazado 605662" d="M265.959,172.93a2.772,2.772,0,0,0-2.438,0h2.438" transform="translate(-208.714 -136.74)" fill="#eabe00"/>
        <path id="Trazado_605663" data-name="Trazado 605663" d="M215.536,198.034c-.008,1.45-.02,2.9-.022,4.35,0,1.994,0,1.982,2.02,1.887.373-.018.48-.122.476-.489-.023-1.916-.023-3.832-.03-5.748h-2.443" transform="translate(-170.691 -156.847)" fill="#00d6de"/>
        <path id="Trazado_605664" data-name="Trazado 605664" d="M217.99,193.245c.06-1.258.06-1.258-1.145-1.258h-.154c-1.2,0-1.2,0-1.144,1.258a2.7,2.7,0,0,1,2.443,0" transform="translate(-170.702 -152.057)" fill="#009597"/>
        <path id="Trazado_605665" data-name="Trazado 605665" d="M215.623,196.921h2.443a2.7,2.7,0,0,0-2.443,0" transform="translate(-170.778 -155.733)" fill="#009597"/>
      </g>
    </g>
  </g>
</svg>
