<svg xmlns="http://www.w3.org/2000/svg" xmlns:xlink="http://www.w3.org/1999/xlink" width="558.405" height="74.86" viewBox="0 0 558.405 74.86">
  <defs>
    <clipPath id="clip-path">
      <rect id="Rectángulo_290786" data-name="Rectángulo 290786" width="73.678" height="74.861" fill="none"/>
    </clipPath>
  </defs>
  <g id="Grupo_874036" data-name="Grupo 874036" transform="translate(-180 -13739.855)">
    <path id="Trazado_605146" data-name="Trazado 605146" d="M0,0,532.774,3.075,536.739,52H0Z" transform="translate(180 13751.33)" fill="#fff0a6"/>
    <path id="Trazado_609227" data-name="Trazado 609227" d="M4.952,17.693V23H1.182V7.359H7.423A7.269,7.269,0,0,1,10.6,8.02,4.979,4.979,0,0,1,12.735,9.9a5.134,5.134,0,0,1,.757,2.766,4.526,4.526,0,0,1-1.638,3.658,6.8,6.8,0,0,1-4.5,1.37Zm0-2.911H7.423a2.33,2.33,0,0,0,1.67-.548,2.035,2.035,0,0,0,.575-1.547,2.516,2.516,0,0,0-.591-1.751,2.092,2.092,0,0,0-1.611-.666H4.952Zm17.413-.129-1.192-.086a2.142,2.142,0,0,0-2.191,1.074V23h-3.62V11.377h3.395l.118,1.493a2.8,2.8,0,0,1,2.546-1.708,3.53,3.53,0,0,1,1.01.129Zm.462,2.428a6.86,6.86,0,0,1,.677-3.1,4.84,4.84,0,0,1,1.944-2.089,5.856,5.856,0,0,1,2.976-.73,5.344,5.344,0,0,1,4.114,1.617,6.2,6.2,0,0,1,1.5,4.4v.129a6.019,6.019,0,0,1-1.509,4.313,5.359,5.359,0,0,1-4.087,1.6,5.42,5.42,0,0,1-3.985-1.488,5.819,5.819,0,0,1-1.622-4.034Zm3.62.226a4.325,4.325,0,0,0,.5,2.363,1.682,1.682,0,0,0,1.493.752q1.934,0,1.977-2.976v-.365q0-3.126-2-3.126-1.815,0-1.966,2.7Zm8.733-.2a7.1,7.1,0,0,1,1.192-4.351,3.925,3.925,0,0,1,3.33-1.59,3.338,3.338,0,0,1,2.621,1.225V6.5h3.631V23H42.7l-.183-1.246a3.428,3.428,0,0,1-2.836,1.461,3.918,3.918,0,0,1-3.287-1.59A7.325,7.325,0,0,1,35.181,17.1Zm3.62.226q0,3.094,1.8,3.094a1.782,1.782,0,0,0,1.719-1.01V14.986a1.734,1.734,0,0,0-1.7-1.031q-1.676,0-1.815,2.707Zm16.135,4.415a3.732,3.732,0,0,1-3.1,1.472,3.661,3.661,0,0,1-2.9-1.112,4.676,4.676,0,0,1-.983-3.2v-7.53h3.62v7.552a1.3,1.3,0,0,0,1.45,1.493A1.892,1.892,0,0,0,54.8,19.53V11.377h3.642V23H55.043Zm10.4-1.321a1.61,1.61,0,0,0,1.182-.414,1.517,1.517,0,0,0,.408-1.155h3.395a4.018,4.018,0,0,1-1.37,3.137,5.1,5.1,0,0,1-3.529,1.225,5.158,5.158,0,0,1-4-1.59,6.264,6.264,0,0,1-1.461-4.4v-.15a7.08,7.08,0,0,1,.65-3.11,4.732,4.732,0,0,1,1.875-2.073,5.589,5.589,0,0,1,2.9-.725,5.03,5.03,0,0,1,3.6,1.257,4.458,4.458,0,0,1,1.332,3.405H66.924a1.987,1.987,0,0,0-.44-1.386,1.52,1.52,0,0,0-1.182-.483q-1.407,0-1.644,1.794a12.659,12.659,0,0,0-.075,1.568A4.972,4.972,0,0,0,64,19.745,1.45,1.45,0,0,0,65.334,20.422ZM76.065,8.487v2.89h1.912v2.514H76.065v5.317a1.358,1.358,0,0,0,.236.913,1.268,1.268,0,0,0,.935.258,5.311,5.311,0,0,0,.9-.064V22.9a6.681,6.681,0,0,1-2.041.312,3.792,3.792,0,0,1-2.761-.881,3.61,3.61,0,0,1-.892-2.675V13.891H70.963V11.377h1.482V8.487Zm2.557,8.594a6.86,6.86,0,0,1,.677-3.1,4.84,4.84,0,0,1,1.944-2.089,5.856,5.856,0,0,1,2.976-.73,5.344,5.344,0,0,1,4.114,1.617,6.2,6.2,0,0,1,1.5,4.4v.129a6.019,6.019,0,0,1-1.509,4.313,5.359,5.359,0,0,1-4.087,1.6,5.42,5.42,0,0,1-3.985-1.488,5.819,5.819,0,0,1-1.622-4.034Zm3.62.226a4.325,4.325,0,0,0,.5,2.363,1.682,1.682,0,0,0,1.493.752q1.934,0,1.977-2.976v-.365q0-3.126-2-3.126-1.815,0-1.966,2.7Zm15.275,2.428a.836.836,0,0,0-.483-.741,7.353,7.353,0,0,0-1.837-.58,8.376,8.376,0,0,1-2.234-.79,3.743,3.743,0,0,1-1.343-1.187,2.834,2.834,0,0,1-.462-1.6A3.212,3.212,0,0,1,92.479,12.2a5.443,5.443,0,0,1,3.459-1.037,6.03,6.03,0,0,1,3.7,1.042,3.258,3.258,0,0,1,1.4,2.739H97.4q0-1.4-1.472-1.4a1.459,1.459,0,0,0-.956.317.981.981,0,0,0-.387.79.9.9,0,0,0,.473.784,4.466,4.466,0,0,0,1.509.494,13.043,13.043,0,0,1,1.821.462q2.621.9,2.621,3.233A3.044,3.044,0,0,1,99.6,22.216a6.2,6.2,0,0,1-3.658,1,6.322,6.322,0,0,1-2.664-.537,4.455,4.455,0,0,1-1.826-1.461,3.308,3.308,0,0,1-.655-1.944h3.384a1.4,1.4,0,0,0,.537,1.176,2.209,2.209,0,0,0,1.321.371,1.738,1.738,0,0,0,1.112-.3A.962.962,0,0,0,97.518,19.734Zm15.308-1.8,1.934-6.553h3.878L113.9,24.944l-.2.494a3.6,3.6,0,0,1-3.566,2.256,5.674,5.674,0,0,1-1.493-.214V24.9h.473a2.476,2.476,0,0,0,1.166-.22,1.337,1.337,0,0,0,.6-.79l.29-.774-4.039-11.74h3.867Zm18.315,1.8a.836.836,0,0,0-.483-.741,7.353,7.353,0,0,0-1.837-.58,8.376,8.376,0,0,1-2.234-.79,3.743,3.743,0,0,1-1.343-1.187,2.834,2.834,0,0,1-.462-1.6A3.212,3.212,0,0,1,126.1,12.2a5.443,5.443,0,0,1,3.459-1.037,6.03,6.03,0,0,1,3.7,1.042,3.258,3.258,0,0,1,1.4,2.739h-3.631q0-1.4-1.472-1.4a1.459,1.459,0,0,0-.956.317.981.981,0,0,0-.387.79.9.9,0,0,0,.473.784,4.466,4.466,0,0,0,1.509.494,13.042,13.042,0,0,1,1.821.462q2.621.9,2.621,3.233a3.044,3.044,0,0,1-1.413,2.589,6.2,6.2,0,0,1-3.658,1,6.322,6.322,0,0,1-2.664-.537,4.455,4.455,0,0,1-1.826-1.461,3.308,3.308,0,0,1-.655-1.944H127.8a1.4,1.4,0,0,0,.537,1.176,2.209,2.209,0,0,0,1.321.371,1.738,1.738,0,0,0,1.112-.3A.962.962,0,0,0,131.141,19.734Zm10.807,3.48a5.975,5.975,0,0,1-4.329-1.6,5.509,5.509,0,0,1-1.654-4.152v-.3a7.138,7.138,0,0,1,.661-3.147,4.834,4.834,0,0,1,1.928-2.111,5.821,5.821,0,0,1,3.008-.747,5.031,5.031,0,0,1,3.867,1.52,5.973,5.973,0,0,1,1.418,4.238v1.407h-7.2a2.609,2.609,0,0,0,.849,1.536,2.525,2.525,0,0,0,1.7.559,3.254,3.254,0,0,0,2.686-1.2l1.654,1.955a4.624,4.624,0,0,1-1.917,1.488A6.48,6.48,0,0,1,141.947,23.215Zm-.408-9.26q-1.59,0-1.891,2.105H143.3v-.279a1.793,1.793,0,0,0-.44-1.348A1.753,1.753,0,0,0,141.539,13.955Zm13.793.7-1.192-.086a2.142,2.142,0,0,0-2.191,1.074V23h-3.62V11.377h3.395l.118,1.493a2.8,2.8,0,0,1,2.546-1.708,3.53,3.53,0,0,1,1.01.129Zm6.134,4.039,1.837-7.315h3.813L163.324,23h-3.7l-3.792-11.623h3.824ZM172.015,23h-3.631V11.377h3.631ZM168.169,8.38a1.616,1.616,0,0,1,.559-1.268,2.375,2.375,0,0,1,2.9,0,1.616,1.616,0,0,1,.559,1.268,1.616,1.616,0,0,1-.559,1.268,2.375,2.375,0,0,1-2.9,0A1.616,1.616,0,0,1,168.169,8.38Zm10.989,12.042a1.61,1.61,0,0,0,1.182-.414,1.517,1.517,0,0,0,.408-1.155h3.395a4.018,4.018,0,0,1-1.37,3.137,5.1,5.1,0,0,1-3.529,1.225,5.158,5.158,0,0,1-4-1.59,6.264,6.264,0,0,1-1.461-4.4v-.15a7.08,7.08,0,0,1,.65-3.11,4.732,4.732,0,0,1,1.875-2.073,5.589,5.589,0,0,1,2.9-.725,5.03,5.03,0,0,1,3.6,1.257,4.458,4.458,0,0,1,1.332,3.405h-3.395a1.987,1.987,0,0,0-.44-1.386,1.52,1.52,0,0,0-1.182-.483q-1.407,0-1.644,1.794a12.659,12.659,0,0,0-.075,1.568,4.972,4.972,0,0,0,.419,2.428A1.45,1.45,0,0,0,179.158,20.422ZM189.492,23h-3.631V11.377h3.631ZM185.646,8.38a1.616,1.616,0,0,1,.559-1.268,2.375,2.375,0,0,1,2.9,0,1.616,1.616,0,0,1,.559,1.268,1.616,1.616,0,0,1-.559,1.268,2.375,2.375,0,0,1-2.9,0A1.616,1.616,0,0,1,185.646,8.38Zm5.618,8.7a6.86,6.86,0,0,1,.677-3.1,4.84,4.84,0,0,1,1.944-2.089,5.856,5.856,0,0,1,2.976-.73,5.344,5.344,0,0,1,4.114,1.617,6.2,6.2,0,0,1,1.5,4.4v.129a6.019,6.019,0,0,1-1.509,4.313,5.359,5.359,0,0,1-4.087,1.6,5.42,5.42,0,0,1-3.985-1.488,5.819,5.819,0,0,1-1.622-4.034Zm3.62.226a4.325,4.325,0,0,0,.5,2.363,1.682,1.682,0,0,0,1.493.752q1.934,0,1.977-2.976v-.365q0-3.126-2-3.126-1.815,0-1.966,2.7Zm15.275,2.428a.836.836,0,0,0-.483-.741,7.353,7.353,0,0,0-1.837-.58,8.376,8.376,0,0,1-2.234-.79,3.743,3.743,0,0,1-1.343-1.187,2.835,2.835,0,0,1-.462-1.6,3.212,3.212,0,0,1,1.321-2.637,5.443,5.443,0,0,1,3.459-1.037,6.03,6.03,0,0,1,3.7,1.042,3.258,3.258,0,0,1,1.4,2.739h-3.631q0-1.4-1.472-1.4a1.459,1.459,0,0,0-.956.317.981.981,0,0,0-.387.79.9.9,0,0,0,.473.784,4.466,4.466,0,0,0,1.509.494,13.042,13.042,0,0,1,1.821.462q2.621.9,2.621,3.233a3.044,3.044,0,0,1-1.413,2.589,6.2,6.2,0,0,1-3.658,1,6.322,6.322,0,0,1-2.664-.537,4.455,4.455,0,0,1-1.826-1.461,3.308,3.308,0,0,1-.655-1.944h3.384a1.4,1.4,0,0,0,.537,1.176,2.209,2.209,0,0,0,1.321.371,1.738,1.738,0,0,0,1.112-.3A.962.962,0,0,0,210.16,19.734Zm6.456,7.477-1.826-.859.365-.73a5.958,5.958,0,0,0,.784-2.664V20.271h2.9l-.011,2.331a5.827,5.827,0,0,1-.634,2.514A6.387,6.387,0,0,1,216.616,27.211Zm16.672-10.979a7.289,7.289,0,0,1-.328,2.476,3.7,3.7,0,0,1-1.1,1.52l-.709.655a2.8,2.8,0,0,0-1,2,1.493,1.493,0,0,0,.36,1.112,1.279,1.279,0,0,0,.929.349,1.419,1.419,0,0,0,1.123-.457,1.974,1.974,0,0,0,.424-1.294h3.642a4.4,4.4,0,0,1-1.37,3.352,5.391,5.391,0,0,1-3.733,1.192,5.543,5.543,0,0,1-3.7-1.112,3.9,3.9,0,0,1-1.305-3.142,3.609,3.609,0,0,1,.408-1.681,6.667,6.667,0,0,1,1.4-1.713l.913-.838a2.468,2.468,0,0,0,.924-1.644l.054-.773Zm-1.439-1.45a2.081,2.081,0,0,1-1.434-.51,1.769,1.769,0,0,1,0-2.61,2.081,2.081,0,0,1,1.434-.51,2.046,2.046,0,0,1,1.445.521,1.767,1.767,0,0,1,0,2.589A2.046,2.046,0,0,1,231.849,14.782Zm11.73,8.433a5.975,5.975,0,0,1-4.329-1.6,5.509,5.509,0,0,1-1.654-4.152v-.3a7.138,7.138,0,0,1,.661-3.147,4.834,4.834,0,0,1,1.928-2.111,5.821,5.821,0,0,1,3.008-.747,5.031,5.031,0,0,1,3.867,1.52,5.973,5.973,0,0,1,1.418,4.238v1.407h-7.2a2.609,2.609,0,0,0,.849,1.536,2.525,2.525,0,0,0,1.7.559,3.254,3.254,0,0,0,2.686-1.2l1.654,1.955a4.624,4.624,0,0,1-1.917,1.488A6.48,6.48,0,0,1,243.579,23.215Zm-.408-9.26q-1.59,0-1.891,2.105h3.652v-.279a1.793,1.793,0,0,0-.44-1.348A1.753,1.753,0,0,0,243.171,13.955Zm10.087-2.578.118,1.364a3.942,3.942,0,0,1,3.319-1.579,3.316,3.316,0,0,1,2.712,1.085,5.165,5.165,0,0,1,.929,3.266V23h-3.631V15.663a1.961,1.961,0,0,0-.354-1.294,1.64,1.64,0,0,0-1.289-.414,1.726,1.726,0,0,0-1.579.838V23h-3.62V11.377Zm14.1,5.693a6.977,6.977,0,0,1,1.2-4.34,3.952,3.952,0,0,1,3.319-1.568,3.375,3.375,0,0,1,2.857,1.461L275,11.377h3.137V27.469h-3.631V22.033a3.37,3.37,0,0,1-2.643,1.182,3.917,3.917,0,0,1-3.282-1.6A7.366,7.366,0,0,1,267.362,17.07Zm3.62.226q0,3.126,1.8,3.126a1.748,1.748,0,0,0,1.719-.945v-4.6a1.71,1.71,0,0,0-1.7-.924q-1.687,0-1.815,2.7Zm16.124,4.447a3.732,3.732,0,0,1-3.1,1.472,3.66,3.66,0,0,1-2.9-1.112,4.676,4.676,0,0,1-.983-3.2v-7.53h3.62v7.552a1.3,1.3,0,0,0,1.45,1.493,1.892,1.892,0,0,0,1.772-.892V11.377h3.642V23h-3.395Zm11.107,1.472a5.975,5.975,0,0,1-4.329-1.6,5.509,5.509,0,0,1-1.654-4.152v-.3a7.138,7.138,0,0,1,.661-3.147,4.834,4.834,0,0,1,1.928-2.111,5.821,5.821,0,0,1,3.008-.747,5.031,5.031,0,0,1,3.867,1.52,5.973,5.973,0,0,1,1.418,4.238v1.407h-7.2a2.609,2.609,0,0,0,.849,1.536,2.525,2.525,0,0,0,1.7.559,3.254,3.254,0,0,0,2.686-1.2l1.654,1.955a4.624,4.624,0,0,1-1.917,1.488A6.48,6.48,0,0,1,298.214,23.215Zm-.408-9.26q-1.59,0-1.891,2.105h3.652v-.279a1.793,1.793,0,0,0-.44-1.348A1.753,1.753,0,0,0,297.806,13.955Zm-.043-7.466h3.824L298.6,9.862l-2.954-.005Zm18.369,13.245a.836.836,0,0,0-.483-.741,7.353,7.353,0,0,0-1.837-.58,8.376,8.376,0,0,1-2.234-.79,3.743,3.743,0,0,1-1.343-1.187,2.834,2.834,0,0,1-.462-1.6,3.212,3.212,0,0,1,1.321-2.637,5.443,5.443,0,0,1,3.459-1.037,6.03,6.03,0,0,1,3.7,1.042,3.258,3.258,0,0,1,1.4,2.739h-3.631q0-1.4-1.472-1.4a1.459,1.459,0,0,0-.956.317.981.981,0,0,0-.387.79.9.9,0,0,0,.473.784,4.466,4.466,0,0,0,1.509.494,13.043,13.043,0,0,1,1.821.462q2.621.9,2.621,3.233a3.044,3.044,0,0,1-1.413,2.589,6.2,6.2,0,0,1-3.658,1,6.322,6.322,0,0,1-2.664-.537,4.455,4.455,0,0,1-1.826-1.461,3.308,3.308,0,0,1-.655-1.944h3.384a1.4,1.4,0,0,0,.537,1.176,2.209,2.209,0,0,0,1.321.371,1.738,1.738,0,0,0,1.112-.3A.962.962,0,0,0,316.132,19.734Zm10.807,3.48a5.975,5.975,0,0,1-4.329-1.6,5.509,5.509,0,0,1-1.654-4.152v-.3a7.138,7.138,0,0,1,.661-3.147,4.834,4.834,0,0,1,1.928-2.111,5.821,5.821,0,0,1,3.008-.747,5.031,5.031,0,0,1,3.867,1.52,5.973,5.973,0,0,1,1.418,4.238v1.407h-7.2a2.609,2.609,0,0,0,.849,1.536,2.525,2.525,0,0,0,1.7.559,3.254,3.254,0,0,0,2.686-1.2l1.654,1.955a4.624,4.624,0,0,1-1.917,1.488A6.48,6.48,0,0,1,326.938,23.215Zm-.408-9.26q-1.59,0-1.891,2.105h3.652v-.279a1.793,1.793,0,0,0-.44-1.348A1.753,1.753,0,0,0,326.53,13.955ZM338.314,17.1a7.1,7.1,0,0,1,1.192-4.351,3.925,3.925,0,0,1,3.33-1.59,3.338,3.338,0,0,1,2.621,1.225V6.5h3.631V23h-3.255l-.183-1.246a3.428,3.428,0,0,1-2.836,1.461,3.918,3.918,0,0,1-3.287-1.59A7.325,7.325,0,0,1,338.314,17.1Zm3.62.226q0,3.094,1.8,3.094a1.782,1.782,0,0,0,1.719-1.01V14.986a1.734,1.734,0,0,0-1.7-1.031q-1.676,0-1.815,2.707ZM354.965,23h-3.631V11.377h3.631ZM351.119,8.38a1.616,1.616,0,0,1,.559-1.268,2.375,2.375,0,0,1,2.9,0,1.616,1.616,0,0,1,.559,1.268,1.616,1.616,0,0,1-.559,1.268,2.375,2.375,0,0,1-2.9,0A1.616,1.616,0,0,1,351.119,8.38ZM357.994,23V13.891h-1.687V11.377h1.687v-.924a4.016,4.016,0,0,1,1.171-3.083,4.626,4.626,0,0,1,3.287-1.1,7.2,7.2,0,0,1,1.7.226l.011,2.664a3.307,3.307,0,0,0-.892-.1q-1.644,0-1.644,1.418v.892h2.267v2.514h-2.267V23Zm12.794.215a5.975,5.975,0,0,1-4.329-1.6,5.509,5.509,0,0,1-1.654-4.152v-.3a7.138,7.138,0,0,1,.661-3.147,4.834,4.834,0,0,1,1.928-2.111,5.821,5.821,0,0,1,3.008-.747,5.031,5.031,0,0,1,3.867,1.52,5.973,5.973,0,0,1,1.418,4.238v1.407h-7.2a2.609,2.609,0,0,0,.849,1.536,2.525,2.525,0,0,0,1.7.559,3.254,3.254,0,0,0,2.686-1.2l1.654,1.955a4.624,4.624,0,0,1-1.917,1.488A6.48,6.48,0,0,1,370.788,23.215Zm-.408-9.26q-1.59,0-1.891,2.105h3.652v-.279a1.793,1.793,0,0,0-.44-1.348A1.753,1.753,0,0,0,370.38,13.955Zm13.793.7-1.192-.086a2.142,2.142,0,0,0-2.191,1.074V23h-3.62V11.377h3.395l.118,1.493a2.8,2.8,0,0,1,2.546-1.708,3.53,3.53,0,0,1,1.01.129Zm6.929,8.562a5.975,5.975,0,0,1-4.329-1.6,5.509,5.509,0,0,1-1.654-4.152v-.3a7.138,7.138,0,0,1,.661-3.147,4.834,4.834,0,0,1,1.928-2.111,5.821,5.821,0,0,1,3.008-.747,5.031,5.031,0,0,1,3.867,1.52A5.973,5.973,0,0,1,396,16.92v1.407h-7.2a2.609,2.609,0,0,0,.849,1.536,2.525,2.525,0,0,0,1.7.559,3.254,3.254,0,0,0,2.686-1.2l1.654,1.955a4.624,4.624,0,0,1-1.917,1.488A6.48,6.48,0,0,1,391.1,23.215Zm-.408-9.26q-1.59,0-1.891,2.105h3.652v-.279a1.793,1.793,0,0,0-.44-1.348A1.753,1.753,0,0,0,390.693,13.955Zm10.087-2.578.118,1.364a3.942,3.942,0,0,1,3.319-1.579,3.316,3.316,0,0,1,2.712,1.085,5.165,5.165,0,0,1,.929,3.266V23h-3.631V15.663a1.961,1.961,0,0,0-.354-1.294,1.64,1.64,0,0,0-1.289-.414,1.726,1.726,0,0,0-1.579.838V23h-3.62V11.377Zm14,9.045a1.61,1.61,0,0,0,1.182-.414,1.517,1.517,0,0,0,.408-1.155h3.395a4.018,4.018,0,0,1-1.37,3.137,5.1,5.1,0,0,1-3.529,1.225,5.158,5.158,0,0,1-4-1.59,6.264,6.264,0,0,1-1.461-4.4v-.15a7.08,7.08,0,0,1,.65-3.11,4.732,4.732,0,0,1,1.875-2.073,5.589,5.589,0,0,1,2.9-.725,5.03,5.03,0,0,1,3.6,1.257,4.458,4.458,0,0,1,1.332,3.405h-3.395a1.987,1.987,0,0,0-.44-1.386,1.52,1.52,0,0,0-1.182-.483q-1.407,0-1.644,1.794a12.656,12.656,0,0,0-.075,1.568,4.972,4.972,0,0,0,.419,2.428A1.45,1.45,0,0,0,414.777,20.422ZM425.111,23H421.48V11.377h3.631ZM421.266,8.38a1.616,1.616,0,0,1,.559-1.268,2.375,2.375,0,0,1,2.9,0,1.616,1.616,0,0,1,.559,1.268,1.616,1.616,0,0,1-.559,1.268,2.375,2.375,0,0,1-2.9,0A1.616,1.616,0,0,1,421.266,8.38ZM433.888,23a4.087,4.087,0,0,1-.344-1.042,3.366,3.366,0,0,1-2.793,1.257,4.124,4.124,0,0,1-2.793-.994,3.163,3.163,0,0,1-1.149-2.5,3.251,3.251,0,0,1,1.4-2.857,7.114,7.114,0,0,1,4.061-.967h1.117v-.615q0-1.608-1.386-1.608a1.133,1.133,0,0,0-1.289,1.274h-3.62a3.245,3.245,0,0,1,1.434-2.736,6.027,6.027,0,0,1,3.658-1.051,5.284,5.284,0,0,1,3.513,1.085,3.772,3.772,0,0,1,1.321,2.976v5.146a5.269,5.269,0,0,0,.494,2.449V23Zm-2.267-2.363a2.019,2.019,0,0,0,1.123-.29,1.818,1.818,0,0,0,.639-.655V17.833H432.33q-1.891,0-1.891,1.7a1.036,1.036,0,0,0,.333.8A1.205,1.205,0,0,0,431.621,20.637Zm10.721-9.26.118,1.364a3.942,3.942,0,0,1,3.319-1.579,3.316,3.316,0,0,1,2.712,1.085,5.165,5.165,0,0,1,.929,3.266V23H445.79V15.663a1.961,1.961,0,0,0-.354-1.294,1.64,1.64,0,0,0-1.289-.414,1.726,1.726,0,0,0-1.579.838V23h-3.62V11.377ZM454.1,18.048a6.992,6.992,0,0,1,.354-2.476A3.873,3.873,0,0,1,455.608,14a7.643,7.643,0,0,0,1.208-1.219,1.99,1.99,0,0,0,.414-1.219q0-1.622-1.4-1.622a1.3,1.3,0,0,0-1.042.473,2.01,2.01,0,0,0-.419,1.278h-3.631A4.331,4.331,0,0,1,452.1,8.342a5.4,5.4,0,0,1,3.738-1.2,5.606,5.606,0,0,1,3.711,1.106,3.883,3.883,0,0,1,1.316,3.147,3.666,3.666,0,0,1-.354,1.622,5.482,5.482,0,0,1-1.139,1.493l-1.235,1.149a2.906,2.906,0,0,0-.73,1.037,4.107,4.107,0,0,0-.226,1.348Zm-.44,3.266a1.667,1.667,0,0,1,.575-1.305,2.27,2.27,0,0,1,2.868,0,1.769,1.769,0,0,1,0,2.61,2.27,2.27,0,0,1-2.868,0A1.667,1.667,0,0,1,453.664,21.313Z" transform="translate(201.37 13762.786)" fill="#12263f"/>
    <g id="Grupo_870099" data-name="Grupo 870099" transform="translate(664.727 13739.855)">
      <g id="Grupo_870098" data-name="Grupo 870098" clip-path="url(#clip-path)">
        <path id="Trazado_605147" data-name="Trazado 605147" d="M98.1.329c-.265.037-.536,0-.8.023C96.459.41,96.153.653,96,1.466c-.123.645-.175,1.3-.253,1.954a1.73,1.73,0,0,1-2.609,1.3c-.548-.318-1.087-.651-1.625-.987A1.223,1.223,0,0,0,89.653,4c-.669.741-1.357,1.464-2.012,2.218a1.067,1.067,0,0,0-.1,1.624c.429.622.924,1.2,1.372,1.8a1.311,1.311,0,0,1-.11,1.665c-.289.307-.59.149-.874.03-1.371-.575-2.717-1.21-4.091-1.779-1.029-.426-1.438-.278-1.889.75-1.231,2.81-2.477,5.614-3.707,8.424-.144.328-.277.888-.605.824-.446-.086-.283-.652-.283-1.017q-.015-7.559-.007-15.119c0-.268.008-.536-.012-.8a.836.836,0,0,0-.825-.858.888.888,0,0,0-.936.833,10.383,10.383,0,0,0-.028,1.386c0,.9.01,1.8-.005,2.7-.014.815-.1.9-.927.973A23.517,23.517,0,0,0,62.108,12.5a24.158,24.158,0,0,0-4.926,5.162,1.632,1.632,0,0,0-.2,2.007c0,.03,0,.058,0,.086.856.283,1.087.177,1.717-.731a21.357,21.357,0,0,1,12.874-8.859,28.694,28.694,0,0,1,3.1-.5c.522-.068.714.019.7.616-.041,2.24-.017,4.481-.017,6.722q0,19.291.019,38.581c0,.724-.192.873-.88.854-1.9-.052-3.806-.012-5.71-.02a1.74,1.74,0,0,1-1.936-1.943c-.007-1.023-.043-2.048.012-3.068a1.661,1.661,0,0,0-.988-1.688,21.415,21.415,0,0,1-10.056-24.6c.3-1.033.193-1.382-.615-1.767a.847.847,0,0,1-.238.084,1.361,1.361,0,0,0-1.092,1.139A23.21,23.21,0,0,0,58.6,46.31a19.527,19.527,0,0,0,5.354,4.611,1.626,1.626,0,0,1,.915,1.666c-.038.68-.013,1.364-.006,2.046a3.6,3.6,0,0,0,2.03,3.385,1.256,1.256,0,0,1,.756,1.277c-.016,1.364-.006,2.729,0,4.093a6.041,6.041,0,0,0,6.121,6.282c1.841.036,1.8-.082,1.79,1.82,0,.682-.026,1.365.013,2.046.037.652.385,1.029.905,1.035s.838-.373.868-1.048c.019-.438.006-.877.006-1.316q0-11.8,0-23.61c0-.74.029-1.13.228-1.261V47.3l.045.02c.208-.091.571.036,1.207.31,3.025,1.3,6.033,2.646,9.055,3.954,1.119.485,1.255.738,1.006,1.675a1.233,1.233,0,0,1-1.788.785c-.493-.268-.934-.62-1.4-.932a1.094,1.094,0,0,0-1.635.114c-.6.568-1.194,1.152-1.759,1.759a1.126,1.126,0,0,0-.134,1.642c.242.4.537.755.793,1.141a1.266,1.266,0,0,1-.867,2.085c-.5.1-1.007.191-1.509.3a1.061,1.061,0,0,0-.927,1.133c-.014.853-.025,1.706,0,2.558.025.762.31,1.08,1.082,1.247.5.108,1.013.159,1.51.289a1.261,1.261,0,0,1,.765,2.039c-.3.443-.606.885-.9,1.334a.984.984,0,0,0,.109,1.332q.976,1.041,2.02,2.014a1.02,1.02,0,0,0,1.282.142,16.606,16.606,0,0,0,1.4-.926,1.287,1.287,0,0,1,2.05.777c.132.5.166,1.01.289,1.507.192.78.482,1.028,1.268,1.05.805.023,1.611.024,2.417,0,.834-.026,1.106-.269,1.3-1.1.1-.451.17-.91.258-1.364a1.262,1.262,0,0,1,2-.875c.442.26.828.6,1.265.872a1.087,1.087,0,0,0,1.577-.155c.633-.608,1.247-1.236,1.865-1.86a1,1,0,0,0,.138-1.384c-.287-.454-.634-.865-.918-1.321a1.253,1.253,0,0,1,.851-2.038c.5-.1,1.006-.2,1.511-.288a.986.986,0,0,0,.905-1.057c.007-.926.026-1.852-.006-2.777-.025-.715-.274-.965-1.007-1.128a2.435,2.435,0,0,1-1.319-.448,1.37,1.37,0,0,1,1.068-.268c2.441-.006,4.883-.02,7.323.007a2.479,2.479,0,0,0,1.969-.9c1.17-1.241,2.29-2.532,3.523-3.712a2.778,2.778,0,0,0,.911-2.14c-.014-5.7,0-11.4-.009-17.1,0-1.423-.362-1.776-1.776-1.777q-5.419,0-10.839,0c-.589,0-.922-.036-1.058-.189h-.032l.01-.024c-.123-.179-.02-.5.243-1.074.488-1.063.911-2.156,1.424-3.207a1.834,1.834,0,0,0,.015-1.683c-.268-.573-.47-1.176-.681-1.774a.62.62,0,0,1,.331-.839,1.984,1.984,0,0,1,2.607.058,7.351,7.351,0,0,0,1.3.813,1.079,1.079,0,0,0,1.573-.226c.769-.848,1.592-1.648,2.3-2.556a.977.977,0,0,0,.024-1.275c-.428-.623-.911-1.206-1.368-1.808a1.714,1.714,0,0,1,.954-2.645c.714-.163,1.433-.306,2.133-.521a1.1,1.1,0,0,0,.9-1.311,24.066,24.066,0,0,1-.111-2.7c-.034-1.175-.315-1.5-1.494-1.652-.6-.079-1.212-.144-1.816-.225a1.741,1.741,0,0,1-1.191-2.468c.371-.63.795-1.229,1.15-1.868a1.05,1.05,0,0,0-.226-1.561c-.823-.724-1.6-1.505-2.466-2.178a1.065,1.065,0,0,0-1.524-.032c-.566.424-1.12.864-1.7,1.276a1.754,1.754,0,0,1-2.679-.938,13.306,13.306,0,0,1-.36-1.641c-.085-.6-.517-1.025-.675-1.578H98.64c-.021.37-.325.3-.544.329M74.8,67.647c-.436-.038-.879.009-1.316-.021a3.932,3.932,0,0,1-3.831-4.066c-.01-1.461.018-2.922-.014-4.382-.011-.466.137-.566.576-.559,1.536.026,3.074.031,4.61,0,.474-.01.562.148.553.578-.026,1.314-.01,2.629-.009,3.944s-.02,2.63.011,3.944c.01.457-.13.6-.578.565M78.137,45.14a.833.833,0,0,1-.574-.925q.025-9.169.007-18.338a2.691,2.691,0,0,1,.237-1.123q2.749-6.23,5.463-12.476c.212-.489.376-.639.935-.389q6.393,2.853,12.822,5.623c.479.207.606.345.362.869-.913,1.958-1.767,3.944-2.634,5.923-.419.957-.231,1.429.717,1.863q1.289.591,2.581,1.177c1.221.527,2.439,1.063,3.666,1.576.28.117.288.236.174.489-.586,1.3-1.165,2.607-1.72,3.922-.125.3-.317.308-.569.306-.973-.005-1.946.02-2.918-.011a1.853,1.853,0,0,0-1.4.482C94,35.5,92.743,36.928,91.4,38.269a3.1,3.1,0,0,0-.944,2.41c.033,3.019,0,6.04.021,9.059,0,.615-.093.758-.713.483q-5.8-2.576-11.627-5.081m23.294-26.661c-.377.192-.65.257-.754-.268a3.341,3.341,0,0,0-2.57-2.646c-.76-.236-1.458-.665-2.21-.933-.525-.187-.562-.486-.437-.94a4.2,4.2,0,1,1,5.97,4.788m.063,7.924c-1.448-.639-2.744-1.221-4.05-1.778-.33-.141-.282-.3-.165-.559.578-1.28,1.139-2.567,1.754-3.961l2.461,6.3m.265,36.17c-.013.583-.18.832-.751.866-.362.021-.719.119-1.081.161a1.3,1.3,0,0,0-1.237,1.051,6.144,6.144,0,0,1-.634,1.545,1.266,1.266,0,0,0,.1,1.5c.249.33.447.7.719,1.009.385.438.349.748-.107,1.128-.3.248-.465.294-.786.061A9.734,9.734,0,0,0,96.152,68.7a27.306,27.306,0,0,0-2.917,1.112.837.837,0,0,0-.468.7,8.239,8.239,0,0,0-.242,1.361c0,.724-.378.817-.973.785-.354-.019-.461-.172-.511-.472-.088-.527-.207-1.05-.286-1.578a1.165,1.165,0,0,0-.92-1.011,7.462,7.462,0,0,1-1.68-.7,1.208,1.208,0,0,0-1.431.1c-.332.246-.7.451-1.016.713-.392.322-.671.385-1.093-.035s-.3-.686,0-1.032c.079-.092.132-.207.214-.3.822-.892.753-1.721.332-2.894A2.822,2.822,0,0,0,82.3,63.328c-.594-.024-.616-.336-.642-.8-.029-.513.221-.637.634-.67.1-.008.194-.024.291-.029a2.618,2.618,0,0,0,2.476-1.889,2.709,2.709,0,0,0-.5-3.39c-.421-.438-.33-.745.1-1.124.3-.261.5-.32.788-.047a2.989,2.989,0,0,0,3.723.55,2.572,2.572,0,0,0,1.72-2.44c.046-.507.095-.973.876-.889.5.053.634.257.643.646a2.545,2.545,0,0,0,2.249,2.809,5.386,5.386,0,0,1,1.2.531,4.57,4.57,0,0,0,2-1.154c.445-.328.651-.133.954.162s.452.532.106.888a2.851,2.851,0,0,0-.5,3.643,2.6,2.6,0,0,0,2.347,1.747c.388.043,1.017-.125,1,.7m12.305-24.311c.007,4.769,0,9.537.014,14.306a1.337,1.337,0,0,1-.416,1.03c-.635.637-1.244,1.3-2.01,2.107,0-1.26.006-2.357,0-3.454-.006-.927-.219-1.179-1.137-1.4-.8.11-1.1.583-1.085,1.368.027,1.534,0,3.07.012,4.6,0,.356-.017.592-.493.589-2.609-.02-5.218-.009-7.821-.009-.091-.182.035-.285.113-.4.751-1.131.729-1.377-.209-2.314-.552-.551-1.1-1.11-1.659-1.651a1.144,1.144,0,0,0-1.695-.14c-.386.255-.767.519-1.148.782-.972.669-1.7.373-1.928-.8-.09-.453-.157-.911-.239-1.366a1.157,1.157,0,0,0-1.169-1.09c-.4-.01-.476-.174-.474-.532.016-2.9.025-5.8.009-8.7,0-.492.29-.4.569-.4q4.248,0,8.495,0c2.27,0,4.541.022,6.81-.014.636-.01.884.11.854.815-.062,1.459,0,2.923-.024,4.385a1.11,1.11,0,0,0,1.083,1.285c.9-.188,1.132-.461,1.136-1.39.007-1.727.012-3.455,0-5.182a1.229,1.229,0,0,1,.368-.97c.652-.649,1.267-1.333,1.9-2,.249.16.149.374.149.546m-1.8-2.417a2.333,2.333,0,0,1,.312.061c-.819.867-1.581,1.672-2.341,2.479a.666.666,0,0,1-.54.163H94.208c.86-.911,1.6-1.682,2.322-2.468a.791.791,0,0,1,.652-.24q7.541.007,15.082.006M99.638,2.273c.262.042.291.192.336.392.167.735.358,1.464.519,2.2a1.214,1.214,0,0,0,1,1.021,8.984,8.984,0,0,1,2.2.782,1.214,1.214,0,0,0,1.424-.173c.573-.454,1.168-.882,1.736-1.341.26-.21.432-.27.734-.014,1.154.978,1.231,1.009.323,2.252-.817,1.118-1.191,2.153-.171,3.319a.705.705,0,0,1,.156.327c.274,1.568,1.38,1.96,2.765,1.967.049,0,.1,0,.146.008,1.27.115,1.619.616,1.337,1.876-.057.254-.219.279-.415.322-.713.157-1.422.336-2.137.484a1.3,1.3,0,0,0-1.116,1.1,7.7,7.7,0,0,1-.74,2.051,1.254,1.254,0,0,0,.166,1.488c.445.548.846,1.135,1.314,1.662.3.338.232.54-.043.847-.932,1.038-.919,1.049-2.117.31a1.948,1.948,0,0,1-.248-.155,2.132,2.132,0,0,0-3.074-.147,3.049,3.049,0,0,1-.454.23c-.421.244-.683.207-.841-.326-.179-.6-.67-1.2-.625-1.763.05-.631.941-.662,1.428-1.014A6.347,6.347,0,0,0,99.5,8.433a6.316,6.316,0,0,0-6.1,4.48c-.146.458-.273.545-.68.319-.318-.177-.666-.3-1-.445-1.125-.5-1.188-.529-.593-1.643a1.782,1.782,0,0,0-.315-2.363c-.272-.275-.453-.642-.732-.909-.518-.5-.536-.879.015-1.408.771-.74.72-.771,1.679-.2,2.012,1.2,1.748,1.361,3.936.333a3.012,3.012,0,0,0,2.051-2.917c.067-1.337.529-1.621,1.874-1.406" transform="translate(-42.623)" fill="#060606"/>
        <path id="Trazado_605148" data-name="Trazado 605148" d="M76.629,144.479q0,11.8,0,23.61c0,.439.013.878-.006,1.316-.03.676-.35,1.054-.868,1.048s-.868-.383-.905-1.035c-.039-.681-.015-1.364-.013-2.046.005-1.9.051-1.784-1.79-1.82a6.041,6.041,0,0,1-6.121-6.282c0-1.364-.011-2.729,0-4.093a1.255,1.255,0,0,0-.756-1.277,3.6,3.6,0,0,1-2.03-3.385c-.007-.682-.032-1.366.006-2.046a1.626,1.626,0,0,0-.915-1.666,19.526,19.526,0,0,1-5.354-4.611,23.21,23.21,0,0,1-4.718-21.731,1.361,1.361,0,0,1,1.092-1.139.847.847,0,0,0,.238-.084l-.159-.073a1.194,1.194,0,0,0-1.3,1.014,21.02,21.02,0,0,0-.921,5.013c-.41,9.453,3.331,16.8,11.3,21.96a.915.915,0,0,1,.531.913c-.04.8-.01,1.607-.011,2.411a3.8,3.8,0,0,0,2.358,3.706.636.636,0,0,1,.44.7c-.015,1.608-.024,3.216,0,4.824a6.114,6.114,0,0,0,4.527,5.787,9.281,9.281,0,0,0,2.832.221c.448-.016.584.1.569.561-.036,1.1-.033,2.193,0,3.288a1.108,1.108,0,0,0,1.644,1.008c.555-.283.562-.79.562-1.318q-.006-12.608,0-25.216v-.82c-.2.131-.228.521-.228,1.261" transform="translate(-41.905 -95.882)" fill="#060606"/>
        <path id="Trazado_605149" data-name="Trazado 605149" d="M111.329.162c-.9.081-1.214.325-1.352,1.211-.112.721-.207,1.445-.276,2.171a1.144,1.144,0,0,1-.7.968,1.53,1.53,0,0,1-1.953-.141,14.285,14.285,0,0,0-1.543-.971,1.169,1.169,0,0,0-1.635.228c-.768.849-1.547,1.689-2.312,2.541a1.136,1.136,0,0,0-.074,1.746c.516.679,1.049,1.343,1.569,2.018.4.514-.079.923-.242,1.321-.128.314-.447-.024-.656-.113-1.387-.588-2.765-1.2-4.148-1.8-1.132-.489-1.543-.326-2.045.814q-1.907,4.331-3.814,8.663c-.095.214-.106.5-.414.629,0-5.505,0-10.959,0-16.413,0-1.06-.358-1.542-1.12-1.522-.746.02-1.088.487-1.089,1.5,0,1.315-.013,2.63.007,3.944.006.37-.094.482-.48.513A23.41,23.41,0,0,0,70.97,17.876c-.56.8-.534,1.125.1,1.861l.074.024c0-.029,0-.057,0-.086a1.632,1.632,0,0,1,.2-2.007A24.158,24.158,0,0,1,76.269,12.5a23.517,23.517,0,0,1,12.51-4.848c.825-.074.913-.158.927-.973.015-.9,0-1.8.005-2.7A10.346,10.346,0,0,1,89.739,2.6a.888.888,0,0,1,.936-.833.836.836,0,0,1,.825.858c.02.267.012.535.012.8q0,7.56.007,15.119c0,.366-.163.931.283,1.017.328.064.462-.5.605-.824,1.231-2.81,2.476-5.614,3.707-8.424.45-1.027.86-1.176,1.889-.75,1.374.57,2.719,1.2,4.091,1.779.284.119.586.277.874-.03a1.311,1.311,0,0,0,.11-1.665c-.448-.607-.943-1.181-1.372-1.8a1.067,1.067,0,0,1,.1-1.624c.655-.754,1.343-1.477,2.012-2.218a1.223,1.223,0,0,1,1.858-.265c.538.335,1.077.669,1.625.987a1.73,1.73,0,0,0,2.609-1.3c.078-.652.13-1.309.253-1.954.156-.814.461-1.056,1.295-1.114.268-.019.539.014.8-.023.218-.031.522.041.543-.329-.466.272-.981.117-1.472.162" transform="translate(-56.784)" fill="#060606"/>
        <path id="Trazado_605150" data-name="Trazado 605150" d="M205.056,172.353q5.419,0,10.839,0c1.414,0,1.774.354,1.776,1.777.005,5.7,0,11.4.009,17.1a2.779,2.779,0,0,1-.911,2.14c-1.233,1.18-2.353,2.47-3.523,3.711a2.479,2.479,0,0,1-1.969.9c-2.441-.027-4.882-.012-7.323-.007a1.369,1.369,0,0,0-1.068.268,2.438,2.438,0,0,0,1.319.448c.733.163.982.413,1.007,1.128.032.925.014,1.851.007,2.777a.987.987,0,0,1-.905,1.057c-.5.092-1.008.187-1.511.287a1.253,1.253,0,0,0-.851,2.038c.284.455.631.866.918,1.321a1,1,0,0,1-.138,1.384c-.617.624-1.231,1.252-1.865,1.86a1.087,1.087,0,0,1-1.577.156c-.437-.267-.823-.611-1.265-.872a1.262,1.262,0,0,0-2,.875c-.088.454-.156.913-.258,1.364-.189.834-.461,1.076-1.3,1.1-.8.025-1.611.023-2.417,0-.787-.022-1.076-.27-1.268-1.051-.122-.5-.156-1.012-.289-1.507a1.287,1.287,0,0,0-2.05-.777,16.565,16.565,0,0,1-1.4.925,1.02,1.02,0,0,1-1.282-.142q-1.045-.972-2.02-2.014a.984.984,0,0,1-.109-1.332c.293-.449.6-.89.9-1.334a1.261,1.261,0,0,0-.765-2.039c-.5-.13-1.009-.181-1.51-.289-.772-.167-1.057-.485-1.082-1.247-.028-.852-.016-1.705,0-2.558a1.061,1.061,0,0,1,.927-1.134c.5-.1,1.006-.2,1.509-.3a1.266,1.266,0,0,0,.867-2.085c-.256-.386-.551-.745-.793-1.141a1.126,1.126,0,0,1,.134-1.643c.565-.607,1.155-1.191,1.759-1.758a1.094,1.094,0,0,1,1.635-.114c.466.312.907.664,1.4.932a1.233,1.233,0,0,0,1.788-.785c.249-.937.113-1.191-1.006-1.675-3.023-1.309-6.03-2.651-9.055-3.955-.637-.274-1-.4-1.207-.31,3.724,1.626,7.337,3.2,10.948,4.784.123.054.311.1.258.295-.124.452.059,1.05-.4,1.335-.48.3-1.019.524-1.563-.044a7.068,7.068,0,0,0-1.247-.888,1.11,1.11,0,0,0-1.528.112q-1.071,1.049-2.122,2.119a1.083,1.083,0,0,0-.131,1.464c.3.47.64.918.961,1.377.59.844.253,1.614-.783,1.793-.5.087-1.006.186-1.51.272a1.12,1.12,0,0,0-1.037,1.2c-.009.974-.01,1.949.01,2.924a1.1,1.1,0,0,0,.982,1.172c.575.1,1.151.206,1.725.32a1.06,1.06,0,0,1,.712,1.7c-.331.482-.668.959-1,1.441a1.066,1.066,0,0,0,.11,1.463q1.067,1.1,2.176,2.168a1.073,1.073,0,0,0,1.465.115c.425-.284.844-.578,1.264-.869.985-.684,1.723-.373,1.923.806.082.479.189.954.271,1.434a1.143,1.143,0,0,0,1.273,1.04c.561,0,1.123,0,1.684,0,1.866.007,2.246.231,2.542-2.053.019-.145.057-.286.079-.43.178-1.139.915-1.45,1.873-.789q.6.415,1.2.833a1.157,1.157,0,0,0,1.644-.117q1.009-1.008,2.018-2.017a1.117,1.117,0,0,0,.147-1.577c-.3-.442-.611-.88-.918-1.319-.589-.843-.274-1.59.753-1.782.479-.09.959-.17,1.439-.258a1.134,1.134,0,0,0,1.112-1.281c.011-.95-.012-1.9-.007-2.85a1.123,1.123,0,0,0-1.022-1.211c-.457-.092-.917-.173-1.375-.26,2.869-.128,5.724-.144,8.579-.115a1.834,1.834,0,0,0,1.48-.622q2.039-2.2,4.117-4.362a1.932,1.932,0,0,0,.578-1.435q-.017-9.027-.009-18.053c0-1.16-.369-1.514-1.544-1.515q-5.749,0-11.5,0H204c.136.154.468.189,1.058.189" transform="translate(-144.134 -138.528)" fill="#060606"/>
        <path id="Trazado_605151" data-name="Trazado 605151" d="M300.507,3.219a1.754,1.754,0,0,0,2.679.938c.575-.412,1.129-.852,1.7-1.276a1.065,1.065,0,0,1,1.524.032c.869.673,1.642,1.454,2.466,2.178a1.05,1.05,0,0,1,.226,1.561c-.356.639-.78,1.237-1.15,1.868a1.741,1.741,0,0,0,1.191,2.469c.6.081,1.211.147,1.816.225,1.179.153,1.46.477,1.494,1.652a24.023,24.023,0,0,0,.111,2.7,1.1,1.1,0,0,1-.9,1.311c-.7.215-1.419.358-2.133.521a1.714,1.714,0,0,0-.954,2.646c.457.6.939,1.184,1.368,1.808a.976.976,0,0,1-.024,1.275c-.7.908-1.526,1.708-2.3,2.556a1.079,1.079,0,0,1-1.573.226,7.345,7.345,0,0,1-1.3-.813,1.984,1.984,0,0,0-2.607-.058.62.62,0,0,0-.331.839c.211.6.413,1.2.681,1.774a1.834,1.834,0,0,1-.015,1.683c-.514,1.051-.936,2.143-1.424,3.206-.263.573-.366.9-.243,1.074a27.4,27.4,0,0,1,1.3-2.9,3.991,3.991,0,0,0,.052-4.434c-.4-.653-.241-.965.5-1.3a1.5,1.5,0,0,1,1.763.155,15.766,15.766,0,0,0,1.485.928c.815.493,1.225.447,1.862-.238q1.12-1.205,2.217-2.433a1.158,1.158,0,0,0,.046-1.8c-.489-.638-1-1.262-1.48-1.9a1.689,1.689,0,0,1,.731-2.012c.828-.2,1.66-.385,2.49-.579a1.119,1.119,0,0,0,1-1.169c-.04-1.266-.115-2.53-.206-3.793a1.052,1.052,0,0,0-1.033-1.036c-.775-.093-1.547-.214-2.323-.284a1.136,1.136,0,0,1-.979-.688,1.522,1.522,0,0,1,.161-1.949,15.352,15.352,0,0,0,.98-1.537,1.115,1.115,0,0,0-.22-1.567c-.888-.8-1.773-1.6-2.667-2.394a1.132,1.132,0,0,0-1.589-.063c-.618.475-1.261.923-1.847,1.434a1.116,1.116,0,0,1-1.179.174A1.491,1.491,0,0,1,300.6,2.725c-.047-.5-.267-.987-.343-1.489A1.754,1.754,0,0,0,299.471,0c.159.552.59.978.675,1.578a13.316,13.316,0,0,0,.36,1.641" transform="translate(-240.964)" fill="#060606"/>
        <path id="Trazado_605152" data-name="Trazado 605152" d="M65.237,65.855a22.175,22.175,0,0,0-.883,6.561,21.145,21.145,0,0,0,4.77,13,20.255,20.255,0,0,0,6.008,5.051,1.953,1.953,0,0,1,1.095,1.9c-.023,1-.019,2,0,3a1.587,1.587,0,0,0,1.707,1.762c1.9.049,3.806.012,5.709.017.47,0,.663-.217.649-.669-.007-.219,0-.438,0-.657q0-21.845,0-43.69c0-1.338,0-1.358-1.3-1.2a20.96,20.96,0,0,0-11.1,4.852,22.642,22.642,0,0,0-3.9,4.331,2.909,2.909,0,0,1-.517.613.961.961,0,0,1-1.337,0,2.59,2.59,0,0,1-.385.949c-.32.646-.642,1.292-.9,1.967a1.188,1.188,0,0,1-.431.611c.794.176,1.071.7.815,1.612" transform="translate(-51.776 -40.922)" fill="#fcf385"/>
        <path id="Trazado_605153" data-name="Trazado 605153" d="M63.832,104.607a1.187,1.187,0,0,0,.43-.611c.257-.675.579-1.32.9-1.967a2.59,2.59,0,0,0,.385-.949c-.025-.02-.049-.036-.074-.058a26.535,26.535,0,0,0-1.457,3.074.65.65,0,0,1-.4.472h0c.076.01.148.024.216.039" transform="translate(-51.187 -81.285)" fill="#fcf385"/>
        <path id="Trazado_605154" data-name="Trazado 605154" d="M66.51,59.551a2.909,2.909,0,0,0,.517-.613,22.624,22.624,0,0,1,3.9-4.331,20.959,20.959,0,0,1,11.1-4.852c1.3-.159,1.3-.139,1.3,1.2q0,21.845,0,43.69c0,.219-.009.439,0,.657.015.452-.178.67-.649.669-1.9,0-3.807.032-5.709-.017a1.586,1.586,0,0,1-1.707-1.762c-.019-1-.023-2,0-3a1.953,1.953,0,0,0-1.095-1.9,20.255,20.255,0,0,1-6.008-5.051,21.144,21.144,0,0,1-4.77-13,22.174,22.174,0,0,1,.883-6.561c.256-.916-.021-1.436-.815-1.612-.019.012-.038.023-.058.034.807.385.913.734.615,1.767a21.415,21.415,0,0,0,10.056,24.6,1.66,1.66,0,0,1,.988,1.688c-.055,1.02-.019,2.045-.012,3.068a1.74,1.74,0,0,0,1.936,1.943c1.9.008,3.808-.031,5.71.02.688.019.881-.13.88-.854q-.039-19.29-.019-38.581c0-2.241-.025-4.482.016-6.722.011-.6-.182-.684-.7-.616a28.742,28.742,0,0,0-3.1.5,21.357,21.357,0,0,0-12.874,8.859c-.63.908-.861,1.015-1.717.731,0,.011,0,.023,0,.034a.962.962,0,0,0,1.337,0" transform="translate(-50.813 -39.752)" fill="#fcf385"/>
        <path id="Trazado_605155" data-name="Trazado 605155" d="M73.2,101.045l-.074-.024c.025.022.049.038.073.058,0-.011,0-.022,0-.034" transform="translate(-58.841 -81.285)" fill="#fcf385"/>
        <path id="Trazado_605156" data-name="Trazado 605156" d="M63.834,119.211c-.069-.015-.14-.029-.216-.039h0c.056.024.109.049.159.073.02-.011.039-.022.058-.034" transform="translate(-51.188 -95.889)" fill="#fcf385"/>
        <path id="Trazado_605157" data-name="Trazado 605157" d="M54.343,254.057c-1.35,1.3-2.671,2.631-3.984,3.969a.907.907,0,0,0-.082,1.153,1.1,1.1,0,0,0,1.077.594.648.648,0,0,0,.541-.216c1.334-1.317,2.679-2.624,3.971-3.981a.956.956,0,0,0-.144-1.433.932.932,0,0,0-1.379-.086" transform="translate(-40.32 -204.206)" fill="#070707"/>
        <path id="Trazado_605158" data-name="Trazado 605158" d="M6.3,154.158q-2.56-.023-5.12,0a1.1,1.1,0,1,0-.01,2.2c.853.014,1.707,0,2.56,0s1.707.01,2.56,0a1.1,1.1,0,1,0,.01-2.2" transform="translate(0 -124.031)" fill="#060606"/>
        <path id="Trazado_605159" data-name="Trazado 605159" d="M52.562,40.154A.959.959,0,0,0,54,40.128a1.037,1.037,0,0,0,.092-1.508c-1.27-1.312-2.572-2.593-3.874-3.874a.9.9,0,0,0-1.077-.188,1.263,1.263,0,0,0-.751.982,1,1,0,0,0,.288.748c1.289,1.294,2.57,2.6,3.883,3.865" transform="translate(-38.937 -27.726)" fill="#060606"/>
        <path id="Trazado_605160" data-name="Trazado 605160" d="M191.759,98.215c-.022-3.02.013-6.04-.021-9.059a3.1,3.1,0,0,1,.944-2.41c1.342-1.341,2.6-2.768,3.889-4.16a12.9,12.9,0,0,1,1.123-2.89c.522-1.3,1.092-2.585,1.641-3.876q-1.291-.588-2.581-1.177c-.948-.435-1.136-.906-.717-1.863.867-1.979,1.721-3.965,2.634-5.923.244-.524.118-.662-.361-.869q-6.425-2.779-12.822-5.623c-.559-.25-.723-.1-.935.389Q181.843,67,179.088,73.231a2.688,2.688,0,0,0-.237,1.123q.009,9.169-.007,18.338a.833.833,0,0,0,.574.925q5.827,2.509,11.627,5.081c.62.275.718.132.713-.483" transform="translate(-143.903 -48.476)" fill="#efeffe"/>
        <path id="Trazado_605161" data-name="Trazado 605161" d="M274.207,215.209a1.11,1.11,0,0,1-1.083-1.285c.019-1.462-.038-2.925.024-4.385.03-.705-.219-.825-.854-.815-2.27.036-4.54.014-6.81.014q-4.247,0-8.495,0c-.279,0-.572-.089-.569.4.016,2.9.006,5.8-.009,8.7,0,.358.074.522.475.532a1.157,1.157,0,0,1,1.169,1.09c.082.455.149.913.239,1.366.233,1.171.956,1.467,1.928.8.381-.262.762-.526,1.148-.781a1.144,1.144,0,0,1,1.695.14c.562.541,1.107,1.1,1.659,1.651.938.937.96,1.183.209,2.314-.078.117-.2.22-.113.4,2.6,0,5.212-.01,7.821.01.476,0,.5-.233.493-.589-.01-1.535.015-3.07-.012-4.6-.014-.784.284-1.258,1.085-1.368Q274.206,217,274.207,215.209Z" transform="translate(-206.315 -167.946)" fill="#95e0fe"/>
        <path id="Trazado_605162" data-name="Trazado 605162" d="M248.987,12.773a3.012,3.012,0,0,1-2.051,2.917c-2.187,1.028-1.924.864-3.936-.333-.959-.571-.908-.54-1.679.2-.552.529-.534.912-.016,1.408.279.267.46.634.732.909a1.782,1.782,0,0,1,.315,2.363c-.6,1.114-.532,1.148.593,1.643.334.147.682.269,1,.445.406.226.534.139.68-.319a6.316,6.316,0,0,1,6.1-4.48,6.347,6.347,0,0,1,3.742,11.545c-.487.353-1.378.384-1.428,1.014-.045.566.445,1.16.625,1.763.159.533.42.57.841.326a3.05,3.05,0,0,0,.454-.23,2.132,2.132,0,0,1,3.074.147,1.949,1.949,0,0,0,.248.155c1.2.739,1.185.728,2.117-.31.275-.307.344-.508.043-.847-.469-.527-.869-1.114-1.314-1.662a1.254,1.254,0,0,1-.166-1.489,7.705,7.705,0,0,0,.74-2.051,1.3,1.3,0,0,1,1.116-1.1c.715-.147,1.424-.326,2.137-.484.2-.043.358-.068.415-.322.283-1.26-.066-1.761-1.337-1.876-.049,0-.1-.008-.146-.008-1.385-.007-2.491-.4-2.765-1.967a.7.7,0,0,0-.156-.327c-1.02-1.166-.645-2.2.171-3.319.908-1.243.831-1.274-.323-2.252-.3-.256-.474-.2-.734.014-.568.46-1.163.887-1.735,1.341a1.214,1.214,0,0,1-1.424.173,8.984,8.984,0,0,0-2.2-.782,1.214,1.214,0,0,1-1-1.021c-.161-.736-.352-1.465-.519-2.2-.045-.2-.074-.35-.336-.392-1.345-.215-1.807.069-1.874,1.406" transform="translate(-193.845 -9.094)" fill="#7974e2"/>
        <path id="Trazado_605163" data-name="Trazado 605163" d="M214.2,273.609a.784.784,0,0,1-.216-.45,5.374,5.374,0,0,0-1.2-.531,2.545,2.545,0,0,1-2.249-2.809c-.009-.389-.144-.593-.643-.646-.781-.084-.83.382-.876.889a2.572,2.572,0,0,1-1.72,2.44,2.989,2.989,0,0,1-3.723-.55c-.292-.272-.49-.214-.788.047-.432.379-.524.685-.1,1.124a2.71,2.71,0,0,1,.495,3.39,2.618,2.618,0,0,1-2.475,1.889c-.1.005-.194.021-.291.029-.413.033-.662.157-.634.67.026.468.048.779.642.8a2.822,2.822,0,0,1,2.859,2.132c.421,1.174.49,2-.332,2.894-.082.089-.135.2-.214.3-.3.346-.416.615,0,1.032s.7.358,1.093.035c.319-.262.684-.467,1.016-.713a1.208,1.208,0,0,1,1.431-.1,7.484,7.484,0,0,0,1.68.7,1.165,1.165,0,0,1,.92,1.011c.08.528.2,1.051.286,1.578.05.3.157.453.511.472.595.031.972-.062.973-.785a8.24,8.24,0,0,1,.243-1.361.837.837,0,0,1,.468-.7,27.306,27.306,0,0,1,2.917-1.112,10.518,10.518,0,0,0,1.7-5.776,10.129,10.129,0,0,0-1.782-5.893m-4.349,10.6a5.037,5.037,0,0,1-5-5.055,4.957,4.957,0,0,1,4.969-4.974,5.038,5.038,0,0,1,5.041,5.084,4.987,4.987,0,0,1-5.013,4.945" transform="translate(-160.75 -216.576)" fill="#7874e2"/>
        <path id="Trazado_605164" data-name="Trazado 605164" d="M143.987,304.549c0-1.315-.017-2.629.01-3.944.009-.43-.08-.588-.554-.578-1.536.033-3.073.028-4.61,0-.439-.007-.586.093-.576.559.033,1.46,0,2.921.014,4.382a3.932,3.932,0,0,0,3.831,4.066c.437.03.88-.017,1.316.021s.589-.108.578-.565c-.03-1.314-.011-2.629-.011-3.944" transform="translate(-111.246 -241.411)" fill="#cecefe"/>
        <path id="Trazado_605165" data-name="Trazado 605165" d="M266.361,183.688c-.723.785-1.462,1.557-2.322,2.468h15.487a.665.665,0,0,0,.54-.163c.76-.807,1.522-1.612,2.341-2.478a2.325,2.325,0,0,0-.312-.062q-7.541,0-15.082-.006a.791.791,0,0,0-.652.24" transform="translate(-212.454 -147.608)" fill="#fb6cc2"/>
        <path id="Trazado_605166" data-name="Trazado 605166" d="M348.632,196.029c.015,1.727.01,3.455,0,5.182,0,.929-.236,1.2-1.136,1.39.429.746.159,1.559.21,2.339a1.618,1.618,0,0,1-.211,1.252c.918.218,1.13.47,1.137,1.4.008,1.1,0,2.194,0,3.454.766-.806,1.375-1.47,2.01-2.107a1.338,1.338,0,0,0,.416-1.03c-.014-4.769-.008-9.537-.014-14.306,0-.172.1-.386-.149-.546-.631.671-1.247,1.355-1.9,2a1.229,1.229,0,0,0-.368.97" transform="translate(-279.608 -155.338)" fill="#fcf385"/>
        <path id="Trazado_605167" data-name="Trazado 605167" d="M347.709,244.259c-.05-.781.219-1.593-.21-2.339q0,1.8,0,3.591a1.618,1.618,0,0,0,.211-1.252" transform="translate(-279.608 -194.656)" fill="#fcf385"/>
        <path id="Trazado_605168" data-name="Trazado 605168" d="M278.351,57.57a4.23,4.23,0,0,0-8.146-.071c-.125.454-.088.753.437.94.752.268,1.45.7,2.21.933a3.341,3.341,0,0,1,2.57,2.646c.1.526.376.461.754.268a4.177,4.177,0,0,0,2.175-4.717" transform="translate(-217.367 -43.808)" fill="#fefefe"/>
        <path id="Trazado_605169" data-name="Trazado 605169" d="M272.128,141.045c-.867,1.887-1.606,3.831-2.552,5.683a1.853,1.853,0,0,1,1.4-.482c.972.031,1.945.005,2.918.011.253,0,.445-.011.569-.306.555-1.315,1.133-2.621,1.72-3.923.114-.253.106-.372-.174-.489-1.227-.513-2.445-1.049-3.666-1.576.22.416-.062.754-.213,1.082" transform="translate(-216.909 -112.619)" fill="#e7e7fe"/>
        <path id="Trazado_605170" data-name="Trazado 605170" d="M269.576,146.729c.946-1.852,1.684-3.8,2.552-5.683.151-.328.433-.666.213-1.082-.549,1.291-1.119,2.574-1.641,3.875a12.909,12.909,0,0,0-1.123,2.89" transform="translate(-216.909 -112.619)" fill="#e7e7fe"/>
        <path id="Trazado_605171" data-name="Trazado 605171" d="M275.033,287.7a2.851,2.851,0,0,1,.5-3.643c.346-.355.2-.593-.106-.888s-.51-.49-.955-.162a4.573,4.573,0,0,1-2,1.154,6.691,6.691,0,0,1,1.729,3.236,10.955,10.955,0,0,1-.709,8.006,1.49,1.49,0,0,1-.724.876,9.726,9.726,0,0,1,1.833,1.188c.321.233.489.187.786-.061.455-.38.492-.69.106-1.128-.271-.308-.47-.679-.719-1.009a1.266,1.266,0,0,1-.1-1.5,6.136,6.136,0,0,0,.634-1.545,1.3,1.3,0,0,1,1.237-1.051c.362-.042.719-.139,1.081-.161.571-.034.739-.283.751-.866.018-.829-.611-.661-1-.7a2.6,2.6,0,0,1-2.348-1.747" transform="translate(-219.244 -227.582)" fill="#6a64e7"/>
        <path id="Trazado_605172" data-name="Trazado 605172" d="M273.5,300.863a10.955,10.955,0,0,0,.709-8.006,6.691,6.691,0,0,0-1.729-3.237.784.784,0,0,0,.216.45,10.126,10.126,0,0,1,1.782,5.893,10.518,10.518,0,0,1-1.7,5.776,1.49,1.49,0,0,0,.724-.876" transform="translate(-219.244 -233.037)" fill="#6a64e7"/>
        <path id="Trazado_605173" data-name="Trazado 605173" d="M279.395,106.869c-.117.259-.166.418.165.559,1.307.557,2.6,1.14,4.05,1.778l-2.461-6.3c-.615,1.394-1.177,2.681-1.754,3.961" transform="translate(-224.738 -82.803)" fill="#cecefd"/>
        <path id="Trazado_605174" data-name="Trazado 605174" d="M230.715,294.858a4.956,4.956,0,0,0-4.968,4.974,5.005,5.005,0,1,0,4.968-4.974m.087,7.8a2.8,2.8,0,0,1-2.846-2.808,2.758,2.758,0,0,1,2.771-2.791,2.858,2.858,0,0,1,2.825,2.855,2.765,2.765,0,0,1-2.751,2.744" transform="translate(-181.643 -237.252)" fill="#060606"/>
        <path id="Trazado_605175" data-name="Trazado 605175" d="M239.829,306.144a2.758,2.758,0,0,0-2.771,2.791,2.8,2.8,0,0,0,2.846,2.808A2.765,2.765,0,0,0,242.654,309a2.858,2.858,0,0,0-2.825-2.855" transform="translate(-190.744 -246.333)" fill="#fefefe"/>
      </g>
    </g>
  </g>
</svg>
