<svg xmlns="http://www.w3.org/2000/svg" xmlns:xlink="http://www.w3.org/1999/xlink" width="22.025" height="22.025" viewBox="0 0 22.025 22.025"><defs><clipPath id="a"><rect width="22.025" height="22.025" fill="#4a2efc"/></clipPath></defs><path d="M0,0V3.958H1.3V1.289H3.972V0Z" transform="translate(0 0)" fill="#4a2efc"/><path d="M0,335.344V339.3H4V338H1.283v-2.66Z" transform="translate(0 -317.276)" fill="#4a2efc"/><path d="M337.253,335.955V338.6h-2.707v1.284h4v-3.925Z" transform="translate(-316.522 -317.854)" fill="#4a2efc"/><g clip-path="url(#a)"><path d="M34.321,97.786a10.756,10.756,0,0,0-7.978-.916,11.693,11.693,0,0,0-4.559,2.409,12.462,12.462,0,0,0-2.541,2.842.281.281,0,0,0,0,.36,12.8,12.8,0,0,0,3.967,3.874,11.28,11.28,0,0,0,5.978,1.778c.478-.038.959-.055,1.434-.121a11.961,11.961,0,0,0,1.367-.273,11.643,11.643,0,0,0,4.606-2.453,12.286,12.286,0,0,0,2.469-2.792.3.3,0,0,0,0-.38,12.6,12.6,0,0,0-4.743-4.328m-5.293,9.028a10.649,10.649,0,0,1-8.329-4.527c4.658-6.119,12.54-5.891,16.939.036-2.206,2.766-4.949,4.511-8.609,4.491" transform="translate(-18.143 -91.289)" fill="#4a2efc"/><path d="M335.037,1.595h2.684V4.231H339V.325h-3.959Z" transform="translate(-316.986 -0.308)" fill="#4a2efc"/><path d="M136.387,132.5a3.874,3.874,0,1,0,3.863,3.879,3.876,3.876,0,0,0-3.863-3.879m-.012,6.457a2.583,2.583,0,1,1,2.584-2.582,2.583,2.583,0,0,1-2.584,2.582" transform="translate(-125.363 -125.364)" fill="#4a2efc"/></g></svg>