<svg xmlns="http://www.w3.org/2000/svg" xmlns:xlink="http://www.w3.org/1999/xlink" width="610" height="304.753" viewBox="0 0 610 304.753"><defs><clipPath id="a"><rect width="610" height="304.753" fill="none"/></clipPath><clipPath id="b"><rect width="610" height="304.752" fill="none"/></clipPath><clipPath id="c"><rect width="21.534" height="40.259" fill="none"/></clipPath><clipPath id="d"><rect width="7.762" height="44.674" fill="none"/></clipPath></defs><g clip-path="url(#a)"><g transform="translate(0 0)"><g clip-path="url(#b)"><path d="M601.972,302.359c-11.265,0-34.35.863-34.595,1.256h-58.2l-17.035-.039H339.614l-44.545-.04H177.638l-49.048-.038h-88.7l-.441-.946-.049-.079a.351.351,0,0,1-.049-.117c-.2-.315-73.81-125.547,47.731-187.282,47.554-24.155,22.5-72.387,92.879-101.6C270.714-24.2,295.448,30.533,402.757,17.3c93.2-11.493,135.662,25.112,129.122,79.551-3.072,25.571,18.021,45.172,38.828,48.687,57.4,9.7,55.347,66.511,50.654,108.251-2.893,25.733-18.99,48.569-19.389,48.569" transform="translate(-13.5 -0.003)" fill="#ebf3fa"/><path d="M1122.667,890.755a3.91,3.91,0,0,0-1.842-1.269c-1.105-.3-3.494-1.561-3.216-.9s1.611,1.441,1.389,1.921c0,0-3.8-1.141-3.907-.42a5.876,5.876,0,0,0,2.963,4.063c.537.2,4.278-.581,4.278-.581Z" transform="translate(-880.958 -686.85)" fill="#f2a16b"/><path d="M1710.633,944.491a4.311,4.311,0,0,0-3.477-1.476c-1.015.142-2.484-1.583-2.41-.462a10.6,10.6,0,0,0,2.045,4.159c.982.873,3.141.585,3.141.585l2.648,1.764Z" transform="translate(-1346.811 -728.425)" fill="#ffb27d"/><path d="M183.554,742.19s-10.965,12.284-11.483,16.908,5.252,11.842,5.252,11.842Z" transform="translate(-135.917 -573.812)" fill="#ed7d2b"/><path d="M250.485,1296.185s.387,6.516,1.554,6.606c.155.012,5.918,0,5.918,0l7.357-.063a2.525,2.525,0,0,0-2.2-2.315c-2.151-.4-5.754-2.024-7.062-5.093-1.377-3.227-5.563.866-5.563.866" transform="translate(-197.892 -1000.496)" fill="#2358a5"/><path d="M172.443,1296.356s.387,6.516,1.554,6.607c.155.012,5.918,0,5.918,0l7.357-.063a2.525,2.525,0,0,0-2.2-2.315c-2.151-.4-5.754-2.025-7.062-5.092-1.377-3.228-5.563.865-5.563.865" transform="translate(-136.236 -1000.628)" fill="#2358a5"/><path d="M195.242,960.768s-1.9,13.3-9.028,36.922-8.088,33.844-8.088,33.844l-7.7-.215s-.118-25.8,3.166-37.673.628-42.792.628-42.792Z" transform="translate(-134.643 -735.136)" fill="#163560"/><path d="M222.452,953.808a348.37,348.37,0,0,1-2.846,44.646c-3.159,24.61-2.051,35.05-2.051,35.05l-7.684.294s-4.642-24.6-3.35-36.918-6.373-42.24-6.373-42.24Z" transform="translate(-158.124 -737.421)" fill="#1c468a"/><path d="M235.077,713.511l4.1,2.891,5.915-1.206c-.083-.516-.478-2.654-.838-4.591-.022-.114-.043-.229-.064-.34-.308-1.648-.574-3.064-.574-3.064l-5.532-2.622-2.062-.978c.005.035.163,1.829.185,2.091a16.28,16.28,0,0,1-1.131,7.817" transform="translate(-185.72 -543.979)" fill="#ffb27d"/><path d="M241.286,733.852c-.115-.052-7.13-2.271-7.891-2s-1.209,1.867-1.209,1.867l11.473,2.774a6.006,6.006,0,0,0-2.373-2.644" transform="translate(-183.436 -565.803)" fill="#ed7d2b"/><path d="M184.956,790.936c1.2,5.855,20.979,6.5,26.066,1.174.579-.607.6-3.427.375-7.229-.443-7.427-1.839-18.6-1.9-24.306a48.668,48.668,0,0,0-.86-8.135,70.167,70.167,0,0,0-2.528-9.733s-9.667-3.352-11.473-2.774c-8.7,2.785-10.876,45.147-9.676,51" transform="translate(-145.882 -572.016)" fill="#f99746"/><path d="M275.618,824c-.443-7.427-1.839-18.6-1.9-24.306a48.689,48.689,0,0,0-.86-8.135l-5.813-1.094S261.41,815.555,275.618,824" transform="translate(-210.102 -611.137)" fill="#ed7d2b"/><path d="M285.648,889.363a1.561,1.561,0,0,0,.439,1.709,2.954,2.954,0,0,1,1.186,2.61c-.189.814-2.011,2.145-2.644,1.932s-1.922-1.281-1.785-1.71-.873-3.762.666-5.05a1.22,1.22,0,0,1,2.137.508" transform="translate(-223.3 -686.844)" fill="#ffb27d"/><path d="M263.269,745.81s5.669,1.133,10.2,8.313,7.512,12.518,6.685,15.112-8.391,11.6-9.7,11.6a3.6,3.6,0,0,1-3.542-3.33s4.995-8.984,3.94-10.276c-.451-.552-6.617-5.9-7.537-3.326-1.522,4.252-.048-18.095-.048-18.095" transform="translate(-207.485 -576.611)" fill="#f99746"/><path d="M241.84,709.1c1.218,2.219,5.744,4.129,7.632,4.831l-.064-.34c-.308-1.648-.574-3.064-.574-3.064l-5.532-2.622c-1.221-.015-1.965.282-1.462,1.195" transform="translate(-190.937 -547.308)" fill="#fca56b"/><path d="M238.873,663.929s-8.9,3.021-10.553-2.993-3.92-9.676,1.69-11.86,7.351-.245,8.355,1.618,2.778,12.294.507,13.235" transform="translate(-178.893 -501.075)" fill="#ffb27d"/><path d="M223.558,638.919s-.554,7.005-1.895,6.7-2.558-.523-2.357,1.587,2.064,4.545-2.066,4.928-10.093-11.116-8.962-13.3c3.262-6.3,20-7.606,15.28.078" transform="translate(-164.437 -489.879)" fill="#163560"/><path d="M2476.831,837.992s-.758-1.353-1.222-2.1-1.388-1.681-1.624-1.441.71,1.23.667,1.56-1.628-.779-1.8-1.029c-.344-.5-1.251-1.041-1.362-.411a8.753,8.753,0,0,0,.869,3.182,5.815,5.815,0,0,0,2.293,1.741c.708.27,1.919.9,1.919.9Z" transform="translate(-1952.56 -645.014)" fill="#ffb27d"/><path d="M2569.081,651.783a5.752,5.752,0,0,0-4.875-.564c-8.282-1.051-10.7,9.385-10.586,12.976s.492,7.448-3.207,12.113c-10.683,13.475,11.691,14.07,11.691,14.07.189-10.766,12.134-6.838,11.61-5.747,15.311,3.97,1.523-29.4-4.633-32.848" transform="translate(-2012.638 -503.251)" fill="#163560"/><path d="M2515.779,790.778a23.882,23.882,0,0,1-2.228,3.64c-1.73,2.342-4.4,5.048-7.75,5.582a7.773,7.773,0,0,1-4.6-.807l-.005,0c-4.069-1.952-7.128-6.44-7.128-6.44a3.834,3.834,0,0,1,.456-3.547s8.217,2,9,1.574,5.347-14.632,6.434-16.418,4.792-2.713,4.792-2.713Z" transform="translate(-1970.221 -596.587)" fill="#f99746"/><path d="M2541.269,855.983c-1.731,2.342-4.4,5.048-7.75,5.582a7.773,7.773,0,0,1-4.6-.807c.159.022,4.223.565,5.843-2.566,1.653-3.195,3.439-8.268,5.894-6.577,1.059.73,1.012,2.544.617,4.369" transform="translate(-1997.937 -658.151)" fill="#ed7d2b"/><path d="M2710.188,1274.412s2.507,2.473,2.018,4.229-2.751,2.928-3.057,5.075-1.529,3.318-2.63,3.318h-5.248s-.81-1.511,1.146-1.966,2.695-2.978,2.573-5.32a44.533,44.533,0,0,1,.183-5.465l4.158-1.041Z" transform="translate(-2133.974 -984.385)" fill="#2358a5"/><path d="M2589.541,1283.03s.9,10.474-.2,11.059l-14.086-.031s0-1.757,2.262-2.147,6.237-1.822,6.91-5.01,5.113-3.871,5.113-3.871" transform="translate(-2034.548 -991.953)" fill="#2358a5"/><path d="M2601.917,779.141c-2.9-7.024-4.673-9.041-4.334-11.221.252-1.623-.767-30.255-.767-30.255-.344-.115-1.033-.218-1.411-.309a3.637,3.637,0,0,1-2.583-2.427,20.924,20.924,0,0,1-.876-6.46l-.372.079-6.243,1.336s.142,2.123.146,4.123c0,.017,0,.033,0,.05a3.852,3.852,0,0,1-2.592,3.752c-.788.246-1.475.456-1.475.456a66.159,66.159,0,0,0-2.73,14.338c-.438,7.266,4.169,10.422-.035,24.941-4.292,14.829,24.873,5.478,23.272,1.6" transform="translate(-2036.885 -563.204)" fill="#ffb27d"/><path d="M2612.111,730.154s.142,2.123.146,4.123c3.494-.106,5.341-3.55,6.1-5.459Z" transform="translate(-2063.666 -563.474)" fill="#e8945b"/><path d="M2596.193,691.692s8.267.147,8.272-5.416,1.076-9.292-4.2-9.621-6.305,1.792-6.725,3.649.5,11.207,2.654,11.389" transform="translate(-2048.914 -523.118)" fill="#ffb27d"/><path d="M2608.01,672.315s2.263,6.527,5.737,7.493,4.98-.04,4.98-.04a10.792,10.792,0,0,1-3.217-6.279s-5.792-4.28-7.5-1.173" transform="translate(-2060.426 -518.915)" fill="#163560"/><path d="M2594.932,674.878a5.177,5.177,0,0,0-2.369,2,9.574,9.574,0,0,0-1.117,5.108s-1.705-4.437.211-6.947c2.032-2.661,3.276-.162,3.276-.162" transform="translate(-2046.787 -520.948)" fill="#163560"/><path d="M2603.885,726.777a2.024,2.024,0,0,1-1.712.753,1.54,1.54,0,0,1-1.274-.909,5.157,5.157,0,0,1,2.986.156" transform="translate(-2054.808 -561.654)" fill="#ebf3fa"/><path d="M2599.139,781.667a65.406,65.406,0,0,1,0,7.035c-.139,2.544-2.521,5.951-2.858,6.794-.848,2.114-1.8,2.458-1.8,2.458l-7.4,1.959-2.6.688-8.2-2.646s-3.735-11.265-2.235-17.607a51.064,51.064,0,0,1,3.791-10.745s6.692,7.08,15.406-.6Z" transform="translate(-2033.311 -594.54)" fill="#f99746"/><path d="M2635.279,851.65a26.722,26.722,0,0,1-.694,5.755c-.847,2.114-1.8,2.458-1.8,2.458l-7.4,1.959-3.212-1.02s10.723-1.756,9.535-11.725Z" transform="translate(-2071.615 -656.45)" fill="#f2ccaa"/><path d="M2572.224,904.16s-4.062,13.659-4.322,18.309,7.763,66.064,8.086,68.207c.3,2.02,2.625,3.308,2.625,3.308a3.283,3.283,0,0,0,2.591.216,6.257,6.257,0,0,0,2.782-1.417s3.162-43.8,1.205-59.446a267.417,267.417,0,0,1-1.979-29.176Z" transform="translate(-2028.734 -699.036)" fill="#163560"/><path d="M2610.749,902.364s6.2,8.981,6.773,15.053.906,27.4,2.136,33.317,5.751,17.309,5.751,35.77a3.5,3.5,0,0,1-1.921,1.622,14.918,14.918,0,0,1-1.689.5,2.6,2.6,0,0,1-2.97-1.523c-3.056-6.649-12.792-28.094-13.291-32.546-.353-3.151-3.427-24-10.133-36.235-1.61-2.937.988-14.618.988-14.618Z" transform="translate(-2050.051 -697.648)" fill="#1c468a"/><path d="M2603.4,727.068s-.143.656-1.652.555c0,0-1.268-.085-1.229-.806a3.8,3.8,0,0,1,2.881.251" transform="translate(-2054.506 -561.797)" fill="#fff"/><path d="M2584.553,894.865a8.1,8.1,0,0,0,4.87,1.464c3.868.084,13.455-1.066,13.455-1.066a9.181,9.181,0,0,1,.409,2.644s-11.708,3.191-18.492.466a4.962,4.962,0,0,1-.241-3.508" transform="translate(-2041.712 -691.85)" fill="#233862"/><path d="M2597.55,902.483a2.2,2.2,0,1,1,1.765-2.159,1.994,1.994,0,0,1-1.765,2.159m0-3.685a1.577,1.577,0,1,0,1.18,1.526,1.389,1.389,0,0,0-1.18-1.526" transform="translate(-2050.766 -694.401)" fill="#fff"/><path d="M.868.634,17.326,0l-.868,22.77L0,23.4Z" transform="matrix(0.754, -0.657, 0.657, 0.754, 546.406, 199.122)" fill="#afcdfb"/><path d="M2642.314,905.938s-4.664.774-4.65,1.9.964,3.166,1.907,3.327c1.2.2,3.576-3.132,3.576-3.132Z" transform="translate(-2083.853 -700.411)" fill="#ffb27d"/><path d="M2641.682,905.67a5.679,5.679,0,0,0-2.708-.362c-1.146.255-2.206.067-1.945.518s1.812.283,2.057.459.25.066.25.066Z" transform="translate(-2083.319 -699.876)" fill="#ffb27d"/><path d="M2656.791,769a9.983,9.983,0,0,1,8.117,6.353c2.249,5.909,6.517,15.828,6.517,17.5s-2.384,6.813-15.187,9.771c0,0-1.324-1.505-1.244-2.7,0,0,7.992-7.417,7.971-8.284-.041-1.64-1.31-3.8-8.327-11.389-1.908-2.062,2.153-11.252,2.153-11.252" transform="translate(-2096.86 -594.54)" fill="#f99746"/><path d="M479.31,717.2A48.085,48.085,0,0,1,462,713.99,60.932,60.932,0,0,1,449.71,714a74.645,74.645,0,0,1-33.764-11.7,24.744,24.744,0,0,1-7.058.6c-5.884-.329-11.455-2.722-16.558-7.11a51.251,51.251,0,0,1-12.452-17.116c-5.981-12.6-8.941-28.425-8.334-44.571a105.181,105.181,0,0,1,14.332-49.719c6.852-11.526,14.422-20.477,22.5-26.6a50.272,50.272,0,0,1,22.522-9.913,48.926,48.926,0,0,1,6.583-.6,71.613,71.613,0,0,1,23.271-9.656,51.759,51.759,0,0,1,40.035,7.245c15.946,10.3,28.7,29.483,37.92,57q.791,2.361,1.466,4.709c2.114,1.181,4.4,2.51,6.946,3.994l.167.1c7.966,4.637,20.392,8.348,33.242,9.926,10.713,1.315,26.626,1.775,41.592-3.509,13.986-4.938,23.867-13.764,29.37-26.234l1.2.62c-5.666,12.84-15.814,21.919-30.159,26.984-15.194,5.364-31.312,4.9-42.157,3.571-13.009-1.6-25.616-5.369-33.723-10.089l-.167-.1c-2.1-1.221-4.006-2.332-5.778-3.337a92.023,92.023,0,0,1,2.126,40.215A73.342,73.342,0,0,1,527.29,683a59.708,59.708,0,0,1-7.313,7.367c-.179.425-.362.848-.549,1.264a11.091,11.091,0,0,1,1.366,5.278c-.158,2.581-2.871,4.85-8.062,6.745q-.642.234-1.326.458a37.642,37.642,0,0,1-15.33,10.162A49.824,49.824,0,0,1,479.31,717.2m-14.14-3.612a46.8,46.8,0,0,0,5.173,1.314,48.065,48.065,0,0,0,25.313-1.994,36.523,36.523,0,0,0,13.019-7.983c-7.013,1.894-16.465,3.132-26.65,3.556q-.6.278-1.2.543a62.824,62.824,0,0,1-15.651,4.563m-47.407-11.776a73.714,73.714,0,0,0,32.07,10.762,59.621,59.621,0,0,0,9.291.2,48.288,48.288,0,0,1-9.558-5.84,101.93,101.93,0,0,1-13.1-2.767,47.88,47.88,0,0,1-12.486-5.314,26.1,26.1,0,0,1-6.22,2.955m34.706,5.527a46.939,46.939,0,0,0,9.7,5.19,61.38,61.38,0,0,0,15.953-3.926c-4.972.1-10.064.013-15.086-.287-3.657-.219-7.2-.547-10.571-.977m-2.376-1.769c4.046.591,8.4,1.031,13.021,1.308,6.219.373,12.544.42,18.605.178a61,61,0,0,0,10.446-6.229,27.257,27.257,0,0,1-5.224-.879c-4-1.085-7.277-3.661-9.96-7.9a70.569,70.569,0,0,1-12.758-.781c-10.349-1.564-18.824-4.958-25.337-10.131-1.077,2.044-2.152,3.858-3.2,5.466a48.916,48.916,0,0,0,12.38,17.262q.991.885,2.028,1.708m44.285-4.671a61.962,61.962,0,0,1-9.144,5.983c10.016-.6,19.087-2,25.471-4.043a40.407,40.407,0,0,0,3.514-4.521,47.867,47.867,0,0,0,3.462-6.117,47.079,47.079,0,0,1-9.924,5.789,34.861,34.861,0,0,1-13.378,2.909m-69.109-2.918c5.18,3.136,12.747,5.583,22.146,7.168l-.2-.176a50.217,50.217,0,0,1-12.422-17.045,48.55,48.55,0,0,1-4,5.066,35.753,35.753,0,0,1-5.528,4.987m93.409-4.741a47.177,47.177,0,0,1-5.406,8.682c3.9-1.56,6.085-3.357,6.192-5.106a8.321,8.321,0,0,0-.786-3.576M435.227,548.8c-1.457.115-2.825.293-4.134.5a49.009,49.009,0,0,0-21.952,9.667c-7.935,6.018-15.385,14.833-22.144,26.2a103.651,103.651,0,0,0-14.121,49c-.6,15.9,2.311,31.476,8.188,43.855a49.849,49.849,0,0,0,12.1,16.646,26.275,26.275,0,0,0,15.8,6.8,23.686,23.686,0,0,0,5.332-.294,61.3,61.3,0,0,1-15.322-15.446,58.78,58.78,0,0,1-5.3-9.541,30.534,30.534,0,0,1-11.107-11.4c-3.964-6.863-6.053-15.628-6.042-25.348a68.29,68.29,0,0,1,1.142-12.257c-.412-11.708,4.053-25.263,12.613-38.251,8.208-12.456,18.927-22.447,29.408-27.413q1.757-.832,3.466-1.458a57.671,57.671,0,0,1,4.864-5.309,61.506,61.506,0,0,1,7.216-5.949M395.637,677.236a57.293,57.293,0,0,0,4.4,7.639,60.182,60.182,0,0,0,16.137,15.9,24.317,24.317,0,0,0,6.53-2.789,19.806,19.806,0,0,1-3.819-3.549,100.407,100.407,0,0,1-9.435-13.862,43.429,43.429,0,0,1-6.582-.883,31.884,31.884,0,0,1-7.233-2.453m82.941,14.737a15.312,15.312,0,0,0,8.689,6.574,26.429,26.429,0,0,0,6.676.906,57.839,57.839,0,0,0,10.189-10.519,55.071,55.071,0,0,0,4.133-6.415,60.786,60.786,0,0,1-29.687,9.453m31.751-10.455a56.369,56.369,0,0,1-5.159,8.321,58.985,58.985,0,0,1-8.953,9.547,34.471,34.471,0,0,0,11.054-2.741,46.04,46.04,0,0,0,10.106-5.978,50.381,50.381,0,0,0-5.39-7.289q-.8-.922-1.659-1.86m-99.284-.881a99.328,99.328,0,0,0,8.847,12.85,18.937,18.937,0,0,0,4.1,3.667,33.754,33.754,0,0,0,5.858-5.174,48.044,48.044,0,0,0,4.305-5.542q-.606-1.46-1.137-2.975-.553-1.577-1.017-3.2-.72-.168-1.426-.38a21.881,21.881,0,0,1-3.465-1.377,55.622,55.622,0,0,1-16.063,2.127m29.613.083c6.2,4.61,14.142,7.662,23.75,9.114a69.784,69.784,0,0,0,11.732.787,50.526,50.526,0,0,1-4.4-11.572q-.234-.885-.455-1.8-2.657-.4-5.309-1a49.488,49.488,0,0,1-6.537-1.955,65.564,65.564,0,0,1-12.481,5.17,38.052,38.052,0,0,1-6.3,1.252m32.057-3.269q.151.607.309,1.2a47,47,0,0,0,4.661,11.921,59.512,59.512,0,0,0,31.456-10.328c-1.807-1.9-3.784-3.837-5.892-5.772q-2.9.953-5.83,1.65a68.452,68.452,0,0,1-24.7,1.326m38.535,3.026q.887.966,1.711,1.917a52.7,52.7,0,0,1,5.491,7.422q.225-.184.449-.37a74.373,74.373,0,0,0,4.232-14.747q.618-3.33,1.039-6.934a63.394,63.394,0,0,1-6.673,7.48,61.51,61.51,0,0,1-6.248,5.231m14.493-14.87q-.478,4.925-1.3,9.376a78.812,78.812,0,0,1-3.35,12.542,59.348,59.348,0,0,0,5.212-5.491,71.718,71.718,0,0,0,15.114-32.987A95.363,95.363,0,0,1,528.9,660.609q-1.471,2.572-3.161,5m-92.259,14.956q.364,1.208.779,2.391.374,1.068.788,2.109c.8-1.264,1.613-2.652,2.429-4.173a24.938,24.938,0,0,1-3.995-.326m-.44-1.539a23.418,23.418,0,0,0,3.846.409,38.178,38.178,0,0,1-3.067-3.129q-.664.253-1.335.495.257,1.122.556,2.225m9.9-6.8c-1.028,2.618-2.083,4.986-3.143,7.126a35.8,35.8,0,0,0,6.826-1.274A62.062,62.062,0,0,0,457.7,673.6a38.876,38.876,0,0,1-8.441-4.9c-2,1.2-4.111,2.388-6.323,3.523m-32.719,6.947a52.958,52.958,0,0,0,15.086-1.664,29.265,29.265,0,0,1-8.91-9.01,54.225,54.225,0,0,1-3.755-6.7,70.611,70.611,0,0,1-9.1-2.452q-.32-.109-.642-.223a62.792,62.792,0,0,0,7.317,20.051m94.528-5.2c1.859,1.728,3.611,3.453,5.232,5.154a53.283,53.283,0,0,0,3.108-8.638,79.286,79.286,0,0,1-8.34,3.484m-110.063,1.172a29.981,29.981,0,0,0,8.443,3.138,42,42,0,0,0,5.5.8,79.216,79.216,0,0,1-3.511-7.423,54.1,54.1,0,0,1-3.649-13.061,44.126,44.126,0,0,1-11.629-6.512,61.346,61.346,0,0,0,4.845,23.06m40.51.629a36.983,36.983,0,0,0,3.277,3.2c.889-1.778,1.776-3.718,2.648-5.838-1.914.933-3.893,1.82-5.925,2.635m-6,2.133a20.813,20.813,0,0,0,2.369.786q-.185-.717-.352-1.441-1,.342-2.017.655m85.477-8.21a54.785,54.785,0,0,1-2.845,8.6,60.383,60.383,0,0,0,4.785-4.119,62.3,62.3,0,0,0,7.841-9.11c.04-.424.078-.853.113-1.282q-1.374.945-2.84,1.877-3.485,2.211-7.054,4.038M414.291,662.1a52.637,52.637,0,0,0,3.191,5.563,26.82,26.82,0,0,0,9.751,9.331q1.858-.525,3.676-1.149-.458-2.217-.759-4.5-.116-.185-.229-.372a43.256,43.256,0,0,1-3.784-8.032,59.016,59.016,0,0,1-11.846-.839m58.063,13.854a67.243,67.243,0,0,0,24.777-1.234q2.454-.585,4.894-1.353a166.4,166.4,0,0,0-18.6-14.374c-1.458.977-2.991,2.027-4.586,3.12-2.549,1.747-5.27,3.612-8.108,5.462.477,2.936,1.011,5.739,1.622,8.379m-11.225-2.562a49.066,49.066,0,0,0,5.122,1.454q2.338.532,4.682.9c-.529-2.346-1-4.812-1.425-7.378-2.711,1.742-5.519,3.453-8.379,5.025m-29.229.526q.132.742.282,1.478.336-.122.67-.246-.488-.606-.952-1.232m-.473-3.107a36.913,36.913,0,0,0,2.781,3.819c2.665-1.048,5.24-2.224,7.7-3.47q1.257-3.251,2.444-7.03-.415-.468-.814-.95a34.883,34.883,0,0,1-2.171-2.928q-.934.307-1.875.58a53.852,53.852,0,0,1-8.59,1.746,67.637,67.637,0,0,0,.526,8.233m-53.2-38.216a65.783,65.783,0,0,0-.371,6.847c-.011,9.449,2.008,17.95,5.84,24.583a29.621,29.621,0,0,0,9.039,9.907,63.559,63.559,0,0,1-4.24-22.985,31.072,31.072,0,0,1-10.268-18.353M484.7,658.145a167.079,167.079,0,0,1,18.855,14.72,78.176,78.176,0,0,0,9.981-4.189,56.273,56.273,0,0,0,1.232-16.535,26.716,26.716,0,0,1-6.407,4.275c-5.969,2.774-11.4,2.875-16.128.3a18.208,18.208,0,0,1-2.527-1.67c-1.525.857-3.2,1.912-5.005,3.1m-34.146,9.767a38.346,38.346,0,0,0,8.808,4.825c3.385-1.8,6.713-3.83,9.9-5.892-.584-3.722-1.083-7.641-1.537-11.7-2.432,2.128-4.941,4.178-7.478,6.1-2.69,2.04-5.97,4.359-9.7,6.665M445.4,665.26q-.832,2.613-1.7,4.967c1.514-.806,2.981-1.635,4.389-2.472a35.383,35.383,0,0,1-2.684-2.5m-17.859-2.388a42.818,42.818,0,0,0,2.249,5.1q-.209-2.59-.225-5.257-1.009.1-2.025.154m88.468-11.9a58.146,58.146,0,0,1-.931,16.9q3.016-1.594,5.973-3.47,1.9-1.208,3.653-2.444a177.052,177.052,0,0,0-.057-23.313,44.986,44.986,0,0,1-8.638,12.325m-70.138,12.769a33.945,33.945,0,0,0,3.483,3.243c3.907-2.389,7.336-4.807,10.124-6.922,2.827-2.144,5.523-4.366,8.059-6.612q-.2-1.879-.4-3.792-2.221-1.044-4.333-1.9a65.335,65.335,0,0,1-15.278,10.042q-.8,3.121-1.659,5.938m23.075-9.684c.457,4.161.956,8.176,1.542,11.984,2.667-1.748,5.229-3.5,7.635-5.153,1.391-.953,2.735-1.874,4.025-2.743q-.533-.348-1.067-.69c-3.325-2.129-6.558-4.021-9.667-5.662q-1.217,1.142-2.468,2.263m57.036,8.719a.087.087,0,0,0,0,.009l.01-.016-.009.007m-83.279-2.991q.861,1.26,1.826,2.428c.1.118.2.235.294.351q.584-1.96,1.14-4.061-1.618.694-3.26,1.282m-29.174.711a58.433,58.433,0,0,0,12.123,1.007q-3.632-11.332-2.649-26.75-.993-.977-1.913-2.051-.565-.66-1.1-1.354c-3.028,1.513-5.7,2.973-7.873,4.288a21.116,21.116,0,0,0-3.6,2.717q.006.237.014.474a56.823,56.823,0,0,0,5,21.669m10.737-24.566q-.791,14.7,2.781,25.522,1.267-.063,2.524-.185a80.3,80.3,0,0,1,.568-8.424,56.477,56.477,0,0,1,2.028-11.813,31.457,31.457,0,0,1-7.9-5.1m9.162,5.637a56.171,56.171,0,0,0-1.957,11.363l-.005.066a78.794,78.794,0,0,0-.559,8.125,52.582,52.582,0,0,0,8.236-1.687q.717-.208,1.429-.436A41.426,41.426,0,0,1,435,642.157q-.8-.274-1.572-.586m92.383-5.447a185.431,185.431,0,0,1,.3,24.834q.924-.676,1.8-1.349a70.115,70.115,0,0,0,8.905-35.588c-.089-5.805-1.674-9.713-4.846-11.948a10.051,10.051,0,0,0-1.078-.66,62.664,62.664,0,0,1-5.074,24.712m-123.126,21.4q.622.228,1.258.445a69.943,69.943,0,0,0,7.964,2.209,58.386,58.386,0,0,1-4.674-20.479,19.335,19.335,0,0,0-4.455,9.833,29.528,29.528,0,0,0-.093,7.991M436.4,642.606a39.587,39.587,0,0,0,5.5,15.951q2.282-.8,4.515-1.8c1.087-4.341,1.928-8.588,2.55-12.555q-.74-.046-1.444-.046a38.937,38.937,0,0,1-11.122-1.546m94.448-32.8a11.522,11.522,0,0,1,1.844,1.056c3.522,2.481,5.356,6.9,5.451,13.131a71.993,71.993,0,0,1-7.555,33.473,85.645,85.645,0,0,0,11.269-11.055,91.574,91.574,0,0,0-2.8-38.832,72.759,72.759,0,0,0-8.915-4.337,47.42,47.42,0,0,1,.677,5.98c.01.194.019.39.026.585M472.5,650.77c2.99,1.6,6.088,3.417,9.264,5.451q.831.532,1.659,1.077c1.835-1.219,3.551-2.314,5.127-3.225a36.06,36.06,0,0,1-7.678-10.874q-.715.211-1.427.381c-2.152,2.415-4.487,4.83-6.946,7.19m18.564,3.542a16.334,16.334,0,0,0,1.766,1.116c4.425,2.41,9.332,2.3,15-.336a25.974,25.974,0,0,0,6.785-4.7,64.916,64.916,0,0,0-2.317-11.782,38.627,38.627,0,0,0-1.625-4.518c-6.107,10.029-12.8,17.287-17.931,19.433-.531.222-1.092.485-1.678.785m-101.237-4.036a41.16,41.16,0,0,0,11.458,6.708,30.587,30.587,0,0,1,.182-7.7,20.567,20.567,0,0,1,5.708-11.559A64.37,64.37,0,0,1,411.9,612.51a71.968,71.968,0,0,1-1.271-13.965q-2.1-.117-4.163-.072a108.381,108.381,0,0,0-15.205,37.653,76.793,76.793,0,0,0-1.432,14.151m60.473-5.962c-.578,3.712-1.344,7.663-2.322,11.706a64.174,64.174,0,0,0,13.362-8.832,46.321,46.321,0,0,0-11.04-2.875m31.894-1.541a33.4,33.4,0,0,0,7.651,10.576c.853-.458,1.66-.851,2.415-1.167,4.828-2.02,11.487-9.306,17.38-19.015q.172-.284.342-.568a29.181,29.181,0,0,0-7.025-9.256,34.823,34.823,0,0,1-7.686,11.134,35.679,35.679,0,0,1-13.077,8.3m-13.64,7.567q.1,1.014.211,2.017.682-.618,1.347-1.238-.785-.4-1.557-.78m-.168-1.657q1.392.668,2.819,1.406c2.146-2.043,4.147-4.081,5.985-6.078a21.183,21.183,0,0,1-5.141.138,7.405,7.405,0,0,1-3.793-1.592l-.424.442q.274,2.872.554,5.685m43.136-16.007a39.711,39.711,0,0,1,2.047,5.5,66.912,66.912,0,0,1,2.259,11.013,45.29,45.29,0,0,0,8.188-12.359q.224-.485.44-.976-.643-8.569-1.968-17.991-.481-3.415-1.268-6.71a107.509,107.509,0,0,1-9.7,21.521M379,627.291q.008.212.019.423a31.151,31.151,0,0,0,6.238,17.785,30.542,30.542,0,0,0,3.251,3.6,79.051,79.051,0,0,1,1.446-13.263,109.829,109.829,0,0,1,14.853-37.3,47.655,47.655,0,0,0-7.277.945c-5.382,1.137-10.38,6.021-14.075,13.754A57.571,57.571,0,0,0,379,627.291M464,646.715q1.467.609,2.984,1.307-.187-1.88-.369-3.786-1.294,1.282-2.615,2.479m-13.481-3.823a49.127,49.127,0,0,1,12.041,3.242q1.867-1.656,3.678-3.485l.205-.208q-.086-.907-.173-1.818a35.467,35.467,0,0,1-4.847-8.369c-3.423,1.056-6.19,1.5-8.055,1.006-.553-.145-1.151-.321-1.787-.527-.178,3.012-.524,6.452-1.062,10.159m18.7-1.36a6.093,6.093,0,0,0,2.956,1.183,20.936,20.936,0,0,0,6.591-.447q.555-.627,1.086-1.247c-1.187-2.647-2.277-5.511-3.289-8.531a95.83,95.83,0,0,1-7.343,9.042m-32.987-.478a37.431,37.431,0,0,0,11.293,1.658q.808,0,1.661.058c.563-3.852.915-7.407,1.084-10.485a55.533,55.533,0,0,1-10.751-5.333q-.865,1.461-1.65,3c-.662,1.3-1.256,2.594-1.789,3.868a50.867,50.867,0,0,0,.152,7.232m45.231.2.107.229a34.272,34.272,0,0,0,12.805-8.07,33.275,33.275,0,0,0,7.5-10.967,29.488,29.488,0,0,0-6.641-3.906q-.434-.186-.874-.359-1.055.449-2.107.906a50.349,50.349,0,0,1-1.059,6.417c-.893,3.726-4.435,9.457-9.731,15.749m-13.913-1.24c.2.221.4.431.607.628a94.93,94.93,0,0,0,7.874-9.768q-.622-1.937-1.207-3.949c-2.908,1.295-5.664,2.482-8.2,3.478.306,3.061.6,6.12.883,9.156l.043.456m-33.727.175q.509.206,1.028.4-.126-1.551-.157-3.124-.482,1.4-.871,2.728m43.706-9.067c.523,1.591,1.069,3.15,1.642,4.661q.815,2.152,1.662,4.078c5.019-6.027,8.264-11.35,9.071-14.717a47.544,47.544,0,0,0,.94-5.44c-2.879,1.265-5.724,2.556-8.474,3.808q-2.3,3.955-4.841,7.611M424.38,634.15a30.17,30.17,0,0,0,8.187,5.5,63.257,63.257,0,0,1,2.194-6.186,57.714,57.714,0,0,1,1.206-8.971l-.13-.1c-3.867,1.488-7.573,3.063-10.98,4.63q-.3,2.618-.478,5.128m38.327-2.312a41.039,41.039,0,0,0,3.314,6.2q-.338-3.559-.691-7.143-1.361.514-2.624.939M412.42,614.893A64.162,64.162,0,0,0,408.5,636.5a23.118,23.118,0,0,1,2.965-2.118c2.13-1.287,4.726-2.711,7.667-4.188a44.054,44.054,0,0,1-6.715-15.3M522.3,609.911a73.457,73.457,0,0,1,1.512,7.738q1.13,8.038,1.768,15.473a60.79,60.79,0,0,0,3.971-22.31,18.347,18.347,0,0,0-7.251-.9m-101.044,20.82q.4.508.821,1,.521.608,1.067,1.185.128-1.595.305-3.234-1.121.528-2.193,1.052m30.4.522c.726.241,1.406.443,2.027.607,1.594.419,4.081.015,7.168-.927-1.409-3.33-2.748-7.037-4.111-10.809q-.37-1.023-.742-2.051c-1.951.459-3.837.952-5.631,1.456a19.412,19.412,0,0,1,1.273,5.745,57.717,57.717,0,0,1,.016,5.979m51.851-9.288a30.216,30.216,0,0,1,7.3,9.244,105.463,105.463,0,0,0,9.348-21.121,70.747,70.747,0,0,0-15.007,3.841,26.472,26.472,0,0,1-1.64,8.036m-63.256,3.791a54.342,54.342,0,0,0,10.091,5.035c.078-2.088.064-3.916-.032-5.418a17.92,17.92,0,0,0-1.245-5.471c-2.027.591-4.052,1.23-6.058,1.9q-1.459,1.887-2.756,3.95m17.068-7.988q.333.917.662,1.831c1.382,3.827,2.74,7.584,4.156,10.92.969-.323,1.987-.691,3.049-1.1-.438-4.318-.911-8.638-1.462-12.9-2.185.36-4.328.783-6.406,1.249m-20.163,7.59q-.454,2.219-.728,4.448.136-.274.275-.547.8-1.567,1.677-3.054-.613-.412-1.224-.847m-23.858-12.691a43.46,43.46,0,0,0,7.085,16.91q1.572-.772,3.256-1.556.794-6.554,2.34-13.748a36.694,36.694,0,0,1-3.412-6.035,33.624,33.624,0,0,1-2.342-7.5,48.983,48.983,0,0,0-6.5,10.935q-.216.492-.424.99m62.765,13.7q.457,1.567.94,3.105,1.65-2.42,3.2-4.979-2.109.959-4.14,1.873m-11.018-10.06c.538,4.171,1,8.393,1.433,12.611,2.48-.982,5.162-2.139,7.953-3.381-.916-3.24-1.77-6.6-2.583-10.006-2.284.171-4.561.438-6.8.777m-38.006-.585q-1.261,6.055-1.976,11.64c2.974-1.352,6.161-2.7,9.474-4a45.387,45.387,0,0,1-7.5-7.642m10.441,8.148q.812.59,1.628,1.136.776-1.238,1.609-2.415-1.618.57-3.211,1.166l-.026.114m35.719-8.429c.758,3.177,1.575,6.39,2.467,9.544,1.764-.792,3.564-1.611,5.381-2.438l.421-.192q1.839-3.187,3.508-6.548a61.917,61.917,0,0,0-11.777-.366m-45.779-1.5a43.8,43.8,0,0,0,8.619,8.845l.357-.135a60.281,60.281,0,0,1,3.952-11.135q.434-.924.895-1.821l-.006,0a45.268,45.268,0,0,0-11-6.571q-.7,2.06-1.258,4.259-.856,3.346-1.56,6.563m14.88-3.334q-.391.769-.763,1.561a58.782,58.782,0,0,0-3.611,9.911q2.133-.786,4.311-1.526a48.221,48.221,0,0,1,4.5-4.973,28.6,28.6,0,0,0-4.435-4.974m44.082,5.412q-1.349,2.744-2.812,5.381c2.43-1.1,4.925-2.227,7.446-3.33q.044-.491.083-1a42,42,0,0,0-4.717-1.054m9.816,1.384a30.816,30.816,0,0,1,6.2,3.666,25.011,25.011,0,0,0,1.388-6.654c-2.5.916-5.045,1.927-7.588,2.987m-74.745-55.131q-.612.267-1.231.56c-10.115,4.793-20.9,14.86-28.857,26.93-6.79,10.3-10.952,20.94-12.08,30.659a54.029,54.029,0,0,1,2.99-7.852c3.886-8.132,9.215-13.284,15-14.507a49.236,49.236,0,0,1,8.477-1.008q2.55-3.914,5.336-7.474a57.676,57.676,0,0,1,5.3-18.852,54.763,54.763,0,0,1,5.06-8.457m26.051,54.5q-1.464,1.417-2.811,2.972,1.89-.608,3.792-1.167-.44-.912-.98-1.806m1.016-.953A22.945,22.945,0,0,1,449.8,618.2q2.9-.821,5.7-1.488c-.605-1.654-1.221-3.3-1.854-4.923q-.965.652-1.892,1.35-1.679,1.265-3.236,2.682M492.5,616q.935.3,1.833.638c3.184-1.351,6.378-2.636,9.5-3.769a25.731,25.731,0,0,0-3-11.807c-2.595.208-5.422.467-8.526.773-.094.269-.187.535-.283.8A72.71,72.71,0,0,1,492.5,616m-37.7-4.969c.692,1.765,1.362,3.565,2.022,5.369q3.437-.78,6.713-1.322-.534-4-1.175-7.918a47.729,47.729,0,0,0-7.56,3.872m32.236,3.635q2.156.381,4.156.942a71.105,71.105,0,0,0-.2-10.177q-1.808,4.726-3.958,9.235m-23.4-8c.449,2.7.853,5.442,1.222,8.205q3.425-.521,6.654-.773c-.634-2.711-1.245-5.453-1.842-8.193q-.114-.523-.213-1.052a54.325,54.325,0,0,0-5.821,1.813m-20.667,2.672a30.228,30.228,0,0,1,4.779,5.3q1.564-1.416,3.247-2.685,1.039-.783,2.124-1.508a76.7,76.7,0,0,0-4.466-9.51,49.6,49.6,0,0,0-5.684,8.4m34.31,4.528a57.674,57.674,0,0,1,8.367.58,125.5,125.5,0,0,0,5.016-11.978c-.021-.153-.042-.305-.064-.459-3.756.378-7.9.82-12.508,1.316a63.946,63.946,0,0,0-7.332,1.215q.1.521.209,1.035c.592,2.721,1.219,5.554,1.892,8.429l.586-.034q1.957-.1,3.833-.1m-55.789-13.672a32.016,32.016,0,0,0,2.281,7.422,35.065,35.065,0,0,0,2.616,4.816q.6-2.674,1.31-5.433.58-2.267,1.3-4.392a57.552,57.552,0,0,0-7.505-2.413m80.811.758a27.263,27.263,0,0,1,2.861,11.447c1.628-.572,3.233-1.1,4.8-1.568a57.042,57.042,0,0,1,10.6-2.238,68.389,68.389,0,0,0-2.775-7.992,112.806,112.806,0,0,0-15.488.351m-90.334-2.316a72.323,72.323,0,0,0,.9,11.658,49.622,49.622,0,0,1,6.448-10.6,58.7,58.7,0,0,0-7.344-1.061m37.631,1.22a75.828,75.828,0,0,1,4.675,9.846,49.125,49.125,0,0,1,7.848-3.978q-.669-3.893-1.48-7.653-.665-3.057-1.411-5.877a35.316,35.316,0,0,0-9.631,7.663m73.994,8.582a18.88,18.88,0,0,1,5.905.842,45.466,45.466,0,0,0-.807-6.571,37.593,37.593,0,0,0-4.932-1.344c-.454,2.337-1.03,4.714-1.719,7.115q.8-.043,1.553-.043m-92.871-6.68a46.6,46.6,0,0,1,11.191,6.68,50.743,50.743,0,0,1,5.994-8.749c-3.538-5.688-7.385-8.469-11.736-8.477a45.526,45.526,0,0,0-5.448,10.547m88.578-1.038q1.1,2.709,1.969,5.514.681-2.582,1.175-5.111c-1.008-.167-2.05-.3-3.144-.4m10.526.881a65.627,65.627,0,0,1,8.682,4.06q-.5-1.647-1.05-3.3c-9.108-27.2-21.675-46.125-37.35-56.255a50.528,50.528,0,0,0-39.084-7.07,70.633,70.633,0,0,0-20.875,8.25A64.233,64.233,0,0,1,455.7,549.8a49.63,49.63,0,0,1,19.288-2c8.462.913,15,4.279,18.892,9.541,7.4-1.889,14.961.59,21.858,7.312,6.182,6.025,9.309,14.6,9.239,25.13q.3.448.582.911a35.337,35.337,0,0,1,4.262,10.9m-69.372-10.022q.789,2.954,1.485,6.162.8,3.679,1.454,7.492a55.793,55.793,0,0,1,5.826-1.8,44.345,44.345,0,0,1,.515-15.231,46.326,46.326,0,0,0-9.281,3.376m10.714-3.692a43.009,43.009,0,0,0-.644,15.236,65.04,65.04,0,0,1,7.435-1.23c4.586-.5,8.7-.931,12.423-1.3a62.549,62.549,0,0,0-1.513-6.844c-.438-1.554-.97-3.184-1.617-4.847a28.925,28.925,0,0,0-16.084-1.011M421.888,598.8a58.4,58.4,0,0,1,7.582,2.439,47.611,47.611,0,0,1,4.943-9.9c-4.313.619-8.651,3.259-12.524,7.458m102.125,1.151a38.571,38.571,0,0,1,4.313,1.131,33.9,33.9,0,0,0-3.425-8.819,64.034,64.034,0,0,1-.841,7.411q-.023.138-.048.276m-29.134-6.459c-.606,2.259-1.3,4.551-2.064,6.853,2.61-.254,5.016-.473,7.243-.655a26.37,26.37,0,0,0-5.178-6.2m-5.927-3.876c.455,1.267.847,2.508,1.185,3.706a63.663,63.663,0,0,1,1.453,6.444c.81-2.428,1.528-4.841,2.153-7.213q-.568-.442-1.161-.853a24.957,24.957,0,0,0-3.63-2.085m29.714,9.607c.887.07,1.739.159,2.568.268q.744.1,1.463.218c.017-.1.034-.2.051-.3a60.314,60.314,0,0,0,.88-9.176,25.523,25.523,0,0,0-13.331-9.9c-1.555-.514-3.253-1.046-5.066-1.573a72.636,72.636,0,0,1,13.435,20.463m-23.4-7.233a27.786,27.786,0,0,1,6.291,7.58,122.714,122.714,0,0,1,15.582-.446,72.045,72.045,0,0,0-14.519-21.093c-1.521-.41-3.11-.812-4.752-1.192a91.147,91.147,0,0,1-2.6,15.151m-58.079-2.176c4.33.393,8.159,3.293,11.651,8.809a36.4,36.4,0,0,1,10-7.833,85.352,85.352,0,0,0-4.831-13.358,41.16,41.16,0,0,0-6.249,3.015,37.274,37.274,0,0,0-10.571,9.368M411.973,597.2a60.136,60.136,0,0,1,7.888,1.137A40.437,40.437,0,0,1,422.778,579a90.315,90.315,0,0,0-10.411,11.184q-.094.916-.16,1.841-.191,2.639-.233,5.172M425.082,577q-.174.383-.342.773c-3,6.941-4.2,13.572-3.609,19.821,4.359-4.652,9.294-7.447,14.176-7.8l.186-.012a38.707,38.707,0,0,1,11.629-10.6,42.321,42.321,0,0,1,6.268-3.04,46.154,46.154,0,0,0-6.943-10.449q-.11-.122-.222-.242a49.293,49.293,0,0,0-13.7,6.128A69.358,69.358,0,0,0,425.082,577m-17.471,20.025q1.51,0,3.03.081.042-2.436.219-4.968-1.774,2.366-3.452,4.887h.2m80.633-9.274a26.222,26.222,0,0,1,5.057,2.734q.417.288.821.591a88.267,88.267,0,0,0,2.445-14.535,108.8,108.8,0,0,0-16.861-2.431,43.393,43.393,0,0,1,8.538,13.641m-32.958-10.79a86.939,86.939,0,0,1,4.78,13.22,46.976,46.976,0,0,1,10-3.536,51.116,51.116,0,0,1,2.128-6.817,49,49,0,0,1,2.748-5.869h-.2a59.009,59.009,0,0,0-19.457,3m48-.237c2.7.736,5.192,1.5,7.4,2.23A26.844,26.844,0,0,1,523.61,587.9c-.248-7.781-2.414-15.984-8.767-22.175s-13.3-8.6-20.093-7.1a20.453,20.453,0,0,1,2.6,6.4,33.334,33.334,0,0,1,.7,6.831q1.908,1.635,3.768,3.422.747.719,1.469,1.45M423.917,561.3a53.518,53.518,0,0,0-6.345,10.1,55.62,55.62,0,0,0-4.886,16.2,88.545,88.545,0,0,1,11.339-11.529,46.227,46.227,0,0,1,12.509-16.1,18.656,18.656,0,0,0-2-.272,25.555,25.555,0,0,0-10.621,1.6m53.814,24.467a28.229,28.229,0,0,1,8.785,1.355,40.776,40.776,0,0,0-8.863-13.107c-.387-.014-.771-.025-1.159-.033a47.372,47.372,0,0,0-3.069,6.41,49.684,49.684,0,0,0-1.906,5.961,34.346,34.346,0,0,1,6.211-.585M497.97,575.39q1.333.306,2.615.629-1.26-1.2-2.547-2.329-.021.835-.068,1.7m-50.214-10.3a48.249,48.249,0,0,1,6.911,10.582,60.909,60.909,0,0,1,21.1-3.135l.09-.15a35.825,35.825,0,0,0-11.5-6.507,30.359,30.359,0,0,0-16.6-.79M478.2,572.6a107.96,107.96,0,0,1,18.462,2.495q.066-1.3.07-2.534a96.9,96.9,0,0,0-12.068-8.654,37.466,37.466,0,0,0-7.013,8.182q.279.253.55.51m-39.945-12.212a45.187,45.187,0,0,0-11.664,13.618q2.594-1.992,5.263-3.671a51.338,51.338,0,0,1,13.2-6.049,17.393,17.393,0,0,0-6.8-3.9m16.619,2.469a29.983,29.983,0,0,1,9.9,1.648,37.165,37.165,0,0,1,11.841,6.677,39.277,39.277,0,0,1,6.794-8.029,112.313,112.313,0,0,0-15.052-7.411,127.537,127.537,0,0,0-12.709-4.428,54.568,54.568,0,0,0-9.2,3.783,52.968,52.968,0,0,0-6.806,4.239,19.016,19.016,0,0,1,7,4.535,35.13,35.13,0,0,1,8.243-1.014m30.95.106a98.559,98.559,0,0,1,10.875,7.752,30.025,30.025,0,0,0-.643-5.354,18.815,18.815,0,0,0-2.7-6.371,22.38,22.38,0,0,0-5.6,2.616q-.977.624-1.927,1.357m-27.528-12.392c3.6,1.123,7.1,2.444,10.524,3.821a113.462,113.462,0,0,1,15.727,7.8,28.334,28.334,0,0,1,2.525-1.822,24.2,24.2,0,0,1,5.389-2.6c-3.716-4.682-9.793-7.682-17.6-8.525a47.432,47.432,0,0,0-16.561,1.334m-20.366-1.9a61.044,61.044,0,0,0-9.028,7.156q-1.719,1.657-3.272,3.429a25.4,25.4,0,0,1,9.013-.994,19.606,19.606,0,0,1,3.331.561,53.751,53.751,0,0,1,7.885-5.019,55.647,55.647,0,0,1,7.274-3.162,56.764,56.764,0,0,0-15.2-1.971" transform="translate(-293.472 -414.66)" fill="#2b478b"/><path d="M640.7,240.24c3.729-15.66,10.033-29.278,27.1-29.278,14.965,0,28.538,14.244,27.551,31.8-.907,16.14-13.878,29.811-29.757,27.89-14.872-1.8-29.16-12.479-24.891-30.41" transform="translate(-505.573 -163.102)" fill="#afcdfb"/><g transform="translate(150.872 59.253)" opacity="0.8"><g clip-path="url(#c)"><path d="M725.826,289.533a22.811,22.811,0,0,1,.213-3.341,11,11,0,0,1,.7-2.6A10.645,10.645,0,0,1,728,281.362a23.931,23.931,0,0,1,1.9-2.246q.851-.893,1.59-1.691a13.5,13.5,0,0,0,1.3-1.637,7.639,7.639,0,0,0,.889-1.786,6.46,6.46,0,0,0,.325-2.111,5.753,5.753,0,0,0-1.164-3.882,4.284,4.284,0,0,0-3.418-1.339,5.769,5.769,0,0,0-1.753.27,4.227,4.227,0,0,0-1.528.866,4.374,4.374,0,0,0-1.089,1.515,5.389,5.389,0,0,0-.413,2.219h-6.085a11.453,11.453,0,0,1,.864-4.478,9.207,9.207,0,0,1,2.3-3.247,9.743,9.743,0,0,1,3.431-1.975,14.441,14.441,0,0,1,8.777.041,9.037,9.037,0,0,1,3.355,2.056,8.8,8.8,0,0,1,2.091,3.3,12.762,12.762,0,0,1,.714,4.41,10.242,10.242,0,0,1-.526,3.328,13.039,13.039,0,0,1-1.4,2.894,20.429,20.429,0,0,1-2,2.6q-1.127,1.245-2.328,2.462A6.774,6.774,0,0,0,732,285.894a13.763,13.763,0,0,0-.488,3.639Zm-.426,8.415a4.266,4.266,0,0,1,.225-1.407,3.291,3.291,0,0,1,.663-1.136,3,3,0,0,1,1.077-.757,4.1,4.1,0,0,1,2.93,0,3,3,0,0,1,1.077.757,3.466,3.466,0,0,1,.676,1.136,4.066,4.066,0,0,1,.238,1.407,3.58,3.58,0,0,1-.9,2.489,3.26,3.26,0,0,1-2.554,1,3.22,3.22,0,0,1-2.542-1,3.611,3.611,0,0,1-.889-2.489" transform="translate(-718.565 -261.178)" fill="#fff"/></g></g><path d="M1034.834,154.747l-24.313,7.551,14.9-14.6,1.338,3.761,6.184.274Z" transform="translate(-798.349 -114.193)" fill="#eabe96"/><path d="M1010.521,148.175l19.162-14.6,20.09-4.14Z" transform="translate(-798.349 -100.07)" fill="#f9ddbf"/><path d="M1025.421,126.35l-14.9,14.6,10.3-20.862Z" transform="translate(-798.349 -92.842)" fill="#f9ddbf"/><path d="M2143.1,626.7l25.34,3.9-16.818-12.38-.854,3.97-6.163,1.207Z" transform="translate(-1693.132 -477.969)" fill="#edcbab"/><path d="M2106.672,628.969l-21.09-11.742-20.668-1.118Z" transform="translate(-1631.36 -476.335)" fill="#f9ddbf"/><path d="M2183.692,594.465l16.818,12.38-13.022-19.352Z" transform="translate(-1725.198 -454.21)" fill="#f9ddbf"/><path d="M1774.522,661.719c-23.794,0-47.368-11.337-63.061-30.328a76.166,76.166,0,0,1-17.522-56.784l.319.039-.319-.039c2.925-27.84,11.633-49.413,25.882-64.12,13.515-13.949,31.914-21.658,54.684-22.913,26.639-1.467,47.138,6.731,60.924,24.37,6.031,7.716,10.775,17.28,14.1,28.428a148.093,148.093,0,0,1,5.576,34.254c.71,13.289-.379,25.366-3.237,35.9a68.5,68.5,0,0,1-14.24,27.47c-13.752,15.743-34.984,23.725-63.106,23.725m5.946-173.618q-2.913,0-5.93.166c-22.612,1.246-40.872,8.89-54.273,22.721-14.137,14.592-22.78,36.022-25.688,63.7-2.118,20.157,4.048,40.131,17.363,56.244,15.573,18.845,38.968,30.1,62.582,30.1,27.938,0,49.013-7.909,62.639-23.507a67.811,67.811,0,0,0,14.091-27.19c2.838-10.455,3.918-22.453,3.212-35.662a147.387,147.387,0,0,0-5.546-34.082c-3.3-11.061-8-20.546-13.98-28.193-12.611-16.134-30.918-24.291-54.471-24.291" transform="translate(-1337.949 -376.831)" fill="#2b478b"/><path d="M1772.85,660.562c-23.919,0-47.617-11.4-63.393-30.488a76.682,76.682,0,0,1-17.681-56.681h0l.1-.954h0c2.987-27.726,11.722-49.234,25.966-63.936,13.594-14.031,32.088-21.784,54.968-23.045,26.787-1.476,47.406,6.781,61.286,24.54,6.068,7.764,10.84,17.383,14.183,28.591a148.6,148.6,0,0,1,5.6,34.374c.713,13.344-.382,25.477-3.254,36.06a69,69,0,0,1-14.344,27.665c-13.839,15.842-35.18,23.875-63.429,23.875m5.946-173.618c-1.924,0-3.911.056-5.907.166-22.5,1.24-40.667,8.84-53.989,22.589-14.06,14.512-22.657,35.844-25.553,63.4-2.1,20.019,4.023,39.861,17.252,55.869,15.49,18.745,38.761,29.936,62.251,29.936,27.811,0,48.777-7.858,62.316-23.356a67.321,67.321,0,0,0,13.988-27c2.823-10.4,3.9-22.346,3.2-35.5a146.829,146.829,0,0,0-5.525-33.962c-3.281-11-7.957-20.432-13.9-28.031-12.51-16.005-30.722-24.12-54.132-24.12" transform="translate(-1336.277 -375.194)" fill="#2b478b"/><path d="M1747.389,666.1c-13.363,0-28.069-4.1-43.973-12.285-21.482-11.056-38.253-32.245-44.863-56.682-5.66-20.925-3.252-42.023,6.78-59.407,13.721-23.776,30.168-39.206,48.885-45.863,17.753-6.314,37.431-4.725,58.489,4.722,24.635,11.052,39.878,27.979,45.3,50.309a89.805,89.805,0,0,1,1.416,32.217,146.833,146.833,0,0,1-8.6,33.516c-4.648,12.327-10.437,22.725-17.209,30.905a62.189,62.189,0,0,1-23.789,18.184,57.556,57.556,0,0,1-22.443,4.383m-81.783-128.19.272.184c-9.934,17.214-12.317,38.112-6.708,58.845,6.559,24.25,23.2,45.278,44.522,56.25,25.224,12.981,47.4,15.633,65.908,7.882a61.553,61.553,0,0,0,23.542-18c6.723-8.12,12.474-18.45,17.093-30.7a146.115,146.115,0,0,0,8.557-33.346,89.065,89.065,0,0,0-1.4-31.949c-5.374-22.11-20.49-38.88-44.93-49.845-20.911-9.382-40.439-10.965-58.041-4.7-18.571,6.6-34.9,21.937-48.542,45.571Z" transform="translate(-1307.952 -377.349)" fill="#2b478b"/><path d="M1745.716,664.942c-13.4,0-28.264-4.149-44.164-12.332-21.594-11.114-38.453-32.415-45.1-56.98-5.7-21.058-3.271-42.294,6.829-59.8,13.778-23.874,30.305-39.372,49.124-46.065,17.857-6.351,37.64-4.758,58.8,4.735,24.77,11.113,40.1,28.148,45.565,50.631a90.321,90.321,0,0,1,1.426,32.4,147.314,147.314,0,0,1-8.627,33.634c-4.666,12.378-10.483,22.823-17.289,31.044a62.638,62.638,0,0,1-23.96,18.312,58.191,58.191,0,0,1-22.6,4.415M1664.582,536.71c-9.866,17.1-12.231,37.856-6.659,58.456,6.524,24.12,23.08,45.037,44.287,55.951,25.109,12.922,47.165,15.57,65.556,7.868a61.114,61.114,0,0,0,23.372-17.872c6.688-8.079,12.412-18.362,17.013-30.565a145.6,145.6,0,0,0,8.527-33.229,88.54,88.54,0,0,0-1.39-31.763c-5.336-21.957-20.366-38.619-44.67-49.524-20.81-9.337-40.234-10.915-57.732-4.692-18.469,6.568-34.721,21.833-48.3,45.369" transform="translate(-1306.278 -375.711)" fill="#2b478b"/><path d="M1785.02,660.627c-19.39,0-39.308-10.068-59.276-29.981-18.1-18.051-28.668-44.56-28.267-70.912.344-22.565,8.714-42.628,23.569-56.491l.217.272-.217-.272c20.316-18.961,40.959-28.766,61.355-29.144,19.338-.359,38.351,7.734,56.489,24.055,21.22,19.093,31.486,40.881,30.513,64.759a91.809,91.809,0,0,1-7.746,32.324,144.806,144.806,0,0,1-18.017,30.289c-8.094,10.648-16.771,19.01-25.789,24.853a60.855,60.855,0,0,1-28.683,10.095q-2.069.154-4.148.154m-1.388-185.822c-.407,0-.812,0-1.219.012-20.236.375-40.737,10.122-60.932,28.969-14.709,13.728-23,33.6-23.338,55.959-.4,26.151,10.089,52.458,28.053,70.373,21.254,21.195,42.424,31.168,62.928,29.638a60.228,60.228,0,0,0,28.388-9.994c8.952-5.8,17.571-14.108,25.617-24.693a144.093,144.093,0,0,0,17.927-30.135,91.049,91.049,0,0,0,7.685-32.053c.964-23.642-9.222-45.233-30.274-64.175-17.629-15.863-36.073-23.9-54.833-23.9" transform="translate(-1341.062 -366.533)" fill="#2b478b"/><path d="M1783.348,659.471h0c-19.5,0-39.542-10.129-59.577-30.108-18.193-18.142-28.813-44.787-28.41-71.273.343-22.534,8.645-42.59,23.387-56.532h0l.673-.628h0c20.289-18.831,40.91-28.569,61.3-28.947,19.449-.364,38.558,7.769,56.781,24.166,21.332,19.195,31.652,41.114,30.672,65.149a92.3,92.3,0,0,1-7.786,32.5,145.28,145.28,0,0,1-18.077,30.393c-8.127,10.691-16.842,19.089-25.9,24.96a61.277,61.277,0,0,1-28.882,10.162c-1.383.1-2.789.156-4.179.156m-1.388-185.822c-.4,0-.807,0-1.212.011-20.13.373-40.535,10.081-60.649,28.853-14.612,13.637-22.846,33.384-23.184,55.6-.4,26.016,10.037,52.189,27.91,70.012,19.755,19.7,39.423,29.663,58.525,29.663q2.04,0,4.07-.151a59.821,59.821,0,0,0,28.19-9.927c8.908-5.773,17.489-14.044,25.5-24.586a143.6,143.6,0,0,0,17.867-30.032,90.535,90.535,0,0,0,7.644-31.873c.957-23.484-9.175-44.944-30.115-63.785-17.543-15.785-35.9-23.788-54.549-23.788" transform="translate(-1339.39 -364.896)" fill="#2b478b"/><path d="M1718.368,663.575a57.754,57.754,0,0,1-21.656-4.095c-19.443-7.8-35.064-26.44-46.429-55.4-9.616-24.5-9.142-53.363,1.267-77.2,8.913-20.41,24.187-34.969,43.007-40.992,25.74-8.238,48.288-7.989,67.018.742,17.766,8.281,32,24.113,42.31,47.056,12.06,26.841,13.112,51.264,3.125,72.59a85.4,85.4,0,0,1-19.377,26.009,131.712,131.712,0,0,1-27.962,19.585c-11.434,6.1-22.528,9.861-32.972,11.174a66.847,66.847,0,0,1-8.33.531m-23.717-177.342.095.344c-18.636,5.965-33.763,20.387-42.595,40.61-10.329,23.653-10.8,52.293-1.256,76.611,11.29,28.772,26.784,47.28,46.049,55.008a59.033,59.033,0,0,0,29.678,3.523c10.368-1.3,21.389-5.038,32.755-11.1a131.032,131.032,0,0,0,27.821-19.485,84.669,84.669,0,0,0,19.219-25.79c9.889-21.115,8.836-45.323-3.13-71.952-10.237-22.783-24.359-38.5-41.975-46.71-18.584-8.662-40.98-8.9-66.567-.713Z" transform="translate(-1298.342 -371.02)" fill="#2b478b"/><path d="M1716.7,662.418a58.3,58.3,0,0,1-21.811-4.125c-19.563-7.848-35.27-26.577-46.684-55.664-9.665-24.628-9.188-53.633,1.274-77.59,8.968-20.536,24.34-35.185,43.282-41.248,25.843-8.271,48.493-8.014,67.321.762,17.866,8.328,32.176,24.237,42.533,47.287,12.125,26.983,13.175,51.549,3.122,73.017a85.87,85.87,0,0,1-19.483,26.155,132.154,132.154,0,0,1-28.056,19.652c-11.48,6.126-22.623,9.9-33.118,11.22a67.461,67.461,0,0,1-8.381.534M1693.2,485.4c-18.513,5.926-33.542,20.257-42.319,40.354-10.276,23.531-10.743,52.024-1.249,76.219,11.241,28.645,26.648,47.064,45.795,54.745a58.626,58.626,0,0,0,29.472,3.5c10.317-1.3,21.289-5.017,32.609-11.058a130.573,130.573,0,0,0,27.728-19.417A84.2,84.2,0,0,0,1804.35,604.1c9.822-20.974,8.768-45.038-3.133-71.525-10.189-22.677-24.236-38.315-41.751-46.479-18.487-8.617-40.781-8.85-66.264-.693" transform="translate(-1296.672 -369.383)" fill="#2b478b"/><path d="M1797.115,661.719c-23.794,0-43.933-13.5-59.625-32.488-13.438-16.262-23.1-34.268-20.957-54.624,2.925-27.84,11.634-49.413,25.882-64.12,13.515-13.949,31.913-21.658,54.684-22.913,26.64-1.467,47.138,6.731,60.924,24.37,6.031,7.716,10.775,17.28,14.1,28.428a148.118,148.118,0,0,1,5.576,34.254c.71,13.289-.379,25.366-3.237,35.9a68.505,68.505,0,0,1-14.241,27.47c-13.752,15.743-34.984,23.725-63.106,23.725m-80.264-87.073.319.039c-2.118,20.157,8.075,38.148,21.389,54.261,15.573,18.845,34.942,32.079,58.555,32.079,27.938,0,49.013-7.909,62.639-23.507a67.808,67.808,0,0,0,14.092-27.19c2.837-10.455,3.918-22.453,3.212-35.662a147.348,147.348,0,0,0-5.546-34.082c-3.3-11.061-8-20.546-13.98-28.193-13.65-17.464-33.972-25.581-60.4-24.124-22.613,1.246-40.873,8.89-54.273,22.721-14.137,14.592-22.78,36.022-25.688,63.7Z" transform="translate(-1355.89 -376.831)" fill="#2b478b"/><path d="M1795.423,660.563a65.611,65.611,0,0,1-33.06-9.179c-9.509-5.482-18.558-13.378-26.9-23.469-7.522-9.1-12.884-17.574-16.393-25.9a57.808,57.808,0,0,1-4.675-29.1c2.937-27.955,11.691-49.627,26.017-64.413,13.594-14.031,32.088-21.784,54.968-23.045,26.788-1.473,47.406,6.781,61.286,24.54,6.068,7.764,10.84,17.383,14.184,28.591a148.613,148.613,0,0,1,5.6,34.374c.713,13.343-.382,25.476-3.254,36.061a68.994,68.994,0,0,1-14.344,27.665c-13.839,15.842-35.18,23.875-63.429,23.875m-79.5-87.459c-1.789,17.03,4.972,34.153,21.279,53.886,17.5,21.18,37.091,31.919,58.224,31.919,27.811,0,48.777-7.858,62.316-23.356a67.322,67.322,0,0,0,13.988-27c2.823-10.4,3.9-22.346,3.195-35.5A146.85,146.85,0,0,0,1869.4,539.1c-3.282-11-7.958-20.433-13.9-28.03-13.555-17.343-33.753-25.4-60.039-23.955-22.5,1.24-40.667,8.84-53.989,22.589-14.06,14.512-22.657,35.844-25.553,63.4m4.385,29.5c3.474,7.92,8.659,16,15.824,24.672a118.449,118.449,0,0,0,9.436,10.185,122.656,122.656,0,0,1-9.03-9.831c-7.248-8.771-12.63-17.041-16.231-25.026" transform="translate(-1354.198 -375.195)" fill="#2b478b"/><path d="M1910.888,979.384l-.121.232c-.966,1.813-3.181,6.256-5.62,11.118-1.154,2.307-2.362,4.708-3.508,6.968-1.975,3.9-3.772,7.372-4.819,9.207-1.066,1.866-1.851,3.177-2.169,3.7l0,0a.932.932,0,0,0-.1.541,30.562,30.562,0,0,1-.069,4.89c-1.471,15.818-11.343,24.295-11.343,24.295l-2.935.469s4.153-16.627,5.377-26.027a19.52,19.52,0,0,0,.225-3.726,41.963,41.963,0,0,1,.947-10.173,242.538,242.538,0,0,1,6-23.547c.137-.46,4.265-16.594,4.265-16.594,3.464,3.272,16.1,4.622,16.1,4.622s2.142,5.629-2.225,14.022" transform="translate(-1485.426 -742.781)" fill="#f99746"/><path d="M1850.858,1306.252h12.25a7.825,7.825,0,0,0-.346-3.548c-.613-1.469-1.487-1.515-.111-3.817-.778.866-3.281,1.224-5.052.967-.217.38-1.4,2.93-2.124,3.493-.8.622-4.37.4-4.617,2.905" transform="translate(-1462.247 -1004.213)" fill="#2358a5"/><path d="M1993.455,1016.322l-.121.232c-.966,1.813-6.187,12.233-8.626,17.1a76.072,76.072,0,0,0,.861-25.132Z" transform="translate(-1567.993 -779.718)" fill="#ed7d2b"/><path d="M1801.149,749.859s-.485-5.711,5.421-5.711a6.76,6.76,0,0,0-2.715,1.574s3.767-2.39,7.866,1.282,1.552,12.88,2.8,14.628,6.1,2.1,5.507,7.751-15.406,12.733-14.455,17.41c0,0-5.8-9.22-1.654-13.428a8.484,8.484,0,0,0-2.23,4.507s-.549-4.779,2.265-6.307c2.491-1.353,4.531-6.3,4.315-7.184s-7.119-14.521-7.119-14.521" transform="translate(-1422.967 -575.326)" fill="#202d4f"/><path d="M1755.491,875.033s-8.4,22.91-10.213,22.061-12.482-4.511-12.482-4.511a27.233,27.233,0,0,0,.553,3.413c1.562,1.338,9.418,7.885,14.124,8.218,5.225.37,12.3-16.265,12.3-16.265Z" transform="translate(-1368.974 -676.517)" fill="#ffb27d"/><path d="M1783.85,765.467c-.08-.348,7,3.456,7.355,3.886,3.319,3.978,2.373,9.169.474,9.219-1.218.032-.982,2.22-.982,2.22l-13.568-6.2s1.634-10.293,6.722-9.122" transform="translate(-1403.998 -591.736)" fill="#202d4f"/><path d="M1824.06,877.136s-1.807,2.022-1.807,8.074c0,0,2.49,4.247,8.947,5.322,0,0-5.552-13.4-7.14-13.4" transform="translate(-1439.648 -678.143)" fill="#1c468a"/><path d="M1980.731,956.935l-.041-2.476c4.564.622,15.74-5.894,15.74-5.894s4.775,3.432,5.429,13.233c.319,4.784,2.338,25.016,2.561,31.057.081,2.189.109,3.752.118,4.376a.01.01,0,0,0,0,.006.9.9,0,0,0,.194.51,28.645,28.645,0,0,1,2.473,4.1c6.966,14,3.323,33.03,3.323,33.03l-1.618-.444s-5.89-19.725-9.739-28.257a18.234,18.234,0,0,0-1.743-3.224,39.984,39.984,0,0,1-4.478-9.007c-2.843-7.34-12.218-37.007-12.218-37.007" transform="translate(-1564.819 -733.368)" fill="#f99746"/><path d="M2076.4,1305.926h12.25a7.82,7.82,0,0,0-.347-3.548c-.613-1.469-1.573-2.136-1.343-3.913a4.251,4.251,0,0,1-3.818,1.578,14.451,14.451,0,0,1-2.126,2.977c-.8.622-4.37.4-4.616,2.905" transform="translate(-1640.435 -1003.887)" fill="#2358a5"/><path d="M1838.825,865.954c1.646.3-.269,1.717,1.995,1.982,3.221.38,6.547.64,8.289,1.391a1.916,1.916,0,0,1,1.193,1.044c.755,2.454,4.083,6.239,4.083,6.239,21.331-1.049,23.673-10.689,23.673-10.689-13.844-14.528-26.573-23.1-36.292-24.229-1.663-.194-3.766.947-5.265,1.667-3.4,1.638-5.642,6.357-5.642,6.357s1.715,15.086,7.967,16.238" transform="translate(-1446.447 -650.723)" fill="#1c468a"/><path d="M1878.3,893.549c3.221.38,6.547.64,8.289,1.391a38.969,38.969,0,0,0-4.308-20.141s-3.275,14.4-3.981,18.75" transform="translate(-1483.928 -676.336)" fill="#163560"/><path d="M1843.375,866.185s8.1-.478,9.539,5.017-2.7,27.429-3.592,29.693c-1.624,4.121-9.531,15.884-9.531,15.884l-2.181-1.21s4.545-17.716,5.722-19.495c1.848-2.792-2.382-27.5.042-29.889" transform="translate(-1451.781 -669.669)" fill="#ffb27d"/><path d="M1828.351,1076.652a11.185,11.185,0,0,1-2,4.01,7.528,7.528,0,0,0-1.178,3.654s-.1.843.241.76.72-1.911,1.326-1.821a13.512,13.512,0,0,1-.644,2.617c-.321.575-.511,2.354-.055,2.571,1.1.525,2.737-1.725,3.709-3.136s.016-7.14.016-7.14Z" transform="translate(-1441.946 -832.396)" fill="#ffb27d"/><path d="M1866.163,873.019c-.021.129-7.666,1.52-12.447-1.1,0,0-3.994-13.521,1.714-12.874s9.088,2.59,9.232,5.542a60.868,60.868,0,0,0,1.5,8.434" transform="translate(-1463.432 -664.138)" fill="#1c468a"/><path d="M1824.669,833.461s-2.252,9.08-5.642,6.357a7.84,7.84,0,0,0-1.193-3.007c-.89-1.654-1.951-3.345-1.951-3.345l4.585-4.34.273-.259a12.711,12.711,0,0,0,3.928,4.593" transform="translate(-1434.616 -640.826)" fill="#ffb27d"/><path d="M1815.885,834.352s1.06,1.687,1.951,3.343c2.849-1.9,2.853-5.71,2.633-7.685Z" transform="translate(-1434.617 -641.709)" fill="#ed985f"/><path d="M1787.165,806.36s6.919-4.16,4.455-8.776-3.23-8.262-7.752-5.8-4.432,4.752-3.957,6.509,5.391,9.03,7.254,8.067" transform="translate(-1406.023 -611.542)" fill="#ffb27d"/><path d="M1774.994,793.47c.317-2.05,1.281-2.245,1.952-2.108,2.555-4.566,6.73-2.784,6.73-2.784a9.243,9.243,0,0,0,5.454,3.539s-.8,1.614-4.111,2.614a5.259,5.259,0,0,1-3.263-.282,17.594,17.594,0,0,0,4.7,1.912c-4.36.431-8.507-3.875-8.937-4.336a7.206,7.206,0,0,0-.343,3.086c.287,1.388,1.428,3.9.731,4.228,0,0-3.382-2.8-2.907-5.869" transform="translate(-1402.275 -609.411)" fill="#202d4f"/><path d="M1725.385,948.923a2.171,2.171,0,0,1-2.494-.792c-.642-.708-1.793-1.091-1.2-1.471s2.18.4,2.553.537,1.14,1.726,1.14,1.726" transform="translate(-1360.071 -731.815)" fill="#ffb27d"/><path d="M1957.683,188.335c3.716-15.607,10-29.179,27-29.179,14.914,0,28.441,14.2,27.458,31.691-.9,16.085-13.832,29.71-29.657,27.8-14.822-1.794-29.062-12.437-24.806-30.307" transform="translate(-1546.039 -123.049)" fill="#afcdfb"/><g transform="translate(434.637 44.388)" opacity="0.8"><g clip-path="url(#d)"><path d="M2070.069,236.416a4.543,4.543,0,0,1,.268-1.58,3.875,3.875,0,0,1,.759-1.276,3.367,3.367,0,0,1,1.209-.851,4.608,4.608,0,0,1,3.291,0,3.373,3.373,0,0,1,1.209.851,3.9,3.9,0,0,1,.76,1.276,4.583,4.583,0,0,1,.267,1.58,4.023,4.023,0,0,1-1.013,2.8,4.222,4.222,0,0,1-5.738,0,4.024,4.024,0,0,1-1.013-2.8m6.722-9.542h-5.878l-.647-31.21h7.2Z" transform="translate(-2070.069 -195.662)" fill="#fff"/></g></g><path d="M1111.2,206.518c8.345-35.043,22.451-65.517,60.636-65.517,33.488,0,63.861,31.876,61.654,71.156-2.03,36.118-31.057,66.711-66.59,62.411-33.28-4.027-65.255-27.925-55.7-68.05" transform="translate(-876.535 -109.013)" fill="#afcdfb"/><path d="M1336.1,318.191a29,29,0,0,1-5.815,17.737,24.34,24.34,0,0,0-4.933,14.7v7.744a9.322,9.322,0,0,1-1.964,5.763,8.028,8.028,0,0,1-6.308,3.174h-13.236c-4.549,0-8.271-4.022-8.271-8.937V350.64a24.25,24.25,0,0,0-4.908-14.68,28.979,28.979,0,0,1-5.839-17.6c0-13.225,8.577-24.286,20.05-27.04q.489-.118.986-.214c.176-.035.352-.067.529-.1a23.773,23.773,0,0,1,4.073-.35c14.14,0,25.553,12.256,25.637,27.535" transform="translate(-1015.064 -224.716)" fill="#f9ddbf"/><path d="M1384.309,628.529l-.029.238-.364,3.012-.1.794v.007l-.1.8-.362,3.011-.1.793v.007l-.1.8-.054.441c-.184,1.528-1.8,2.695-3.734,2.695h-4.356a4.628,4.628,0,0,1-1.311-.187h0a4.054,4.054,0,0,1-1.014-.456l-.024-.015a3.4,3.4,0,0,1-.66-.543,2.65,2.65,0,0,1-.722-1.466l-.155-1.167-.1-.736h0v-.016h0l-.1-.719-.37-2.792-.1-.733,0-.016-.1-.724-.4-3.024Z" transform="translate(-1082.335 -485.937)" fill="#ed7d2b"/><path d="M1384.088,628.529h-2.462c-3.973,1.241-7.913,2.468-9.739,3.024l.1.724,0,.016.1.733c1.479-.442,5.028-1.541,13.705-4.259l.029-.238Z" transform="translate(-1083.843 -485.937)" fill="#f99746"/><path d="M1374.676,647.614h0l0,.016h0l.1.735c1.71-.519,5.237-1.612,12.584-3.913l.1-.8v-.007l.1-.794c-4.643,1.452-10.262,3.206-12.972,4.039Z" transform="translate(-1085.97 -497.014)" fill="#f99746"/><path d="M1380.343,667.255l.024.015a4.068,4.068,0,0,0,1.014.456h0c2.015-.624,5.006-1.557,9.454-2.949l.1-.8v-.007l.1-.793c-3.973,1.242-8.53,2.665-11.346,3.535a3.4,3.4,0,0,0,.66.543" transform="translate(-1090.001 -512.724)" fill="#f99746"/><path d="M.441.015,1.6,0,1.162,35.871,0,35.886Z" transform="translate(284.241 107.315) rotate(-9.615)" fill="#ed7d2b"/><path d="M.017.468,35.392,0l-.017,1.163L0,1.63Z" transform="matrix(0.18, -0.984, 0.984, 0.18, 298.451, 142.412)" fill="#ed7d2b"/><path d="M1371.755,476.372a2.1,2.1,0,0,1-.5-.066.756.756,0,0,1-.568-.672,6.1,6.1,0,0,1,1.234-3.436,3.243,3.243,0,0,0-1.555-1.627c-.861-.282-2.182.577-3.1,1.674a7.6,7.6,0,0,1,.452.8c.471.961.81,2.191.346,2.76-.172.211-.522.4-1.218.118a1.6,1.6,0,0,1-.857-2.182,5.121,5.121,0,0,1,.823-1.521c-.712-1-1.665-1.767-2.6-1.639a2.75,2.75,0,0,0-1.289.525,4.5,4.5,0,0,1,.322,3.559,1.011,1.011,0,0,1-1.4.5c-.443-.17-.674-.828-.588-1.677a3.982,3.982,0,0,1,1.2-2.48,3.152,3.152,0,0,0-.667-.808,2.1,2.1,0,0,0-3.009.162l-.252-.264a2.466,2.466,0,0,1,3.477-.2,3.484,3.484,0,0,1,.731.877,3.082,3.082,0,0,1,1.424-.574,3.39,3.39,0,0,1,2.88,1.726c1-1.175,2.427-2.044,3.422-1.719a3.46,3.46,0,0,1,1.675,1.668,6.269,6.269,0,0,1,1.349-1.434c.733-.524,1.21-.4,1.48-.211a2.761,2.761,0,0,1,.711.769,3.941,3.941,0,0,1,.681-.474,1.808,1.808,0,0,1,2.194.094l-.227.29a1.546,1.546,0,0,0-1.811-.045,3.645,3.645,0,0,0-.652.456,4.3,4.3,0,0,1,.351,3.23.723.723,0,0,1-.993.421,1.413,1.413,0,0,1-.975-1.3,3.514,3.514,0,0,1,1.161-2.421,2.407,2.407,0,0,0-.633-.7c-.332-.236-.778-.015-1.094.211a6.184,6.184,0,0,0-1.357,1.473,5.273,5.273,0,0,1,.6,3.157,1.163,1.163,0,0,1-1.172.984m.348-3.8a5.476,5.476,0,0,0-1.072,3,.4.4,0,0,0,.3.37c.688.169,1.11-.048,1.256-.645a4.728,4.728,0,0,0-.484-2.722m-5.075-.027a4.607,4.607,0,0,0-.708,1.317c-.266.848-.048,1.421.649,1.705.28.114.652.2.831-.014.276-.338.114-1.3-.394-2.331a7.293,7.293,0,0,0-.377-.677m-4.388-1.2a3.593,3.593,0,0,0-1.034,2.186c-.065.647.082,1.172.357,1.278a.686.686,0,0,0,.969-.325,4.068,4.068,0,0,0-.293-3.139m12.951.242a3.134,3.134,0,0,0-.992,2.069,1.053,1.053,0,0,0,.746.964.387.387,0,0,0,.559-.235,3.894,3.894,0,0,0-.313-2.8" transform="translate(-1073.292 -362.792)" fill="#ed7d2b"/><path d="M1438.781,328.1c2.108,2.145,1.843,6.093-.868,6.972a5.79,5.79,0,0,1-6.6-3.041c-1.506-2.819-.812-5.136,1.036-6.289s4.237.126,6.43,2.358" transform="translate(-1130.144 -251.512)" fill="#fff0e3"/><path d="M1400.26,224.486h-.245a.853.853,0,0,1-.816-.881V212.689a.853.853,0,0,1,.816-.881h.245a.853.853,0,0,1,.816.881V223.6a.853.853,0,0,1-.816.881" transform="translate(-1105.419 -163.756)" fill="#fff0e3"/><path d="M1548.887,307.812l-.135-.253a.91.91,0,0,1,.294-1.186l4.953-3.09a.774.774,0,0,1,1.1.318l.135.253a.91.91,0,0,1-.294,1.186l-4.953,3.09a.774.774,0,0,1-1.1-.318" transform="translate(-1223.487 -234.39)" fill="#fff0e3"/><path d="M1565.916,387.472h0a.981.981,0,0,1,.938-1.014h12.526a1.017,1.017,0,0,1,0,2.028h-12.526a.981.981,0,0,1-.938-1.014" transform="translate(-1237.132 -298.784)" fill="#fff0e3"/><path d="M1480.391,223.828h0a1.049,1.049,0,0,1-.495-1.331l6.649-16.843a.916.916,0,0,1,1.231-.535,1.049,1.049,0,0,1,.495,1.331l-6.649,16.843a.916.916,0,0,1-1.231.535" transform="translate(-1169.114 -158.523)" fill="#fff0e3"/><path d="M1239.242,307.812l.135-.253a.91.91,0,0,0-.294-1.186l-4.953-3.09a.774.774,0,0,0-1.1.318l-.135.253a.91.91,0,0,0,.294,1.186l4.953,3.09a.774.774,0,0,0,1.1-.318" transform="translate(-973.951 -234.39)" fill="#fff0e3"/><path d="M1193.206,387.472h0a.981.981,0,0,0-.938-1.014h-12.526a1.017,1.017,0,0,0,0,2.028h12.526a.981.981,0,0,0,.938-1.014" transform="translate(-931.298 -298.784)" fill="#fff0e3"/><path d="M1300.849,223.828h0a1.049,1.049,0,0,0,.495-1.331l-6.649-16.843a.916.916,0,0,0-1.231-.535,1.049,1.049,0,0,0-.5,1.331l6.649,16.843a.917.917,0,0,0,1.231.535" transform="translate(-1021.434 -158.523)" fill="#fff0e3"/><path d="M1253.475,625.346c.013-.383.287-4.513,6.109-4.729,0,0-2.863.369-3.358,1.729,0,0,1.949-1.68,3.537-1.14s2.52,3.546,2.529,4.534-.873,4.175-1.88,4.446a2.85,2.85,0,0,1-1.22,0,15.156,15.156,0,0,1,.782,1.508c2.323,5.153-.073,10.188-2.039,9.631-1.261-.357-1.618,1.969-1.618,1.969l-12.254-10.719s4.5-10.063,9.412-7.231" transform="translate(-982.856 -479.82)" fill="#2c3a64"/><path d="M1268.57,1012.731l2.6,1.047s11.305-16.942,12.7-31.848a24.417,24.417,0,0,0-.372-7.62s.11-.682.3-1.888c.089-.562.2-1.24.325-2.016.368-2.275.874-5.389,1.452-8.934,1.33-8.158,3.053-18.586,4.392-26.253l-.7-.243-7.588-2.645-1.568-5.382-5.651-1.607s-1.262,2.668-2.39,15.271c-.208,1.653-.4,3.476-.54,5.453a116.509,116.509,0,0,0,.538,22.077q.389,3.285.992,6.776a32.635,32.635,0,0,1,.217,6.691c-.569,12.185-4.709,31.122-4.709,31.122" transform="translate(-1002.218 -715.413)" fill="#1c468a"/><path d="M1282.678,936.56l12.27,26.356c.089-.563.2-1.24.325-2.016.368-2.276.873-5.389,1.451-8.934,1.33-8.158,3.054-18.586,4.392-26.253l-.7-.243-7.588-2.645-1.568-5.382-7.338-4.4s0,1.228-.639,14.636c-.208,1.653-.462,6.9-.6,8.877" transform="translate(-1013.364 -705.907)" fill="#163560"/><path d="M1308.386,914.169l.284-2.632c4.758,1.366,18.024-5.021,18.024-5.021s4.058,5.583,3.453,16.079c-.3,5.123-.835,26.891-1.4,33.333-.2,2.335-.382,4-.455,4.66a.014.014,0,0,0,0,.006.977.977,0,0,0,.139.571,31.4,31.4,0,0,1,2.08,4.727c5.532,15.928-.852,35.544-.852,35.544l-1.657-.721s-3.633-21.83-6.585-31.474A19.963,19.963,0,0,0,1320,965.55a43.758,43.758,0,0,1-3.555-10.245,270.1,270.1,0,0,1-4.782-27.178,86.174,86.174,0,0,0-3.272-13.958" transform="translate(-1033.674 -700.858)" fill="#1c468a"/><path d="M1146.178,801.893l-.37,3.026s1.686-.243,1.962-.264c.867-.064,3.432-.243,5.815-.52,3.585-.383,6.183-.472,7.877-1.6,2.58-1.7,6.815-6.917,9.573-12.131a3.467,3.467,0,0,0,.2-.383,19.736,19.736,0,0,0,2.521-7.7,11.841,11.841,0,0,0-.335-3.49,9.182,9.182,0,0,0-1.458-3.15,1.563,1.563,0,0,0-.276-.362,6.932,6.932,0,0,0-1.871-1.724c-.473-.213-2.043,1.845-2.575,2.462l-.444,1.426c-.434.49-5.192,17.018-7.339,19.593-.926,1.107-5.239,2.845-9.167,4.022a17.355,17.355,0,0,1-4.111.8" transform="translate(-905.231 -598.076)" fill="#f2a16b"/><path d="M1265.089,734.323a13.92,13.92,0,0,0,5.48,1.387c8.181.484,10.038-7.265,10.376-12.408a6.381,6.381,0,0,0-2.807-.383c-.475.028-.967.076-1.4.129a.745.745,0,0,1-.577-.175c-1.03-.874-2.6-3.519-3.543-7.688l-.353.177-5.9,3s.627,2.075,1.09,4.062a22.25,22.25,0,0,1,.443,2.359,1.418,1.418,0,0,1-.783,1.45.019.019,0,0,1,0,.007,46.532,46.532,0,0,0-2.019,8.084" transform="translate(-999.468 -552.934)" fill="#ffb27d"/><path d="M1283.914,787.247c-.067,3.27-21.376,6.168-25.042,3.974,0,0-.951-4.956-2.162-10.527-.365-1.676-.753-3.4-1.145-5.073a70.551,70.551,0,0,0-2.6-9.194c-.076-.178-.142-.348-.2-.526-1.634-4.677,1.424-9.679-.687-11.158a16.23,16.23,0,0,1,4.754-2.732.018.018,0,0,1,0,.007c-.055.221-.366,3.326.233,4.541,1.185,2.4,5.813,1.145,7.925-1.818a16.57,16.57,0,0,0,2.631-5.126l.242-.917s3.9-.571,6.1.389a19.294,19.294,0,0,0-1.184,4.276c-.031.214-.055.428-.075.641a9.083,9.083,0,0,0-.031,1.345,2.664,2.664,0,0,0,.753,1.606,11.967,11.967,0,0,0,1.573,1.409c.407.317.842.648,1.291,1.011.04,2.641-.133,6.985.32,11.619a8.254,8.254,0,0,0,1.045,3.3,8.093,8.093,0,0,0,.773,1.126c2.307,2.792,5.573,11.449,5.5,11.83" transform="translate(-989.185 -578.712)" fill="#f99746"/><path d="M1271.14,718.969s.628,2.074,1.09,4.062c3.45-1.04,4.5-4.959,4.813-7.06Z" transform="translate(-1004.248 -553.541)" fill="#ed985f"/><path d="M1247.929,683.582s8.255-2.064,6.986-7.6-1.058-9.529-6.382-8.445-5.86,3.469-5.853,5.428,3.069,11.011,5.249,10.617" transform="translate(-981.764 -515.958)" fill="#ffb27d"/><path d="M1239.087,666.385c.887-2.006,1.932-1.9,2.585-1.543a5.6,5.6,0,0,1,7.684-.71,10.506,10.506,0,0,0,4.638,5.385s-1.268,1.4-4.944,1.372a5.785,5.785,0,0,1-3.279-1.334,19.875,19.875,0,0,0,4.3,3.469c-4.6-.951-7.686-6.707-8-7.318a7.48,7.48,0,0,0-1.2,3.064c-.085,1.519.4,4.469-.407,4.582,0,0-2.712-3.957-1.381-6.965" transform="translate(-978.635 -512.52)" fill="#2c3a64"/><path d="M1244.273,775.916s-.733.455-2.072,4.879c0,0,1.534,2.06,3.406,1.867,0,0,.25-6.241-1.333-6.746" transform="translate(-981.385 -599.887)" fill="#f99746"/><path d="M1363.833,1304.143h13.109a8.372,8.372,0,0,0-.37-3.8c-.656-1.572-1.684-2.286-1.438-4.187a4.55,4.55,0,0,1-4.086,1.689,15.467,15.467,0,0,1-2.275,3.186c-.857.665-4.677.428-4.94,3.109" transform="translate(-1077.479 -1002.104)" fill="#2358a5"/><path d="M1229.775,1306.308h13.109a6.331,6.331,0,0,0-.371-3.8,2.907,2.907,0,0,1,.094-3.26,4.769,4.769,0,0,1-2.208.449,4.4,4.4,0,0,1-1.949-.741,49.529,49.529,0,0,1-3.735,4.24c-.857.665-4.677.428-4.941,3.109" transform="translate(-971.568 -1004.268)" fill="#2358a5"/><path d="M1145.807,840.151a8.426,8.426,0,0,0-1.868-2.025c-.719-.351-1.4-2.512-1.8-1.851-.242.4.371,1.9.214,2.237s-1.742-.376-2.02-.856c-.186-.322-1.821-2.453-1.858-1.471s1.39,4.752,2.093,5.232a17.64,17.64,0,0,0,3.367,1.127Z" transform="translate(-899.44 -646.284)" fill="#ffb27d"/><path d="M1284.417,814.055c-2.964,7.835-14.373,17.54-14.373,17.54l-.2-.24c-.364-1.676-.753-3.4-1.144-5.073l12.153-12.227Z" transform="translate(-1002.321 -629.373)" fill="#ed7d2b"/><path d="M1164.857,776.222l-.372,2.235s6.521,1.611,7.959,1.951l.018.009c2.484.533,5.285,1.083,7.726,1.36a19.168,19.168,0,0,0,4.4.057,2.235,2.235,0,0,0,.333-.069c2.793-.6,7.34-4.2,11.479-8.418.573-.582,1.129-1.172,1.676-1.744a57.016,57.016,0,0,0,5.17-6.332,23.136,23.136,0,0,0,1.974-3.259,9.793,9.793,0,0,0,.438-.977c2.353-5.624.106-7.679.106-7.679-.045-.046-.091-.092-.154-.147-.415-.3-1.02-.2-1.775.195a17.989,17.989,0,0,0-3.471,2.7c-2.083,1.987-14.573,18.417-17.488,19.043-2.531.543-18.019,1.073-18.019,1.073" transform="translate(-919.987 -582.196)" fill="#ffb27d"/><path d="M1320.683,750.441a4.165,4.165,0,0,1,2.768,3.653c.222,2.882-.124,11.8-.124,11.8s-8.32-2.578-11.709-8.076c0,0,6.111-7.3,9.065-7.375" transform="translate(-1036.227 -580.191)" fill="#f99746"/><path d="M607,1334.064H.86a.9.9,0,0,1-.86-.929v-.856a.9.9,0,0,1,.86-.929H607a.9.9,0,0,1,.86.929v.856a.9.9,0,0,1-.86.929" transform="translate(0 -1029.312)" fill="#2e3552"/></g></g></g></svg>